<svg xmlns="http://www.w3.org/2000/svg" width="97.8" height="109.089" viewBox="0 0 97.8 109.089">
  <g id="approach-product" transform="translate(-16 -11.329)">
    <g id="paper_5_">
      <rect id="color" width="90" height="96" transform="translate(16 17)" fill="#ff919f"/>
      <g id="grid">
        <g id="Group_1" data-name="Group 1">
          <rect id="Rectangle_8" data-name="Rectangle 8" width="79" height="1" transform="translate(21.5 44)" fill="#e0e0e0"/>
          <rect id="Rectangle_9" data-name="Rectangle 9" width="79" height="1" transform="translate(21.5 65)" fill="#e0e0e0"/>
          <rect id="Rectangle_10" data-name="Rectangle 10" width="79" height="1" transform="translate(21.5 85)" fill="#e0e0e0"/>
        </g>
        <g id="Group_2" data-name="Group 2">
          <rect id="Rectangle_11" data-name="Rectangle 11" width="1" height="84" transform="translate(41 23)" fill="#e0e0e0"/>
          <rect id="Rectangle_12" data-name="Rectangle 12" width="1" height="84" transform="translate(60 23)" fill="#e0e0e0"/>
          <rect id="Rectangle_13" data-name="Rectangle 13" width="1" height="84" transform="translate(79 23)" fill="#e0e0e0"/>
        </g>
        <path id="Path_18" data-name="Path 18" d="M101,108H21V22h80Zm-78-2H99V24H23Z" fill="#e0e0e0"/>
      </g>
    </g>
    <g id="rod_r">
      <path id="Path_19" data-name="Path 19" d="M77.3,109.9,75.4,120c-.1.4.5.6.7.2l4.4-9.3Z" fill="#e8e8ef"/>
      <path id="Path_20" data-name="Path 20" d="M90,67.7l8.6,2.9L91.5,92.1l-6.4-9.5Z" fill="#e0e0e0"/>
      <rect id="Rectangle_14" data-name="Rectangle 14" width="31.5" height="9.1" transform="matrix(0.316, -0.949, 0.949, 0.316, 90.019, 67.79)" fill="#e0e0e0"/>
      <path id="Path_21" data-name="Path 21" d="M91.5,92.1,89,99.7l-6.3,12-6.6-2.2,9-26.9Z" fill="#e0e0e0"/>
      <g id="Group_3" data-name="Group 3">
        <circle id="Ellipse_1" data-name="Ellipse 1" cx="2.9" cy="2.9" r="2.9" transform="matrix(0.423, -0.906, 0.906, 0.423, 87.529, 79.654)" fill="#fc7485"/>
        <rect id="Rectangle_15" data-name="Rectangle 15" width="1.2" height="5.8" transform="matrix(0.777, -0.629, 0.629, 0.777, 89.094, 76.352)" fill="#263238"/>
      </g>
    </g>
    <g id="wheel_3_">
      <rect id="Rectangle_16" data-name="Rectangle 16" width="3.3" height="2.5" transform="translate(101.91 64.842) rotate(-71.58)" fill="#263238"/>
      <rect id="Rectangle_17" data-name="Rectangle 17" width="6.8" height="2.5" transform="translate(100.179 66.08) rotate(-71.58)" fill="#263238"/>
      <rect id="Rectangle_18" data-name="Rectangle 18" width="14.5" height="2.5" transform="translate(102.526 70.908) rotate(-71.58)" fill="#cfd8dc"/>
    </g>
    <g id="wheel_2_">
      <circle id="Ellipse_2" data-name="Ellipse 2" cx="5.4" cy="5.4" r="5.4" transform="matrix(0.423, -0.906, 0.906, 0.423, 80.517, 101.121)" fill="#bf4252"/>
      <circle id="Ellipse_3" data-name="Ellipse 3" cx="1.2" cy="1.2" r="1.2" transform="matrix(0.423, -0.906, 0.906, 0.423, 86.097, 99.087)" fill="#fff"/>
    </g>
    <g id="rod_l">
      <path id="Path_22" data-name="Path 22" d="M49,105.5l-.4,2.3a1.013,1.013,0,0,0,1.6,1l1.9-1.4a8.129,8.129,0,0,0,1.8-1.9l3.1-5-3.9-2.4L50,103A8.72,8.72,0,0,0,49,105.5Z" fill="#263238"/>
      <path id="Path_23" data-name="Path 23" d="M68.2,79.2,64.7,77h0l-2.4-1.5-5.6,9.2L51.6,97.2l5.9,3.7L70.1,80.3Z" fill="#e0e0e0"/>
      <path id="Path_24" data-name="Path 24" d="M75.9,66.6l-3.5-2.1L65.2,76.1l-2.3-1.4-.6.8,7.8,4.8.5-.8-1.9-1.2Z" fill="#263238"/>
      <path id="Path_25" data-name="Path 25" d="M79.4,59l-2.1-1.3L65.8,76.5l-2.9-1.8L74.7,55.5l11.4-1.2L70.6,79.5l-2.7-1.7Z" fill="#e0e0e0"/>
      <path id="Path_26" data-name="Path 26" d="M89.3,31.7l7.8,4.8-11,17.8L74.7,55.5Z" fill="#e0e0e0"/>
    </g>
    <g id="wheel_1_">
      <rect id="Rectangle_19" data-name="Rectangle 19" width="6.8" height="2.5" transform="matrix(0.524, -0.852, 0.852, 0.524, 64.378, 67.504)" fill="#263238"/>
      <path id="Path_27" data-name="Path 27" d="M75.3,72.1h0l1.6-2.9.1.1a1.634,1.634,0,0,1,.5,2.3h0A1.5,1.5,0,0,1,75.3,72.1Z" fill="#263238"/>
      <rect id="Rectangle_20" data-name="Rectangle 20" width="14.5" height="2.5" transform="matrix(0.524, -0.852, 0.852, 0.524, 60.279, 69.42)" fill="#cfd8dc"/>
    </g>
    <g id="wheel">
      <circle id="Ellipse_4" data-name="Ellipse 4" cx="5.4" cy="5.4" r="5.4" transform="matrix(0.423, -0.906, 0.906, 0.423, 51.124, 87.404)" fill="#bf4252"/>
      <circle id="Ellipse_5" data-name="Ellipse 5" cx="1.2" cy="1.2" r="1.2" transform="matrix(0.423, -0.906, 0.906, 0.423, 56.706, 85.373)" fill="#fff"/>
    </g>
    <g id="fasteners">
      <g id="Group_4" data-name="Group 4">
        <path id="Path_28" data-name="Path 28" d="M113.8,15.9l-8.6-4C109.4,10.4,112.2,11.9,113.8,15.9Z" fill="#fc7485"/>
        <rect id="Rectangle_21" data-name="Rectangle 21" width="3.5" height="12.4" transform="matrix(0.423, -0.906, 0.906, 0.423, 95.841, 28.084)" fill="#fc7485"/>
        <path id="Path_29" data-name="Path 29" d="M113.8,15.9l-5.2,14.3L97.3,24.9l7.9-13,4.2,1.9Z" fill="#9b2a39"/>
      </g>
      <path id="Path_30" data-name="Path 30" d="M102,29.7c6.4,3,11.1,6.7,10.3,8.2L109.9,43l-9.4,11.4L99.4,57c-.6,1.2-4.8.5-9.4-1.6s-7.8-4.9-7.3-6.1l1.2-2.5,2.7-14.5L89,27.2C89.8,25.5,95.6,26.7,102,29.7Z" fill="#bf4252"/>
      <g id="Group_5" data-name="Group 5">
        <circle id="Ellipse_6" data-name="Ellipse 6" cx="3.3" cy="3.3" r="3.3" transform="matrix(0.208, -0.978, 0.978, 0.208, 100.119, 42.246)" fill="#cfd8dc"/>
        <path id="Path_31" data-name="Path 31" d="M102.2,38.7l1.4.3.3-1.4,1.2.2-.3,1.5,1.4.3-.2,1.2-1.5-.3-.3,1.4-1.2-.3.3-1.4-1.4-.3Z" fill="#263238"/>
      </g>
      <g id="Group_6" data-name="Group 6">
        <circle id="Ellipse_7" data-name="Ellipse 7" cx="3.3" cy="3.3" r="3.3" transform="translate(89.338 32.08) rotate(-10.976)" fill="#cfd8dc"/>
        <path id="Path_32" data-name="Path 32" d="M91,34.5l1.4-.3-.2-1.5,1.2-.2.3,1.4,1.4-.2.2,1.2-1.4.3.3,1.4-1.2.2-.3-1.4-1.4.3Z" fill="#263238"/>
      </g>
    </g>
  </g>
</svg>
