<svg xmlns="http://www.w3.org/2000/svg" width="594.197" height="593.658" viewBox="0 0 594.197 593.658">
  <g id="OBJECTS" transform="translate(-38.116 -38.308)">
    <g id="Group_272" data-name="Group 272" transform="translate(38.116 38.308)">
      <g id="Group_230" data-name="Group 230">
        <g id="Group_220" data-name="Group 220" transform="translate(209.594)">
          <g id="Group_218" data-name="Group 218">
            <path id="Path_124" data-name="Path 124" d="M267.674,136.977l30.28-29.118v-31.5a8.325,8.325,0,1,0-2.8,0v30.311l-30.28,29.116v66.292h-2.483V240.2h7.771V202.074h-2.483Zm23.357-68.817a5.52,5.52,0,1,1,5.52,5.519A5.526,5.526,0,0,1,291.031,68.159Z" transform="translate(-157.515 -29.65)" fill="#ff788a"/>
            <path id="Path_125" data-name="Path 125" d="M248.1,135.782l-30.28-29.116V76.355a8.323,8.323,0,1,0-2.8,0v31.5l30.28,29.118v65.1h-2.483V240.2h7.771V202.074H248.1ZM210.9,68.159a5.52,5.52,0,1,1,5.519,5.519A5.526,5.526,0,0,1,210.9,68.159Z" transform="translate(-179.347 -29.65)" fill="#ff788a"/>
            <path id="Path_126" data-name="Path 126" d="M252.782,38.308a8.318,8.318,0,0,0-1.4,16.519v155.9H248.9v38.127h7.769V210.732h-2.482V54.827a8.319,8.319,0,0,0-1.4-16.519Zm0,13.842a5.519,5.519,0,1,1,5.519-5.519A5.526,5.526,0,0,1,252.782,52.15Z" transform="translate(-164.725 -38.308)" fill="#ff788a"/>
            <path id="Path_127" data-name="Path 127" d="M319.5,107.472a8.31,8.31,0,0,0-6.753,13.173l-32.981,32.264v30.007H277.15v38.127h7.769V182.916h-2.353V154.09l32.171-31.473a8.32,8.32,0,1,0,4.758-15.145Zm0,13.844a5.52,5.52,0,1,1,5.518-5.519A5.526,5.526,0,0,1,319.5,121.316Z" transform="translate(-151.577 -10.492)" fill="#ff788a"/>
            <path id="Path_128" data-name="Path 128" d="M235.651,152.909l-32.982-32.264a8.329,8.329,0,1,0-2,1.971l32.173,31.473v28.826h-2.483v38.127h7.769V182.916h-2.482Zm-39.733-31.594a5.52,5.52,0,1,1,5.519-5.519A5.525,5.525,0,0,1,195.917,121.316Z" transform="translate(-187.594 -10.492)" fill="#ff788a"/>
          </g>
          <g id="Group_219" data-name="Group 219" transform="translate(42.772 172.413)">
            <rect id="Rectangle_8" data-name="Rectangle 8" width="38.127" height="7.77" transform="translate(0 38.127) rotate(-90)" fill="#bf4252"/>
            <rect id="Rectangle_9" data-name="Rectangle 9" width="38.127" height="7.77" transform="translate(20.701 38.127) rotate(-90)" fill="#bf4252"/>
            <rect id="Rectangle_10" data-name="Rectangle 10" width="38.127" height="7.77" transform="translate(41.402 38.127) rotate(-90)" fill="#bf4252"/>
            <rect id="Rectangle_11" data-name="Rectangle 11" width="38.127" height="7.77" transform="translate(62.103 38.127) rotate(-90)" fill="#bf4252"/>
            <rect id="Rectangle_12" data-name="Rectangle 12" width="38.127" height="7.77" transform="translate(82.804 38.127) rotate(-90)" fill="#bf4252"/>
          </g>
        </g>
        <g id="Group_223" data-name="Group 223" transform="translate(0 208.708)">
          <g id="Group_221" data-name="Group 221">
            <path id="Path_129" data-name="Path 129" d="M182.724,237.694h38.128v-7.771H182.724v2.483H153.9l-31.473-32.173a8.367,8.367,0,1,0-1.971,2l32.264,32.982h30.007Zm-61.6-42.217a5.519,5.519,0,1,1-5.519-5.519A5.524,5.524,0,0,1,121.123,195.477Z" transform="translate(-10.3 -187.154)" fill="#ff788a"/>
            <path id="Path_130" data-name="Path 130" d="M201.882,250.147H240.01v-7.769H201.882v2.482h-65.1l-29.119-30.279h-31.5a8.323,8.323,0,1,0,0,2.8h30.309l29.119,30.279h66.289ZM73.488,215.983a5.52,5.52,0,1,1-5.52-5.519A5.526,5.526,0,0,1,73.488,215.983Z" transform="translate(-29.458 -178.907)" fill="#ff788a"/>
            <path id="Path_131" data-name="Path 131" d="M59.644,296.112a8.319,8.319,0,0,0,16.519,1.4h31.5l29.119-30.28h65.1v2.482H240.01v-7.769H201.882v2.483H135.593l-29.119,30.28H76.164a8.319,8.319,0,0,0-16.52,1.4Zm2.8,0a5.52,5.52,0,1,1,5.519,5.518A5.526,5.526,0,0,1,62.448,296.112Z" transform="translate(-29.458 -157.074)" fill="#ff788a"/>
            <path id="Path_132" data-name="Path 132" d="M38.116,252.341a8.318,8.318,0,0,0,16.519,1.4h155.9v2.483h38.128v-7.771H210.54v2.483H54.635a8.319,8.319,0,0,0-16.519,1.4Zm2.8,0a5.519,5.519,0,1,1,5.52,5.52A5.526,5.526,0,0,1,40.92,252.341Z" transform="translate(-38.116 -164.285)" fill="#ff788a"/>
            <path id="Path_133" data-name="Path 133" d="M107.281,319.054a8.323,8.323,0,1,0,15.145-4.755L153.9,282.127h28.826v2.354h38.128V276.71H182.724v2.612H152.717L120.453,312.3a8.309,8.309,0,0,0-13.172,6.75Zm2.8,0a5.519,5.519,0,1,1,5.519,5.52A5.525,5.525,0,0,1,110.085,319.054Z" transform="translate(-10.3 -151.137)" fill="#ff788a"/>
          </g>
          <g id="Group_222" data-name="Group 222" transform="translate(172.324 42.769)">
            <rect id="Rectangle_13" data-name="Rectangle 13" width="38.127" height="7.77" fill="#bf4252"/>
            <rect id="Rectangle_14" data-name="Rectangle 14" width="38.127" height="7.77" transform="translate(0 20.701)" fill="#bf4252"/>
            <rect id="Rectangle_15" data-name="Rectangle 15" width="38.127" height="7.77" transform="translate(0 41.402)" fill="#bf4252"/>
            <rect id="Rectangle_16" data-name="Rectangle 16" width="38.127" height="7.77" transform="translate(0 62.103)" fill="#bf4252"/>
            <rect id="Rectangle_17" data-name="Rectangle 17" width="38.127" height="7.77" transform="translate(0 82.804)" fill="#bf4252"/>
          </g>
        </g>
        <g id="Group_226" data-name="Group 226" transform="translate(383.645 208.708)">
          <g id="Group_224" data-name="Group 224">
            <path id="Path_134" data-name="Path 134" d="M349.851,235.211h30.005l32.264-32.982a8.324,8.324,0,1,0-1.971-2l-31.472,32.173H349.851v-2.483H311.723v7.771h38.128Zm67.119-45.252a5.519,5.519,0,1,1-5.519,5.519A5.526,5.526,0,0,1,416.97,189.958Z" transform="translate(-311.723 -187.154)" fill="#ff788a"/>
            <path id="Path_135" data-name="Path 135" d="M349.851,247.664H416.14l29.119-30.279h30.309a8.323,8.323,0,1,0,0-2.8h-31.5L414.947,244.86h-65.1v-2.482H311.723v7.769h38.128Zm133.915-37.2a5.519,5.519,0,1,1-5.52,5.519A5.524,5.524,0,0,1,483.766,210.464Z" transform="translate(-311.723 -178.907)" fill="#ff788a"/>
            <path id="Path_136" data-name="Path 136" d="M483.766,287.788a8.331,8.331,0,0,0-8.2,6.922H445.259L416.14,264.43H349.851v-2.483H311.723v7.769h38.128v-2.482h65.1l29.118,30.28h31.5a8.319,8.319,0,1,0,8.2-9.727Zm0,13.842a5.519,5.519,0,1,1,5.518-5.518A5.526,5.526,0,0,1,483.766,301.63Z" transform="translate(-311.723 -157.074)" fill="#ff788a"/>
            <path id="Path_137" data-name="Path 137" d="M513.95,244.018a8.329,8.329,0,0,0-8.194,6.921h-155.9v-2.483H311.723v7.771h38.128v-2.483h155.9a8.319,8.319,0,1,0,8.194-9.725Zm0,13.844a5.52,5.52,0,1,1,5.52-5.52A5.525,5.525,0,0,1,513.95,257.862Z" transform="translate(-311.723 -164.285)" fill="#ff788a"/>
            <path id="Path_138" data-name="Path 138" d="M416.97,310.732a8.268,8.268,0,0,0-4.85,1.572l-32.264-32.982H349.851V276.71H311.723v7.771h38.128v-2.354h28.826L410.149,314.3a8.317,8.317,0,1,0,6.822-3.567Zm0,13.842a5.519,5.519,0,1,1,5.519-5.52A5.525,5.525,0,0,1,416.97,324.575Z" transform="translate(-311.723 -151.137)" fill="#ff788a"/>
          </g>
          <g id="Group_225" data-name="Group 225" transform="translate(0.001 42.769)">
            <rect id="Rectangle_18" data-name="Rectangle 18" width="38.127" height="7.77" fill="#bf4252"/>
            <rect id="Rectangle_19" data-name="Rectangle 19" width="38.127" height="7.77" transform="translate(0 20.701)" fill="#bf4252"/>
            <rect id="Rectangle_20" data-name="Rectangle 20" width="38.127" height="7.77" transform="translate(0 41.402)" fill="#bf4252"/>
            <rect id="Rectangle_21" data-name="Rectangle 21" width="38.127" height="7.77" transform="translate(0 62.103)" fill="#bf4252"/>
            <rect id="Rectangle_22" data-name="Rectangle 22" width="38.127" height="7.77" transform="translate(0 82.804)" fill="#bf4252"/>
          </g>
        </g>
        <g id="Group_229" data-name="Group 229" transform="translate(209.594 383.107)">
          <g id="Group_227" data-name="Group 227" transform="translate(0 0)">
            <path id="Path_139" data-name="Path 139" d="M267.674,349.659h2.483V311.532h-7.771v38.126h2.483v66.292l30.28,29.116v30.311a8.323,8.323,0,1,0,2.8,0v-31.5l-30.28-29.118Zm28.878,128.4a5.519,5.519,0,1,1-5.52,5.519A5.525,5.525,0,0,1,296.551,478.054Z" transform="translate(-157.515 -311.532)" fill="#ff788a"/>
            <path id="Path_140" data-name="Path 140" d="M248.1,349.659h2.483V311.532h-7.771v38.126H245.3v65.1l-30.28,29.118v31.5a8.325,8.325,0,1,0,2.8,0V445.067l30.28-29.116Zm-31.682,128.4a5.519,5.519,0,1,1-5.519,5.519A5.526,5.526,0,0,1,216.422,478.054Z" transform="translate(-179.347 -311.532)" fill="#ff788a"/>
            <path id="Path_141" data-name="Path 141" d="M261.1,513.759a8.33,8.33,0,0,0-6.921-8.2v-155.9h2.482V311.532H248.9v38.126h2.483v155.9a8.319,8.319,0,1,0,9.725,8.2Zm-2.8,0a5.52,5.52,0,1,1-5.519-5.519A5.525,5.525,0,0,1,258.3,513.759Z" transform="translate(-164.725 -311.532)" fill="#ff788a"/>
            <path id="Path_142" data-name="Path 142" d="M327.818,416.778a8.312,8.312,0,0,0-13.079-6.82l-32.171-31.473V349.659h2.353V311.532H277.15v38.126h2.612v30.007l32.981,32.264a8.319,8.319,0,1,0,15.075,4.849Zm-2.8,0a5.519,5.519,0,1,1-5.518-5.519A5.526,5.526,0,0,1,325.013,416.778Z" transform="translate(-151.577 -311.532)" fill="#ff788a"/>
            <path id="Path_143" data-name="Path 143" d="M235.651,349.659h2.482V311.532h-7.769v38.126h2.483v28.826l-32.173,31.473a8.367,8.367,0,1,0,2,1.971l32.982-32.264Zm-34.214,67.119a5.519,5.519,0,1,1-5.519-5.519A5.526,5.526,0,0,1,201.436,416.778Z" transform="translate(-187.594 -311.532)" fill="#ff788a"/>
          </g>
          <g id="Group_228" data-name="Group 228" transform="translate(42.772)">
            <rect id="Rectangle_23" data-name="Rectangle 23" width="38.127" height="7.77" transform="translate(0 38.127) rotate(-90)" fill="#bf4252"/>
            <rect id="Rectangle_24" data-name="Rectangle 24" width="38.127" height="7.77" transform="translate(20.701 38.127) rotate(-90)" fill="#bf4252"/>
            <rect id="Rectangle_25" data-name="Rectangle 25" width="38.127" height="7.77" transform="translate(41.402 38.127) rotate(-90)" fill="#bf4252"/>
            <rect id="Rectangle_26" data-name="Rectangle 26" width="38.127" height="7.77" transform="translate(62.103 38.127) rotate(-90)" fill="#bf4252"/>
            <rect id="Rectangle_27" data-name="Rectangle 27" width="38.127" height="7.77" transform="translate(82.804 38.127) rotate(-90)" fill="#bf4252"/>
          </g>
        </g>
      </g>
      <g id="Group_271" data-name="Group 271" transform="translate(139.664 136.595)">
        <g id="Group_258" data-name="Group 258" transform="translate(0 0)">
          <g id="Group_234" data-name="Group 234" transform="translate(221.701)">
            <g id="Group_231" data-name="Group 231" transform="translate(20.048 19.965)">
              <path id="Path_144" data-name="Path 144" d="M338.487,206.7a28.368,28.368,0,1,1,28.372-28.442A28.39,28.39,0,0,1,338.487,206.7Zm20.13-27.3c-1.885,0-3.769.007-5.652-.007-.332,0-.43.08-.442.425a52.656,52.656,0,0,1-1.423,11.136c-.088.351,0,.432.356.43q4.692-.021,9.388,0a.629.629,0,0,0,.638-.386,27.813,27.813,0,0,0,1.688-3.719,26.554,26.554,0,0,0,1.528-7.371c.025-.435-.115-.523-.52-.519C362.324,179.413,360.47,179.4,358.617,179.4Zm-40.24,0c-1.838,0-3.678,0-5.516,0-.62,0-.595-.114-.552.59a26.042,26.042,0,0,0,3.261,11.126c.14.258.332.261.566.261,3.13,0,6.259-.01,9.388.007.418,0,.436-.142.353-.474a52.542,52.542,0,0,1-1.408-11.045c-.013-.377-.108-.481-.487-.477C322.115,179.41,320.246,179.4,318.377,179.4Zm40.247-2.144c1.871,0,3.74-.011,5.609.008.381,0,.484-.1.463-.48a26.411,26.411,0,0,0-2.664-10.1.478.478,0,0,0-.5-.292q-4.9.008-9.8,0c-.384,0-.425.143-.356.464a54.994,54.994,0,0,1,1.147,9.986c.011.353.125.422.449.419C354.855,177.249,356.739,177.256,358.624,177.256Zm-40.269,0c1.9,0,3.8,0,5.7,0,.268,0,.4-.035.411-.36a55.365,55.365,0,0,1,1.154-10.079c.069-.318-.011-.428-.349-.428-2.977.008-5.955.053-8.929-.029-1.01-.028-1.562.275-1.782,1.23a.4.4,0,0,1-.039.083,25.716,25.716,0,0,0-2.231,9.144c-.022.383.112.446.456.443C314.615,177.248,316.484,177.256,318.355,177.256Zm21.211,8.145q0,2.69,0,5.379c0,.6,0,.6.575.6,2.7,0,5.41-.008,8.114.011.408,0,.572-.112.67-.517a50,50,0,0,0,1.437-10.352c.01-.358.192-.82-.048-1.047s-.7-.067-1.057-.069c-3.085,0-6.17.008-9.253-.017-.4,0-.446.126-.445.456C339.569,181.694,339.564,183.548,339.565,185.4Zm-2.141-.039c0-1.869,0-3.738,0-5.607,0-.224,0-.36-.3-.36q-5.1.013-10.209,0c-.261,0-.332.081-.327.341a51.12,51.12,0,0,0,1.479,11.171.522.522,0,0,0,.61.48q4.148-.027,8.3,0c.372,0,.453-.114.45-.461C337.416,189.069,337.423,187.216,337.424,185.362Zm0-13.473h0c0-1.685,0-3.372,0-5.059,0-.287-.041-.437-.39-.436q-4.377.019-8.751,0a.392.392,0,0,0-.459.367,51.949,51.949,0,0,0-1.234,10.107c-.007.3.062.4.369.393.592-.02,1.185-.006,1.778-.006,2.75,0,5.5,0,8.249.007.349,0,.451-.07.444-.452C337.4,175.171,337.421,173.529,337.421,171.889Zm7.551,5.367c1.659,0,3.316-.01,4.974.007.355,0,.457-.084.449-.457a52.335,52.335,0,0,0-1.227-10.026.418.418,0,0,0-.492-.387q-4.333.017-8.668,0c-.325,0-.452.07-.45.428q.021,5.018.006,10.035c0,.311.059.411.393.408C341.626,177.246,343.3,177.256,344.972,177.256Zm-12.885-24.3a25.982,25.982,0,0,0-15.744,11.286c.157.02.213.034.269.034,3.1,0,6.2,0,9.3.01.311,0,.38-.16.443-.393a31.765,31.765,0,0,1,1.283-3.744,23.191,23.191,0,0,1,3.671-6.311C331.564,153.544,331.828,153.254,332.087,152.961ZM360.542,164.3l.052-.143a26.49,26.49,0,0,0-15.687-11.3.766.766,0,0,0,.262.414,18.85,18.85,0,0,1,2.911,4.167,30.064,30.064,0,0,1,2.493,6.287c.114.416.276.575.732.566,1.639-.027,3.28,0,4.92,0Q358.382,164.3,360.542,164.3Zm-23.119-6.025v-5.331c0-.813,0-.824-.784-.531a9.182,9.182,0,0,0-3.949,3.12,26.1,26.1,0,0,0-4.114,8.414c-.108.338.038.341.293.341,2.719-.006,5.439-.01,8.158,0,.324,0,.405-.1.4-.409C337.416,162.01,337.423,160.143,337.423,158.274Zm2.144-.025h0c0,1.883,0,3.768-.006,5.651,0,.287.067.391.376.39q4.1-.017,8.2,0c.307,0,.369-.079.265-.36-.3-.81-.543-1.639-.857-2.445a21.547,21.547,0,0,0-3.727-6.527,8.421,8.421,0,0,0-3.794-2.65c-.363-.114-.47-.06-.467.338C339.576,154.511,339.567,156.379,339.567,158.248ZM317.09,193.477a24.729,24.729,0,0,0,5.445,5.686,25.577,25.577,0,0,0,9.55,4.61,1.273,1.273,0,0,0-.339-.466,17.252,17.252,0,0,1-2.1-2.8,27.74,27.74,0,0,1-2.929-6.642.48.48,0,0,0-.552-.4c-2.337.067-4.676.06-7.015.011C318.5,193.464,317.855,193.477,317.09,193.477Zm27.715,10.341a26.57,26.57,0,0,0,15.1-10.309h-3.413c-1.913,0-3.827,0-5.74-.007-.264,0-.366.1-.439.341a32,32,0,0,1-1.132,3.072,24.6,24.6,0,0,1-2.838,5.073C345.892,202.595,345.372,203.142,344.805,203.818ZM337.421,199h0q0-2.528,0-5.058c0-.238.025-.439-.337-.436-2.628.013-5.257.008-7.884,0-.282,0-.348.084-.245.348.236.609.435,1.231.683,1.834a19.6,19.6,0,0,0,4.156,6.677,7.723,7.723,0,0,0,3.212,2c.334.1.421.035.418-.31C337.414,202.369,337.421,200.682,337.421,199Zm2.144-.039c0,1.685.011,3.372-.007,5.058,0,.4.111.45.468.338a8.337,8.337,0,0,0,3.762-2.618,23.009,23.009,0,0,0,4.216-7.8c.128-.367.039-.435-.318-.433q-3.851.015-7.7,0c-.351,0-.428.114-.425.445C339.575,195.613,339.567,197.285,339.565,198.956Z" transform="translate(-310.131 -149.963)" fill="#bf4252"/>
            </g>
            <g id="Group_232" data-name="Group 232">
              <g id="Path_145" data-name="Path 145" transform="translate(-295.833 -135.725)" fill="none" stroke-miterlimit="10" opacity="0.15" style="mix-blend-mode: multiply;isolation: isolate">
                <path d="M365.642,135.725H322.69l-26.857,26.857v42.952L322.69,232.39h42.952L392.5,205.534V162.582Z" stroke="none"/>
                <path d="M 322.6903076171875 135.7247772216797 L 295.83349609375 162.5816040039062 L 295.83349609375 205.5335693359375 L 322.6903076171875 232.3903656005859 L 365.6423950195312 232.3903656005859 L 392.4992065429688 205.5335693359375 L 392.4992065429688 162.5816040039062 L 365.6423950195312 135.7247772216797 L 322.6903076171875 135.7247772216797 M 321.033447265625 131.7247772216797 L 367.2992553710938 131.7247772216797 L 396.4992065429688 160.9247589111328 L 396.4992065429688 207.1904144287109 L 367.2992553710938 236.3903656005859 L 321.033447265625 236.3903656005859 L 291.83349609375 207.1904144287109 L 291.83349609375 160.9247589111328 L 321.033447265625 131.7247772216797 Z" stroke="none" fill="#000"/>
              </g>
              <path id="Path_146" data-name="Path 146" d="M365.642,135.725H322.69l-26.857,26.857v42.952L322.69,232.39h42.952L392.5,205.534V162.582Z" transform="translate(-295.833 -135.725)" fill="none" stroke="#ff788a" stroke-miterlimit="10" stroke-width="2"/>
              <path id="Path_147" data-name="Path 147" d="M360.306,140.929H323.84l-22.8,22.8V200.2l22.8,22.8h36.466l22.8-22.8V163.731Z" transform="translate(-293.74 -133.632)" fill="none" stroke="#ff788a" stroke-miterlimit="10" stroke-width="1"/>
            </g>
          </g>
          <g id="Group_248" data-name="Group 248">
            <g id="Group_235" data-name="Group 235">
              <g id="Path_148" data-name="Path 148" transform="translate(-137.721 -135.725)" fill="none" stroke-miterlimit="10" opacity="0.15" style="mix-blend-mode: multiply;isolation: isolate">
                <path d="M207.53,135.725H164.578l-26.857,26.857v42.952l26.857,26.857H207.53l26.857-26.857V162.582Z" stroke="none"/>
                <path d="M 164.5778045654297 135.7247772216797 L 137.7209777832031 162.5816040039062 L 137.7209777832031 205.5335693359375 L 164.5778045654297 232.3903656005859 L 207.5297698974609 232.3903656005859 L 234.3865661621094 205.5335693359375 L 234.3865661621094 162.5816040039062 L 207.5297698974609 135.7247772216797 L 164.5778045654297 135.7247772216797 M 162.9209594726562 131.7247772216797 L 209.1866149902344 131.7247772216797 L 238.3865661621094 160.9247589111328 L 238.3865661621094 207.1904144287109 L 209.1866149902344 236.3903656005859 L 162.9209594726562 236.3903656005859 L 133.7209777832031 207.1904144287109 L 133.7209777832031 160.9247589111328 L 162.9209594726562 131.7247772216797 Z" stroke="none" fill="#000"/>
              </g>
              <path id="Path_149" data-name="Path 149" d="M207.53,135.725H164.578l-26.857,26.857v42.952l26.857,26.857H207.53l26.857-26.857V162.582Z" transform="translate(-137.721 -135.725)" fill="none" stroke="#ff788a" stroke-miterlimit="10" stroke-width="2"/>
              <path id="Path_150" data-name="Path 150" d="M202.194,140.929H165.727l-22.8,22.8V200.2l22.8,22.8h36.467L225,200.2V163.731Z" transform="translate(-135.628 -133.632)" fill="none" stroke="#ff788a" stroke-miterlimit="10" stroke-width="1"/>
            </g>
            <g id="Group_246" data-name="Group 246" transform="translate(21.678 14.029)">
              <g id="Group_236" data-name="Group 236" transform="translate(19.238 51.838)">
                <path id="Path_151" data-name="Path 151" d="M182.591,182.7v8.358a4.439,4.439,0,0,1-4.347,4.429h-7a4.527,4.527,0,0,1-2.131-.589,4.472,4.472,0,0,1-2.2-3.476c0-.126-.014-.238-.014-.365v-8.091a24.57,24.57,0,0,0,7.1.925c.252.013.491.013.729.013v-.013h.028A26.279,26.279,0,0,0,182.591,182.7Z" transform="translate(-166.901 -182.7)" fill="none" stroke="#bf4252" stroke-miterlimit="10" stroke-width="1"/>
                <path id="Path_152" data-name="Path 152" d="M176.31,191.82v1.022a2.964,2.964,0,0,1-5.928,0V191.82Z" transform="translate(-165.501 -179.032)" fill="none" stroke="#bf4252" stroke-miterlimit="10" stroke-width="0.75"/>
              </g>
              <g id="Group_237" data-name="Group 237">
                <path id="Path_153" data-name="Path 153" d="M177,145.731v.722a5.258,5.258,0,0,1,2.517.495c.025,12.714.032,38.693,0,51.1a20.935,20.935,0,0,1-8.609-1.586c-3.372-1.622-5.157-4.508-5.459-8.818l-.043-.62-.62-.049a12.844,12.844,0,0,1-7.007-2.389A10.566,10.566,0,0,1,154.1,178.2a9.563,9.563,0,0,1,.752-6.042l.035-.077c.08-.172.161-.337.247-.5a10.961,10.961,0,0,1,4.87-4.641l.6-.314-.273-.617c-1.335-3.009-1.195-5.45.439-7.683a6.661,6.661,0,0,1,5.762-2.765,12.306,12.306,0,0,1,1.453.09l.876.1-.072-.879a7.382,7.382,0,0,1,1.736-5.844A9.092,9.092,0,0,1,177,146.454v-.722m3.239,1.3V146.6a1.252,1.252,0,0,0-.393-.294A5.92,5.92,0,0,0,177,145.73c-3.87,0-9.507,2.259-8.946,9.2a14.363,14.363,0,0,0-1.528-.086,7.376,7.376,0,0,0-6.352,3.058c-1.921,2.622-1.823,5.44-.519,8.4a11.691,11.691,0,0,0-5.174,4.95c-.1.195-.2.407-.294.6a10.664,10.664,0,0,0-1.01,4.46,10.091,10.091,0,0,0,.21,2.032,11.207,11.207,0,0,0,3.954,6.816,13.545,13.545,0,0,0,7.389,2.538c.435,6.168,3.814,8.916,7.684,10.138a24.57,24.57,0,0,0,7.1.925c.252.013.491.013.729.013v-2.51C180.271,183.268,180.271,158.968,180.243,147.035Z" transform="translate(-153.181 -145.73)" fill="#bf4252" stroke="#bf4252" stroke-miterlimit="10" stroke-width="0.5"/>
              </g>
              <g id="Group_238" data-name="Group 238" transform="translate(26.333 0.576)">
                <path id="Path_154" data-name="Path 154" d="M191.255,153.825a26.062,26.062,0,0,0-18.537-7.684h-.757v.729c.028,11.947.042,36.6.014,49.229v1.782l-.014.715h.757a26.2,26.2,0,0,0,26.221-26.221A26.012,26.012,0,0,0,191.255,153.825Zm-10.7,42.822a25.45,25.45,0,0,1-7.838,1.234h-.028V196.1c.028-13,.028-37.3,0-49.229h.028a25.506,25.506,0,0,1,7.838,49.777Z" transform="translate(-171.961 -146.141)" fill="#22daf9" stroke="#bf4252" stroke-miterlimit="10" stroke-width="0.5"/>
              </g>
              <path id="Path_155" data-name="Path 155" d="M182.584,182.688v4.12l-15.664,4.617c-.01-.116-.015-.237-.015-.358v-3.755Z" transform="translate(-147.662 -130.866)" fill="none" stroke="#bf4252" stroke-miterlimit="10" stroke-width="0.75"/>
              <line id="Line_1" data-name="Line 1" x1="13.464" y2="3.971" transform="translate(21.459 60.061)" fill="none" stroke="#bf4252" stroke-miterlimit="10" stroke-width="0.75"/>
              <g id="Group_239" data-name="Group 239" transform="translate(6.527 20.391)">
                <path id="Path_156" data-name="Path 156" d="M165.735,167.406a.361.361,0,0,1-.356-.308c-.833-5.766-6.937-6.092-7.2-6.1a.362.362,0,0,1-.346-.376.354.354,0,0,1,.376-.345c.069,0,6.962.358,7.88,6.721a.359.359,0,0,1-.3.408A.341.341,0,0,1,165.735,167.406Z" transform="translate(-157.836 -160.273)" fill="#22daf9" stroke="#bf4252" stroke-miterlimit="10" stroke-width="0.5"/>
              </g>
              <g id="Group_240" data-name="Group 240" transform="translate(14.884 8.299)">
                <path id="Path_157" data-name="Path 157" d="M170.524,158.635h-.029a6.827,6.827,0,0,1-6.7-6.624.361.361,0,0,1,.722,0h0c0,.222.087,5.417,6.035,5.9a.361.361,0,0,1-.029.721Zm-6.005-6.625h0Z" transform="translate(-163.796 -151.649)" fill="#22daf9" stroke="#bf4252" stroke-miterlimit="10" stroke-width="0.5"/>
              </g>
              <g id="Group_241" data-name="Group 241" transform="translate(11.582 34.364)">
                <path id="Path_158" data-name="Path 158" d="M162.076,180.223a.362.362,0,0,1-.349-.268,9.592,9.592,0,0,1,.721-6.593,6.8,6.8,0,0,1,4.373-3.113.361.361,0,1,1,.182.7,6.1,6.1,0,0,0-3.929,2.773,9,9,0,0,0-.649,6.049.363.363,0,0,1-.257.442A.417.417,0,0,1,162.076,180.223Z" transform="translate(-161.441 -170.238)" fill="#bf4252" stroke="#bf4252" stroke-miterlimit="10" stroke-width="0.25"/>
              </g>
              <g id="Group_242" data-name="Group 242" transform="translate(14.885 17.756)">
                <path id="Path_159" data-name="Path 159" d="M168.743,170.045a.323.323,0,0,1-.052,0,.361.361,0,0,1-.306-.408c1.056-7.388-4.181-10.438-4.406-10.564a.361.361,0,0,1,.355-.63c.059.034,5.892,3.406,4.765,11.3A.36.36,0,0,1,168.743,170.045Z" transform="translate(-163.797 -158.393)" fill="#22daf9" stroke="#bf4252" stroke-miterlimit="10" stroke-width="0.5"/>
              </g>
              <g id="Group_243" data-name="Group 243" transform="translate(17.27 36.288)">
                <path id="Path_160" data-name="Path 160" d="M165.858,179.9a.361.361,0,0,1-.217-.649,6.923,6.923,0,0,0,2.966-7.185.361.361,0,0,1,.7-.195,7.758,7.758,0,0,1-3.228,7.956A.355.355,0,0,1,165.858,179.9Z" transform="translate(-165.498 -171.61)" fill="#22daf9" stroke="#bf4252" stroke-miterlimit="10" stroke-width="0.5"/>
              </g>
              <g id="Group_244" data-name="Group 244" transform="translate(5.801 26.568)">
                <path id="Path_161" data-name="Path 161" d="M158.611,173.554a.36.36,0,0,1-.3-.161,7.762,7.762,0,0,1,.63-8.562.36.36,0,0,1,.589.415,6.924,6.924,0,0,0-.617,7.748.362.362,0,0,1-.1.5A.365.365,0,0,1,158.611,173.554Z" transform="translate(-157.318 -164.678)" fill="#bf4252" stroke="#bf4252" stroke-miterlimit="10" stroke-width="0.2"/>
              </g>
              <g id="Group_245" data-name="Group 245" transform="translate(26.887 22.36)">
                <path id="Path_162" data-name="Path 162" d="M175.6,191.632c0-.177-.186-16.512-.039-23.172-.139,0-.279.006-.422,0-1.21-.013-2.761,0-2.776,0l-.007-.722c.015,0,1.573-.013,2.792,0,.144,0,.29,0,.433-.006.006-.22.013-.426.021-.614.128-3.224,1.221-4.317,2.273-4.961a2.581,2.581,0,0,1,3.238.17,2.658,2.658,0,0,1,.227,3.33,6.769,6.769,0,0,1-5.055,2.745c-.15,6.594.036,23.041.038,23.217Zm3.87-29.237a2.346,2.346,0,0,0-1.22.381c-.889.544-1.813,1.489-1.928,4.373-.007.164-.013.339-.018.526a6.093,6.093,0,0,0,4.414-2.381,1.962,1.962,0,0,0-.111-2.448A1.608,1.608,0,0,0,179.471,162.395Z" transform="translate(-172.356 -161.677)" fill="#22daf9" stroke="#bf4252" stroke-miterlimit="10" stroke-width="0.5"/>
              </g>
              <path id="Path_163" data-name="Path 163" d="M188.252,160.807a17.325,17.325,0,0,0-8.158-8.562" transform="translate(-142.357 -143.11)" fill="none" stroke="#bf4252" stroke-linecap="round" stroke-linejoin="round" stroke-width="0.75"/>
              <path id="Path_164" data-name="Path 164" d="M187.022,164.256a17.28,17.28,0,0,0-.374-3.594" transform="translate(-139.721 -139.725)" fill="none" stroke="#bf4252" stroke-linecap="round" stroke-linejoin="round" stroke-width="0.75"/>
            </g>
          </g>
          <g id="Group_253" data-name="Group 253" transform="translate(221.58 223.751)">
            <g id="Group_250" data-name="Group 250" transform="translate(23.196 14.141)">
              <path id="Path_165" data-name="Path 165" d="M350.917,334.535l-1.122,4,3.435,3.505-2.089,3.548-4.557-1.192-2.987,2.987,1.346,4.571-3.828,2.258-2.9-3.158a.224.224,0,0,0-.388.144l-.109,3.686v.014l-.028.014c-.252.238-2.692,2.286-7.095,1.753V305.384h1.893l1.29,5.09,3.73,1.192,3.6-3.73,3.828,2.37-1.346,4.683,2.931,2.874,4.5-1.3,2.314,4.122-3.379,3.1.9,4L355.6,328.9v4.347Z" transform="translate(-304.926 -305.384)" fill="none" stroke="#bf4252" stroke-miterlimit="10" stroke-width="1"/>
              <path id="Path_166" data-name="Path 166" d="M341.841,326.9A11.244,11.244,0,0,1,330.6,338.149v-22.5A11.256,11.256,0,0,1,341.841,326.9Z" transform="translate(-304.928 -301.258)" fill="none" stroke="#bf4252" stroke-miterlimit="10" stroke-width="1"/>
              <g id="Group_249" data-name="Group 249">
                <path id="Path_167" data-name="Path 167" d="M337.95,354.881v1.781h-.014a25.252,25.252,0,0,1-3.435-.224c-.939-.126-2.762-.533-2.762-.533s-1.318-.379-2.384-.729c-.308-.1-.6-.2-.827-.294a25.642,25.642,0,0,1,9.409-49.5h.014C337.936,317.162,337.922,342.149,337.95,354.881Z" transform="translate(-312.29 -305.384)" fill="none" stroke="#bf4252" stroke-miterlimit="10" stroke-width="1"/>
                <path id="Path_168" data-name="Path 168" d="M340.22,340.684V350.4a4.434,4.434,0,0,1-4.445,4.431H328.9a4.357,4.357,0,0,1-2.215-.589,4.435,4.435,0,0,1-2.215-3.491,2.927,2.927,0,0,1-.014-.351v-9.423c1.066.351,2.384.729,2.384.729s1.823.407,2.762.533a25.252,25.252,0,0,0,3.435.224h.014v-1.781h.014v1.781c4.4.533,6.843-1.514,7.095-1.753l.028-.014v-.014Z" transform="translate(-307.396 -291.187)" fill="none" stroke="#bf4252" stroke-miterlimit="10" stroke-width="1"/>
                <path id="Path_169" data-name="Path 169" d="M331.088,355.842h0a3.517,3.517,0,0,1-3.518-3.518v-2.367h7.036v2.367A3.517,3.517,0,0,1,331.088,355.842Z" transform="translate(-306.145 -287.458)" fill="none" stroke="#bf4252" stroke-miterlimit="10" stroke-width="1"/>
                <path id="Path_170" data-name="Path 170" d="M340.219,341.6v4.142l-15.746,4.641c-.008-.119-.014-.24-.014-.36v-3.773Z" transform="translate(-307.396 -290.818)" fill="none" stroke="#bf4252" stroke-miterlimit="10" stroke-width="1"/>
                <path id="Path_171" data-name="Path 171" d="M340.215,344.557V348.7l-13.534,3.991a4.447,4.447,0,0,1-2.213-3.49Z" transform="translate(-307.392 -289.63)" fill="none" stroke="#bf4252" stroke-miterlimit="10" stroke-width="1"/>
                <path id="Path_172" data-name="Path 172" d="M332.785,326.753s-1.563-.013-2.8,0c-4.424.046-8.03-3.086-5.087-5.309,1.855-1.4,4.264.241,4.264,4.336V350.4" transform="translate(-307.648 -299.122)" fill="none" stroke="#bf4252" stroke-miterlimit="10" stroke-width="1"/>
              </g>
            </g>
            <g id="Group_251" data-name="Group 251">
              <g id="Path_173" data-name="Path 173" transform="translate(-295.747 -295.299)" fill="none" stroke-miterlimit="10" opacity="0.15" style="mix-blend-mode: multiply;isolation: isolate">
                <path d="M365.556,295.3H322.6l-26.857,26.857v42.952L322.6,391.965h42.952l26.857-26.857V322.156Z" stroke="none"/>
                <path d="M 322.6041259765625 295.2991027832031 L 295.7472839355469 322.1558837890625 L 295.7472839355469 365.1078796386719 L 322.6041259765625 391.9646606445312 L 365.5560607910156 391.9646606445312 L 392.4130249023438 365.1078796386719 L 392.4130249023438 322.1558837890625 L 365.5560607910156 295.2991027832031 L 322.6041259765625 295.2991027832031 M 320.947265625 291.2991027832031 L 367.212890625 291.2991027832031 L 396.4130249023438 320.4989929199219 L 396.4130249023438 366.7647399902344 L 367.212890625 395.9646606445312 L 320.947265625 395.9646606445312 L 291.7472839355469 366.7647094726562 L 291.7472839355469 320.4990234375 L 320.947265625 291.2991027832031 Z" stroke="none" fill="#000"/>
              </g>
              <path id="Path_174" data-name="Path 174" d="M365.556,295.3H322.6l-26.857,26.857v42.952L322.6,391.965h42.952l26.857-26.857V322.156Z" transform="translate(-295.747 -295.299)" fill="none" stroke="#ff788a" stroke-miterlimit="10" stroke-width="2"/>
              <path id="Path_175" data-name="Path 175" d="M360.22,300.5H323.754l-22.8,22.8v36.467l22.8,22.8H360.22l22.8-22.8V323.305Z" transform="translate(-293.654 -293.206)" fill="none" stroke="#ff788a" stroke-miterlimit="10" stroke-width="1"/>
            </g>
          </g>
          <g id="Group_257" data-name="Group 257" transform="translate(0 223.751)">
            <g id="Group_254" data-name="Group 254" transform="translate(12.562 19.001)">
              <path id="Path_176" data-name="Path 176" d="M218.219,345.489a10.556,10.556,0,0,1-10.558,10.558H191.592v-6.716a1.143,1.143,0,0,1,1.136-1.15h3.744a1.137,1.137,0,0,0,.841-1.907l-13.671-14.821a1.13,1.13,0,0,0-1.669,0L168.3,346.274a1.136,1.136,0,0,0,.827,1.907h3.758a1.143,1.143,0,0,1,1.136,1.15v6.716H162.567A15.88,15.88,0,1,1,167,324.919a13.085,13.085,0,0,1-.266-2.692,13.361,13.361,0,0,1,26.7-.841,13.749,13.749,0,0,1,2.86-.309,13.375,13.375,0,0,1,13.377,13.377c0,.224-.014.435-.028.659A10.554,10.554,0,0,1,218.219,345.489Z" transform="translate(-146.68 -308.85)" fill="none" stroke="#bf4252" stroke-miterlimit="10" stroke-width="1.25"/>
              <path id="Path_177" data-name="Path 177" d="M190.357,341.8h-3.744a1.143,1.143,0,0,0-1.136,1.15V359.99a1.155,1.155,0,0,1-1.15,1.15H169.044a1.143,1.143,0,0,1-1.136-1.15V342.953a1.143,1.143,0,0,0-1.136-1.15h-3.758a1.136,1.136,0,0,1-.827-1.907l13.671-14.821a1.13,1.13,0,0,1,1.669,0L191.2,339.9A1.137,1.137,0,0,1,190.357,341.8Z" transform="translate(-140.566 -302.473)" fill="none" stroke="#bf4252" stroke-miterlimit="10" stroke-width="1.25"/>
            </g>
            <g id="Group_255" data-name="Group 255">
              <g id="Path_178" data-name="Path 178" transform="translate(-137.721 -295.299)" fill="none" stroke-miterlimit="10" opacity="0.15" style="mix-blend-mode: multiply;isolation: isolate">
                <path d="M207.53,295.3H164.578l-26.857,26.857v42.952l26.857,26.857H207.53l26.857-26.857V322.156Z" stroke="none"/>
                <path d="M 164.5778045654297 295.2991027832031 L 137.7209777832031 322.1558837890625 L 137.7209777832031 365.1078796386719 L 164.5778045654297 391.9646606445312 L 207.5297698974609 391.9646606445312 L 234.3865661621094 365.1078796386719 L 234.3865661621094 322.1558837890625 L 207.5297698974609 295.2991027832031 L 164.5778045654297 295.2991027832031 M 162.9209594726562 291.2991027832031 L 209.1866149902344 291.2991027832031 L 238.3865661621094 320.4990234375 L 238.3865661621094 366.7647094726562 L 209.1866149902344 395.9646606445312 L 162.9209594726562 395.9646606445312 L 133.7209777832031 366.7647094726562 L 133.7209777832031 320.4990234375 L 162.9209594726562 291.2991027832031 Z" stroke="none" fill="#000"/>
              </g>
              <path id="Path_179" data-name="Path 179" d="M207.53,295.3H164.578l-26.857,26.857v42.952l26.857,26.857H207.53l26.857-26.857V322.156Z" transform="translate(-137.721 -295.299)" fill="none" stroke="#ff788a" stroke-miterlimit="10" stroke-width="2"/>
              <path id="Path_180" data-name="Path 180" d="M202.194,300.5H165.727l-22.8,22.8v36.467l22.8,22.8h36.467l22.8-22.8V323.305Z" transform="translate(-135.628 -293.206)" fill="none" stroke="#ff788a" stroke-miterlimit="10" stroke-width="1"/>
            </g>
          </g>
        </g>
        <g id="Group_265" data-name="Group 265" transform="translate(80.539 82.726)">
          <g id="Group_262" data-name="Group 262">
            <g id="Path_181" data-name="Path 181" transform="translate(-195.16 -194.723)" fill="none" stroke-miterlimit="10" opacity="0.15" style="mix-blend-mode: multiply;isolation: isolate">
              <path d="M318.793,194.723H226.541L195.16,226.1v92.253l31.381,31.381h92.253l31.381-31.381V226.1Z" stroke="none"/>
              <path d="M 226.5406494140625 194.7234191894531 L 195.1596069335938 226.1044921875 L 195.1596069335938 318.3571472167969 L 226.5406494140625 349.7382507324219 L 318.7933349609375 349.7382507324219 L 350.1744384765625 318.3571472167969 L 350.1744384765625 226.1044921875 L 318.7933349609375 194.7234191894531 L 226.5406494140625 194.7234191894531 M 225.2980346679688 191.7234191894531 L 320.0359497070312 191.7234191894531 L 353.1744384765625 224.8618469238281 L 353.1744384765625 319.5997924804688 L 320.0359497070312 352.7382507324219 L 225.2980346679688 352.7382507324219 L 192.1596069335938 319.5997924804688 L 192.1596069335938 224.8618469238281 L 225.2980346679688 191.7234191894531 Z" stroke="none" fill="#000"/>
            </g>
            <g id="Path_182" data-name="Path 182" transform="translate(-195.16 -194.723)" fill="none" stroke-miterlimit="10">
              <path d="M318.793,194.723H226.541L195.16,226.1v92.253l31.381,31.381h92.253l31.381-31.381V226.1Z" stroke="none"/>
              <path d="M 228.1974792480469 198.7234191894531 L 199.1596069335938 227.7613220214844 L 199.1596069335938 316.7003173828125 L 228.197509765625 345.7382507324219 L 317.136474609375 345.7382507324219 L 346.1744384765625 316.7002563476562 L 346.1744384765625 227.7613220214844 L 317.136474609375 198.7234191894531 L 228.1974792480469 198.7234191894531 M 226.5406494140625 194.7234191894531 L 318.7933349609375 194.7234191894531 L 350.1744384765625 226.1044921875 L 350.1744384765625 318.357177734375 L 318.7933349609375 349.7382507324219 L 226.5406494140625 349.7382507324219 L 195.1596069335938 318.357177734375 L 195.1596069335938 226.1044921875 L 226.5406494140625 194.7234191894531 Z" stroke="none" fill="#bf4252"/>
            </g>
            <g id="Group_261" data-name="Group 261" transform="translate(23.806 22.815)">
              <g id="Group_259" data-name="Group 259">
                <g id="Ellipse_78" data-name="Ellipse 78" fill="none" stroke="#ff788a" stroke-miterlimit="10" stroke-width="4">
                  <circle cx="3.395" cy="3.395" r="3.395" stroke="none"/>
                  <circle cx="3.395" cy="3.395" r="1.395" fill="none"/>
                </g>
                <g id="Ellipse_79" data-name="Ellipse 79" transform="translate(100.613)" fill="none" stroke="#ff788a" stroke-miterlimit="10" stroke-width="4">
                  <circle cx="3.395" cy="3.395" r="3.395" stroke="none"/>
                  <circle cx="3.395" cy="3.395" r="1.395" fill="none"/>
                </g>
              </g>
              <g id="Group_260" data-name="Group 260" transform="translate(0 102.594)">
                <g id="Ellipse_80" data-name="Ellipse 80" fill="none" stroke="#ff788a" stroke-miterlimit="10" stroke-width="4">
                  <circle cx="3.395" cy="3.395" r="3.395" stroke="none"/>
                  <circle cx="3.395" cy="3.395" r="1.395" fill="none"/>
                </g>
                <g id="Ellipse_81" data-name="Ellipse 81" transform="translate(100.613)" fill="none" stroke="#ff788a" stroke-miterlimit="10" stroke-width="4">
                  <circle cx="3.395" cy="3.395" r="3.395" stroke="none"/>
                  <circle cx="3.395" cy="3.395" r="1.395" fill="none"/>
                </g>
              </g>
            </g>
          </g>
          <g id="Group_263" data-name="Group 263" transform="translate(18.582 18.22)">
            <text id="NFT" transform="translate(0 79)" font-size="73" font-family="SegoeUI, Segoe UI"><tspan x="0" y="0">N</tspan><tspan y="0" letter-spacing="0.06em">F</tspan><tspan y="0">T</tspan></text>
            <text id="NON-FUNGIBLE_TOKEN_" data-name="NON-FUNGIBLE TOKEN " transform="translate(2.906 93.773)" font-size="12" font-family="SegoeUI, Segoe UI"><tspan x="0" y="0">NON-FUNGIBLE TOKEN </tspan></text>
          </g>
        </g>
        <g id="Group_270" data-name="Group 270" transform="translate(77.976 78.722)">
          <g id="Group_266" data-name="Group 266" transform="translate(135.853)">
            <path id="Path_183" data-name="Path 183" d="M308.876,191.868l4.472,1.813,1.813,4.472L296.5,216.81,292.032,215l-1.813-4.472Z" transform="translate(-290.219 -191.868)" fill="#bf4252"/>
            <path id="Path_184" data-name="Path 184" d="M312.828,193.161l1.813,4.472L295.984,216.29l-4.472-1.813" transform="translate(-289.699 -191.348)" fill="#ff5e73"/>
          </g>
          <g id="Group_267" data-name="Group 267" transform="translate(0 135.853)">
            <path id="Path_185" data-name="Path 185" d="M211.988,288.755l4.472,1.813,1.813,4.472L199.617,313.7l-4.472-1.813-1.813-4.472Z" transform="translate(-193.332 -288.755)" fill="#bf4252"/>
            <path id="Path_186" data-name="Path 186" d="M215.941,290.048l1.813,4.472L199.1,313.177l-4.472-1.813" transform="translate(-192.811 -288.235)" fill="#ff5066"/>
          </g>
          <g id="Group_268" data-name="Group 268" transform="translate(0.567 1.483)">
            <path id="Path_187" data-name="Path 187" d="M218.678,211.582l-1.813,4.472-4.472,1.813L193.736,199.21l1.813-4.472,4.472-1.813Z" transform="translate(-193.736 -192.925)" fill="#bf4252"/>
            <path id="Path_188" data-name="Path 188" d="M216.865,215.534l-4.472,1.813L193.736,198.69l1.813-4.472" transform="translate(-193.736 -192.405)" fill="#ff4b62"/>
          </g>
          <g id="Group_269" data-name="Group 269" transform="translate(134.133 136.861)">
            <path id="Path_189" data-name="Path 189" d="M313.934,308.131l-1.813,4.472-4.472,1.813-18.657-18.657,1.813-4.472,4.472-1.813Z" transform="translate(-288.992 -289.474)" fill="#bf4252"/>
            <path id="Path_190" data-name="Path 190" d="M312.121,312.083l-4.472,1.813-18.657-18.657,1.813-4.472" transform="translate(-288.992 -288.954)" fill="#ff5d72"/>
          </g>
        </g>
      </g>
    </g>
  </g>
</svg>
