<svg xmlns="http://www.w3.org/2000/svg" width="250.381" height="269.873" viewBox="0 0 250.381 269.873">
  <g id="brand-archetype-product" transform="translate(-75.01 -60.92)">
    <path id="Path_227" data-name="Path 227" d="M257.991,193.34l-44.6,21.955,44.635,21.249,45.092-21.463Z" transform="translate(-42.663 -40.825)"/>
    <path id="Path_228" data-name="Path 228" d="M202.34,393.71l46.814,22.28v-56.38L202.34,337.26Z" transform="translate(-39.256 -85.196)"/>
    <path id="Path_229" data-name="Path 229" d="M118.85,353.929l46.821,22.286v-56.47L118.85,297.39Z" transform="translate(-13.516 -72.904)"/>
    <path id="Path_230" data-name="Path 230" d="M202.34,237.33v57l46.814,22.356V259.61L215.925,243.8Z" transform="translate(-39.256 -54.387)"/>
    <path id="Path_231" data-name="Path 231" d="M369.3,375.787,416.121,353.5V296L369.3,318.764Z" transform="translate(-90.73 -72.476)"/>
    <path id="Path_232" data-name="Path 232" d="M285.82,415.783l46.814-22.28V336.59L285.82,359.347Z" transform="translate(-64.993 -84.99)"/>
    <path id="Path_233" data-name="Path 233" d="M118.85,254.51l46.821,22.356V219.877L118.85,197.59Z" transform="translate(-13.516 -42.136)"/>
    <path id="Path_234" data-name="Path 234" d="M158.595,140.165l-.429.2L129.73,111.93a8.19,8.19,0,0,0-5.8-2.4H83.207a8.2,8.2,0,1,0,0,16.393h37.352l21.865,21.865L112.68,161.809l45.514,21.664,44.677-22Z" transform="translate(0 -14.987)"/>
    <path id="Path_235" data-name="Path 235" d="M369.3,219.867v56.4L416.121,253.5V197.58Z" transform="translate(-90.73 -42.133)"/>
    <path id="Path_236" data-name="Path 236" d="M300.992,119.292,273.234,106.51l29.2-29.2h37.352a8.2,8.2,0,1,0,0-16.393H299.041a8.19,8.19,0,0,0-5.8,2.4L257.36,99.2l-.339-.152L214.26,119.182l43.951,21.173Z" transform="translate(-42.931 0)"/>
    <path id="Path_237" data-name="Path 237" d="M338.945,153.82l-43.065,21.2,45.334,21.844.173-.076,44.677-21.27Z" transform="translate(-68.095 -28.641)"/>
    <path id="Path_238" data-name="Path 238" d="M285.82,316.589l46.814-22.757V237.32L285.82,259.607Z" transform="translate(-64.993 -54.384)"/>
    <path id="Path_239" data-name="Path 239" d="M345.827,99.62a8.2,8.2,0,0,0,0,16.393h22.19a8.2,8.2,0,0,0,0-16.393Z" transform="translate(-80.966 -11.931)"/>
    <path id="Path_240" data-name="Path 240" d="M113.593,156.437a8.2,8.2,0,0,0-8.2-8.2H83.207a8.2,8.2,0,1,0,0,16.393H105.4A8.2,8.2,0,0,0,113.593,156.437Z" transform="translate(0 -26.921)"/>
  </g>
</svg>
