<svg xmlns="http://www.w3.org/2000/svg" width="240" height="260" viewBox="0 0 240 260">
  <g id="Creative_solution" transform="translate(-1.983 -1.382)">
    <path id="Path_225" data-name="Path 225" d="M150.23,128a5.973,5.973,0,0,0,5.958-5.987c0-5.92,1.478-15.856,11.361-15.856s11.365,9.934,11.365,15.856A5.973,5.973,0,0,0,184.871,128H213.51a5.973,5.973,0,0,0,5.958-5.987V36.034a12.353,12.353,0,0,0-12.313-12.373h-16.68c-1.8-13.707-10.4-22.278-22.928-22.278s-21.122,8.571-22.924,22.278H36.03A12.354,12.354,0,0,0,23.717,36.034V145.221C10.331,147.157,1.983,155.75,1.983,168.2s8.348,21.04,21.734,22.976V208A12.354,12.354,0,0,0,36.03,220.371h79.2A12.354,12.354,0,0,0,127.544,208V128Zm-4.391-92.371a6.085,6.085,0,0,0,1.289-.138c.341-.031.806-.061,1.276-.091,2.129-.143,7.783-.515,7.783-6.2,0-5.921,1.478-15.851,11.361-15.851s11.364,9.931,11.364,15.851c0,5.677,5.654,6.055,7.783,6.2.466.03.927.06,1.267.086a5.839,5.839,0,0,0,1.3.143h17.89a.4.4,0,0,1,.4.4v80H190.413c-1.926-13.452-10.477-21.841-22.867-21.841s-20.937,8.389-22.863,21.841H127.544V91.176a5.97,5.97,0,0,0-5.818-5.987c-7.029-.165-15.408-2.274-15.408-11.395S114.7,62.564,121.726,62.4a5.97,5.97,0,0,0,5.818-5.987V35.631ZM115.631,208a.4.4,0,0,1-.4.4H36.03a.4.4,0,0,1-.4-.4V185.6a5.973,5.973,0,0,0-5.958-5.987c-5.892,0-15.778-1.485-15.778-11.416s9.886-11.421,15.778-11.421a5.973,5.973,0,0,0,5.958-5.987V128H52.765c1.926,13.452,10.477,21.837,22.867,21.837S96.569,141.448,98.5,128h17.136Z" transform="translate(0)"/>
    <path id="Path_226" data-name="Path 226" d="M139.628,123.257a5.981,5.981,0,0,0-5.987-5.964h-.026a22.82,22.82,0,0,1-12.573-3.237,10.392,10.392,0,0,1-4.257-9v0c-.052-10.715,10.429-12.369,16.683-12.4a5.979,5.979,0,0,0,5.955-6.007l-.1-26.271a5.987,5.987,0,0,0-5.987-5.964h-.022L110.1,54.5a29.014,29.014,0,0,0-4.957-12.927,21.3,21.3,0,0,0-17.986-8.787h-.133a21.3,21.3,0,0,0-18.047,8.978,29.107,29.107,0,0,0-4.834,12.98l-23.195.089a5.982,5.982,0,0,0-5.969,6.013l.394,85.987a12.369,12.369,0,0,0,12.369,12.313h.06l79.6-.368a12.382,12.382,0,0,0,12.313-12.427Z" transform="translate(102.268 102.239)"/>
  </g>
</svg>
