<svg xmlns="http://www.w3.org/2000/svg" width="208.787" height="251.375" viewBox="0 0 208.787 251.375">
  <g id="_x35_40_x2C__Build_x2C__design_x2C__develop_x2C__sketch_x2C__tools" transform="translate(-64.966 -26.001)">
    <g id="Group_933" data-name="Group 933" transform="translate(64.966 26.001)">
      <path id="Path_241" data-name="Path 241" d="M241.619,159.593h6.775V124.727h-6.775Zm10.406,0h19.088a3.471,3.471,0,0,0,.546-.044V124.727H252.024ZM114.668,143.975v15.618h40.668V143.975Zm0-19.249v15.617h40.668V124.727Zm44.285,70.029.266-.1.089-.029.266-.119.089-.029.266-.1.089-.029.088-.044.1-.029.059-.03h.03l.089-.044.62-.222.088-.044.739-.237.088-.029.089-.03a37.545,37.545,0,0,1,8.074-1.7l.148-.014h.133l.03-.015h.118l.148-.015.133-.015.148-.015h.148l.133-.014.281-.015h.015l.133-.015h.148l.059-.015h.236l.133-.014h.148l.148-.014h.428l.148-.015h1.433l.148.015h.428l.148.014h.148l.148.014h.221l.06.015h.148l.133.015h.014l.281.015.133.014h.148l.148.015.133.015.148.015h.118l.014.015h.148l.148.014a37.629,37.629,0,0,1,10.776,2.687l.089.029.251.1V89.564a37.284,37.284,0,0,1-11.115,2.819l-.148.015-.148.015h-.014l-.118.015-.148.015h-.133l-.148.014-.148.015-.133.015-.281.015h-.147l-.148.015h-.148l-.133.014H175.4l-.119.015h-.31l-.148.015H174.1l-.148.015h-.281l-.148-.015H172.8l-.148-.015h-.31l-.119-.015h-.133l-.148-.014H171.8l-.148-.015H171.5l-.281-.015-.133-.015-.148-.015-.148-.014h-.133l-.148-.015-.118-.015h-.03l-.133-.015-.148-.015a38.2,38.2,0,0,1-11.13-2.819Q158.953,142.153,158.953,194.755Zm17.684-90.843a3.975,3.975,0,1,0,1.18,2.834A3.994,3.994,0,0,0,176.637,103.913Zm-2.834-4.8a7.61,7.61,0,1,1-5.388,2.229A7.631,7.631,0,0,1,173.8,99.115Zm2.834,77.306a3.975,3.975,0,1,0,1.18,2.835A4,4,0,0,0,176.637,176.421Zm-2.834-4.8a7.61,7.61,0,1,1-5.388,2.229A7.633,7.633,0,0,1,173.8,171.623Zm-74.96-12.031h12.193V124.727H98.844L64.966,142.159C93.885,157.04,67.078,143.252,98.844,159.593Zm9.684,110.859a1.815,1.815,0,0,1,0-3.631H222.413a1.815,1.815,0,0,1,0,3.631Zm66.693,6.924a1.816,1.816,0,0,1,0-3.631h78.8a1.816,1.816,0,1,1,0,3.631Zm86.872,0a1.816,1.816,0,1,1,0-3.631h9.846a1.816,1.816,0,0,1,0,3.631Zm-158.051-.207a1.815,1.815,0,1,1,0-3.631h37.346a1.815,1.815,0,1,1,0,3.631Zm21.522-69.393a1.815,1.815,0,0,0,0,3.631h3.631a1.815,1.815,0,0,0,0-3.631Zm-14.511,0a1.815,1.815,0,0,0,0,3.631h3.631a1.815,1.815,0,1,0,0-3.631Zm-2.849-8.031a1.816,1.816,0,0,0-3.632,0v3.631a1.816,1.816,0,1,0,3.632,0v-3.631Zm0-14.5a1.816,1.816,0,1,0-3.632,0v3.617a1.816,1.816,0,1,0,3.632,0v-3.617Zm0-14.51a1.816,1.816,0,1,0-3.632,0v3.617a1.816,1.816,0,1,0,3.632,0v-3.617Zm35.5,40.668a1.945,1.945,0,0,0,1.387-.634,34.555,34.555,0,0,0-1.063,36.534,34.677,34.677,0,0,0,10.259,11.012V227.363a1.814,1.814,0,0,1,1.816-1.815h35.413a1.813,1.813,0,0,1,1.815,1.815v30.955a34.677,34.677,0,0,0,10.259-11.012,34.5,34.5,0,0,0-26.69-51.783h-.074l-.133-.014-.133-.015h-.1l-.148-.015-.132-.015h-.148l-.369-.029h-.133l-.266-.015h-.118l-.014-.014H174.7l-.1-.015h-1.578l-.1.015h-.428l-.015.014h-.118l-.266.015h-.117l-.384.029h-.147l-.133.015-.148.015h-.1l-.133.015-.133.014h-.074a34.461,34.461,0,0,0-11.485,3.085h0a34.429,34.429,0,0,0-9.816,6.879,35.35,35.35,0,0,0-4.133,4.99l.045-.089a1.816,1.816,0,0,0-1.624-2.612h-3.632a1.815,1.815,0,0,0,0,3.631H143.7Zm95.713-31.855a1.816,1.816,0,0,0,3.632,0v-3.632a1.816,1.816,0,0,0-3.632,0v3.632Zm0,14.511a1.816,1.816,0,0,0,3.632,0V190.43a1.816,1.816,0,0,0-3.632,0v3.632Zm0,14.51a1.816,1.816,0,0,0,3.632,0v-3.631a1.816,1.816,0,1,0-3.632,0v3.631Zm-11.661-.8a1.815,1.815,0,1,0,0,3.631h3.617a1.815,1.815,0,1,0,0-3.631Zm-14.51,0a1.815,1.815,0,1,0,0,3.631h3.616a1.815,1.815,0,1,0,0-3.631Zm29.8-46.366a1.816,1.816,0,0,0-3.632,0v3.632a1.816,1.816,0,0,0,3.632,0v-3.632ZM108.2,104.784a1.816,1.816,0,1,0-3.632,0V108.4a1.816,1.816,0,1,0,3.632,0v-3.616Zm0-14.511a1.816,1.816,0,1,0-3.632,0V93.9a1.816,1.816,0,0,0,3.632,0V90.273Zm0-14.51a1.816,1.816,0,0,0-3.632,0v3.632a1.816,1.816,0,0,0,3.632,0V75.762Zm11.662.8a1.847,1.847,0,0,0,1.638-1.033,1.811,1.811,0,0,0-1.638-2.6h-3.617a1.815,1.815,0,1,0,0,3.631h3.617Zm14.51,0a1.848,1.848,0,0,0,1.639-1.033,1.812,1.812,0,0,0-1.639-2.6h-3.617a1.815,1.815,0,1,0,0,3.631h3.617Zm87.669,0a1.825,1.825,0,0,0,1.624-1.033,1.8,1.8,0,0,0-1.624-2.6h-3.632a1.815,1.815,0,0,0,0,3.631h3.632Zm14.51,0a1.826,1.826,0,0,0,1.624-1.033,1.8,1.8,0,0,0-1.624-2.6h-3.631a1.815,1.815,0,1,0,0,3.631h3.631Zm2.849,8.016a1.816,1.816,0,1,0,3.631,0V80.944a1.816,1.816,0,0,0-3.631,0v3.631Zm0,14.51a1.816,1.816,0,0,0,3.631,0V95.454a1.816,1.816,0,0,0-3.631,0v3.631Zm0,14.511a1.816,1.816,0,0,0,3.631,0v-3.632a1.816,1.816,0,0,0-3.631,0V113.6ZM203.9,72.928a1.934,1.934,0,0,0-1.357.6A34.489,34.489,0,0,0,193.333,26V56.956a1.813,1.813,0,0,1-1.815,1.815H156.1a1.814,1.814,0,0,1-1.816-1.815V26A34.725,34.725,0,0,0,144.03,37.028a34.548,34.548,0,0,0,5.388,41.82,34.957,34.957,0,0,0,8.473,6.214l.03.014h.03l.015.015.03.015.029.015.03.015a34.28,34.28,0,0,0,12.666,3.66l.074.014.133.015h.133l.1.015.148.015h.133l.133.014h.014l.384.03h.117l.266.015h.266l.133.015h.531l.074.015h.9l.074-.015h.531l.133-.015h.265l.266-.015h.133l.369-.03h.014l.133-.014h.132l.148-.015.1-.015h.133l.133-.015.074-.014a34.451,34.451,0,0,0,21.3-9.949A33.227,33.227,0,0,0,202.29,73.9l-.014.044a1.815,1.815,0,0,0,1.624,2.613h3.632a1.848,1.848,0,0,0,1.639-1.033,1.817,1.817,0,0,0-1.639-2.6H203.9ZM226,140.344a1.816,1.816,0,1,1,0,3.631H192.285v15.618h45.7V124.726h-45.7v15.617H226Z" transform="translate(-64.966 -26.001)" fill-rule="evenodd"/>
    </g>
  </g>
</svg>
