<svg xmlns="http://www.w3.org/2000/svg" width="666.404" height="447.1" viewBox="0 0 666.404 447.1">
  <g id="Group_492" data-name="Group 492" transform="translate(-53.252 -29.431)">
    <g id="Background_Complete" data-name="Background Complete">
      <g id="Group_24" data-name="Group 24">
        <g id="Group_3" data-name="Group 3">
          <g id="Group_2" data-name="Group 2">
            <g id="Group_1" data-name="Group 1">
              <path id="Path_1" data-name="Path 1" d="M654.617,445.852c-15.552-10.866-19.08-31.033-18.465-49.162.1-3.026-.23-6.217,1.21-8.872s4.8-4.469,7.508-3.194c2.247,1.058,3.226,3.672,4.484,5.834a17.7,17.7,0,0,0,7.1,6.778c1.927,1,4.311,1.612,6.213.563,2.611-1.441,2.918-5.047,2.9-8.057q-.054-8.415-.106-16.828a28.08,28.08,0,0,1,.909-8.939c.936-2.857,3-5.51,5.867-6.312s6.4.849,7.009,3.8a27.815,27.815,0,0,1,.085,3.747c.084,1.25.666,2.632,1.853,2.98s2.4-.5,3.3-1.381c3.106-3.039,5.214-6.954,7.184-10.847s3.883-7.879,6.7-11.193,6.718-5.941,11.028-6.186,8.9,2.417,9.993,6.648-1.384,8.548-4.077,11.983a67.217,67.217,0,0,1-13.988,13.333,5.535,5.535,0,0,0-2.34,2.516c-.654,2.007,1.247,4,3.228,4.659,2.244.748,4.678.514,7.025.791s4.889,1.311,5.777,3.529c1.232,3.076-1.34,6.3-3.872,8.413a57.557,57.557,0,0,1-17.032,9.832c-2.214.81-4.544,1.521-6.33,3.076s-2.863,4.261-1.784,6.381,3.848,2.8,6.167,2.37,4.394-1.689,6.6-2.523c4.136-1.561,9.477-1.276,12.126,2.3a9.524,9.524,0,0,1,1.014,8.422,21.953,21.953,0,0,1-4.563,7.439,57.872,57.872,0,0,1-24.711,17.366c-9.594,3.326-18.484,4.227-28.02.74" fill="#f5f5f5"/>
            </g>
          </g>
        </g>
        <g id="Group_7" data-name="Group 7">
          <g id="Group_6" data-name="Group 6">
            <g id="Group_5" data-name="Group 5">
              <g id="Group_4" data-name="Group 4">
                <path id="Path_2" data-name="Path 2" d="M654.38,459.292a132.064,132.064,0,0,1,4.917-24.8A269.7,269.7,0,0,1,670,405.451q1.62-3.78,3.2-7.466c1.055-2.449,2.1-4.877,3.271-7.188a134.77,134.77,0,0,1,7.484-12.9c2.579-3.987,5.171-7.677,7.62-11.109s4.809-6.581,7.074-9.363A106.788,106.788,0,0,1,710.3,345.109c1.484-1.342,2.67-2.345,3.483-3.014l.929-.755a2.293,2.293,0,0,1,.328-.242,2.128,2.128,0,0,1-.292.286l-.893.8c-.789.7-1.951,1.725-3.412,3.089a113.028,113.028,0,0,0-11.5,12.408c-2.239,2.79-4.566,5.948-7,9.383s-5.006,7.136-7.567,11.12a136.321,136.321,0,0,0-7.426,12.864c-1.16,2.3-2.194,4.708-3.25,7.163l-3.193,7.464a276.335,276.335,0,0,0-10.726,28.962,134.421,134.421,0,0,0-5.016,24.7" fill="#e0e0e0"/>
              </g>
            </g>
          </g>
        </g>
        <g id="Group_11" data-name="Group 11">
          <g id="Group_10" data-name="Group 10">
            <g id="Group_9" data-name="Group 9">
              <g id="Group_8" data-name="Group 8">
                <path id="Path_3" data-name="Path 3" d="M676.629,390.775a6.016,6.016,0,0,1-.294-1.284c-.159-.832-.347-2.042-.559-3.541-.425-3-.872-7.155-1.347-11.741s-.979-8.73-1.449-11.711c-.231-1.492-.429-2.7-.578-3.529a6.1,6.1,0,0,1-.168-1.306,6.012,6.012,0,0,1,.379,1.261c.213.819.472,2.018.752,3.506.571,2.975,1.139,7.125,1.614,11.719.457,4.527.87,8.623,1.186,11.752.151,1.413.28,2.6.383,3.559A6.1,6.1,0,0,1,676.629,390.775Z" fill="#e0e0e0"/>
              </g>
            </g>
          </g>
        </g>
        <g id="Group_15" data-name="Group 15">
          <g id="Group_14" data-name="Group 14">
            <g id="Group_13" data-name="Group 13">
              <g id="Group_12" data-name="Group 12">
                <path id="Path_4" data-name="Path 4" d="M715.324,383.543a8.207,8.207,0,0,1-1.543.185c-.993.089-2.43.209-4.2.414-3.544.382-8.421,1.083-13.769,2.09s-10.146,2.144-13.594,3.06c-1.729.445-3.117.843-4.078,1.113a8.259,8.259,0,0,1-1.51.37,8.251,8.251,0,0,1,1.446-.579c.944-.333,2.319-.79,4.038-1.287,3.432-1.015,8.234-2.207,13.6-3.228a136.412,136.412,0,0,1,13.833-1.933c1.781-.155,3.227-.216,4.227-.237A8.217,8.217,0,0,1,715.324,383.543Z" fill="#e0e0e0"/>
              </g>
            </g>
          </g>
        </g>
        <g id="Group_19" data-name="Group 19">
          <g id="Group_18" data-name="Group 18">
            <g id="Group_17" data-name="Group 17">
              <g id="Group_16" data-name="Group 16">
                <path id="Path_5" data-name="Path 5" d="M659.773,433.775a1.948,1.948,0,0,1-.265-.472c-.179-.378-.4-.84-.662-1.4-.569-1.218-1.347-3-2.279-5.219-1.867-4.433-4.253-10.638-6.793-17.519s-4.868-13.1-6.639-17.569c-.868-2.171-1.583-3.956-2.114-5.283-.227-.576-.414-1.051-.567-1.441a.273.273,0,1,1,.1-.046c.179.379.4.84.662,1.4.569,1.218,1.346,3,2.278,5.22,1.867,4.433,4.253,10.637,6.8,17.522s4.866,13.1,6.638,17.566c.869,2.17,1.583,3.956,2.113,5.283.228.576.414,1.052.568,1.441A1.977,1.977,0,0,1,659.773,433.775Z" fill="#e0e0e0"/>
              </g>
            </g>
          </g>
        </g>
        <g id="Group_23" data-name="Group 23">
          <g id="Group_22" data-name="Group 22">
            <g id="Group_21" data-name="Group 21">
              <g id="Group_20" data-name="Group 20">
                <path id="Path_6" data-name="Path 6" d="M711.193,417.2a2.046,2.046,0,0,1-.51.211l-1.493.5-5.507,1.785c-4.649,1.508-11.046,3.664-18.112,6.056s-13.491,4.493-18.173,5.9c-2.341.707-4.24,1.26-5.56,1.615l-1.523.4a2.024,2.024,0,0,1-.542.1,2.1,2.1,0,0,1,.51-.211l1.494-.5,5.505-1.784c4.649-1.507,11.047-3.664,18.115-6.057s13.489-4.492,18.17-5.9c2.341-.707,4.24-1.259,5.562-1.614l1.523-.4A2.051,2.051,0,0,1,711.193,417.2Z" fill="#e0e0e0"/>
              </g>
            </g>
          </g>
        </g>
      </g>
      <g id="Group_48" data-name="Group 48">
        <g id="Group_39" data-name="Group 39">
          <g id="Group_28" data-name="Group 28">
            <g id="Group_27" data-name="Group 27">
              <g id="Group_26" data-name="Group 26">
                <g id="Group_25" data-name="Group 25">
                  <path id="Path_7" data-name="Path 7" d="M686.983,215.554a30.619,30.619,0,0,1-5.609,5.891l1.459,7.4-11.406,5.06-4.506-6.048a30.573,30.573,0,0,1-8.133.206l-4.2,6.262-11.643-4.488,1.09-7.46a30.518,30.518,0,0,1-5.892-5.611l-7.4,1.46-5.059-11.4,6.047-4.507a30.616,30.616,0,0,1-.2-8.133l-6.263-4.2,4.487-11.644,7.461,1.09a30.507,30.507,0,0,1,5.61-5.891l-1.46-7.4,11.407-5.06,4.506,6.05a30.606,30.606,0,0,1,8.132-.205l4.2-6.262,11.644,4.488-1.09,7.459a30.516,30.516,0,0,1,5.892,5.611l7.4-1.46,5.06,11.4-6.049,4.507a30.534,30.534,0,0,1,.2,8.133l6.262,4.2-4.487,11.643-7.46-1.089Zm-12.6-12.72a13.386,13.386,0,1,0-17.3,7.676A13.387,13.387,0,0,0,674.385,202.834Z" fill="none"/>
                </g>
              </g>
            </g>
          </g>
          <g id="Group_33" data-name="Group 33">
            <g id="Group_32" data-name="Group 32">
              <g id="Group_31" data-name="Group 31">
                <g id="Group_30" data-name="Group 30">
                  <g id="Group_29" data-name="Group 29">
                    <path id="Path_8" data-name="Path 8" d="M674.385,202.834a10.1,10.1,0,0,1-1.444,2.985,13.322,13.322,0,0,1-7.24,5.3,13.482,13.482,0,0,1-6.288.368,13.7,13.7,0,0,1-6.527-3.112,13.714,13.714,0,0,1-4.259-6.753,13.656,13.656,0,0,1,5.85-15.181,13.714,13.714,0,0,1,7.691-2.149,13.7,13.7,0,0,1,6.928,2.073,13.5,13.5,0,0,1,4.414,4.494,13.332,13.332,0,0,1,1.808,8.79,10.111,10.111,0,0,1-.933,3.182c-.091-.028.4-1.124.636-3.218a13.34,13.34,0,0,0-1.974-8.469A13.071,13.071,0,0,0,662.154,185a13.08,13.08,0,0,0-7.271,2.075,12.968,12.968,0,0,0-5.53,14.349,13.058,13.058,0,0,0,4,6.417,13.078,13.078,0,0,0,12.2,2.756,13.345,13.345,0,0,0,7.148-4.953C673.929,203.937,674.3,202.794,674.385,202.834Z" fill="#e0e0e0"/>
                  </g>
                </g>
              </g>
            </g>
          </g>
          <g id="Group_38" data-name="Group 38">
            <g id="Group_37" data-name="Group 37">
              <g id="Group_36" data-name="Group 36">
                <g id="Group_35" data-name="Group 35">
                  <g id="Group_34" data-name="Group 34">
                    <path id="Path_9" data-name="Path 9" d="M686.983,215.554a2.874,2.874,0,0,1,.469.041l1.416.176,5.593.75-.132.078c1.131-2.988,2.619-6.917,4.419-11.669l.074.231-6.279-4.171-.113-.075.014-.137a30.517,30.517,0,0,0-.229-8.069l-.025-.15.123-.092,6.036-4.524-.087.33c-1.6-3.588-3.3-7.395-5.086-11.393l.335.174-7.4,1.474-.188.038-.121-.15a30.316,30.316,0,0,0-5.838-5.541l-.163-.117.029-.2c.335-2.313.7-4.863,1.079-7.461l.216.369-11.649-4.473.425-.134-4.192,6.265-.123.183-.219-.024a30.468,30.468,0,0,0-8.034.21l-.222.035-.135-.181c-1.413-1.893-2.954-3.959-4.51-6.046l.454.119-11.4,5.065.219-.423c.462,2.337.96,4.86,1.462,7.4l.045.229-.181.145a30.263,30.263,0,0,0-5.535,5.811l0,0h0c-.164.069.365-.153-.368.156h-.007l-.015,0-.029,0-.059-.008-.118-.017-.235-.035-.469-.068-.938-.137-1.871-.274-3.719-.544.413-.241q-2.276,5.9-4.49,11.643l-.143-.452,6.261,4.2.189.127-.024.227a30.243,30.243,0,0,0,.2,8.033l.035.223-.18.134-6.051,4.5.115-.441q2.586,5.843,5.049,11.409l-.392-.2,7.4-1.451.205-.04.13.163a30.3,30.3,0,0,0,5.817,5.557l.164.119-.03.2c-.377,2.557-.744,5.036-1.1,7.457l-.2-.344L654.7,234.05l-.35.11c1.482-2.2,2.872-4.262,4.213-6.252l.094-.139.165.019a30.447,30.447,0,0,0,8.064-.181l.152-.023.09.122,4.486,6.062-.274-.071,11.428-5.01-.1.191c-.564-2.959-1.026-5.387-1.412-7.409l-.014-.074.058-.046a31.665,31.665,0,0,0,4.4-4.243l.963-1.168a3.185,3.185,0,0,1,.324-.384,3.627,3.627,0,0,1-.273.423c-.194.272-.49.683-.916,1.21a29.59,29.59,0,0,1-4.343,4.354l.044-.12c.411,2.017.905,4.438,1.507,7.39l.028.134L682.9,229l-11.384,5.11-.165.074-.109-.146-4.527-6.033.242.1a30.849,30.849,0,0,1-8.2.23l.259-.121-4.183,6.273-.131.195-.22-.084-11.652-4.465-.238-.092.037-.253c.35-2.422.707-4.9,1.077-7.461l.133.317a30.922,30.922,0,0,1-5.964-5.664l.335.122-7.4,1.469-.277.055-.115-.259q-2.474-5.559-5.071-11.4l-.119-.266.235-.176,6.044-4.511-.145.356a30.975,30.975,0,0,1-.211-8.232l.165.354-6.264-4.195-.253-.169.109-.283L629.4,178.2l.111-.286.3.044,3.719.543,1.871.274.938.137.47.068.234.034.118.018.059.008.029.005.015,0h.007c-.732.309-.2.085-.365.153h0l0,0a30.976,30.976,0,0,1,5.677-5.959l-.136.373c-.5-2.541-1-5.064-1.458-7.4l-.06-.3.279-.123,11.409-5.055.275-.122.179.242c1.554,2.088,3.092,4.156,4.5,6.051l-.357-.144a31.127,31.127,0,0,1,8.23-.2l-.342.159,4.2-6.257.16-.237.266.1,11.638,4.5.256.1-.04.271c-.383,2.6-.76,5.145-1.1,7.457l-.133-.316a30.9,30.9,0,0,1,5.944,5.68l-.309-.112,7.4-1.446.238-.046.1.22c1.767,4.006,3.449,7.822,5.034,11.417l.088.2-.175.13-6.061,4.489.1-.242a30.849,30.849,0,0,1,.18,8.2l-.1-.211,6.245,4.223.13.088-.057.144c-1.855,4.731-3.388,8.642-4.555,11.617l-.036.092-.1-.015-5.524-.871-1.427-.239A3.556,3.556,0,0,1,686.983,215.554Z" fill="#e0e0e0"/>
                  </g>
                </g>
              </g>
            </g>
          </g>
        </g>
        <g id="Group_43" data-name="Group 43">
          <g id="Group_42" data-name="Group 42">
            <g id="Group_41" data-name="Group 41">
              <g id="Group_40" data-name="Group 40">
                <path id="Path_10" data-name="Path 10" d="M604.643,115.2a43.3,43.3,0,0,1-7.931,8.329l2.064,10.462-16.128,7.154-6.371-8.551a43.243,43.243,0,0,1-11.5.291l-5.936,8.854-16.462-6.347,1.54-10.547a43.132,43.132,0,0,1-8.329-7.933l-10.463,2.064-7.154-16.125,8.551-6.373a43.237,43.237,0,0,1-.288-11.5l-8.855-5.935,6.345-16.465,10.548,1.541a43.186,43.186,0,0,1,7.932-8.329l-2.064-10.464,16.128-7.154,6.371,8.553a43.361,43.361,0,0,1,11.5-.29l5.936-8.853,16.463,6.345L595,54.475a43.168,43.168,0,0,1,8.33,7.933l10.463-2.064,7.154,16.126-8.552,6.372a43.244,43.244,0,0,1,.289,11.5l8.854,5.935-6.345,16.462L604.643,115.2ZM586.831,97.214a18.927,18.927,0,1,0-24.468,10.854A18.927,18.927,0,0,0,586.831,97.214Z" fill="#e0e0e0" fill-rule="evenodd"/>
              </g>
            </g>
          </g>
        </g>
        <g id="Group_47" data-name="Group 47">
          <g id="Group_46" data-name="Group 46">
            <g id="Group_45" data-name="Group 45">
              <g id="Group_44" data-name="Group 44">
                <path id="Path_11" data-name="Path 11" d="M686.392,137.927A23.953,23.953,0,0,1,682,142.539l1.143,5.792-8.929,3.961-3.528-4.735a23.928,23.928,0,0,1-6.366.161l-3.287,4.9-9.114-3.514.853-5.839a23.9,23.9,0,0,1-4.612-4.392l-5.792,1.143-3.961-8.928,4.734-3.528a23.936,23.936,0,0,1-.159-6.367l-4.9-3.286,3.513-9.115,5.84.853a23.924,23.924,0,0,1,4.391-4.612l-1.142-5.793,8.929-3.961,3.527,4.736a23.97,23.97,0,0,1,6.366-.161l3.287-4.9,9.115,3.513-.854,5.839a23.872,23.872,0,0,1,4.612,4.392l5.793-1.143,3.961,8.928-4.735,3.528a23.933,23.933,0,0,1,.16,6.367l4.9,3.286-3.513,9.114-5.84-.852Zm-9.861-9.958a10.479,10.479,0,1,0-13.547,6.01A10.479,10.479,0,0,0,676.531,127.969Z" fill="#e0e0e0" fill-rule="evenodd"/>
              </g>
            </g>
          </g>
        </g>
      </g>
      <g id="Group_63" data-name="Group 63">
        <g id="Group_52" data-name="Group 52">
          <g id="Group_51" data-name="Group 51">
            <g id="Group_50" data-name="Group 50">
              <g id="Group_49" data-name="Group 49">
                <path id="Path_12" data-name="Path 12" d="M490.013,37.66a20.427,20.427,0,0,1,3.876,3.8l4.95-.9,3.267,7.656-4.077,2.949a20.4,20.4,0,0,1,.06,5.427l4.138,2.86-3.1,7.724-4.966-.8a20.349,20.349,0,0,1-3.8,3.877l.9,4.95-7.656,3.267-2.949-4.077a20.4,20.4,0,0,1-5.427.059l-2.859,4.138-7.725-3.1.8-4.966a20.349,20.349,0,0,1-3.877-3.8l-4.95.9-3.267-7.657,4.077-2.948a20.481,20.481,0,0,1-.06-5.427l-4.136-2.86,3.1-7.724,4.965.8a20.325,20.325,0,0,1,3.8-3.877l-.9-4.95,7.655-3.267,2.949,4.077a20.446,20.446,0,0,1,5.428-.06l2.859-4.137,7.724,3.1-.8,4.966Zm-8.6,8.283a8.93,8.93,0,1,0,4.957,11.615A8.93,8.93,0,0,0,481.409,45.943Z" fill="none"/>
              </g>
            </g>
          </g>
        </g>
        <g id="Group_57" data-name="Group 57">
          <g id="Group_56" data-name="Group 56">
            <g id="Group_55" data-name="Group 55">
              <g id="Group_54" data-name="Group 54">
                <g id="Group_53" data-name="Group 53">
                  <path id="Path_13" data-name="Path 13" d="M481.409,45.943a6.732,6.732,0,0,1,1.978.991,8.887,8.887,0,0,1,3.468,4.879,8.989,8.989,0,0,1,.186,4.2,9.138,9.138,0,0,1-2.137,4.324,9.15,9.15,0,0,1-4.545,2.778,9.113,9.113,0,0,1-10.071-4.046,9.155,9.155,0,0,1-1.361-5.151,9.128,9.128,0,0,1,1.449-4.6,8.985,8.985,0,0,1,3.039-2.9,8.892,8.892,0,0,1,5.88-1.123,6.72,6.72,0,0,1,2.114.653c-.02.06-.746-.279-2.141-.455a8.9,8.9,0,0,0-5.667,1.236,8.724,8.724,0,0,0-4.2,7.208,8.711,8.711,0,0,0,1.316,4.87,8.648,8.648,0,0,0,9.519,3.824,8.716,8.716,0,0,0,4.318-2.6,8.726,8.726,0,0,0,1.954-8.111,8.907,8.907,0,0,0-3.237-4.815C482.14,46.257,481.381,46,481.409,45.943Z" fill="#e0e0e0"/>
                </g>
              </g>
            </g>
          </g>
        </g>
        <g id="Group_62" data-name="Group 62">
          <g id="Group_61" data-name="Group 61">
            <g id="Group_60" data-name="Group 60">
              <g id="Group_59" data-name="Group 59">
                <g id="Group_58" data-name="Group 58">
                  <path id="Path_14" data-name="Path 14" d="M490.013,37.66a1.888,1.888,0,0,1,.031-.313c.033-.231.076-.541.131-.943.129-.864.314-2.108.554-3.723l.05.088-7.742-3.058.156-.047-2.843,4.149-.051.075-.091-.011a20.332,20.332,0,0,0-5.384.077l-.1.014-.06-.082L471.7,29.817l.22.061-7.648,3.284.119-.221c.283,1.531.6,3.218.914,4.948l.023.126-.1.079a20.22,20.22,0,0,0-3.751,3.842l-.08.107-.133-.021-4.966-.791.248-.14-3.094,7.728-.086-.285,4.14,2.856.121.084-.018.146a20.3,20.3,0,0,0,.064,5.361l.021.148-.122.089L453.5,60.169l.084-.3,3.27,7.655-.28-.151,4.95-.9.153-.028.1.123a20.123,20.123,0,0,0,3.824,3.746l0,0h0c.045.11-.1-.246.1.247v0l0,.01,0,.02-.006.039-.013.078-.025.156-.05.313-.1.624-.2,1.246q-.2,1.242-.4,2.475l-.157-.278,7.724,3.106-.3.091,2.861-4.137.087-.125.151.019a20.19,20.19,0,0,0,5.36-.055l.149-.022.088.122,2.946,4.079-.294-.082,7.659-3.259-.14.259q-.456-2.52-.9-4.951l-.025-.137.11-.085a20.2,20.2,0,0,0,3.761-3.828l.081-.108.132.022,4.964.805-.231.131c1.1-2.715,2.134-5.278,3.12-7.717l.07.234-4.13-2.87-.092-.063.014-.11a20.355,20.355,0,0,0-.044-5.381l-.015-.1.083-.059,4.086-2.935-.05.182L498.733,40.6l.126.068-4.955.872-.049.009-.031-.039a21.167,21.167,0,0,0-2.788-2.976l-.77-.653a2.22,2.22,0,0,1-.253-.219,2.488,2.488,0,0,1,.28.185c.179.133.451.334.8.623a19.755,19.755,0,0,1,2.863,2.938l-.079-.03,4.943-.936.09-.017.036.085c.933,2.159,2.023,4.682,3.3,7.642l.048.111-.1.071-4.067,2.962.068-.16a20.616,20.616,0,0,1,.076,5.474l-.078-.174,4.144,2.849.129.089-.058.146c-.976,2.444-2,5.011-3.089,7.73l-.063.158-.168-.027-4.967-.789.213-.086a20.621,20.621,0,0,1-3.835,3.925l.085-.222q.447,2.43.91,4.948l.034.186-.174.074L483.7,78.69l-.179.076-.115-.158q-1.455-2.01-2.952-4.074l.237.1a20.688,20.688,0,0,1-5.494.063l.238-.107-2.857,4.139-.115.167-.189-.076-7.725-3.1-.19-.076.032-.2q.2-1.233.4-2.476l.2-1.245.1-.624.05-.313.025-.156.013-.079.006-.039,0-.019,0-.01v-.005c.2.491.054.136.1.245h0l0,0a20.705,20.705,0,0,1-3.921-3.843l.248.1-4.95.9-.2.037-.08-.187c-1.122-2.635-2.23-5.234-3.263-7.658l-.079-.185.162-.117,4.08-2.946-.1.236a20.752,20.752,0,0,1-.056-5.491l.1.229L453.1,48.927l-.157-.109.071-.177,3.113-7.72.068-.17.18.029,4.964.806-.212.085a20.646,20.646,0,0,1,3.846-3.911l-.078.205L464,33.013l-.028-.159.148-.063,7.663-3.249.134-.057L472,29.6l2.938,4.085-.161-.068a20.624,20.624,0,0,1,5.47-.042l-.142.064c1.036-1.486,2-2.876,2.876-4.126l.059-.085.1.039,7.706,3.148.061.025-.011.064c-.275,1.595-.486,2.823-.633,3.676-.074.4-.131.717-.173.95A2.5,2.5,0,0,1,490.013,37.66Z" fill="#e0e0e0"/>
                </g>
              </g>
            </g>
          </g>
        </g>
      </g>
      <g id="Group_78" data-name="Group 78">
        <g id="Group_64" data-name="Group 64">
          <rect id="Rectangle_1" data-name="Rectangle 1" width="80.42" height="83.831" transform="translate(80.15 142.208)" fill="#e0e0e0"/>
        </g>
        <g id="Group_65" data-name="Group 65">
          <rect id="Rectangle_2" data-name="Rectangle 2" width="80.42" height="83.831" transform="translate(74.704 142.208)" fill="#fafafa"/>
          <path id="Path_15" data-name="Path 15" d="M155.149,226.064H74.679V142.183h80.47Zm-80.42-.05H155.1V142.233H74.729Z" fill="#e0e0e0"/>
        </g>
        <g id="Group_66" data-name="Group 66">
          <rect id="Rectangle_3" data-name="Rectangle 3" width="58.799" height="61.293" transform="translate(85.515 153.477)" fill="#fafafa"/>
        </g>
        <g id="Group_68" data-name="Group 68">
          <g id="Group_67" data-name="Group 67">
            <path id="Path_16" data-name="Path 16" d="M85.515,215.177a9.626,9.626,0,0,1-1.451,1.687c-.939.991-2.259,2.332-3.738,3.789s-2.839,2.756-3.841,3.677a9.35,9.35,0,0,1-1.7,1.416,9.384,9.384,0,0,1,1.444-1.68c.938-.991,2.262-2.336,3.746-3.8s2.845-2.762,3.848-3.683A9.171,9.171,0,0,1,85.515,215.177Z" fill="#e0e0e0"/>
          </g>
        </g>
        <g id="Group_70" data-name="Group 70">
          <g id="Group_69" data-name="Group 69">
            <path id="Path_17" data-name="Path 17" d="M144.313,215.027A9.571,9.571,0,0,1,146,216.478c.991.939,2.332,2.258,3.789,3.737s2.756,2.839,3.677,3.842a9.328,9.328,0,0,1,1.416,1.7,9.344,9.344,0,0,1-1.68-1.443c-.991-.939-2.335-2.262-3.8-3.746s-2.762-2.846-3.683-3.849A9.188,9.188,0,0,1,144.313,215.027Z" fill="#e0e0e0"/>
          </g>
        </g>
        <g id="Group_72" data-name="Group 72">
          <g id="Group_71" data-name="Group 71">
            <path id="Path_18" data-name="Path 18" d="M144.152,153.641a9.626,9.626,0,0,1,1.451-1.687c.939-.991,2.259-2.332,3.738-3.789s2.839-2.756,3.841-3.677a9.347,9.347,0,0,1,1.7-1.416,9.4,9.4,0,0,1-1.443,1.68c-.939.991-2.263,2.336-3.746,3.8s-2.846,2.762-3.849,3.683A9.171,9.171,0,0,1,144.152,153.641Z" fill="#e0e0e0"/>
          </g>
        </g>
        <g id="Group_74" data-name="Group 74">
          <g id="Group_73" data-name="Group 73">
            <path id="Path_19" data-name="Path 19" d="M85.354,153.791a9.57,9.57,0,0,1-1.687-1.451c-.991-.939-2.332-2.258-3.789-3.737s-2.756-2.839-3.677-3.842a9.326,9.326,0,0,1-1.416-1.7,9.346,9.346,0,0,1,1.68,1.443c.991.939,2.336,2.262,3.8,3.746s2.762,2.846,3.683,3.849A9.189,9.189,0,0,1,85.354,153.791Z" fill="#e0e0e0"/>
          </g>
        </g>
        <g id="Group_76" data-name="Group 76">
          <g id="Group_75" data-name="Group 75">
            <path id="Path_20" data-name="Path 20" d="M144.152,214.77s-.008-.105-.012-.3c0-.209-.008-.491-.013-.855-.006-.769-.015-1.874-.027-3.309-.014-2.9-.034-7.128-.059-12.492-.028-10.735-.068-26.028-.115-44.339l.226.227-58.632.034h0l.26-.261c-.014,22.5-.026,43.543-.037,61.293l-.223-.224,42.457.114,11.926.059,3.155.026.815.012a2.517,2.517,0,0,1,.284.013,1.947,1.947,0,0,1-.259.012l-.791.013-3.112.026-11.876.058-42.6.114h-.224v-.224c-.011-17.75-.023-38.8-.037-61.293v-.26h.266l58.632.033h.228v.227c-.047,18.371-.087,33.714-.115,44.484-.026,5.342-.046,9.549-.059,12.441q-.018,2.124-.027,3.265c0,.354-.01.627-.013.83A1.826,1.826,0,0,1,144.152,214.77Z" fill="#e0e0e0"/>
          </g>
        </g>
        <g id="Group_77" data-name="Group 77">
          <rect id="Rectangle_4" data-name="Rectangle 4" width="19.62" height="19.62" transform="translate(105.104 174.313)" fill="#ebebeb"/>
        </g>
      </g>
      <g id="Group_93" data-name="Group 93">
        <g id="Group_79" data-name="Group 79">
          <rect id="Rectangle_5" data-name="Rectangle 5" width="50.615" height="52.762" transform="translate(120.724 52.515)" fill="#e0e0e0"/>
        </g>
        <g id="Group_80" data-name="Group 80">
          <rect id="Rectangle_6" data-name="Rectangle 6" width="50.615" height="52.762" transform="translate(117.296 52.515)" fill="#fafafa"/>
          <path id="Path_21" data-name="Path 21" d="M167.927,105.293H117.28V52.5h50.647Zm-50.615-.032H167.9V52.531H117.312Z" fill="#e0e0e0"/>
        </g>
        <g id="Group_81" data-name="Group 81">
          <rect id="Rectangle_7" data-name="Rectangle 7" width="37.007" height="38.577" transform="translate(124.1 59.608)" fill="#fafafa"/>
        </g>
        <g id="Group_83" data-name="Group 83">
          <g id="Group_82" data-name="Group 82">
            <path id="Path_22" data-name="Path 22" d="M124.1,98.441a6.08,6.08,0,0,1-.913,1.062c-.591.623-1.422,1.467-2.353,2.384s-1.786,1.735-2.417,2.315a5.852,5.852,0,0,1-1.07.89,5.9,5.9,0,0,1,.908-1.057c.591-.624,1.424-1.47,2.358-2.389s1.791-1.739,2.422-2.319A5.748,5.748,0,0,1,124.1,98.441Z" fill="#e0e0e0"/>
          </g>
        </g>
        <g id="Group_85" data-name="Group 85">
          <g id="Group_84" data-name="Group 84">
            <path id="Path_23" data-name="Path 23" d="M161.107,98.346a6.037,6.037,0,0,1,1.062.913c.624.591,1.468,1.422,2.385,2.353s1.734,1.786,2.314,2.417a5.89,5.89,0,0,1,.891,1.07,5.842,5.842,0,0,1-1.058-.908c-.623-.591-1.47-1.424-2.389-2.358s-1.739-1.791-2.319-2.422A5.749,5.749,0,0,1,161.107,98.346Z" fill="#e0e0e0"/>
          </g>
        </g>
        <g id="Group_87" data-name="Group 87">
          <g id="Group_86" data-name="Group 86">
            <path id="Path_24" data-name="Path 24" d="M161.006,59.711a6.037,6.037,0,0,1,.913-1.062c.591-.624,1.421-1.468,2.352-2.385s1.787-1.734,2.418-2.314a5.89,5.89,0,0,1,1.07-.891,5.9,5.9,0,0,1-.909,1.057c-.591.624-1.423,1.47-2.357,2.39s-1.791,1.738-2.423,2.318A5.857,5.857,0,0,1,161.006,59.711Z" fill="#e0e0e0"/>
          </g>
        </g>
        <g id="Group_89" data-name="Group 89">
          <g id="Group_88" data-name="Group 88">
            <path id="Path_25" data-name="Path 25" d="M124,59.805a6.036,6.036,0,0,1-1.062-.913c-.624-.591-1.468-1.421-2.385-2.352s-1.734-1.787-2.314-2.418a5.948,5.948,0,0,1-.891-1.069,5.86,5.86,0,0,1,1.057.908c.624.591,1.47,1.424,2.39,2.358s1.738,1.791,2.318,2.422A5.857,5.857,0,0,1,124,59.805Z" fill="#e0e0e0"/>
          </g>
        </g>
        <g id="Group_91" data-name="Group 91">
          <g id="Group_90" data-name="Group 90">
            <path id="Path_26" data-name="Path 26" d="M161.006,98.184A1.488,1.488,0,0,1,161,98c0-.132-.005-.309-.008-.538,0-.484-.01-1.18-.017-2.083-.009-1.827-.021-4.486-.038-7.862-.017-6.757-.042-16.382-.072-27.906l.143.142-36.9.022h0l.164-.164c-.009,14.159-.017,27.4-.023,38.576l-.141-.14,26.722.071,7.506.037,1.986.017.513.007c.116,0,.176.006.179.008a1.009,1.009,0,0,1-.163.008l-.5.008-1.959.016-7.474.037-26.812.072h-.141v-.141c-.006-11.171-.014-24.417-.023-38.576v-.164h.168l36.9.021h.143v.143c-.03,11.562-.055,21.219-.073,28-.016,3.362-.029,6.01-.037,7.83-.008.891-.013,1.578-.017,2.055,0,.223-.006.4-.008.523A1.561,1.561,0,0,1,161.006,98.184Z" fill="#e0e0e0"/>
          </g>
        </g>
        <g id="Group_92" data-name="Group 92">
          <rect id="Rectangle_8" data-name="Rectangle 8" width="12.349" height="12.349" transform="translate(136.429 72.722)" fill="#ebebeb"/>
        </g>
      </g>
    </g>
    <g id="Floor">
      <g id="Group_97" data-name="Group 97">
        <g id="Group_96" data-name="Group 96">
          <g id="Group_95" data-name="Group 95">
            <path id="Path_28" data-name="Path 28" d="M713.812,456.836c0,.144-146.457.261-327.078.261-180.684,0-327.109-.117-327.109-.261s146.425-.26,327.109-.26C567.355,456.576,713.812,456.693,713.812,456.836Z" fill="#263238"/>
          </g>
        </g>
      </g>
    </g>
    <g id="Device">
      <g id="Group_259" data-name="Group 259">
        <g id="Group_139" data-name="Group 139">
          <g id="Group_138" data-name="Group 138">
            <g id="Group_133" data-name="Group 133">
              <g id="Group_108" data-name="Group 108">
                <g id="Group_102" data-name="Group 102">
                  <g id="Group_101" data-name="Group 101">
                    <g id="Group_100" data-name="Group 100">
                      <g id="Group_99" data-name="Group 99">
                        <g id="Group_98" data-name="Group 98">
                          <path id="Path_29" data-name="Path 29" d="M606.627,98.693H202.014a12.629,12.629,0,0,0-12.63,12.629V397.109a12.63,12.63,0,0,0,12.63,12.631H357.3s9.878,30.545-20.743,46.35h145.2s-34.574-11.852-25.684-46.35H606.628a12.63,12.63,0,0,0,12.629-12.63V111.323A12.63,12.63,0,0,0,606.627,98.693Z" fill="#455a64"/>
                        </g>
                      </g>
                    </g>
                  </g>
                </g>
                <g id="Group_107" data-name="Group 107">
                  <g id="Group_106" data-name="Group 106">
                    <g id="Group_105" data-name="Group 105">
                      <g id="Group_104" data-name="Group 104">
                        <g id="Group_103" data-name="Group 103">
                          <path id="Path_30" data-name="Path 30" d="M409.722,379.684c5.5,7.866-3.11,16.48-10.978,10.977a2.774,2.774,0,0,1-.676-.678c-5.489-7.864,3.115-16.467,10.978-10.976A2.769,2.769,0,0,1,409.722,379.684Z" fill="#263238"/>
                        </g>
                      </g>
                    </g>
                  </g>
                </g>
              </g>
              <g id="Group_132" data-name="Group 132">
                <g id="Group_131" data-name="Group 131">
                  <g id="Group_115" data-name="Group 115">
                    <g id="Group_114" data-name="Group 114">
                      <g id="Group_113" data-name="Group 113">
                        <g id="Group_110" data-name="Group 110">
                          <g id="Group_109" data-name="Group 109">
                            <path id="Rectangle_9" data-name="Rectangle 9" d="M3.272,0H407.5a3.273,3.273,0,0,1,3.273,3.273V240.38a3.273,3.273,0,0,1-3.273,3.273H3.272A3.272,3.272,0,0,1,0,240.381V3.272A3.272,3.272,0,0,1,3.272,0Z" transform="translate(198.514 115.824)" fill="#fafafa"/>
                          </g>
                        </g>
                        <g id="Group_112" data-name="Group 112">
                          <g id="Group_111" data-name="Group 111">
                            <path id="Path_31" data-name="Path 31" d="M606.011,359.977H201.787a3.778,3.778,0,0,1-3.773-3.773V119.1a3.777,3.777,0,0,1,3.773-3.773H606.011a3.776,3.776,0,0,1,3.772,3.772V356.2A3.777,3.777,0,0,1,606.011,359.977ZM201.787,116.324a2.777,2.777,0,0,0-2.773,2.773V356.2a2.777,2.777,0,0,0,2.773,2.773H606.011a2.776,2.776,0,0,0,2.772-2.773V119.1a2.776,2.776,0,0,0-2.772-2.772Z" fill="#fff"/>
                          </g>
                        </g>
                      </g>
                    </g>
                  </g>
                  <g id="Group_120" data-name="Group 120">
                    <g id="Group_119" data-name="Group 119">
                      <g id="Group_118" data-name="Group 118">
                        <g id="Group_117" data-name="Group 117">
                          <g id="Group_116" data-name="Group 116">
                            <path id="Path_32" data-name="Path 32" d="M232.2,125.233a3.28,3.28,0,1,1-3.281-3.28A3.281,3.281,0,0,1,232.2,125.233Z" fill="#455a64"/>
                          </g>
                        </g>
                      </g>
                    </g>
                  </g>
                  <g id="Group_125" data-name="Group 125">
                    <g id="Group_124" data-name="Group 124">
                      <g id="Group_123" data-name="Group 123">
                        <g id="Group_122" data-name="Group 122">
                          <g id="Group_121" data-name="Group 121">
                            <path id="Path_33" data-name="Path 33" d="M212.321,125.233a3.281,3.281,0,1,1-3.28-3.28A3.28,3.28,0,0,1,212.321,125.233Z" fill="#455a64"/>
                          </g>
                        </g>
                      </g>
                    </g>
                  </g>
                  <g id="Group_130" data-name="Group 130">
                    <g id="Group_129" data-name="Group 129">
                      <g id="Group_128" data-name="Group 128">
                        <g id="Group_127" data-name="Group 127">
                          <g id="Group_126" data-name="Group 126">
                            <path id="Path_34" data-name="Path 34" d="M221.865,125.233a3.281,3.281,0,1,1-3.281-3.28A3.28,3.28,0,0,1,221.865,125.233Z" fill="#455a64"/>
                          </g>
                        </g>
                      </g>
                    </g>
                  </g>
                </g>
              </g>
            </g>
            <g id="Group_137" data-name="Group 137">
              <g id="Group_136" data-name="Group 136">
                <g id="Group_135" data-name="Group 135">
                  <g id="Group_134" data-name="Group 134">
                    <path id="Path_35" data-name="Path 35" d="M609.578,135.084c0,.144-92.093.26-205.669.26-113.616,0-205.69-.116-205.69-.26s92.074-.26,205.69-.26C517.485,134.824,609.578,134.94,609.578,135.084Z" fill="#263238"/>
                  </g>
                </g>
              </g>
            </g>
          </g>
        </g>
        <g id="Group_158" data-name="Group 158">
          <g id="Group_141" data-name="Group 141">
            <g id="Group_140" data-name="Group 140">
              <rect id="Rectangle_10" data-name="Rectangle 10" width="121.723" height="24.688" rx="12.344" transform="translate(277.762 295.297)" fill="#e8505b"/>
            </g>
          </g>
          <g id="Group_144" data-name="Group 144">
            <g id="Group_143" data-name="Group 143">
              <g id="Group_142" data-name="Group 142">
                <path id="Path_36" data-name="Path 36" d="M508.338,319.985a13.1,13.1,0,0,0,5.034-1.139,12.276,12.276,0,0,0,4.821-3.923A12.244,12.244,0,0,0,515.56,297.8a11.989,11.989,0,0,0-5.608-2.248,23.5,23.5,0,0,0-3.251-.114l-3.4,0-31.318.039-181.34.076a12.093,12.093,0,0,0-5.756,22.719,12.434,12.434,0,0,0,6.026,1.451l12.632,0,48.148.015,81.526.056,54.963.082,14.943.049,3.886.026c.875.009,1.324.027,1.324.027s-.449.018-1.324.026l-3.886.026-14.943.049-54.963.083-81.526.056-48.148.015-12.632,0a12.959,12.959,0,0,1-6.272-1.512,12.611,12.611,0,0,1,6-23.694l181.34.077,31.318.038,3.4.005a23.9,23.9,0,0,1,3.286.127,12.251,12.251,0,0,1,5.72,2.316,12.389,12.389,0,0,1,5.037,9.265,12.4,12.4,0,0,1-7.329,12.078,12.788,12.788,0,0,1-3.753,1C508.786,319.986,508.338,319.985,508.338,319.985Z" fill="#263238"/>
              </g>
            </g>
          </g>
        </g>
        <g id="Group_211" data-name="Group 211">
          <g id="Group_176" data-name="Group 176">
            <g id="Group_175" data-name="Group 175">
              <rect id="Rectangle_11" data-name="Rectangle 11" width="58.002" height="58.002" transform="translate(374.597 203.787)" fill="#e8505b"/>
            </g>
          </g>
          <g id="Group_178" data-name="Group 178">
            <g id="Group_177" data-name="Group 177">
              <path id="Path_63" data-name="Path 63" d="M397.949,213.12l-.145,21.7h-8.251l14.432,19.383,13.348-19.316h-8.109l.216-21.771Z" fill="#fafafa"/>
            </g>
          </g>
          <g id="Group_180" data-name="Group 180">
            <g id="Group_179" data-name="Group 179">
              <rect id="Rectangle_12" data-name="Rectangle 12" width="16.836" height="6.085" rx="2.915" transform="translate(429.544 211.497)" fill="#e8505b"/>
            </g>
          </g>
          <g id="Group_182" data-name="Group 182">
            <g id="Group_181" data-name="Group 181">
              <rect id="Rectangle_13" data-name="Rectangle 13" width="16.836" height="6.085" rx="2.915" transform="translate(429.544 223.501)" fill="#e8505b"/>
            </g>
          </g>
          <g id="Group_184" data-name="Group 184">
            <g id="Group_183" data-name="Group 183">
              <rect id="Rectangle_14" data-name="Rectangle 14" width="16.836" height="6.085" rx="2.915" transform="translate(429.544 235.504)" fill="#e8505b"/>
            </g>
          </g>
          <g id="Group_186" data-name="Group 186">
            <g id="Group_185" data-name="Group 185">
              <rect id="Rectangle_15" data-name="Rectangle 15" width="16.836" height="6.085" rx="2.915" transform="translate(429.544 247.508)" fill="#e8505b"/>
            </g>
          </g>
          <g id="Group_188" data-name="Group 188">
            <g id="Group_187" data-name="Group 187">
              <rect id="Rectangle_16" data-name="Rectangle 16" width="16.836" height="6.085" rx="2.915" transform="translate(362.261 211.497)" fill="#e8505b"/>
            </g>
          </g>
          <g id="Group_190" data-name="Group 190">
            <g id="Group_189" data-name="Group 189">
              <rect id="Rectangle_17" data-name="Rectangle 17" width="16.836" height="6.085" rx="2.915" transform="translate(362.261 223.501)" fill="#e8505b"/>
            </g>
          </g>
          <g id="Group_192" data-name="Group 192">
            <g id="Group_191" data-name="Group 191">
              <rect id="Rectangle_18" data-name="Rectangle 18" width="16.836" height="6.085" rx="2.915" transform="translate(362.261 235.504)" fill="#e8505b"/>
            </g>
          </g>
          <g id="Group_194" data-name="Group 194">
            <g id="Group_193" data-name="Group 193">
              <rect id="Rectangle_19" data-name="Rectangle 19" width="16.836" height="6.085" rx="2.915" transform="translate(362.261 247.508)" fill="#e8505b"/>
            </g>
          </g>
          <g id="Group_196" data-name="Group 196">
            <g id="Group_195" data-name="Group 195">
              <rect id="Rectangle_20" data-name="Rectangle 20" width="16.836" height="6.085" rx="2.915" transform="translate(381.88 208.253) rotate(-90)" fill="#e8505b"/>
            </g>
          </g>
          <g id="Group_198" data-name="Group 198">
            <g id="Group_197" data-name="Group 197">
              <rect id="Rectangle_21" data-name="Rectangle 21" width="16.836" height="6.085" rx="2.915" transform="translate(393.884 208.253) rotate(-90)" fill="#e8505b"/>
            </g>
          </g>
          <g id="Group_200" data-name="Group 200">
            <g id="Group_199" data-name="Group 199">
              <rect id="Rectangle_22" data-name="Rectangle 22" width="16.836" height="6.085" rx="2.915" transform="translate(405.887 208.253) rotate(-90)" fill="#e8505b"/>
            </g>
          </g>
          <g id="Group_202" data-name="Group 202">
            <g id="Group_201" data-name="Group 201">
              <rect id="Rectangle_23" data-name="Rectangle 23" width="16.836" height="6.085" rx="2.915" transform="translate(417.891 208.253) rotate(-90)" fill="#e8505b"/>
            </g>
          </g>
          <g id="Group_204" data-name="Group 204">
            <g id="Group_203" data-name="Group 203">
              <rect id="Rectangle_24" data-name="Rectangle 24" width="16.836" height="6.085" rx="2.915" transform="translate(381.88 274.913) rotate(-90)" fill="#e8505b"/>
            </g>
          </g>
          <g id="Group_206" data-name="Group 206">
            <g id="Group_205" data-name="Group 205">
              <rect id="Rectangle_25" data-name="Rectangle 25" width="16.836" height="6.085" rx="2.915" transform="translate(393.884 274.913) rotate(-90)" fill="#e8505b"/>
            </g>
          </g>
          <g id="Group_208" data-name="Group 208">
            <g id="Group_207" data-name="Group 207">
              <rect id="Rectangle_26" data-name="Rectangle 26" width="16.836" height="6.085" rx="2.915" transform="translate(405.887 274.913) rotate(-90)" fill="#e8505b"/>
            </g>
          </g>
          <g id="Group_210" data-name="Group 210">
            <g id="Group_209" data-name="Group 209">
              <rect id="Rectangle_27" data-name="Rectangle 27" width="16.836" height="6.085" rx="2.915" transform="translate(417.891 274.913) rotate(-90)" fill="#e8505b"/>
            </g>
          </g>
        </g>
        <g id="Group_214" data-name="Group 214">
          <g id="Group_213" data-name="Group 213">
            <g id="Group_212" data-name="Group 212">
              <path id="Path_64" data-name="Path 64" d="M353.241,237.65s-.261.024-.767.035l-2.239.033-8.509.061-30.486.093.149-.057-25.822,23.374-.074.067h-.1l-11.11,0-39.937-.029.149-.054-26.709,22.2c-3.237,2.668-5.794,4.777-7.563,6.236l-2.011,1.634-.522.412a1,1,0,0,1-.185.13,1.1,1.1,0,0,1,.161-.159l.5-.441,1.965-1.688,7.48-6.335L234.2,260.819l.065-.053h.084l39.937-.028,11.11,0-.173.067,25.871-23.32.064-.057h.084l30.486.093,8.509.061,2.239.033C352.98,237.627,353.241,237.65,353.241,237.65Z" fill="#e8505b"/>
            </g>
          </g>
        </g>
        <g id="Group_217" data-name="Group 217">
          <g id="Group_216" data-name="Group 216">
            <g id="Group_215" data-name="Group 215">
              <path id="Path_65" data-name="Path 65" d="M303.25,215.2a.982.982,0,0,1,.029.276l.029.809c.013.757.031,1.795.053,3.1.021,2.741.051,6.617.087,11.368v.089l-.069.06-19.158,16.713-.073.064h-3.106l-31.11-.076-9.427-.082-2.563-.049a5.707,5.707,0,0,1-.894-.053,5.812,5.812,0,0,1,.894-.052l2.563-.049,9.427-.083,31.11-.076h3.009l-.17.064,19.238-16.62-.068.15c.037-4.751.066-8.627.087-11.368.023-1.311.041-2.348.054-3.1.011-.327.02-.593.028-.809A.982.982,0,0,1,303.25,215.2Z" fill="#e8505b"/>
            </g>
          </g>
        </g>
        <g id="Group_220" data-name="Group 220">
          <g id="Group_219" data-name="Group 219">
            <g id="Group_218" data-name="Group 218">
              <path id="Path_66" data-name="Path 66" d="M290.965,279.212a1.01,1.01,0,0,1-.032-.287c-.009-.228-.019-.5-.031-.841-.015-.791-.034-1.863-.058-3.206-.023-2.825-.054-6.781-.092-11.554v-.091l.068-.064,15.594-14.71,6.224-5.835.074-.069h.1l20.6.09,6.026.075,1.617.043a2.717,2.717,0,0,1,.559.045,2.63,2.63,0,0,1-.559.045l-1.617.043-6.026.075-20.6.09.173-.068-6.214,5.845-15.66,14.64.067-.155c-.037,4.773-.068,8.729-.091,11.554-.024,1.343-.044,2.415-.058,3.206-.012.336-.023.613-.031.841A.98.98,0,0,1,290.965,279.212Z" fill="#e8505b"/>
            </g>
          </g>
        </g>
        <g id="Group_223" data-name="Group 223">
          <g id="Group_222" data-name="Group 222">
            <g id="Group_221" data-name="Group 221">
              <path id="Path_67" data-name="Path 67" d="M332.161,232.909a2.621,2.621,0,0,1-.437.028l-1.283.027-4.925.051-18.049.085.128-.049L283.8,254.631l-.072.065h-.1l-19.885.009-32.087-.024.152-.055L207.1,275.279l-7.049,5.839-1.881,1.533-.489.387a.107.107,0,1,1-.026-.03l.466-.416q.654-.568,1.833-1.589l6.963-5.941,24.592-20.8.066-.056h.087l32.087-.024,19.885.009-.168.065,23.873-21.491.055-.05h.073l18.049.085,4.925.051,1.283.027A2.621,2.621,0,0,1,332.161,232.909Z" fill="#e8505b"/>
            </g>
          </g>
        </g>
        <g id="Group_226" data-name="Group 226">
          <g id="Group_225" data-name="Group 225">
            <g id="Group_224" data-name="Group 224">
              <path id="Path_68" data-name="Path 68" d="M608.275,249.735a1.389,1.389,0,0,1-.275.021l-.813.021-3.166.04-11.983.071h-.063l-.045-.045-37.606-37.459.181.075-15.221,0-13.668,0h-.107l-.075-.076L514.787,201.72l.173.072-23.322-.041.169-.089-6.649,9.661-.051.075h-.089l-15.27-.077-4.078-.045-1.053-.023a1.854,1.854,0,0,1-.357-.025,2.042,2.042,0,0,1,.357-.024l1.053-.023,4.078-.045,15.27-.077-.14.074q2.958-4.354,6.591-9.7l.06-.089h.109l23.322-.04h.1l.072.072L525.8,212.021l-.181-.075,13.668,0,15.221.005h.107l.075.075,37.459,37.6-.108-.044,11.983.071,3.166.039.813.021A1.387,1.387,0,0,1,608.275,249.735Z" fill="#e8505b"/>
            </g>
          </g>
        </g>
        <g id="Group_229" data-name="Group 229">
          <g id="Group_228" data-name="Group 228">
            <g id="Group_227" data-name="Group 227">
              <path id="Path_69" data-name="Path 69" d="M608.275,254.592a1.82,1.82,0,0,1-.337.024l-.991.023-3.834.045-14.3.078h-.07l-.05-.05L551.241,217.39l.183.076h-7.41l-56.4-.076-17.09-.083-4.647-.049-1.208-.026a2.423,2.423,0,0,1-.412-.027,2.517,2.517,0,0,1,.412-.026l1.208-.026,4.647-.049,17.09-.083,56.4-.076h7.518l.075.076,37.322,37.448-.12-.049,14.3.077,3.834.045.991.024A1.62,1.62,0,0,1,608.275,254.592Z" fill="#e8505b"/>
            </g>
          </g>
        </g>
        <g id="Group_232" data-name="Group 232">
          <g id="Group_231" data-name="Group 231">
            <g id="Group_230" data-name="Group 230">
              <path id="Path_70" data-name="Path 70" d="M608.275,228.708s-.192.023-.565.033l-1.648.032-6.285.059-22.649.092h-.091l-.064-.065L557.1,208.492l.184.078-10.944,0-20.29-.011h-.1l-.072-.069-9.746-9.342.158.063-26.628-.093-7.485-.064-1.975-.035L479.69,199a.086.086,0,1,1,0-.036l.507-.018,1.975-.035,7.485-.063,26.628-.094h.091l.067.063c3.053,2.909,6.325,6.026,9.775,9.311l-.172-.069,20.29-.011,10.944,0h.109l.076.077c7.3,7.524,14.063,14.494,19.817,20.425l-.154-.065,22.649.091,6.285.059,1.648.032C608.083,228.686,608.275,228.708,608.275,228.708Z" fill="#e8505b"/>
            </g>
          </g>
        </g>
        <g id="Group_235" data-name="Group 235">
          <g id="Group_234" data-name="Group 234">
            <g id="Group_233" data-name="Group 233">
              <path id="Path_71" data-name="Path 71" d="M608.275,261a2.256,2.256,0,0,1-.391.026l-1.149.025-4.436.047-16.461.08h-.07l-.052-.049L551.369,228.9l.176.07-12.8,0h-6.215l.191-.083-25.677,27.754-.065.071h-.1l-27.82-.092-7.765-.061-2.043-.032c-.462-.012-.7-.035-.7-.035s.238-.022.7-.034l2.043-.032,7.765-.061,27.82-.092-.162.07,25.618-27.808.077-.083h6.329l12.8,0h.1l.074.07,34.239,32.347-.122-.049,16.461.081,4.436.047,1.149.025A2.346,2.346,0,0,1,608.275,261Z" fill="#e8505b"/>
            </g>
          </g>
        </g>
        <g id="Group_238" data-name="Group 238">
          <g id="Group_237" data-name="Group 237">
            <g id="Group_236" data-name="Group 236">
              <path id="Path_72" data-name="Path 72" d="M553.293,225.641a2.532,2.532,0,0,1-.5.039l-1.464.037-5.521.067-19.384.1.173-.075-12.739,13.52c-3.233,3.416-6.35,6.711-9.222,9.747l-.075.078h-.106l-22.992-.093-6.653-.072-1.777-.041a3.282,3.282,0,0,1-.613-.043,3.4,3.4,0,0,1,.613-.043l1.777-.04,6.653-.073,22.992-.093-.181.078,9.2-9.763,12.772-13.488.071-.075h.1l19.384.1,5.521.067,1.464.037A2.532,2.532,0,0,1,553.293,225.641Z" fill="#e8505b"/>
            </g>
          </g>
        </g>
        <g id="Group_241" data-name="Group 241">
          <g id="Group_240" data-name="Group 240">
            <g id="Group_239" data-name="Group 239">
              <path id="Path_73" data-name="Path 73" d="M497.521,269.332" fill="none" stroke="#f3a7ad" stroke-miterlimit="10" stroke-width="0.05"/>
            </g>
          </g>
        </g>
        <g id="Group_243" data-name="Group 243">
          <g id="Group_242" data-name="Group 242">
            <path id="Path_74" data-name="Path 74" d="M304.138,215.365a.887.887,0,1,1-.888-.887A.889.889,0,0,1,304.138,215.365Z" fill="#e8505b"/>
          </g>
        </g>
        <g id="Group_245" data-name="Group 245">
          <g id="Group_244" data-name="Group 244">
            <path id="Path_75" data-name="Path 75" d="M354.221,237.65a.887.887,0,1,1-.887-.887A.887.887,0,0,1,354.221,237.65Z" fill="#e8505b"/>
          </g>
        </g>
        <g id="Group_247" data-name="Group 247">
          <g id="Group_246" data-name="Group 246">
            <path id="Path_76" data-name="Path 76" d="M237.937,247.422a.887.887,0,1,1-.888-.887A.889.889,0,0,1,237.937,247.422Z" fill="#e8505b"/>
          </g>
        </g>
        <g id="Group_249" data-name="Group 249">
          <g id="Group_248" data-name="Group 248">
            <circle id="Ellipse_1" data-name="Ellipse 1" cx="0.887" cy="0.887" r="0.887" transform="translate(463.856 210.34)" fill="#e8505b"/>
          </g>
        </g>
        <g id="Group_251" data-name="Group 251">
          <g id="Group_250" data-name="Group 250">
            <path id="Path_77" data-name="Path 77" d="M480.406,198.986a.887.887,0,1,1-.887-.887A.888.888,0,0,1,480.406,198.986Z" fill="#e8505b"/>
          </g>
        </g>
        <g id="Group_253" data-name="Group 253">
          <g id="Group_252" data-name="Group 252">
            <path id="Path_78" data-name="Path 78" d="M553.647,225.641a.887.887,0,1,1-.887-.887A.887.887,0,0,1,553.647,225.641Z" fill="#e8505b"/>
          </g>
        </g>
        <g id="Group_255" data-name="Group 255">
          <g id="Group_254" data-name="Group 254">
            <circle id="Ellipse_2" data-name="Ellipse 2" cx="0.887" cy="0.887" r="0.887" transform="translate(473.204 247.751)" fill="#e8505b"/>
          </g>
        </g>
        <g id="Group_258" data-name="Group 258">
          <g id="Group_257" data-name="Group 257">
            <g id="Group_256" data-name="Group 256">
              <path id="Path_79" data-name="Path 79" d="M456.08,410.012c0,.144-22.218.26-49.618.26s-49.623-.116-49.623-.26,22.213-.26,49.623-.26S456.08,409.868,456.08,410.012Z" fill="#263238"/>
            </g>
          </g>
        </g>
      </g>
    </g>
    <g id="Character">
      <g id="Group_483" data-name="Group 483">
        <g id="Group_269" data-name="Group 269">
          <g id="Group_268" data-name="Group 268">
            <g id="Group_261" data-name="Group 261">
              <g id="Group_260" data-name="Group 260">
                <path id="Path_80" data-name="Path 80" d="M70.61,336.166l18.217,61.493a6.431,6.431,0,0,0,6.165,4.6l73.914.2a6.834,6.834,0,0,0,6.843-7.2h0a6.835,6.835,0,0,0-6.824-6.472H140.659l-22.636-63.07H78.4A8.127,8.127,0,0,0,70.61,336.166Z" fill="#455a64"/>
              </g>
            </g>
            <g id="Group_264" data-name="Group 264">
              <g id="Group_263" data-name="Group 263">
                <g id="Group_262" data-name="Group 262">
                  <path id="Path_81" data-name="Path 81" d="M133.144,393.849c0,.144-7.536.261-16.831.261s-16.832-.117-16.832-.261,7.534-.26,16.832-.26S133.144,393.706,133.144,393.849Z" fill="#263238"/>
                </g>
              </g>
            </g>
            <g id="Group_267" data-name="Group 267">
              <g id="Group_266" data-name="Group 266">
                <g id="Group_265" data-name="Group 265">
                  <path id="Path_82" data-name="Path 82" d="M76.045,327.682c.136-.045,5.169,14.678,11.24,32.881s10.884,33,10.747,33.049-5.168-14.674-11.241-32.884S75.909,327.728,76.045,327.682Z" fill="#263238"/>
                </g>
              </g>
            </g>
          </g>
          <path id="Path_83" data-name="Path 83" d="M130.07,456.9l-4.5-.106V402.262h4.5Z" fill="#455a64"/>
          <path id="Path_84" data-name="Path 84" d="M106.852,456.651h41.932l-19-6.6h-4.5Z" fill="#455a64"/>
        </g>
        <g id="Group_480" data-name="Group 480">
          <g id="Group_306" data-name="Group 306">
            <g id="Group_277" data-name="Group 277">
              <g id="Group_276" data-name="Group 276">
                <g id="Group_273" data-name="Group 273">
                  <g id="Group_272" data-name="Group 272">
                    <g id="Group_271" data-name="Group 271">
                      <g id="Group_270" data-name="Group 270">
                        <path id="Path_85" data-name="Path 85" d="M96.247,311.629l6.938,34.662-1.238,25.977,46.636-7.757-1.83-22.747-.035-18.823L158.154,345.1l8.9-17.2-16.3-29.531,0,0a27.518,27.518,0,0,0-10.666-6.906,22.036,22.036,0,0,0-6.684-1.28h0a26.8,26.8,0,0,1-16.144.01c-.656.082-1.565.168-2.711.3l-.21.026a20.618,20.618,0,0,0-18,19.389Z" fill="#e8505b"/>
                      </g>
                    </g>
                  </g>
                </g>
                <g id="Group_275" data-name="Group 275">
                  <g id="Group_274" data-name="Group 274">
                    <path id="Path_86" data-name="Path 86" d="M114.548,290.505s-19.162.146-21.536,20.384l-.322,14.84,16.5-.143Z" fill="#e8505b"/>
                  </g>
                </g>
              </g>
            </g>
            <g id="Group_280" data-name="Group 280">
              <g id="Group_279" data-name="Group 279">
                <g id="Group_278" data-name="Group 278">
                  <path id="Path_87" data-name="Path 87" d="M160.327,316.54c0,.143-15.078.26-33.674.26s-33.678-.117-33.678-.26,15.075-.261,33.678-.261S160.327,316.4,160.327,316.54Z" fill="#fafafa"/>
                </g>
              </g>
            </g>
            <g id="Group_283" data-name="Group 283">
              <g id="Group_282" data-name="Group 282">
                <g id="Group_281" data-name="Group 281">
                  <path id="Path_88" data-name="Path 88" d="M160.327,319.748c0,.144-15.078.26-33.674.26s-33.678-.116-33.678-.26,15.075-.26,33.678-.26S160.327,319.6,160.327,319.748Z" fill="#fafafa"/>
                </g>
              </g>
            </g>
            <g id="Group_286" data-name="Group 286">
              <g id="Group_285" data-name="Group 285">
                <g id="Group_284" data-name="Group 284">
                  <path id="Path_89" data-name="Path 89" d="M159.248,313.881c0,.144-14.837.26-33.135.26s-33.138-.116-33.138-.26,14.834-.26,33.138-.26S159.248,313.737,159.248,313.881Z" fill="#fafafa"/>
                </g>
              </g>
            </g>
            <g id="Group_289" data-name="Group 289">
              <g id="Group_288" data-name="Group 288">
                <g id="Group_287" data-name="Group 287">
                  <path id="Path_90" data-name="Path 90" d="M146.468,345.1c-.144,0-.08-8.2.143-18.318s.52-18.311.663-18.308.08,8.2-.142,18.32S146.612,345.106,146.468,345.1Z" fill="#263238"/>
                </g>
              </g>
            </g>
            <g id="Group_291" data-name="Group 291">
              <g id="Group_290" data-name="Group 290">
                <path id="Path_91" data-name="Path 91" d="M139.917,331.8s9.064.648,10.7,3.044,4.118,9.23,3.176,9.28a2.57,2.57,0,0,1-1.627-.514l-2.484-4.4s.4,4.254-1.086,4.338-8.846,1.557-8.846,1.557Z" fill="#b78876"/>
              </g>
            </g>
            <g id="Group_293" data-name="Group 293">
              <g id="Group_292" data-name="Group 292">
                <path id="Path_92" data-name="Path 92" d="M92.7,321.779l-.034,23.367a8.877,8.877,0,0,0,10.755,8.194l36.546-7.53-.078-14.984-31.533,6.051-.42-15.861Z" fill="#e8505b"/>
              </g>
            </g>
            <g id="Group_296" data-name="Group 296">
              <g id="Group_295" data-name="Group 295">
                <g id="Group_294" data-name="Group 294">
                  <path id="Path_93" data-name="Path 93" d="M113.546,351.468a2.585,2.585,0,0,1,.482-.134l1.417-.319,5.372-1.137,19.023-3.888-.187.227c-.008-4.7-.017-9.9-.026-15.391l.307.253-6.425,1.235L108.394,337.1l-.273.051.01-.273c.238-6.955.437-12.748.578-16.851.083-1.995.149-3.577.2-4.706.029-.512.051-.921.069-1.237a1.9,1.9,0,0,1,.047-.423,2.076,2.076,0,0,1,.022.427c0,.316,0,.726,0,1.24-.017,1.13-.043,2.713-.074,4.71-.1,4.1-.23,9.894-.392,16.848l-.263-.222,25.1-4.856,6.425-1.231.307-.059v.313c-.009,5.489-.018,10.687-.026,15.391v.192l-.187.036-19.059,3.7-5.4,1.009-1.431.249A2.615,2.615,0,0,1,113.546,351.468Z" fill="#263238"/>
                </g>
              </g>
            </g>
            <g id="Group_299" data-name="Group 299">
              <g id="Group_298" data-name="Group 298">
                <g id="Group_297" data-name="Group 297">
                  <path id="Path_94" data-name="Path 94" d="M134.51,290.505c.017-.005.068.112.149.343a6.743,6.743,0,0,1,.283,1.033,8.469,8.469,0,0,1-.171,3.933,10.344,10.344,0,0,1-3.172,4.9,9.843,9.843,0,0,1-6.652,2.512,9.027,9.027,0,0,1-6.576-2.671,9.266,9.266,0,0,1-2.447-5.291,8.335,8.335,0,0,1,.461-3.909,5.507,5.507,0,0,1,.469-.965c.126-.21.2-.315.214-.306.053.027-.221.465-.492,1.337a8.716,8.716,0,0,0-.286,3.8,9.063,9.063,0,0,0,2.425,5,8.651,8.651,0,0,0,6.233,2.484,9.491,9.491,0,0,0,6.334-2.351,10.2,10.2,0,0,0,3.136-4.639,8.87,8.87,0,0,0,.324-3.8C134.622,291.008,134.458,290.521,134.51,290.505Z" fill="#263238"/>
                </g>
              </g>
            </g>
            <g id="Group_302" data-name="Group 302">
              <g id="Group_301" data-name="Group 301">
                <g id="Group_300" data-name="Group 300">
                  <path id="Path_95" data-name="Path 95" d="M136.274,347.05a11.411,11.411,0,0,1,.008-2.307c.054-1.418.122-3.376.136-5.539s-.033-4.122-.071-5.541a11.294,11.294,0,0,1,.02-2.306,9.307,9.307,0,0,1,.348,2.284c.132,1.42.236,3.389.224,5.566s-.141,4.144-.29,5.562A9.218,9.218,0,0,1,136.274,347.05Z" fill="#fafafa"/>
                </g>
              </g>
            </g>
            <g id="Group_305" data-name="Group 305">
              <g id="Group_304" data-name="Group 304">
                <g id="Group_303" data-name="Group 303">
                  <path id="Path_96" data-name="Path 96" d="M134.388,347.432a10.624,10.624,0,0,1-.066-2.29c.017-1.611.037-3.462.059-5.505,0-2.045,0-3.9,0-5.507a10.72,10.72,0,0,1,.088-2.288,9.442,9.442,0,0,1,.28,2.276c.1,1.41.168,3.363.158,5.521s-.1,4.11-.212,5.519A9.483,9.483,0,0,1,134.388,347.432Z" fill="#fafafa"/>
                </g>
              </g>
            </g>
          </g>
          <g id="Group_346" data-name="Group 346">
            <g id="Group_309" data-name="Group 309">
              <g id="Group_308" data-name="Group 308">
                <g id="Group_307" data-name="Group 307">
                  <path id="Path_97" data-name="Path 97" d="M158.637,449.733l3.273,9.384s17.816,18.824,22.566,17.33c3.113-.98-1.339-5.911-8.907-20.818l-1.91-6.282Z" fill="#e8505b"/>
                </g>
              </g>
            </g>
            <path id="Path_98" data-name="Path 98" d="M160.317,454.48l1.25,4.214s10.407,10.287,13.422,12.6,6.721,5.6,9.474,5.028.332-3.082.332-3.082-.739,1.835-2.061,1.429-3.8-1.447-9.49-6.557-6.613-6.32-6.613-6.32.274-2.609-.827-4.039S162.6,454.256,160.317,454.48Z" fill="#fff" opacity="0.4"/>
            <g id="Group_313" data-name="Group 313">
              <g id="Group_312" data-name="Group 312">
                <g id="Group_311" data-name="Group 311">
                  <g id="Group_310" data-name="Group 310">
                    <path id="Path_99" data-name="Path 99" d="M184.808,473.364a2.039,2.039,0,0,1-.757.89,2.927,2.927,0,0,1-3.054-.111,88.2,88.2,0,0,1-8.586-6.618c-3.225-2.759-5.972-5.45-7.914-7.44l-2.273-2.384-.617-.65a1.271,1.271,0,0,0-.229-.214,1.29,1.29,0,0,0,.186.252c.182.215.372.441.578.686.508.59,1.259,1.431,2.21,2.449a101.9,101.9,0,0,0,7.874,7.516,77.1,77.1,0,0,0,8.678,6.582,3.721,3.721,0,0,0,1.843.471,2.577,2.577,0,0,0,1.365-.447,1.76,1.76,0,0,0,.6-.681A.883.883,0,0,0,184.808,473.364Z" fill="#263238"/>
                  </g>
                </g>
              </g>
            </g>
            <g id="Group_317" data-name="Group 317">
              <g id="Group_316" data-name="Group 316">
                <g id="Group_315" data-name="Group 315">
                  <g id="Group_314" data-name="Group 314">
                    <path id="Path_100" data-name="Path 100" d="M181.91,467.024a2.571,2.571,0,0,0-1.309-.01,6.789,6.789,0,0,0-2.859,1.332,5.463,5.463,0,0,0-1.923,2.5,2.822,2.822,0,0,0-.211,1.291c.05.008.1-.493.4-1.219a5.815,5.815,0,0,1,1.908-2.344,7.516,7.516,0,0,1,2.728-1.361C181.408,467.023,181.907,467.074,181.91,467.024Z" fill="#263238"/>
                  </g>
                </g>
              </g>
            </g>
            <g id="Group_321" data-name="Group 321">
              <g id="Group_320" data-name="Group 320">
                <g id="Group_319" data-name="Group 319">
                  <g id="Group_318" data-name="Group 318">
                    <path id="Path_101" data-name="Path 101" d="M166.528,463.75a1.557,1.557,0,0,0,.142-.479,8.584,8.584,0,0,0,.175-1.35,7.194,7.194,0,0,0-1.181-4.3,6.79,6.79,0,0,0-3.495-2.765,5.236,5.236,0,0,0-1.339-.268,1.466,1.466,0,0,0-.5.019,11.371,11.371,0,0,1,1.772.438,6.986,6.986,0,0,1,3.323,2.73,7.44,7.44,0,0,1,1.219,4.14C166.629,463.045,166.477,463.742,166.528,463.75Z" fill="#263238"/>
                  </g>
                </g>
              </g>
            </g>
            <g id="Group_325" data-name="Group 325">
              <g id="Group_324" data-name="Group 324">
                <g id="Group_323" data-name="Group 323">
                  <g id="Group_322" data-name="Group 322">
                    <path id="Path_102" data-name="Path 102" d="M159.8,451.263c-.066.032.427,1.339.894,3.008a10.512,10.512,0,0,0,1.128,2.942c.06-.03-.394-1.346-.855-3.022A10.209,10.209,0,0,0,159.8,451.263Z" fill="#263238"/>
                  </g>
                </g>
              </g>
            </g>
            <g id="Group_329" data-name="Group 329">
              <g id="Group_328" data-name="Group 328">
                <g id="Group_327" data-name="Group 327">
                  <g id="Group_326" data-name="Group 326">
                    <path id="Path_103" data-name="Path 103" d="M175.986,456.958a4.749,4.749,0,0,0-3.749,1.277c.05.07.794-.432,1.827-.778S175.989,457.043,175.986,456.958Z" fill="#263238"/>
                  </g>
                </g>
              </g>
            </g>
            <g id="Group_333" data-name="Group 333">
              <g id="Group_332" data-name="Group 332">
                <g id="Group_331" data-name="Group 331">
                  <g id="Group_330" data-name="Group 330">
                    <path id="Path_104" data-name="Path 104" d="M176.478,458.572a3.212,3.212,0,0,0-3.114,1.084c.055.064.642-.411,1.5-.7S176.474,458.656,176.478,458.572Z" fill="#263238"/>
                  </g>
                </g>
              </g>
            </g>
            <g id="Group_337" data-name="Group 337">
              <g id="Group_336" data-name="Group 336">
                <g id="Group_335" data-name="Group 335">
                  <g id="Group_334" data-name="Group 334">
                    <path id="Path_105" data-name="Path 105" d="M177.944,460.511a2.591,2.591,0,0,0-3.175,1.071,4.424,4.424,0,0,1,3.175-1.071Z" fill="#263238"/>
                  </g>
                </g>
              </g>
            </g>
            <g id="Group_341" data-name="Group 341">
              <g id="Group_340" data-name="Group 340">
                <g id="Group_339" data-name="Group 339">
                  <g id="Group_338" data-name="Group 338">
                    <path id="Path_106" data-name="Path 106" d="M174.833,456.378c.006-.048-.747-.123-1.912-.443a14.163,14.163,0,0,1-1.991-.718c-.363-.163-.739-.351-1.113-.562-.344-.2-.732-.516-.758-.89s.42-.626.789-.571a2.3,2.3,0,0,1,1.038.549c.635.487,1.182.957,1.63,1.365.895.817,1.4,1.373,1.437,1.343a1.812,1.812,0,0,0-.314-.429c-.219-.262-.549-.63-.984-1.06a19.78,19.78,0,0,0-1.607-1.426,2.487,2.487,0,0,0-1.165-.618.92.92,0,0,0-1.108.86,1.585,1.585,0,0,0,.9,1.119,12.586,12.586,0,0,0,3.193,1.233,10.66,10.66,0,0,0,1.43.238A1.76,1.76,0,0,0,174.833,456.378Z" fill="#263238"/>
                  </g>
                </g>
              </g>
            </g>
            <g id="Group_345" data-name="Group 345">
              <g id="Group_344" data-name="Group 344">
                <g id="Group_343" data-name="Group 343">
                  <g id="Group_342" data-name="Group 342">
                    <path id="Path_107" data-name="Path 107" d="M173.987,456.263a17.8,17.8,0,0,0,.108-1.786,7.377,7.377,0,0,1,.35-1.873,3.942,3.942,0,0,1,.492-.987c.212-.3.554-.567.866-.425s.4.568.389.929a4.375,4.375,0,0,1-.2,1.087,6.069,6.069,0,0,1-.866,1.688c-.646.883-1.176,1.33-1.14,1.367a1.4,1.4,0,0,0,.39-.287,7.234,7.234,0,0,0,.911-.959,5.824,5.824,0,0,0,.955-1.728,4.412,4.412,0,0,0,.227-1.162,1.207,1.207,0,0,0-.556-1.2,1.049,1.049,0,0,0-1.2.522,4.076,4.076,0,0,0-.516,1.068,6.957,6.957,0,0,0-.3,1.947c-.014.558.011,1.007.03,1.316A1.547,1.547,0,0,0,173.987,456.263Z" fill="#263238"/>
                  </g>
                </g>
              </g>
            </g>
          </g>
          <g id="Group_433" data-name="Group 433">
            <g id="Group_432" data-name="Group 432">
              <g id="Group_431" data-name="Group 431">
                <g id="Group_430" data-name="Group 430">
                  <g id="Group_355" data-name="Group 355">
                    <g id="Group_350" data-name="Group 350">
                      <g id="Group_349" data-name="Group 349">
                        <g id="Group_348" data-name="Group 348">
                          <g id="Group_347" data-name="Group 347">
                            <path id="Path_108" data-name="Path 108" d="M203.277,452.2l-.676-6.552-17.923.33.056,10.559,1.14.079c5.073.308,25.817,1.217,29.216.231C218.881,455.751,203.277,452.2,203.277,452.2Z" fill="#e8505b"/>
                          </g>
                        </g>
                      </g>
                    </g>
                    <g id="Group_354" data-name="Group 354" opacity="0.5">
                      <g id="Group_353" data-name="Group 353">
                        <g id="Group_352" data-name="Group 352">
                          <g id="Group_351" data-name="Group 351">
                            <path id="Path_109" data-name="Path 109" d="M191.4,456.443a6.328,6.328,0,0,0-2.2-3.971,5.441,5.441,0,0,0-4.5-1.241l.048,5.054Z" fill="#fff"/>
                          </g>
                        </g>
                      </g>
                    </g>
                  </g>
                  <g id="Group_359" data-name="Group 359">
                    <g id="Group_358" data-name="Group 358">
                      <g id="Group_357" data-name="Group 357">
                        <g id="Group_356" data-name="Group 356" opacity="0.5">
                          <path id="Path_110" data-name="Path 110" d="M210.9,454.2s5.467,1.583,4.778,2.462-21.688.734-30.944-.124l.032-.4,24.492.375S209.829,454.241,210.9,454.2Z" fill="#fff"/>
                        </g>
                      </g>
                    </g>
                  </g>
                  <g id="Group_364" data-name="Group 364">
                    <g id="Group_363" data-name="Group 363">
                      <g id="Group_362" data-name="Group 362">
                        <g id="Group_361" data-name="Group 361">
                          <g id="Group_360" data-name="Group 360">
                            <path id="Path_111" data-name="Path 111" d="M184.477,456.126a1.666,1.666,0,0,0,.316.036l.908.06,3.342.164c2.822.119,6.724.233,11.035.267s8.216-.022,11.04-.1l3.343-.113.909-.046a1.8,1.8,0,0,0,.316-.031,1.664,1.664,0,0,0-.318-.013l-.909.005-3.345.043c-2.823.036-6.725.066-11.034.033s-8.209-.123-11.032-.2l-3.343-.1-.91-.019A1.811,1.811,0,0,0,184.477,456.126Z" fill="#263238"/>
                          </g>
                        </g>
                      </g>
                    </g>
                  </g>
                  <g id="Group_369" data-name="Group 369">
                    <g id="Group_368" data-name="Group 368">
                      <g id="Group_367" data-name="Group 367">
                        <g id="Group_366" data-name="Group 366">
                          <g id="Group_365" data-name="Group 365">
                            <path id="Path_112" data-name="Path 112" d="M209.251,456.794a7.3,7.3,0,0,1,.635-1.559,7.464,7.464,0,0,1,1.148-1.246,2.461,2.461,0,0,0-1.337,1.13A2.379,2.379,0,0,0,209.251,456.794Z" fill="#263238"/>
                          </g>
                        </g>
                      </g>
                    </g>
                  </g>
                  <g id="Group_374" data-name="Group 374">
                    <g id="Group_373" data-name="Group 373">
                      <g id="Group_372" data-name="Group 372">
                        <g id="Group_371" data-name="Group 371">
                          <g id="Group_370" data-name="Group 370">
                            <path id="Path_113" data-name="Path 113" d="M203.843,454.059c.052.032.314-.276.585-.688s.449-.773.4-.8-.313.275-.584.687S203.791,454.026,203.843,454.059Z" fill="#263238"/>
                          </g>
                        </g>
                      </g>
                    </g>
                  </g>
                  <g id="Group_379" data-name="Group 379">
                    <g id="Group_378" data-name="Group 378">
                      <g id="Group_377" data-name="Group 377">
                        <g id="Group_376" data-name="Group 376">
                          <g id="Group_375" data-name="Group 375">
                            <path id="Path_114" data-name="Path 114" d="M202.359,453.277c.041.045.333-.143.652-.419s.544-.538.5-.583-.332.142-.651.419S202.319,453.231,202.359,453.277Z" fill="#263238"/>
                          </g>
                        </g>
                      </g>
                    </g>
                  </g>
                  <g id="Group_384" data-name="Group 384">
                    <g id="Group_383" data-name="Group 383">
                      <g id="Group_382" data-name="Group 382">
                        <g id="Group_381" data-name="Group 381">
                          <g id="Group_380" data-name="Group 380">
                            <path id="Path_115" data-name="Path 115" d="M201.43,451.569a4.306,4.306,0,1,0,.963-.091A2.2,2.2,0,0,0,201.43,451.569Z" fill="#263238"/>
                          </g>
                        </g>
                      </g>
                    </g>
                  </g>
                  <g id="Group_389" data-name="Group 389">
                    <g id="Group_388" data-name="Group 388">
                      <g id="Group_387" data-name="Group 387">
                        <g id="Group_386" data-name="Group 386">
                          <g id="Group_385" data-name="Group 385">
                            <path id="Path_116" data-name="Path 116" d="M201.115,450.368a2.761,2.761,0,0,0,2.175.176,84.77,84.77,0,0,1-2.175-.176Z" fill="#263238"/>
                          </g>
                        </g>
                      </g>
                    </g>
                  </g>
                  <g id="Group_394" data-name="Group 394">
                    <g id="Group_393" data-name="Group 393">
                      <g id="Group_392" data-name="Group 392">
                        <g id="Group_391" data-name="Group 391">
                          <g id="Group_390" data-name="Group 390">
                            <path id="Path_117" data-name="Path 117" d="M204.478,452.491a3.488,3.488,0,0,0,1.182,0,7.024,7.024,0,0,0,1.26-.263,3.465,3.465,0,0,0,.722-.286.627.627,0,0,0,.295-.358.452.452,0,0,0-.175-.464,2.2,2.2,0,0,0-2.685.6,2.041,2.041,0,0,0-.391.77c-.049.2-.046.311-.033.312a3.262,3.262,0,0,1,.546-.984,2.128,2.128,0,0,1,1.014-.635,1.864,1.864,0,0,1,1.407.1c.187.138.113.354-.1.474a3.5,3.5,0,0,1-.666.273,8.275,8.275,0,0,1-1.219.3C204.929,452.457,204.478,452.455,204.478,452.491Z" fill="#263238"/>
                          </g>
                        </g>
                      </g>
                    </g>
                  </g>
                  <g id="Group_399" data-name="Group 399">
                    <g id="Group_398" data-name="Group 398">
                      <g id="Group_397" data-name="Group 397">
                        <g id="Group_396" data-name="Group 396">
                          <g id="Group_395" data-name="Group 395">
                            <path id="Path_118" data-name="Path 118" d="M204.784,452.551a1.125,1.125,0,0,0,.142-.8,1.883,1.883,0,0,0-.317-.849,1.191,1.191,0,0,0-.98-.6.462.462,0,0,0-.368.533,1.255,1.255,0,0,0,.2.518,3.512,3.512,0,0,0,.554.705,1.7,1.7,0,0,0,.673.473c.021-.028-.234-.209-.558-.578a4.108,4.108,0,0,1-.489-.7c-.161-.246-.269-.687.028-.737.3-.026.6.264.775.5a1.887,1.887,0,0,1,.329.755A4.12,4.12,0,0,1,204.784,452.551Z" fill="#263238"/>
                          </g>
                        </g>
                      </g>
                    </g>
                  </g>
                  <g id="Group_404" data-name="Group 404">
                    <g id="Group_403" data-name="Group 403">
                      <g id="Group_402" data-name="Group 402">
                        <g id="Group_401" data-name="Group 401">
                          <g id="Group_400" data-name="Group 400">
                            <path id="Path_119" data-name="Path 119" d="M184.887,451.2c0,.04.527-.046,1.358.056a6,6,0,0,1,2.956,1.217,5.827,5.827,0,0,1,1.835,2.578c.275.775.3,1.294.34,1.289a1.038,1.038,0,0,0,0-.363,4.683,4.683,0,0,0-.193-.974,5.569,5.569,0,0,0-1.845-2.7,5.755,5.755,0,0,0-3.08-1.2,4.885,4.885,0,0,0-1.011.019A1.046,1.046,0,0,0,184.887,451.2Z" fill="#263238"/>
                          </g>
                        </g>
                      </g>
                    </g>
                  </g>
                  <g id="Group_409" data-name="Group 409">
                    <g id="Group_408" data-name="Group 408">
                      <g id="Group_407" data-name="Group 407">
                        <g id="Group_406" data-name="Group 406">
                          <g id="Group_405" data-name="Group 405">
                            <path id="Path_120" data-name="Path 120" d="M193.73,454.7a15.449,15.449,0,0,0,5.374.087c-.006-.063-1.207,0-2.688-.026S193.737,454.639,193.73,454.7Z" fill="#263238"/>
                          </g>
                        </g>
                      </g>
                    </g>
                  </g>
                  <g id="Group_414" data-name="Group 414">
                    <g id="Group_413" data-name="Group 413">
                      <g id="Group_412" data-name="Group 412">
                        <g id="Group_411" data-name="Group 411">
                          <g id="Group_410" data-name="Group 410">
                            <path id="Path_121" data-name="Path 121" d="M190.125,454.671c-.045.044.1.251.218.521s.186.511.249.507.1-.283-.046-.6S190.165,454.628,190.125,454.671Z" fill="#263238"/>
                          </g>
                        </g>
                      </g>
                    </g>
                  </g>
                  <g id="Group_419" data-name="Group 419">
                    <g id="Group_418" data-name="Group 418">
                      <g id="Group_417" data-name="Group 417">
                        <g id="Group_416" data-name="Group 416">
                          <g id="Group_415" data-name="Group 415">
                            <path id="Path_122" data-name="Path 122" d="M188.779,453.006c-.044.042.073.23.262.42s.377.311.422.269-.074-.23-.263-.421S188.823,452.964,188.779,453.006Z" fill="#263238"/>
                          </g>
                        </g>
                      </g>
                    </g>
                  </g>
                  <g id="Group_424" data-name="Group 424">
                    <g id="Group_423" data-name="Group 423">
                      <g id="Group_422" data-name="Group 422">
                        <g id="Group_421" data-name="Group 421">
                          <g id="Group_420" data-name="Group 420">
                            <path id="Path_123" data-name="Path 123" d="M186.84,452.235c.013.062.257.061.526.156s.464.238.512.2-.1-.29-.439-.4S186.822,452.18,186.84,452.235Z" fill="#263238"/>
                          </g>
                        </g>
                      </g>
                    </g>
                  </g>
                  <g id="Group_429" data-name="Group 429">
                    <g id="Group_428" data-name="Group 428">
                      <g id="Group_427" data-name="Group 427">
                        <g id="Group_426" data-name="Group 426">
                          <g id="Group_425" data-name="Group 425">
                            <path id="Path_124" data-name="Path 124" d="M185.459,451.869c-.023.056.082.149.235.208s.293.062.316.006-.082-.15-.235-.209S185.482,451.813,185.459,451.869Z" fill="#263238"/>
                          </g>
                        </g>
                      </g>
                    </g>
                  </g>
                </g>
              </g>
            </g>
            <path id="Path_125" data-name="Path 125" d="M184.7,449.5l18.307.055-.4-3.9-17.923.33Z" opacity="0.3"/>
          </g>
          <g id="Group_450" data-name="Group 450">
            <g id="Group_435" data-name="Group 435">
              <g id="Group_434" data-name="Group 434">
                <path id="Path_126" data-name="Path 126" d="M185.184,361.2c-17.73,1.834-41.238,4.243-41.238,4.243l3.207,28.862s34.535-9.128,34.288-8.388,1.6,61.411,1.6,61.411h20.8l.391-68.708A17.271,17.271,0,0,0,185.184,361.2Z" fill="#263238"/>
              </g>
            </g>
            <g id="Group_437" data-name="Group 437">
              <g id="Group_436" data-name="Group 436">
                <path id="Path_127" data-name="Path 127" d="M101.516,372.838v8.95c0,6.093,6.939,12.553,13.032,12.553h4.711c3.712,0,9.528-2.7,12.525-4.892l1.8-1.317,21.655,67.089s24.78-4.441,24.78-5.223-16.781-54.949-24.528-80.091c-3.162-10.265-14.16-16.234-24.321-12.749q-.519.179-1.039.386C119.031,361.984,101.516,372.838,101.516,372.838Z" fill="#263238"/>
              </g>
            </g>
            <g id="Group_440" data-name="Group 440">
              <g id="Group_439" data-name="Group 439">
                <g id="Group_438" data-name="Group 438">
                  <path id="Path_128" data-name="Path 128" d="M180.02,450a1.047,1.047,0,0,1-.11-.238c-.072-.191-.162-.427-.273-.718-.236-.633-.578-1.569-.983-2.786-.832-2.425-1.969-5.957-3.353-10.327-2.764-8.742-6.466-20.853-10.5-34.245l-5.653-18.893c-.863-2.9-1.684-5.663-2.453-8.248q-.576-1.936-1.113-3.737a33.657,33.657,0,0,0-1.127-3.394,13.9,13.9,0,0,0-3.5-4.953,29.489,29.489,0,0,0-3.665-2.854c-1.06-.714-1.906-1.238-2.483-1.587l-.651-.406a1.01,1.01,0,0,1-.213-.154.959.959,0,0,1,.239.107l.678.362c.595.32,1.459.818,2.542,1.509a28.113,28.113,0,0,1,3.75,2.809,14.076,14.076,0,0,1,3.64,5.024,33.744,33.744,0,0,1,1.173,3.42q.549,1.8,1.142,3.729l2.5,8.235,5.693,18.881,10.352,34.286,3.194,10.373q.564,1.788.889,2.814c.091.3.165.54.224.735A.963.963,0,0,1,180.02,450Z" fill="#455a64"/>
                </g>
              </g>
            </g>
            <g id="Group_443" data-name="Group 443">
              <g id="Group_442" data-name="Group 442">
                <g id="Group_441" data-name="Group 441">
                  <path id="Path_129" data-name="Path 129" d="M185.247,377.257c.128.089-1.05,1.86-2.038,4.264-1,2.4-1.425,4.481-1.579,4.454a14.86,14.86,0,0,1,3.617-8.718Z" fill="#455a64"/>
                </g>
              </g>
            </g>
            <g id="Group_446" data-name="Group 446">
              <g id="Group_445" data-name="Group 445">
                <g id="Group_444" data-name="Group 444">
                  <path id="Path_130" data-name="Path 130" d="M189.22,380.047c.061.145-1.728.928-3.589,2.4-1.875,1.46-3.059,3.013-3.185,2.919a11.36,11.36,0,0,1,6.774-5.322Z" fill="#455a64"/>
                </g>
              </g>
            </g>
            <g id="Group_449" data-name="Group 449">
              <g id="Group_448" data-name="Group 448">
                <g id="Group_447" data-name="Group 447">
                  <path id="Path_131" data-name="Path 131" d="M155.473,455.221c-.137.044-5.987-17.91-13.066-40.1s-12.708-40.214-12.57-40.258,5.986,17.906,13.067,40.1S155.61,455.178,155.473,455.221Z" fill="#455a64"/>
                </g>
              </g>
            </g>
          </g>
          <g id="Group_479" data-name="Group 479">
            <path id="Path_132" data-name="Path 132" d="M116.474,265.628c-.678-1.6-2.129-4.282-2.48-5.978a8.826,8.826,0,0,1,.3-5.111,5.357,5.357,0,0,1,3.743-3.3,20.417,20.417,0,0,0,3.174-.4,9.391,9.391,0,0,0,2.843-2.341,9.017,9.017,0,0,1,5.185-2.364,5.373,5.373,0,0,1,2.973.429,3.016,3.016,0,0,1,1.708,2.358,14.338,14.338,0,0,1,3.632-.875,4.818,4.818,0,0,1,3.5,1.037,2.941,2.941,0,0,1,.81,3.388,2.391,2.391,0,0,1,3.078.867,3.081,3.081,0,0,1-.2,3.329,5.757,5.757,0,0,1-3.434,1.976,8.337,8.337,0,0,1-3.642-.1" fill="#263238"/>
            <g id="Group_478" data-name="Group 478">
              <g id="Group_477" data-name="Group 477">
                <g id="Group_470" data-name="Group 470">
                  <g id="Group_467" data-name="Group 467">
                    <g id="Group_466" data-name="Group 466">
                      <g id="Group_465" data-name="Group 465">
                        <g id="Group_451" data-name="Group 451">
                          <path id="Path_133" data-name="Path 133" d="M128.832,250.746a11.747,11.747,0,0,1,11.742,11.526c.113,5.825.152,12.038-.135,13.84-1.164,7.333-6.784,8.266-6.784,8.266s-.094,4.593-.108,8.956a8.031,8.031,0,0,1-8.074,7.693h0a7.6,7.6,0,0,1-8.041-7.25l-.344-31.157a11.745,11.745,0,0,1,11.744-11.874Z" fill="#b78876"/>
                        </g>
                        <g id="Group_455" data-name="Group 455">
                          <g id="Group_452" data-name="Group 452">
                            <path id="Path_134" data-name="Path 134" d="M139.025,265.4a.94.94,0,0,1-.907.949.9.9,0,0,1-.969-.848.939.939,0,0,1,.906-.949A.9.9,0,0,1,139.025,265.4Z" fill="#263238"/>
                          </g>
                          <g id="Group_454" data-name="Group 454">
                            <g id="Group_453" data-name="Group 453">
                              <path id="Path_135" data-name="Path 135" d="M139.23,264.709c-.116.123-.829-.405-1.841-.4-1.011-.012-1.753.509-1.863.385-.054-.055.065-.276.388-.512a2.587,2.587,0,0,1,1.492-.46,2.479,2.479,0,0,1,1.465.474C139.182,264.432,139.288,264.654,139.23,264.709Z" fill="#263238"/>
                            </g>
                          </g>
                        </g>
                        <g id="Group_459" data-name="Group 459">
                          <g id="Group_456" data-name="Group 456">
                            <path id="Path_136" data-name="Path 136" d="M128.9,265.577a.94.94,0,0,1-.907.949.9.9,0,0,1-.969-.848.941.941,0,0,1,.906-.949A.9.9,0,0,1,128.9,265.577Z" fill="#263238"/>
                          </g>
                          <g id="Group_458" data-name="Group 458">
                            <g id="Group_457" data-name="Group 457">
                              <path id="Path_137" data-name="Path 137" d="M129.283,264.9c-.117.122-.83-.4-1.841-.4s-1.754.509-1.864.385c-.054-.055.064-.276.389-.512a2.587,2.587,0,0,1,1.491-.46,2.489,2.489,0,0,1,1.466.473C129.234,264.621,129.34,264.843,129.283,264.9Z" fill="#263238"/>
                            </g>
                          </g>
                        </g>
                        <g id="Group_461" data-name="Group 461">
                          <g id="Group_460" data-name="Group 460">
                            <path id="Path_138" data-name="Path 138" d="M132.956,272.4a6.683,6.683,0,0,1,1.643-.3c.259-.027.5-.078.547-.254a1.31,1.31,0,0,0-.173-.766l-.764-1.968a33.816,33.816,0,0,1-1.716-5.147,33.891,33.891,0,0,1,2.126,5c.256.691.5,1.349.732,1.98a1.492,1.492,0,0,1,.134,1.014.644.644,0,0,1-.425.377,1.7,1.7,0,0,1-.438.061A6.591,6.591,0,0,1,132.956,272.4Z" fill="#263238"/>
                          </g>
                        </g>
                        <g id="Group_462" data-name="Group 462">
                          <path id="Path_139" data-name="Path 139" d="M133.655,284.378a18.654,18.654,0,0,1-9.821-2.62s2.383,5.038,9.722,4.351Z" fill="#aa6550"/>
                        </g>
                        <g id="Group_464" data-name="Group 464">
                          <g id="Group_463" data-name="Group 463">
                            <path id="Path_140" data-name="Path 140" d="M129.977,273.1c.165-.01.167,1.089,1.107,1.868s2.11.659,2.118.813c.016.069-.261.213-.755.227a2.744,2.744,0,0,1-1.768-.616,2.385,2.385,0,0,1-.857-1.567C129.78,273.369,129.9,273.1,129.977,273.1Z" fill="#263238"/>
                          </g>
                        </g>
                      </g>
                    </g>
                  </g>
                  <g id="Group_468" data-name="Group 468">
                    <path id="Path_141" data-name="Path 141" d="M129.544,260.932c-.1.275-1.11.145-2.3.288-1.191.119-2.148.467-2.305.22-.071-.118.1-.377.483-.643a4.019,4.019,0,0,1,3.507-.387C129.368,260.585,129.587,260.8,129.544,260.932Z" fill="#263238"/>
                  </g>
                  <g id="Group_469" data-name="Group 469">
                    <path id="Path_142" data-name="Path 142" d="M138.858,261.78c-.178.23-.875-.009-1.713-.02-.838-.04-1.548.155-1.712-.086-.071-.116.04-.347.351-.564a2.479,2.479,0,0,1,2.759.085C138.84,261.431,138.937,261.668,138.858,261.78Z" fill="#263238"/>
                  </g>
                </g>
                <g id="Group_476" data-name="Group 476">
                  <g id="Group_472" data-name="Group 472">
                    <g id="Group_471" data-name="Group 471">
                      <path id="Path_143" data-name="Path 143" d="M118.023,265.192c-.105-.05-4.239-1.451-4.283,2.826s4.259,3.439,4.267,3.317S118.023,265.192,118.023,265.192Z" fill="#b78876"/>
                    </g>
                  </g>
                  <g id="Group_475" data-name="Group 475">
                    <g id="Group_474" data-name="Group 474">
                      <g id="Group_473" data-name="Group 473">
                        <path id="Path_144" data-name="Path 144" d="M116.717,269.7c-.018-.014-.075.051-.2.108a.749.749,0,0,1-.557.005,1.843,1.843,0,0,1-.836-1.663,2.457,2.457,0,0,1,.219-1.064.86.86,0,0,1,.567-.566.379.379,0,0,1,.437.208c.056.121.028.206.051.213s.092-.07.06-.247a.476.476,0,0,0-.166-.27.557.557,0,0,0-.411-.113,1.044,1.044,0,0,0-.785.655,2.526,2.526,0,0,0-.27,1.189,1.936,1.936,0,0,0,1.067,1.859.8.8,0,0,0,.683-.107C116.709,269.8,116.732,269.709,116.717,269.7Z" fill="#aa6550"/>
                      </g>
                    </g>
                  </g>
                </g>
              </g>
            </g>
            <path id="Path_145" data-name="Path 145" d="M141.21,257.228a15.546,15.546,0,0,1-9.66-.491c-3.43-1.3-7.317-1.712-8.091-.97s-.61,4.124-3.746,5.433c0,0,.871,6.4-1.712,6.428s-1.987-10.076-1.987-10.076l5.235-5.119,6.709-2.34,7.115,1.14,6.137,1.228Z" fill="#263238"/>
          </g>
        </g>
        <g id="Group_482" data-name="Group 482">
          <g id="Group_481" data-name="Group 481">
            <path id="Path_146" data-name="Path 146" d="M128.9,350.561l70.885.682L213,313.881l-51.559.349-11.966,33.6-20.579.308Z" fill="#e0e0e0"/>
          </g>
          <circle id="Ellipse_3" data-name="Ellipse 3" cx="2.871" cy="2.871" r="2.871" transform="matrix(0.299, -0.954, 0.954, 0.299, 179.444, 334.82)" fill="#fff"/>
        </g>
        <path id="Path_147" data-name="Path 147" d="M53.252,350.786v4.094H70.269V456.794h3.4V354.88H227.844V456.794h3.33V354.88h18.4v-4.094Z" fill="#263238"/>
      </g>
    </g>
    <g id="Plant">
      <g id="Group_491" data-name="Group 491">
        <g id="Group_487" data-name="Group 487">
          <path id="Path_148" data-name="Path 148" d="M652.916,374.7c4.366-2.253,9.507-2.546,14.354-1.744,2.6.43,5.319,1.209,7.091,3.165s2.108,5.4.073,7.08a6.8,6.8,0,0,1-4.471,1.134c-3.794-.044-8-.713-11.036,1.571-1.729,1.3-2.881,3.468-4.949,4.108a4.887,4.887,0,0,1-5.378-2.393,8.355,8.355,0,0,1-.609-6.166A9.415,9.415,0,0,1,652.916,374.7Z" fill="#e8505b"/>
          <path id="Path_149" data-name="Path 149" d="M642.913,355.387c2.67,3.813,7.859,2.551,10.265.223s3.422-5.7,4.348-8.917c2.115-7.35,4.247-15.06,2.675-22.545a12.529,12.529,0,0,0-2.88-6.129,6.543,6.543,0,0,0-6.2-2.064c-2.617.691-4.243,3.254-5.418,5.691a53.735,53.735,0,0,0-5.311,23.063c-.013,3.715.425,7.611,2.521,10.678" fill="#e8505b"/>
          <path id="Path_150" data-name="Path 150" d="M635.581,360.858c2.9-3.44,3.449-8.458,2.159-12.767s-4.2-7.977-7.562-10.97a40.687,40.687,0,0,0-13.542-7.99,14.43,14.43,0,0,0-6.09-1.035,6.393,6.393,0,0,0-5.111,3.092c-1.425,2.718-.058,6.015,1.42,8.705a103.105,103.105,0,0,0,8.894,13.544c2.666,3.437,5.72,6.828,9.783,8.381s8.283,1.37,10.437-1.447" fill="#e8505b"/>
          <g id="Group_484" data-name="Group 484">
            <path id="Path_151" data-name="Path 151" d="M642.732,412.907a8.338,8.338,0,0,0,.242-1.733c.123-1.261.277-2.844.46-4.728a68.121,68.121,0,0,1,1.064-6.936,53.469,53.469,0,0,1,2.521-8.186,30.177,30.177,0,0,1,4.18-7.407,15.619,15.619,0,0,1,5.284-4.394,14.822,14.822,0,0,1,4.451-1.386,8.311,8.311,0,0,0,1.725-.249,8.09,8.09,0,0,0-1.755-.027,13.489,13.489,0,0,0-4.641,1.207,15.6,15.6,0,0,0-5.575,4.432,29.49,29.49,0,0,0-4.333,7.556,50.081,50.081,0,0,0-2.5,8.32,58.544,58.544,0,0,0-.922,7.023c-.15,2.009-.207,3.634-.234,4.758A8.222,8.222,0,0,0,642.732,412.907Z" fill="#263238"/>
          </g>
          <g id="Group_485" data-name="Group 485">
            <path id="Path_152" data-name="Path 152" d="M643.058,409.269a3.425,3.425,0,0,0,.047-.805c0-.6,0-1.365-.006-2.3-.006-1.995-.005-4.882.1-8.448.176-7.13.79-14.805,1.976-25.625,1.123-10.174,2.631-22.014,4.221-29.712.341-1.75.685-3.326,1.008-4.705s.572-2.575.826-3.54l.537-2.235a.4.4,0,1,0-.138-.039c-.176.579-.4,1.308-.668,2.2-.3.956-.6,2.14-.946,3.517s-.74,2.946-1.113,4.694a260.762,260.762,0,0,0-4.438,27.57c-1.188,10.842-1.723,20.714-1.771,27.863-.042,3.574.034,6.468.125,8.464.057.934.1,1.694.141,2.3A3.408,3.408,0,0,0,643.058,409.269Z" fill="#263238"/>
          </g>
          <g id="Group_486" data-name="Group 486">
            <path id="Path_153" data-name="Path 153" d="M643.106,390.228a15.391,15.391,0,0,0-.017-2.4c-.088-1.543-.3-3.774-.735-6.506a85.736,85.736,0,0,0-2.117-9.48,77.572,77.572,0,0,0-3.964-11.218,59.744,59.744,0,0,0-11.642-18.128,29.529,29.529,0,0,0-2.739-2.545c-.42-.356-.791-.71-1.17-.991l-1.062-.732a15.351,15.351,0,0,0-2.022-1.3c-.115.156,2.865,1.91,6.628,5.913a62.973,62.973,0,0,1,11.351,18.062A88.715,88.715,0,0,1,639.6,372.02a96.267,96.267,0,0,1,2.252,9.386c.5,2.7.783,4.913.956,6.443A15.463,15.463,0,0,0,643.106,390.228Z" fill="#263238"/>
          </g>
        </g>
        <path id="Path_154" data-name="Path 154" d="M624.7,423.816l1.908,26.139h33.58l1.908-26.139Z" fill="#263238"/>
        <rect id="Rectangle_28" data-name="Rectangle 28" width="44.646" height="10.303" transform="translate(621.458 413.513)" fill="#263238"/>
        <path id="Path_155" data-name="Path 155" d="M621.458,448.954v2.856h43.908v-2.856Z" fill="#455a64"/>
        <path id="Path_156" data-name="Path 156" d="M625.613,456.836l-2.056-5.026h40.211l-2.4,5.026Z" fill="#455a64"/>
        <g id="Group_488" data-name="Group 488">
          <path id="Path_157" data-name="Path 157" d="M661.474,432.358a1.079,1.079,0,0,1-.156.24l-.5.666-1.956,2.5-.087.112-.085-.117c-1.229-1.7-2.872-3.972-4.8-6.647h.276c-1.429,2.025-3.022,4.279-4.731,6.7l-.149.21-.166-.2-5.611-6.676.323,0-.309.388-5.017,6.29-.167.21-.155-.218c-1.7-2.411-3.295-4.662-4.734-6.7l.276.013-5.831,6.642-.1.118-.079-.133c-.769-1.291-1.381-2.32-1.825-3.067l-.469-.816a1.322,1.322,0,0,1-.143-.291,1.274,1.274,0,0,1,.2.258l.518.786,1.916,3.011-.182-.014,5.736-6.724.145-.169.131.182,4.776,6.668-.321-.009,5.005-6.3.309-.388.16-.2.164.2,5.6,6.689-.314.013c1.726-2.409,3.335-4.652,4.778-6.667l.14-.2.137.2,4.7,6.72-.17-.006,2.035-2.439.544-.631C661.4,432.422,661.466,432.352,661.474,432.358Z" fill="#e0e0e0"/>
        </g>
        <g id="Group_489" data-name="Group 489">
          <path id="Path_158" data-name="Path 158" d="M662.565,423.643c0,.115-8.414.209-18.791.209s-18.792-.094-18.792-.209,8.412-.209,18.792-.209S662.565,423.528,662.565,423.643Z" fill="#455a64"/>
        </g>
        <g id="Group_490" data-name="Group 490">
          <path id="Path_159" data-name="Path 159" d="M664.261,452.092c0,.115-9.144.209-20.422.209s-20.423-.094-20.423-.209,9.142-.21,20.423-.21S664.261,451.976,664.261,452.092Z" fill="#263238"/>
        </g>
      </g>
    </g>
  </g>
</svg>
