<svg xmlns="http://www.w3.org/2000/svg" width="400" height="356.076" viewBox="0 0 400 356.076">
  <g id="design-product" transform="translate(-37.867 -56.761)">
    <g id="Floor" transform="translate(38.367 349.388)" opacity="0.5">
      <line id="Line_1" data-name="Line 1" x2="399" fill="none" stroke="#fc6679" stroke-linecap="round" stroke-linejoin="round" stroke-width="1"/>
    </g>
    <g id="Background_Complete" data-name="Background Complete" transform="translate(64.237 109.439)">
      <g id="Group_3" data-name="Group 3" transform="translate(173.015 44.877)">
        <path id="Path_1" data-name="Path 1" d="M249.348,355.321H444.184V160.206Zm159-35.665h-70.94l71.041-71.041Z" transform="translate(-249.348 -160.206)" fill="#dbdbdb"/>
        <path id="Path_2" data-name="Path 2" d="M438.182,166.223l-.865.865L249.35,355.324H444.181V160.21ZM408.353,319.662H337.417l71.041-71.041Z" transform="translate(-249.348 -160.206)" fill="#ebebeb"/>
        <g id="Group_2" data-name="Group 2" transform="translate(188.135 8.241)">
          <rect id="Rectangle_1" data-name="Rectangle 1" width="6.697" height="0.932" fill="#c7c7c7"/>
          <rect id="Rectangle_2" data-name="Rectangle 2" width="3.946" height="0.932" transform="translate(2.752 4.339)" fill="#c7c7c7"/>
          <rect id="Rectangle_3" data-name="Rectangle 3" width="3.946" height="0.932" transform="translate(2.752 8.663)" fill="#c7c7c7"/>
          <rect id="Rectangle_4" data-name="Rectangle 4" width="3.946" height="0.932" transform="translate(2.752 13.001)" fill="#c7c7c7"/>
          <rect id="Rectangle_5" data-name="Rectangle 5" width="3.946" height="0.932" transform="translate(2.752 17.34)" fill="#c7c7c7"/>
          <rect id="Rectangle_6" data-name="Rectangle 6" width="3.946" height="0.946" transform="translate(2.752 21.664)" fill="#c7c7c7"/>
          <rect id="Rectangle_7" data-name="Rectangle 7" width="3.946" height="0.932" transform="translate(2.752 26.003)" fill="#c7c7c7"/>
          <rect id="Rectangle_8" data-name="Rectangle 8" width="6.697" height="0.932" transform="translate(0 30.341)" fill="#c7c7c7"/>
          <rect id="Rectangle_9" data-name="Rectangle 9" width="3.946" height="0.932" transform="translate(2.752 34.68)" fill="#c7c7c7"/>
          <rect id="Rectangle_10" data-name="Rectangle 10" width="3.946" height="0.932" transform="translate(2.752 39.004)" fill="#c7c7c7"/>
          <rect id="Rectangle_11" data-name="Rectangle 11" width="3.946" height="0.932" transform="translate(2.752 43.343)" fill="#c7c7c7"/>
          <rect id="Rectangle_12" data-name="Rectangle 12" width="3.946" height="0.932" transform="translate(2.752 47.681)" fill="#c7c7c7"/>
          <rect id="Rectangle_13" data-name="Rectangle 13" width="3.946" height="0.932" transform="translate(2.752 52.005)" fill="#c7c7c7"/>
          <rect id="Rectangle_14" data-name="Rectangle 14" width="3.946" height="0.932" transform="translate(2.752 56.344)" fill="#c7c7c7"/>
          <rect id="Rectangle_15" data-name="Rectangle 15" width="6.697" height="0.932" transform="translate(0 60.682)" fill="#c7c7c7"/>
          <rect id="Rectangle_16" data-name="Rectangle 16" width="3.946" height="0.932" transform="translate(2.752 65.007)" fill="#c7c7c7"/>
          <rect id="Rectangle_17" data-name="Rectangle 17" width="3.946" height="0.932" transform="translate(2.752 69.345)" fill="#c7c7c7"/>
          <rect id="Rectangle_18" data-name="Rectangle 18" width="3.946" height="0.932" transform="translate(2.752 73.684)" fill="#c7c7c7"/>
          <rect id="Rectangle_19" data-name="Rectangle 19" width="3.946" height="0.946" transform="translate(2.752 78.008)" fill="#c7c7c7"/>
          <rect id="Rectangle_20" data-name="Rectangle 20" width="3.946" height="0.932" transform="translate(2.752 82.347)" fill="#c7c7c7"/>
          <rect id="Rectangle_21" data-name="Rectangle 21" width="3.946" height="0.932" transform="translate(2.752 86.685)" fill="#c7c7c7"/>
          <rect id="Rectangle_22" data-name="Rectangle 22" width="6.697" height="0.932" transform="translate(0 91.024)" fill="#c7c7c7"/>
          <rect id="Rectangle_23" data-name="Rectangle 23" width="3.946" height="0.932" transform="translate(2.752 95.348)" fill="#c7c7c7"/>
          <rect id="Rectangle_24" data-name="Rectangle 24" width="3.946" height="0.932" transform="translate(2.752 99.687)" fill="#c7c7c7"/>
          <rect id="Rectangle_25" data-name="Rectangle 25" width="3.946" height="0.932" transform="translate(2.752 104.025)" fill="#c7c7c7"/>
          <rect id="Rectangle_26" data-name="Rectangle 26" width="3.946" height="0.932" transform="translate(2.752 108.349)" fill="#c7c7c7"/>
          <rect id="Rectangle_27" data-name="Rectangle 27" width="3.946" height="0.932" transform="translate(2.752 112.688)" fill="#c7c7c7"/>
          <rect id="Rectangle_28" data-name="Rectangle 28" width="3.946" height="0.932" transform="translate(2.752 117.027)" fill="#c7c7c7"/>
          <rect id="Rectangle_29" data-name="Rectangle 29" width="6.697" height="0.946" transform="translate(0 121.351)" fill="#c7c7c7"/>
          <rect id="Rectangle_30" data-name="Rectangle 30" width="3.946" height="0.932" transform="translate(2.752 125.689)" fill="#c7c7c7"/>
          <rect id="Rectangle_31" data-name="Rectangle 31" width="3.946" height="0.932" transform="translate(2.752 130.028)" fill="#c7c7c7"/>
          <rect id="Rectangle_32" data-name="Rectangle 32" width="3.946" height="0.932" transform="translate(2.752 134.366)" fill="#c7c7c7"/>
          <rect id="Rectangle_33" data-name="Rectangle 33" width="3.946" height="0.932" transform="translate(2.752 138.691)" fill="#c7c7c7"/>
          <rect id="Rectangle_34" data-name="Rectangle 34" width="3.946" height="0.932" transform="translate(2.752 143.029)" fill="#c7c7c7"/>
          <rect id="Rectangle_35" data-name="Rectangle 35" width="3.946" height="0.932" transform="translate(2.752 147.368)" fill="#c7c7c7"/>
          <rect id="Rectangle_36" data-name="Rectangle 36" width="6.697" height="0.932" transform="translate(0 151.692)" fill="#c7c7c7"/>
          <rect id="Rectangle_37" data-name="Rectangle 37" width="3.946" height="0.932" transform="translate(2.752 156.031)" fill="#c7c7c7"/>
          <rect id="Rectangle_38" data-name="Rectangle 38" width="3.946" height="0.932" transform="translate(2.752 160.369)" fill="#c7c7c7"/>
          <rect id="Rectangle_39" data-name="Rectangle 39" width="3.946" height="0.932" transform="translate(2.752 164.693)" fill="#c7c7c7"/>
          <rect id="Rectangle_40" data-name="Rectangle 40" width="3.946" height="0.932" transform="translate(2.752 169.032)" fill="#c7c7c7"/>
          <rect id="Rectangle_41" data-name="Rectangle 41" width="3.946" height="0.932" transform="translate(2.752 173.371)" fill="#c7c7c7"/>
          <rect id="Rectangle_42" data-name="Rectangle 42" width="3.946" height="0.946" transform="translate(2.752 177.695)" fill="#c7c7c7"/>
        </g>
      </g>
      <g id="Group_8" data-name="Group 8">
        <path id="Path_3" data-name="Path 3" d="M432,203.5l5.189-8.365-2.562-1.587a2.339,2.339,0,0,1-1.087-2.2,13.647,13.647,0,0,0,.047-1.471,2.337,2.337,0,0,1,1.221-2.124l2.656-1.424-4.655-8.678-2.656,1.424a2.339,2.339,0,0,1-2.444-.157,13.738,13.738,0,0,0-1.252-.776,2.338,2.338,0,0,1-1.233-2.123l.1-3.012-9.84-.306-.091,3.023a2.342,2.342,0,0,1-1.372,2.037q-.327.154-.648.326c-.214.115-.423.234-.63.358a2.333,2.333,0,0,1-2.444.019l-2.58-1.6-5.189,8.365,2.567,1.593a2.339,2.339,0,0,1,1.084,2.2,13.563,13.563,0,0,0-.048,1.466,2.337,2.337,0,0,1-1.222,2.121l-2.656,1.424,4.654,8.678,2.656-1.424a2.341,2.341,0,0,1,2.443.156,13.509,13.509,0,0,0,1.248.771,2.339,2.339,0,0,1,1.235,2.122l-.092,3.019,9.84.306.093-3.021a2.338,2.338,0,0,1,1.369-2.03c.219-.1.436-.213.652-.329s.423-.234.63-.358a2.343,2.343,0,0,1,2.457-.017Zm-8.331-6.213a8.056,8.056,0,1,1,3.913-4.774,8.064,8.064,0,0,1-3.913,4.774Z" transform="translate(-85.099 -116.046)" fill="#dbdbdb"/>
        <path id="Path_4" data-name="Path 4" d="M157.32,121.66l-3.446-5.974-1.828,1.057a1.639,1.639,0,0,1-1.718-.058,9.434,9.434,0,0,0-.894-.516,1.639,1.639,0,0,1-.907-1.457V112.6h-6.9v2.112a1.639,1.639,0,0,1-.907,1.457,9.313,9.313,0,0,0-.894.516,1.639,1.639,0,0,1-1.718.058l-1.829-1.057-3.446,5.974,1.836,1.058a1.641,1.641,0,0,1,.8,1.521c-.008.168-.013.337-.013.507s0,.339.013.508a1.636,1.636,0,0,1-.8,1.515l-1.841,1.063,3.446,5.974,1.833-1.057a1.638,1.638,0,0,1,1.719.059,9.684,9.684,0,0,0,.889.516,1.638,1.638,0,0,1,.906,1.456v2.112h6.9V134.78a1.639,1.639,0,0,1,.9-1.456,9.44,9.44,0,0,0,.889-.516,1.64,1.64,0,0,1,1.72-.059l1.833,1.057,3.446-5.974-1.833-1.058a1.636,1.636,0,0,1-.8-1.517c.008-.17.012-.34.012-.512s0-.339-.012-.507a1.641,1.641,0,0,1,.8-1.522Zm-6.593,3.086a5.645,5.645,0,1,1-1.652-4,5.649,5.649,0,0,1,1.652,4Z" transform="translate(-69.653 -112.6)" fill="#dbdbdb"/>
        <g id="Group_5" data-name="Group 5" transform="translate(0 124.826)">
          <g id="Group_4" data-name="Group 4">
            <path id="Path_5" data-name="Path 5" d="M99.446,251.593A26.858,26.858,0,1,0,126.3,278.45a26.859,26.859,0,0,0-26.854-26.857Zm0,39.4a12.543,12.543,0,1,1,12.546-12.543,12.542,12.542,0,0,1-12.546,12.543Z" transform="translate(-66.199 -245.395)" fill="#ebebeb"/>
            <path id="Path_6" data-name="Path 6" d="M105.93,252.329H95.6l.571-7.311h9.187Z" transform="translate(-67.518 -245.018)" fill="#ebebeb"/>
            <path id="Path_7" data-name="Path 7" d="M84.969,256.176l-7.3,7.3-4.769-5.57,6.5-6.5Z" transform="translate(-66.217 -245.384)" fill="#ebebeb"/>
            <path id="Path_8" data-name="Path 8" d="M73.122,273.823v10.329l-7.312-.571v-9.187Z" transform="translate(-65.81 -246.669)" fill="#ebebeb"/>
            <path id="Path_9" data-name="Path 9" d="M76.968,294.678l7.3,7.3L78.7,306.747l-6.5-6.5Z" transform="translate(-66.177 -247.865)" fill="#ebebeb"/>
            <path id="Path_10" data-name="Path 10" d="M94.615,306.814h10.329l-.571,7.311H95.186Z" transform="translate(-67.462 -248.561)" fill="#ebebeb"/>
            <path id="Path_11" data-name="Path 11" d="M115.47,302.678l7.3-7.3,4.766,5.574-6.5,6.5Z" transform="translate(-68.657 -247.905)" fill="#ebebeb"/>
            <path id="Path_12" data-name="Path 12" d="M127.607,285.137V274.808l7.311.571v9.187Z" transform="translate(-69.353 -246.726)" fill="#ebebeb"/>
            <path id="Path_13" data-name="Path 13" d="M123.471,264.176l-7.3-7.3,5.574-4.766,6.5,6.5Z" transform="translate(-68.697 -245.424)" fill="#ebebeb"/>
          </g>
        </g>
      </g>
    </g>
    <g id="Light_Bulb" data-name="Light Bulb" transform="translate(87.896 57.468)">
      <g id="Group_20" data-name="Group 20">
        <g id="Group_15" data-name="Group 15" transform="translate(102.401 250.466)">
          <path id="Path_26" data-name="Path 26" d="M283.03,338v12.075h11.647V364.9H283.03v12.084h5.906V391.8h-8.542a28.738,28.738,0,0,1-26.086,16.471h-14.4A28.737,28.737,0,0,1,213.822,391.8H205.28v-14.82h5.906V364.9H199.537V350.07h11.647V338H199.537V323.17h95.14V338Z" transform="translate(-199.537 -323.167)" fill="none" stroke="#e8ac00" stroke-miterlimit="10" stroke-width="1"/>
        </g>
        <circle id="Ellipse_2" data-name="Ellipse 2" cx="106.045" cy="106.045" r="106.045" transform="translate(0 149.971) rotate(-45)" fill="#fff" stroke="#fc6679" stroke-miterlimit="10" stroke-width="1"/>
        <path id="Path_27" data-name="Path 27" d="M352.708,211.257A105.985,105.985,0,0,1,299.174,303.4c-7.852-2.526-13.7-8.437-19.551-14.347-4.214-4.261,6.061-6-.17-8.258,6.061-6,14.065-18.137,3.78-16.393-6.231-2.262-10.105,10-18.439,5.618-8.352-4.393-10.633-14.781-18.967-19.164-2.027,2-6.071,6-8.088,8-6.24-2.272-10.633-14.781-12.651-12.783-10.275,1.735-16.252,11.868-24.33,19.862-4.223-4.251-10.454-6.5-8.522-12.641,38.046-42.477,75.385-87,114.8-129.24A105.929,105.929,0,0,1,352.708,211.257Z" transform="translate(-96.697 -61.286)" fill="#fc6679"/>
        <g id="Group_16" data-name="Group 16" transform="translate(110.938 159.088)">
          <path id="Path_28" data-name="Path 28" d="M239.35,331.891V263.6c2.16.038,7.268.056,9.678.056h.723c2.41,0,7.519-.018,9.678-.056v68.292" transform="translate(-210.357 -228.374)" fill="none" stroke="#263238" stroke-miterlimit="10" stroke-width="2"/>
          <path id="Path_29" data-name="Path 29" d="M260.648,261.458V240.342c0-18.052,22.5-19.56,27.743,0C293.161,258.121,284.394,261.071,260.648,261.458Z" transform="translate(-211.578 -226.231)" fill="none" stroke="#263238" stroke-miterlimit="10" stroke-width="2"/>
          <path id="Path_30" data-name="Path 30" d="M237.585,240.342v21.116c-23.736-.387-32.5-3.337-27.743-21.116C215.093,220.781,237.585,222.29,237.585,240.342Z" transform="translate(-208.593 -226.231)" fill="none" stroke="#263238" stroke-miterlimit="10" stroke-width="2"/>
        </g>
        <rect id="Rectangle_45" data-name="Rectangle 45" width="44.471" height="23.274" rx="9.419" transform="translate(127.735 234.713)" fill="#a6a6a6"/>
        <g id="Group_17" data-name="Group 17" transform="translate(40.513 41.456)">
          <path id="Path_31" data-name="Path 31" d="M167.358,134.9c41.413-41.413,110.557-42.081,151.97-.666s41.413,111.223,0,152.637-110.557,40.747-151.97-.666S125.945,176.311,167.358,134.9Z" transform="translate(-134.023 -101.563)" fill="none" stroke="#263238" stroke-miterlimit="10" stroke-width="1"/>
          <path id="Path_32" data-name="Path 32" d="M350.424,211c0-58.567-48.421-107.931-106.988-107.931S135.5,152.428,135.5,211s49.364,106.988,107.931,106.988S350.424,269.563,350.424,211Z" transform="translate(-133.978 -101.538)" fill="none" stroke="#fc6679" stroke-miterlimit="10" stroke-width="1"/>
          <path id="Path_33" data-name="Path 33" d="M242.394,319.417c59.4,0,109.464-49.108,109.464-108.508S301.793,101.445,242.394,101.445,133.885,151.51,133.885,210.909,182.994,319.417,242.394,319.417Z" transform="translate(-133.885 -101.445)" fill="none" stroke="#fc6679" stroke-miterlimit="10" stroke-width="1"/>
        </g>
        <g id="Group_18" data-name="Group 18" transform="translate(103.88 251.127)">
          <path id="Rectangle_46" data-name="Rectangle 46" d="M0,0H69.611V54.068A29.519,29.519,0,0,1,40.092,83.587H29.519A29.519,29.519,0,0,1,0,54.068Z" transform="translate(11.285)" fill="#ffe9ab"/>
          <rect id="Rectangle_47" data-name="Rectangle 47" width="92.182" height="14.563" fill="#ffc727"/>
          <rect id="Rectangle_48" data-name="Rectangle 48" width="92.182" height="14.563" transform="translate(0 26.427)" fill="#ffc727"/>
          <rect id="Rectangle_49" data-name="Rectangle 49" width="81.051" height="14.563" transform="translate(5.565 52.853)" fill="#ffc727"/>
        </g>
        <g id="Group_19" data-name="Group 19" transform="translate(186.476 64.966)">
          <path id="Path_34" data-name="Path 34" d="M288.726,126.385s51.57,29.538,51.57,82.509" transform="translate(-288.726 -126.385)" fill="none" stroke="#fff" stroke-linecap="round" stroke-linejoin="round" stroke-width="10"/>
          <circle id="Ellipse_3" data-name="Ellipse 3" cx="5.629" cy="5.629" r="5.629" transform="translate(44.793 99.673)" fill="#fff"/>
        </g>
      </g>
    </g>
    <g id="Measures" transform="translate(131.821 77.209)">
      <g id="Group_21" data-name="Group 21" opacity="0.5">
        <line id="Line_4" data-name="Line 4" x2="92.182" transform="translate(59.955 322.524)" fill="none" stroke="#fc6679" stroke-miterlimit="10" stroke-width="1"/>
        <line id="Line_5" data-name="Line 5" x2="212.091" transform="translate(0 10.185)" fill="none" stroke="#fc6679" stroke-miterlimit="10" stroke-width="1"/>
        <line id="Line_6" data-name="Line 6" y1="83.587" transform="translate(38.683 231.386)" fill="none" stroke="#fc6679" stroke-miterlimit="10" stroke-width="1"/>
        <line id="Line_7" data-name="Line 7" y1="290.789" transform="translate(218.068 24.185)" fill="none" stroke="#fc6679" stroke-miterlimit="10" stroke-width="1"/>
        <line id="Line_8" data-name="Line 8" x1="58.717" transform="translate(21.546 231.386)" fill="none" stroke="#fc6679" stroke-miterlimit="10" stroke-width="1"/>
        <line id="Line_9" data-name="Line 9" x1="76.817" transform="translate(21.546 314.973)" fill="none" stroke="#fc6679" stroke-miterlimit="10" stroke-width="1"/>
        <line id="Line_10" data-name="Line 10" y2="104.242" transform="translate(59.955 231.386)" fill="none" stroke="#fc6679" stroke-miterlimit="10" stroke-width="1"/>
        <line id="Line_11" data-name="Line 11" y2="104.242" transform="translate(152.136 231.386)" fill="none" stroke="#fc6679" stroke-miterlimit="10" stroke-width="1"/>
        <line id="Line_12" data-name="Line 12" x2="126.035" transform="translate(110.785 314.973)" fill="none" stroke="#fc6679" stroke-miterlimit="10" stroke-width="1"/>
        <line id="Line_13" data-name="Line 13" x2="126.035" transform="translate(110.785 24.185)" fill="none" stroke="#fc6679" stroke-miterlimit="10" stroke-width="1"/>
        <line id="Line_14" data-name="Line 14" y1="314.973" fill="none" stroke="#fc6679" stroke-miterlimit="10" stroke-width="1"/>
        <line id="Line_15" data-name="Line 15" y1="314.973" transform="translate(212.091)" fill="none" stroke="#fc6679" stroke-miterlimit="10" stroke-width="1"/>
      </g>
    </g>
  </g>
</svg>
