<svg xmlns="http://www.w3.org/2000/svg" xmlns:xlink="http://www.w3.org/1999/xlink" width="535.712" height="384.928" viewBox="0 0 535.712 384.928">
  <defs>
    <filter id="Rectangle_48" x="347.24" y="192.57" width="167.309" height="167.309" filterUnits="userSpaceOnUse">
      <feOffset dx="7" dy="7" input="SourceAlpha"/>
      <feGaussianBlur result="blur"/>
      <feFlood flood-color="#f99aaa" flood-opacity="0.451"/>
      <feComposite operator="in" in2="blur"/>
      <feComposite in="SourceGraphic"/>
    </filter>
    <filter id="Rectangle_60" x="416.31" y="64.36" width="119.402" height="119.402" filterUnits="userSpaceOnUse">
      <feOffset dx="7" dy="7" input="SourceAlpha"/>
      <feGaussianBlur result="blur-2"/>
      <feFlood flood-color="#f99aaa" flood-opacity="0.451"/>
      <feComposite operator="in" in2="blur-2"/>
      <feComposite in="SourceGraphic"/>
    </filter>
    <filter id="Rectangle_61" x="104.17" y="296.47" width="134.489" height="76.786" filterUnits="userSpaceOnUse">
      <feOffset dx="7" dy="7" input="SourceAlpha"/>
      <feGaussianBlur result="blur-3"/>
      <feFlood flood-color="#f99aaa" flood-opacity="0.451"/>
      <feComposite operator="in" in2="blur-3"/>
      <feComposite in="SourceGraphic"/>
    </filter>
    <filter id="Rectangle_63" x="250.75" y="329.99" width="81.945" height="54.938" filterUnits="userSpaceOnUse">
      <feOffset dx="7" dy="7" input="SourceAlpha"/>
      <feGaussianBlur result="blur-4"/>
      <feFlood flood-color="#f99aaa" flood-opacity="0.451"/>
      <feComposite operator="in" in2="blur-4"/>
      <feComposite in="SourceGraphic"/>
    </filter>
    <filter id="Rectangle_64" x="0" y="205.58" width="78.108" height="120.244" filterUnits="userSpaceOnUse">
      <feOffset dx="7" dy="7" input="SourceAlpha"/>
      <feGaussianBlur result="blur-5"/>
      <feFlood flood-color="#f99aaa"/>
      <feComposite operator="in" in2="blur-5"/>
      <feComposite in="SourceGraphic"/>
    </filter>
    <filter id="Rectangle_65" x="0" y="83.89" width="78.108" height="103.473" filterUnits="userSpaceOnUse">
      <feOffset dx="7" dy="7" input="SourceAlpha"/>
      <feGaussianBlur result="blur-6"/>
      <feFlood flood-color="#f99aaa"/>
      <feComposite operator="in" in2="blur-6"/>
      <feComposite in="SourceGraphic"/>
    </filter>
    <filter id="Rectangle_66" x="109.32" y="52.61" width="81.945" height="54.938" filterUnits="userSpaceOnUse">
      <feOffset dx="7" dy="7" input="SourceAlpha"/>
      <feGaussianBlur result="blur-7"/>
      <feFlood flood-color="#f99aaa"/>
      <feComposite operator="in" in2="blur-7"/>
      <feComposite in="SourceGraphic"/>
    </filter>
    <filter id="Rectangle_67" x="201.33" y="65.48" width="169.702" height="27.785" filterUnits="userSpaceOnUse">
      <feOffset dx="5.585" dy="5.585" input="SourceAlpha"/>
      <feGaussianBlur result="blur-8"/>
      <feFlood flood-color="#f99aaa" flood-opacity="0.451"/>
      <feComposite operator="in" in2="blur-8"/>
      <feComposite in="SourceGraphic"/>
    </filter>
    <filter id="Rectangle_69" x="201.33" y="36.66" width="169.702" height="27.785" filterUnits="userSpaceOnUse">
      <feOffset dx="5.585" dy="5.585" input="SourceAlpha"/>
      <feGaussianBlur result="blur-9"/>
      <feFlood flood-color="#f99aaa" flood-opacity="0.451"/>
      <feComposite operator="in" in2="blur-9"/>
      <feComposite in="SourceGraphic"/>
    </filter>
    <filter id="Rectangle_71" x="201.33" y="94.3" width="169.702" height="27.785" filterUnits="userSpaceOnUse">
      <feOffset dx="5.585" dy="5.585" input="SourceAlpha"/>
      <feGaussianBlur result="blur-10"/>
      <feFlood flood-color="#f99aaa" flood-opacity="0.451"/>
      <feComposite operator="in" in2="blur-10"/>
      <feComposite in="SourceGraphic"/>
    </filter>
  </defs>
  <g id="developer-product" transform="translate(-129.12 -70.52)">
    <g id="Group_97" data-name="Group 97">
      <g id="Group_10" data-name="Group 10">
        <g id="Group_4" data-name="Group 4">
          <path id="Path_10" data-name="Path 10" d="M520.535,131.992c-1.28-12.521,4.712-29.832,13.506-28.275s-2.183,15.152,5.113,29.217Z" fill="#f9cad2"/>
          <g id="Group_3" data-name="Group 3">
            <path id="Path_11" data-name="Path 11" d="M522.962,139.627s14.214-14.055,21.6-39.111,40.088-25.846,46.153,5.8S568.3,182.4,568.3,182.4Z" fill="#fc6679"/>
            <path id="Path_12" data-name="Path 12" d="M570.209,107.927s1.842,30.1-24.991,52.7" fill="none" stroke="#011635" stroke-linecap="round" stroke-linejoin="round" stroke-width="1.5"/>
          </g>
          <path id="Path_13" data-name="Path 13" d="M611.154,115.493s4.747,16.449-7.516,28.824" fill="none" stroke="#011635" stroke-linecap="round" stroke-linejoin="round" stroke-width="1.5"/>
        </g>
        <g id="Group_5" data-name="Group 5">
          <path id="Path_14" data-name="Path 14" d="M220.363,379.217s3.1,14.838-4.813,27.893" fill="none" stroke="#011635" stroke-linecap="round" stroke-linejoin="round" stroke-width="1.5"/>
          <path id="Path_15" data-name="Path 15" d="M205.2,379.217s-.441,11.85-6.516,22.047" fill="none" stroke="#011635" stroke-linecap="round" stroke-linejoin="round" stroke-width="1.5"/>
        </g>
        <g id="Group_7" data-name="Group 7">
          <g id="Group_6" data-name="Group 6">
            <path id="Path_16" data-name="Path 16" d="M352.994,389.04c19.215,24.557,38.731,23.786,62.2,23.7s50.118,6.472,61.916,21.587,47.458,19.288,45.848-17.018-54.164-68.825-96.525-67.4-70.843-4.986-70.843-4.986Z" fill="#fc6679"/>
            <path id="Path_17" data-name="Path 17" d="M354.341,365.343C420.2,399.33,466.26,377.089,494.465,412.737" fill="none" stroke="#011635" stroke-linecap="round" stroke-linejoin="round" stroke-width="1.5"/>
          </g>
          <path id="Path_18" data-name="Path 18" d="M539.154,416.862s10.578,7.259,10.234,25.852" fill="none" stroke="#011635" stroke-linecap="round" stroke-linejoin="round" stroke-width="1.5"/>
        </g>
        <g id="Group_9" data-name="Group 9">
          <path id="Path_19" data-name="Path 19" d="M223.445,135.018c-8.291-17.1-6.247-44,5.522-43.732s.165,28.914,15.725,41.226Z" fill="#f9cad2"/>
          <g id="Group_8" data-name="Group 8">
            <path id="Path_20" data-name="Path 20" d="M181.923,168.819s-46.285-84.127-1.978-97.182C217.2,60.662,209.353,133.815,249.638,150Z" fill="#fc6679"/>
            <path id="Path_21" data-name="Path 21" d="M183.9,93.791s5.312,37.452,29.557,66.265" fill="none" stroke="#011635" stroke-linecap="round" stroke-linejoin="round" stroke-width="1.5"/>
          </g>
          <path id="Path_22" data-name="Path 22" d="M157,263.84s22.436,6.314,41.68,2.594" fill="none" stroke="#011635" stroke-linecap="round" stroke-linejoin="round" stroke-width="1.5"/>
          <path id="Path_23" data-name="Path 23" d="M147.506,144.945s13.055,5.368,19.384,18.843" fill="none" stroke="#011635" stroke-linecap="round" stroke-linejoin="round" stroke-width="1.5"/>
          <path id="Path_24" data-name="Path 24" d="M267.31,106.055s-6,10.461,0,28.571" fill="none" stroke="#011635" stroke-linecap="round" stroke-linejoin="round" stroke-width="1.5"/>
        </g>
      </g>
      <g id="Group_96" data-name="Group 96">
        <g id="Group_46" data-name="Group 46">
          <g id="Group_11" data-name="Group 11">
            <rect id="Rectangle_3" data-name="Rectangle 3" width="371.639" height="254.747" rx="12" transform="translate(193.983 128.626)" fill="#011635" stroke="#011635" stroke-linecap="round" stroke-linejoin="round" stroke-width="1.5"/>
            <rect id="Rectangle_4" data-name="Rectangle 4" width="371.639" height="254.747" rx="12" transform="translate(186.181 128.626)" fill="#fff" stroke="#011635" stroke-linecap="round" stroke-linejoin="round" stroke-width="1.5"/>
            <path id="Path_25" data-name="Path 25" d="M198.181,383.374H545.819a12,12,0,0,0,12-12V359.143H186.181v12.231a12,12,0,0,0,12,12Z" fill="#fc6679" stroke="#011635" stroke-linecap="round" stroke-linejoin="round" stroke-width="1.5"/>
            <path id="Path_26" data-name="Path 26" d="M377.915,371.258A5.915,5.915,0,1,0,372,377.173,5.915,5.915,0,0,0,377.915,371.258Z" fill="#d0d0d6" stroke="#011635" stroke-linecap="round" stroke-linejoin="round" stroke-width="1.5"/>
            <path id="Path_27" data-name="Path 27" d="M545.819,128.626H198.181a12,12,0,0,0-12,12H557.819A12,12,0,0,0,545.819,128.626Z" fill="#fc6679" stroke="#011635" stroke-linecap="round" stroke-linejoin="round" stroke-width="1.5"/>
          </g>
          <g id="Group_17" data-name="Group 17">
            <g id="Group_12" data-name="Group 12">
              <rect id="Rectangle_5" data-name="Rectangle 5" width="134.374" height="91.275" transform="translate(210.945 160.626)" fill="#f9cad2"/>
              <rect id="Rectangle_6" data-name="Rectangle 6" width="134.374" height="3.269" transform="translate(210.945 248.632)" fill="#f99aaa"/>
            </g>
            <g id="Group_13" data-name="Group 13">
              <rect id="Rectangle_7" data-name="Rectangle 7" width="6.165" height="6.165" transform="translate(217.28 166.962)" fill="none" stroke="#011635" stroke-linecap="round" stroke-linejoin="round" stroke-width="1.5"/>
              <line id="Line_17" data-name="Line 17" x1="6.165" transform="translate(229.61 173.126)" fill="none" stroke="#011635" stroke-linecap="round" stroke-linejoin="round" stroke-width="1.5"/>
            </g>
            <g id="Group_15" data-name="Group 15">
              <g id="Group_14" data-name="Group 14">
                <path id="Path_28" data-name="Path 28" d="M233.763,226.037l18.086-35.028L269.52,217.64l20.855-21.016,13.394,15.688L325,222.476" fill="none" stroke="#011635" stroke-linecap="round" stroke-linejoin="round" stroke-width="1.5"/>
                <path id="Path_29" data-name="Path 29" d="M235.973,226.037a2.209,2.209,0,1,0-.647,1.563,2.211,2.211,0,0,0,.647-1.563Z" fill="#fff" stroke="#011635" stroke-linecap="round" stroke-linejoin="round" stroke-width="1.5"/>
                <path id="Path_30" data-name="Path 30" d="M292.586,196.624a2.21,2.21,0,1,0-2.21,2.211,2.21,2.21,0,0,0,2.21-2.211Z" fill="#fff" stroke="#011635" stroke-linecap="round" stroke-linejoin="round" stroke-width="1.5"/>
                <circle id="Ellipse_1" data-name="Ellipse 1" cx="2.21" cy="2.21" r="2.21" transform="translate(267.31 215.43)" fill="#fff" stroke="#011635" stroke-linecap="round" stroke-linejoin="round" stroke-width="1.5"/>
                <path id="Path_31" data-name="Path 31" d="M305.98,212.312a2.211,2.211,0,1,0-2.211,2.211A2.211,2.211,0,0,0,305.98,212.312Z" fill="#fff" stroke="#011635" stroke-linecap="round" stroke-linejoin="round" stroke-width="1.5"/>
                <path id="Path_32" data-name="Path 32" d="M254.059,191.009a2.211,2.211,0,1,0-2.21,2.21,2.211,2.211,0,0,0,2.21-2.21Z" fill="#fff" stroke="#011635" stroke-linecap="round" stroke-linejoin="round" stroke-width="1.5"/>
                <path id="Path_33" data-name="Path 33" d="M327.211,222.476A2.21,2.21,0,1,0,325,224.687a2.21,2.21,0,0,0,2.211-2.211Z" fill="#fff" stroke="#011635" stroke-linecap="round" stroke-linejoin="round" stroke-width="1.5"/>
              </g>
              <line id="Line_18" data-name="Line 18" x2="91.237" transform="translate(233.763 237.165)" fill="none" stroke="#011635" stroke-linecap="round" stroke-linejoin="round" stroke-width="1.5"/>
            </g>
            <g id="Group_16" data-name="Group 16">
              <rect id="Rectangle_8" data-name="Rectangle 8" width="35.028" height="6.165" transform="translate(303.552 166.962)" fill="#fff"/>
              <rect id="Rectangle_9" data-name="Rectangle 9" width="17.868" height="6.165" transform="translate(320.712 176.061)" fill="#f99aaa"/>
            </g>
          </g>
          <g id="Group_21" data-name="Group 21">
            <g id="Group_18" data-name="Group 18">
              <rect id="Rectangle_10" data-name="Rectangle 10" width="134.374" height="79.044" transform="translate(210.945 260.099)" fill="#f9cad2"/>
              <rect id="Rectangle_11" data-name="Rectangle 11" width="134.374" height="3.269" transform="translate(210.945 335.873)" fill="#f99aaa"/>
            </g>
            <g id="Group_19" data-name="Group 19">
              <rect id="Rectangle_12" data-name="Rectangle 12" width="6.165" height="6.165" transform="translate(217.28 266.434)" fill="none" stroke="#011635" stroke-linecap="round" stroke-linejoin="round" stroke-width="1.5"/>
              <line id="Line_19" data-name="Line 19" x1="6.165" transform="translate(229.61 272.599)" fill="none" stroke="#011635" stroke-linecap="round" stroke-linejoin="round" stroke-width="1.5"/>
            </g>
            <g id="Group_20" data-name="Group 20">
              <rect id="Rectangle_13" data-name="Rectangle 13" width="115.135" height="4.421" transform="translate(223.445 280.855)" fill="#f99aaa"/>
              <rect id="Rectangle_14" data-name="Rectangle 14" width="115.135" height="4.421" transform="translate(223.445 291.322)" fill="#fff"/>
              <rect id="Rectangle_15" data-name="Rectangle 15" width="71.348" height="4.421" transform="translate(223.445 301.789)" fill="#fff"/>
              <rect id="Rectangle_16" data-name="Rectangle 16" width="51.618" height="4.421" transform="translate(223.445 312.256)" fill="#f99aaa"/>
              <rect id="Rectangle_17" data-name="Rectangle 17" width="28.998" height="4.421" transform="translate(280.585 312.256)" fill="#f99aaa"/>
              <rect id="Rectangle_18" data-name="Rectangle 18" width="31.401" height="4.421" transform="translate(223.445 322.723)" fill="#fff"/>
            </g>
          </g>
          <g id="Group_25" data-name="Group 25">
            <g id="Group_22" data-name="Group 22">
              <rect id="Rectangle_19" data-name="Rectangle 19" width="173.538" height="22.599" transform="translate(359.517 160.626)" fill="#f9cad2"/>
              <rect id="Rectangle_20" data-name="Rectangle 20" width="173.538" height="3.269" transform="translate(359.517 183.225)" fill="#f99aaa"/>
            </g>
            <g id="Group_23" data-name="Group 23">
              <line id="Line_20" data-name="Line 20" x2="6.165" transform="translate(365.852 166.962)" fill="none" stroke="#011635" stroke-linecap="round" stroke-linejoin="round" stroke-width="1.5"/>
              <line id="Line_21" data-name="Line 21" x2="6.165" transform="translate(378.181 166.962)" fill="none" stroke="#011635" stroke-linecap="round" stroke-linejoin="round" stroke-width="1.5"/>
              <rect id="Rectangle_21" data-name="Rectangle 21" width="6.165" height="2.39" transform="translate(365.852 164.572)" fill="none" stroke="#011635" stroke-linecap="round" stroke-linejoin="round" stroke-width="1.5"/>
            </g>
            <g id="Group_24" data-name="Group 24">
              <rect id="Rectangle_22" data-name="Rectangle 22" width="61.643" height="4.421" transform="translate(372.017 172.367)" fill="#8791ff"/>
              <rect id="Rectangle_23" data-name="Rectangle 23" width="25.874" height="4.421" transform="translate(437.423 172.367)" fill="#fff"/>
            </g>
          </g>
          <g id="Group_29" data-name="Group 29">
            <g id="Group_26" data-name="Group 26">
              <rect id="Rectangle_24" data-name="Rectangle 24" width="173.538" height="22.599" transform="translate(359.517 191.079)" fill="#f9cad2"/>
              <rect id="Rectangle_25" data-name="Rectangle 25" width="173.538" height="3.269" transform="translate(359.517 213.678)" fill="#f99aaa"/>
            </g>
            <g id="Group_27" data-name="Group 27">
              <line id="Line_22" data-name="Line 22" x2="6.165" transform="translate(365.852 197.414)" fill="none" stroke="#011635" stroke-linecap="round" stroke-linejoin="round" stroke-width="1.5"/>
              <line id="Line_23" data-name="Line 23" x2="6.165" transform="translate(378.181 197.414)" fill="none" stroke="#011635" stroke-linecap="round" stroke-linejoin="round" stroke-width="1.5"/>
              <rect id="Rectangle_26" data-name="Rectangle 26" width="6.165" height="2.39" transform="translate(365.852 195.024)" fill="none" stroke="#011635" stroke-linecap="round" stroke-linejoin="round" stroke-width="1.5"/>
            </g>
            <g id="Group_28" data-name="Group 28">
              <rect id="Rectangle_27" data-name="Rectangle 27" width="28.181" height="4.421" transform="translate(372.017 202.819)" fill="#f99aaa"/>
              <rect id="Rectangle_28" data-name="Rectangle 28" width="82.286" height="4.421" transform="translate(434.659 202.819)" fill="#f99aaa"/>
              <rect id="Rectangle_29" data-name="Rectangle 29" width="25.874" height="4.421" transform="translate(404.885 202.819)" fill="#fff"/>
            </g>
          </g>
          <g id="Group_32" data-name="Group 32">
            <g id="Group_30" data-name="Group 30">
              <rect id="Rectangle_30" data-name="Rectangle 30" width="173.538" height="22.599" transform="translate(359.517 221.531)" fill="#f9cad2"/>
              <rect id="Rectangle_31" data-name="Rectangle 31" width="173.538" height="3.269" transform="translate(359.517 244.13)" fill="#f99aaa"/>
            </g>
            <g id="Group_31" data-name="Group 31">
              <line id="Line_24" data-name="Line 24" x2="6.165" transform="translate(365.852 227.867)" fill="none" stroke="#011635" stroke-linecap="round" stroke-linejoin="round" stroke-width="1.5"/>
              <line id="Line_25" data-name="Line 25" x2="6.165" transform="translate(378.181 227.867)" fill="none" stroke="#011635" stroke-linecap="round" stroke-linejoin="round" stroke-width="1.5"/>
              <rect id="Rectangle_32" data-name="Rectangle 32" width="6.165" height="2.39" transform="translate(365.852 225.476)" fill="none" stroke="#011635" stroke-linecap="round" stroke-linejoin="round" stroke-width="1.5"/>
            </g>
            <rect id="Rectangle_33" data-name="Rectangle 33" width="61.643" height="4.421" transform="translate(372.017 233.272)" fill="#f99aaa"/>
          </g>
          <g id="Group_36" data-name="Group 36">
            <g id="Group_33" data-name="Group 33">
              <rect id="Rectangle_34" data-name="Rectangle 34" width="173.538" height="22.599" transform="translate(359.517 251.984)" fill="#f9cad2"/>
              <rect id="Rectangle_35" data-name="Rectangle 35" width="173.538" height="3.269" transform="translate(359.517 274.582)" fill="#f99aaa"/>
            </g>
            <g id="Group_34" data-name="Group 34">
              <line id="Line_26" data-name="Line 26" x2="6.165" transform="translate(365.852 258.319)" fill="none" stroke="#011635" stroke-linecap="round" stroke-linejoin="round" stroke-width="1.5"/>
              <line id="Line_27" data-name="Line 27" x2="6.165" transform="translate(378.181 258.319)" fill="none" stroke="#011635" stroke-linecap="round" stroke-linejoin="round" stroke-width="1.5"/>
              <rect id="Rectangle_36" data-name="Rectangle 36" width="6.165" height="2.39" transform="translate(365.852 255.929)" fill="none" stroke="#011635" stroke-linecap="round" stroke-linejoin="round" stroke-width="1.5"/>
            </g>
            <g id="Group_35" data-name="Group 35">
              <rect id="Rectangle_37" data-name="Rectangle 37" width="43.181" height="4.421" transform="translate(372.017 263.724)" fill="#f99aaa"/>
              <rect id="Rectangle_38" data-name="Rectangle 38" width="72.692" height="4.421" transform="translate(420.198 263.724)" fill="#fff"/>
              <rect id="Rectangle_39" data-name="Rectangle 39" width="11.967" height="4.421" transform="translate(498.352 263.724)" fill="#fff"/>
            </g>
          </g>
          <g id="Group_45" data-name="Group 45">
            <g id="Group_37" data-name="Group 37">
              <rect id="Rectangle_40" data-name="Rectangle 40" width="173.538" height="51.632" transform="translate(359.517 287.511)" fill="#f9cad2"/>
              <rect id="Rectangle_41" data-name="Rectangle 41" width="173.538" height="3.269" transform="translate(359.517 335.873)" fill="#f99aaa"/>
            </g>
            <g id="Group_38" data-name="Group 38">
              <rect id="Rectangle_42" data-name="Rectangle 42" width="6.165" height="6.165" transform="translate(365.852 293.846)" fill="none" stroke="#011635" stroke-linecap="round" stroke-linejoin="round" stroke-width="1.5"/>
              <line id="Line_28" data-name="Line 28" x1="6.165" transform="translate(378.181 300.011)" fill="none" stroke="#011635" stroke-linecap="round" stroke-linejoin="round" stroke-width="1.5"/>
            </g>
            <g id="Group_40" data-name="Group 40">
              <rect id="Rectangle_43" data-name="Rectangle 43" width="24.923" height="24.923" transform="translate(392.423 300.865)" fill="#fc6679"/>
              <g id="Group_39" data-name="Group 39">
                <line id="Line_29" data-name="Line 29" y1="12.346" x2="12.346" transform="translate(398.712 307.154)" fill="none" stroke="#011635" stroke-linecap="round" stroke-linejoin="round" stroke-width="1.5"/>
                <line id="Line_30" data-name="Line 30" x1="12.346" y1="12.346" transform="translate(398.712 307.154)" fill="none" stroke="#011635" stroke-linecap="round" stroke-linejoin="round" stroke-width="1.5"/>
              </g>
            </g>
            <g id="Group_42" data-name="Group 42">
              <rect id="Rectangle_44" data-name="Rectangle 44" width="24.923" height="24.923" transform="translate(426.437 300.865)" fill="#fc6679"/>
              <g id="Group_41" data-name="Group 41">
                <line id="Line_31" data-name="Line 31" y1="12.346" x2="12.345" transform="translate(432.726 307.154)" fill="none" stroke="#011635" stroke-linecap="round" stroke-linejoin="round" stroke-width="1.5"/>
              </g>
            </g>
            <g id="Group_43" data-name="Group 43">
              <rect id="Rectangle_45" data-name="Rectangle 45" width="24.923" height="24.923" transform="translate(460.451 300.865)" fill="#fc6679"/>
              <rect id="Rectangle_46" data-name="Rectangle 46" width="11.184" height="11.184" transform="translate(467.892 307.735)" fill="none" stroke="#011635" stroke-linecap="round" stroke-linejoin="round" stroke-width="1.5"/>
            </g>
            <g id="Group_44" data-name="Group 44">
              <rect id="Rectangle_47" data-name="Rectangle 47" width="24.923" height="24.923" transform="translate(494.465 300.865)" fill="#8791ff"/>
              <line id="Line_32" data-name="Line 32" transform="translate(501.335 307.735)" fill="none" stroke="#011635" stroke-linecap="round" stroke-linejoin="round" stroke-width="1.5"/>
              <line id="Line_33" data-name="Line 33" transform="translate(512.519 307.735)" fill="none" stroke="#011635" stroke-linecap="round" stroke-linejoin="round" stroke-width="1.5"/>
              <line id="Line_34" data-name="Line 34" transform="translate(501.335 318.919)" fill="none" stroke="#011635" stroke-linecap="round" stroke-linejoin="round" stroke-width="1.5"/>
              <line id="Line_35" data-name="Line 35" transform="translate(512.519 318.919)" fill="none" stroke="#011635" stroke-linecap="round" stroke-linejoin="round" stroke-width="1.5"/>
            </g>
          </g>
        </g>
        <g id="Group_58" data-name="Group 58">
          <g id="Group_56" data-name="Group 56">
            <g transform="matrix(1, 0, 0, 1, 129.12, 70.52)" filter="url(#Rectangle_48)">
              <rect id="Rectangle_48-2" data-name="Rectangle 48" width="158.809" height="158.809" rx="7.2" transform="translate(347.99 193.32)" fill="#fff" stroke="#011635" stroke-linecap="round" stroke-linejoin="round" stroke-width="1.5"/>
            </g>
            <g id="Group_47" data-name="Group 47">
              <line id="Line_36" data-name="Line 36" y1="5.684" x2="5.684" transform="translate(486.447 272.471)" fill="none" stroke="#011635" stroke-linecap="round" stroke-linejoin="round" stroke-width="1.5"/>
              <line id="Line_37" data-name="Line 37" x2="5.684" y2="5.684" transform="translate(486.447 272.471)" fill="none" stroke="#011635" stroke-linecap="round" stroke-linejoin="round" stroke-width="1.5"/>
            </g>
            <g id="Group_51" data-name="Group 51">
              <g id="Group_49" data-name="Group 49">
                <g id="Group_48" data-name="Group 48">
                  <path id="Path_34" data-name="Path 34" d="M508.055,317.1a12.072,12.072,0,0,0-12.073,12.073V332.1h24.145V329.17a12.072,12.072,0,0,0-12.07-12.07Z" fill="#f99aaa"/>
                  <path id="Path_35" data-name="Path 35" d="M514.906,307.84a6.852,6.852,0,1,0-6.852,6.852,6.852,6.852,0,0,0,6.852-6.852Z" fill="#f99aaa"/>
                </g>
                <rect id="Rectangle_49" data-name="Rectangle 49" width="31.848" height="42.366" transform="translate(492.131 289.727)" fill="none" stroke="#011635" stroke-linecap="round" stroke-linejoin="round" stroke-width="1.5"/>
              </g>
              <g id="Group_50" data-name="Group 50">
                <rect id="Rectangle_50" data-name="Rectangle 50" width="35.028" height="6.165" transform="translate(566.902 322.994) rotate(180)" fill="#f99aaa"/>
                <rect id="Rectangle_51" data-name="Rectangle 51" width="17.868" height="6.165" transform="translate(549.742 332.093) rotate(180)" fill="#f99aaa"/>
              </g>
              <path id="Path_36" data-name="Path 36" d="M620.907,328.332a3.761,3.761,0,1,0-3.761,3.761,3.761,3.761,0,0,0,3.761-3.761Z" fill="none" stroke="#011635" stroke-linecap="round" stroke-linejoin="round" stroke-width="1.5"/>
            </g>
            <g id="Group_53" data-name="Group 53">
              <rect id="Rectangle_52" data-name="Rectangle 52" width="128.776" height="25.319" transform="translate(492.131 341.958)" fill="#f9cad2"/>
              <g id="Group_52" data-name="Group 52">
                <rect id="Rectangle_53" data-name="Rectangle 53" width="115.135" height="4.421" transform="translate(498.951 347.695)" fill="#f99aaa"/>
                <rect id="Rectangle_54" data-name="Rectangle 54" width="43.522" height="4.421" transform="translate(498.951 358.162)" fill="#fff"/>
              </g>
            </g>
            <g id="Group_55" data-name="Group 55">
              <rect id="Rectangle_55" data-name="Rectangle 55" width="128.776" height="25.319" transform="translate(492.131 377.143)" fill="#f9cad2"/>
              <g id="Group_54" data-name="Group 54">
                <rect id="Rectangle_56" data-name="Rectangle 56" width="52.682" height="4.421" transform="translate(498.951 382.879)" fill="#f99aaa"/>
                <rect id="Rectangle_57" data-name="Rectangle 57" width="58.558" height="4.421" transform="translate(555.528 382.879)" fill="#fff"/>
                <rect id="Rectangle_58" data-name="Rectangle 58" width="42.061" height="4.421" transform="translate(522.962 393.346)" fill="#fff"/>
                <rect id="Rectangle_59" data-name="Rectangle 59" width="20.115" height="4.421" transform="translate(498.951 393.346)" fill="#fff"/>
              </g>
            </g>
          </g>
          <g id="Group_57" data-name="Group 57">
            <path id="Path_37" data-name="Path 37" d="M482.859,347.761c-15.3,0-14.48-12.841-31.419-12.841h0a8.253,8.253,0,0,1-8.254-8.254v-3.289" fill="none" stroke="#011635" stroke-linecap="round" stroke-linejoin="round" stroke-width="1.5"/>
            <path id="Path_38" data-name="Path 38" d="M488.543,347.761h0a2.843,2.843,0,0,0-2.842-2.842h0a2.842,2.842,0,0,0-2.842,2.842h0A2.841,2.841,0,0,0,485.7,350.6h0a2.842,2.842,0,0,0,2.843-2.839Z" fill="#011635" stroke="#011635" stroke-linecap="round" stroke-linejoin="round" stroke-width="1.5"/>
            <path id="Path_39" data-name="Path 39" d="M446.028,320.535h0a2.841,2.841,0,0,0-2.842-2.841h0a2.842,2.842,0,0,0-2.842,2.841h0a2.842,2.842,0,0,0,2.842,2.842h0a2.841,2.841,0,0,0,2.842-2.842Z" fill="#011635" stroke="#011635" stroke-linecap="round" stroke-linejoin="round" stroke-width="1.5"/>
          </g>
        </g>
        <g id="Group_64" data-name="Group 64">
          <g id="Group_60" data-name="Group 60">
            <g transform="matrix(1, 0, 0, 1, 129.12, 70.52)" filter="url(#Rectangle_60)">
              <rect id="Rectangle_60-2" data-name="Rectangle 60" width="110.902" height="110.902" rx="7.2" transform="translate(417.06 65.11)" fill="#fff" stroke="#011635" stroke-linecap="round" stroke-linejoin="round" stroke-width="1.5"/>
            </g>
            <g id="Group_59" data-name="Group 59">
              <line id="Line_38" data-name="Line 38" y1="5.684" x2="5.684" transform="translate(555.517 144.258)" fill="none" stroke="#011635" stroke-linecap="round" stroke-linejoin="round" stroke-width="1.5"/>
              <line id="Line_39" data-name="Line 39" x2="5.684" y2="5.684" transform="translate(555.517 144.258)" fill="none" stroke="#011635" stroke-linecap="round" stroke-linejoin="round" stroke-width="1.5"/>
            </g>
            <text id="UI" transform="translate(578.76 209.59)" fill="#011635" font-size="48" font-family="SegoeUI, Segoe UI"><tspan x="0" y="0">UI</tspan></text>
          </g>
          <g id="Group_61" data-name="Group 61">
            <path id="Path_40" data-name="Path 40" d="M522.258,166.72c16.939,0,16.119,12.841,31.419,12.841" fill="none" stroke="#011635" stroke-linecap="round" stroke-linejoin="round" stroke-width="1.5"/>
            <path id="Path_41" data-name="Path 41" d="M559.361,179.561h0a2.842,2.842,0,0,0-2.842-2.841h0a2.841,2.841,0,0,0-2.842,2.841h0a2.841,2.841,0,0,0,2.842,2.842h0a2.842,2.842,0,0,0,2.842-2.842Z" fill="#011635" stroke="#011635" stroke-linecap="round" stroke-linejoin="round" stroke-width="1.5"/>
            <path id="Path_42" data-name="Path 42" d="M522.258,166.72h0a2.843,2.843,0,0,0-2.842-2.842h0a2.842,2.842,0,0,0-2.842,2.842h0a2.842,2.842,0,0,0,2.842,2.842h0a2.842,2.842,0,0,0,2.842-2.842Z" fill="#011635" stroke="#011635" stroke-linecap="round" stroke-linejoin="round" stroke-width="1.5"/>
          </g>
          <g id="Group_62" data-name="Group 62">
            <path id="Path_43" data-name="Path 43" d="M559.361,197.173h0a2.842,2.842,0,0,0-2.842-2.842h0a2.841,2.841,0,0,0-2.842,2.842h0a2.842,2.842,0,0,0,2.842,2.842h0A2.843,2.843,0,0,0,559.361,197.173Z" fill="#011635" stroke="#011635" stroke-linecap="round" stroke-linejoin="round" stroke-width="1.5"/>
            <path id="Path_44" data-name="Path 44" d="M522.258,197.173h0a2.842,2.842,0,0,0-2.842-2.842h0a2.842,2.842,0,0,0-2.842,2.842h0a2.842,2.842,0,0,0,2.842,2.842h0A2.843,2.843,0,0,0,522.258,197.173Z" fill="#011635" stroke="#011635" stroke-linecap="round" stroke-linejoin="round" stroke-width="1.5"/>
            <line id="Line_40" data-name="Line 40" x2="31.419" transform="translate(522.258 197.173)" fill="none" stroke="#011635" stroke-linecap="round" stroke-linejoin="round" stroke-width="1.5"/>
          </g>
          <g id="Group_63" data-name="Group 63">
            <path id="Path_45" data-name="Path 45" d="M522.258,227.625c16.939,0,16.119-12.841,31.419-12.841" fill="none" stroke="#011635" stroke-linecap="round" stroke-linejoin="round" stroke-width="1.5"/>
            <path id="Path_46" data-name="Path 46" d="M559.361,214.784h0a2.842,2.842,0,0,1-2.842,2.842h0a2.841,2.841,0,0,1-2.842-2.842h0a2.841,2.841,0,0,1,2.842-2.841h0a2.842,2.842,0,0,1,2.842,2.841Z" fill="#011635" stroke="#011635" stroke-linecap="round" stroke-linejoin="round" stroke-width="1.5"/>
            <path id="Path_47" data-name="Path 47" d="M522.258,227.625h0a2.842,2.842,0,0,1-2.842,2.842h0a2.842,2.842,0,0,1-2.842-2.842h0a2.842,2.842,0,0,1,2.842-2.842h0a2.843,2.843,0,0,1,2.842,2.842Z" fill="#011635" stroke="#011635" stroke-linecap="round" stroke-linejoin="round" stroke-width="1.5"/>
          </g>
        </g>
        <g id="Group_74" data-name="Group 74">
          <g id="Group_68" data-name="Group 68">
            <g id="Group_66" data-name="Group 66">
              <g transform="matrix(1, 0, 0, 1, 129.12, 70.52)" filter="url(#Rectangle_61)">
                <rect id="Rectangle_61-2" data-name="Rectangle 61" width="125.989" height="68.286" rx="7.2" transform="translate(104.92 297.22)" fill="#fff" stroke="#011635" stroke-linecap="round" stroke-linejoin="round" stroke-width="1.5"/>
              </g>
              <g id="Group_65" data-name="Group 65">
                <line id="Line_41" data-name="Line 41" y1="5.684" x2="5.684" transform="translate(243.376 376.375)" fill="none" stroke="#011635" stroke-linecap="round" stroke-linejoin="round" stroke-width="1.5"/>
                <line id="Line_42" data-name="Line 42" x2="5.684" y2="5.684" transform="translate(243.376 376.375)" fill="none" stroke="#011635" stroke-linecap="round" stroke-linejoin="round" stroke-width="1.5"/>
              </g>
              <text id="UX" transform="translate(266.393 419.293)" fill="#011635" font-size="48" font-family="SegoeUI, Segoe UI"><tspan x="0" y="0">UX</tspan></text>
            </g>
            <g id="Group_67" data-name="Group 67">
              <path id="Path_48" data-name="Path 48" d="M297.377,371.489c0-15.3-12.841-14.48-12.841-31.419h0a8.253,8.253,0,0,0-8.253-8.253h-3.289" fill="none" stroke="#011635" stroke-linecap="round" stroke-linejoin="round" stroke-width="1.5"/>
              <rect id="Rectangle_62" data-name="Rectangle 62" width="5.684" height="5.684" rx="2.842" transform="translate(294.535 371.489)" fill="#011635" stroke="#011635" stroke-linecap="round" stroke-linejoin="round" stroke-width="1.5"/>
              <path id="Path_49" data-name="Path 49" d="M270.152,334.658h0a2.841,2.841,0,0,1-2.842-2.841h0a2.841,2.841,0,0,1,2.842-2.842h0a2.842,2.842,0,0,1,2.842,2.842h0A2.842,2.842,0,0,1,270.152,334.658Z" fill="#011635" stroke="#011635" stroke-linecap="round" stroke-linejoin="round" stroke-width="1.5"/>
            </g>
          </g>
          <g id="Group_73" data-name="Group 73">
            <g id="Group_71" data-name="Group 71">
              <g transform="matrix(1, 0, 0, 1, 129.12, 70.52)" filter="url(#Rectangle_63)">
                <rect id="Rectangle_63-2" data-name="Rectangle 63" width="73.445" height="46.438" rx="7.2" transform="translate(251.5 330.74)" fill="#fff" stroke="#011635" stroke-linecap="round" stroke-linejoin="round" stroke-width="1.5"/>
              </g>
              <g id="Group_69" data-name="Group 69">
                <line id="Line_43" data-name="Line 43" y1="5.684" x2="5.684" transform="translate(389.956 409.895)" fill="none" stroke="#011635" stroke-linecap="round" stroke-linejoin="round" stroke-width="1.5"/>
                <line id="Line_44" data-name="Line 44" x2="5.684" y2="5.684" transform="translate(389.956 409.895)" fill="none" stroke="#011635" stroke-linecap="round" stroke-linejoin="round" stroke-width="1.5"/>
              </g>
              <g id="Group_70" data-name="Group 70">
                <path id="Path_50" data-name="Path 50" d="M407.5,434.324a2.664,2.664,0,1,0-2.664,2.664,2.664,2.664,0,0,0,2.664-2.664Z" fill="#011635" stroke="#011635" stroke-linecap="round" stroke-linejoin="round" stroke-width="1.5"/>
                <path id="Path_51" data-name="Path 51" d="M435.339,414.643a2.663,2.663,0,1,0-2.664,2.663,2.663,2.663,0,0,0,2.664-2.663Z" fill="#011635" stroke="#011635" stroke-linecap="round" stroke-linejoin="round" stroke-width="1.5"/>
                <path id="Path_52" data-name="Path 52" d="M404.834,434.324s23.19,6.132,27.841-19.681" fill="none" stroke="#011635" stroke-linecap="round" stroke-linejoin="round" stroke-width="1.5"/>
              </g>
            </g>
            <g id="Group_72" data-name="Group 72">
              <path id="Path_53" data-name="Path 53" d="M352.994,414.463c16.939,0,16.12,12.841,31.419,12.841" fill="none" stroke="#011635" stroke-linecap="round" stroke-linejoin="round" stroke-width="1.5"/>
              <path id="Path_54" data-name="Path 54" d="M390.1,427.3h0a2.842,2.842,0,0,0-2.842-2.842h0a2.843,2.843,0,0,0-2.842,2.842h0a2.842,2.842,0,0,0,2.842,2.842h0A2.841,2.841,0,0,0,390.1,427.3Z" fill="#011635" stroke="#011635" stroke-linecap="round" stroke-linejoin="round" stroke-width="1.5"/>
              <path id="Path_55" data-name="Path 55" d="M352.994,414.463h0a2.842,2.842,0,0,0-2.842-2.842h0a2.843,2.843,0,0,0-2.842,2.842h0a2.842,2.842,0,0,0,2.842,2.842h0A2.841,2.841,0,0,0,352.994,414.463Z" fill="#011635" stroke="#011635" stroke-linecap="round" stroke-linejoin="round" stroke-width="1.5"/>
            </g>
          </g>
        </g>
        <g id="Group_79" data-name="Group 79">
          <g id="Group_77" data-name="Group 77">
            <g transform="matrix(1, 0, 0, 1, 129.12, 70.52)" filter="url(#Rectangle_64)">
              <rect id="Rectangle_64-2" data-name="Rectangle 64" width="69.608" height="111.744" rx="7.662" transform="translate(0.75 206.33)" fill="#fff" stroke="#011635" stroke-linecap="round" stroke-linejoin="round" stroke-width="1.5"/>
            </g>
            <g id="Group_75" data-name="Group 75">
              <line id="Line_45" data-name="Line 45" y1="5.684" x2="5.684" transform="translate(139.206 285.486)" fill="none" stroke="#011635" stroke-linecap="round" stroke-linejoin="round" stroke-width="1.5"/>
              <line id="Line_46" data-name="Line 46" x2="5.684" y2="5.684" transform="translate(139.206 285.486)" fill="none" stroke="#011635" stroke-linecap="round" stroke-linejoin="round" stroke-width="1.5"/>
            </g>
            <g id="Group_76" data-name="Group 76">
              <path id="Path_56" data-name="Path 56" d="M187.993,318.711a.747.747,0,0,0-.247-.522A.727.727,0,0,0,187.2,318c-14.407.852-21.8-12.024-21.87-12.154a.78.78,0,0,0-1.308,0c-.074.13-7.476,13-21.87,12.154a.75.75,0,0,0-.792.714c-.016.344-1.327,34.425,23.2,38.242a.74.74,0,0,0,.23,0C189.319,353.136,188.009,319.055,187.993,318.711Z" fill="#fc6679"/>
            </g>
          </g>
          <g id="Group_78" data-name="Group 78">
            <path id="Path_57" data-name="Path 57" d="M223.284,292.568c-16.939,0-16.12,12.841-31.42,12.841" fill="none" stroke="#011635" stroke-linecap="round" stroke-linejoin="round" stroke-width="1.5"/>
            <path id="Path_58" data-name="Path 58" d="M186.181,305.409h0a2.841,2.841,0,0,1,2.842-2.841h0a2.841,2.841,0,0,1,2.841,2.841h0a2.841,2.841,0,0,1-2.841,2.842h0a2.841,2.841,0,0,1-2.842-2.842Z" fill="#011635" stroke="#011635" stroke-linecap="round" stroke-linejoin="round" stroke-width="1.5"/>
            <path id="Path_59" data-name="Path 59" d="M223.284,292.568h0a2.841,2.841,0,0,1,2.842-2.841h0a2.841,2.841,0,0,1,2.841,2.841h0a2.841,2.841,0,0,1-2.841,2.842h0A2.841,2.841,0,0,1,223.284,292.568Z" fill="#011635" stroke="#011635" stroke-linecap="round" stroke-linejoin="round" stroke-width="1.5"/>
          </g>
        </g>
        <g id="Group_83" data-name="Group 83">
          <g id="Group_81" data-name="Group 81">
            <g transform="matrix(1, 0, 0, 1, 129.12, 70.52)" filter="url(#Rectangle_65)">
              <rect id="Rectangle_65-2" data-name="Rectangle 65" width="69.608" height="94.973" rx="7.2" transform="translate(0.75 84.64)" fill="#fff" stroke="#011635" stroke-linecap="round" stroke-linejoin="round" stroke-width="1.5"/>
            </g>
            <g id="Group_80" data-name="Group 80">
              <line id="Line_47" data-name="Line 47" y1="5.684" x2="5.684" transform="translate(139.206 163.788)" fill="none" stroke="#011635" stroke-linecap="round" stroke-linejoin="round" stroke-width="1.5"/>
              <line id="Line_48" data-name="Line 48" x2="5.684" y2="5.684" transform="translate(139.206 163.788)" fill="none" stroke="#011635" stroke-linecap="round" stroke-linejoin="round" stroke-width="1.5"/>
            </g>
            <text id="_" data-name="&lt;/&gt;" transform="translate(145.35 213.818)" fill="#011635" font-size="36" font-family="SegoeUI, Segoe UI"><tspan x="0" y="0">&lt;/</tspan></text>
          </g>
          <g id="Group_82" data-name="Group 82">
            <path id="Path_60" data-name="Path 60" d="M223.284,191.28c-16.939,0-16.12-12.841-31.42-12.841" fill="none" stroke="#011635" stroke-linecap="round" stroke-linejoin="round" stroke-width="1.5"/>
            <path id="Path_61" data-name="Path 61" d="M186.181,178.439h0a2.841,2.841,0,0,0,2.842,2.842h0a2.841,2.841,0,0,0,2.841-2.842h0a2.842,2.842,0,0,0-2.841-2.842h0A2.842,2.842,0,0,0,186.181,178.439Z" fill="#011635" stroke="#011635" stroke-linecap="round" stroke-linejoin="round" stroke-width="1.5"/>
            <path id="Path_62" data-name="Path 62" d="M223.284,191.28h0a2.841,2.841,0,0,0,2.842,2.842h0a2.841,2.841,0,0,0,2.841-2.842h0a2.842,2.842,0,0,0-2.841-2.842h0A2.842,2.842,0,0,0,223.284,191.28Z" fill="#011635" stroke="#011635" stroke-linecap="round" stroke-linejoin="round" stroke-width="1.5"/>
          </g>
        </g>
        <g id="Group_95" data-name="Group 95">
          <g id="Group_85" data-name="Group 85">
            <g transform="matrix(1, 0, 0, 1, 129.12, 70.52)" filter="url(#Rectangle_66)">
              <rect id="Rectangle_66-2" data-name="Rectangle 66" width="73.445" height="46.438" rx="7.2" transform="translate(110.07 53.36)" fill="#fff" stroke="#011635" stroke-linecap="round" stroke-linejoin="round" stroke-width="1.5"/>
            </g>
            <g id="Group_84" data-name="Group 84">
              <line id="Line_49" data-name="Line 49" y1="5.684" x2="5.684" transform="translate(248.53 132.512)" fill="none" stroke="#011635" stroke-linecap="round" stroke-linejoin="round" stroke-width="1.5"/>
              <line id="Line_50" data-name="Line 50" x2="5.684" y2="5.684" transform="translate(248.53 132.512)" fill="none" stroke="#011635" stroke-linecap="round" stroke-linejoin="round" stroke-width="1.5"/>
            </g>
          </g>
          <g id="Group_87" data-name="Group 87">
            <g transform="matrix(1, 0, 0, 1, 129.12, 70.52)" filter="url(#Rectangle_67)">
              <rect id="Rectangle_67-2" data-name="Rectangle 67" width="162.617" height="20.7" rx="7.2" transform="translate(202.08 66.23)" fill="#fff" stroke="#011635" stroke-linecap="round" stroke-linejoin="round" stroke-width="1.5"/>
            </g>
            <g id="Group_86" data-name="Group 86">
              <path id="Path_63" data-name="Path 63" d="M481.8,143.721H373.978a3.379,3.379,0,0,0-3.38,3.379h0a3.38,3.38,0,0,0,3.38,3.38H481.8a3.38,3.38,0,0,0,3.38-3.38h0a3.38,3.38,0,0,0-3.38-3.379Z" fill="#f9cad2"/>
              <path id="Path_64" data-name="Path 64" d="M460.765,143.721H373.978a3.38,3.38,0,1,0,0,6.759h86.787Z" fill="#fc6679"/>
            </g>
            <rect id="Rectangle_68" data-name="Rectangle 68" width="5.684" height="5.684" transform="translate(355.512 144.317)" fill="none" stroke="#011635" stroke-linecap="round" stroke-linejoin="round" stroke-width="1.5"/>
          </g>
          <g id="Group_89" data-name="Group 89">
            <g transform="matrix(1, 0, 0, 1, 129.12, 70.52)" filter="url(#Rectangle_69)">
              <rect id="Rectangle_69-2" data-name="Rectangle 69" width="162.617" height="20.7" rx="7.2" transform="translate(202.08 37.41)" fill="#fff" stroke="#011635" stroke-linecap="round" stroke-linejoin="round" stroke-width="1.5"/>
            </g>
            <g id="Group_88" data-name="Group 88">
              <path id="Path_65" data-name="Path 65" d="M481.8,114.9H373.978a3.379,3.379,0,0,0-3.38,3.379h0a3.38,3.38,0,0,0,3.38,3.38H481.8a3.38,3.38,0,0,0,3.38-3.38h0a3.38,3.38,0,0,0-3.38-3.379Z" fill="#f9cad2"/>
              <path id="Path_66" data-name="Path 66" d="M398.235,114.9H373.978a3.379,3.379,0,1,0,0,6.759h24.257Z" fill="#fc6679"/>
            </g>
            <rect id="Rectangle_70" data-name="Rectangle 70" width="5.684" height="5.684" transform="translate(355.512 115.493)" fill="none" stroke="#011635" stroke-linecap="round" stroke-linejoin="round" stroke-width="1.5"/>
          </g>
          <g id="Group_91" data-name="Group 91">
            <g transform="matrix(1, 0, 0, 1, 129.12, 70.52)" filter="url(#Rectangle_71)">
              <rect id="Rectangle_71-2" data-name="Rectangle 71" width="162.617" height="20.7" rx="7.2" transform="translate(202.08 95.05)" fill="#fff" stroke="#011635" stroke-linecap="round" stroke-linejoin="round" stroke-width="1.5"/>
            </g>
            <g id="Group_90" data-name="Group 90">
              <path id="Path_67" data-name="Path 67" d="M481.8,172.544H373.978a3.38,3.38,0,0,0-3.38,3.38h0a3.38,3.38,0,0,0,3.38,3.38H481.8a3.38,3.38,0,0,0,3.38-3.38h0a3.381,3.381,0,0,0-3.38-3.38Z" fill="#f9cad2"/>
              <path id="Path_68" data-name="Path 68" d="M477.7,172.544H373.978a3.38,3.38,0,1,0,0,6.76H477.7Z" fill="#fc6679"/>
            </g>
            <rect id="Rectangle_72" data-name="Rectangle 72" width="5.684" height="5.684" transform="translate(355.512 173.141)" fill="none" stroke="#011635" stroke-linecap="round" stroke-linejoin="round" stroke-width="1.5"/>
          </g>
          <g id="Group_92" data-name="Group 92">
            <path id="Path_69" data-name="Path 69" d="M338.006,119.335c-16.939,0-16.119,12.841-31.419,12.841" fill="none" stroke="#011635" stroke-linecap="round" stroke-linejoin="round" stroke-width="1.5"/>
            <path id="Path_70" data-name="Path 70" d="M300.9,132.176h0a2.841,2.841,0,0,1,2.841-2.842h0a2.841,2.841,0,0,1,2.842,2.842h0a2.842,2.842,0,0,1-2.842,2.842h0a2.842,2.842,0,0,1-2.841-2.842Z" fill="#011635" stroke="#011635" stroke-linecap="round" stroke-linejoin="round" stroke-width="1.5"/>
            <path id="Path_71" data-name="Path 71" d="M338.006,119.335h0a2.843,2.843,0,0,1,2.842-2.842h0a2.842,2.842,0,0,1,2.842,2.842h0a2.842,2.842,0,0,1-2.842,2.842h0a2.843,2.843,0,0,1-2.842-2.842Z" fill="#011635" stroke="#011635" stroke-linecap="round" stroke-linejoin="round" stroke-width="1.5"/>
          </g>
          <g id="Group_93" data-name="Group 93">
            <path id="Path_72" data-name="Path 72" d="M300.9,147.787h0a2.841,2.841,0,0,1,2.841-2.841h0a2.841,2.841,0,0,1,2.842,2.841h0a2.841,2.841,0,0,1-2.842,2.842h0A2.841,2.841,0,0,1,300.9,147.787Z" fill="#011635" stroke="#011635" stroke-linecap="round" stroke-linejoin="round" stroke-width="1.5"/>
            <path id="Path_73" data-name="Path 73" d="M338.006,147.787h0a2.842,2.842,0,0,1,2.842-2.841h0a2.841,2.841,0,0,1,2.842,2.841h0a2.841,2.841,0,0,1-2.842,2.842h0A2.842,2.842,0,0,1,338.006,147.787Z" fill="#011635" stroke="#011635" stroke-linecap="round" stroke-linejoin="round" stroke-width="1.5"/>
            <line id="Line_51" data-name="Line 51" x1="31.419" transform="translate(306.587 147.787)" fill="none" stroke="#011635" stroke-linecap="round" stroke-linejoin="round" stroke-width="1.5"/>
          </g>
          <g id="Group_94" data-name="Group 94">
            <path id="Path_74" data-name="Path 74" d="M338.006,175.24c-16.939,0-16.119-12.841-31.419-12.841" fill="none" stroke="#011635" stroke-linecap="round" stroke-linejoin="round" stroke-width="1.5"/>
            <path id="Path_75" data-name="Path 75" d="M300.9,162.4h0a2.842,2.842,0,0,0,2.841,2.842h0a2.842,2.842,0,0,0,2.842-2.842h0a2.841,2.841,0,0,0-2.842-2.842h0A2.841,2.841,0,0,0,300.9,162.4Z" fill="#011635" stroke="#011635" stroke-linecap="round" stroke-linejoin="round" stroke-width="1.5"/>
            <path id="Path_76" data-name="Path 76" d="M338.006,175.24h0a2.843,2.843,0,0,0,2.842,2.842h0a2.842,2.842,0,0,0,2.842-2.842h0a2.841,2.841,0,0,0-2.842-2.842h0a2.842,2.842,0,0,0-2.842,2.842Z" fill="#011635" stroke="#011635" stroke-linecap="round" stroke-linejoin="round" stroke-width="1.5"/>
          </g>
        </g>
      </g>
    </g>
  </g>
</svg>
