<svg xmlns="http://www.w3.org/2000/svg" width="685.646" height="384.97" viewBox="0 0 685.646 384.97">
  <g id="Group_317" data-name="Group 317" transform="translate(-24.317 -68.344)">
    <g id="Background_Complete" data-name="Background Complete">
      <g id="Group_11" data-name="Group 11">
        <g id="Group_2" data-name="Group 2">
          <rect id="Rectangle_1" data-name="Rectangle 1" width="77.884" height="106.578" transform="matrix(0.921, -0.389, 0.389, 0.921, 24.826, 163.889)" fill="#fff"/>
          <g id="Group_1" data-name="Group 1">
            <path id="Path_1" data-name="Path 1" d="M138.026,231.79s-.084-.164-.223-.475l-.6-1.381c-.534-1.24-1.3-3.029-2.3-5.351-2-4.69-4.917-11.509-8.6-20.132-7.334-17.264-17.733-41.744-30.038-70.713l.461.188L24.986,164.243l-.008,0,.206-.509c15.457,36.686,29.766,70.65,41.38,98.216l-.414-.168,52.168-21.841,14.53-6.046,3.835-1.58c.872-.355,1.343-.529,1.343-.529s-.411.2-1.254.567l-3.752,1.623-14.4,6.167L66.4,262.37l-.292.124-.123-.293c-11.652-27.551-26.007-61.5-41.513-98.161l-.151-.358.358-.151.009,0,71.759-30.25.325-.137.136.324c12.211,29.111,22.529,53.711,29.806,71.06,3.595,8.623,6.439,15.442,8.395,20.133.955,2.307,1.69,4.086,2.2,5.318.236.584.419,1.033.552,1.362A4.037,4.037,0,0,1,138.026,231.79Z" fill="#e0e0e0"/>
          </g>
        </g>
        <g id="Group_3" data-name="Group 3">
          <path id="Path_2" data-name="Path 2" d="M77.039,165.1c.083.2-7.656,3.653-17.283,7.717s-17.5,7.2-17.587,7,7.654-3.652,17.285-7.717S76.955,164.9,77.039,165.1Z" fill="#e0e0e0"/>
        </g>
        <g id="Group_4" data-name="Group 4">
          <path id="Path_3" data-name="Path 3" d="M99.5,165.672c.083.2-11.878,5.435-26.712,11.7s-26.933,11.18-27.016,10.982,11.874-5.434,26.714-11.7S99.415,165.474,99.5,165.672Z" fill="#e0e0e0"/>
        </g>
        <g id="Group_5" data-name="Group 5">
          <path id="Path_4" data-name="Path 4" d="M103.256,174.573c.083.2-11.877,5.435-26.712,11.7s-26.933,11.18-27.016,10.982,11.875-5.434,26.714-11.7S103.172,174.375,103.256,174.573Z" fill="#e0e0e0"/>
        </g>
        <g id="Group_6" data-name="Group 6">
          <path id="Path_5" data-name="Path 5" d="M107.013,183.474c.084.2-11.877,5.436-26.711,11.7s-26.933,11.18-27.017,10.982S65.16,200.719,80,194.455,106.93,183.277,107.013,183.474Z" fill="#e0e0e0"/>
        </g>
        <g id="Group_7" data-name="Group 7">
          <path id="Path_6" data-name="Path 6" d="M110.77,192.375c.084.2-11.877,5.436-26.711,11.7s-26.933,11.18-27.017,10.982,11.875-5.434,26.715-11.7S110.687,192.178,110.77,192.375Z" fill="#e0e0e0"/>
        </g>
        <g id="Group_8" data-name="Group 8">
          <path id="Path_7" data-name="Path 7" d="M114.527,201.276c.084.2-11.877,5.436-26.711,11.7S60.883,224.153,60.8,223.955s11.875-5.434,26.715-11.7S114.444,201.079,114.527,201.276Z" fill="#e0e0e0"/>
        </g>
        <g id="Group_9" data-name="Group 9">
          <path id="Path_8" data-name="Path 8" d="M118.285,210.177c.083.2-11.878,5.436-26.712,11.7s-26.933,11.18-27.016,10.982,11.874-5.434,26.714-11.7S118.2,209.98,118.285,210.177Z" fill="#e0e0e0"/>
        </g>
        <g id="Group_10" data-name="Group 10">
          <path id="Path_9" data-name="Path 9" d="M97.193,229.567c.083.2-6.314,3.087-14.288,6.453s-14.508,5.935-14.591,5.737,6.313-3.086,14.289-6.453S97.11,229.369,97.193,229.567Z" fill="#e0e0e0"/>
        </g>
      </g>
      <g id="Group_16" data-name="Group 16">
        <g id="Group_13" data-name="Group 13">
          <g id="Group_12" data-name="Group 12">
            <rect id="Rectangle_2" data-name="Rectangle 2" width="78.44" height="98.115" transform="matrix(0.233, -0.972, 0.972, 0.233, 265.133, 146.032)" fill="#f5f5f5"/>
          </g>
        </g>
        <rect id="Rectangle_3" data-name="Rectangle 3" width="68.564" height="91.222" transform="translate(269.574 142.019) rotate(-76.513)" fill="#ebebeb"/>
        <path id="Path_10" data-name="Path 10" d="M269.574,142.019,310.5,108.006l12.974,30.532L339.811,127.8l18.469,35.495Z" fill="#e0e0e0"/>
        <g id="Group_15" data-name="Group 15">
          <g id="Group_14" data-name="Group 14">
            <path id="Path_11" data-name="Path 11" d="M339.053,109.486a7.183,7.183,0,1,1-5.309-8.66A7.182,7.182,0,0,1,339.053,109.486Z" fill="#e0e0e0"/>
          </g>
        </g>
      </g>
      <path id="Path_12" data-name="Path 12" d="M561.987,139.936c4.685-10.951,1.842-22.371-5.862-31.455a32.984,32.984,0,0,0-32.279-10.467,36.085,36.085,0,0,0-71.571,4.654,27.012,27.012,0,0,0-20.629,36.65Z" fill="#ebebeb"/>
      <g id="Group_19" data-name="Group 19">
        <path id="Path_13" data-name="Path 13" d="M163.449,106.283a5.744,5.744,0,1,1-7.212-3.737A5.744,5.744,0,0,1,163.449,106.283Z" fill="#e0e0e0"/>
        <circle id="Ellipse_1" data-name="Ellipse 1" cx="5.744" cy="5.744" r="5.744" transform="translate(169.834 106.714) rotate(-79.36)" fill="#e0e0e0"/>
        <g id="Group_17" data-name="Group 17">
          <path id="Path_14" data-name="Path 14" d="M182.131,100.4a1.766,1.766,0,0,1-.2-.4c-.132-.313-.3-.705-.5-1.188-.442-1.034-1.079-2.545-1.971-4.407s-2.041-4.069-3.452-6.516-3.052-5.148-4.791-8.08l.328.092A60.5,60.5,0,0,1,161,84.4a60.963,60.963,0,0,1-9.722,2.238l.09-.462a24.556,24.556,0,0,1,7.342,6.769,24.847,24.847,0,0,1,3.557,7.044,23.229,23.229,0,0,1,1.033,5.078c.062.6.047,1.069.061,1.383a2.092,2.092,0,0,1-.015.478c-.039,0-.077-.652-.214-1.844A25.523,25.523,0,0,0,158.36,93.2a24.421,24.421,0,0,0-7.249-6.59l-.6-.358.692-.1a62.138,62.138,0,0,0,9.637-2.241,61.653,61.653,0,0,0,10.476-4.435l.21-.112.119.2c1.722,2.937,3.35,5.651,4.731,8.124s2.51,4.706,3.364,6.593,1.453,3.421,1.847,4.475c.173.5.314.9.426,1.218A1.829,1.829,0,0,1,182.131,100.4Z" fill="#e0e0e0"/>
        </g>
        <g id="Group_18" data-name="Group 18">
          <path id="Path_15" data-name="Path 15" d="M175.892,86.947a80.353,80.353,0,0,1-8.629,3.01,80.139,80.139,0,0,1-8.787,2.515,80.45,80.45,0,0,1,8.63-3.011A80.477,80.477,0,0,1,175.892,86.947Z" fill="#e0e0e0"/>
        </g>
      </g>
    </g>
    <g id="Floor">
      <g id="Group_20" data-name="Group 20">
        <path id="Path_17" data-name="Path 17" d="M668.828,447.8c0,.144-131.562.261-293.814.261-162.308,0-293.842-.117-293.842-.261s131.534-.26,293.842-.26C537.266,447.541,668.828,447.658,668.828,447.8Z" fill="#263238"/>
      </g>
    </g>
    <g id="Device">
      <g id="Group_26" data-name="Group 26">
        <g id="Group_25" data-name="Group 25">
          <g id="Group_22" data-name="Group 22">
            <g id="Group_21" data-name="Group 21">
              <path id="Path_18" data-name="Path 18" d="M438.892,147.1H98.464a10.626,10.626,0,0,0-10.626,10.626V398.176A10.626,10.626,0,0,0,98.464,408.8H229.12s8.311,25.7-17.453,39h122.17s-29.089-9.972-21.61-39H438.893a10.626,10.626,0,0,0,10.626-10.626V157.725A10.627,10.627,0,0,0,438.892,147.1Z" fill="#263238"/>
            </g>
          </g>
          <g id="Group_24" data-name="Group 24">
            <g id="Group_23" data-name="Group 23">
              <path id="Path_19" data-name="Path 19" d="M273.223,383.515c4.631,6.618-2.616,13.866-9.236,9.237a2.357,2.357,0,0,1-.569-.571c-4.618-6.617,2.62-13.855,9.236-9.235A2.311,2.311,0,0,1,273.223,383.515Z" fill="#455a64"/>
            </g>
          </g>
        </g>
        <path id="Rectangle_4" data-name="Rectangle 4" d="M9.7,0H340.261a9.7,9.7,0,0,1,9.7,9.7V213.311a0,0,0,0,1,0,0H0a0,0,0,0,1,0,0V9.7A9.7,9.7,0,0,1,9.7,0Z" transform="translate(93.699 151.503)" fill="#fff"/>
      </g>
      <g id="Group_86" data-name="Group 86">
        <g id="Group_31" data-name="Group 31">
          <g id="Group_28" data-name="Group 28">
            <rect id="Rectangle_5" data-name="Rectangle 5" width="61.291" height="90.932" transform="matrix(0.184, -0.983, 0.983, 0.184, 310.68, 292.974)" fill="#e8505b"/>
            <rect id="Rectangle_6" data-name="Rectangle 6" width="61.291" height="90.932" transform="matrix(0.184, -0.983, 0.983, 0.184, 310.68, 292.974)" opacity="0.3"/>
            <g id="Group_27" data-name="Group 27">
              <path id="Path_20" data-name="Path 20" d="M411.358,249.508a6.384,6.384,0,0,1-.983.646l-2.9,1.713-10.741,6.174-35.673,20.147-.293.165-.221-.256-.535-.62L332.993,245.95l-8.116-9.616-2.175-2.642a6.366,6.366,0,0,1-.716-.958,6.619,6.619,0,0,1,.842.85l2.292,2.54,8.316,9.444c7.012,8.087,16.6,19.148,27.2,31.37l.534.62-.515-.091,35.794-19.932,10.868-5.946,2.973-1.579A6.392,6.392,0,0,1,411.358,249.508Z" fill="#263238"/>
            </g>
          </g>
          <g id="Group_29" data-name="Group 29">
            <path id="Path_21" data-name="Path 21" d="M310.68,292.974c-.145-.177,8.126-7.173,18.47-15.624s18.85-15.163,18.994-14.987-8.124,7.171-18.472,15.626S310.824,293.15,310.68,292.974Z" fill="#263238"/>
          </g>
          <g id="Group_30" data-name="Group 30">
            <path id="Path_22" data-name="Path 22" d="M377.993,267.186c.2-.105,5.3,9.338,11.395,21.09s10.866,21.367,10.663,21.472-5.3-9.337-11.4-21.092S377.791,267.291,377.993,267.186Z" fill="#263238"/>
          </g>
        </g>
        <g id="Group_34" data-name="Group 34">
          <g id="Group_32" data-name="Group 32">
            <path id="Path_23" data-name="Path 23" d="M208.056,322.215a1.931,1.931,0,0,1-.044-.356c-.02-.261-.046-.605-.079-1.042q-.022-.346-.051-.767c-.031-.28-.093-.585-.145-.916a16.07,16.07,0,0,0-.466-2.261,20.988,20.988,0,0,0-2.447-5.808A21.776,21.776,0,0,0,178.67,301.8a20.016,20.016,0,0,0-5.5,2.961,19.912,19.912,0,0,0-4.592,4.616,21.022,21.022,0,0,0-3.1,5.986,21.532,21.532,0,0,0,0,13.708,21.083,21.083,0,0,0,3.1,5.988,19.919,19.919,0,0,0,4.593,4.617,20.008,20.008,0,0,0,5.5,2.962,21.833,21.833,0,0,0,26.155-9.27,21.012,21.012,0,0,0,2.446-5.808,16.231,16.231,0,0,0,.467-2.261c.051-.331.113-.635.144-.916l.051-.767c.033-.436.059-.78.079-1.042a1.927,1.927,0,0,1,.044-.355,1.7,1.7,0,0,1,.009.356c-.007.263-.016.609-.027,1.048q-.012.35-.026.773c-.024.283-.078.59-.121.925a15.628,15.628,0,0,1-.424,2.289,20.794,20.794,0,0,1-2.392,5.907,22.136,22.136,0,0,1-14.9,10.505,22.22,22.22,0,0,1-11.667-.933,20.4,20.4,0,0,1-5.631-3.014,20.36,20.36,0,0,1-4.708-4.714,21.5,21.5,0,0,1-3.184-6.126,22,22,0,0,1,0-14.036,21.5,21.5,0,0,1,3.185-6.124,20.3,20.3,0,0,1,4.707-4.713,20.441,20.441,0,0,1,5.63-3.013,22.227,22.227,0,0,1,11.666-.934,22.134,22.134,0,0,1,14.9,10.5,20.771,20.771,0,0,1,2.393,5.907,15.616,15.616,0,0,1,.424,2.29c.043.334.1.641.121.925s.018.539.026.773c.011.438.02.785.027,1.048A1.694,1.694,0,0,1,208.056,322.215Z" fill="#263238"/>
          </g>
          <g id="Group_33" data-name="Group 33">
            <path id="Path_24" data-name="Path 24" d="M181.238,322.215a2.3,2.3,0,0,1,.035.582c0,.442-.006.992-.01,1.662-.035,1.522-.083,3.586-.14,6.1l-.284-.178,14.714-7.859c.007-.1-.033.851-.018.448l0,0-.008-.005-.016-.011-.032-.02-.064-.04-.128-.08-.254-.16-.507-.318-1-.631-1.964-1.238-3.727-2.355-6.382-4.066.3-.156c-.129,2.509-.234,4.572-.312,6.092-.046.669-.083,1.217-.113,1.659a2.278,2.278,0,0,1-.078.577,2.337,2.337,0,0,1-.034-.582c0-.442.006-.992.01-1.662.035-1.521.082-3.586.14-6.1l.008-.335.288.178,6.435,3.983,3.741,2.333,1.968,1.232,1,.629.507.318.254.16.128.08.064.04.032.02.016.01.008.005,0,0c.015-.4-.016.55-.015.453l-14.777,7.741-.3.157.017-.336c.128-2.509.234-4.572.312-6.092.045-.669.083-1.217.113-1.659A2.314,2.314,0,0,1,181.238,322.215Z" fill="#263238"/>
          </g>
        </g>
        <g id="Group_41" data-name="Group 41">
          <g id="Group_38" data-name="Group 38">
            <g id="Group_37" data-name="Group 37">
              <g id="Group_36" data-name="Group 36">
                <rect id="Rectangle_7" data-name="Rectangle 7" width="118.626" height="94.838" transform="translate(117.16 212.787) rotate(-18.171)" fill="#f5f5f5"/>
                <g id="Group_35" data-name="Group 35">
                  <path id="Path_25" data-name="Path 25" d="M229.869,175.793s-.184.07-.538.191l-1.573.53-6.108,2.034-23.047,7.63-81.37,26.83.148-.294c8.811,26.816,18.911,57.559,29.6,90.09l0,.01-.328-.166L259.378,265.7l-.138.273c-8.866-27.16-16.215-49.673-21.351-65.408l-5.94-18.275c-.679-2.105-1.2-3.72-1.556-4.82s-.524-1.672-.524-1.672.194.538.555,1.613.9,2.684,1.59,4.765c1.393,4.2,3.432,10.353,6.031,18.195,5.2,15.749,12.634,38.282,21.606,65.467l.068.206-.206.068-112.7,37.036-.247.081-.082-.248,0-.009c-10.669-32.537-20.752-63.286-29.546-90.107l-.073-.222.221-.072c33.537-10.958,61.747-20.175,81.587-26.656l23.036-7.5,6.081-1.967,1.557-.5C229.7,175.84,229.869,175.793,229.869,175.793Z" fill="#263238"/>
                </g>
              </g>
            </g>
          </g>
          <rect id="Rectangle_8" data-name="Rectangle 8" width="110.291" height="82.897" transform="translate(122.907 217.184) rotate(-18.171)" fill="#e8505b"/>
          <path id="Path_26" data-name="Path 26" d="M148.76,295.947l20.531-60.972,32.726,23.189,10-21.422,41.531,24.81Z" opacity="0.4"/>
          <g id="Group_40" data-name="Group 40" opacity="0.4">
            <g id="Group_39" data-name="Group 39">
              <path id="Path_27" data-name="Path 27" d="M199.619,218.378a8.684,8.684,0,1,1-10.959-5.543A8.683,8.683,0,0,1,199.619,218.378Z"/>
            </g>
          </g>
        </g>
        <g id="Group_69" data-name="Group 69">
          <g id="Group_68" data-name="Group 68">
            <g id="Group_42" data-name="Group 42">
              <path id="Path_28" data-name="Path 28" d="M221.435,260.114l3.061,56.3a3.8,3.8,0,0,0,3.767,3.6l101.3.742a3.8,3.8,0,0,0,3.829-3.773l.321-43.821a3.8,3.8,0,0,0-3.8-3.828l-62.3-.056a3.8,3.8,0,0,1-2.683-1.112l-10.75-10.745a3.8,3.8,0,0,0-2.659-1.113l-26.265-.192A3.8,3.8,0,0,0,221.435,260.114Z" fill="#e8505b"/>
            </g>
            <g id="Group_43" data-name="Group 43" opacity="0.2">
              <path id="Path_29" data-name="Path 29" d="M221.435,260.114l3.061,56.3a3.8,3.8,0,0,0,3.767,3.6l101.3.742a3.8,3.8,0,0,0,3.829-3.773l.321-43.821a3.8,3.8,0,0,0-3.8-3.828l-62.3-.056a3.8,3.8,0,0,1-2.683-1.112l-10.75-10.745a3.8,3.8,0,0,0-2.659-1.113l-26.265-.192A3.8,3.8,0,0,0,221.435,260.114Z"/>
            </g>
            <g id="Group_54" data-name="Group 54">
              <g id="Group_45" data-name="Group 45">
                <rect id="Rectangle_9" data-name="Rectangle 9" width="75.001" height="102.633" transform="translate(214.515 237.729) rotate(-24.525)" fill="#fff"/>
                <g id="Group_44" data-name="Group 44">
                  <path id="Path_30" data-name="Path 30" d="M325.351,299.971s-.086-.156-.228-.451l-.621-1.313c-.547-1.179-1.339-2.88-2.365-5.087L313.3,273.978c-7.535-16.417-18.22-39.694-30.863-67.24l.449.168-68.212,31.16-.008,0,.185-.5c15.89,34.888,30.6,67.187,42.539,93.4l-.4-.151L306.6,308.363l13.821-6.219,3.648-1.627c.829-.366,1.278-.546,1.278-.546s-.391.2-1.192.58l-3.567,1.665L306.9,308.55l-49.656,22.83-.277.128-.127-.279-42.665-93.344-.155-.341.341-.155.007,0c24.48-11.154,47.688-21.73,68.241-31.1l.31-.141.14.309c12.555,27.685,23.165,51.081,30.648,67.58l8.637,19.148,2.263,5.059c.244.555.432.982.569,1.3A3.837,3.837,0,0,1,325.351,299.971Z" fill="#263238"/>
                </g>
              </g>
              <g id="Group_46" data-name="Group 46">
                <path id="Path_31" data-name="Path 31" d="M264.807,237.457c.086.188-7.268,3.728-16.423,7.9s-16.65,7.412-16.736,7.224,7.267-3.727,16.425-7.9S264.721,237.269,264.807,237.457Z" fill="#263238"/>
              </g>
              <g id="Group_47" data-name="Group 47">
                <path id="Path_32" data-name="Path 32" d="M286.443,237.388c.085.188-11.283,5.56-25.39,12s-25.617,11.5-25.7,11.315,11.28-5.558,25.392-12S286.357,237.2,286.443,237.388Z" fill="#263238"/>
              </g>
              <g id="Group_48" data-name="Group 48">
                <path id="Path_33" data-name="Path 33" d="M290.3,245.853c.085.188-11.284,5.559-25.39,11.995s-25.618,11.5-25.7,11.316,11.28-5.558,25.392-12S290.219,245.665,290.3,245.853Z" fill="#263238"/>
              </g>
              <g id="Group_49" data-name="Group 49">
                <path id="Path_34" data-name="Path 34" d="M294.166,254.317c.086.188-11.283,5.56-25.389,12s-25.618,11.5-25.7,11.315,11.28-5.558,25.392-12S294.081,254.129,294.166,254.317Z" fill="#263238"/>
              </g>
              <g id="Group_50" data-name="Group 50">
                <path id="Path_35" data-name="Path 35" d="M298.028,262.782c.086.188-11.283,5.559-25.39,11.995s-25.617,11.5-25.7,11.316,11.281-5.558,25.393-12S297.943,262.594,298.028,262.782Z" fill="#263238"/>
              </g>
              <g id="Group_51" data-name="Group 51">
                <path id="Path_36" data-name="Path 36" d="M301.89,271.246c.086.188-11.283,5.559-25.39,12s-25.617,11.5-25.7,11.315,11.281-5.558,25.393-12S301.8,271.058,301.89,271.246Z" fill="#263238"/>
              </g>
              <g id="Group_52" data-name="Group 52">
                <path id="Path_37" data-name="Path 37" d="M305.752,279.711c.086.188-11.283,5.559-25.39,11.995s-25.617,11.5-25.7,11.316,11.281-5.558,25.393-12S305.666,279.523,305.752,279.711Z" fill="#263238"/>
              </g>
              <g id="Group_53" data-name="Group 53">
                <path id="Path_38" data-name="Path 38" d="M285.984,298.956c.086.188-5.993,3.146-13.575,6.605s-13.8,6.113-13.888,5.925,5.992-3.145,13.577-6.6S285.9,298.768,285.984,298.956Z" fill="#263238"/>
              </g>
            </g>
            <g id="Group_65" data-name="Group 65">
              <g id="Group_56" data-name="Group 56">
                <rect id="Rectangle_10" data-name="Rectangle 10" width="77.884" height="106.578" transform="translate(233.421 218.395) rotate(-13.949)" fill="#fff"/>
                <g id="Group_55" data-name="Group 55">
                  <path id="Path_39" data-name="Path 39" d="M334.7,303.055s-.058-.174-.146-.5c-.093-.352-.219-.833-.384-1.458-.334-1.307-.818-3.195-1.445-5.643-1.251-4.945-3.069-12.134-5.369-21.224-4.563-18.194-11.033-43.992-18.69-74.521l.427.257-75.57,18.808-.008,0,.283-.47c9.571,38.641,18.431,74.416,25.622,103.452l-.383-.231,54.927-13.473,15.293-3.715,4.034-.965c.916-.216,1.409-.315,1.409-.315s-.437.133-1.327.366l-3.959,1.02L314.229,308.3l-55.04,13.842-.307.077-.077-.308c-7.23-29.027-16.139-64.789-25.761-103.418l-.094-.377.377-.094.009,0,75.587-18.737.343-.085.084.342c7.54,30.654,13.912,56.558,18.406,74.827,2.213,9.076,3.963,16.255,5.167,21.192.584,2.428,1.034,4.3,1.346,5.6.143.613.254,1.085.334,1.43A4.027,4.027,0,0,1,334.7,303.055Z" fill="#263238"/>
                </g>
              </g>
              <g id="Group_57" data-name="Group 57">
                <path id="Path_40" data-name="Path 40" d="M284.811,227.7c.052.209-8.129,2.42-18.271,4.939s-18.409,4.394-18.461,4.185,8.128-2.419,18.273-4.939S284.76,227.494,284.811,227.7Z" fill="#263238"/>
              </g>
              <g id="Group_58" data-name="Group 58">
                <path id="Path_41" data-name="Path 41" d="M306.91,231.756c.052.208-12.577,3.524-28.2,7.406s-28.343,6.86-28.394,6.652,12.574-3.524,28.206-7.407S306.858,231.547,306.91,231.756Z" fill="#263238"/>
              </g>
              <g id="Group_59" data-name="Group 59">
                <path id="Path_42" data-name="Path 42" d="M309.239,241.132c.052.209-12.577,3.525-28.2,7.406s-28.343,6.861-28.4,6.653,12.575-3.524,28.207-7.407S309.187,240.924,309.239,241.132Z" fill="#263238"/>
              </g>
              <g id="Group_60" data-name="Group 60">
                <path id="Path_43" data-name="Path 43" d="M311.568,250.509c.052.208-12.577,3.524-28.2,7.406s-28.343,6.861-28.394,6.652,12.574-3.524,28.206-7.407S311.516,250.3,311.568,250.509Z" fill="#263238"/>
              </g>
              <g id="Group_61" data-name="Group 61">
                <path id="Path_44" data-name="Path 44" d="M313.9,259.885c.052.209-12.577,3.525-28.2,7.407s-28.343,6.86-28.395,6.652,12.575-3.524,28.208-7.407S313.845,259.677,313.9,259.885Z" fill="#263238"/>
              </g>
              <g id="Group_62" data-name="Group 62">
                <path id="Path_45" data-name="Path 45" d="M316.226,269.262c.052.208-12.577,3.525-28.2,7.406s-28.343,6.861-28.394,6.652,12.574-3.523,28.206-7.406S316.174,269.054,316.226,269.262Z" fill="#263238"/>
              </g>
              <g id="Group_63" data-name="Group 63">
                <path id="Path_46" data-name="Path 46" d="M318.555,278.639c.052.208-12.577,3.524-28.2,7.406s-28.343,6.86-28.394,6.652,12.574-3.524,28.207-7.407S318.5,278.43,318.555,278.639Z" fill="#263238"/>
              </g>
              <g id="Group_64" data-name="Group 64">
                <path id="Path_47" data-name="Path 47" d="M294.708,294.517c.052.208-6.717,2.069-15.117,4.155s-15.254,3.61-15.3,3.4,6.715-2.068,15.118-4.155S294.656,294.309,294.708,294.517Z" fill="#263238"/>
              </g>
            </g>
            <g id="Group_67" data-name="Group 67">
              <g id="Group_66" data-name="Group 66">
                <path id="Path_48" data-name="Path 48" d="M214.259,267.762,222.2,336.8a2.444,2.444,0,0,0,2.41,2.165l107.871.79a2.445,2.445,0,0,0,2.453-2.234l5.936-68.933a2.445,2.445,0,0,0-2.418-2.654l-121.751-.892A2.444,2.444,0,0,0,214.259,267.762Z" fill="#e8505b"/>
              </g>
            </g>
          </g>
        </g>
        <g id="Group_74" data-name="Group 74">
          <g id="Group_70" data-name="Group 70">
            <path id="Path_49" data-name="Path 49" d="M341.719,204.725c-.05-.031.342-.542.727-1.6a7.167,7.167,0,0,0,.047-4.646,6.982,6.982,0,0,0-4.856-4.568,6.874,6.874,0,0,0-4.024.145,6.912,6.912,0,0,0-4.7,6.707,6.876,6.876,0,0,0,1.242,3.831,6.982,6.982,0,0,0,5.955,3,7.161,7.161,0,0,0,4.348-1.635c.864-.725,1.21-1.268,1.256-1.231a1.535,1.535,0,0,1-.24.394,5.663,5.663,0,0,1-.883.99,7.153,7.153,0,0,1-4.466,1.85,7.279,7.279,0,0,1-3.343-.617,7.388,7.388,0,0,1-3.02-2.475,7.309,7.309,0,0,1-1.359-4.094,7.378,7.378,0,0,1,5.042-7.2,7.312,7.312,0,0,1,4.311-.124,7.393,7.393,0,0,1,3.36,1.99,7.278,7.278,0,0,1,1.723,2.929,7.148,7.148,0,0,1-.209,4.83,5.609,5.609,0,0,1-.628,1.169C341.832,204.611,341.734,204.735,341.719,204.725Z" fill="#263238"/>
          </g>
          <g id="Group_71" data-name="Group 71">
            <path id="Path_50" data-name="Path 50" d="M361.672,218.69c-.05-.03.342-.541.726-1.6a7.159,7.159,0,0,0,.048-4.646,6.981,6.981,0,0,0-4.857-4.568,6.871,6.871,0,0,0-4.023.145,6.906,6.906,0,0,0-4.7,6.707,6.869,6.869,0,0,0,1.241,3.83,6.983,6.983,0,0,0,5.955,3,7.167,7.167,0,0,0,4.349-1.636c.864-.724,1.21-1.267,1.256-1.231a1.556,1.556,0,0,1-.241.4,5.648,5.648,0,0,1-.882.99,7.148,7.148,0,0,1-4.467,1.849,7.263,7.263,0,0,1-3.342-.616,7.39,7.39,0,0,1-3.021-2.475,7.316,7.316,0,0,1-1.359-4.094,7.381,7.381,0,0,1,5.042-7.2,7.351,7.351,0,0,1,9.395,4.795,7.149,7.149,0,0,1-.209,4.83,5.643,5.643,0,0,1-.628,1.168C361.785,218.577,361.686,218.7,361.672,218.69Z" fill="#263238"/>
          </g>
          <g id="Group_72" data-name="Group 72">
            <path id="Path_51" data-name="Path 51" d="M361.752,218.812a2.828,2.828,0,0,1,.256-.5l.809-1.392c.7-1.221,1.72-3,2.9-5.3s2.5-5.116,3.865-8.375,2.8-6.941,4.394-10.894l.127.317a76.084,76.084,0,0,1-22.073-15.009l.421-.209a30.655,30.655,0,0,1-1.135,12.411,31.132,31.132,0,0,1-4.275,8.878,29.3,29.3,0,0,1-4.242,4.889c-.546.521-1.02.864-1.319,1.118a2.986,2.986,0,0,1-.48.356,3.242,3.242,0,0,1,.424-.422c.28-.275.735-.637,1.26-1.174a31.814,31.814,0,0,0,8.223-13.767,30.561,30.561,0,0,0,1.049-12.228l-.081-.7.5.487A77.222,77.222,0,0,0,374.3,192.225l.216.1-.089.219c-1.608,3.942-3.063,7.621-4.467,10.872s-2.758,6.069-3.978,8.353-2.284,4.045-3.026,5.241l-.878,1.353A2.906,2.906,0,0,1,361.752,218.812Z" fill="#263238"/>
          </g>
          <g id="Group_73" data-name="Group 73">
            <path id="Path_52" data-name="Path 52" d="M370.376,202.4c-.082.118-4.339-2.719-9.507-6.336s-9.292-6.646-9.209-6.764,4.338,2.719,9.508,6.337S370.459,202.278,370.376,202.4Z" fill="#263238"/>
          </g>
        </g>
        <g id="Group_85" data-name="Group 85">
          <g id="Group_79" data-name="Group 79">
            <g id="Group_76" data-name="Group 76">
              <g id="Group_75" data-name="Group 75">
                <path id="Path_53" data-name="Path 53" d="M292.716,303.342c-.228.02-.105-2.072-1.36-5.013a14.661,14.661,0,0,0-3.1-4.557,14.361,14.361,0,0,0-5.734-3.427,14.523,14.523,0,0,0-6.675-.367,14.287,14.287,0,0,0-5.114,2.046c-2.666,1.757-3.762,3.534-3.927,3.4-.053-.034.141-.517.685-1.272a12.72,12.72,0,0,1,2.783-2.792,14,14,0,0,1,5.366-2.414,14.347,14.347,0,0,1,13.366,4.087,14.321,14.321,0,0,1,3.1,5,12.991,12.991,0,0,1,.758,3.87C292.845,302.837,292.8,303.342,292.716,303.342Z" fill="#fff"/>
              </g>
            </g>
            <g id="Group_78" data-name="Group 78">
              <g id="Group_77" data-name="Group 77">
                <path id="Path_54" data-name="Path 54" d="M285.957,298.319c.191-.251,3.325,1.811,7,4.606l.205.156-.884.266c1.493-4.247,2.918-7.563,3.21-7.461s-.657,3.584-2.133,7.837l-.257.742-.627-.476-.2-.155C288.59,301.039,285.766,298.57,285.957,298.319Z" fill="#fff"/>
              </g>
            </g>
          </g>
          <g id="Group_84" data-name="Group 84">
            <g id="Group_81" data-name="Group 81">
              <g id="Group_80" data-name="Group 80">
                <path id="Path_55" data-name="Path 55" d="M266.037,300.993c.232.01-.139,2.01.7,5a14.474,14.474,0,0,0,2.371,4.8,13.828,13.828,0,0,0,5,4.131,15.712,15.712,0,0,0,1.582.671c.543.152,1.072.336,1.61.44a14.109,14.109,0,0,0,8.383-.739,16.207,16.207,0,0,0,3.212-1.766c.722-.5,1.1-.811,1.167-.745.046.045-.229.47-.886,1.09a12.466,12.466,0,0,1-3.163,2.158,13.828,13.828,0,0,1-5.547,1.378,14.382,14.382,0,0,1-3.395-.281c-.582-.106-1.159-.3-1.748-.46a15.908,15.908,0,0,1-1.718-.72,14.216,14.216,0,0,1-7.655-9.76,13.928,13.928,0,0,1-.285-2.175c-.01-.644.014-1.2.045-1.647C265.849,301.464,265.959,300.983,266.037,300.993Z" fill="#fff"/>
              </g>
            </g>
            <g id="Group_83" data-name="Group 83">
              <g id="Group_82" data-name="Group 82">
                <path id="Path_56" data-name="Path 56" d="M272.131,306.8c-.22.226-3.078-2.2-6.382-5.427l-.185-.179.911-.157c-2,4.033-3.821,7.15-4.1,7.013s1.091-3.477,3.075-7.518l.346-.7.565.549.184.18C269.851,303.783,272.352,306.579,272.131,306.8Z" fill="#fff"/>
              </g>
            </g>
          </g>
        </g>
      </g>
    </g>
    <g id="Server">
      <g id="Group_100" data-name="Group 100">
        <g id="Group_89" data-name="Group 89">
          <g id="Group_88" data-name="Group 88">
            <g id="Group_87" data-name="Group 87">
              <rect id="Rectangle_11" data-name="Rectangle 11" width="127.17" height="34.444" transform="translate(531.308 343.405)" fill="#455a64"/>
              <rect id="Rectangle_12" data-name="Rectangle 12" width="6.852" height="26.361" transform="translate(534.722 347.735)" fill="#263238"/>
              <path id="Path_57" data-name="Path 57" d="M549.645,353.28a2.178,2.178,0,1,1-2.178-2.177A2.178,2.178,0,0,1,549.645,353.28Z" fill="#fff"/>
              <path id="Path_58" data-name="Path 58" d="M549.645,362.6a2.178,2.178,0,1,1-2.178-2.178A2.177,2.177,0,0,1,549.645,362.6Z" fill="#fff"/>
              <rect id="Rectangle_13" data-name="Rectangle 13" width="6.732" height="20.249" transform="translate(558.348 351.103)" fill="#263238"/>
              <rect id="Rectangle_14" data-name="Rectangle 14" width="6.732" height="20.249" transform="translate(568.072 351.103)" fill="#263238"/>
              <rect id="Rectangle_15" data-name="Rectangle 15" width="6.732" height="20.249" transform="translate(577.797 351.103)" fill="#263238"/>
              <rect id="Rectangle_16" data-name="Rectangle 16" width="6.732" height="20.249" transform="translate(587.521 351.103)" fill="#263238"/>
              <rect id="Rectangle_17" data-name="Rectangle 17" width="6.732" height="20.249" transform="translate(597.245 351.103)" fill="#263238"/>
              <rect id="Rectangle_18" data-name="Rectangle 18" width="6.732" height="20.249" transform="translate(606.97 351.103)" fill="#263238"/>
              <rect id="Rectangle_19" data-name="Rectangle 19" width="6.732" height="20.249" transform="translate(616.694 351.103)" fill="#263238"/>
              <rect id="Rectangle_20" data-name="Rectangle 20" width="6.732" height="20.249" transform="translate(626.419 351.103)" fill="#263238"/>
              <rect id="Rectangle_21" data-name="Rectangle 21" width="6.732" height="20.249" transform="translate(636.143 351.103)" fill="#263238"/>
              <rect id="Rectangle_22" data-name="Rectangle 22" width="6.732" height="20.249" transform="translate(645.867 351.103)" fill="#263238"/>
            </g>
            <rect id="Rectangle_23" data-name="Rectangle 23" width="22.718" height="34.444" transform="translate(658.478 343.405)" fill="#263238"/>
          </g>
        </g>
        <g id="Group_92" data-name="Group 92">
          <g id="Group_91" data-name="Group 91">
            <g id="Group_90" data-name="Group 90">
              <rect id="Rectangle_24" data-name="Rectangle 24" width="127.17" height="34.444" transform="translate(531.308 381.401)" fill="#455a64"/>
              <rect id="Rectangle_25" data-name="Rectangle 25" width="6.852" height="26.361" transform="translate(534.722 385.731)" fill="#263238"/>
              <path id="Path_59" data-name="Path 59" d="M549.645,391.276a2.178,2.178,0,1,1-2.178-2.177A2.177,2.177,0,0,1,549.645,391.276Z" fill="#fff"/>
              <path id="Path_60" data-name="Path 60" d="M549.645,400.591a2.178,2.178,0,1,1-2.178-2.178A2.178,2.178,0,0,1,549.645,400.591Z" fill="#fff"/>
              <rect id="Rectangle_26" data-name="Rectangle 26" width="6.732" height="20.25" transform="translate(558.348 389.099)" fill="#263238"/>
              <rect id="Rectangle_27" data-name="Rectangle 27" width="6.732" height="20.25" transform="translate(568.072 389.099)" fill="#263238"/>
              <rect id="Rectangle_28" data-name="Rectangle 28" width="6.732" height="20.25" transform="translate(577.797 389.099)" fill="#263238"/>
              <rect id="Rectangle_29" data-name="Rectangle 29" width="6.732" height="20.25" transform="translate(587.521 389.099)" fill="#263238"/>
              <rect id="Rectangle_30" data-name="Rectangle 30" width="6.732" height="20.25" transform="translate(597.245 389.099)" fill="#263238"/>
              <rect id="Rectangle_31" data-name="Rectangle 31" width="6.732" height="20.25" transform="translate(606.97 389.099)" fill="#263238"/>
              <rect id="Rectangle_32" data-name="Rectangle 32" width="6.732" height="20.25" transform="translate(616.694 389.099)" fill="#263238"/>
              <rect id="Rectangle_33" data-name="Rectangle 33" width="6.732" height="20.25" transform="translate(626.419 389.099)" fill="#263238"/>
              <rect id="Rectangle_34" data-name="Rectangle 34" width="6.732" height="20.25" transform="translate(636.143 389.099)" fill="#263238"/>
              <rect id="Rectangle_35" data-name="Rectangle 35" width="6.732" height="20.25" transform="translate(645.867 389.099)" fill="#263238"/>
            </g>
            <rect id="Rectangle_36" data-name="Rectangle 36" width="22.718" height="34.444" transform="translate(658.478 381.401)" fill="#263238"/>
          </g>
        </g>
        <g id="Group_95" data-name="Group 95">
          <g id="Group_94" data-name="Group 94">
            <g id="Group_93" data-name="Group 93">
              <rect id="Rectangle_37" data-name="Rectangle 37" width="127.17" height="34.444" transform="translate(531.308 418.869)" fill="#455a64"/>
              <rect id="Rectangle_38" data-name="Rectangle 38" width="6.852" height="26.361" transform="translate(534.722 423.199)" fill="#263238"/>
              <path id="Path_61" data-name="Path 61" d="M549.645,428.744a2.178,2.178,0,1,1-2.178-2.177A2.178,2.178,0,0,1,549.645,428.744Z" fill="#fff"/>
              <path id="Path_62" data-name="Path 62" d="M549.645,438.059a2.178,2.178,0,1,1-2.178-2.178A2.178,2.178,0,0,1,549.645,438.059Z" fill="#fff"/>
              <rect id="Rectangle_39" data-name="Rectangle 39" width="6.732" height="20.249" transform="translate(558.348 426.567)" fill="#263238"/>
              <rect id="Rectangle_40" data-name="Rectangle 40" width="6.732" height="20.249" transform="translate(568.072 426.567)" fill="#263238"/>
              <rect id="Rectangle_41" data-name="Rectangle 41" width="6.732" height="20.249" transform="translate(577.797 426.567)" fill="#263238"/>
              <rect id="Rectangle_42" data-name="Rectangle 42" width="6.732" height="20.249" transform="translate(587.521 426.567)" fill="#263238"/>
              <rect id="Rectangle_43" data-name="Rectangle 43" width="6.732" height="20.249" transform="translate(597.245 426.567)" fill="#263238"/>
              <rect id="Rectangle_44" data-name="Rectangle 44" width="6.732" height="20.249" transform="translate(606.97 426.567)" fill="#263238"/>
              <rect id="Rectangle_45" data-name="Rectangle 45" width="6.732" height="20.249" transform="translate(616.694 426.567)" fill="#263238"/>
              <rect id="Rectangle_46" data-name="Rectangle 46" width="6.732" height="20.249" transform="translate(626.419 426.567)" fill="#263238"/>
              <rect id="Rectangle_47" data-name="Rectangle 47" width="6.732" height="20.249" transform="translate(636.143 426.567)" fill="#263238"/>
              <rect id="Rectangle_48" data-name="Rectangle 48" width="6.732" height="20.249" transform="translate(645.867 426.567)" fill="#263238"/>
            </g>
            <rect id="Rectangle_49" data-name="Rectangle 49" width="22.718" height="34.444" transform="translate(658.478 418.869)" fill="#263238"/>
          </g>
        </g>
        <rect id="Rectangle_50" data-name="Rectangle 50" width="8.672" height="6.018" transform="translate(681.196 360.418)" fill="#263238"/>
        <path id="Path_63" data-name="Path 63" d="M577.108,198.123v-6.474a.92.92,0,0,1,.92-.92h6.017a.92.92,0,0,1,.92.92v6.474a3.928,3.928,0,0,1-3.928,3.928h0A3.929,3.929,0,0,1,577.108,198.123Z" fill="#263238"/>
        <rect id="Rectangle_51" data-name="Rectangle 51" width="8.672" height="6.018" transform="translate(681.196 396.921)" fill="#263238"/>
        <rect id="Rectangle_52" data-name="Rectangle 52" width="8.672" height="6.018" transform="translate(681.196 432.007)" fill="#263238"/>
        <rect id="Rectangle_53" data-name="Rectangle 53" width="8.672" height="6.018" transform="translate(522.049 432.007)" fill="#263238"/>
        <g id="Group_96" data-name="Group 96">
          <path id="Path_64" data-name="Path 64" d="M709.759,380.7a5.557,5.557,0,0,1,.039,1.232,8.835,8.835,0,0,1-.092,1.445,14.992,14.992,0,0,1-.306,1.9,16,16,0,0,1-.636,2.244c-.149.392-.265.815-.456,1.219l-.589,1.25a19.529,19.529,0,0,1-8.565,8.564l-1.249.59c-.405.191-.827.307-1.219.456a16.169,16.169,0,0,1-2.245.635,14.625,14.625,0,0,1-1.9.306,8.841,8.841,0,0,1-1.444.093,5.633,5.633,0,0,1-1.232-.039c-.007-.124,1.764-.06,4.49-.718a16.981,16.981,0,0,0,2.181-.683c.38-.155.79-.276,1.182-.47l1.211-.6a19.871,19.871,0,0,0,8.361-8.36q.3-.619.595-1.211c.2-.392.315-.8.47-1.182a16.978,16.978,0,0,0,.683-2.181C709.7,382.463,709.635,380.693,709.759,380.7Z" fill="#263238"/>
        </g>
        <g id="Group_97" data-name="Group 97">
          <path id="Path_65" data-name="Path 65" d="M709.759,342.872a5.557,5.557,0,0,1,.039,1.232,8.835,8.835,0,0,1-.092,1.445,15.021,15.021,0,0,1-.306,1.9,16.037,16.037,0,0,1-.636,2.244c-.149.392-.265.814-.456,1.219s-.388.823-.589,1.249a19.524,19.524,0,0,1-8.565,8.565l-1.249.589c-.405.191-.827.307-1.219.456a16.05,16.05,0,0,1-2.245.636,14.625,14.625,0,0,1-1.9.306,8.831,8.831,0,0,1-1.444.092,5.553,5.553,0,0,1-1.232-.039c-.007-.124,1.764-.06,4.49-.718a16.986,16.986,0,0,0,2.181-.683c.38-.154.79-.275,1.182-.469l1.211-.6a19.865,19.865,0,0,0,8.361-8.361q.3-.619.595-1.21c.2-.392.315-.8.47-1.183a16.881,16.881,0,0,0,.683-2.181C709.7,344.636,709.635,342.865,709.759,342.872Z" fill="#263238"/>
        </g>
        <g id="Group_98" data-name="Group 98">
          <path id="Path_66" data-name="Path 66" d="M526.385,435.015s-.156.018-.459.027l-1.345.026-5.173.049-19.027.083-62.771.076-17.895-.006-8.509-.006c-2.785-.035-5.489.078-8.175-.126a27.1,27.1,0,0,1-7.583-1.828,18.54,18.54,0,0,1-1.718-.784,12.9,12.9,0,0,1-1.639-.875l-1.561-.957-1.441-1.081a12.683,12.683,0,0,1-1.35-1.142c-.424-.4-.878-.767-1.266-1.19a26.3,26.3,0,0,1-7.5-18.667c.017-3.184.032-5.93.044-8.185.021-2.226.037-3.964.049-5.172.011-.573.019-1.019.026-1.345.008-.3.026-.459.026-.459s.018.156.027.459c.006.326.015.772.026,1.345.011,1.208.027,2.946.049,5.172.012,2.255.027,5,.044,8.185a25.8,25.8,0,0,0,5.342,15.85,26.276,26.276,0,0,0,2.163,2.525c.383.415.833.771,1.251,1.166a12.617,12.617,0,0,0,1.333,1.118l1.421,1.058,1.539.935a12.534,12.534,0,0,0,1.614.854,18.026,18.026,0,0,0,1.69.766,26.731,26.731,0,0,0,7.453,1.774c2.615.194,5.36.078,8.134.107l8.509-.007,17.895-.005,62.771.076,19.027.083,5.173.049,1.345.026C526.229,435,526.385,435.015,526.385,435.015Z" fill="#263238"/>
        </g>
        <g id="Group_99" data-name="Group 99">
          <path id="Path_67" data-name="Path 67" d="M581.037,200.4s.016.31.022.915.007,1.514.012,2.685c0,2.375,0,5.852,0,10.326-.024,8.98-.06,21.951-.1,37.976-.029,8.018-.062,16.8-.1,26.225q-.015,3.534-.029,7.189-.006,1.827-.014,3.682c.038,1.23.115,2.464.18,3.709a33.907,33.907,0,0,0,5.025,14.391,33.269,33.269,0,0,0,11.53,11.09c.3.175.584.365.888.528l.934.449,1.876.9,1.963.721a14.019,14.019,0,0,0,2,.639l2.045.525c.685.169,1.394.229,2.092.35a30.247,30.247,0,0,0,4.252.371c11.522.069,23.473.015,35.7.031l35.718,0,8.575.007a16.473,16.473,0,0,1,16.355,15.752c-.008,21.2-.014,40.3-.02,56.337q-.009,6.012-.018,11.437-.006,2.707-.01,5.26a32.223,32.223,0,0,1-.248,4.948,21.2,21.2,0,0,1-3.069,8.313,21.455,21.455,0,0,1-5.031,5.5,20.783,20.783,0,0,1-9.406,4.078c-.586.079-1.1.172-1.547.21l-1.128.044c-.605.022-.914.019-.914.019s.309-.033.912-.072l1.123-.07c.444-.046.955-.147,1.536-.235a20.9,20.9,0,0,0,9.3-4.134,21.325,21.325,0,0,0,4.945-5.477,20.959,20.959,0,0,0,2.99-8.22,31.942,31.942,0,0,0,.225-4.908q0-2.551-.009-5.26-.009-5.418-.019-11.437c-.026-16.034-.057-35.121-.092-56.316a15.985,15.985,0,0,0-15.877-15.269h-8.573l-35.718.006c-12.233-.017-24.169.034-35.712-.042a30.69,30.69,0,0,1-4.317-.379c-.708-.123-1.428-.186-2.123-.357l-2.076-.535a14.315,14.315,0,0,1-2.03-.649l-1.992-.735-1.9-.917-.948-.457c-.308-.166-.6-.359-.9-.537a33.743,33.743,0,0,1-11.685-11.263,34.332,34.332,0,0,1-5.075-14.6c-.065-1.261-.141-2.517-.177-3.757q.011-1.855.021-3.682.021-3.654.042-7.19c.057-9.425.111-18.206.16-26.224.113-16.025.205-29,.268-37.976.043-4.474.077-7.951.1-10.325q.026-1.757.038-2.685C581.017,200.706,581.037,200.4,581.037,200.4Z" fill="#263238"/>
        </g>
      </g>
    </g>
    <g id="Character">
      <g id="Group_304" data-name="Group 304">
        <g id="Group_145" data-name="Group 145">
          <path id="Path_68" data-name="Path 68" d="M545.306,206.618c-2.216-.5-2.705-3.119-2.907-4.588a5.011,5.011,0,0,1,1.33-4.089c1.977-2.058,5.314-2.022,8.035-1.162a39.333,39.333,0,0,0,6.505,1.882c2.182.372,5.11-.516,8.2.976,2.355,1.138,2.045,3.257,3.209,4,1.187.755,1.838,1.44,3.013,2.214,1.515,1,1.628,3.171,1.313,4.957s-.881,3.682-.175,5.352c.495,1.169,1.554,2.035,2.018,3.217a3.711,3.711,0,0,1-1.632,4.468,6.342,6.342,0,0,0-1.573.874,5.533,5.533,0,0,0-.929,2.361,4.194,4.194,0,0,1-3.691,2.851,3.783,3.783,0,0,1-3.722-2.69,8.133,8.133,0,0,1,.478-4.1,26.129,26.129,0,0,0,.508-11.146" fill="#263238"/>
          <g id="Group_136" data-name="Group 136">
            <g id="Group_135" data-name="Group 135">
              <g id="Group_134" data-name="Group 134">
                <g id="Group_122" data-name="Group 122">
                  <g id="Group_121" data-name="Group 121">
                    <g id="Group_120" data-name="Group 120">
                      <g id="Group_102" data-name="Group 102">
                        <g id="Group_101" data-name="Group 101">
                          <path id="Path_69" data-name="Path 69" d="M565.087,241.443l-14.538-1.161c-.09-1.7.031-8.263.031-8.263s-6.048-.941-6.123-6.988.974-19.935.974-19.935h0a21.021,21.021,0,0,1,21.119,2.655l.9.69Z" fill="#ffbe9d"/>
                        </g>
                      </g>
                      <g id="Group_108" data-name="Group 108">
                        <g id="Group_104" data-name="Group 104">
                          <g id="Group_103" data-name="Group 103">
                            <path id="Path_70" data-name="Path 70" d="M547.016,215.95a.878.878,0,1,0-1.241-.061A.879.879,0,0,0,547.016,215.95Z" fill="#263238"/>
                          </g>
                        </g>
                        <g id="Group_107" data-name="Group 107">
                          <g id="Group_106" data-name="Group 106">
                            <g id="Group_105" data-name="Group 105">
                              <path id="Path_71" data-name="Path 71" d="M545.356,214.109c.095.105.689-.352,1.522-.356s1.437.426,1.529.319c.045-.047-.049-.236-.313-.437a2.053,2.053,0,0,0-2.435.03C545.4,213.872,545.31,214.063,545.356,214.109Z" fill="#263238"/>
                            </g>
                          </g>
                        </g>
                      </g>
                      <g id="Group_114" data-name="Group 114">
                        <g id="Group_110" data-name="Group 110">
                          <g id="Group_109" data-name="Group 109">
                            <path id="Path_72" data-name="Path 72" d="M554.974,214.745a.878.878,0,1,0,1.208.288A.878.878,0,0,0,554.974,214.745Z" fill="#263238"/>
                          </g>
                        </g>
                        <g id="Group_113" data-name="Group 113">
                          <g id="Group_112" data-name="Group 112">
                            <g id="Group_111" data-name="Group 111">
                              <path id="Path_73" data-name="Path 73" d="M554.425,214.468c.094.1.688-.353,1.521-.357s1.437.427,1.53.32c.045-.048-.05-.236-.314-.437a2.055,2.055,0,0,0-2.435.029C554.468,214.23,554.379,214.421,554.425,214.468Z" fill="#263238"/>
                            </g>
                          </g>
                        </g>
                      </g>
                      <g id="Group_117" data-name="Group 117">
                        <g id="Group_116" data-name="Group 116">
                          <g id="Group_115" data-name="Group 115">
                            <path id="Path_74" data-name="Path 74" d="M551.063,221.714a4.047,4.047,0,0,0-1.347-.285c-.217-.024-.388-.073-.4-.19a1.183,1.183,0,0,1,.156-.624c.214-.551.431-1.109.659-1.693a23.089,23.089,0,0,0,1.425-4.449,23.242,23.242,0,0,0-1.869,4.282c-.215.589-.42,1.151-.624,1.706a1.392,1.392,0,0,0-.119.9.572.572,0,0,0,.376.348,1.393,1.393,0,0,0,.371.049A4.016,4.016,0,0,0,551.063,221.714Z" fill="#263238"/>
                          </g>
                        </g>
                      </g>
                      <g id="Group_119" data-name="Group 119">
                        <g id="Group_118" data-name="Group 118">
                          <path id="Path_75" data-name="Path 75" d="M550.57,231.931a14.064,14.064,0,0,0,7.884-2.24s-1.863,4.352-7.9,3.807Z" fill="#eb996e"/>
                        </g>
                      </g>
                    </g>
                  </g>
                </g>
                <g id="Group_123" data-name="Group 123">
                  <path id="Path_76" data-name="Path 76" d="M545.306,206.618a10.082,10.082,0,0,0,8.491.018c3.249-1.333,6.959-1.826,7.718-1.137s.689,3.932,3.724,5.1c0,0-.669,6.146,1.8,6.108s1.644-9.694,1.644-9.694l-5.793-3.38-6.466-1.724-6.244.414-4.878.955Z" fill="#263238"/>
                </g>
                <g id="Group_129" data-name="Group 129">
                  <g id="Group_125" data-name="Group 125">
                    <g id="Group_124" data-name="Group 124">
                      <path id="Path_77" data-name="Path 77" d="M566.7,214.705c.1-.045,4.155-1.229,4.023,2.906s-4.256,3.149-4.259,3.03S566.7,214.705,566.7,214.705Z" fill="#ffbe9d"/>
                    </g>
                  </g>
                  <g id="Group_128" data-name="Group 128">
                    <g id="Group_127" data-name="Group 127">
                      <g id="Group_126" data-name="Group 126">
                        <path id="Path_78" data-name="Path 78" d="M567.778,219.115c.019-.013.07.053.19.112a.72.72,0,0,0,.538.029,1.784,1.784,0,0,0,.876-1.573,2.373,2.373,0,0,0-.169-1.038.831.831,0,0,0-.524-.57.366.366,0,0,0-.431.184c-.059.114-.036.2-.058.2s-.086-.072-.047-.241a.455.455,0,0,1,.17-.254.546.546,0,0,1,.4-.093,1.015,1.015,0,0,1,.732.665,2.45,2.45,0,0,1,.213,1.161,1.872,1.872,0,0,1-1.108,1.752.772.772,0,0,1-.655-.131C567.782,219.215,567.763,219.122,567.778,219.115Z" fill="#eb996e"/>
                      </g>
                    </g>
                  </g>
                </g>
                <g id="Group_131" data-name="Group 131">
                  <g id="Group_130" data-name="Group 130">
                    <path id="Path_79" data-name="Path 79" d="M548.883,212.959c-.135.24-.927.045-1.874.013-.946-.053-1.752.072-1.865-.18-.123-.232.705-.849,1.909-.793S549.027,212.739,548.883,212.959Z" fill="#263238"/>
                  </g>
                </g>
                <g id="Group_133" data-name="Group 133">
                  <g id="Group_132" data-name="Group 132">
                    <path id="Path_80" data-name="Path 80" d="M558.531,213.132c-.135.24-.927.044-1.874.013-.947-.053-1.753.072-1.866-.18-.123-.232.7-.849,1.909-.793S558.674,212.912,558.531,213.132Z" fill="#263238"/>
                  </g>
                </g>
              </g>
            </g>
          </g>
          <path id="Path_81" data-name="Path 81" d="M558.269,204.573a8.7,8.7,0,0,0,9.177,8.212,16.1,16.1,0,0,0-2.538-6.576c-1.448-1.877-3.991-3.114-6.232-2.342" fill="#263238"/>
          <g id="Group_137" data-name="Group 137">
            <path id="Path_82" data-name="Path 82" d="M554.357,221.544c.052,0,.1.254.006.648a2.593,2.593,0,0,1-2.27,1.944c-.4.03-.644-.054-.64-.106a5.693,5.693,0,0,0,1.812-.823C554.1,222.494,554.241,221.519,554.357,221.544Z" fill="#263238"/>
          </g>
          <g id="Group_138" data-name="Group 138">
            <path id="Path_83" data-name="Path 83" d="M554.885,221.974c-.046.037-.285-.208-.678-.251s-.685.121-.719.073c-.05-.034.26-.344.745-.279S554.942,221.954,554.885,221.974Z" fill="#263238"/>
          </g>
          <g id="Group_139" data-name="Group 139">
            <path id="Path_84" data-name="Path 84" d="M569.411,220.34a1.093,1.093,0,0,1,.173.976,1.41,1.41,0,0,1-.634.909,1.507,1.507,0,0,1-1.351.072,1.37,1.37,0,0,1-.816-1.073,1.454,1.454,0,0,1,.249-1.078c.41-.546.923-.437.887-.408a1.078,1.078,0,0,0-.766.492,1.351,1.351,0,0,0-.181.963,1.2,1.2,0,0,0,.71.913,1.344,1.344,0,0,0,1.172-.047,1.3,1.3,0,0,0,.587-.778A1.828,1.828,0,0,0,569.411,220.34Z" fill="#455a64"/>
          </g>
          <g id="Group_140" data-name="Group 140">
            <path id="Path_85" data-name="Path 85" d="M543.39,198.347a4.386,4.386,0,0,0,.159.912,3.783,3.783,0,0,0,1.5,1.953,7.461,7.461,0,0,0,3.532,1.1,11.567,11.567,0,0,0,4.531-.5c1.561-.46,2.839-1.477,4.3-1.718a4.228,4.228,0,0,1,3.564,1.091,4.165,4.165,0,0,1,1.21,2.238,2.934,2.934,0,0,1,.043.938,8.041,8.041,0,0,0-.123-.921,4.2,4.2,0,0,0-1.231-2.148,4.105,4.105,0,0,0-3.431-1.009c-1.389.232-2.672,1.25-4.27,1.728a11.562,11.562,0,0,1-4.613.492,7.48,7.48,0,0,1-3.6-1.169,3.784,3.784,0,0,1-1.5-2.051A2.191,2.191,0,0,1,543.39,198.347Z" fill="#455a64"/>
          </g>
          <g id="Group_141" data-name="Group 141">
            <path id="Path_86" data-name="Path 86" d="M562.13,204.226a2.391,2.391,0,0,1,.781-.762,3.181,3.181,0,0,1,2.9-.326,3.35,3.35,0,0,1,1.594,1.316,4.139,4.139,0,0,1,.534,2.31,20.6,20.6,0,0,0-.01,2.585,2.838,2.838,0,0,0,1.429,2.174,9.549,9.549,0,0,1,2.313,1.6,4.627,4.627,0,0,1,.951,2.444c.174,1.674-.083,3.169.163,4.4a3.844,3.844,0,0,0,1.413,2.481,3.027,3.027,0,0,0,.973.449,1.933,1.933,0,0,1-1.02-.382,3.875,3.875,0,0,1-1.511-2.521c-.268-1.253-.026-2.771-.208-4.4a4.455,4.455,0,0,0-.917-2.335,9.53,9.53,0,0,0-2.27-1.553,3.368,3.368,0,0,1-1.055-.992,3.109,3.109,0,0,1-.463-1.331,20,20,0,0,1,.02-2.612,3.979,3.979,0,0,0-.489-2.217,3.22,3.22,0,0,0-1.5-1.272,3.131,3.131,0,0,0-2.8.258A4.308,4.308,0,0,0,562.13,204.226Z" fill="#455a64"/>
          </g>
          <g id="Group_142" data-name="Group 142">
            <path id="Path_87" data-name="Path 87" d="M573.818,207.874a.736.736,0,0,0-.074-.55,1.213,1.213,0,0,0-1.377-.429,6.023,6.023,0,0,1-1.117.144,1.7,1.7,0,0,1-1.182-.57c-.678-.682-.825-1.746-1.421-2.555A3.946,3.946,0,0,0,566.3,202.4a3.775,3.775,0,0,0-2.286.238,4.624,4.624,0,0,0-1.7,1.325,2.276,2.276,0,0,1,.337-.49,3.935,3.935,0,0,1,3.687-1.261,4.08,4.08,0,0,1,2.472,1.58c.631.875.77,1.918,1.393,2.545a1.527,1.527,0,0,0,1.05.529,6.146,6.146,0,0,0,1.088-.117,1.953,1.953,0,0,1,.938.063.955.955,0,0,1,.532.475A.547.547,0,0,1,573.818,207.874Z" fill="#455a64"/>
          </g>
          <g id="Group_143" data-name="Group 143">
            <path id="Path_88" data-name="Path 88" d="M560.582,198.762a.538.538,0,0,1,.275-.059,1.759,1.759,0,0,1,.757.139,2.485,2.485,0,0,1,1.445,1.987,5.054,5.054,0,0,1-.332,2.476,4.2,4.2,0,0,1-.419.942,6.31,6.31,0,0,1,.279-.988,5.492,5.492,0,0,0,.267-2.4,2.432,2.432,0,0,0-1.3-1.886A2.639,2.639,0,0,0,560.582,198.762Z" fill="#455a64"/>
          </g>
          <g id="Group_144" data-name="Group 144">
            <path id="Path_89" data-name="Path 89" d="M546.5,206.98a11.342,11.342,0,0,0,2.445.5,8.765,8.765,0,0,0,5.676-1.57c.948-.685,1.677-1.578,2.549-2.164a3.306,3.306,0,0,1,2.653-.582,5.724,5.724,0,0,1,1.717.7c.188.111.329.2.424.27s.141.1.137.109a6.256,6.256,0,0,1-.6-.308,6.222,6.222,0,0,0-1.7-.623,3.177,3.177,0,0,0-2.517.6c-.837.573-1.558,1.465-2.536,2.175a8.674,8.674,0,0,1-5.81,1.548A6.628,6.628,0,0,1,546.5,206.98Z" fill="#455a64"/>
          </g>
        </g>
        <g id="Group_214" data-name="Group 214">
          <path id="Path_90" data-name="Path 90" d="M513.143,415.285l1.329,14.567,15.07,1.617V413.59Z" fill="#e0e0e0"/>
          <path id="Path_91" data-name="Path 91" d="M513.724,421.661h15.818V423.4l-15.623.389Z" fill="#455a64"/>
          <path id="Path_92" data-name="Path 92" d="M514.034,425.057l.177,1.936,15.331-.08v-1.956Z" fill="#455a64"/>
          <path id="Path_93" data-name="Path 93" d="M514.472,429.852l-.1-1.128,15.173-.268-.018,1.095Z" fill="#455a64"/>
          <g id="Group_213" data-name="Group 213">
            <g id="Group_212" data-name="Group 212">
              <g id="Group_152" data-name="Group 152">
                <g id="Group_148" data-name="Group 148">
                  <g id="Group_147" data-name="Group 147">
                    <g id="Group_146" data-name="Group 146">
                      <path id="Path_94" data-name="Path 94" d="M514.492,431.409l-.054-1.625,15.3-.572.234,5.355-.942.1c-4.193.4-21.349,1.737-24.192,1C501.667,434.836,514.492,431.409,514.492,431.409Z" fill="#e8505b"/>
                    </g>
                  </g>
                </g>
                <g id="Group_151" data-name="Group 151" opacity="0.3">
                  <g id="Group_150" data-name="Group 150">
                    <g id="Group_149" data-name="Group 149">
                      <path id="Path_95" data-name="Path 95" d="M524.446,434.666a5.286,5.286,0,0,1,1.814-3.324,5.142,5.142,0,0,1,3.516-1.248l.172,4.257Z" fill="#fff"/>
                    </g>
                  </g>
                </g>
              </g>
              <g id="Group_155" data-name="Group 155">
                <g id="Group_154" data-name="Group 154">
                  <g id="Group_153" data-name="Group 153" opacity="0.3">
                    <path id="Path_96" data-name="Path 96" d="M508.234,433.309s-4.483,1.488-3.888,2.212,17.983.026,25.626-.954l-.038-.339-20.274.988S509.123,433.311,508.234,433.309Z" fill="#fff"/>
                  </g>
                </g>
              </g>
              <g id="Group_159" data-name="Group 159">
                <g id="Group_158" data-name="Group 158">
                  <g id="Group_157" data-name="Group 157">
                    <g id="Group_156" data-name="Group 156">
                      <path id="Path_97" data-name="Path 97" d="M530.173,434.209a1.412,1.412,0,0,1-.261.039l-.75.076-2.763.23c-2.334.178-5.563.381-9.132.528s-6.806.207-9.147.221l-2.772,0-.754-.014a1.29,1.29,0,0,1-.263-.018,1.553,1.553,0,0,1,.263-.019l.753-.021,2.772-.055c2.339-.047,5.572-.129,9.14-.275s6.8-.329,9.131-.473l2.767-.172.752-.041A1.394,1.394,0,0,1,530.173,434.209Z" fill="#263238"/>
                    </g>
                  </g>
                </g>
              </g>
              <g id="Group_163" data-name="Group 163">
                <g id="Group_162" data-name="Group 162">
                  <g id="Group_161" data-name="Group 161">
                    <g id="Group_160" data-name="Group 160">
                      <path id="Path_98" data-name="Path 98" d="M509.673,435.453a4.021,4.021,0,0,0-1.556-2.322,2.462,2.462,0,0,1,1.556,2.322Z" fill="#263238"/>
                    </g>
                  </g>
                </g>
              </g>
              <g id="Group_167" data-name="Group 167">
                <g id="Group_166" data-name="Group 166">
                  <g id="Group_165" data-name="Group 165">
                    <g id="Group_164" data-name="Group 164">
                      <path id="Path_99" data-name="Path 99" d="M514.075,432.992c-.042.029-.267-.224-.5-.565s-.393-.641-.351-.67.267.224.5.565S514.117,432.963,514.075,432.992Z" fill="#263238"/>
                    </g>
                  </g>
                </g>
              </g>
              <g id="Group_171" data-name="Group 171">
                <g id="Group_170" data-name="Group 170">
                  <g id="Group_169" data-name="Group 169">
                    <g id="Group_168" data-name="Group 168">
                      <path id="Path_100" data-name="Path 100" d="M515.282,432.291c-.033.039-.28-.112-.551-.337s-.466-.439-.434-.479.28.112.552.337S515.314,432.251,515.282,432.291Z" fill="#263238"/>
                    </g>
                  </g>
                </g>
              </g>
              <g id="Group_175" data-name="Group 175">
                <g id="Group_174" data-name="Group 174">
                  <g id="Group_173" data-name="Group 173">
                    <g id="Group_172" data-name="Group 172">
                      <path id="Path_101" data-name="Path 101" d="M516,430.822a3.49,3.49,0,1,1-.8-.051A1.794,1.794,0,0,1,516,430.822Z" fill="#263238"/>
                    </g>
                  </g>
                </g>
              </g>
              <g id="Group_179" data-name="Group 179">
                <g id="Group_178" data-name="Group 178">
                  <g id="Group_177" data-name="Group 177">
                    <g id="Group_176" data-name="Group 176">
                      <path id="Path_102" data-name="Path 102" d="M516.231,429.8a2.246,2.246,0,0,1-1.8.208,4.851,4.851,0,0,1,.9-.1A4.792,4.792,0,0,1,516.231,429.8Z" fill="#263238"/>
                    </g>
                  </g>
                </g>
              </g>
              <g id="Group_183" data-name="Group 183">
                <g id="Group_182" data-name="Group 182">
                  <g id="Group_181" data-name="Group 181">
                    <g id="Group_180" data-name="Group 180">
                      <path id="Path_103" data-name="Path 103" d="M513.505,431.685a2.862,2.862,0,0,1-.979.033,5.693,5.693,0,0,1-1.051-.188,2.826,2.826,0,0,1-.606-.222.529.529,0,0,1-.255-.294.386.386,0,0,1,.133-.4,1.8,1.8,0,0,1,2.24.435,1.746,1.746,0,0,1,.346.641.538.538,0,0,1,.036.263,2.766,2.766,0,0,0-.48-.817,1.758,1.758,0,0,0-.857-.509,1.517,1.517,0,0,0-1.164.126c-.15.121-.082.3.1.4a2.853,2.853,0,0,0,.559.213,6.7,6.7,0,0,0,1.018.222C513.131,431.668,513.5,431.654,513.505,431.685Z" fill="#263238"/>
                    </g>
                  </g>
                </g>
              </g>
              <g id="Group_187" data-name="Group 187">
                <g id="Group_186" data-name="Group 186">
                  <g id="Group_185" data-name="Group 185">
                    <g id="Group_184" data-name="Group 184">
                      <path id="Path_104" data-name="Path 104" d="M513.253,431.743a.975.975,0,0,1-.14-.675,1.6,1.6,0,0,1,.239-.725.982.982,0,0,1,.794-.532.39.39,0,0,1,.32.44,1.071,1.071,0,0,1-.149.444,2.946,2.946,0,0,1-.438.61,1.409,1.409,0,0,1-.544.419c-.018-.023.188-.183.445-.5a3.4,3.4,0,0,0,.386-.6c.126-.212.2-.587-.044-.622-.246-.013-.486.24-.628.442a1.618,1.618,0,0,0-.251.647A3.657,3.657,0,0,0,513.253,431.743Z" fill="#263238"/>
                    </g>
                  </g>
                </g>
              </g>
              <g id="Group_191" data-name="Group 191">
                <g id="Group_190" data-name="Group 190">
                  <g id="Group_189" data-name="Group 189">
                    <g id="Group_188" data-name="Group 188">
                      <path id="Path_105" data-name="Path 105" d="M529.7,430.055c0,.034-.438-.024-1.123.085a4.774,4.774,0,0,0-3.861,3.339c-.207.662-.211,1.1-.246,1.1a.889.889,0,0,1-.013-.307,4.052,4.052,0,0,1,.133-.828,4.633,4.633,0,0,1,3.969-3.433,3.985,3.985,0,0,1,.838-.012A.861.861,0,0,1,529.7,430.055Z" fill="#263238"/>
                    </g>
                  </g>
                </g>
              </g>
              <g id="Group_195" data-name="Group 195">
                <g id="Group_194" data-name="Group 194">
                  <g id="Group_193" data-name="Group 193">
                    <g id="Group_192" data-name="Group 192">
                      <path id="Path_106" data-name="Path 106" d="M522.469,433.259a12.512,12.512,0,0,1-4.448.221c0-.054,1-.033,2.225-.1S522.461,433.206,522.469,433.259Z" fill="#263238"/>
                    </g>
                  </g>
                </g>
              </g>
              <g id="Group_199" data-name="Group 199">
                <g id="Group_198" data-name="Group 198">
                  <g id="Group_197" data-name="Group 197">
                    <g id="Group_196" data-name="Group 196">
                      <path id="Path_107" data-name="Path 107" d="M525.454,433.134c.039.036-.073.214-.165.447s-.14.436-.193.435-.088-.237.021-.505S525.42,433.1,525.454,433.134Z" fill="#263238"/>
                    </g>
                  </g>
                </g>
              </g>
              <g id="Group_203" data-name="Group 203">
                <g id="Group_202" data-name="Group 202">
                  <g id="Group_201" data-name="Group 201">
                    <g id="Group_200" data-name="Group 200">
                      <path id="Path_108" data-name="Path 108" d="M526.523,431.689c.037.035-.055.2-.206.363s-.3.273-.342.238.054-.2.206-.363S526.485,431.655,526.523,431.689Z" fill="#263238"/>
                    </g>
                  </g>
                </g>
              </g>
              <g id="Group_207" data-name="Group 207">
                <g id="Group_206" data-name="Group 206">
                  <g id="Group_205" data-name="Group 205">
                    <g id="Group_204" data-name="Group 204">
                      <path id="Path_109" data-name="Path 109" d="M528.106,430.985c-.008.052-.211.058-.431.146s-.377.213-.418.18.077-.248.352-.352S528.12,430.937,528.106,430.985Z" fill="#263238"/>
                    </g>
                  </g>
                </g>
              </g>
              <g id="Group_211" data-name="Group 211">
                <g id="Group_210" data-name="Group 210">
                  <g id="Group_209" data-name="Group 209">
                    <g id="Group_208" data-name="Group 208">
                      <path id="Path_110" data-name="Path 110" d="M529.24,430.637c.02.047-.064.128-.188.182s-.242.061-.262.014.064-.129.188-.183S529.22,430.59,529.24,430.637Z" fill="#263238"/>
                    </g>
                  </g>
                </g>
              </g>
            </g>
          </g>
          <path id="Path_111" data-name="Path 111" d="M513.515,419.364l.08.881,15.947-.217V418.97Z" fill="#455a64"/>
        </g>
        <g id="Group_283" data-name="Group 283">
          <path id="Path_112" data-name="Path 112" d="M475,380.172l-5.423,13.585,12.7,8.277,8.11-15.934Z" fill="#e0e0e0"/>
          <path id="Path_113" data-name="Path 113" d="M472.626,386.118l14.1,7.175-.791,1.553-14.1-6.74Z" fill="#455a64"/>
          <path id="Path_114" data-name="Path 114" d="M471.362,389.286l-.721,1.805,13.7,6.883.887-1.743Z" fill="#455a64"/>
          <path id="Path_115" data-name="Path 115" d="M469.577,393.758l.42-1.052,13.644,6.644-.513.967Z" fill="#455a64"/>
          <g id="Group_282" data-name="Group 282">
            <g id="Group_281" data-name="Group 281">
              <g id="Group_221" data-name="Group 221">
                <g id="Group_217" data-name="Group 217">
                  <g id="Group_216" data-name="Group 216">
                    <g id="Group_215" data-name="Group 215">
                      <path id="Path_116" data-name="Path 116" d="M468.888,395.154l.689-1.473,13.895,6.431-2.22,4.879-.884-.34c-3.918-1.546-19.814-8.136-22.012-10.085C455.9,392.391,468.888,395.154,468.888,395.154Z" fill="#e8505b"/>
                    </g>
                  </g>
                </g>
                <g id="Group_220" data-name="Group 220" opacity="0.3">
                  <g id="Group_219" data-name="Group 219">
                    <g id="Group_218" data-name="Group 218">
                      <path id="Path_117" data-name="Path 117" d="M476.282,402.572a5.283,5.283,0,0,1,3.125-2.139,5.14,5.14,0,0,1,3.7.482l-1.777,3.871Z" fill="#fff"/>
                    </g>
                  </g>
                </g>
              </g>
              <g id="Group_224" data-name="Group 224">
                <g id="Group_223" data-name="Group 223">
                  <g id="Group_222" data-name="Group 222" opacity="0.3">
                    <path id="Path_118" data-name="Path 118" d="M462.45,394.009s-4.671-.708-4.469.208S474,402.4,481.252,404.991l.12-.32-18.517-8.316S463.24,394.414,462.45,394.009Z" fill="#fff"/>
                  </g>
                </g>
              </g>
              <g id="Group_228" data-name="Group 228">
                <g id="Group_227" data-name="Group 227">
                  <g id="Group_226" data-name="Group 226">
                    <g id="Group_225" data-name="Group 225">
                      <path id="Path_119" data-name="Path 119" d="M481.593,404.762a1.436,1.436,0,0,1-.25-.083l-.7-.273-2.567-1.048c-2.161-.9-5.13-2.183-8.378-3.672s-6.159-2.9-8.251-3.952l-2.469-1.261-.666-.354a1.368,1.368,0,0,1-.226-.135,1.329,1.329,0,0,1,.243.1l.681.323,2.494,1.208c2.107,1.019,5.025,2.412,8.271,3.9s6.2,2.789,8.353,3.72l2.543,1.1.69.3A1.383,1.383,0,0,1,481.593,404.762Z" fill="#263238"/>
                    </g>
                  </g>
                </g>
              </g>
              <g id="Group_232" data-name="Group 232">
                <g id="Group_231" data-name="Group 231">
                  <g id="Group_230" data-name="Group 230">
                    <g id="Group_229" data-name="Group 229">
                      <path id="Path_120" data-name="Path 120" d="M462.76,396.572a6.316,6.316,0,0,0,.081-1.417,6.241,6.241,0,0,0-.415-1.358,2.462,2.462,0,0,1,.334,2.775Z" fill="#263238"/>
                    </g>
                  </g>
                </g>
              </g>
              <g id="Group_236" data-name="Group 236">
                <g id="Group_235" data-name="Group 235">
                  <g id="Group_234" data-name="Group 234">
                    <g id="Group_233" data-name="Group 233">
                      <path id="Path_121" data-name="Path 121" d="M467.8,396.376c-.051.007-.137-.321-.193-.732a1.618,1.618,0,0,1-.01-.757,1.6,1.6,0,0,1,.193.732A1.618,1.618,0,0,1,467.8,396.376Z" fill="#263238"/>
                    </g>
                  </g>
                </g>
              </g>
              <g id="Group_240" data-name="Group 240">
                <g id="Group_239" data-name="Group 239">
                  <g id="Group_238" data-name="Group 238">
                    <g id="Group_237" data-name="Group 237">
                      <path id="Path_122" data-name="Path 122" d="M469.192,396.3c-.047.02-.2-.226-.338-.55s-.216-.6-.169-.623.2.226.338.55S469.239,396.278,469.192,396.3Z" fill="#263238"/>
                    </g>
                  </g>
                </g>
              </g>
              <g id="Group_244" data-name="Group 244">
                <g id="Group_243" data-name="Group 243">
                  <g id="Group_242" data-name="Group 242">
                    <g id="Group_241" data-name="Group 241">
                      <path id="Path_123" data-name="Path 123" d="M470.5,395.317a1.809,1.809,0,0,1-.765-.24c-.4-.179-.711-.362-.69-.409a1.81,1.81,0,0,1,.765.24C470.214,395.087,470.523,395.27,470.5,395.317Z" fill="#263238"/>
                    </g>
                  </g>
                </g>
              </g>
              <g id="Group_248" data-name="Group 248">
                <g id="Group_247" data-name="Group 247">
                  <g id="Group_246" data-name="Group 246">
                    <g id="Group_245" data-name="Group 245">
                      <path id="Path_124" data-name="Path 124" d="M471.169,394.507a2.24,2.24,0,0,1-1.7-.63,64.771,64.771,0,0,0,1.7.63Z" fill="#263238"/>
                    </g>
                  </g>
                </g>
              </g>
              <g id="Group_252" data-name="Group 252">
                <g id="Group_251" data-name="Group 251">
                  <g id="Group_250" data-name="Group 250">
                    <g id="Group_249" data-name="Group 249">
                      <path id="Path_125" data-name="Path 125" d="M467.884,394.952a2.833,2.833,0,0,1-.888-.414,5.7,5.7,0,0,1-.851-.645,2.882,2.882,0,0,1-.44-.472.528.528,0,0,1-.093-.378.387.387,0,0,1,.3-.294,1.8,1.8,0,0,1,1.8,1.4,1.753,1.753,0,0,1,.018.727c-.035.169-.077.254-.088.251a2.745,2.745,0,0,0-.056-.945,1.769,1.769,0,0,0-.534-.843,1.516,1.516,0,0,0-1.094-.416c-.189.04-.21.232-.1.4a2.949,2.949,0,0,0,.4.443,6.833,6.833,0,0,0,.807.66C467.558,394.768,467.9,394.925,467.884,394.952Z" fill="#263238"/>
                    </g>
                  </g>
                </g>
              </g>
              <g id="Group_256" data-name="Group 256">
                <g id="Group_255" data-name="Group 255">
                  <g id="Group_254" data-name="Group 254">
                    <g id="Group_253" data-name="Group 253">
                      <path id="Path_126" data-name="Path 126" d="M467.633,394.89a.967.967,0,0,1,.181-.665,1.618,1.618,0,0,1,.542-.539.984.984,0,0,1,.949-.113.391.391,0,0,1,.086.537,1.071,1.071,0,0,1-.334.328,2.973,2.973,0,0,1-.668.346,1.419,1.419,0,0,1-.675.126c0-.029.251-.078.626-.247a3.454,3.454,0,0,0,.618-.363c.208-.132.447-.431.243-.574a.875.875,0,0,0-.76.108,1.6,1.6,0,0,0-.518.463A3.637,3.637,0,0,0,467.633,394.89Z" fill="#263238"/>
                    </g>
                  </g>
                </g>
              </g>
              <g id="Group_260" data-name="Group 260">
                <g id="Group_259" data-name="Group 259">
                  <g id="Group_258" data-name="Group 258">
                    <g id="Group_257" data-name="Group 257">
                      <path id="Path_127" data-name="Path 127" d="M483.051,400.843c-.017.03-.379-.22-1.039-.434a4.778,4.778,0,0,0-4.956,1.225c-.484.5-.688.887-.717.868a.884.884,0,0,1,.128-.279,4,4,0,0,1,.494-.678,4.634,4.634,0,0,1,5.094-1.259,4.02,4.02,0,0,1,.753.369C482.974,400.763,483.058,400.834,483.051,400.843Z" fill="#263238"/>
                    </g>
                  </g>
                </g>
              </g>
              <g id="Group_264" data-name="Group 264">
                <g id="Group_263" data-name="Group 263">
                  <g id="Group_262" data-name="Group 262">
                    <g id="Group_261" data-name="Group 261">
                      <path id="Path_128" data-name="Path 128" d="M475.159,400.421a12.509,12.509,0,0,1-4.065-1.821c.027-.046.906.424,2.026.925S475.176,400.37,475.159,400.421Z" fill="#263238"/>
                    </g>
                  </g>
                </g>
              </g>
              <g id="Group_268" data-name="Group 268">
                <g id="Group_267" data-name="Group 267">
                  <g id="Group_266" data-name="Group 266">
                    <g id="Group_265" data-name="Group 265">
                      <path id="Path_129" data-name="Path 129" d="M477.875,401.664c.018.049-.162.158-.35.323s-.322.326-.369.3.03-.252.248-.441S477.861,401.617,477.875,401.664Z" fill="#263238"/>
                    </g>
                  </g>
                </g>
              </g>
              <g id="Group_272" data-name="Group 272">
                <g id="Group_271" data-name="Group 271">
                  <g id="Group_270" data-name="Group 270">
                    <g id="Group_269" data-name="Group 269">
                      <path id="Path_130" data-name="Path 130" d="M479.483,400.861c.018.048-.138.151-.348.23s-.394.105-.413.057.138-.15.348-.23S479.465,400.813,479.483,400.861Z" fill="#263238"/>
                    </g>
                  </g>
                </g>
              </g>
              <g id="Group_276" data-name="Group 276">
                <g id="Group_275" data-name="Group 275">
                  <g id="Group_274" data-name="Group 274">
                    <g id="Group_273" data-name="Group 273">
                      <path id="Path_131" data-name="Path 131" d="M481.214,400.952c-.031.042-.214-.044-.451-.066s-.433.019-.454-.029.181-.186.473-.155S481.248,400.915,481.214,400.952Z" fill="#263238"/>
                    </g>
                  </g>
                </g>
              </g>
              <g id="Group_280" data-name="Group 280">
                <g id="Group_279" data-name="Group 279">
                  <g id="Group_278" data-name="Group 278">
                    <g id="Group_277" data-name="Group 277">
                      <path id="Path_132" data-name="Path 132" d="M482.382,401.156c0,.051-.115.085-.251.077s-.242-.056-.239-.107.115-.085.251-.077S482.385,401.105,482.382,401.156Z" fill="#263238"/>
                    </g>
                  </g>
                </g>
              </g>
            </g>
          </g>
          <path id="Path_133" data-name="Path 133" d="M473.481,383.976l-.328.822,14.311,7.04.48-.943Z" fill="#455a64"/>
        </g>
        <g id="Group_290" data-name="Group 290">
          <g id="Group_288" data-name="Group 288">
            <g id="Group_287" data-name="Group 287">
              <path id="Path_134" data-name="Path 134" d="M580.062,316.722s-66.787-18.83-73.261-16.216-40.921,80.1-40.921,80.1L488.8,391.474l31.551-66.141s44.685,24.648,53.466,17.316C584.456,333.762,580.206,313.7,580.062,316.722Z" fill="#263238"/>
              <path id="Path_135" data-name="Path 135" d="M572.52,317.712c-1.014.273-55.085,0-64.144,10.694-3.649,4.308-1.231,91.118-1.231,91.118,1-.031,23.687-.586,23.687-.586l.653-74.967,38.552-.035a3.652,3.652,0,0,0,3.644-3.841Z" fill="#263238"/>
              <g id="Group_284" data-name="Group 284">
                <path id="Path_136" data-name="Path 136" d="M572.359,340.1a2.435,2.435,0,0,1-.564-.094l-1.593-.366-5.838-1.434c-4.92-1.241-11.722-2.967-19.119-5.291-3.7-1.174-7.179-2.413-10.31-3.633-7.016-2.783-.238.308-8.183-3.567-2.286-1.11-4.109-2.064-5.335-2.782L520,322.112a2.4,2.4,0,0,1-.475-.317,2.444,2.444,0,0,1,.525.227l1.457.739c1.253.663,3.1,1.566,5.394,2.631s5.077,2.244,8.2,3.455c3.131,1.193,6.607,2.414,10.294,3.585,7.379,2.319,14.16,4.1,19.056,5.429l5.8,1.59,1.569.459A2.4,2.4,0,0,1,572.359,340.1Z" fill="#455a64"/>
              </g>
              <g id="Group_285" data-name="Group 285">
                <path id="Path_137" data-name="Path 137" d="M526.462,341.385a15.231,15.231,0,0,1,4.936,2.527,15.233,15.233,0,0,1-4.936-2.527Z" fill="#455a64"/>
              </g>
              <g id="Group_286" data-name="Group 286">
                <path id="Path_138" data-name="Path 138" d="M528.483,339.238a27.185,27.185,0,0,1,1.569,2.512,26.586,26.586,0,0,1,1.716,2.414,7.626,7.626,0,0,1-3.285-4.926Z" fill="#455a64"/>
              </g>
            </g>
          </g>
          <g id="Group_289" data-name="Group 289">
            <path id="Path_139" data-name="Path 139" d="M519.329,321.59a10.377,10.377,0,0,1-1.586.063,19.191,19.191,0,0,0-4.254.447,7.348,7.348,0,0,0-4.913,3.516c-1.128,2.083-1.2,4.794-1.228,7.555-.079,5.572-.18,10.616-.279,14.266-.058,1.754-.107,3.209-.144,4.322a9.314,9.314,0,0,1-.124,1.584,9.315,9.315,0,0,1-.079-1.587c0-1.114-.012-2.569-.021-4.325.005-3.651.047-8.7.126-14.267.03-2.758.1-5.558,1.328-7.778a6.716,6.716,0,0,1,2.423-2.53,9.28,9.28,0,0,1,2.827-1.114,16.987,16.987,0,0,1,4.34-.292A8.408,8.408,0,0,1,519.329,321.59Z" fill="#455a64"/>
          </g>
        </g>
        <g id="Group_303" data-name="Group 303">
          <g id="Group_291" data-name="Group 291">
            <path id="Path_140" data-name="Path 140" d="M512.285,222.122c.285.4,10.547,29.165,10.547,29.165L506.2,254.609l-9.189-23.421Z" fill="#455a64"/>
            <path id="Path_141" data-name="Path 141" d="M522.832,251.287l1.457-.895-10.608-29.128-1.571.962Z" fill="#263238"/>
            <path id="Path_142" data-name="Path 142" d="M505.74,230.332a.712.712,0,1,1-.878-.494A.712.712,0,0,1,505.74,230.332Z" fill="#263238"/>
          </g>
          <path id="Path_143" data-name="Path 143" d="M531.26,256.633l-15.892,15.588-9.775-23.843h0l-.228-1.275,6.24-4.993-3.722-4.581a4.74,4.74,0,0,0-6.966-.318l-1.9,1.888a6.733,6.733,0,0,0-1.991,5.109c.163,3.291.495,6.8.479,6.491h0l5.6,32.931a11.85,11.85,0,0,0,7.4,10.317c5.64,2.337,11.759-5.063,15.021-7.88l20.9-19.024Z" fill="#ffbe9d"/>
          <path id="Path_144" data-name="Path 144" d="M595.777,273.481l-20.115,3.129-.482-1.2,6.378,43.154-49.175-14.175,1.431-25.29L517.062,267.01l12.816-19.649a22.615,22.615,0,0,1,15.127-8.947c1.773-.241,3.121-.358,4-.468a25.729,25.729,0,0,0,15.5-.009h0a22.464,22.464,0,0,1,6.417,1.229c1.526.518,2.987.922,4.378,1.328a17.756,17.756,0,0,1,11.509,10.487Z" fill="#e8505b"/>
          <path id="Path_145" data-name="Path 145" d="M535.772,322.3c-.17-2,8.145-3.117,8.842-3.263.677-.142.509-1.158-.112-.992-.9.238-10.347,2.507-10.533.54-.1-1.09,1.872-1.093,1.872-1.093s9-1.472,8.881-2.4-5.434-.254-7.209.1c-1.754.353-2.636-.338-2.147-1.244.333-.619,5.745-1.844,7.508-2.157s6.617-1.085,3.915-2.651-4.189-3.787-4.173-4.668a.977.977,0,0,1,1.806-.387,11.371,11.371,0,0,0,2.375,2.067,7.439,7.439,0,0,0,2.278,1.092c.951.266,1.768.455,2.467.6,4.722-1.486,17.872-6.146,27.175-14.506,1.68-1.509-2.741-17-2.741-17l17.934-2.363,2.564,15.255c3.49,20.764-42.98,31.2-42.98,31.2l-.014-.046a93.185,93.185,0,0,1-9.3,3.835c-4.449,1.351-4.576.954-4.644.409-.185-1.464,7.735-2.672,5.882-3.4S535.9,323.838,535.772,322.3Z" fill="#ffbe9d"/>
          <g id="Group_292" data-name="Group 292">
            <path id="Path_146" data-name="Path 146" d="M584.709,247.714a2.415,2.415,0,0,1-.433.38,12.241,12.241,0,0,1-1.363.937,16.221,16.221,0,0,1-5.709,2.07,16.424,16.424,0,0,1-8.924-.99c-1.588-.623-3.168-1.442-4.868-2.089a14.058,14.058,0,0,0-5.473-.973c-3.867.075-7.42,1.308-10.69,2.151a23.709,23.709,0,0,1-8.946,1.01,11.5,11.5,0,0,1-5.658-2.164,6,6,0,0,1-1.545-1.606,15.624,15.624,0,0,0,1.665,1.442,11.7,11.7,0,0,0,5.58,1.962,23.939,23.939,0,0,0,8.781-1.108c3.242-.86,6.823-2.128,10.806-2.208a14.452,14.452,0,0,1,5.661,1.017c1.736.67,3.311,1.5,4.865,2.12a16.3,16.3,0,0,0,8.689,1.072,16.967,16.967,0,0,0,5.665-1.882C584.057,248.168,584.678,247.671,584.709,247.714Z" fill="#fafafa"/>
          </g>
          <g id="Group_293" data-name="Group 293">
            <path id="Path_147" data-name="Path 147" d="M592.755,266.571c.007.006-.034.059-.12.155a5.587,5.587,0,0,1-.4.414,8.929,8.929,0,0,1-1.793,1.3,13.623,13.623,0,0,1-7.928,1.419,29.458,29.458,0,0,1-5.5-1.133c-1.937-.557-3.963-1.272-6.127-1.879a24.206,24.206,0,0,0-6.907-1.062,26.3,26.3,0,0,0-7.368,1.438c-2.476.778-4.874,1.677-7.295,2.226a18.371,18.371,0,0,1-7.125.418,14.739,14.739,0,0,1-5.922-2.579c-1.669-1.147-3.1-2.362-4.452-3.393a17.181,17.181,0,0,0-7.089-3.6,11.352,11.352,0,0,0-2.934-.116c0-.009.062-.027.189-.053s.316-.068.567-.094a8.339,8.339,0,0,1,2.212.064,16.844,16.844,0,0,1,7.277,3.507c1.377,1.019,2.819,2.216,4.472,3.33a14.415,14.415,0,0,0,5.758,2.463,18.025,18.025,0,0,0,6.932-.442c2.378-.546,4.759-1.441,7.254-2.226a26.543,26.543,0,0,1,7.515-1.451,24.448,24.448,0,0,1,7.046,1.11c2.182.626,4.2,1.356,6.12,1.927a29.787,29.787,0,0,0,5.414,1.181,13.73,13.73,0,0,0,7.8-1.232A12.868,12.868,0,0,0,592.755,266.571Z" fill="#fafafa"/>
          </g>
          <g id="Group_294" data-name="Group 294">
            <path id="Path_148" data-name="Path 148" d="M575.928,281.8a15.263,15.263,0,0,0-1.712-.015,14.343,14.343,0,0,0-4.41,1.471,28.657,28.657,0,0,1-3.028,1.257,14.167,14.167,0,0,1-3.731.649,26.753,26.753,0,0,1-8.514-1.261c-2.931-.844-5.663-1.8-8.223-2.333a19.906,19.906,0,0,0-6.875-.395,12.646,12.646,0,0,0-4.419,1.4c-.966.534-1.436.939-1.467.9-.012-.013.1-.122.32-.317a7.489,7.489,0,0,1,1.046-.758,11.983,11.983,0,0,1,4.467-1.588,19.585,19.585,0,0,1,7.025.289c2.606.521,5.36,1.465,8.268,2.3a27.128,27.128,0,0,0,8.352,1.283,14.04,14.04,0,0,0,3.621-.582,30.472,30.472,0,0,0,3.008-1.181,13.4,13.4,0,0,1,4.545-1.338,5.64,5.64,0,0,1,1.294.092A1.488,1.488,0,0,1,575.928,281.8Z" fill="#fafafa"/>
          </g>
          <g id="Group_295" data-name="Group 295">
            <path id="Path_149" data-name="Path 149" d="M575.369,296.085a8.472,8.472,0,0,0-5.969,1.661,16.327,16.327,0,0,1-3,1.257,14.523,14.523,0,0,1-3.7.551,28,28,0,0,1-8.4-1.342c-2.894-.844-5.6-1.776-8.132-2.294a19.685,19.685,0,0,0-6.8-.355,12.6,12.6,0,0,0-4.364,1.4c-.955.529-1.42.93-1.451.89-.012-.014.1-.121.316-.314a7.462,7.462,0,0,1,1.033-.751,11.908,11.908,0,0,1,4.411-1.588,19.351,19.351,0,0,1,6.949.249c2.579.5,5.306,1.426,8.18,2.263a28.451,28.451,0,0,0,8.25,1.363,14.363,14.363,0,0,0,3.6-.487,16.458,16.458,0,0,0,2.954-1.171,12.277,12.277,0,0,1,4.422-1.538,5.211,5.211,0,0,1,1.281.081A1.418,1.418,0,0,1,575.369,296.085Z" fill="#fafafa"/>
          </g>
          <g id="Group_296" data-name="Group 296">
            <path id="Path_150" data-name="Path 150" d="M563.866,272.377c-.005-.028.187-.107.554-.09a2.36,2.36,0,0,1,1.413.612,2.259,2.259,0,0,1,.742,2.173,2.514,2.514,0,0,1-2.009,1.963,2.47,2.47,0,0,1-2.469-1.341,2.125,2.125,0,0,1,.238-2.282,2.185,2.185,0,0,1,1.295-.837c.364-.066.564,0,.561.024,0,.044-.2.054-.506.171a2.2,2.2,0,0,0-1.05.855,1.759,1.759,0,0,0-.112,1.847,2.024,2.024,0,0,0,1.968,1.047,2.072,2.072,0,0,0,1.616-1.552,1.906,1.906,0,0,0-.529-1.8A3.075,3.075,0,0,0,563.866,272.377Z" fill="#fafafa"/>
          </g>
          <g id="Group_297" data-name="Group 297">
            <path id="Path_151" data-name="Path 151" d="M542.921,285.95c-.006-.028.186-.107.553-.09a2.364,2.364,0,0,1,1.413.611,2.262,2.262,0,0,1,.743,2.173,2.514,2.514,0,0,1-2.01,1.963,2.47,2.47,0,0,1-2.469-1.34,2.127,2.127,0,0,1,.238-2.283,2.185,2.185,0,0,1,1.3-.836c.364-.066.564,0,.561.024,0,.043-.2.054-.506.171a2.2,2.2,0,0,0-1.05.855,1.758,1.758,0,0,0-.112,1.847,2.025,2.025,0,0,0,1.968,1.047,2.073,2.073,0,0,0,1.616-1.553,1.908,1.908,0,0,0-.529-1.8A3.059,3.059,0,0,0,542.921,285.95Z" fill="#fafafa"/>
          </g>
          <g id="Group_298" data-name="Group 298">
            <path id="Path_152" data-name="Path 152" d="M543.557,258.6c-.005-.028.186-.108.553-.09a2.362,2.362,0,0,1,1.413.611,2.26,2.26,0,0,1,.743,2.173,2.514,2.514,0,0,1-2.01,1.963,2.47,2.47,0,0,1-2.469-1.341,2.125,2.125,0,0,1,.238-2.282,2.192,2.192,0,0,1,1.295-.837c.364-.065.564,0,.562.025s-.2.053-.506.17a2.2,2.2,0,0,0-1.051.856,1.761,1.761,0,0,0-.112,1.847,2.029,2.029,0,0,0,1.969,1.047,2.074,2.074,0,0,0,1.616-1.553,1.909,1.909,0,0,0-.529-1.8A3.06,3.06,0,0,0,543.557,258.6Z" fill="#fafafa"/>
          </g>
          <g id="Group_299" data-name="Group 299">
            <path id="Path_153" data-name="Path 153" d="M578.234,257.089c-.005-.028.187-.107.554-.09a2.364,2.364,0,0,1,1.413.611,2.261,2.261,0,0,1,.742,2.173,2.512,2.512,0,0,1-2.009,1.963,2.469,2.469,0,0,1-2.469-1.34,2.125,2.125,0,0,1,.238-2.283,2.183,2.183,0,0,1,1.295-.836c.364-.066.564,0,.561.024s-.2.054-.506.171a2.2,2.2,0,0,0-1.05.855,1.761,1.761,0,0,0-.113,1.847,2.028,2.028,0,0,0,1.969,1.047,2.073,2.073,0,0,0,1.616-1.553,1.908,1.908,0,0,0-.529-1.8A3.069,3.069,0,0,0,578.234,257.089Z" fill="#fafafa"/>
          </g>
          <g id="Group_300" data-name="Group 300">
            <path id="Path_154" data-name="Path 154" d="M564.658,240.317c-.005-.028.186-.107.553-.09a2.359,2.359,0,0,1,1.413.611,2.26,2.26,0,0,1,.743,2.173,2.513,2.513,0,0,1-2.01,1.963,2.47,2.47,0,0,1-2.469-1.34,2.127,2.127,0,0,1,.238-2.283,2.19,2.19,0,0,1,1.3-.836c.365-.066.564,0,.562.024s-.2.054-.506.171a2.2,2.2,0,0,0-1.051.855,1.761,1.761,0,0,0-.112,1.847,2.027,2.027,0,0,0,1.969,1.047,2.074,2.074,0,0,0,1.616-1.553,1.91,1.91,0,0,0-.529-1.8A3.06,3.06,0,0,0,564.658,240.317Z" fill="#fafafa"/>
          </g>
          <g id="Group_301" data-name="Group 301">
            <path id="Path_155" data-name="Path 155" d="M533.549,280.817a17.568,17.568,0,0,1-.158-3.156c-.02-1.95.02-4.643.106-7.614.1-2.889.186-5.5.258-7.605a20.547,20.547,0,0,1,.21-3.15,17.552,17.552,0,0,1,.158,3.155c.02,1.95-.02,4.643-.106,7.615-.1,2.889-.186,5.5-.258,7.6A20.736,20.736,0,0,1,533.549,280.817Z" fill="#263238"/>
          </g>
          <g id="Group_302" data-name="Group 302">
            <path id="Path_156" data-name="Path 156" d="M595.777,273.481a1.974,1.974,0,0,1-.466.112l-1.356.237-5.065.8-7.671,1.154c-1.462.211-3,.456-4.617.668l-5.05.6-.251.029-.03-.26c-.262-2.243-.464-4.6-.8-7.033-.55-4.327-1.075-8.446-1.553-12.2a26.622,26.622,0,0,1,.111-10.048c.735-2.772,1.783-4.948,2.992-6.065a4.631,4.631,0,0,1,1.557-1.012,2.329,2.329,0,0,1,.628-.153,5.437,5.437,0,0,0-2.042,1.308,13.415,13.415,0,0,0-2.778,6.011,26.922,26.922,0,0,0,.009,9.907l1.591,12.179c.333,2.419.536,4.814.79,7.067l-.281-.231,5.045-.57,4.621-.628,7.687-1.04,5.083-.651,1.367-.152A1.9,1.9,0,0,1,595.777,273.481Z" fill="#263238"/>
          </g>
          <path id="Path_157" data-name="Path 157" d="M568.72,252.317s-2.254,27.164,0,27.7,4.28.8,4.28.8,4.318,13.4,4.275,13.026-1.613-17.233-1.613-17.233l-4.138.186Z" opacity="0.3"/>
          <path id="Path_158" data-name="Path 158" d="M533.549,261.836,529.6,276.059l4.21,3.038Z" opacity="0.3"/>
        </g>
      </g>
    </g>
    <g id="Cloud">
      <g id="Group_316" data-name="Group 316">
        <path id="Path_159" data-name="Path 159" d="M690.589,191.937c7.261-16.97,2.855-34.668-9.083-48.745a51.115,51.115,0,0,0-50.023-16.22,55.921,55.921,0,0,0-110.912,7.212A41.86,41.86,0,0,0,488.6,190.979Z" fill="#e8505b"/>
        <g id="Group_315" data-name="Group 315">
          <g id="Group_309" data-name="Group 309">
            <g id="Group_306" data-name="Group 306">
              <g id="Group_305" data-name="Group 305">
                <path id="Path_160" data-name="Path 160" d="M606.355,148.575c-.372.032-.172-3.384-2.222-8.189a23.934,23.934,0,0,0-5.055-7.443,23.459,23.459,0,0,0-9.368-5.6,23.73,23.73,0,0,0-10.9-.6,23.372,23.372,0,0,0-8.354,3.343c-4.355,2.87-6.144,5.772-6.414,5.554-.087-.057.23-.845,1.118-2.078A20.813,20.813,0,0,1,569.7,129a22.871,22.871,0,0,1,8.765-3.943,23.434,23.434,0,0,1,21.834,6.677,23.357,23.357,0,0,1,5.059,8.169,21.2,21.2,0,0,1,1.238,6.321C606.565,147.75,606.483,148.575,606.355,148.575Z" fill="#fff"/>
              </g>
            </g>
            <g id="Group_308" data-name="Group 308">
              <g id="Group_307" data-name="Group 307">
                <path id="Path_161" data-name="Path 161" d="M595.314,140.37c.312-.411,5.43,2.958,11.432,7.523l.334.255-1.445.435c2.44-6.937,4.767-12.354,5.244-12.187s-1.073,5.854-3.483,12.8l-.421,1.212-1.024-.778-.335-.254C599.615,144.813,595,140.779,595.314,140.37Z" fill="#fff"/>
              </g>
            </g>
          </g>
          <g id="Group_314" data-name="Group 314">
            <g id="Group_311" data-name="Group 311">
              <g id="Group_310" data-name="Group 310">
                <path id="Path_162" data-name="Path 162" d="M562.775,144.738c.379.015-.229,3.282,1.149,8.164a23.629,23.629,0,0,0,3.874,7.832,22.567,22.567,0,0,0,8.171,6.749,25.262,25.262,0,0,0,2.583,1.1c.887.25,1.752.549,2.63.719a23.057,23.057,0,0,0,13.7-1.207,26.482,26.482,0,0,0,5.246-2.884c1.18-.81,1.8-1.326,1.905-1.217.076.073-.372.767-1.446,1.78a20.369,20.369,0,0,1-5.167,3.526,22.578,22.578,0,0,1-9.062,2.249,23.452,23.452,0,0,1-5.544-.457c-.952-.173-1.893-.484-2.856-.752a25.842,25.842,0,0,1-2.806-1.177,23.206,23.206,0,0,1-12.5-15.942,22.668,22.668,0,0,1-.466-3.553c-.016-1.052.022-1.958.073-2.691C562.466,145.508,562.647,144.722,562.775,144.738Z" fill="#fff"/>
              </g>
            </g>
            <g id="Group_313" data-name="Group 313">
              <g id="Group_312" data-name="Group 312">
                <path id="Path_163" data-name="Path 163" d="M572.73,154.232c-.36.369-5.029-3.6-10.427-8.865l-.3-.294,1.487-.254c-3.269,6.586-6.241,11.678-6.694,11.454s1.781-5.679,5.022-12.28l.566-1.151.921.9.3.294C569,149.3,573.089,153.863,572.73,154.232Z" fill="#fff"/>
              </g>
            </g>
          </g>
        </g>
      </g>
    </g>
  </g>
</svg>
