<svg xmlns="http://www.w3.org/2000/svg" width="486.475" height="307.86" viewBox="0 0 486.475 307.86">
  <g id="discovery-product" transform="translate(-160 -87.606)">
    <g id="Group_19" data-name="Group 19">
      <g id="OBJECTS" transform="translate(-67 -9)">
        <g id="Group_3" data-name="Group 3" transform="translate(5.699 -16.4)">
          <g id="Group_2" data-name="Group 2">
            <ellipse id="Ellipse_1" data-name="Ellipse 1" cx="139.19" cy="71.901" rx="139.19" ry="71.901" transform="translate(299.381 384.615) rotate(-76.297)" fill="none" stroke="#bf4252" stroke-miterlimit="10" stroke-width="0.901"/>
            <path id="Path_3" data-name="Path 3" d="M437.732,130.77" fill="#003db5"/>
            <path id="Path_4" data-name="Path 4" d="M437.879,278.152c18.812-61.489,8.314-119.214-23.45-128.931l-.052-.017a1.185,1.185,0,0,1,.139-2.31,33.294,33.294,0,0,1,14.79,1c31.763,9.718,42.262,67.442,23.45,128.932a206.223,206.223,0,0,1-23.9,52.056c-4.25,6.51-14.046.36-10.137-6.359a211.805,211.805,0,0,0,19.16-44.371Z" fill="#d14c5d" opacity="0.22"/>
            <path id="Path_5" data-name="Path 5" d="M369.239,401.634c38.581,9.4,84.608-43.528,102.8-118.216,14.062-57.734,7.382-111.571-14.319-137.526-6.213-7.431-13.834-12.593-22.592-14.727a38.458,38.458,0,0,0-10.828-1.039h0s66.723-4.4,86.531,51.3c0,0,33.91,86.173-31.583,182.969,0,0-32.108,48.6-69.821,48.252,0,0-30.948.213-54.027-17.509a39.233,39.233,0,0,0,13.839,6.5Z" fill="#ffa7b2"/>
            <ellipse id="Ellipse_2" data-name="Ellipse 2" cx="20.601" cy="11.465" rx="20.601" ry="11.465" transform="translate(473.868 308.431) rotate(-71.662)" fill="#bf4252"/>
            <path id="Path_6" data-name="Path 6" d="M488.511,286.833a12.771,12.771,0,0,1,15.238-8.373l.139.038L623.91,311.551q.284.078.561.168a1.914,1.914,0,0,1,1.261,2.363l-8.473,28.642a1.883,1.883,0,0,1-2.276,1.31l-.018-.005L494.944,310.976c-.054-.015-.107-.029-.16-.045a13.224,13.224,0,0,1-8.682-17.007Z" fill="#fc6679"/>
            <ellipse id="Ellipse_3" data-name="Ellipse 3" cx="17.248" cy="9.599" rx="17.248" ry="9.599" transform="translate(607.878 342.159) rotate(-71.662)" fill="#bf4252"/>
            <ellipse id="Ellipse_4" data-name="Ellipse 4" cx="138.666" cy="71.63" rx="138.666" ry="71.63" transform="translate(299.907 384.743) rotate(-76.297)" fill="#fff" stroke="#fff" stroke-miterlimit="10" stroke-width="3.59" opacity="0.07"/>
          </g>
          <g id="Group_1" data-name="Group 1">
            <path id="Path_2" data-name="Path 2" d="M466.873,190.31s21.348,91.845-42.545,169.052L292.075,362.68a22.808,22.808,0,0,1-23.38-22.8V213.118a22.809,22.809,0,0,1,22.8-22.808Z" fill="#ff919f"/>
            <g id="Objects-2" data-name="Objects" transform="translate(121.055 60.578)">
              <g id="Group_3-2" data-name="Group 3" transform="translate(123.254 167.45)">
                <g id="Group_2-2" data-name="Group 2">
                  <path id="Rectangle_2" data-name="Rectangle 2" d="M0,0H30.691V14.379H0Z" transform="translate(62.372 90.004)" fill="#aa3241"/>
                  <path id="Rectangle_3" data-name="Rectangle 3" d="M7.5,0H147.936a7.5,7.5,0,0,1,7.5,7.5v80.8a7.5,7.5,0,0,1-7.5,7.5H7.5A7.5,7.5,0,0,1,0,88.3V7.5A7.5,7.5,0,0,1,7.5,0Z" fill="#aa3241"/>
                  <path id="Rectangle_4" data-name="Rectangle 4" d="M4.477,0h136a4.478,4.478,0,0,1,4.478,4.478V83.5a4.477,4.477,0,0,1-4.477,4.477h-136A4.477,4.477,0,0,1,0,83.5V4.477A4.477,4.477,0,0,1,4.477,0Z" transform="translate(5.24 4.093)" fill="#fc6679"/>
                  <path id="Path_6-2" data-name="Path 6" d="M290.552,299.6v15.62a4.954,4.954,0,0,1-4.948,4.948H140.065a4.954,4.954,0,0,1-4.948-4.948V299.6Z" transform="translate(-135.117 -224.364)" fill="#d14c5d"/>
                  <path id="Path_7" data-name="Path 7" d="M266.857,342.247a2.086,2.086,0,0,1-2.086,2.086H213.408a2.086,2.086,0,0,1-2.086-2.086h0a2.086,2.086,0,0,1,2.086-2.086h51.363A2.086,2.086,0,0,1,266.857,342.247Z" transform="translate(-161.043 -238.164)" fill="#d14c5d"/>
                </g>
                <path id="Rectangle_5" data-name="Rectangle 5" d="M0,0H155.435V5.527H0Z" transform="translate(0 70.707)" fill="#aa3241"/>
                <circle id="Ellipse_2-2" data-name="Ellipse 2" cx="3.381" cy="3.381" r="3.381" transform="translate(74.334 82.133)" fill="#aa3241"/>
              </g>
              <g id="Group_7" data-name="Group 7" transform="translate(100.246 132.305)">
                <g id="Group_4" data-name="Group 4" transform="translate(28.153 12.946)">
                  <path id="Path_8" data-name="Path 8" d="M133.475,339.927h-1.407a1.051,1.051,0,0,0-.887.811l-.878,3.346h4.937l-.878-3.346A1.053,1.053,0,0,0,133.475,339.927Z" transform="translate(-114.212 -339.927)" fill="#aa3241"/>
                  <path id="Path_9" data-name="Path 9" d="M114.273,347.329l-.476.477-.039.04-.478.476a1.051,1.051,0,0,0-.053,1.2l1.744,2.986,1.726-1.725.038-.04,1.725-1.727-2.986-1.745a1.053,1.053,0,0,0-1.2.058Z" transform="translate(-108.348 -342.372)" fill="#aa3241"/>
                  <path id="Path_10" data-name="Path 10" d="M105.915,366.133v1.4a1.049,1.049,0,0,0,.813.887l3.346.878v-4.936l-3.347.878a1.049,1.049,0,0,0-.812.888Z" transform="translate(-105.915 -348.242)" fill="#aa3241"/>
                  <path id="Path_11" data-name="Path 11" d="M113.318,385.1l.477.478.038.039.478.478a1.05,1.05,0,0,0,1.2.053L118.5,384.4l-1.725-1.724-.039-.04-1.727-1.725-1.746,2.986a1.051,1.051,0,0,0,.055,1.2Z" transform="translate(-108.361 -353.869)" fill="#aa3241"/>
                  <path id="Path_12" data-name="Path 12" d="M132.122,394.092h1.407a1.052,1.052,0,0,0,.887-.813l.877-3.344h-4.937l.879,3.347A1.048,1.048,0,0,0,132.122,394.092Z" transform="translate(-114.23 -356.94)" fill="#1d3163"/>
                  <path id="Path_13" data-name="Path 13" d="M151.087,386.052l.476-.478.039-.04s.214-.212.477-.476a1.053,1.053,0,0,0,.055-1.2l-1.747-2.987-1.726,1.725-.038.039-1.726,1.727,2.986,1.745a1.052,1.052,0,0,0,1.2-.055Z" transform="translate(-119.858 -353.856)" fill="#aa3241"/>
                  <path id="Path_14" data-name="Path 14" d="M160.081,367.485v-1.406a1.05,1.05,0,0,0-.811-.887l-3.346-.878v4.937l3.348-.878a1.049,1.049,0,0,0,.809-.888Z" transform="translate(-122.928 -348.223)" fill="#aa3241"/>
                  <path id="Path_15" data-name="Path 15" d="M152.04,348.283l-.476-.476-.039-.039-.476-.477a1.053,1.053,0,0,0-1.2-.054l-2.986,1.744,1.725,1.725.04.04,1.725,1.726,1.745-2.987a1.045,1.045,0,0,0-.058-1.2Z" transform="translate(-119.845 -342.359)" fill="#aa3241"/>
                  <path id="Path_16" data-name="Path 16" d="M141.259,358.116a15.047,15.047,0,0,0-12.99-13.137,14.224,14.224,0,0,0-1.973-.135,14.556,14.556,0,0,0-2,.135,15.059,15.059,0,0,0-13.069,14.93,15.95,15.95,0,0,0,.18,2.344,14.966,14.966,0,0,0,2.988,6.89,15.4,15.4,0,0,0,3,2.931,14.99,14.99,0,0,0,6.8,2.752,14.347,14.347,0,0,0,2.1.146,16.639,16.639,0,0,0,2.142-.146A15.137,15.137,0,0,0,141.2,362.22a15.759,15.759,0,0,0,.169-2.311A13.377,13.377,0,0,0,141.259,358.116ZM126.3,370.982a11.073,11.073,0,1,1,11.07-11.072,11.073,11.073,0,0,1-11.07,11.072Z" transform="translate(-107.724 -341.6)" fill="#fc6679"/>
                  <path id="Path_17" data-name="Path 17" d="M127.919,349.516A11.983,11.983,0,1,0,139.9,361.5a11.983,11.983,0,0,0-11.981-11.983Zm-.022,22.671A10.688,10.688,0,1,1,138.586,361.5,10.688,10.688,0,0,1,127.9,372.187Z" transform="translate(-109.324 -343.189)" fill="#aa3241"/>
                </g>
                <g id="Group_5" data-name="Group 5" transform="translate(0 22.088)">
                  <path id="Path_18" data-name="Path 18" d="M84.978,353.782H83.869a.83.83,0,0,0-.7.64l-.693,2.639H86.37l-.692-2.639A.832.832,0,0,0,84.978,353.782Z" transform="translate(-69.789 -353.782)" fill="#8e1222"/>
                  <path id="Path_19" data-name="Path 19" d="M69.836,359.618l-.375.377-.031.032-.377.376a.827.827,0,0,0-.042.946l1.376,2.356,1.361-1.361.03-.03,1.361-1.361-2.354-1.376a.832.832,0,0,0-.949.041Z" transform="translate(-65.164 -355.71)" fill="#8e1222"/>
                  <path id="Path_20" data-name="Path 20" d="M63.246,374.448v1.108a.827.827,0,0,0,.641.7l2.639.692v-3.892l-2.639.692a.829.829,0,0,0-.641.7Z" transform="translate(-63.246 -360.339)" fill="#8e1222"/>
                  <path id="Path_21" data-name="Path 21" d="M69.084,389.4l.376.376.03.032.376.375a.825.825,0,0,0,.949.042l2.354-1.375-1.36-1.36-.03-.032-1.362-1.36-1.377,2.355a.829.829,0,0,0,.044.947Z" transform="translate(-65.174 -364.777)" fill="#8e1222"/>
                  <path id="Path_22" data-name="Path 22" d="M83.912,396.495h1.109a.831.831,0,0,0,.7-.64l.691-2.637H82.519l.693,2.639a.827.827,0,0,0,.7.638Z" transform="translate(-69.803 -367.198)" fill="#8e1222"/>
                  <path id="Path_23" data-name="Path 23" d="M98.867,390.156l.376-.377.03-.03s.169-.168.376-.377a.83.83,0,0,0,.044-.947l-1.378-2.355-1.362,1.361-.03.03-1.36,1.362,2.354,1.376a.831.831,0,0,0,.95-.043Z" transform="translate(-74.241 -364.766)" fill="#8e1222"/>
                  <path id="Path_24" data-name="Path 24" d="M105.959,375.514v-1.108a.827.827,0,0,0-.639-.7l-2.639-.693v3.893l2.641-.693a.826.826,0,0,0,.637-.7Z" transform="translate(-76.662 -360.325)" fill="#8e1222"/>
                  <path id="Path_25" data-name="Path 25" d="M99.618,360.371,99.243,360l-.03-.03-.376-.376a.827.827,0,0,0-.949-.042l-2.355,1.375,1.36,1.36.031.032,1.361,1.361,1.376-2.355A.826.826,0,0,0,99.618,360.371Z" transform="translate(-74.23 -355.7)" fill="#8e1222"/>
                  <path id="Path_26" data-name="Path 26" d="M91.118,368.126a11.849,11.849,0,0,0-2.268-5.689,11.984,11.984,0,0,0-2.206-2.253,11.776,11.776,0,0,0-5.768-2.42,11.363,11.363,0,0,0-1.558-.1,11.6,11.6,0,0,0-1.574.1,11.81,11.81,0,0,0-5.773,2.437,12.067,12.067,0,0,0-2.2,2.253,11.915,11.915,0,0,0-2.256,5.7,11.61,11.61,0,0,0-.08,1.39,12.31,12.31,0,0,0,.143,1.85,11.787,11.787,0,0,0,2.357,5.433,12.1,12.1,0,0,0,2.365,2.311,11.821,11.821,0,0,0,5.362,2.168,11.4,11.4,0,0,0,1.653.117A12.921,12.921,0,0,0,81,381.3a11.958,11.958,0,0,0,5.354-2.185,12.1,12.1,0,0,0,2.369-2.322,11.937,11.937,0,0,0,2.344-5.433,12.42,12.42,0,0,0,.133-1.821A10.446,10.446,0,0,0,91.118,368.126Zm-11.8,10.146a8.732,8.732,0,1,1,8.732-8.732,8.732,8.732,0,0,1-8.732,8.732Z" transform="translate(-64.672 -355.101)" fill="#bf4252"/>
                  <path id="Path_27" data-name="Path 27" d="M80.945,362.432a8.732,8.732,0,1,0,8.732,8.732A8.732,8.732,0,0,0,80.945,362.432Zm-5.91,8.732a5.919,5.919,0,1,1,5.915,5.919,5.919,5.919,0,0,1-5.915-5.919Z" transform="translate(-66.299 -356.725)" fill="#aa3241"/>
                </g>
                <g id="Group_6" data-name="Group 6" transform="translate(13.837)">
                  <path id="Path_28" data-name="Path 28" d="M100,320.3h-.806a.6.6,0,0,0-.508.464l-.5,1.916h2.827l-.5-1.916A.6.6,0,0,0,100,320.3Z" transform="translate(-88.969 -320.305)" fill="#8e1222"/>
                  <path id="Path_29" data-name="Path 29" d="M89,324.542l-.272.274-.022.022-.274.273a.6.6,0,0,0-.03.688l1,1.71.989-.988.021-.022.988-.988-1.71-1A.6.6,0,0,0,89,324.542Z" transform="translate(-85.611 -321.705)" fill="#8e1222"/>
                  <path id="Path_30" data-name="Path 30" d="M84.218,335.312v.8a.6.6,0,0,0,.466.509l1.916.5V334.3l-1.917.5a.6.6,0,0,0-.465.512Z" transform="translate(-84.218 -325.067)" fill="#8e1222"/>
                  <path id="Path_31" data-name="Path 31" d="M88.458,346.171l.273.274.022.022.272.274a.6.6,0,0,0,.689.029l1.71-1-.988-.988-.022-.022-.989-.989-1,1.71A.6.6,0,0,0,88.458,346.171Z" transform="translate(-85.619 -328.289)" fill="#8e1222"/>
                  <path id="Path_32" data-name="Path 32" d="M99.226,351.323h.806a.6.6,0,0,0,.507-.465l.5-1.916H98.215l.5,1.917a.6.6,0,0,0,.511.464Z" transform="translate(-88.98 -330.048)" fill="#8e1222"/>
                  <path id="Path_33" data-name="Path 33" d="M110.086,346.719l.273-.274.022-.022.274-.273a.6.6,0,0,0,.032-.689l-1-1.71-.989.988-.021.022-.988.99,1.71,1a.6.6,0,0,0,.687-.032Z" transform="translate(-92.203 -328.281)" fill="#8e1222"/>
                  <path id="Path_34" data-name="Path 34" d="M115.237,336.086v-.8a.6.6,0,0,0-.464-.509l-1.916-.5V337.1l1.917-.5A.6.6,0,0,0,115.237,336.086Z" transform="translate(-93.961 -325.056)" fill="#8e1222"/>
                  <path id="Path_35" data-name="Path 35" d="M110.632,325.09l-.272-.273-.022-.022-.273-.273a.6.6,0,0,0-.689-.03l-1.71,1,.988.988.022.023.988.989,1-1.711a.6.6,0,0,0-.032-.691Z" transform="translate(-92.195 -321.697)" fill="#8e1222"/>
                  <path id="Path_36" data-name="Path 36" d="M104.459,330.718c-.008-.055-.012-.11-.024-.166a8.585,8.585,0,0,0-1.524-3.825c-.031-.047-.063-.091-.1-.137a8.574,8.574,0,0,0-1.6-1.636c-.047-.034-.09-.071-.138-.1a8.439,8.439,0,0,0-3.884-1.63l-.166-.024a8.312,8.312,0,0,0-1.133-.079,8.525,8.525,0,0,0-1.141.079l-.17.024a8.541,8.541,0,0,0-3.888,1.642c-.044.031-.091.067-.135.1a8.709,8.709,0,0,0-1.6,1.634,1.713,1.713,0,0,0-.1.145,8.554,8.554,0,0,0-1.516,3.825c-.011.055-.016.11-.024.166a8.514,8.514,0,0,0-.059,1.011,8.8,8.8,0,0,0,.1,1.341c.008.056.02.115.028.17a8.507,8.507,0,0,0,1.583,3.635c.032.048.067.1.1.143a8.855,8.855,0,0,0,1.717,1.677c.048.036.1.067.143.1a8.577,8.577,0,0,0,3.581,1.453l.17.024a8.6,8.6,0,0,0,1.2.084,9.417,9.417,0,0,0,1.228-.084c.059-.008.118-.02.174-.032a8.6,8.6,0,0,0,3.568-1.456,1.465,1.465,0,0,0,.146-.1,9,9,0,0,0,1.721-1.689,1.688,1.688,0,0,0,.1-.139,8.633,8.633,0,0,0,1.575-3.639c.008-.055.02-.111.028-.166a9.074,9.074,0,0,0,.094-1.322A7.39,7.39,0,0,0,104.459,330.718Zm-8.566,6.146a5.116,5.116,0,1,1,5.116-5.116,5.116,5.116,0,0,1-5.116,5.116Z" transform="translate(-85.254 -321.262)" fill="#fff"/>
                  <path id="Path_37" data-name="Path 37" d="M97.706,328.443a5.116,5.116,0,1,0,5.116,5.116,5.116,5.116,0,0,0-5.116-5.116Zm0,8.582a3.467,3.467,0,1,1,3.47-3.465A3.467,3.467,0,0,1,97.706,337.025Z" transform="translate(-87.068 -323.074)" fill="#8e1222"/>
                </g>
              </g>
              <g id="Group_8" data-name="Group 8" transform="translate(213.776 178.289)">
                <path id="Path_38" data-name="Path 38" d="M178.991,75.971h-.007a23.547,23.547,0,1,0,22.781,24.291v-.007a23.547,23.547,0,0,0-22.774-24.284Zm8.928,34.931a14.963,14.963,0,1,1-9.209-26.358h.007a14.986,14.986,0,0,1,14.477,15.437v.007a14.919,14.919,0,0,1-5.275,10.912Z" transform="translate(-154.688 -75.959)" fill="#fff"/>
                <path id="Path_39" data-name="Path 39" d="M214.151,100.261v.007l-8.573-.274v-.007A14.986,14.986,0,0,0,191.1,84.55h0l.275-8.573h.007a23.547,23.547,0,0,1,22.769,24.284Z" transform="translate(-167.074 -75.965)" fill="#bf4252"/>
                <path id="Path_40" data-name="Path 40" d="M218.9,112.651a23.49,23.49,0,0,1-8.281,17.182l-5.566-6.542a14.919,14.919,0,0,0,5.274-10.914Z" transform="translate(-171.823 -88.349)" fill="#fc6679"/>
              </g>
              <g id="Group_9" data-name="Group 9" transform="translate(141.139 178.289)">
                <rect id="Rectangle_6" data-name="Rectangle 6" width="55.895" height="15.635" fill="#aa3241"/>
                <path id="Rectangle_7" data-name="Rectangle 7" d="M0,0H55.9V15.635H0Z" transform="translate(0 17.296)" fill="#aa3241"/>
                <path id="Rectangle_8" data-name="Rectangle 8" d="M0,0H55.9V15.635H0Z" transform="translate(0 34.592)" fill="#aa3241"/>
                <rect id="Rectangle_9" data-name="Rectangle 9" width="36.498" height="3.738" transform="translate(5.228 5.594)" fill="#bf4252"/>
                <rect id="Rectangle_10" data-name="Rectangle 10" width="36.498" height="3.738" transform="translate(5.228 23.354)" fill="#bf4252"/>
                <rect id="Rectangle_11" data-name="Rectangle 11" width="36.498" height="3.738" transform="translate(5.228 40.54)" fill="#bf4252"/>
                <path id="Path_41" data-name="Path 41" d="M109.807,216.594a2.125,2.125,0,1,1-2.125-2.125A2.125,2.125,0,0,1,109.807,216.594Z" transform="translate(-59.092 -209.339)" fill="#fff"/>
                <path id="Path_42" data-name="Path 42" d="M109.807,243.827a2.125,2.125,0,1,1-2.125-2.126A2.125,2.125,0,0,1,109.807,243.827Z" transform="translate(-59.092 -218.603)" fill="#ff5252"/>
                <path id="Path_43" data-name="Path 43" d="M109.807,269.875a2.125,2.125,0,1,1-2.125-2.126,2.125,2.125,0,0,1,2.125,2.126Z" transform="translate(-59.092 -227.465)" fill="#fff04b"/>
              </g>
              <g id="Group_14" data-name="Group 14" transform="translate(184.25 112.313)">
                <path id="Path_56" data-name="Path 56" d="M271.614,123.672a9.853,9.853,0,0,1-9.841-9.841v-5.608a9.842,9.842,0,0,1,19.684,0v5.608a9.853,9.853,0,0,1-9.843,9.841Zm0-21.993a6.551,6.551,0,0,0-6.542,6.543v5.608a6.543,6.543,0,1,0,13.086,0v-5.608a6.551,6.551,0,0,0-6.544-6.543Z" transform="translate(-258.832 -98.38)" fill="#aa3241"/>
                <rect id="Rectangle_12" data-name="Rectangle 12" width="25.567" height="25.567" transform="translate(0 14.416)" fill="#fc6679"/>
                <path id="Path_57" data-name="Path 57" d="M277.423,137.988a1.513,1.513,0,0,1-1.513,1.513h0a1.513,1.513,0,0,1-1.513-1.513v-4.055a1.513,1.513,0,0,1,1.513-1.513h0a1.513,1.513,0,0,1,1.513,1.513Z" transform="translate(-263.127 -109.961)" fill="#aa3241"/>
                <path id="Path_58" data-name="Path 58" d="M277.968,141.3a2.639,2.639,0,0,1-2.639,2.639h0a2.639,2.639,0,0,1-2.639-2.639h0a2.639,2.639,0,0,1,2.639-2.639h0a2.639,2.639,0,0,1,2.639,2.639Z" transform="translate(-262.546 -112.085)" fill="#aa3241"/>
              </g>
              <g id="Group_17" data-name="Group 17" transform="translate(256.863 153.959)">
                <path id="Path_61" data-name="Path 61" d="M374.876,112.416a6.717,6.717,0,0,0-1.222.117c.033-.378.053-.758.053-1.144a13.123,13.123,0,0,0-24.27-6.926,10.922,10.922,0,0,0-16.9,8.309,6.7,6.7,0,1,0-2.142,13.041h44.483a6.7,6.7,0,0,0,0-13.4Z" transform="translate(-323.695 -98.266)" fill="#fff"/>
                <path id="Path_62" data-name="Path 62" d="M386.826,148.778V133.3H378.8v15.473H375.64l3.588,3.521,3.587,3.521L386.4,152.3l3.588-3.521Z" transform="translate(-350.767 -116.526)" fill="#bf4252"/>
              </g>
              <g id="Group_18" data-name="Group 18" transform="translate(297.351 187.997)">
                <path id="Path_63" data-name="Path 63" d="M420.174,218.813a19.1,19.1,0,1,1-19.1,19.1A19.1,19.1,0,0,1,420.174,218.813Z" transform="translate(-399.696 -217.427)" fill="#fc6679"/>
                <path id="Path_64" data-name="Path 64" d="M407.761,220.4a20.507,20.507,0,0,0-8.77,16.469c-.007.11-.007.221-.007.332s0,.221.007.332a20.361,20.361,0,0,0,6.648,14.754,18.612,18.612,0,0,0,2.128,1.708,20.421,20.421,0,0,0,24.016-.449,20.028,20.028,0,0,0,2.08-1.8,20.374,20.374,0,0,0,6.075-14.182c.007-.118.007-.242.007-.36s0-.242-.007-.36a20.4,20.4,0,0,0-6.075-14.189,19.8,19.8,0,0,0-2.074-1.8,20.441,20.441,0,0,0-24.03-.449Zm11.7-.919c.464,0,.926.02,1.382.055a17.579,17.579,0,0,1,9.51,3.7,16.331,16.331,0,0,1,2.129,1.956,17.611,17.611,0,0,1,4.692,11.769c.007.077.007.16.007.236s0,.158-.007.234a17.486,17.486,0,0,1-1.333,6.518,17.666,17.666,0,0,1-3.359,5.245,16.861,16.861,0,0,1-2.129,1.963,17.567,17.567,0,0,1-9.51,3.7c-.456.034-.918.055-1.382.055s-.926-.02-1.382-.055a17.455,17.455,0,0,1-8.8-3.186,16.4,16.4,0,0,1-2.17-1.8,17.656,17.656,0,0,1-5.349-12.413c-.007-.089-.007-.172-.007-.255s0-.166.007-.256a17.435,17.435,0,0,1,1.341-6.51,17.635,17.635,0,0,1,4.008-5.909,18.148,18.148,0,0,1,2.163-1.8,17.609,17.609,0,0,1,8.812-3.185c.452-.043.916-.065,1.377-.065Z" transform="translate(-398.984 -216.713)" fill="#bf4252"/>
                <path id="Path_65" data-name="Path 65" d="M418.08,230.923a35.433,35.433,0,0,0-7.057.926,26.6,26.6,0,0,0-2.653.774,20.307,20.307,0,0,0-5.273,2.633,12.1,12.1,0,0,0-2.1,1.873,7.435,7.435,0,0,0-2.011,4.561c-.007.11-.007.221-.007.332s0,.221.007.332a7.465,7.465,0,0,0,2,4.554l.007.007a12.336,12.336,0,0,0,2.094,1.866,20.306,20.306,0,0,0,5.273,2.633,26.648,26.648,0,0,0,2.661.775,35.434,35.434,0,0,0,7.049.926c.456.021.918.028,1.382.028s.926-.007,1.382-.028a34.766,34.766,0,0,0,7.948-1.154,26.728,26.728,0,0,0,2.633-.857,19.681,19.681,0,0,0,4.417-2.328,12.539,12.539,0,0,0,2.087-1.859l.007-.007a7.49,7.49,0,0,0,2-4.526c.007-.118.007-.242.007-.36s0-.242-.007-.36a7.463,7.463,0,0,0-2.011-4.533,12.28,12.28,0,0,0-2.087-1.867,19.679,19.679,0,0,0-4.417-2.329,26.893,26.893,0,0,0-2.633-.857,34.7,34.7,0,0,0-7.948-1.153c-.456-.021-.918-.028-1.382-.028S418.536,230.9,418.08,230.923Zm10.049,3.842a24.347,24.347,0,0,1,2.66.885c3.76,1.5,6.234,3.7,6.386,6.137.007.077.007.16.007.236s0,.158-.007.234c-.152,2.426-2.626,4.631-6.386,6.13a23.021,23.021,0,0,1-2.66.878,32.373,32.373,0,0,1-7.285,1.085c-.456.02-.918.028-1.382.028s-.926-.008-1.382-.028a33.1,33.1,0,0,1-6.366-.849,27.409,27.409,0,0,1-2.674-.775c-4.25-1.492-7.111-3.843-7.284-6.449-.007-.089-.007-.172-.007-.255s0-.166.007-.256c.173-2.6,3.034-4.962,7.284-6.455a25.12,25.12,0,0,1,2.668-.774,32.475,32.475,0,0,1,6.372-.85c.456-.02.918-.028,1.382-.028s.926.007,1.382.028a32.341,32.341,0,0,1,7.284,1.078Z" transform="translate(-398.984 -221.538)" fill="#bf4252"/>
                <path id="Path_66" data-name="Path 66" d="M409.06,224c.271.352.532.74.789,1.154q.351.592.684,1.265A22.01,22.01,0,0,1,411.8,229.7a26.854,26.854,0,0,1,.67,2.689,34.933,34.933,0,0,1,0,13.414,26.851,26.851,0,0,1-.67,2.688,21.954,21.954,0,0,1-1.265,3.276c-.221.45-.449.878-.691,1.272a12.048,12.048,0,0,1-.774,1.147,18.621,18.621,0,0,0,2.128,1.708,11.963,11.963,0,0,0,.8-1.12c.249-.38.484-.781.712-1.2a23.381,23.381,0,0,0,1.756-4.305c.263-.857.49-1.755.684-2.688a37.072,37.072,0,0,0,.74-7.478,36.637,36.637,0,0,0-.746-7.485,25.7,25.7,0,0,0-.685-2.689,23.3,23.3,0,0,0-1.755-4.306q-.341-.632-.7-1.2a13.256,13.256,0,0,0-.8-1.12A20.263,20.263,0,0,0,409.06,224Z" transform="translate(-402.412 -218.612)" fill="#bf4252"/>
                <path id="Path_67" data-name="Path 67" d="M445.7,224.138c-.242.387-.463.8-.677,1.23a24.025,24.025,0,0,0-1.562,4.015c-.256.857-.477,1.756-.663,2.689a38.351,38.351,0,0,0,0,14.5c.186.932.407,1.838.663,2.7a23.849,23.849,0,0,0,1.562,4.022c.214.429.442.836.677,1.231a12.881,12.881,0,0,0,.753,1.154,20.027,20.027,0,0,0,2.08-1.8,12.152,12.152,0,0,1-.732-1.21,13.243,13.243,0,0,1-.65-1.334,22.419,22.419,0,0,1-1.058-2.916c-.249-.864-.463-1.769-.636-2.716a34.865,34.865,0,0,1,0-12.737,27.847,27.847,0,0,1,.636-2.716,22.486,22.486,0,0,1,1.058-2.916q.3-.7.642-1.327a13.933,13.933,0,0,1,.74-1.217,19.8,19.8,0,0,0-2.074-1.8A12.4,12.4,0,0,0,445.7,224.138Z" transform="translate(-413.655 -218.844)" fill="#bf4252"/>
                <rect id="Rectangle_16" data-name="Rectangle 16" width="2.764" height="38.933" transform="translate(19.097 0.649)" fill="#bf4252"/>
              </g>
            </g>
          </g>
          <path id="Rectangle_2-2" data-name="Rectangle 2" d="M5.251,0h39.7A5.251,5.251,0,0,1,50.2,5.251v.712a5.251,5.251,0,0,1-5.251,5.251H5.251A5.251,5.251,0,0,1,0,5.963V5.251A5.251,5.251,0,0,1,5.251,0Z" transform="translate(616.28 244.675) rotate(180)" fill="#ff919f"/>
          <path id="Rectangle_3-2" data-name="Rectangle 3" d="M5.251,0h39.7A5.251,5.251,0,0,1,50.2,5.251v.713a5.251,5.251,0,0,1-5.251,5.251H5.251A5.251,5.251,0,0,1,0,5.964V5.251A5.251,5.251,0,0,1,5.251,0Z" transform="translate(584.503 202.516) rotate(180)" fill="#fc6679"/>
          <rect id="Rectangle_4-2" data-name="Rectangle 4" width="160.066" height="11.215" rx="5.251" transform="translate(707.776 264.191) rotate(180)" fill="#bf4252"/>
          <path id="Rectangle_5-2" data-name="Rectangle 5" d="M4.5,0H112.922a4.5,4.5,0,0,1,4.5,4.5v2.22a4.5,4.5,0,0,1-4.5,4.5H4.5A4.5,4.5,0,0,1,0,6.717V4.5A4.5,4.5,0,0,1,4.5,0Z" transform="translate(646.167 226.399) rotate(180)" fill="#d14c5d"/>
          <line id="Line_6" data-name="Line 6" x1="48.458" transform="translate(590.121 220.792)" fill="none" stroke="#fff" stroke-linecap="round" stroke-linejoin="round" stroke-width="0.964"/>
          <line id="Line_7" data-name="Line 7" x1="38.254" transform="translate(539.556 220.792)" fill="none" stroke="#fff" stroke-linecap="round" stroke-linejoin="round" stroke-width="0.964"/>
          <line id="Line_8" data-name="Line 8" x1="38.254" transform="translate(540.276 196.909)" fill="none" stroke="#fff" stroke-linecap="round" stroke-linejoin="round" stroke-width="0.964"/>
          <line id="Line_9" data-name="Line 9" x1="38.254" transform="translate(664.283 258.584)" fill="none" stroke="#fff" stroke-linecap="round" stroke-linejoin="round" stroke-width="0.964"/>
          <line id="Line_10" data-name="Line 10" x1="38.254" transform="translate(572.053 239.068)" fill="none" stroke="#fff" stroke-linecap="round" stroke-linejoin="round" stroke-width="0.964"/>
          <line id="Line_11" data-name="Line 11" x1="27.649" transform="translate(629.718 258.584)" fill="none" stroke="#fff" stroke-linecap="round" stroke-linejoin="round" stroke-width="0.964"/>
          <line id="Line_12" data-name="Line 12" x1="44.937" transform="translate(553.429 258.584)" fill="none" stroke="#fff" stroke-linecap="round" stroke-linejoin="round" stroke-width="0.964"/>
          <line id="Line_13" data-name="Line 13" x1="18.22" transform="translate(607.191 258.584)" fill="none" stroke="#fff" stroke-linecap="round" stroke-linejoin="round" stroke-width="0.964"/>
        </g>
      </g>
    </g>
  </g>
</svg>
