<svg xmlns="http://www.w3.org/2000/svg" width="760.838" height="378.66" viewBox="0 0 760.838 378.66">
  <g id="fintech-product" transform="translate(-91.226 -95.907)">
    <g id="Group_75" data-name="Group 75">
      <g id="Group_72" data-name="Group 72">
        <path id="Path_38" data-name="Path 38" d="M294.575,247.9,231.41,219.36V143.387l63.165,28.54Z" fill="#d14c5d"/>
      </g>
      <g id="Group_73" data-name="Group 73">
        <path id="Path_39" data-name="Path 39" d="M294.575,247.9l63.165-28.54V143.387l-63.165,28.54Z" fill="#bf4252"/>
      </g>
      <g id="Group_74" data-name="Group 74">
        <path id="Path_40" data-name="Path 40" d="M231.409,143.387l63.165,28.54,63.165-28.54-63.165-25.913Z" fill="#fc6679"/>
      </g>
    </g>
    <g id="Group_79" data-name="Group 79">
      <g id="Group_76" data-name="Group 76">
        <path id="Path_41" data-name="Path 41" d="M798.988,205.5l-53.076-23.981V117.68l53.076,23.981Z" fill="#fc6679"/>
      </g>
      <g id="Group_77" data-name="Group 77">
        <path id="Path_42" data-name="Path 42" d="M798.988,205.5l53.076-23.981V117.68l-53.076,23.981Z" fill="#bf4252"/>
      </g>
      <g id="Group_78" data-name="Group 78">
        <path id="Path_43" data-name="Path 43" d="M745.912,117.68l53.076,23.981,53.076-23.981L798.988,95.907Z" fill="#ff919f"/>
      </g>
    </g>
    <g id="Group_80" data-name="Group 80">
      <path id="Path_44" data-name="Path 44" d="M477.869,266.1l-7.442-3.37,1.312-2.9,7.443,3.371Zm-13.239-6-8.7-3.938,1.313-2.9,8.7,3.938Zm-14.493-6.563-8.7-3.938,1.312-2.9,8.7,3.938Zm-14.492-6.564-8.7-3.938,1.313-2.9,8.7,3.938Zm-14.493-6.563-8.7-3.938,1.313-2.9,8.7,3.938Zm-14.493-6.564-8.7-3.938,1.312-2.9,8.7,3.938Zm-14.492-6.563-8.7-3.938,1.313-2.9,8.7,3.938Zm-14.493-6.564-8.7-3.938,1.312-2.9,8.7,3.938Zm-14.492-6.563-8.7-3.938,1.313-2.9,8.7,3.938Zm-14.493-6.564-8.7-3.938,1.313-2.9,8.7,3.938ZM334.2,201.029l-8.7-3.938,1.312-2.9,8.7,3.938Z" fill="#d67086"/>
    </g>
    <g id="Group_81" data-name="Group 81">
      <path id="Path_45" data-name="Path 45" d="M166.608,266.35l-1.9-2.556,3.93-2.913,1.9,2.556Zm9.043-6.7-1.9-2.556,7.669-5.684,1.9,2.556Zm12.782-9.473-1.9-2.556,7.67-5.684,1.894,2.557Zm12.782-9.472-1.9-2.557,7.67-5.683,1.894,2.556ZM214,231.23l-1.894-2.557,7.669-5.683,1.894,2.556Zm12.782-9.473-1.894-2.556,7.669-5.684,1.894,2.556Zm12.782-9.473-1.894-2.556,7.669-5.684,1.9,2.557Zm12.782-9.472-1.894-2.557,7.669-5.683,1.895,2.556Z" fill="#d67086"/>
    </g>
    <g id="Group_85" data-name="Group 85">
      <g id="Group_82" data-name="Group 82">
        <path id="Path_46" data-name="Path 46" d="M144.3,359.936,91.226,335.954V272.12L144.3,296.1Z" fill="#fc6679"/>
      </g>
      <g id="Group_83" data-name="Group 83">
        <path id="Path_47" data-name="Path 47" d="M144.3,359.936l53.076-23.981V272.12L144.3,296.1Z" fill="#bf4252"/>
      </g>
      <g id="Group_84" data-name="Group 84">
        <path id="Path_48" data-name="Path 48" d="M91.226,272.12,144.3,296.1l53.076-23.981L144.3,250.346Z" fill="#ff919f"/>
      </g>
    </g>
    <g id="Group_86" data-name="Group 86">
      <path id="Path_49" data-name="Path 49" d="M475.355,281l-1.174-2.957.269-.107,1.174,2.957Zm6.184-2.457-1.175-2.957,8.871-3.525,1.175,2.957Zm14.785-5.874-1.175-2.957,8.871-3.525,1.175,2.957Zm14.785-5.875-1.175-2.957,8.872-3.524,1.174,2.957Zm14.785-5.874-1.174-2.957,8.871-3.525,1.175,2.957Zm14.786-5.874-1.175-2.957,8.871-3.525,1.175,2.957Zm14.785-5.875-1.175-2.957,8.872-3.525,1.174,2.957ZM570.25,243.3l-1.174-2.957,8.871-3.525,1.175,2.957Zm14.786-5.875-1.175-2.957,8.871-3.524,1.175,2.957Zm14.785-5.874-1.175-2.957,8.871-3.525,1.175,2.957Zm14.785-5.874-1.174-2.958,8.871-3.524,1.174,2.957Zm14.786-5.875-1.175-2.957,8.871-3.525,1.175,2.958Zm14.785-5.874L643,210.965l8.872-3.525,1.174,2.957Zm14.785-5.875-1.174-2.957,8.871-3.524,1.175,2.957Zm14.786-5.874-1.175-2.957,8.871-3.525,1.175,2.957Zm14.785-5.875-1.175-2.957,8.871-3.524,1.175,2.957Zm14.785-5.874-1.174-2.957,8.871-3.525,1.175,2.957ZM718.1,184.55l-1.175-2.957,8.871-3.525,1.175,2.957Zm14.785-5.875-1.175-2.957,8.871-3.524,1.175,2.957ZM747.67,172.8l-1.174-2.957,8.871-3.525,1.175,2.957Zm14.786-5.875-1.175-2.957,8.871-3.524,1.175,2.957Z" fill="#d67086"/>
    </g>
    <g id="Group_90" data-name="Group 90">
      <g id="Group_87" data-name="Group 87">
        <path id="Path_50" data-name="Path 50" d="M528.573,368.54l-107.61-48.622V190.5l107.61,48.622Z" fill="#fc6679"/>
      </g>
      <g id="Group_88" data-name="Group 88">
        <path id="Path_51" data-name="Path 51" d="M528.573,368.54l107.61-48.622V190.5l-107.61,48.622Z" fill="#bf4252"/>
      </g>
      <g id="Group_89" data-name="Group 89">
        <path id="Path_52" data-name="Path 52" d="M420.963,190.5l107.61,48.622L636.183,190.5l-107.61-44.146Z" fill="#ff919f"/>
      </g>
    </g>
    <g id="Group_91" data-name="Group 91">
      <path id="Path_53" data-name="Path 53" d="M706.6,336.885l-8.712-3.9,1.3-2.9,8.712,3.9Zm-14.52-6.5-8.712-3.9,1.3-2.9,8.712,3.9Zm-14.521-6.5-8.712-3.9,1.3-2.9,8.712,3.9Zm-14.52-6.5-8.712-3.9,1.3-2.9,8.712,3.9Zm-14.52-6.5-8.713-3.9,1.3-2.9,8.712,3.9ZM634,304.377l-8.712-3.9,1.3-2.9,8.712,3.9Zm-14.52-6.5-8.713-3.9,1.3-2.9,8.712,3.9Zm-14.521-6.5-8.712-3.9,1.3-2.9,8.712,3.9Zm-14.52-6.5-8.712-3.9,1.3-2.9,8.712,3.9Z" fill="#d67086"/>
    </g>
    <g id="Group_92" data-name="Group 92">
      <path id="Path_54" data-name="Path 54" d="M387.533,337.985l-1.731-2.67,8.009-5.194,1.731,2.67Zm13.349-8.657-1.731-2.669,8.009-5.194,1.731,2.67Zm13.348-8.656L412.5,318l8.009-5.193,1.731,2.669Zm13.349-8.656-1.731-2.67,8.009-5.194,1.731,2.67Zm13.348-8.656-1.731-2.67,8-5.19,1.731,2.67Zm13.349-8.657-1.731-2.67,8.009-5.193,1.731,2.669Zm13.348-8.656-1.731-2.67,8.009-5.194,1.732,2.67Z" fill="#d67086"/>
    </g>
    <g id="Group_96" data-name="Group 96">
      <g id="Group_93" data-name="Group 93">
        <path id="Path_55" data-name="Path 55" d="M350.737,474.567l-73.593-33.252V352.8l73.593,33.252Z" fill="#fc6679"/>
      </g>
      <g id="Group_94" data-name="Group 94">
        <path id="Path_56" data-name="Path 56" d="M350.737,474.567l73.593-33.252V352.8l-73.593,33.252Z" fill="#bf4252"/>
      </g>
      <g id="Group_95" data-name="Group 95">
        <path id="Path_57" data-name="Path 57" d="M277.144,352.8l73.593,33.252L424.331,352.8l-73.593-30.191Z" fill="#ff919f"/>
      </g>
    </g>
    <g id="Group_100" data-name="Group 100">
      <g id="Group_97" data-name="Group 97">
        <path id="Path_58" data-name="Path 58" d="M747.732,397.962,674.139,364.71V276.2l73.593,33.252Z" fill="#d14c5d"/>
      </g>
      <g id="Group_98" data-name="Group 98">
        <path id="Path_59" data-name="Path 59" d="M747.732,397.962l73.593-33.252V276.2l-73.593,33.252Z" fill="#bf4252"/>
      </g>
      <g id="Group_99" data-name="Group 99">
        <path id="Path_60" data-name="Path 60" d="M674.138,276.2l73.593,33.252L821.325,276.2l-73.593-30.191Z" fill="#fc6679"/>
      </g>
    </g>
  </g>
</svg>
