<svg xmlns="http://www.w3.org/2000/svg" xmlns:xlink="http://www.w3.org/1999/xlink" width="400" height="400" viewBox="0 0 400 400">
  <defs>
    <clipPath id="clip-path">
      <rect id="Rectangle_7" data-name="Rectangle 7" width="400" height="400"/>
    </clipPath>
  </defs>
  <g id="guide-product" clip-path="url(#clip-path)">
    <rect id="Rectangle_6" data-name="Rectangle 6" width="400" height="400" fill="#f5f5f5"/>
    <g id="OBJECTS" transform="translate(2.667 -18.19)">
      <g id="Group_32" data-name="Group 32" transform="translate(26.333 100)">
        <g id="Group_7" data-name="Group 7" transform="translate(0 -53.81)">
          <g id="Group_6" data-name="Group 6">
            <rect id="Rectangle_2" data-name="Rectangle 2" width="342.546" height="343.906" rx="6.167" fill="#f9fbfc"/>
          </g>
        </g>
        <g id="Group_30" data-name="Group 30" transform="translate(24 1.19)">
          <g id="Group_15" data-name="Group 15" transform="translate(10.294 41.289)">
            <g id="Group_14" data-name="Group 14" transform="translate(0 135.769)">
              <path id="Path_37" data-name="Path 37" d="M54.425,301.3v.4a20.128,20.128,0,0,0,20.134,20.135H284.774A20.128,20.128,0,0,0,304.9,301.707v-.4Z" transform="translate(-54.425 -301.3)" fill="#bf4252"/>
            </g>
            <path id="Rectangle_5" data-name="Rectangle 5" d="M10.772,0H215.891a10.772,10.772,0,0,1,10.772,10.772v120.8H0V10.772A10.772,10.772,0,0,1,10.772,0Z" transform="translate(11.907)" fill="#fc6679"/>
            <rect id="Rectangle_6-2" data-name="Rectangle 6" width="207.121" height="109.179" transform="translate(21.678 11.199)" fill="#f9fbfc"/>
            <circle id="Ellipse_1" data-name="Ellipse 1" cx="2.099" cy="2.099" r="2.099" transform="translate(123.139 3.499)" fill="#1d262d"/>
          </g>
          <g id="Group_16" data-name="Group 16" transform="translate(10.401 20.759)">
            <path id="Path_38" data-name="Path 38" d="M59.8,192.288a2.649,2.649,0,1,1-2.65-2.65,2.649,2.649,0,0,1,2.65,2.65Z" transform="translate(-54.502 -189.638)" fill="#1d262d"/>
            <path id="Path_39" data-name="Path 39" d="M69.374,192.288a2.65,2.65,0,1,1-2.65-2.65A2.65,2.65,0,0,1,69.374,192.288Z" transform="translate(-50.675 -189.638)" fill="#1d262d"/>
            <path id="Path_40" data-name="Path 40" d="M78.95,192.288a2.649,2.649,0,1,1-2.65-2.65,2.649,2.649,0,0,1,2.65,2.65Z" transform="translate(-46.846 -189.638)" fill="#1d262d"/>
            <path id="Path_41" data-name="Path 41" d="M88.528,192.288a2.649,2.649,0,1,1-2.65-2.65,2.649,2.649,0,0,1,2.65,2.65Z" transform="translate(-43.017 -189.638)" fill="#1d262d"/>
            <path id="Path_42" data-name="Path 42" d="M98.106,192.288a2.649,2.649,0,1,1-2.65-2.65,2.649,2.649,0,0,1,2.65,2.65Z" transform="translate(-39.188 -189.638)" fill="#1d262d"/>
          </g>
          <g id="Group_17" data-name="Group 17" transform="translate(204.572 206.203)">
            <circle id="Ellipse_2" data-name="Ellipse 2" cx="2.65" cy="2.65" r="2.65" transform="translate(0 0)" fill="#fc6679"/>
            <path id="Path_43" data-name="Path 43" d="M208.1,324.772a2.65,2.65,0,1,1-2.65-2.65A2.65,2.65,0,0,1,208.1,324.772Z" transform="translate(-189.392 -322.122)" fill="#fc6679"/>
            <path id="Path_44" data-name="Path 44" d="M217.677,324.772a2.65,2.65,0,1,1-2.65-2.65A2.65,2.65,0,0,1,217.677,324.772Z" transform="translate(-185.563 -322.122)" fill="#fc6679"/>
            <circle id="Ellipse_3" data-name="Ellipse 3" cx="2.65" cy="2.65" r="2.65" transform="translate(40.221 0)" fill="#fc6679"/>
            <path id="Path_45" data-name="Path 45" d="M236.833,324.772a2.65,2.65,0,1,1-2.65-2.65A2.65,2.65,0,0,1,236.833,324.772Z" transform="translate(-177.906 -322.122)" fill="#fc6679"/>
          </g>
          <g id="Group_18" data-name="Group 18" transform="translate(217.889 129.16)">
            <path id="Path_46" data-name="Path 46" d="M277.853,274.7a4.2,4.2,0,1,1-8.4,0v-1.088a6.533,6.533,0,0,0-13.067,0V274.7a4.2,4.2,0,1,1-8.4,0v-1.088a6.533,6.533,0,0,0-13.067,0V274.7a4.2,4.2,0,1,1-8.4,0v-1.088a6.533,6.533,0,0,0-13.067,0V274.7a4.2,4.2,0,1,1-8.4,0v-.287h-2.335v.287a6.533,6.533,0,0,0,13.065,0v-1.088a4.2,4.2,0,1,1,8.4,0V274.7a6.533,6.533,0,0,0,13.065,0v-1.088a4.2,4.2,0,1,1,8.4,0V274.7a6.533,6.533,0,0,0,13.065,0v-1.088a4.2,4.2,0,1,1,8.4,0V274.7a6.533,6.533,0,0,0,13.065,0Z" transform="translate(-202.735 -267.082)" fill="#1d262d"/>
          </g>
          <g id="Group_23" data-name="Group 23" transform="translate(85.995 77.215)">
            <g id="Group_20" data-name="Group 20">
              <path id="Path_47" data-name="Path 47" d="M108.507,229.971v65.122h99.076V229.971Zm2.8,62.322V241.987h93.476v50.306Z" transform="translate(-108.507 -229.971)" fill="#1d262d"/>
              <g id="Group_19" data-name="Group 19" transform="translate(2.8 2.768)">
                <rect id="Rectangle_7-2" data-name="Rectangle 7" width="7.98" height="6.96" fill="#f9fbfc"/>
                <rect id="Rectangle_8" data-name="Rectangle 8" width="83.34" height="6.96" transform="translate(10.136)" fill="#f9fbfc"/>
              </g>
            </g>
            <g id="Group_22" data-name="Group 22" transform="translate(8.075 17.584)">
              <g id="Group_21" data-name="Group 21" transform="translate(0 3.313)">
                <rect id="Rectangle_9" data-name="Rectangle 9" width="45.834" height="1.925" fill="#dbdbdb"/>
                <rect id="Rectangle_10" data-name="Rectangle 10" width="45.834" height="1.925" transform="translate(0 7.266)" fill="#dbdbdb"/>
                <rect id="Rectangle_11" data-name="Rectangle 11" width="45.834" height="1.925" transform="translate(0 14.532)" fill="#dbdbdb"/>
                <rect id="Rectangle_12" data-name="Rectangle 12" width="45.834" height="1.925" transform="translate(0 21.8)" fill="#dbdbdb"/>
                <rect id="Rectangle_13" data-name="Rectangle 13" width="45.834" height="1.925" transform="translate(0 29.066)" fill="#dbdbdb"/>
              </g>
              <rect id="Rectangle_14" data-name="Rectangle 14" width="30.444" height="37.619" transform="translate(52.482)" fill="#dbdbdb"/>
            </g>
          </g>
          <g id="Group_24" data-name="Group 24" transform="translate(201.146 50.834)">
            <path id="Path_48" data-name="Path 48" d="M190.773,276.374h65.256v-65.25Zm63.2-57.624v6.166h-3.082v2.055h3.082v4.111h-2.055v2.055h2.055v4.111h-3.082V239.3h3.082v4.111h-2.055v2.055h2.055v4.111h-3.082v2.055h3.082v4.111h-2.055V257.8h2.055v4.111h-3.082v2.055h3.082v4.111h-2.055v2.055h2.055v4.111h-4.124v-1.978h-2.055v2.055h-4.115V271.24h-2.055v3.082h-4.111v-2.055h-2.055v2.055h-4.111V271.24h-2.055v3.082h-4.111v-2.055h-2.055v2.055h-4.111V271.24h-2.055v3.082h-4.111v-2.055h-2.055v2.055h-4.111V271.24H204.64v3.082h-8.89l58.229-58.229Z" transform="translate(-190.773 -211.124)" fill="#1d262d"/>
            <path id="Path_49" data-name="Path 49" d="M239.5,260.277V227.944l-32.333,32.333Zm-2.055-2.055H212.14l25.306-25.307Z" transform="translate(-184.219 -204.4)" fill="#1d262d"/>
          </g>
          <g id="Group_25" data-name="Group 25" transform="translate(0 69.557)">
            <path id="Path_50" data-name="Path 50" d="M59.09,237.3l-2.416-5.14L53.087,224.5l-3.6,7.654L47.071,237.3v62.7H59.093Zm-4.862-5.14,2.008,4.278h-6.31l2.011-4.278Zm-4.939,6.5h2.682v50.523H49.288Zm7.583,59.119H49.289V291.4h7.583Zm0-8.594H54.19V238.654h2.682Z" transform="translate(-47.071 -224.5)" fill="#fc6679"/>
          </g>
          <g id="Group_26" data-name="Group 26" transform="translate(97.809 0)">
            <path id="Path_51" data-name="Path 51" d="M120.676,187.025l7.432-8.069-2.017-1.859-9.143,9.927,9.143,9.924,2.017-1.858Z" transform="translate(-116.948 -173.891)" fill="#1d262d"/>
            <path id="Path_52" data-name="Path 52" d="M149.067,177.1l-2.017,1.859,7.433,8.069L147.05,195.1l2.017,1.858,9.143-9.924Z" transform="translate(-104.915 -173.89)" fill="#1d262d"/>
            <rect id="Rectangle_15" data-name="Rectangle 15" width="29.382" height="2.742" transform="matrix(0.537, -0.844, 0.844, 0.537, 17.606, 24.791)" fill="#1d262d"/>
          </g>
          <g id="Group_27" data-name="Group 27" transform="translate(161.768 10.289)">
            <path id="Path_53" data-name="Path 53" d="M180.528,189.58a3.189,3.189,0,0,1,.8-3.542,18.351,18.351,0,0,0-1.666-1.565,3.052,3.052,0,0,1-3.463.794,3.179,3.179,0,0,1-1.939-3.1,19.332,19.332,0,0,0-2.283.079,3,3,0,0,1-1.894,2.973,3.265,3.265,0,0,1-3.546-.807,18.131,18.131,0,0,0-1.584,1.68,2.984,2.984,0,0,1,.79,3.466,3.279,3.279,0,0,1-3.074,1.939,13.988,13.988,0,0,0,.047,2.309,3.007,3.007,0,0,1,2.98,1.89,3.188,3.188,0,0,1-.8,3.543,18.8,18.8,0,0,0,1.662,1.567,2.943,2.943,0,0,1,2.288-1.026,3.044,3.044,0,0,1,1.176.233,3.175,3.175,0,0,1,1.939,3.1c.331-.036.732-.012,1.135-.013a10.507,10.507,0,0,0,1.148-.063,2.991,2.991,0,0,1,1.891-2.973,3.274,3.274,0,0,1,3.547.805,18.2,18.2,0,0,0,1.585-1.68,2.98,2.98,0,0,1-.791-3.466,3.2,3.2,0,0,1,2.927-1.939h.159a15.552,15.552,0,0,0-.048-2.208,3.263,3.263,0,0,1-2.987-1.995Zm-7.4,7.5a4.422,4.422,0,1,1,4.422-4.423,4.422,4.422,0,0,1-4.422,4.423Z" transform="translate(-162.641 -182.158)" fill="#fc6679"/>
          </g>
          <g id="Group_28" data-name="Group 28" transform="translate(37.204 208.854)">
            <path id="Path_54" data-name="Path 54" d="M91.536,331.439a3.189,3.189,0,0,1,.8-3.542,18.512,18.512,0,0,0-1.664-1.565,3.053,3.053,0,0,1-3.463.794,3.176,3.176,0,0,1-1.939-3.1,19.333,19.333,0,0,0-2.284.078,2.994,2.994,0,0,1-1.892,2.973,3.264,3.264,0,0,1-3.546-.805,18.3,18.3,0,0,0-1.585,1.68,2.982,2.982,0,0,1,.791,3.466,3.279,3.279,0,0,1-3.074,1.939,13.684,13.684,0,0,0,.047,2.309,3.007,3.007,0,0,1,2.98,1.89,3.188,3.188,0,0,1-.8,3.543,18.6,18.6,0,0,0,1.662,1.567,2.934,2.934,0,0,1,2.287-1.026,3.05,3.05,0,0,1,1.178.233,3.175,3.175,0,0,1,1.939,3.1c.331-.036.732-.012,1.134-.013a10.491,10.491,0,0,0,1.148-.063,2.99,2.99,0,0,1,1.892-2.973,3.276,3.276,0,0,1,3.547.805,18.379,18.379,0,0,0,1.585-1.68,2.982,2.982,0,0,1-.792-3.466,3.206,3.206,0,0,1,2.928-1.939h.158a15.75,15.75,0,0,0-.044-2.209,3.265,3.265,0,0,1-2.991-1.993Zm-7.4,7.5a4.422,4.422,0,1,1,4.424-4.423,4.422,4.422,0,0,1-4.424,4.423Z" transform="translate(-73.649 -324.016)" fill="#1d262d"/>
          </g>
          <path id="Path_55" data-name="Path 55" d="M100.89,342.915h0a1.068,1.068,0,0,0-.182.309.8.8,0,0,0-.034.1,1.118,1.118,0,0,0-.049.273.837.837,0,0,0-.006.1v.053a1.231,1.231,0,0,0,.062.315c0,.01.01.018.014.03a1.2,1.2,0,0,0,.165.295c.012.01.013.028.026.039l4.711,5.551a.85.85,0,0,0,1.322.016,1.194,1.194,0,0,0,.013-1.521l-2.539-2.994a24.39,24.39,0,0,0,7.534-.328c11.259-2.039,19.23-12.44,17.763-23.181a.981.981,0,0,0-.92-.9,1.036,1.036,0,0,0-.147.012,1.072,1.072,0,0,0-.776,1.232c1.3,9.566-5.966,18.864-16.239,20.727a23.017,23.017,0,0,1-7.368.259l3.921-2.327a1.163,1.163,0,0,0,.4-1.45.879.879,0,0,0-1.258-.467l-6.193,3.671a1.034,1.034,0,0,0-.222.189Zm0,0" transform="translate(-25.666 -116.339)" fill="#1d262d"/>
          <path id="Path_56" data-name="Path 56" d="M238.317,205.694h0a1.107,1.107,0,0,0,.349-.091,1.02,1.02,0,0,0,.1-.048,1.1,1.1,0,0,0,.226-.158.893.893,0,0,0,.078-.069c.016-.014.03-.022.041-.034a1.233,1.233,0,0,0,.178-.268A.257.257,0,0,0,239.3,205a1.113,1.113,0,0,0,.09-.324c0-.016.012-.03.012-.045l.595-7.256a.851.851,0,0,0-.924-.946,1.2,1.2,0,0,0-1.086,1.066l-.321,3.913a24.372,24.372,0,0,0-5.559-5.093c-9.4-6.522-22.395-4.8-28.956,3.83a.984.984,0,0,0,.008,1.293,1.38,1.38,0,0,0,.112.1,1.072,1.072,0,0,0,1.422-.322c5.844-7.689,17.559-9.12,26.138-3.174a23.009,23.009,0,0,1,5.392,5.022l-4.417-1.126a1.163,1.163,0,0,0-1.308.742.878.878,0,0,0,.56,1.219l6.962,1.775a1.08,1.08,0,0,0,.292.023Zm0,0" transform="translate(15.225 -167.793)" fill="#1d262d"/>
          <g id="Group_29" data-name="Group 29" transform="translate(55.669 81.013)">
            <path id="Path_57" data-name="Path 57" d="M93.9,257.087v19.451L89.06,271.7a1.3,1.3,0,1,0-1.838,1.838l7.052,7.052a1.307,1.307,0,0,0,.423.278,1.293,1.293,0,0,0,1,0,1.364,1.364,0,0,0,.42-.282l7.053-7.054a1.3,1.3,0,1,0-1.838-1.838l-4.833,4.835V257.088a1.3,1.3,0,0,0-2.6,0Zm0,0" transform="translate(-86.841 -223.449)" fill="#1d262d"/>
            <path id="Path_58" data-name="Path 58" d="M95.691,232.783a1.293,1.293,0,0,0-.993,0,1.308,1.308,0,0,0-.423.278l-7.053,7.053a1.3,1.3,0,0,0,1.838,1.838l4.833-4.833v19.449a1.3,1.3,0,1,0,2.6,0V237.119l4.833,4.835a1.3,1.3,0,1,0,1.838-1.838l-7.053-7.054a1.307,1.307,0,0,0-.423-.278Zm0,0" transform="translate(-86.841 -232.684)" fill="#1d262d"/>
          </g>
        </g>
      </g>
    </g>
  </g>
</svg>
