<svg id="illustrations-product" xmlns="http://www.w3.org/2000/svg" width="400" height="400" viewBox="0 0 400 400">
  <g id="BACKGROUND">
    <rect id="Rectangle_1" data-name="Rectangle 1" width="400" height="400" fill="#ffd3d9"/>
  </g>
  <g id="Path_6" data-name="Path 6" transform="translate(62 72)">
    <path id="Path_33" data-name="Path 33" d="M232,257H30A24.975,24.975,0,0,1,5,232V30A24.975,24.975,0,0,1,30,5H232a24.976,24.976,0,0,1,25,25V232a24.976,24.976,0,0,1-25,25Z" fill="#ff919f"/>
    <path id="Path_34" data-name="Path 34" d="M30,10A20.023,20.023,0,0,0,10,30V232a20.023,20.023,0,0,0,20,20H232a20.023,20.023,0,0,0,20-20V30a20.023,20.023,0,0,0-20-20H30M30,0H232a30,30,0,0,1,30,30V232a30,30,0,0,1-30,30H30A30,30,0,0,1,0,232V30A30,30,0,0,1,30,0Z"/>
  </g>
  <g id="OBJECTS" transform="translate(-48.267 -14.764)">
    <g id="Group_5" data-name="Group 5">
      <g id="Group_3" data-name="Group 3">
        <g id="Group_1" data-name="Group 1">
          <path id="Path_1" data-name="Path 1" d="M218.7,243.784a15.447,15.447,0,0,0,21.846,0h0a15.445,15.445,0,0,0,0-21.843L193.77,175.164a15.448,15.448,0,0,0-21.846,0h0a15.449,15.449,0,0,0,0,21.846l27.669,27.6Z" fill="#fed740"/>
          <path id="Path_2" data-name="Path 2" d="M240.542,128.36a15.449,15.449,0,0,0-21.846,0L171.92,175.137a15.138,15.138,0,0,0-.616,21.205l.239.255.311.311c.023.023.043.049.066.072s.053.046.078.072l27.592,27.559c-14.857-14.857,5.09-38.543,5.09-38.543h0l35.866-35.863a15.45,15.45,0,0,0,0-21.845Z" fill="#bf4252"/>
        </g>
        <g id="Group_2" data-name="Group 2">
          <path id="Path_3" data-name="Path 3" d="M278.508,186a15.448,15.448,0,0,0-21.847,0h0a15.448,15.448,0,0,0,0,21.844l46.777,46.777a15.445,15.445,0,0,0,21.844,0h0a15.447,15.447,0,0,0,0-21.847l-27.67-27.6Z" fill="#bf4252"/>
          <path id="Path_4" data-name="Path 4" d="M256.661,301.426a15.451,15.451,0,0,0,21.847,0l46.774-46.776a15.136,15.136,0,0,0,.617-21.2l-.239-.256-.311-.311c-.023-.023-.042-.049-.067-.072s-.052-.046-.078-.071l-27.592-27.56c14.859,14.857-5.089,38.544-5.089,38.544h0l-35.864,35.865a15.447,15.447,0,0,0,0,21.837Z" fill="#fed740"/>
        </g>
        <path id="Path_5" data-name="Path 5" d="M239.037,295.268a14.954,14.954,0,0,1-18.738,9.809h0a14.956,14.956,0,0,1-9.808-18.737l48.382-152.08a14.958,14.958,0,0,1,18.74-9.81h0a14.958,14.958,0,0,1,9.809,18.739Z" fill="#9b2a39"/>
      </g>
    </g>
  </g>
</svg>
