<svg xmlns="http://www.w3.org/2000/svg" xmlns:xlink="http://www.w3.org/1999/xlink" width="1299.705" height="1293.124" viewBox="0 0 1299.705 1293.124">
  <defs>
    <linearGradient id="linear-gradient" x1="0.429" y1="1.795" x2="0.507" y2="0.379" gradientUnits="objectBoundingBox">
      <stop offset="0" stop-color="#ffced5"/>
      <stop offset="1" stop-color="#fc6d7f"/>
    </linearGradient>
    <linearGradient id="linear-gradient-2" x1="0.5" y1="1.147" x2="0.5" y2="0.24" xlink:href="#linear-gradient"/>
    <linearGradient id="linear-gradient-4" x1="1" y1="0.5" x2="0" y2="0.5" xlink:href="#linear-gradient"/>
  </defs>
  <g id="job-opening-bg" transform="translate(-718.877 -519.318)">
    <g id="Group_140" data-name="Group 140" transform="translate(718.432 519.288)">
      <g id="Group_1" data-name="Group 1" transform="translate(222.533 124.712)" opacity="0.95">
        <path id="Path_3" data-name="Path 3" d="M1154.39,1050.8h-15.639A503.506,503.506,0,0,1,906.563,807.31V789.98A497.719,497.719,0,0,0,1154.39,1050.8ZM1010.1,248.478A501.5,501.5,0,1,1,1590.78,1050.8h-15.661c167.983-79.174,284.517-250.119,284.517-447.756,0-272.794-222.008-494.736-494.883-494.736-206.749,0-384.287,127.4-458.2,307.8v-17.34A499.732,499.732,0,0,1,1010.1,248.478Z" transform="translate(-906.56 -101.614)" fill="#ffccd3"/>
      </g>
      <rect id="Rectangle_3" data-name="Rectangle 3" width="263.806" height="263.728" rx="58.668" transform="translate(741.747 322.14)" opacity="0.95" fill="url(#linear-gradient)"/>
      <rect id="Rectangle_4" data-name="Rectangle 4" width="122.138" height="6.032" transform="translate(812.581 525.826)" fill="#fc6d7f"/>
      <rect id="Rectangle_5" data-name="Rectangle 5" width="87.54" height="6.032" transform="translate(829.88 544.832)" fill="#fc6d7f"/>
      <rect id="Rectangle_6" data-name="Rectangle 6" width="361.048" height="423.664" rx="69.114" transform="translate(337.3 413.607)" opacity="0.95" fill="url(#linear-gradient-2)"/>
      <g id="Group_2" data-name="Group 2" transform="translate(506.01 663.542)">
        <rect id="Rectangle_7" data-name="Rectangle 7" width="28.635" height="5.302" fill="brown"/>
      </g>
      <g id="Group_3" data-name="Group 3" transform="translate(476.734 712.125)">
        <rect id="Rectangle_8" data-name="Rectangle 8" width="166.628" height="10.265" fill="#fc6d7f"/>
        <rect id="Rectangle_9" data-name="Rectangle 9" width="134.744" height="10.265" transform="translate(31.884 49.283)" fill="#fc6d7f"/>
        <rect id="Rectangle_10" data-name="Rectangle 10" width="78.993" height="10.265" transform="translate(87.636 24.641)" fill="#fc6d7f"/>
      </g>
      <g id="Group_4" data-name="Group 4" transform="translate(397.421 455.857)">
        <path id="Path_4" data-name="Path 4" d="M2025.59,763.9v5.184h-30.535v28.649h-5.186V763.9Zm207.352,33.833h-5.186V769.087h-30.535V763.9h35.721ZM1995.06,945.562v28.659H2025.6v5.185h-35.72V945.562Zm232.7,0h5.186v33.844h-35.721v-5.185h30.535Z" transform="translate(-1989.871 -763.903)" fill="#eb4747"/>
      </g>
      <g id="Group_7" data-name="Group 7" transform="translate(383.05 711.371)">
        <g id="Group_5" data-name="Group 5">
          <path id="Path_5" data-name="Path 5" d="M2413.03,1335.99a30.528,30.528,0,1,0-30.537-30.531A30.528,30.528,0,0,0,2413.03,1335.99Zm0-55.147a24.619,24.619,0,1,1-24.626,24.621,24.619,24.619,0,0,1,24.626-24.621Z" transform="translate(-2382.493 -1274.932)" fill="#eb4747"/>
        </g>
        <g id="Group_6" data-name="Group 6" transform="translate(14.715 20.601)">
          <path id="Path_6" data-name="Path 6" d="M2429.69,1338.08l13.873-13.87-4.179-4.177-9.694,9.691-13.589-13.585-4.18,4.178Z" transform="translate(-2411.917 -1316.135)" fill="#eb4747"/>
        </g>
      </g>
      <path id="Rectangle_11" data-name="Rectangle 11" d="M48.233,0h97.353a48.232,48.232,0,0,1,48.232,48.232v78.042a48.232,48.232,0,0,1-48.232,48.232H48.232A48.232,48.232,0,0,1,0,126.274V48.233A48.233,48.233,0,0,1,48.233,0Z" transform="translate(522.015 224.477)" opacity="0.95" fill="url(#linear-gradient-2)"/>
      <g id="Group_8" data-name="Group 8" transform="translate(611.974 365.979)">
        <rect id="Rectangle_12" data-name="Rectangle 12" width="15.372" height="2.846" fill="brown"/>
      </g>
      <g id="Group_9" data-name="Group 9" transform="translate(553.682 256.058)">
        <path id="Path_8" data-name="Path 8" d="M1921.72,364.3v2.783h-16.391v15.379h-2.784V364.3Zm111.311,18.162h-2.784V367.088h-16.392V364.3h19.176Zm-127.7,79.357V477.2h16.391v2.783h-19.175V461.823Zm124.919,0h2.784v18.168h-19.176V477.2h16.392Z" transform="translate(-1902.548 -364.305)" fill="#eb4747"/>
      </g>
      <g id="Group_10" data-name="Group 10" transform="translate(863.384 496.358)">
        <rect id="Rectangle_13" data-name="Rectangle 13" width="20.533" height="3.802" fill="brown"/>
      </g>
      <g id="Group_11" data-name="Group 11" transform="translate(786.505 349.536)">
        <path id="Path_9" data-name="Path 9" d="M1375.07,551.262v3.717h-21.894v20.542h-3.718V551.262Zm148.679,24.259h-3.719V554.979h-21.9v-3.717h25.613Zm-170.573,106v20.55h21.894v3.718h-25.612V681.517Zm166.854,0h3.719v24.267h-25.613V702.07h21.9Z" transform="translate(-1349.457 -551.262)" fill="#eb4747"/>
      </g>
      <g id="Group_30" data-name="Group 30" transform="translate(791.843 274.444)">
        <g id="Group_15" data-name="Group 15" transform="translate(60.602 0.153)">
          <path id="Path_28" data-name="Path 28" d="M1484.56,403.71s12.933-8.3,24.6,6.451,7.467,28.922,5.031,42.16c-2.417,13.129-14.177,43.17-9.18,56.4s-1.388,20.126-1.388,20.126-40.107,10.266-35.431-50.04S1484.56,403.71,1484.56,403.71Z" transform="translate(-1467.813 -401.385)" fill="#163342"/>
        </g>
        <g id="Group_16" data-name="Group 16" transform="translate(0 115.847)">
          <path id="Path_29" data-name="Path 29" d="M1630.66,653.069s-11.742,31.112-22.838,60.1h-30.094c4.6-14.194,9.265-29.326,9.779-32.1.982-5.4,1.429-21.4,7.59-32.629s20.863-15.667,20.863-15.667C1640.2,633.865,1630.66,653.069,1630.66,653.069Z" transform="translate(-1577.726 -632.771)" fill="#eb4747"/>
        </g>
        <g id="Group_17" data-name="Group 17" transform="translate(10.867 106.814)">
          <path id="Path_30" data-name="Path 30" d="M1536.43,674.412s-4.688,15.255-9.22,29.727h-98.2c-.413-1.272-.926-2.611-1.54-4.028-7.189-16.639-10.682-30.811-7.189-40.262s23.419-35.33,28.565-36.356,19.924-8.012,19.924-8.012c9.667-1.44,23.407-.725,28.141.925s31.043,4.308,40.7,11.807C1548.73,636.851,1536.43,674.412,1536.43,674.412Z" transform="translate(-1418.913 -614.707)" fill="#eddad3"/>
        </g>
        <g id="Group_18" data-name="Group 18" transform="translate(47.011 102.328)">
          <path id="Path_31" data-name="Path 31" d="M1583.42,643.966l-8.99-10.524,7.806-27.707S1584.86,621.164,1583.42,643.966Z" transform="translate(-1574.431 -605.734)" fill="#d6c5be"/>
        </g>
        <g id="Group_19" data-name="Group 19" transform="translate(53.665 70.277)">
          <path id="Path_32" data-name="Path 32" d="M1509.6,561.876s2.952,27.134,2.336,35.967c0,0,15.373,15.4,32.858-17.978,0,0-7.358-13.758-1.82-32.5S1509.6,561.876,1509.6,561.876Z" transform="translate(-1509.596 -541.632)" fill="#eea886"/>
        </g>
        <g id="Group_20" data-name="Group 20" transform="translate(56.001 126.488)">
          <path id="Path_33" data-name="Path 33" d="M1539.92,654.054v14.072l17.693-13.217Z" transform="translate(-1539.918 -654.054)" fill="#eea886"/>
        </g>
        <g id="Group_21" data-name="Group 21" transform="translate(56.001 106.815)">
          <path id="Path_34" data-name="Path 34" d="M1495.13,648.453l7.346-9.09,24.745-24.655,8,7.707Z" transform="translate(-1495.126 -614.708)" fill="#d6c5be"/>
        </g>
        <g id="Group_22" data-name="Group 22" transform="translate(69.686 109.174)">
          <path id="Path_35" data-name="Path 35" d="M1478.96,651.877s-4.241,15.722-15.717,54.623h-51.1c-1.585-20.465-2.467-36.768-2.109-41.7.993-13.871,21.766-45.372,21.766-45.372s12.937,1.563,26.834,4.575C1474.49,627.438,1478.96,651.877,1478.96,651.877Z" transform="translate(-1409.959 -619.426)" fill="#eb4747"/>
        </g>
        <g id="Group_23" data-name="Group 23" transform="translate(10.433 112.455)">
          <path id="Path_36" data-name="Path 36" d="M1627.11,625.987c-12.659,15.143-17.157,48.419-17.871,83.793h-11.363c-13.183-27.573-9.656-40.083-9.656-40.083,6.887-23.568,27.37-40.318,27.37-40.318Z" transform="translate(-1587.789 -625.987)" fill="#eb4747"/>
        </g>
        <g id="Group_24" data-name="Group 24" transform="translate(35.684 102.328)">
          <path id="Path_37" data-name="Path 37" d="M1588.99,633.441l-11.327,3.129,19.134-30.836Z" transform="translate(-1577.66 -605.734)" fill="#fae6de"/>
        </g>
        <g id="Group_25" data-name="Group 25" transform="translate(63.347 106.815)">
          <path id="Path_38" data-name="Path 38" d="M1497.65,639.363,1508,652.921l21.138-35.417-6.74-2.8Z" transform="translate(-1497.654 -614.708)" fill="#fae6de"/>
        </g>
        <g id="Group_26" data-name="Group 26" transform="translate(54.274 84.724)">
          <path id="Path_39" data-name="Path 39" d="M1521.33,582.3l.543,5.344s12.184,2.383,28.173-17.113C1550.05,570.526,1538.71,584.346,1521.33,582.3Z" transform="translate(-1521.33 -570.526)" fill="#a77860"/>
        </g>
        <g id="Group_27" data-name="Group 27" transform="translate(30.479 2.081)">
          <path id="Path_40" data-name="Path 40" d="M1520.89,500.047c-4.813-.177-18.25-1.748-24.879-32.694-8.1-37.807,9.8-57.415,25.119-61.049s29.455,1.692,37.3,21.452c0,0,5.735,15.408-3.573,42.853S1526.04,500.236,1520.89,500.047Z" transform="translate(-1493.99 -405.24)" fill="#eea987"/>
        </g>
        <g id="Group_28" data-name="Group 28" transform="translate(28.282)">
          <path id="Path_41" data-name="Path 41" d="M1526.8,428.743s-20.578,1.279-39.7,30.007c0,0-8.954-34.565,14.448-50.34s39.79-2.213,45.5,4.667c0,0,8.19,1.88,8.448,17.412s10.7,38.972-12.22,50.088c0,0,2.184-17.729.165-21.784S1534.41,457.474,1526.8,428.743Z" transform="translate(-1485.408 -401.078)" fill="#163342"/>
        </g>
        <g id="Group_29" data-name="Group 29" transform="translate(83.319 48.23)">
          <path id="Path_42" data-name="Path 42" d="M1506.88,500.135c1.037-2.688,3.865-3.772,5.422-.889s-.3,14.061-4.45,15.284S1504.78,505.583,1506.88,500.135Z" transform="translate(-1505.021 -497.537)" fill="#eea987"/>
        </g>
        <path id="Path_43" data-name="Path 43" d="M1436.48,707.872h-33.453c-3.516-8.615-6.786-16.247-8.975-21.737-7.245-18.223-36.077-52.492-17.7-63.919,0,0,24.078-1.473,36.144,12.565s11.419,30.721,14.489,37.963C1429.26,678.112,1433.7,696.6,1436.48,707.872Z" transform="translate(-1277.962 -511.625)" fill="#eb4747"/>
      </g>
      <g id="Group_64" data-name="Group 64" transform="translate(489.228 580.42)">
        <rect id="Rectangle_14" data-name="Rectangle 14" width="102.159" height="9.354" transform="translate(340.781 157.449) rotate(-179.542)" fill="#323657"/>
        <rect id="Rectangle_15" data-name="Rectangle 15" width="96.976" height="8.892" transform="translate(239.608 156.423) rotate(-106.985)" fill="#323657"/>
        <g id="Group_31" data-name="Group 31" transform="translate(44.825 168.874)">
          <rect id="Rectangle_16" data-name="Rectangle 16" width="7.972" height="231.694" fill="#ffced5"/>
        </g>
        <g id="Group_32" data-name="Group 32" transform="translate(0 154.915)">
          <rect id="Rectangle_17" data-name="Rectangle 17" width="350.355" height="13.959" fill="#ffced5"/>
        </g>
        <g id="Group_33" data-name="Group 33" transform="translate(301.873 168.874)">
          <rect id="Rectangle_18" data-name="Rectangle 18" width="7.972" height="231.694" fill="#ffced5"/>
        </g>
        <path id="Path_44" data-name="Path 44" d="M1657.24,1285.16a68.3,68.3,0,0,1-7.81,1.143c-2.527.08-14.214-5.219-17.954-4.714s-28.132,10.865-29.239,11.62.52,2.422.52,2.422l56,.663Z" transform="translate(-1313.426 -1147.292)" fill="#eea886"/>
        <g id="Group_34" data-name="Group 34" transform="translate(439.63 364.728)">
          <path id="Path_45" data-name="Path 45" d="M1375.73,1751.34l3.593,7.771s15.131-5.64,15.206-5.829-4.166-10.793-4.166-10.793Z" transform="translate(-1375.726 -1742.486)" fill="#515269"/>
        </g>
        <g id="Group_35" data-name="Group 35" transform="translate(305.859 373.411)">
          <path id="Path_46" data-name="Path 46" d="M1640.66,1759.85l-4.186,12.229s16.6,3.656,19.017,3.463c.213-.017,3.139-13.852,3.139-13.852Z" transform="translate(-1636.477 -1759.852)" fill="#6a6b8a"/>
        </g>
        <path id="Path_47" data-name="Path 47" d="M1700.83,1777.41s-11.6-3.15-11.948-3.653-4.6-3.375-6.8-3.008-2.393,2.99-4.585,3.527-19.148,5.957-21.5,7.341-13.567-2.694-15.727.209-4.257,10.541,13.368,13.18,36.495,10.5,40.714,9.433S1701.47,1782.11,1700.83,1777.41Z" transform="translate(-1374.094 -1391.874)" fill="#51588f"/>
        <path id="Path_48" data-name="Path 48" d="M1396.66,1759.92s-10.754,4.589-11.32,4.414-5.547.2-7,1.8-.022,3.724-1.371,5.455-9.016,11.875-11.259,14.216c-1.835,1.914-11.9,3.7-15.129,7.077-2.434,2.542.427,12.707,17.549,7.849,16.674-4.73,37.321-12.929,39.894-16.288S1399.98,1763.12,1396.66,1759.92Z" transform="translate(-937.04 -1386.477)" fill="#51588f"/>
        <g id="Group_36" data-name="Group 36" transform="translate(356.702 196.034)">
          <path id="Path_49" data-name="Path 49" d="M1344.19,1430.06s-47.3,21.027-57.324,28.215-31.969,20.429-32.7,23.67-5.075.082,2.708,16.27,44.581,55.145,48.032,59.38c3.6,4.417,29.124,30.874,29.124,30.874l19.2-14.456s-36.913-54.262-42.255-62.241-7.748-9.16-4.588-12.684,15.778-3.47,80.741-30.371c6.492-2.689,24.6-8.916,26.99-17.63,4.314-15.745.616-35.7-16.846-44.479S1344.19,1430.06,1344.19,1430.06Z" transform="translate(-1252.3 -1405.099)" fill="#34395c"/>
        </g>
        <g id="Group_37" data-name="Group 37" transform="translate(425.886 62.421)">
          <path id="Path_50" data-name="Path 50" d="M1378.32,1144.23a6.9,6.9,0,0,1,1.337,2.273,55.341,55.341,0,0,1,2.094,6.215c2.144,7.5,4.093,17.125,4.093,17.125s27.072-22.549,23.245-23.966-6.657-8.006-6.657-8.006S1375.47,1141.7,1378.32,1144.23Z" transform="translate(-1378.111 -1137.873)" fill="#eea886"/>
        </g>
        <g id="Group_38" data-name="Group 38" transform="translate(427.786 146.674)">
          <path id="Path_51" data-name="Path 51" d="M1299.46,1306.38s21.97,42,22.921,57.744,45.869-4.955,45.869-4.955Z" transform="translate(-1299.456 -1306.379)" fill="#eddcc5"/>
        </g>
        <g id="Group_39" data-name="Group 39" transform="translate(449.333 200.349)">
          <path id="Path_52" data-name="Path 52" d="M1299.9,1416.79l-.5,3.915-.783,5.163h.009c.675-.043,43.861-2.757,46.99-1.962,3.152.8-5.947-10.181-5.947-10.181Z" transform="translate(-1298.615 -1413.728)" fill="#323657"/>
        </g>
        <g id="Group_40" data-name="Group 40" transform="translate(305.859 210.155)">
          <path id="Path_53" data-name="Path 53" d="M1392.55,1435.68s-48.867,11.5-60.949,15.354-32.873,10.655-38.46,13.842c-2.967,1.693-7.5,4.226-12.925,21.88-6.151,20.013-20.2,76.3-23.383,85.061-2,5.505-7.758,27.163-7.758,27.163l24.97,4.328s29.739-59.853,32.151-75.807c4.059-26.857,14.473-27,18.68-29.446s24.465,2.146,96.54-3.6c7.2-.575,26.894-.932,31.99-8.7,9.208-14.038,18.5-29.984,4.2-44.1S1392.55,1435.68,1392.55,1435.68Z" transform="translate(-1249.072 -1433.34)" fill="#494f80"/>
        </g>
        <g id="Group_41" data-name="Group 41" transform="translate(402.758 8.37)">
          <path id="Path_54" data-name="Path 54" d="M1383.44,1033.65s-8.458,14.6-6.531,18.576-8.834,13.6-7.067,15.644,5.406,4.51,5.346,5.1,3.127,19.625,7.278,20.051,32.523-1.046,34.877-9.917,9.272-28.308,10.9-31.917S1413.52,1019.7,1383.44,1033.65Z" transform="translate(-1369.646 -1029.77)" fill="#eea886"/>
        </g>
        <g id="Group_42" data-name="Group 42" transform="translate(413.868)">
          <path id="Path_55" data-name="Path 55" d="M1393.87,1022.46a31.378,31.378,0,0,1,5.8,5.5c1.861.875,12.833,6.323,10.552,12.212-3.07,7.923-15.477,29.153-16.522,31.371-.14.3-.141-.264-.038-1.455-.765-7.493-9.992-15.9-9.992-15.9l-4.923-2.222a14.411,14.411,0,0,0,1.554-9.238c-5.574-5.97-24.093-12.4-24.093-12.4C1358.84,1003.92,1381.46,1013.25,1393.87,1022.46Z" transform="translate(-1356.206 -1013.03)" fill="#403429"/>
        </g>
        <g id="Group_43" data-name="Group 43" transform="translate(438.601 33.846)">
          <path id="Path_56" data-name="Path 56" d="M1396.2,1081.83c1.31-2,8.219-1.671,7.211,4.222s-9.484,10.619-11.33,7.992S1394.81,1083.96,1396.2,1081.83Z" transform="translate(-1391.652 -1080.723)" fill="#eea886"/>
        </g>
        <path id="Path_57" data-name="Path 57" d="M1285.44,1153.89s34.293,19.976,42.03,54.856,21.729,96.133,21.976,103.386c0,0-46.4-22.323-71.538-16.18,0,0-15.826-56.84-24.15-70.265s4.048-44.985,4.048-44.985S1269.63,1161.76,1285.44,1153.89Z" transform="translate(-828.572 -1083.459)" fill="#eb4747"/>
        <path id="Path_58" data-name="Path 58" d="M1409.48,1152.32a55.4,55.4,0,0,1,2.094,6.215c4.053-1.685,11.782-8.814,12.02-9.036C1420.37,1150.75,1409.48,1152.32,1409.48,1152.32Z" transform="translate(-982.044 -1081.264)" fill="#a77860"/>
        <g id="Group_44" data-name="Group 44" transform="translate(340.117 77.27)">
          <path id="Path_59" data-name="Path 59" d="M1449.66,1178.9a89.09,89.09,0,0,0-8.669,12.91c-5.723,9.931-10.364,19.744-11.6,21.948-2.526,4.485-11.435,9.1-15.411,10.807-3.656,1.568-66.737,2.906-67.512,2.837s.914,19.154.914,19.154,87.079,2.488,90.88-.985,14.791-16.584,19.409-23.1c4.4-6.2,11.139-16.376,14.716-20.761,4-4.9,12.386-21.673,1.721-30.038C1460.48,1160.99,1452.94,1173.99,1449.66,1178.9Z" transform="translate(-1346.265 -1167.569)" fill="#eb4747"/>
        </g>
        <path id="Path_60" data-name="Path 60" d="M1399.39,1247.42s-6.717,20.441-12.6,29.481a134.107,134.107,0,0,1-14.8,18.016l-3.262-9.536S1393.53,1255.57,1399.39,1247.42Z" transform="translate(-937.452 -1130.223)" fill="brown"/>
        <g id="Group_46" data-name="Group 46" transform="translate(481.528 374.91)">
          <g id="Group_45" data-name="Group 45">
            <path id="Path_61" data-name="Path 61" d="M1239.51,1796.11l-2.083,5.857-88-27.259,4.218-11.861Z" transform="translate(-1149.426 -1762.85)" fill="#918783"/>
          </g>
        </g>
        <g id="Group_48" data-name="Group 48" transform="translate(478.509 286.948)">
          <g id="Group_47" data-name="Group 47">
            <rect id="Rectangle_19" data-name="Rectangle 19" width="10.003" height="95.649" fill="#918783"/>
          </g>
        </g>
        <g id="Group_50" data-name="Group 50" transform="translate(454.012 281.866)">
          <g id="Group_49" data-name="Group 49">
            <rect id="Rectangle_20" data-name="Rectangle 20" width="58.996" height="5.636" fill="#5e5854"/>
          </g>
        </g>
        <g id="Group_52" data-name="Group 52" transform="translate(394.633 374.165)">
          <g id="Group_51" data-name="Group 51">
            <path id="Path_62" data-name="Path 62" d="M1323.16,1795.37l2.083,5.857,88-27.259-3.867-12.6Z" transform="translate(-1323.162 -1761.36)" fill="#918783"/>
          </g>
        </g>
        <g id="Group_54" data-name="Group 54" transform="translate(456.637 374.165)">
          <g id="Group_53" data-name="Group 53">
            <path id="Path_63" data-name="Path 63" d="M1323.16,1800.6v6.813l28.082-33.446-3.867-12.6Z" transform="translate(-1323.162 -1761.36)" fill="#918783"/>
          </g>
        </g>
        <g id="Group_56" data-name="Group 56" transform="translate(386.409 408.098)">
          <g id="Group_55" data-name="Group 55">
            <path id="Path_64" data-name="Path 64" d="M1486.84,1837.45a8.224,8.224,0,1,0,8.223-8.222,8.224,8.224,0,0,0-8.223,8.222Z" transform="translate(-1486.837 -1829.226)" fill="#bfb2ac"/>
          </g>
        </g>
        <g id="Group_58" data-name="Group 58" transform="translate(455.939 408.098)">
          <g id="Group_57" data-name="Group 57">
            <path id="Path_65" data-name="Path 65" d="M1347.82,1837.45a8.224,8.224,0,1,0,8.223-8.222,8.224,8.224,0,0,0-8.223,8.222Z" transform="translate(-1347.818 -1829.226)" fill="#bfb2ac"/>
          </g>
        </g>
        <g id="Group_60" data-name="Group 60" transform="translate(563.389 408.098)">
          <g id="Group_59" data-name="Group 59">
            <path id="Path_66" data-name="Path 66" d="M1132.98,1837.45a8.224,8.224,0,1,0,8.223-8.222,8.224,8.224,0,0,0-8.223,8.222Z" transform="translate(-1132.981 -1829.226)" fill="#bfb2ac"/>
          </g>
        </g>
        <g id="Group_61" data-name="Group 61" transform="translate(413.242 260.517)">
          <rect id="Rectangle_21" data-name="Rectangle 21" width="139.764" height="21.349" rx="10.674" fill="#e2d2ca"/>
        </g>
        <g id="Group_62" data-name="Group 62" transform="translate(507.244 112.112)">
          <path id="Rectangle_22" data-name="Rectangle 22" d="M36.5,0h5.4A36.5,36.5,0,0,1,78.4,36.5V96.948a36.5,36.5,0,0,1-36.5,36.5H36.5A36.5,36.5,0,0,1,0,96.947V36.5A36.5,36.5,0,0,1,36.5,0Z" fill="#e2d2ca"/>
        </g>
        <g id="Group_63" data-name="Group 63" transform="translate(500.988 197.309)">
          <path id="Path_67" data-name="Path 67" d="M1184.81,1486.89c14.207,0,25.734-4.771,34.259-14.181,19.267-21.266,15.805-58.649,15.649-60.229a5.363,5.363,0,1,0-10.674,1.054c.042.426,3.112,34.312-12.945,52-6.495,7.156-15.094,10.634-26.289,10.634a5.361,5.361,0,0,0,0,10.722Z" transform="translate(-1179.451 -1407.647)" fill="#e2d2ca"/>
        </g>
      </g>
      <g id="Group_101" data-name="Group 101" transform="translate(638.755 515.827)">
        <g id="Group_67" data-name="Group 67" transform="translate(60.844)">
          <g id="Group_66" data-name="Group 66">
            <g id="Group_65" data-name="Group 65">
              <path id="Path_68" data-name="Path 68" d="M1768.4,887.467s-16.511,8.073-12.428,30.038,5.888,24.925,1.322,33.507-9.954,45.193-5.845,52.133,50.87-30.495,57.354-61.9-4.109-45.377-7.854-50.581S1782.98,880.072,1768.4,887.467Z" transform="translate(-1749.988 -883.843)" fill="#0e2d3d"/>
            </g>
          </g>
        </g>
        <g id="Group_68" data-name="Group 68" transform="translate(50.796 82.914)">
          <path id="Path_69" data-name="Path 69" d="M1867.91,1049.67s-8.4,1.708-13.123,8.654c-3.282,4.831-3.549,15.565-4.022,17.586s-6.742,24.893-6.742,24.893l17.508,11.729Z" transform="translate(-1844.024 -1049.672)" fill="#eb4747"/>
        </g>
        <g id="Group_69" data-name="Group 69" transform="translate(0 449.674)">
          <path id="Path_70" data-name="Path 70" d="M1939.01,1807.57s-11.424,15.375-9.857,17.813,13.582,2.785,20.9,0,7.486-20.8,10.8-28.547c1.384-3.241-1.579-12.808-5.746-13.5s-8.7,1.344-8.7,1.344S1950.72,1795.58,1939.01,1807.57Z" transform="translate(-1929.002 -1783.191)" fill="#1d3b54"/>
        </g>
        <g id="Group_71" data-name="Group 71" transform="translate(6.23 449.454)">
          <g id="Group_70" data-name="Group 70">
            <path id="Path_71" data-name="Path 71" d="M1946.97,1784.33a72.57,72.57,0,0,0-3.282,12.8c-.728,5.185-8.139,16.194-7.791,17.586s9.751,2.654,13.581-.936,6.3-14.03,7.139-20.274a50.139,50.139,0,0,1,1.777-8.689S1950.63,1780.51,1946.97,1784.33Z" transform="translate(-1935.887 -1782.75)" fill="#eea886"/>
          </g>
        </g>
        <g id="Group_72" data-name="Group 72" transform="translate(99.846 449.682)">
          <path id="Path_72" data-name="Path 72" d="M1738.96,1807.83s-11.013,15.12-9.446,17.557,13.581,2.785,20.894,0,7.487-20.8,10.8-28.547c1.385-3.241-1.579-12.808-5.746-13.5s-9.054,1.493-9.054,1.493S1750.67,1795.85,1738.96,1807.83Z" transform="translate(-1729.361 -1783.207)" fill="#1d3b54"/>
        </g>
        <g id="Group_74" data-name="Group 74" transform="translate(106.081 449.112)">
          <g id="Group_73" data-name="Group 73">
            <path id="Path_73" data-name="Path 73" d="M1750.48,1784.27a103.112,103.112,0,0,1-2.264,12.185c-1.393,5.048-8.88,16.536-8.532,17.928s9.751,2.654,13.582-.936,6.79-13.983,7.138-20.274a33.476,33.476,0,0,0-.87-10.4S1754.14,1780.44,1750.48,1784.27Z" transform="translate(-1739.673 -1782.067)" fill="#eea886"/>
          </g>
        </g>
        <g id="Group_76" data-name="Group 76" transform="translate(16.628 167.759)">
          <g id="Group_75" data-name="Group 75">
            <path id="Path_74" data-name="Path 74" d="M1751.57,1252.6s-9.8,45.592-12.054,57.071-8.556,67.073-9.231,76.526-10.23,45.073-9.78,48.448-14.165,71.2-14.165,71.2,4.991,4.016,10.253.363c2.706-1.88,32.067-63.494,32.067-80.374,0-23.334,17.26-53.794,19.487-59.015,20.689-48.5,16.616-63.325,19.318-66.475s2.936,1.947,4.512,8.924,4.951,67.3,6.977,74.951.453,33.537,1.579,46.592,6.068,72.1,6.068,72.1,3.828,6,9.2.156c1.156-1.257,9.272-65.78,9.5-81.31s.466-36.948.9-43.666c4.172-64.357,14.423-73.548-1.724-119.1C1794.24,1173.72,1751.57,1252.6,1751.57,1252.6Z" transform="translate(-1706.339 -1219.362)" fill="#eea886"/>
          </g>
        </g>
        <g id="Group_77" data-name="Group 77" transform="translate(41.864 188.251)">
          <path id="Path_75" data-name="Path 75" d="M1786.06,1260.35s27.929,39.075,15.9,122.2c0,0-66.244,9.007-101.733-10.42,0,0,14.675-85.7,19.993-99.039S1786.06,1260.35,1786.06,1260.35Z" transform="translate(-1700.228 -1260.345)" fill="#141954"/>
        </g>
        <g id="Group_78" data-name="Group 78" transform="translate(30.054 461.968)">
          <path id="Path_76" data-name="Path 76" d="M1931.17,1807.78v16.1h-2.089v-12.442Z" transform="translate(-1929.08 -1807.779)" fill="#1d3b54"/>
        </g>
        <g id="Group_79" data-name="Group 79" transform="translate(129.905 461.968)">
          <path id="Path_77" data-name="Path 77" d="M1731.53,1807.78v16.1h-2.089v-12.442Z" transform="translate(-1729.437 -1807.779)" fill="#1d3b54"/>
        </g>
        <g id="Group_80" data-name="Group 80" transform="translate(55.534 76.677)">
          <path id="Path_78" data-name="Path 78" d="M1745.47,1037.74s-10.29,4.857-13.862,5.572-17.435,18.715-19.865,25.287,0,16.429,5,28,.286,15.429,2.572,27,4.287,36.073,3.858,42.5,57.8,7.642,71.092-4.073c0,0-13.357-20-15.072-22.857s-.286-18.43,1.286-22.43,12.035-38.018,12.035-38.018,8.56-26.125.827-32.128c-6.716-5.214-25.022-7.073-28.309-8.217S1752.19,1036.74,1745.47,1037.74Z" transform="translate(-1710.794 -1037.198)" fill="#eddad3"/>
        </g>
        <g id="Group_81" data-name="Group 81" transform="translate(80.671 73.557)">
          <path id="Path_79" data-name="Path 79" d="M1825.2,1057.55l-6.252-7.319,5.43-19.269A127.2,127.2,0,0,1,1825.2,1057.55Z" transform="translate(-1818.952 -1030.958)" fill="#d6c5be"/>
        </g>
        <g id="Group_82" data-name="Group 82" transform="translate(85.297 51.266)">
          <path id="Path_80" data-name="Path 80" d="M1773.86,1000.45s.283,2.58.616,6.145c.144,1.58.3,3.356.45,5.187a117.653,117.653,0,0,1,.56,13.682s10.693,10.713,22.853-12.5c0,0-5.116-9.569-1.265-22.608S1773.86,1000.45,1773.86,1000.45Z" transform="translate(-1773.861 -986.376)" fill="#eea886"/>
        </g>
        <g id="Group_83" data-name="Group 83" transform="translate(86.924 90.359)">
          <path id="Path_81" data-name="Path 81" d="M1794.95,1064.56v9.787l12.3-9.192Z" transform="translate(-1794.95 -1064.562)" fill="#eea886"/>
        </g>
        <g id="Group_84" data-name="Group 84" transform="translate(86.924 76.678)">
          <path id="Path_82" data-name="Path 82" d="M1763.8,1060.67l5.109-6.322,17.209-17.146,5.567,5.359Z" transform="translate(-1763.799 -1037.199)" fill="#d6c5be"/>
        </g>
        <g id="Group_85" data-name="Group 85" transform="translate(96.445 78.318)">
          <path id="Path_83" data-name="Path 83" d="M1715.39,1040.48s-14.441,21.911-15.131,31.553,5.367,81.779,10.217,104.967,39.9-2.616,39.9-2.616-23.552-38.109-14.511-68.623,12.326-42.714,12.326-42.714-3.111-16.993-14.134-19.383C1724.39,1041.57,1715.39,1040.48,1715.39,1040.48Z" transform="translate(-1700.205 -1040.479)" fill="#eb4747"/>
        </g>
        <g id="Group_86" data-name="Group 86" transform="translate(55.234 80.599)">
          <path id="Path_84" data-name="Path 84" d="M1828.54,1075.44s-2.606,9.214,7.543,29.582c0,0-.162,26.067-.448,34.209s-6.045,37.424-6.045,37.424l13.866,7.382a2.831,2.831,0,0,0,4.243-2.783c-2.842-23.434-12.088-112.324,7.884-136.218l-8.014,2.362S1833.33,1059.05,1828.54,1075.44Z" transform="translate(-1828.244 -1045.04)" fill="#eb4747"/>
        </g>
        <g id="Group_87" data-name="Group 87" transform="translate(72.794 73.557)">
          <path id="Path_85" data-name="Path 85" d="M1829.07,1050.23l-7.877,2.176,13.307-21.445Z" transform="translate(-1821.197 -1030.958)" fill="#fae6de"/>
        </g>
        <g id="Group_88" data-name="Group 88" transform="translate(92.033 75.738)">
          <path id="Path_86" data-name="Path 86" d="M1765.41,1053.41l7.2,9.429,14.776-24.62-5.124-2.9Z" transform="translate(-1765.406 -1035.319)" fill="#fae6de"/>
        </g>
        <rect id="Rectangle_23" data-name="Rectangle 23" width="2.61" height="30.805" transform="translate(62.497 156.11) rotate(-141.618)" fill="#eb4747"/>
        <path id="Path_87" data-name="Path 87" d="M1835.96,1184.58a5.586,5.586,0,0,1-3.027-.87c-2.074-1.563-2.821-5.413-6.48-5.132s-5.356,11.753-4.439,13.925,6,3.257,13.508,1.761S1835.96,1184.58,1835.96,1184.58Z" transform="translate(-1753.161 -1031.201)" fill="#eea886"/>
        <path id="Path_88" data-name="Path 88" d="M1868.93,1174.52a114.6,114.6,0,0,0-11.331-3.1c-5.327-1.151-11.692-1.528-12.311-.6-.69,1.029,5.189,1.917,10.408,3.4,4.806,1.364,3.661,1.865,3.661,1.865s.317-.16-5.17-.673c-5.9-.551-11.975-.539-12.574.639-.292.573-.088.961,2.037,1.5-1.277-.058-1.458.272-1.506.785-.252,2.657,8.352,4.771,11.769,5.61-2.628-.629-4.613-.82-3.667.959,1.082,2.035,13.361,4.5,17.691,5.786C1872.66,1192.08,1868.93,1174.52,1868.93,1174.52Z" transform="translate(-1794.379 -1027.066)" fill="#eea886"/>
        <path id="Path_89" data-name="Path 89" d="M1736.75,1047.43c3.619-1.171,14.241,2.594,16.036,13.482s2.514,22.973,4.189,28.837,5.945,31.84,2.354,33.994-10.389,4.122-19.927,4.122c-9.85,0-48.039,1.713-48.039,1.713l-2.394-13.562s14.5-.749,22.02-1.887c6.689-1.013,15.962-3.861,26.877-5.057,0,0-2.315-16.091-3.99-20.639S1720.47,1052.69,1736.75,1047.43Z" transform="translate(-1608.492 -965.532)" fill="#eb4747"/>
        <g id="Group_89" data-name="Group 89" transform="translate(12.449 105.613)">
          <path id="Path_90" data-name="Path 90" d="M1901.5,1163.73l-38.468-7.628-28.53-61.028,41.06,4.314Z" transform="translate(-1834.5 -1095.069)" fill="#fff"/>
        </g>
        <g id="Group_91" data-name="Group 91" transform="translate(24.697 137.222)">
          <g id="Group_90" data-name="Group 90">
            <path id="Path_91" data-name="Path 91" d="M1925.37,1177.35a31.163,31.163,0,0,1-3.987-4.7c-1.879-2.741-8.025-13.2-7.463-13.859s9.688-.88,11.342.609-1.629,2.072-1.629,2.072,4.99.514,4.634,1.922-3.361,1.018-3.361,1.018,4.016.77,3.408,2.007-2.54,1.223-2.54,1.223,3.559.446,3.119,1.8-6.071,2.625-5.318,3.746a26.433,26.433,0,0,1,1.8,4.162Z" transform="translate(-1913.884 -1158.287)" fill="#eea886"/>
          </g>
        </g>
        <g id="Group_94" data-name="Group 94" transform="translate(66.822 5.359)">
          <g id="Group_93" data-name="Group 93">
            <g id="Group_92" data-name="Group 92">
              <path id="Path_92" data-name="Path 92" d="M1781.7,895.261s-23.973,7.532-10.959,48.891,45.756-4.793,42.33-29.992S1781.7,895.261,1781.7,895.261Z" transform="translate(-1766.869 -894.561)" fill="#eea987"/>
            </g>
          </g>
        </g>
        <g id="Group_97" data-name="Group 97" transform="translate(66.56 2.038)">
          <g id="Group_96" data-name="Group 96">
            <g id="Group_95" data-name="Group 95">
              <path id="Path_93" data-name="Path 93" d="M1764.77,916.073a54.084,54.084,0,0,0,31.847,13.146s7.662,8.981,8.25,12.505c0,0,17.787-30.309-4.078-48.477S1756.73,908.586,1764.77,916.073Z" transform="translate(-1763.09 -887.918)" fill="#0e2d3d"/>
            </g>
          </g>
        </g>
        <g id="Group_100" data-name="Group 100" transform="translate(99.825 35.886)">
          <g id="Group_99" data-name="Group 99">
            <g id="Group_98" data-name="Group 98">
              <path id="Path_94" data-name="Path 94" d="M1777.1,963.891c.155-3.01,2.009-9.86,6.484-7.943s-.275,15.868-3.242,15.01C1780.34,970.957,1776.73,971.012,1777.1,963.891Z" transform="translate(-1777.072 -955.614)" fill="#eea987"/>
            </g>
          </g>
        </g>
        <path id="Path_95" data-name="Path 95" d="M1788.58,1015c.144,1.58.3,3.356.45,5.187h0c13.861-6.842,15.984-16.707,16.046-17.013C1795.21,1015.93,1788.58,1015,1788.58,1015Z" transform="translate(-1702.671 -943.506)" fill="#a77860"/>
      </g>
      <g id="Group_115" data-name="Group 115" transform="translate(410.082 384.651)">
        <g id="Group_103" data-name="Group 103" transform="translate(28.001)">
          <g id="Group_102" data-name="Group 102">
            <path id="Path_96" data-name="Path 96" d="M2190.53,621.586s-28.271-2.962-38.458,24.332-19.778,36.229-20.979,50.568c-4.856,57.995-31.947,44.876-24.328,78.307s12.9,38.487,12.9,38.487l64.767-12.7,65.61.212s-25.668-12.816-19.954-40.109,19.954-72.03,11.911-102.5S2207.43,623.913,2190.53,621.586Z" transform="translate(-2105.428 -621.492)" fill="#0e2d3d"/>
          </g>
        </g>
        <g id="Group_105" data-name="Group 105" transform="translate(0 141.686)">
          <g id="Group_104" data-name="Group 104">
            <path id="Path_97" data-name="Path 97" d="M2006.89,1000.6h221.9c-10.711-27.471-21.229-53.084-24.23-56.223-6.374-6.648-37.735-27.443-64.059-35.756s-41.274-.276-41.274-.276-48.846,13.7-69.621,36.128C2023.81,950.741,2014.9,975.28,2006.89,1000.6Z" transform="translate(-2006.89 -904.864)" fill="#eb4747"/>
          </g>
        </g>
        <g id="Group_107" data-name="Group 107" transform="translate(88.96 111.013)">
          <g id="Group_106" data-name="Group 106">
            <path id="Path_98" data-name="Path 98" d="M2184.41,845.978s2.275,28.213-3.161,36.666,4.65,19.925,25.427,16,19.569-15.7,19.569-15.7-5.817-17.411-4.116-31.347S2184.41,845.978,2184.41,845.978Z" transform="translate(-2179.791 -843.517)" fill="#eea886"/>
          </g>
        </g>
        <g id="Group_109" data-name="Group 109" transform="translate(80.066 142.061)">
          <g id="Group_108" data-name="Group 108">
            <path id="Path_99" data-name="Path 99" d="M2163.55,912.7s18.738,42.381,43.02,51.526c0,0,25.874-20.55,19.429-52.027C2226,912.2,2193.17,897.058,2163.55,912.7Z" transform="translate(-2163.551 -905.613)" fill="#eea886"/>
          </g>
        </g>
        <g id="Group_111" data-name="Group 111" transform="translate(76.869 15.751)">
          <g id="Group_110" data-name="Group 110">
            <path id="Path_100" data-name="Path 100" d="M2175.19,653.3s-37.443,5.4-31.962,60.659,38.527,50.87,40.735,50.824,33.152,1.149,35.829-66.276C2219.79,698.507,2221.04,648.645,2175.19,653.3Z" transform="translate(-2142.678 -652.993)" fill="#eea886"/>
          </g>
        </g>
        <g id="Group_113" data-name="Group 113" transform="translate(69.617 7.014)">
          <g id="Group_112" data-name="Group 112">
            <path id="Path_101" data-name="Path 101" d="M2179.28,664.589s-17.494,18.387-25.62,27.7-9.061,27.294-9.061,27.294-13.688-16.715-7.964-36.181,19.269-57.339,53.556-45.7,35.557,62.84,31.535,88.23C2221.73,725.928,2206.34,669.879,2179.28,664.589Z" transform="translate(-2135.239 -635.52)" fill="#0e2d3d"/>
          </g>
        </g>
        <g id="Group_114" data-name="Group 114" transform="translate(95.818 120.568)">
          <path id="Path_102" data-name="Path 102" d="M2226.76,867.27s-16.009,8.014-32.238-4.642c0,0,6.225,10.357,17.1,10.922S2226.76,867.27,2226.76,867.27Z" transform="translate(-2194.521 -862.628)" fill="#a77860"/>
        </g>
      </g>
      <g id="Group_124" data-name="Group 124" transform="translate(557.414 195.672)">
        <g id="Group_116" data-name="Group 116" transform="translate(0 86.96)">
          <path id="Path_103" data-name="Path 103" d="M2103.84,477.143h22.319c.308-1.917.583-3.851.825-5.76v-.016c1.473-11.633,1.845-22.255,1.845-22.255s6.515-29.82-12.308-31.657c0,0-5.042,1.577-5.341,3.649-1.133,7.968-3.731,25.2-3.844,29.278C2107.28,452.485,2105.29,466.716,2103.84,477.143Z" transform="translate(-2103.838 -417.455)" fill="#323657"/>
        </g>
        <g id="Group_117" data-name="Group 117" transform="translate(12.122 68.704)">
          <path id="Path_104" data-name="Path 104" d="M1914.49,399.83q.412,12.256,1.448,26.293s.939,15.281,1.263,32.764h79.339c1.844-8.608,3.908-16.237,4.167-17.191,0-.008.008-.025.008-.032s0-.024.008-.024v-.04s1.781,8.592,3.2,17.289h19.22c-2.38-19.1-8.2-61.452-11.273-63.653-2.622-1.877-19.058-8.462-27.587-11.7a61.331,61.331,0,0,0-7.559-2.589c-1.95-.121-26,2.185-26,2.185s-3.447,1.181-6.968,2.8c-6.021,2.758-15.391,7.07-22.117,10.274C1919.47,397.241,1916.75,398.641,1914.49,399.83Z" transform="translate(-1914.492 -380.943)" fill="#d8d5e0"/>
        </g>
        <g id="Group_118" data-name="Group 118" transform="translate(47.26 44.763)">
          <path id="Path_105" data-name="Path 105" d="M2034.53,356.957c-1.767,16.2-19.76,16.2-19.76,16.2s-7.448-6.513-7.211-11.334c.006-.1.012-.213.026-.314.109-.888,1.116-1.991,1.219-3.768.015-.242.021-.491.026-.737s.006-.482.006-.721c-.006-1.23-.076-2.446-.148-3.292q-.039-.45-.071-.749c-.03-.3-.051-.47-.051-.47s2.9-3.055,6.586-6.7c6.441-6.366,15.3-14.523,15.314-11.281a3.069,3.069,0,0,1-.076.615C2028.83,341.713,2034.53,356.957,2034.53,356.957Z" transform="translate(-2007.551 -333.06)" fill="#eea886"/>
        </g>
        <path id="Path_106" data-name="Path 106" d="M2034.03,399.926l-7.49,6.663s8.647-.574,10.262-2.014Z" transform="translate(-1972.068 -321.73)" fill="#b4b1ba"/>
        <g id="Group_119" data-name="Group 119" transform="translate(11.564 72.374)">
          <path id="Path_107" data-name="Path 107" d="M2074.77,399.875c4.548-2.16,10.318-4.838,15.432-7.2,2.436-1.132,4.734-2.184,6.684-3.074l3.083-1.319c-.17.413-5.778,13.9-10.01,43.476-1.084,7.573-2.776,18.551-4.435,30.8h-15.8c-.866-17.393-1.295-32.458-1.295-32.458-.7-9.53-1.109-18.445-1.375-26.745C2069.36,402.375,2072.35,401.024,2074.77,399.875Z" transform="translate(-2067.055 -388.282)" fill="#323657"/>
        </g>
        <g id="Group_120" data-name="Group 120" transform="translate(60.609 71.298)">
          <path id="Path_108" data-name="Path 108" d="M1910.45,461.481h34.393a112.953,112.953,0,0,1,2.209-13.8s1.5,6.124,2.864,13.8h22.505c-2.387-21.132-7.267-61.047-10.18-63.134-2.218-1.586-18.645-7.411-26.7-10.582-1.473-.582-2.906-1.132-4.224-1.634-1.708,1.9-19.835,35.427-21.251,62.673a113.419,113.419,0,0,0,.384,12.677Z" transform="translate(-1910.011 -386.13)" fill="#323657"/>
        </g>
        <path id="Path_109" data-name="Path 109" d="M2021.24,401.1s-.642,9.2,7.143,9.414,13.964-7.258,13.964-7.258l-12.921,3.331-7.865-6.663Z" transform="translate(-1974.95 -321.73)" fill="#d8d5e0"/>
        <path id="Path_110" data-name="Path 110" d="M2008.92,374.794s-7.379,9.464-11.231,12.566L2004,397.95l10.891-18.518Z" transform="translate(-1935.722 -309.164)" fill="#eae6f2"/>
        <path id="Path_111" data-name="Path 111" d="M2047.06,392.911l6.661,4.925s-5.851-10.667-5.966-15.417Z" transform="translate(-1999.246 -312.977)" fill="#b4b1ba"/>
        <path id="Path_112" data-name="Path 112" d="M2068.03,382.419l-4.275,3.021-4.766,14.21,8.347-6.739Z" transform="translate(-2019.522 -312.977)" fill="#eae6f2"/>
        <g id="Group_121" data-name="Group 121" transform="translate(23.624 6.192)">
          <path id="Path_113" data-name="Path 113" d="M2019.04,271.747s-4.7,11.428-1.629,12.8c2.535,1.139-1.537,12.3-2.034,14.1s4.644,2.539,5.825,3.543,5.778,14.406,9.946,14.386,22.071-8.433,26.578-14.224,6.16-29.985,1.729-39.651S2027.35,251.772,2019.04,271.747Z" transform="translate(-2015.343 -255.919)" fill="#eea886"/>
        </g>
        <g id="Group_122" data-name="Group 122" transform="translate(23.885)">
          <path id="Path_114" data-name="Path 114" d="M2008.25,268.021s-7.186-11.054,2.723-20.855,31.457,3.308,33.767,3.652,15.845,3.235,11.344,23.824c-4.008,18.333-4.392,18.813-4.392,18.813s-5.376-9.693-7.894-11.145c-3.932-2.267-11.875-.789-11.875-.789s2.751-10.531-3.365-11.339S2014.05,265.147,2008.25,268.021Z" transform="translate(-2005.731 -243.534)" fill="#0e2d3d"/>
        </g>
        <g id="Group_123" data-name="Group 123" transform="translate(54.966 26.091)">
          <path id="Path_115" data-name="Path 115" d="M2027.22,301.143c.38-1.445,1.452-7.6,6.948-4.628s-1.641,15.1-2.519,15.337S2024.02,313.3,2027.22,301.143Z" transform="translate(-2026.364 -295.716)" fill="#eea886"/>
        </g>
        <path id="Path_116" data-name="Path 116" d="M2042.4,350.448c-.124.31-4.213,10.24-16.758,15.25.006-.24.006-.482.006-.721-.006-1.23-.076-2.446-.148-3.292-.026-.3-.05-.55-.07-.749C2025.43,360.936,2038.9,354.6,2042.4,350.448Z" transform="translate(-1977.103 -296.991)" fill="#a77860"/>
      </g>
      <g id="Group_130" data-name="Group 130" transform="translate(364.25 336.12)" opacity="0.95">
        <path id="Path_133" data-name="Path 133" d="M2517.9,547.22h-15.075l4.614-9.568h15.076Z" transform="translate(-2502.825 -531.041)" fill="url(#linear-gradient-4)"/>
        <path id="Path_134" data-name="Path 134" d="M2492.31,547.22h-3.593l4.614-9.568h3.592Z" transform="translate(-2470.184 -531.041)" fill="url(#linear-gradient-4)"/>
        <path id="Path_135" data-name="Path 135" d="M2450.8,529.215h-61.044l2.026-4.784h61.043Z" transform="translate(-2376.587 -524.431)" fill="url(#linear-gradient-4)"/>
      </g>
      <g id="Group_137" data-name="Group 137" transform="translate(746.846 180.567)">
        <g id="Group_131" data-name="Group 131" transform="translate(18.041)">
          <path id="Rectangle_25" data-name="Rectangle 25" d="M2.817,0H23.049a2.818,2.818,0,0,1,2.818,2.818v2.16a2.816,2.816,0,0,1-2.816,2.816H2.817A2.817,2.817,0,0,1,0,4.977V2.817A2.817,2.817,0,0,1,2.817,0Z" fill="url(#linear-gradient-4)"/>
        </g>
        <g id="Group_132" data-name="Group 132" transform="translate(18.041 18.688)">
          <path id="Rectangle_26" data-name="Rectangle 26" d="M2.817,0H23.05a2.817,2.817,0,0,1,2.817,2.817v2.16a2.816,2.816,0,0,1-2.816,2.816H2.817A2.817,2.817,0,0,1,0,4.976V2.817A2.817,2.817,0,0,1,2.817,0Z" fill="url(#linear-gradient-4)"/>
        </g>
        <g id="Group_133" data-name="Group 133" transform="translate(18.041 37.375)">
          <path id="Rectangle_27" data-name="Rectangle 27" d="M2.817,0H23.05a2.817,2.817,0,0,1,2.817,2.817v2.16a2.816,2.816,0,0,1-2.816,2.816H2.817A2.817,2.817,0,0,1,0,4.977V2.817A2.817,2.817,0,0,1,2.817,0Z" fill="url(#linear-gradient-4)"/>
        </g>
        <g id="Group_134" data-name="Group 134">
          <path id="Rectangle_28" data-name="Rectangle 28" d="M2.817,0H4.542A2.818,2.818,0,0,1,7.36,2.818V4.977A2.817,2.817,0,0,1,4.543,7.794H2.817A2.817,2.817,0,0,1,0,4.977V2.817A2.817,2.817,0,0,1,2.817,0Z" fill="url(#linear-gradient-4)"/>
        </g>
        <g id="Group_135" data-name="Group 135" transform="translate(0 18.688)">
          <rect id="Rectangle_29" data-name="Rectangle 29" width="7.36" height="7.793" rx="2.817" fill="url(#linear-gradient-4)"/>
        </g>
        <g id="Group_136" data-name="Group 136" transform="translate(0 37.375)">
          <rect id="Rectangle_30" data-name="Rectangle 30" width="7.36" height="7.794" rx="2.817" fill="url(#linear-gradient-4)"/>
        </g>
      </g>
      <g id="Group_138" data-name="Group 138" transform="translate(1036.244 462.105)">
        <path id="Path_136" data-name="Path 136" d="M1155,793.573h-27.06l8.283-17.174h27.06Z" transform="translate(-1127.94 -776.399)" fill="url(#linear-gradient-4)"/>
        <path id="Path_137" data-name="Path 137" d="M1109.07,793.573h-6.448L1110.9,776.4h6.448Z" transform="translate(-1069.348 -776.399)" fill="url(#linear-gradient-4)"/>
      </g>
      <g id="Group_141" data-name="Group 141" transform="matrix(0.94, 0.342, -0.342, 0.94, 344.155, -0.124)" opacity="0.95">
        <path id="Path_3-2" data-name="Path 3" d="M754.71.025h16.576A533.553,533.553,0,0,1,1017.36,258.1v18.37A527.425,527.425,0,0,0,754.71.025ZM907.573,850.478A531.524,531.524,0,1,1,292.165.069h16.6C130.706,84.009,7.17,265.224,7.15,474.72c-.028,289.163,235.263,524.4,524.492,524.373,219.14-.021,407.33-135.086,485.689-326.316v18.382A529.864,529.864,0,0,1,907.573,850.478Z" fill="#fc6679"/>
      </g>
    </g>
  </g>
</svg>
