<svg xmlns="http://www.w3.org/2000/svg" width="249.993" height="249.993" viewBox="0 0 249.993 249.993">
  <path id="logo-design-product" d="M1,1V250.993H250.993V1ZM47.32,57.883A8.346,8.346,0,0,1,59.1,57.456L78.362,75.371l32.584-35.912a8.333,8.333,0,0,1,12.345,11.2L85.039,92.814a8.323,8.323,0,0,1-5.819,2.726c-.118,0-.236.008-.354.008a8.343,8.343,0,0,1-5.676-2.23L47.747,69.663A8.338,8.338,0,0,1,47.32,57.883ZM72.377,205.639a25,25,0,1,1,25-25A25,25,0,0,1,72.377,205.639ZM213.046,70.627A8.325,8.325,0,0,1,201.6,73.443l-13.918-8.417c16.791,45.657,7.713,74.862-3.371,91.585-13.431,20.267-36.762,32.364-62.413,32.364a8.333,8.333,0,1,1,0-16.666c20.047,0,38.182-9.31,48.521-24.9,9.381-14.157,16.681-40-.837-82.862L160.122,81.8A8.333,8.333,0,0,1,145.507,73.8l17.948-32.742a8.088,8.088,0,0,1,.706-.834,5.92,5.92,0,0,1,2.506-2.243,7.833,7.833,0,0,1,1-.654c.158-.063.323-.035.483-.088s.284-.181.449-.225a8.011,8.011,0,0,1,4.3.143,8.1,8.1,0,0,1,1.642.581c.172.087.371.091.538.191l35.151,21.256A8.338,8.338,0,0,1,213.046,70.627Z" transform="translate(-1 -1)"/>
</svg>
