<svg xmlns="http://www.w3.org/2000/svg" width="471.966" height="457.498" viewBox="0 0 471.966 457.498">
  <g id="Group_463" data-name="Group 463" transform="translate(-15.415 -22.057)">
    <g id="Background_Complete" data-name="Background Complete">
      <g id="Group_73" data-name="Group 73">
        <g id="Group_12" data-name="Group 12">
          <g id="Group_3" data-name="Group 3">
            <g id="Group_2" data-name="Group 2">
              <g id="Group_1" data-name="Group 1">
                <path id="Path_1" data-name="Path 1" d="M381.639,139.7a29.638,29.638,0,0,1,7.234-3.144l1.491-7.161,12.1-.213,1.741,7.1a29.668,29.668,0,0,1,7.341,2.888l6.115-4.008,8.7,8.4-3.79,6.251a29.635,29.635,0,0,1,3.144,7.237l7.161,1.49.212,12.1-7.1,1.741a29.668,29.668,0,0,1-2.888,7.341l4.007,6.115-8.4,8.706-6.252-3.791a29.6,29.6,0,0,1-7.236,3.144l-1.49,7.161-12.1.213-1.741-7.1a29.668,29.668,0,0,1-7.341-2.888L376.43,195.3l-8.7-8.4,3.79-6.251a29.638,29.638,0,0,1-3.145-7.236l-7.16-1.49-.213-12.1,7.1-1.742a29.7,29.7,0,0,1,2.888-7.34l-4.007-6.115,8.4-8.706,6.253,3.791Zm6.449,16.118a12.981,12.981,0,1,0,18.355-.323A12.98,12.98,0,0,0,388.088,155.822Z" fill="#e0e0e0"/>
              </g>
            </g>
          </g>
          <g id="Group_7" data-name="Group 7">
            <g id="Group_6" data-name="Group 6">
              <g id="Group_5" data-name="Group 5">
                <g id="Group_4" data-name="Group 4">
                  <path id="Path_2" data-name="Path 2" d="M388.088,155.822a9.821,9.821,0,0,1,2.417-2.122,12.927,12.927,0,0,1,8.469-2,13.09,13.09,0,0,1,5.756,2.045,13.3,13.3,0,0,1,4.655,5.245,13.292,13.292,0,0,1,1.253,7.639,13.244,13.244,0,0,1-10.957,11.351,13.31,13.31,0,0,1-7.681-.984,13.3,13.3,0,0,1-5.4-4.468,13.083,13.083,0,0,1-2.245-5.681,12.926,12.926,0,0,1,1.7-8.534,9.824,9.824,0,0,1,2.035-2.489c.07.059-.783.852-1.783,2.634a12.934,12.934,0,0,0-1.435,8.31,12.68,12.68,0,0,0,7.41,9.6,12.666,12.666,0,0,0,7.278.893,12.577,12.577,0,0,0,10.358-10.73,12.7,12.7,0,0,0-1.147-7.241,12.683,12.683,0,0,0-9.856-7.068,12.93,12.93,0,0,0-8.255,1.726C388.912,155.009,388.15,155.89,388.088,155.822Z" fill="#e0e0e0"/>
                </g>
              </g>
            </g>
          </g>
          <g id="Group_11" data-name="Group 11">
            <g id="Group_10" data-name="Group 10">
              <g id="Group_9" data-name="Group 9">
                <g id="Group_8" data-name="Group 8">
                  <path id="Path_3" data-name="Path 3" d="M381.638,139.7a2.9,2.9,0,0,1-.4-.213l-1.2-.693-4.712-2.783.147-.019-8.354,8.754.023-.234c1.221,1.848,2.579,3.9,4.032,6.1l.072.11-.064.117a29.608,29.608,0,0,0-2.841,7.292l-.035.143-.144.036-7.1,1.762.2-.262c.076,3.809.157,7.852.241,12.1l-.233-.281,7.163,1.476.182.038.051.179a29.464,29.464,0,0,0,3.123,7.154l.1.166-.1.167c-1.172,1.939-2.464,4.078-3.781,6.256l-.053-.41,8.716,8.394-.431-.04c1.9-1.251,3.994-2.623,6.111-4.015l.179-.117.187.1a29.462,29.462,0,0,0,7.255,2.848l.211.051.052.212c.547,2.225,1.144,4.652,1.746,7.1l-.36-.278,12.1-.218-.356.295c.47-2.262.978-4.7,1.489-7.161l.046-.221.216-.061a29.362,29.362,0,0,0,7.138-3.1l.007,0,.195-.116.19.116,6.251,3.791-.459.059,8.406-8.7-.043.458-4-6.117-.121-.185.108-.193a29.318,29.318,0,0,0,2.857-7.249l.052-.212.212-.052,7.1-1.736-.27.351q-.1-6.2-.2-12.1l.272.329-7.158-1.5-.2-.042-.054-.194a29.407,29.407,0,0,0-3.1-7.16l-.1-.168.1-.166q1.955-3.211,3.8-6.244l.05.383-8.688-8.423.354.034-6.124,3.992-.136.089-.141-.079a29.542,29.542,0,0,0-7.269-2.884l-.145-.036-.034-.143c-.624-2.584-1.187-4.911-1.718-7.109l.218.167-12.1.159.16-.133c-.614,2.857-1.117,5.2-1.536,7.152l-.016.072-.069.019a30.664,30.664,0,0,0-5.532,2.128l-1.3.68a2.892,2.892,0,0,1-.434.221,3.669,3.669,0,0,1,.4-.275c.276-.17.7-.425,1.275-.735a28.631,28.631,0,0,1,5.524-2.249l-.085.09c.395-1.957.867-4.306,1.444-7.17l.026-.13.135,0,12.1-.265.175,0,.043.171c.545,2.195,1.123,4.518,1.765,7.1l-.179-.179a29.927,29.927,0,0,1,7.412,2.893l-.276.01,6.105-4.023.19-.125.164.159,8.722,8.387.178.171-.128.212-3.779,6.257v-.333a30,30,0,0,1,3.189,7.311l-.253-.235,7.163,1.481.268.056,0,.274q.11,5.9.225,12.1l.006.283-.276.068-7.1,1.747.263-.264a29.994,29.994,0,0,1-2.918,7.432l-.014-.377q1.986,3.025,4.01,6.113l.162.246-.205.212-8.4,8.708-.206.213-.254-.154-6.251-3.789h.385l-.007,0a30.021,30.021,0,0,1-7.32,3.179l.262-.281-1.492,7.16-.06.29-.3,0-12.1.207-.291.005-.069-.283c-.6-2.452-1.193-4.88-1.737-7.1l.264.264a30.113,30.113,0,0,1-7.427-2.929l.366-.013-6.119,4-.232.152-.2-.192-8.7-8.416-.191-.185.138-.226c1.323-2.174,2.622-4.309,3.8-6.245v.332a30.024,30.024,0,0,1-3.165-7.318l.233.217-7.158-1.5-.229-.049,0-.233c-.065-4.245-.127-8.289-.185-12.1l0-.212.2-.05,7.109-1.722-.178.179a29.856,29.856,0,0,1,2.934-7.388l.008.226c-1.435-2.209-2.776-4.274-3.984-6.131l-.082-.128.105-.107,8.455-8.657.067-.069.08.05,4.605,2.865,1.184.752A3.61,3.61,0,0,1,381.638,139.7Z" fill="#e0e0e0"/>
                </g>
              </g>
            </g>
          </g>
        </g>
        <g id="Group_24" data-name="Group 24">
          <g id="Group_15" data-name="Group 15">
            <g id="Group_14" data-name="Group 14">
              <g id="Group_13" data-name="Group 13">
                <path id="Path_4" data-name="Path 4" d="M70.518,211.642a29.683,29.683,0,0,1,7.235-3.144l1.49-7.161,12.1-.212,1.741,7.1a29.581,29.581,0,0,1,7.342,2.888l6.115-4.009,8.705,8.406-3.79,6.251A29.612,29.612,0,0,1,114.6,229l7.16,1.49.213,12.1-7.1,1.742a29.661,29.661,0,0,1-2.888,7.34l4.008,6.116-8.4,8.705-6.251-3.79a29.689,29.689,0,0,1-7.236,3.144l-1.491,7.161-12.1.212-1.742-7.1a29.661,29.661,0,0,1-7.34-2.888l-6.115,4.008-8.706-8.4,3.79-6.251a29.651,29.651,0,0,1-3.144-7.236l-7.161-1.49-.212-12.1,7.1-1.742a29.646,29.646,0,0,1,2.888-7.34l-4.008-6.116,8.4-8.705,6.252,3.79Zm6.45,16.118a12.981,12.981,0,1,0,18.355-.322A12.981,12.981,0,0,0,76.968,227.76Z" fill="#f5f5f5"/>
              </g>
            </g>
          </g>
          <g id="Group_19" data-name="Group 19">
            <g id="Group_18" data-name="Group 18">
              <g id="Group_17" data-name="Group 17">
                <g id="Group_16" data-name="Group 16">
                  <path id="Path_5" data-name="Path 5" d="M76.968,227.76a9.808,9.808,0,0,1,2.417-2.121,12.927,12.927,0,0,1,8.469-2,13.086,13.086,0,0,1,5.756,2.045,13.282,13.282,0,0,1,4.654,5.244,13.308,13.308,0,0,1,1.254,7.64A13.247,13.247,0,0,1,88.56,249.917a13.295,13.295,0,0,1-7.68-.985,13.289,13.289,0,0,1-5.406-4.468,13.087,13.087,0,0,1-2.245-5.68,12.926,12.926,0,0,1,1.7-8.534,9.8,9.8,0,0,1,2.035-2.49c.07.06-.784.852-1.784,2.634a12.947,12.947,0,0,0-1.435,8.31,12.686,12.686,0,0,0,7.41,9.6,12.682,12.682,0,0,0,7.279.892A12.58,12.58,0,0,0,98.8,238.468a12.691,12.691,0,0,0-1.148-7.241,12.686,12.686,0,0,0-9.855-7.068,12.943,12.943,0,0,0-8.255,1.726C77.791,226.947,77.03,227.829,76.968,227.76Z" fill="#f5f5f5"/>
                </g>
              </g>
            </g>
          </g>
          <g id="Group_23" data-name="Group 23">
            <g id="Group_22" data-name="Group 22">
              <g id="Group_21" data-name="Group 21">
                <g id="Group_20" data-name="Group 20">
                  <path id="Path_6" data-name="Path 6" d="M70.518,211.642a2.768,2.768,0,0,1-.4-.212l-1.2-.694L64.2,207.954l.147-.02L56,216.688l.022-.234c1.222,1.848,2.58,3.9,4.032,6.1l.073.109-.064.117a29.585,29.585,0,0,0-2.842,7.292l-.034.143-.145.036-7.1,1.762.2-.261c.076,3.809.156,7.852.24,12.1l-.233-.281,7.163,1.476.183.038.051.179a29.5,29.5,0,0,0,3.123,7.154l.1.165-.1.167C59.5,254.685,58.2,256.824,56.888,259l-.053-.411c2.737,2.637,5.69,5.48,8.715,8.395l-.43-.041,6.111-4.014.179-.117.187.1a29.477,29.477,0,0,0,7.254,2.847l.212.052.052.212c.546,2.225,1.143,4.652,1.746,7.1l-.361-.278,12.1-.217-.355.294,1.488-7.161.046-.22.217-.062a29.359,29.359,0,0,0,7.138-3.1l.006,0,.195-.116.191.116,6.251,3.79-.46.06,8.407-8.7-.043.458-4-6.116-.122-.186.108-.192a29.316,29.316,0,0,0,2.857-7.249l.053-.213.212-.051,7.1-1.736-.269.35q-.1-6.195-.2-12.1l.272.329-7.158-1.5-.2-.042-.055-.194a29.427,29.427,0,0,0-3.1-7.16l-.1-.168.1-.166,3.8-6.244.05.382-8.688-8.422.354.033-6.125,3.993-.136.088-.14-.078a29.492,29.492,0,0,0-7.27-2.884l-.144-.036-.035-.143c-.624-2.584-1.186-4.911-1.718-7.109l.218.167-12.1.159.16-.133c-.613,2.856-1.116,5.2-1.536,7.152l-.015.071-.069.019a30.71,30.71,0,0,0-5.533,2.129l-1.3.68a2.859,2.859,0,0,1-.434.22,3.862,3.862,0,0,1,.4-.274c.277-.17.7-.426,1.275-.735a28.685,28.685,0,0,1,5.524-2.25l-.084.091c.394-1.957.867-4.307,1.444-7.171l.026-.13.134,0,12.1-.265.175,0,.043.172c.546,2.194,1.123,4.518,1.765,7.1l-.179-.179a29.93,29.93,0,0,1,7.413,2.892l-.276.01,6.1-4.023.19-.125.165.159,8.722,8.387.178.171-.129.213-3.779,6.257V221.6a29.981,29.981,0,0,1,3.188,7.311l-.252-.235,7.162,1.481.268.055,0,.275q.11,5.9.225,12.1l0,.283-.275.067-7.1,1.747.264-.263a30,30,0,0,1-2.919,7.432l-.014-.378,4.011,6.113.161.246-.2.212-8.4,8.708-.206.214-.254-.155-6.252-3.789h.385l-.007,0A30.059,30.059,0,0,1,94.2,266.2l.262-.281-1.491,7.16-.06.289-.3.005-12.1.207-.291.006-.069-.284c-.6-2.451-1.193-4.879-1.737-7.1l.263.263a30.119,30.119,0,0,1-7.426-2.928l.366-.014-6.12,4-.231.151-.2-.192c-3.019-2.921-5.964-5.772-8.695-8.416l-.191-.184.138-.226c1.322-2.175,2.621-4.31,3.8-6.245v.332a30.029,30.029,0,0,1-3.166-7.318l.234.216-7.158-1.5-.23-.048,0-.234c-.065-4.245-.126-8.288-.184-12.1l0-.213.206-.05,7.109-1.721-.179.178a29.966,29.966,0,0,1,2.934-7.388l.008.226L55.7,216.661l-.083-.127.1-.108,8.455-8.657.067-.069.08.05,4.6,2.866,1.185.752A3.713,3.713,0,0,1,70.518,211.642Z" fill="#f5f5f5"/>
                </g>
              </g>
            </g>
          </g>
        </g>
        <g id="Group_36" data-name="Group 36">
          <g id="Group_27" data-name="Group 27">
            <g id="Group_26" data-name="Group 26">
              <g id="Group_25" data-name="Group 25">
                <path id="Path_7" data-name="Path 7" d="M404.15,73.59a21.521,21.521,0,0,1,5.243-2.279l1.08-5.189,8.767-.154,1.262,5.148a21.48,21.48,0,0,1,5.32,2.093l4.431-2.9,6.309,6.091-2.747,4.53a21.473,21.473,0,0,1,2.279,5.244l5.188,1.08.154,8.767-5.147,1.262A21.489,21.489,0,0,1,434.2,102.6l2.9,4.432-6.09,6.308-4.53-2.747a21.473,21.473,0,0,1-5.244,2.279l-1.08,5.189-8.767.154-1.262-5.148a21.5,21.5,0,0,1-5.32-2.093l-4.431,2.9-6.308-6.09,2.746-4.53a21.47,21.47,0,0,1-2.278-5.244l-5.189-1.08-.154-8.767,5.148-1.262a21.489,21.489,0,0,1,2.093-5.319l-2.9-4.432,6.091-6.308,4.53,2.747Zm4.674,11.679a9.407,9.407,0,1,0,13.3-.233A9.408,9.408,0,0,0,408.824,85.269Z" fill="#f5f5f5"/>
              </g>
            </g>
          </g>
          <g id="Group_31" data-name="Group 31">
            <g id="Group_30" data-name="Group 30">
              <g id="Group_29" data-name="Group 29">
                <g id="Group_28" data-name="Group 28">
                  <path id="Path_8" data-name="Path 8" d="M408.824,85.269a7.117,7.117,0,0,1,1.752-1.537,9.369,9.369,0,0,1,6.137-1.451,9.493,9.493,0,0,1,4.171,1.482,9.627,9.627,0,0,1,3.373,3.8,9.651,9.651,0,0,1,.908,5.536,9.6,9.6,0,0,1-7.94,8.225,9.65,9.65,0,0,1-5.566-.713,9.632,9.632,0,0,1-3.917-3.238,9.488,9.488,0,0,1-1.627-4.116,9.361,9.361,0,0,1,1.235-6.184,7.09,7.09,0,0,1,1.474-1.805c.051.044-.568.618-1.292,1.909a9.377,9.377,0,0,0-1.04,6.022,9.192,9.192,0,0,0,5.37,6.958,9.177,9.177,0,0,0,5.274.646,9.113,9.113,0,0,0,7.506-7.775,9.2,9.2,0,0,0-.832-5.247,9.189,9.189,0,0,0-7.142-5.122,9.375,9.375,0,0,0-5.981,1.251C409.421,84.68,408.869,85.319,408.824,85.269Z" fill="#f5f5f5"/>
                </g>
              </g>
            </g>
          </g>
          <g id="Group_35" data-name="Group 35">
            <g id="Group_34" data-name="Group 34">
              <g id="Group_33" data-name="Group 33">
                <g id="Group_32" data-name="Group 32">
                  <path id="Path_9" data-name="Path 9" d="M404.15,73.59a2.024,2.024,0,0,1-.292-.155l-.869-.5-3.414-2.016.106-.014-6.053,6.343.016-.17c.885,1.34,1.869,2.828,2.922,4.42l.052.079-.046.085a21.423,21.423,0,0,0-2.059,5.284l-.025.1-.105.026-5.144,1.277.146-.19c.055,2.76.113,5.69.174,8.766l-.169-.2,5.191,1.069.132.028.037.13a21.365,21.365,0,0,0,2.263,5.183l.073.121-.073.121-2.74,4.533-.038-.3c1.983,1.911,4.123,3.971,6.316,6.083l-.312-.03,4.428-2.908.13-.085.135.075a21.4,21.4,0,0,0,5.257,2.064l.153.037.038.154c.4,1.612.829,3.37,1.265,5.147l-.261-.2,8.767-.158-.257.213c.341-1.639.708-3.408,1.079-5.189l.033-.16.157-.044a21.291,21.291,0,0,0,5.172-2.247l.005,0,.141-.084.138.084,4.53,2.747-.333.043,6.092-6.307-.032.332q-1.464-2.238-2.9-4.433l-.087-.134.078-.14a21.231,21.231,0,0,0,2.07-5.253l.038-.153.154-.038,5.148-1.258-.2.254q-.073-4.489-.145-8.767l.2.238L436.044,86.4l-.143-.03-.04-.141a21.326,21.326,0,0,0-2.245-5.188l-.073-.122.073-.12,2.754-4.525.036.277-6.3-6.1.257.024-4.439,2.893-.1.065-.1-.057a21.384,21.384,0,0,0-5.268-2.09l-.1-.026-.024-.1c-.453-1.872-.86-3.559-1.245-5.152l.157.122-8.768.115.116-.1c-.444,2.07-.809,3.767-1.113,5.182l-.011.052-.05.014a22.215,22.215,0,0,0-4.009,1.542l-.943.493a2.215,2.215,0,0,1-.315.16,2.727,2.727,0,0,1,.293-.2c.2-.124.5-.309.924-.533a20.791,20.791,0,0,1,4-1.63l-.06.066c.285-1.418.628-3.121,1.046-5.2l.019-.094.1,0,8.767-.192.126,0,.032.124c.395,1.591.814,3.275,1.278,5.143l-.129-.129a21.645,21.645,0,0,1,5.371,2.1l-.2.007,4.424-2.915.137-.091.12.115,6.32,6.078.129.124-.093.154-2.738,4.534V80.8a21.773,21.773,0,0,1,2.311,5.3l-.183-.17,5.19,1.074.194.04,0,.2q.078,4.276.162,8.767l0,.205-.2.049-5.147,1.266.191-.191a21.741,21.741,0,0,1-2.115,5.386l-.01-.274,2.906,4.43.117.178-.148.154-6.089,6.31-.149.155-.184-.112-4.53-2.746h.279l0,0a21.814,21.814,0,0,1-5.3,2.3l.189-.2c-.371,1.781-.739,3.55-1.08,5.188l-.044.21-.214,0-8.768.15-.211,0-.05-.206c-.434-1.776-.864-3.536-1.259-5.148l.191.191a21.812,21.812,0,0,1-5.381-2.122l.265-.01-4.434,2.9-.168.11-.144-.139-6.3-6.1-.139-.134.1-.164,2.753-4.526v.241a21.759,21.759,0,0,1-2.293-5.3l.169.157-5.187-1.09-.167-.035,0-.169c-.047-3.076-.092-6.007-.134-8.767l0-.154.149-.037L394.3,86.73l-.13.13a21.676,21.676,0,0,1,2.126-5.354l.006.163-2.886-4.442-.06-.093.076-.078,6.127-6.273.049-.05.057.036L403,72.846l.859.545A2.454,2.454,0,0,1,404.15,73.59Z" fill="#f5f5f5"/>
                </g>
              </g>
            </g>
          </g>
        </g>
        <g id="Group_48" data-name="Group 48">
          <g id="Group_39" data-name="Group 39">
            <g id="Group_38" data-name="Group 38">
              <g id="Group_37" data-name="Group 37">
                <path id="Path_10" data-name="Path 10" d="M129.934,48.889a21.462,21.462,0,0,1,5.243-2.278l1.079-5.19,8.768-.153,1.262,5.147a21.5,21.5,0,0,1,5.32,2.093l4.431-2.9,6.308,6.092L159.6,56.224a21.486,21.486,0,0,1,2.278,5.244l5.189,1.08.154,8.767-5.148,1.262a21.489,21.489,0,0,1-2.093,5.319l2.9,4.432-6.09,6.309-4.53-2.747a21.479,21.479,0,0,1-5.243,2.278l-1.081,5.189-8.767.154-1.262-5.148a21.488,21.488,0,0,1-5.319-2.093l-4.431,2.905-6.309-6.091,2.747-4.53a21.482,21.482,0,0,1-2.279-5.243l-5.189-1.08-.154-8.768,5.148-1.262a21.528,21.528,0,0,1,2.093-5.319l-2.9-4.431,6.09-6.309,4.531,2.747Zm4.674,11.68a9.407,9.407,0,1,0,13.3-.234A9.406,9.406,0,0,0,134.608,60.569Z" fill="#e0e0e0"/>
              </g>
            </g>
          </g>
          <g id="Group_43" data-name="Group 43">
            <g id="Group_42" data-name="Group 42">
              <g id="Group_41" data-name="Group 41">
                <g id="Group_40" data-name="Group 40">
                  <path id="Path_11" data-name="Path 11" d="M134.608,60.569a7.1,7.1,0,0,1,1.751-1.537,9.363,9.363,0,0,1,6.137-1.451,9.479,9.479,0,0,1,4.171,1.481,9.634,9.634,0,0,1,3.373,3.8,9.64,9.64,0,0,1,.909,5.536,9.6,9.6,0,0,1-7.941,8.225,9.631,9.631,0,0,1-5.566-.713,9.635,9.635,0,0,1-3.916-3.238,9.481,9.481,0,0,1-1.628-4.116,9.369,9.369,0,0,1,1.235-6.184,7.108,7.108,0,0,1,1.475-1.8c.051.043-.568.617-1.293,1.908a9.384,9.384,0,0,0-1.04,6.022,9.192,9.192,0,0,0,5.37,6.958,9.191,9.191,0,0,0,5.274.647,9.116,9.116,0,0,0,7.506-7.776,9.19,9.19,0,0,0-.831-5.247,9.2,9.2,0,0,0-7.142-5.122,9.379,9.379,0,0,0-5.982,1.251C135.2,59.98,134.652,60.618,134.608,60.569Z" fill="#e0e0e0"/>
                </g>
              </g>
            </g>
          </g>
          <g id="Group_47" data-name="Group 47">
            <g id="Group_46" data-name="Group 46">
              <g id="Group_45" data-name="Group 45">
                <g id="Group_44" data-name="Group 44">
                  <path id="Path_12" data-name="Path 12" d="M129.934,48.889a1.957,1.957,0,0,1-.293-.154l-.868-.5-3.415-2.017.107-.014-6.054,6.344.016-.17c.886,1.339,1.87,2.827,2.922,4.419l.053.079-.047.085a21.478,21.478,0,0,0-2.059,5.284l-.025.1-.1.026-5.145,1.277.146-.19c.055,2.761.113,5.691.175,8.767l-.169-.2c1.607.331,3.377.695,5.19,1.07l.133.027.037.13a21.35,21.35,0,0,0,2.263,5.184l.073.12-.073.121c-.85,1.4-1.786,2.955-2.74,4.534l-.039-.3,6.316,6.083-.312-.029,4.428-2.909.13-.085.136.075a21.376,21.376,0,0,0,5.256,2.064l.154.037.037.154c.4,1.612.829,3.371,1.266,5.147l-.262-.2,8.768-.158-.258.213c.341-1.639.709-3.407,1.079-5.189l.033-.16.157-.044a21.26,21.26,0,0,0,5.173-2.247l0,0,.142-.084.138.084,4.53,2.747-.334.043,6.092-6.307-.031.332q-1.466-2.238-2.9-4.432l-.088-.135.078-.139a21.246,21.246,0,0,0,2.07-5.253l.039-.154.153-.037,5.149-1.258-.2.253q-.075-4.488-.145-8.767l.2.239L161.828,61.7l-.144-.03-.039-.14a21.319,21.319,0,0,0-2.246-5.189l-.073-.121.073-.121,2.754-4.525.036.278-6.3-6.1.257.024-4.438,2.894-.1.064-.1-.057a21.4,21.4,0,0,0-5.268-2.09l-.1-.026-.025-.1c-.452-1.872-.86-3.558-1.245-5.151l.158.121-8.768.115.116-.1c-.445,2.07-.809,3.768-1.113,5.182l-.011.052-.051.014a22.352,22.352,0,0,0-4.009,1.542l-.943.493a2.185,2.185,0,0,1-.314.16,2.628,2.628,0,0,1,.292-.2c.2-.123.5-.308.924-.533a20.844,20.844,0,0,1,4-1.63l-.061.066c.285-1.418.628-3.121,1.046-5.2l.019-.094.1,0,8.766-.192.127,0,.031.125c.4,1.59.814,3.274,1.279,5.143l-.13-.13a21.652,21.652,0,0,1,5.372,2.1l-.2.007,4.424-2.915.137-.09.119.114,6.321,6.078.129.124-.093.154L159.8,56.345V56.1a21.7,21.7,0,0,1,2.311,5.3l-.183-.171,5.19,1.074.194.04,0,.2q.08,4.275.163,8.766l0,.206-.2.049-5.147,1.265.191-.19a21.712,21.712,0,0,1-2.115,5.385l-.01-.274,2.907,4.43.117.178-.148.154-6.089,6.31-.15.155-.183-.112-4.531-2.745h.279l0,0a21.775,21.775,0,0,1-5.3,2.3l.19-.2c-.371,1.781-.74,3.55-1.081,5.189l-.044.209-.214,0-8.767.15-.211,0-.05-.205c-.435-1.777-.865-3.536-1.259-5.149l.191.191a21.8,21.8,0,0,1-5.382-2.122l.265-.01-4.434,2.9-.168.11-.144-.14-6.3-6.1-.138-.134.1-.164c.958-1.576,1.9-3.123,2.753-4.525v.24a21.734,21.734,0,0,1-2.294-5.3l.169.157-5.187-1.091-.166-.035,0-.169c-.047-3.076-.092-6.006-.134-8.767l0-.154.149-.036,5.151-1.248-.129.13a21.676,21.676,0,0,1,2.126-5.354l.006.164L119.2,52.526l-.06-.092.077-.078,6.126-6.274.049-.049.058.036,3.337,2.076.858.545A2.764,2.764,0,0,1,129.934,48.889Z" fill="#e0e0e0"/>
                </g>
              </g>
            </g>
          </g>
        </g>
        <g id="Group_60" data-name="Group 60">
          <g id="Group_51" data-name="Group 51">
            <g id="Group_50" data-name="Group 50">
              <g id="Group_49" data-name="Group 49">
                <path id="Path_13" data-name="Path 13" d="M361.883,76.2l0-.02-.95-3.875a16.264,16.264,0,0,1-4-1.572l-3.351,2.2-.015-.014-4.78-4.616.01-.017,2.067-3.409a16.283,16.283,0,0,1-1.712-3.941l-3.925-.817V60.1l-.117-6.644.02,0L349,52.5a16.31,16.31,0,0,1,1.572-4l-2.2-3.352.014-.014,4.615-4.781.017.01,3.41,2.068a16.3,16.3,0,0,1,3.94-1.713l.817-3.925h.021l6.643-.116,0,.019.949,3.875a16.24,16.24,0,0,1,4,1.572l3.352-2.2.014.014,4.781,4.616-.01.017-2.067,3.409a16.179,16.179,0,0,1,1.711,3.941l3.925.817v.02l.117,6.644-.019,0-3.875.949a16.286,16.286,0,0,1-1.572,4l2.2,3.352-.015.014-4.615,4.781-.017-.01L373.3,70.45a16.3,16.3,0,0,1-3.94,1.711l-.818,3.926h-.02Zm-4.954-5.526.013.007a16.186,16.186,0,0,0,4.014,1.58l.014,0,0,.015.948,3.87,6.584-.115.816-3.917.015,0a16.279,16.279,0,0,0,3.956-1.719l.012-.008.013.008,3.406,2.065,4.573-4.738-2.191-3.344.008-.013a16.251,16.251,0,0,0,1.578-4.013l0-.015.015,0,3.87-.948-.117-6.584-3.915-.815,0-.015a16.212,16.212,0,0,0-1.719-3.956l-.008-.013.008-.013,2.065-3.4-4.738-4.574-3.344,2.191L372.8,42.2a16.189,16.189,0,0,0-4.013-1.578l-.015,0,0-.014-.948-3.87-6.584.115-.815,3.917-.015,0a16.231,16.231,0,0,0-3.955,1.72l-.013.008-.013-.008-3.406-2.066-4.573,4.738,2.19,3.344-.007.013a16.279,16.279,0,0,0-1.579,4.013l0,.015-.015,0-3.87.948.116,6.584,3.915.815.005.015a16.2,16.2,0,0,0,1.719,3.956l.007.013-.007.013-2.066,3.4,4.739,4.574Zm8.149-7.324a7.129,7.129,0,0,1-5.13-12.083h0a7.133,7.133,0,1,1,5.13,12.083Zm0-14.208a7.062,7.062,0,0,0-5.1,2.161h0a7.089,7.089,0,1,0,5.1-2.161Z" fill="#e0e0e0"/>
              </g>
            </g>
          </g>
          <g id="Group_55" data-name="Group 55">
            <g id="Group_54" data-name="Group 54">
              <g id="Group_53" data-name="Group 53">
                <g id="Group_52" data-name="Group 52">
                  <path id="Path_14" data-name="Path 14" d="M359.965,51.289a5.382,5.382,0,0,1,1.324-1.162,7.079,7.079,0,0,1,4.637-1.1,7.168,7.168,0,0,1,3.151,1.12,7.269,7.269,0,0,1,2.548,2.871,7.282,7.282,0,0,1,.687,4.183,7.251,7.251,0,0,1-6,6.215,7.289,7.289,0,0,1-4.205-.539,7.28,7.28,0,0,1-2.959-2.447,7.169,7.169,0,0,1-1.23-3.11,7.075,7.075,0,0,1,.933-4.672,5.387,5.387,0,0,1,1.114-1.363c.039.032-.429.466-.976,1.442a7.088,7.088,0,0,0-.786,4.55,6.943,6.943,0,0,0,4.057,5.257,6.946,6.946,0,0,0,3.985.488,6.883,6.883,0,0,0,5.671-5.874,6.943,6.943,0,0,0-.628-3.965,6.946,6.946,0,0,0-5.4-3.87,7.091,7.091,0,0,0-4.52.945C360.416,50.844,360,51.326,359.965,51.289Z" fill="#ebebeb"/>
                </g>
              </g>
            </g>
          </g>
          <g id="Group_59" data-name="Group 59">
            <g id="Group_58" data-name="Group 58">
              <g id="Group_57" data-name="Group 57">
                <g id="Group_56" data-name="Group 56">
                  <path id="Path_15" data-name="Path 15" d="M356.434,42.464a1.424,1.424,0,0,1-.221-.117l-.656-.379-2.58-1.524.08-.01-4.574,4.793.013-.128c.669,1.011,1.412,2.136,2.207,3.339l.04.06-.035.064a16.249,16.249,0,0,0-1.556,3.992l-.019.078-.079.02-3.886.965.11-.144c.042,2.086.085,4.3.132,6.624l-.128-.154,3.922.808.1.021.028.1a16.146,16.146,0,0,0,1.71,3.917l.055.09-.055.092-2.071,3.425-.029-.225,4.772,4.6-.236-.022,3.346-2.2.1-.065.1.057A16.066,16.066,0,0,0,361,72.1l.115.029.029.116c.3,1.218.626,2.547.956,3.889l-.2-.152,6.625-.119-.195.161c.258-1.239.535-2.575.815-3.921l.025-.121.119-.033a16.058,16.058,0,0,0,3.908-1.7l0,0,.107-.063.105.063,3.422,2.075-.252.033,4.6-4.765-.023.25q-1.109-1.69-2.193-3.349l-.067-.1.059-.105a16.063,16.063,0,0,0,1.565-3.969l.029-.117.115-.028,3.89-.95-.147.192q-.057-3.393-.11-6.625l.149.181-3.919-.821-.109-.023-.03-.106a16.119,16.119,0,0,0-1.7-3.921l-.056-.091.056-.091c.713-1.173,1.4-2.309,2.081-3.419l.027.21-4.757-4.612.194.018L372.889,42.3l-.075.049-.077-.043a16.142,16.142,0,0,0-3.98-1.579l-.079-.02-.019-.078c-.342-1.415-.65-2.689-.94-3.893l.119.092-6.625.087.088-.073c-.336,1.564-.612,2.847-.841,3.916l-.009.039-.038.011a16.816,16.816,0,0,0-3.029,1.165l-.712.372a1.527,1.527,0,0,1-.238.121,2.14,2.14,0,0,1,.221-.15c.151-.093.381-.233.7-.4a15.713,15.713,0,0,1,3.024-1.231l-.046.049c.216-1.071.475-2.358.791-3.926l.014-.071.074,0,6.623-.145.1,0,.024.094c.3,1.2.615,2.474.966,3.886l-.1-.1a16.4,16.4,0,0,1,4.058,1.583l-.151.006,3.343-2.2.1-.068.09.087,4.775,4.592.1.094-.071.116Q380.061,46.34,379,48.1v-.182a16.377,16.377,0,0,1,1.746,4l-.138-.129,3.922.811.146.031,0,.15L384.8,59.4l0,.155-.151.037-3.889.956.145-.144a16.452,16.452,0,0,1-1.6,4.069l-.008-.207,2.2,3.347.088.135-.111.116-4.6,4.768-.113.117-.139-.085L373.2,70.6h.211l0,0a16.485,16.485,0,0,1-4.008,1.74l.143-.154c-.28,1.346-.558,2.682-.816,3.92l-.033.159-.162,0-6.625.113-.159,0-.038-.155c-.328-1.343-.653-2.672-.951-3.89l.144.144a16.507,16.507,0,0,1-4.066-1.6l.2-.008-3.351,2.192-.127.083-.108-.1-4.761-4.608-.105-.1.076-.124,2.08-3.419v.181a16.433,16.433,0,0,1-1.733-4.006l.127.119-3.919-.824-.125-.027,0-.127c-.036-2.325-.069-4.539-.1-6.625l0-.116.112-.027,3.893-.943-.1.1a16.36,16.36,0,0,1,1.606-4.045l.005.124-2.181-3.357-.045-.07.057-.059,4.629-4.739.037-.038.044.027,2.521,1.569.648.412A1.912,1.912,0,0,1,356.434,42.464Z" fill="#ebebeb"/>
                </g>
              </g>
            </g>
          </g>
        </g>
        <g id="Group_72" data-name="Group 72">
          <g id="Group_63" data-name="Group 63">
            <g id="Group_62" data-name="Group 62">
              <g id="Group_61" data-name="Group 61">
                <path id="Path_16" data-name="Path 16" d="M53.423,195.721l0-.019-.95-3.875a16.266,16.266,0,0,1-4-1.573l-3.352,2.2-.014-.014-4.781-4.616.011-.017L42.4,184.4a16.27,16.27,0,0,1-1.712-3.941l-3.926-.816v-.02l-.117-6.644.02-.005,3.875-.95a16.24,16.24,0,0,1,1.572-4l-2.2-3.352.013-.014,4.615-4.781.018.01,3.41,2.068a16.246,16.246,0,0,1,3.94-1.712l.817-3.926h.02L59.4,156.2l.005.019.949,3.875a16.224,16.224,0,0,1,4,1.572l3.352-2.2.014.014,4.781,4.616-.01.017-2.067,3.409a16.288,16.288,0,0,1,1.712,3.941l3.924.817v.02l.117,6.644-.02,0-3.875.949a16.24,16.24,0,0,1-1.572,4l2.2,3.352-.014.015-4.615,4.78-.018-.01-3.409-2.067a16.288,16.288,0,0,1-3.941,1.712l-.817,3.925h-.02ZM48.469,190.2l.014.008a16.247,16.247,0,0,0,4.012,1.579l.015,0,0,.015.948,3.87,6.584-.115.815-3.916.015,0a16.24,16.24,0,0,0,3.956-1.719l.013-.008.013.008,3.406,2.065,4.573-4.738L70.646,183.9l.007-.013a16.231,16.231,0,0,0,1.579-4.013l0-.015.015,0,3.87-.948L76,172.322l-3.916-.815,0-.015a16.223,16.223,0,0,0-1.719-3.956l-.008-.013.008-.013,2.065-3.4-4.738-4.574-3.344,2.191-.013-.007a16.174,16.174,0,0,0-4.013-1.578l-.015,0,0-.015-.948-3.87-6.584.115-.815,3.917-.015,0A16.244,16.244,0,0,0,47.986,162l-.012.008L47.961,162l-3.407-2.066-4.573,4.738,2.191,3.344-.007.014a16.167,16.167,0,0,0-1.578,4.012l0,.015-.015,0-3.87.949.115,6.584,3.917.814,0,.015a16.21,16.21,0,0,0,1.72,3.956l.008.013-.008.013-2.065,3.4,4.737,4.575Zm8.148-7.324A7.125,7.125,0,1,1,61.75,180.7,7.11,7.11,0,0,1,56.617,182.871Zm.005-14.211h-.128a7.095,7.095,0,1,0,.128,0Z" fill="#e0e0e0"/>
              </g>
            </g>
          </g>
          <g id="Group_67" data-name="Group 67">
            <g id="Group_66" data-name="Group 66">
              <g id="Group_65" data-name="Group 65">
                <g id="Group_64" data-name="Group 64">
                  <path id="Path_17" data-name="Path 17" d="M51.505,170.806a5.373,5.373,0,0,1,1.323-1.161,7.076,7.076,0,0,1,4.637-1.1,7.167,7.167,0,0,1,3.152,1.12,7.277,7.277,0,0,1,2.548,2.871,7.282,7.282,0,0,1,.687,4.183,7.251,7.251,0,0,1-6,6.215,7.289,7.289,0,0,1-4.205-.539,7.272,7.272,0,0,1-2.959-2.447,7.157,7.157,0,0,1-1.23-3.11,7.075,7.075,0,0,1,.933-4.672,5.387,5.387,0,0,1,1.114-1.363c.039.032-.429.466-.976,1.442a7.082,7.082,0,0,0-.786,4.55,6.943,6.943,0,0,0,4.057,5.257,6.943,6.943,0,0,0,3.985.488,6.883,6.883,0,0,0,5.671-5.874,6.943,6.943,0,0,0-.628-3.965,6.946,6.946,0,0,0-5.4-3.87,7.089,7.089,0,0,0-4.52.945C51.956,170.361,51.539,170.843,51.505,170.806Z" fill="#ebebeb"/>
                </g>
              </g>
            </g>
          </g>
          <g id="Group_71" data-name="Group 71">
            <g id="Group_70" data-name="Group 70">
              <g id="Group_69" data-name="Group 69">
                <g id="Group_68" data-name="Group 68">
                  <path id="Path_18" data-name="Path 18" d="M47.974,161.981a1.459,1.459,0,0,1-.221-.116l-.656-.38-2.58-1.523.08-.011-4.574,4.793.013-.128,2.207,3.339.04.06-.035.064a16.21,16.21,0,0,0-1.556,3.992l-.019.079-.079.019-3.887.965.111-.144c.041,2.086.085,4.3.131,6.624l-.127-.154,3.922.808.1.021.028.1a16.167,16.167,0,0,0,1.71,3.917l.055.091-.055.091c-.641,1.062-1.349,2.233-2.07,3.426l-.029-.225,4.772,4.6-.236-.022,3.346-2.2.1-.064.1.057a16.153,16.153,0,0,0,3.971,1.559l.116.028.029.116c.3,1.218.626,2.547.956,3.889l-.2-.152,6.624-.119-.194.161c.257-1.238.535-2.575.815-3.921l.025-.121.119-.033a16.075,16.075,0,0,0,3.908-1.7l0,0,.107-.063.1.063,3.423,2.076-.252.032,4.6-4.765-.024.251-2.192-3.349-.067-.1.059-.105a16.007,16.007,0,0,0,1.564-3.969l.029-.116.116-.029,3.89-.95-.148.192q-.055-3.393-.109-6.624l.149.18-3.92-.821-.108-.023-.03-.106a16.112,16.112,0,0,0-1.7-3.92l-.056-.092.056-.091,2.08-3.419.028.21-4.757-4.612.194.019-3.354,2.185-.074.049-.077-.043a16.182,16.182,0,0,0-3.98-1.579l-.079-.02-.019-.078-.941-3.892.119.091-6.624.087.087-.072c-.336,1.564-.611,2.846-.841,3.915l-.008.039-.038.011a16.817,16.817,0,0,0-3.029,1.165l-.713.372a1.5,1.5,0,0,1-.237.121,2,2,0,0,1,.221-.15c.151-.093.381-.233.7-.4a15.713,15.713,0,0,1,3.024-1.231l-.046.049c.216-1.071.475-2.357.791-3.926l.014-.071h.073l6.624-.146.1,0,.023.094c.3,1.2.615,2.474.967,3.886l-.1-.1a16.369,16.369,0,0,1,4.058,1.584l-.151.005,3.343-2.2.1-.068.09.087,4.776,4.592.1.094-.07.116-2.069,3.426v-.183a16.416,16.416,0,0,1,1.746,4l-.138-.129,3.921.812.147.03,0,.15.123,6.624,0,.155-.151.037-3.889.956.145-.144a16.44,16.44,0,0,1-1.6,4.069l-.007-.207,2.2,3.347.088.135-.112.116-4.6,4.768-.113.117-.139-.085-3.423-2.074h.211l0,0a16.462,16.462,0,0,1-4.007,1.74l.143-.154c-.28,1.346-.559,2.682-.817,3.921l-.033.158-.161,0-6.625.113-.159,0-.038-.155-.951-3.89.144.144a16.491,16.491,0,0,1-4.066-1.6l.2-.007-3.351,2.191-.127.083-.109-.1-4.76-4.608-.1-.1.076-.124,2.08-3.419v.182a16.417,16.417,0,0,1-1.733-4.007l.127.119-3.919-.824-.125-.026,0-.128c-.035-2.325-.069-4.538-.1-6.624v-.117l.112-.027,3.892-.943-.1.1a16.4,16.4,0,0,1,1.607-4.045l0,.124c-.785-1.21-1.52-2.34-2.181-3.357l-.045-.07.058-.059c1.885-1.93,3.443-3.526,4.629-4.739l.037-.038.043.027,2.522,1.569.648.412A2.087,2.087,0,0,1,47.974,161.981Z" fill="#ebebeb"/>
                </g>
              </g>
            </g>
          </g>
        </g>
      </g>
    </g>
    <g id="Iteration">
      <g id="Group_219" data-name="Group 219">
        <g id="Group_218" data-name="Group 218">
          <g id="Group_217" data-name="Group 217">
            <g id="Group_216" data-name="Group 216">
              <g id="Group_209" data-name="Group 209">
                <path id="Path_77" data-name="Path 77" d="M192.949,142.329a72.828,72.828,0,0,1,15.939-11.04l.168-17.979,29.069-6.3,7.6,16.293a72.849,72.849,0,0,1,19.081,3.452l12.826-12.588,25.009,16.1-6.149,16.883A72.8,72.8,0,0,1,307.528,163.1l17.977.168,6.3,29.069-16.294,7.6a72.892,72.892,0,0,1-3.452,19.079l12.586,12.827-16.1,25.009L291.66,250.7a72.812,72.812,0,0,1-15.942,11.04l-.168,17.979-29.068,6.3-7.6-16.3a72.932,72.932,0,0,1-19.079-3.453L206.98,278.855l-25.009-16.1,6.149-16.883a72.844,72.844,0,0,1-11.042-15.942L159.1,229.76l-6.3-29.069,16.294-7.6a72.981,72.981,0,0,1,3.452-19.079l-12.587-12.826,16.1-25.009,16.887,6.149Zm16.236,32.862a39.388,39.388,0,1,0,54.44-11.8A39.388,39.388,0,0,0,209.185,175.191Z" fill="#e0e0e0"/>
              </g>
              <g id="Group_215" data-name="Group 215">
                <g id="Group_210" data-name="Group 210">
                  <path id="Path_78" data-name="Path 78" d="M192.949,142.329a72.828,72.828,0,0,1,15.939-11.04l.168-17.979,29.069-6.3,7.6,16.293a72.849,72.849,0,0,1,19.081,3.452l12.826-12.588,25.009,16.1-6.149,16.883A72.8,72.8,0,0,1,307.528,163.1l17.977.168,6.3,29.069-16.294,7.6a72.892,72.892,0,0,1-3.452,19.079l12.586,12.827-16.1,25.009L291.66,250.7a72.812,72.812,0,0,1-15.942,11.04l-.168,17.979-29.068,6.3-7.6-16.3a72.932,72.932,0,0,1-19.079-3.453L206.98,278.855l-25.009-16.1,6.149-16.883a72.844,72.844,0,0,1-11.042-15.942L159.1,229.76l-6.3-29.069,16.294-7.6a72.981,72.981,0,0,1,3.452-19.079l-12.587-12.826,16.1-25.009,16.887,6.149Zm16.236,32.862a39.388,39.388,0,1,0,54.44-11.8A39.388,39.388,0,0,0,209.185,175.191Z" fill="none"/>
                </g>
                <g id="Group_212" data-name="Group 212">
                  <g id="Group_211" data-name="Group 211">
                    <path id="Path_79" data-name="Path 79" d="M209.185,175.191s.111-.185.35-.534l1.073-1.539q.357-.508.8-1.132c.312-.4.693-.809,1.085-1.268l1.281-1.469a21.167,21.167,0,0,1,1.586-1.551,37.378,37.378,0,0,1,9.332-6.536A39.272,39.272,0,0,1,239.2,157.1l2.128-.154c.719-.009,1.447.027,2.182.04.735.037,1.483-.009,2.228.1l2.263.276,1.148.146,1.141.254,2.314.517c.773.2,1.527.487,2.3.73a20.164,20.164,0,0,1,2.312.835,36.815,36.815,0,0,1,4.53,2.212c.735.435,1.505.83,2.228,1.309l2.134,1.527c.354.263.729.5,1.068.787l1,.883c.664.6,1.363,1.17,2.01,1.8a41.785,41.785,0,0,1,3.612,4.157,41.251,41.251,0,0,1,3.123,4.7c.459.834.85,1.712,1.281,2.574.2.437.446.858.613,1.313l.51,1.366a36.208,36.208,0,0,1,2.5,11.61l.107,1.519-.033,1.529-.039,1.536a10.026,10.026,0,0,1-.11,1.537q-.189,1.533-.38,3.08l-.684,3.052a39.244,39.244,0,0,1-13.542,21.041l-2.5,1.886-2.647,1.622-.661.4-.693.338-1.382.671-1.378.664-1.427.532a36.3,36.3,0,0,1-11.608,2.529l-1.454.1c-.484.036-.968-.012-1.45-.014-.963-.036-1.924-.028-2.873-.1a41.06,41.06,0,0,1-5.575-.9,41.69,41.69,0,0,1-5.28-1.566c-.845-.328-1.655-.728-2.474-1.084l-1.22-.547c-.4-.191-.773-.434-1.158-.647L221.1,229.96c-.736-.46-1.414-1-2.114-1.486a36.747,36.747,0,0,1-3.889-3.209,20.178,20.178,0,0,1-1.717-1.758c-.542-.606-1.119-1.172-1.618-1.794l-1.428-1.893-.7-.933-.608-.985q-.6-.982-1.187-1.946c-.406-.634-.674-1.334-1.012-1.987-.316-.665-.65-1.312-.939-1.97l-.741-2a39.253,39.253,0,0,1-2.311-14.888,37.354,37.354,0,0,1,2.087-11.2,21.3,21.3,0,0,1,.755-2.086q.432-.948.807-1.774c.256-.547.469-1.063.705-1.513l.7-1.193.957-1.614c.218-.362.341-.54.341-.54s-.093.2-.3.568l-.911,1.637-.676,1.2c-.228.453-.433.971-.68,1.518s-.5,1.144-.781,1.777a20.937,20.937,0,0,0-.73,2.084,37.524,37.524,0,0,0-1.988,11.144,39.132,39.132,0,0,0,2.366,14.752q.366.978.742,1.979c.289.651.623,1.291.938,1.948.337.645.6,1.338,1.009,1.964l1.182,1.922.6.973.7.921,1.419,1.869c.495.613,1.069,1.172,1.606,1.769a20.031,20.031,0,0,0,1.7,1.734,36.388,36.388,0,0,0,3.855,3.163c.694.482,1.365,1.011,2.093,1.465l2.252,1.29c.382.21.75.45,1.146.637l1.207.538c.811.35,1.612.744,2.447,1.066a41.553,41.553,0,0,0,5.219,1.538,40.922,40.922,0,0,0,5.508.877c.938.07,1.887.06,2.838.1.476,0,.954.049,1.431.012l1.437-.1a35.856,35.856,0,0,0,11.458-2.51l1.408-.525,1.36-.657,1.364-.664.684-.333.651-.4,2.612-1.6,2.462-1.863a38.772,38.772,0,0,0,13.365-20.766q.34-1.511.677-3.011.189-1.525.376-3.04a9.638,9.638,0,0,0,.11-1.517l.04-1.515.034-1.51-.105-1.5a35.778,35.778,0,0,0-2.458-11.466l-.5-1.35c-.164-.45-.4-.865-.6-1.3-.425-.852-.809-1.72-1.261-2.544a42.9,42.9,0,0,0-6.638-8.765c-.638-.627-1.328-1.192-1.983-1.785l-.989-.876c-.334-.284-.7-.519-1.054-.78l-2.106-1.515c-.714-.476-1.474-.867-2.2-1.3a36.52,36.52,0,0,0-4.474-2.2,19.723,19.723,0,0,0-2.284-.832c-.766-.243-1.512-.533-2.275-.731l-2.289-.518-1.128-.256-1.136-.147-2.238-.281c-.738-.11-1.479-.066-2.206-.106-.728-.015-1.449-.054-2.161-.048l-2.109.144a39.132,39.132,0,0,0-14.409,3.952,37.531,37.531,0,0,0-9.323,6.423,21.226,21.226,0,0,0-1.6,1.526l-1.294,1.447c-.4.452-.783.853-1.1,1.248l-.815,1.113-1.113,1.507C209.326,175.025,209.185,175.191,209.185,175.191Z" fill="#263238"/>
                  </g>
                </g>
                <g id="Group_214" data-name="Group 214">
                  <g id="Group_213" data-name="Group 213">
                    <path id="Path_80" data-name="Path 80" d="M192.949,142.329s-.363-.119-1.083-.374l-3.22-1.151-12.613-4.545.1-.033c-4.09,6.375-9.5,14.814-16.059,25.035l-.017-.164,12.6,12.811.065.066-.028.089a73.071,73.071,0,0,0-3.427,19.039l0,.1-.094.044-16.289,7.611.1-.208,6.317,29.064-.2-.161,17.977.158h.13l.06.116a72.883,72.883,0,0,0,11.016,15.888l.091.1-.046.129c-1.9,5.233-4,11.006-6.142,16.886l-.092-.275c7.856,5.054,16.33,10.5,25.014,16.093l-.3.031,12.823-12.592.107-.105.142.046a73.033,73.033,0,0,0,19.015,3.436l.152.007.065.138,7.6,16.294-.285-.142,29.067-6.3-.2.25c.053-5.678.11-11.806.168-17.978v-.158l.14-.071a72.8,72.8,0,0,0,15.871-10.989l.014-.012.118-.106.146.053,16.885,6.149-.308.1,16.1-25.007.033.32-12.585-12.829-.108-.11.047-.148a72.623,72.623,0,0,0,3.444-19.011l.007-.153.138-.064,16.3-7.593-.138.277q-3.222-14.886-6.291-29.07l.232.189-17.976-.174-.141,0-.064-.126a72.788,72.788,0,0,0-11-15.9l-.092-.1.047-.128c2.111-5.789,4.158-11.4,6.156-16.88l.086.256-25-16.116.248-.026-12.835,12.58-.081.079-.107-.035a72.852,72.852,0,0,0-19.031-3.459l-.1,0-.044-.093-7.58-16.3.172.085-29.076,6.262.092-.113c-.081,7.2-.147,13.093-.2,17.977v.051l-.045.023a73.615,73.615,0,0,0-12.292,7.88c-1.266,1-2.172,1.787-2.781,2.305s-.9.781-.9.781,1.12-1.118,3.631-3.153a72.185,72.185,0,0,1,12.27-7.962l-.046.074c.037-4.885.081-10.779.135-17.979v-.093l.091-.02,29.061-6.334.12-.026.053.112,7.61,16.286-.147-.1a73.155,73.155,0,0,1,19.131,3.445l-.189.045,12.817-12.6.114-.112.134.086,25.018,16.088.146.094-.06.163-6.14,16.885-.045-.229a73.178,73.178,0,0,1,11.082,15.989l-.2-.127,17.976.161.191,0,.041.188q3.076,14.175,6.307,29.066l.042.194-.18.084-16.292,7.6.146-.217a73.144,73.144,0,0,1-3.461,19.145l-.061-.257,12.588,12.826.145.147-.112.173-16.1,25.009-.113.175-.2-.071-16.885-6.148.265-.052-.014.012a73.338,73.338,0,0,1-15.985,11.067l.141-.229c-.058,6.172-.116,12.3-.17,17.978v.207l-.2.044-29.068,6.294-.2.043-.086-.185c-2.621-5.624-5.216-11.192-7.594-16.3l.217.145A73.459,73.459,0,0,1,219.73,266.5l.249-.059L207.15,279.028l-.138.135-.163-.1-25-16.11-.156-.1.063-.174c2.143-5.878,4.248-11.649,6.156-16.881l.045.228a73.344,73.344,0,0,1-11.068-15.995l.19.117-17.977-.178-.164,0-.034-.16-6.28-29.072-.031-.145.134-.063,16.3-7.584-.1.147a73.338,73.338,0,0,1,3.478-19.118l.036.154-12.572-12.84-.074-.076.057-.089,16.141-24.981.036-.057.062.023,12.551,4.617,3.218,1.193C192.581,142.182,192.949,142.329,192.949,142.329Z" fill="#263238"/>
                  </g>
                </g>
              </g>
            </g>
          </g>
        </g>
      </g>
      <g id="Group_224" data-name="Group 224">
        <g id="Group_220" data-name="Group 220">
          <path id="Path_81" data-name="Path 81" d="M326.422,293.656l-57.9,37H458.335v-37Z" fill="#455a64"/>
        </g>
        <g id="Group_222" data-name="Group 222">
          <g id="Group_221" data-name="Group 221">
            <path id="Path_82" data-name="Path 82" d="M433.484,270.806v82.7l53.9-41.349Z" fill="#455a64"/>
          </g>
        </g>
        <g id="Group_223" data-name="Group 223">
          <path id="Path_83" data-name="Path 83" d="M363.01,310.5h1.561v5.477h3.387v1.273H363.01Z" fill="#fff"/>
          <path id="Path_84" data-name="Path 84" d="M373.337,315.807H370.2l-.6,1.446H368l3.009-6.75h1.543l3.018,6.75h-1.639Zm-.493-1.187-1.07-2.584-1.07,2.584Z" fill="#fff"/>
          <path id="Path_85" data-name="Path 85" d="M376.071,314.283V310.5h1.562v3.722c0,1.283.561,1.813,1.506,1.813s1.5-.53,1.5-1.813V310.5h1.543v3.78a3.058,3.058,0,1,1-6.115,0Z" fill="#fff"/>
          <path id="Path_86" data-name="Path 86" d="M389.917,310.5v6.75h-1.282l-3.365-4.1v4.1h-1.543V310.5h1.291l3.356,4.1v-4.1Z" fill="#fff"/>
          <path id="Path_87" data-name="Path 87" d="M391.09,313.878a3.719,3.719,0,0,1,6.444-2.295l-1,.926a2.17,2.17,0,0,0-1.7-.791,2.16,2.16,0,1,0,0,4.32,2.151,2.151,0,0,0,1.7-.8l1,.925a3.712,3.712,0,0,1-6.444-2.285Z" fill="#fff"/>
          <path id="Path_88" data-name="Path 88" d="M404.772,310.5v6.75h-1.56v-2.767h-3.069v2.767h-1.56V310.5h1.56v2.661h3.069V310.5Z" fill="#fff"/>
        </g>
      </g>
      <g id="Group_228" data-name="Group 228">
        <g id="Group_226" data-name="Group 226">
          <g id="Group_225" data-name="Group 225">
            <path id="Path_89" data-name="Path 89" d="M92.745,201.314c5.946,75.325,69.144,134.8,145.971,134.8v-37A109.552,109.552,0,0,1,129.288,189.686s1.649-19.093,2.8-24.845l-36.425-6.848h0C94.334,164.525,92.221,194.668,92.745,201.314Z" fill="#ff725e"/>
          </g>
        </g>
        <g id="Group_227" data-name="Group 227">
          <path id="Path_90" data-name="Path 90" d="M139.753,264.889l-.631,2.2.049.06.86,1.052,1.455-1.19.988,1.208-5.22,4.273-1.85-2.26c-1.14-1.4-1.131-2.86.04-3.819a2.2,2.2,0,0,1,2.527-.274l.719-2.544Zm-3.309,4.6.8.984,1.82-1.489-.8-.984c-.605-.738-1.252-.831-1.819-.367S135.84,268.749,136.444,269.488Z" fill="#263238"/>
          <path id="Path_91" data-name="Path 91" d="M133.962,259.3l1.007-.744,3.1,4.2-5.425,4.008-3.028-4.1,1.008-.744,2.107,2.854,1.178-.871-1.861-2.52.978-.72,1.859,2.518,1.256-.927Z" fill="#263238"/>
          <path id="Path_92" data-name="Path 92" d="M125.139,256.036l7.229-1.329.859,1.281-3.984,6.172-.94-1.4,2.86-4.388-5.16.954Z" fill="#263238"/>
          <path id="Path_93" data-name="Path 93" d="M124.782,255.409l-.828-1.326,5.73-3.574.828,1.325Z" fill="#263238"/>
          <path id="Path_94" data-name="Path 94" d="M125.155,245.3l1.084-.629,2.623,4.52-5.837,3.387-2.561-4.411,1.085-.629,1.781,3.069,1.266-.736-1.572-2.71,1.052-.61,1.572,2.711,1.351-.784Z" fill="#263238"/>
          <path id="Path_95" data-name="Path 95" d="M115.044,237.754l7.01-1.1.761,1.493-3.393,3.4,4.763-.71.757,1.485-5,5.037-.735-1.441,3.531-3.509-4.945.736-.657-1.287,3.557-3.544-4.971.772Z" fill="#263238"/>
        </g>
      </g>
      <g id="Group_232" data-name="Group 232">
        <g id="Group_229" data-name="Group 229">
          <path id="Path_96" data-name="Path 96" d="M154.81,155.677,82.075,135.729,105.608,192.5Z" fill="#455a64"/>
        </g>
        <g id="Group_230" data-name="Group 230">
          <path id="Path_97" data-name="Path 97" d="M136.272,154.273A109.616,109.616,0,0,1,239.039,82.458v-37c-63.308,0-117.361,40.385-137.751,96.745Z" fill="#455a64"/>
        </g>
        <g id="Group_231" data-name="Group 231">
          <path id="Path_98" data-name="Path 98" d="M141.37,103.837l2.533-1.729c1.823-1.244,3.824-1,4.977.689s.652,3.642-1.171,4.886l-2.534,1.729Zm5.551,2.831a2.1,2.1,0,1,0-2.359-3.457l-1.18.805,2.361,3.457Z" fill="#fff"/>
          <path id="Path_99" data-name="Path 99" d="M155.362,100.941l.707,1.035-4.316,2.947-3.806-5.575,4.213-2.876.707,1.035-2.932,2,.826,1.21,2.588-1.766.686,1-2.588,1.767.881,1.29Z" fill="#fff"/>
          <path id="Path_100" data-name="Path 100" d="M159.5,94.424c.849,1.242.445,2.651-1.045,3.668l-1.123.767,1.048,1.537-1.289.88L153.29,95.7l2.413-1.648C157.192,93.037,158.65,93.173,159.5,94.424Zm-1.306.892c-.419-.614-1.062-.7-1.85-.162l-1.052.718,1.322,1.935,1.052-.717C158.458,96.552,158.611,95.921,158.2,95.316Z" fill="#fff"/>
          <path id="Path_101" data-name="Path 101" d="M159.038,91.777l1.29-.88,3.088,4.523,2.795-1.908.717,1.052-4.085,2.788Z" fill="#fff"/>
          <path id="Path_102" data-name="Path 102" d="M165.3,91.587a3.7,3.7,0,1,1,5.018.8A3.494,3.494,0,0,1,165.3,91.587Zm4.795-3.273a2.112,2.112,0,1,0-.527,2.975A2.058,2.058,0,0,0,170.1,88.314Z" fill="#fff"/>
          <path id="Path_103" data-name="Path 103" d="M175.367,85.909l1.347,1.975-1.29.881-1.359-1.992-4.6-2.11,1.369-.935,3.181,1.46-.2-3.493,1.268-.865Z" fill="#fff"/>
        </g>
      </g>
      <g id="Group_236" data-name="Group 236">
        <g id="Group_233" data-name="Group 233">
          <path id="Path_104" data-name="Path 104" d="M259.882,109.591,211.7,56.884l61.482-34.827Z" fill="#e0e0e0"/>
        </g>
        <g id="Group_234" data-name="Group 234">
          <path id="Path_105" data-name="Path 105" d="M326.363,117.7a109.48,109.48,0,0,0-82.419-37.441v-37A146.477,146.477,0,0,1,354.218,93.345Z" fill="#e0e0e0"/>
        </g>
        <g id="Group_235" data-name="Group 235">
          <path id="Path_106" data-name="Path 106" d="M284.715,67.979l-2.016-.774.456-1.187,5.492,2.1-.456,1.189-2.018-.773-1.96,5.116-1.457-.56Z" fill="#263238"/>
          <path id="Path_107" data-name="Path 107" d="M292.342,75.424l-.447,1.171-4.881-1.87,2.414-6.3,4.764,1.825-.449,1.17-3.314-1.269-.524,1.369,2.928,1.121-.435,1.135L289.47,72.65l-.559,1.459Z" fill="#263238"/>
          <path id="Path_108" data-name="Path 108" d="M292.8,76.229l.916-.909a3.975,3.975,0,0,0,1.829,1.454c.864.331,1.325.178,1.473-.21.452-1.18-3.522-1.774-2.626-4.114.41-1.073,1.617-1.633,3.408-.946a4.513,4.513,0,0,1,1.975,1.4l-.874.935a3.81,3.81,0,0,0-1.558-1.165c-.865-.331-1.322-.135-1.474.262-.446,1.162,3.527,1.765,2.64,4.079-.4,1.053-1.621,1.619-3.422.929A4.816,4.816,0,0,1,292.8,76.229Z" fill="#263238"/>
          <path id="Path_109" data-name="Path 109" d="M301.973,74.59l-2.017-.772.455-1.189,5.492,2.105-.455,1.188-2.017-.773-1.96,5.115-1.457-.559Z" fill="#263238"/>
        </g>
      </g>
      <g id="Group_241" data-name="Group 241">
        <g id="Group_238" data-name="Group 238">
          <g id="Group_237" data-name="Group 237">
            <path id="Path_110" data-name="Path 110" d="M373.792,257.147l-33.5-15.7c6.823-14.558,13.083-35.537,13.083-51.758a108.241,108.241,0,0,0-11.736-49.364c-1.352-2.667-6.248-11.547-7.592-13.768l31.652-19.16c1.947,3.215,7.3,12.958,8.947,16.208a144.921,144.921,0,0,1,15.729,66.084C390.373,211.375,382.937,237.639,373.792,257.147Z" fill="#ff725e"/>
          </g>
        </g>
        <g id="Group_239" data-name="Group 239">
          <path id="Path_111" data-name="Path 111" d="M321.015,143.426l63.007-41.454L325.849,82.163Z" fill="#ff725e"/>
        </g>
        <g id="Group_240" data-name="Group 240">
          <path id="Path_112" data-name="Path 112" d="M368.291,150.284l.832,2.95c.6,2.125-.271,3.943-2.237,4.5s-3.658-.541-4.258-2.665l-.833-2.952Zm-4.451,4.359a2.1,2.1,0,1,0,4.028-1.135l-.387-1.374-4.027,1.136Z" fill="#263238"/>
          <path id="Path_113" data-name="Path 113" d="M366.239,164.517l-1.222.276-1.151-5.093,6.578-1.487,1.124,4.972-1.222.275L369.565,160l-1.429.323.69,3.054-1.184.269-.689-3.055-1.523.344Z" fill="#263238"/>
          <path id="Path_114" data-name="Path 114" d="M373.011,171.054l-7.154-1.69-.27-1.518,6.128-4.05.3,1.66-4.384,2.868,5.11,1.2Z" fill="#263238"/>
          <path id="Path_115" data-name="Path 115" d="M368.367,177.738l-1.242.168-.7-5.175,6.684-.906.684,5.052-1.241.167-.476-3.512-1.451.2.421,3.1-1.2.165-.421-3.1-1.545.21Z" fill="#263238"/>
          <path id="Path_116" data-name="Path 116" d="M373.959,178.444l.147,1.554-5.449.516.317,3.367-1.265.121-.466-4.922Z" fill="#263238"/>
          <path id="Path_117" data-name="Path 117" d="M371.117,184.086a3.7,3.7,0,1,1-3.3,3.866A3.491,3.491,0,0,1,371.117,184.086Zm.3,5.794a2.111,2.111,0,1,0-2.265-2A2.057,2.057,0,0,0,371.415,189.88Z" fill="#263238"/>
          <path id="Path_118" data-name="Path 118" d="M372.456,198.569c-1.5.006-2.442-1.119-2.45-2.921L370,194.289l-1.86.008-.006-1.561,6.747-.027.011,2.919C374.9,197.431,373.968,198.563,372.456,198.569Zm-.006-1.581c.742,0,1.174-.487,1.171-1.44l-.006-1.272-2.342.008.005,1.272C371.282,196.511,371.717,196.99,372.45,196.988Z" fill="#263238"/>
        </g>
      </g>
      <g id="Group_248" data-name="Group 248">
        <g id="Group_246" data-name="Group 246">
          <g id="Group_243" data-name="Group 243">
            <g id="Group_242" data-name="Group 242">
              <path id="Path_119" data-name="Path 119" d="M243.944,336.114H125.872v-37H243.944a108.722,108.722,0,0,0,86.993-43.033l29.392,22.475A145.449,145.449,0,0,1,243.944,336.114Z" fill="#ff725e"/>
            </g>
          </g>
          <g id="Group_244" data-name="Group 244">
            <path id="Path_120" data-name="Path 120" d="M312.233,246.83l62.782,41.795-4.5-61.288Z" fill="#ff725e"/>
          </g>
          <g id="Group_245" data-name="Group 245" opacity="0.3">
            <path id="Path_121" data-name="Path 121" d="M375.014,288.624l-4.5-61.288-58.28,19.494,17.052,11.351a108.669,108.669,0,0,1-85.34,40.933H125.872v37H243.944a145.442,145.442,0,0,0,116.234-57.366Z"/>
          </g>
        </g>
        <g id="Group_247" data-name="Group 247">
          <path id="Path_122" data-name="Path 122" d="M311.348,296.457c.906,1.2.567,2.628-.873,3.713l-1.088.819,1.121,1.486-1.248.939-4.06-5.392,2.334-1.758C308.973,295.18,310.438,295.248,311.348,296.457Zm-1.263.952c-.448-.593-1.094-.649-1.856-.076l-1.017.767,1.41,1.871,1.017-.766C310.4,298.631,310.526,297.995,310.085,297.409Z" fill="#263238"/>
          <path id="Path_123" data-name="Path 123" d="M310.758,293.835l1.248-.939,3.295,4.374,2.7-2.035.768,1.017-3.951,2.975Z" fill="#263238"/>
          <path id="Path_124" data-name="Path 124" d="M322.2,291.86l-2.5,1.885.391,1.516-1.278.963-1.658-7.2,1.232-.928,6.473,3.576-1.311.987Zm-1.106-.651-2.41-1.422.7,2.709Z" fill="#263238"/>
          <path id="Path_125" data-name="Path 125" d="M326.3,282.131l4.061,5.393-1.025.771-5.153-1.25,2.465,3.274-1.232.928-4.061-5.391,1.031-.778,5.147,1.254-2.465-3.273Z" fill="#263238"/>
        </g>
      </g>
      <g id="Group_253" data-name="Group 253">
        <g id="Group_249" data-name="Group 249">
          <path id="Path_126" data-name="Path 126" d="M116.041,276.264v82.7l53.2-41.349Z" fill="#e0e0e0"/>
        </g>
        <g id="Group_251" data-name="Group 251">
          <g id="Group_250" data-name="Group 250">
            <rect id="Rectangle_1" data-name="Rectangle 1" width="110.457" height="37" transform="translate(15.415 299.114)" fill="#e0e0e0"/>
          </g>
        </g>
        <g id="Group_252" data-name="Group 252">
          <path id="Path_127" data-name="Path 127" d="M62.755,316.361c0,1.5-1.129,2.439-2.932,2.439h-1.36v1.861H56.9v-6.75h2.922C61.626,313.911,62.755,314.846,62.755,316.361Zm-1.582,0c0-.743-.482-1.177-1.437-1.177H58.463v2.344h1.273C60.691,317.528,61.173,317.093,61.173,316.361Z" fill="#263238"/>
          <path id="Path_128" data-name="Path 128" d="M63.861,313.911h1.562v5.477h3.385v1.273H63.861Z" fill="#263238"/>
          <path id="Path_129" data-name="Path 129" d="M74.188,319.215H71.054l-.6,1.446h-1.6l3.008-6.75h1.543l3.019,6.75h-1.64Zm-.493-1.186-1.07-2.584-1.07,2.584Z" fill="#263238"/>
          <path id="Path_130" data-name="Path 130" d="M83.317,313.911v6.75H82.035l-3.365-4.1v4.1H77.127v-6.75h1.292l3.356,4.1v-4.1Z" fill="#263238"/>
        </g>
      </g>
    </g>
    <g id="Character" transform="translate(9 0.041)">
      <g id="Group_418" data-name="Group 418">
        <g id="Group_281" data-name="Group 281">
          <g id="Group_258" data-name="Group 258">
            <g id="Group_257" data-name="Group 257">
              <g id="Group_256" data-name="Group 256">
                <g id="Group_255" data-name="Group 255">
                  <g id="Group_254" data-name="Group 254">
                    <path id="Path_131" data-name="Path 131" d="M230.755,449.329l-2.85,30.184L211.59,478.3l2.793-30.248Z" fill="#ff725e"/>
                  </g>
                </g>
              </g>
            </g>
          </g>
          <g id="Group_264" data-name="Group 264">
            <g id="Group_263" data-name="Group 263">
              <g id="Group_262" data-name="Group 262">
                <g id="Group_261" data-name="Group 261">
                  <g id="Group_260" data-name="Group 260">
                    <g id="Group_259" data-name="Group 259">
                      <path id="Path_132" data-name="Path 132" d="M219.953,477.777c-.136-.015.461-6.626,1.332-14.765s1.688-14.728,1.824-14.714-.46,6.625-1.332,14.767S220.089,477.791,219.953,477.777Z" fill="#263238"/>
                    </g>
                  </g>
                </g>
              </g>
            </g>
          </g>
          <g id="Group_269" data-name="Group 269">
            <g id="Group_268" data-name="Group 268">
              <g id="Group_267" data-name="Group 267">
                <g id="Group_266" data-name="Group 266">
                  <g id="Group_265" data-name="Group 265">
                    <path id="Path_133" data-name="Path 133" d="M228.1,477.432l-16.315-1.266-.2,2.135,16.315,1.212Z" fill="#263238"/>
                  </g>
                </g>
              </g>
            </g>
          </g>
          <g id="Group_275" data-name="Group 275">
            <g id="Group_274" data-name="Group 274">
              <g id="Group_273" data-name="Group 273">
                <g id="Group_272" data-name="Group 272">
                  <g id="Group_271" data-name="Group 271">
                    <g id="Group_270" data-name="Group 270">
                      <path id="Path_134" data-name="Path 134" d="M212.483,468.635c-.023-.021.14-.248.481-.618a11.423,11.423,0,0,1,1.6-1.409,11.1,11.1,0,0,1,2.8-1.505,8.707,8.707,0,0,1,9.957,2.879,7.494,7.494,0,0,1,1.017,1.888,2.139,2.139,0,0,1,.187.762,17.142,17.142,0,0,0-1.481-2.436,8.712,8.712,0,0,0-5.854-3.106,10.018,10.018,0,0,0-6.429,1.8C213.3,467.872,212.545,468.7,212.483,468.635Z" fill="#263238"/>
                    </g>
                  </g>
                </g>
              </g>
            </g>
          </g>
          <g id="Group_280" data-name="Group 280" opacity="0.3">
            <g id="Group_279" data-name="Group 279">
              <g id="Group_278" data-name="Group 278">
                <g id="Group_277" data-name="Group 277">
                  <g id="Group_276" data-name="Group 276">
                    <path id="Path_135" data-name="Path 135" d="M213.588,456.663l-.307,3.326,16.36,1.141.236-2.5Z"/>
                  </g>
                </g>
              </g>
            </g>
          </g>
        </g>
        <g id="Group_309" data-name="Group 309">
          <g id="Group_286" data-name="Group 286">
            <g id="Group_285" data-name="Group 285">
              <g id="Group_284" data-name="Group 284">
                <g id="Group_283" data-name="Group 283">
                  <g id="Group_282" data-name="Group 282">
                    <path id="Path_136" data-name="Path 136" d="M296.355,447.218l1.961,30.255-16.3,1.384-2.027-30.309Z" fill="#ff725e"/>
                  </g>
                </g>
              </g>
            </g>
          </g>
          <g id="Group_292" data-name="Group 292">
            <g id="Group_291" data-name="Group 291">
              <g id="Group_290" data-name="Group 290">
                <g id="Group_289" data-name="Group 289">
                  <g id="Group_288" data-name="Group 288">
                    <g id="Group_287" data-name="Group 287">
                      <path id="Path_137" data-name="Path 137" d="M290.19,477.016c-.137.007-.594-6.616-1.021-14.79s-.663-14.81-.526-14.817.593,6.614,1.02,14.791S290.326,477.009,290.19,477.016Z" fill="#263238"/>
                    </g>
                  </g>
                </g>
              </g>
            </g>
          </g>
          <g id="Group_297" data-name="Group 297">
            <g id="Group_296" data-name="Group 296">
              <g id="Group_295" data-name="Group 295">
                <g id="Group_294" data-name="Group 294">
                  <g id="Group_293" data-name="Group 293">
                    <path id="Path_138" data-name="Path 138" d="M298.181,475.387l-16.31,1.331.143,2.14,16.3-1.384Z" fill="#263238"/>
                  </g>
                </g>
              </g>
            </g>
          </g>
          <g id="Group_303" data-name="Group 303">
            <g id="Group_302" data-name="Group 302">
              <g id="Group_301" data-name="Group 301">
                <g id="Group_300" data-name="Group 300">
                  <g id="Group_299" data-name="Group 299">
                    <g id="Group_298" data-name="Group 298">
                      <path id="Path_139" data-name="Path 139" d="M281.367,469.171a2.188,2.188,0,0,1,.378-.687,11.329,11.329,0,0,1,1.361-1.645,11.115,11.115,0,0,1,2.529-1.929,8.708,8.708,0,0,1,10.287,1.268,7.484,7.484,0,0,1,1.3,1.7,2.1,2.1,0,0,1,.3.723,17.1,17.1,0,0,0-1.847-2.171,8.715,8.715,0,0,0-6.272-2.141,10.01,10.01,0,0,0-6.063,2.8C282.049,468.289,281.439,469.224,281.367,469.171Z" fill="#263238"/>
                    </g>
                  </g>
                </g>
              </g>
            </g>
          </g>
          <g id="Group_308" data-name="Group 308" opacity="0.3">
            <g id="Group_307" data-name="Group 307">
              <g id="Group_306" data-name="Group 306">
                <g id="Group_305" data-name="Group 305">
                  <g id="Group_304" data-name="Group 304">
                    <path id="Path_140" data-name="Path 140" d="M280.564,457.175l.223,3.333,16.335-1.461-.163-2.51Z"/>
                  </g>
                </g>
              </g>
            </g>
          </g>
        </g>
        <g id="Group_381" data-name="Group 381">
          <g id="Group_319" data-name="Group 319">
            <g id="Group_318" data-name="Group 318">
              <g id="Group_317" data-name="Group 317">
                <g id="Group_316" data-name="Group 316">
                  <g id="Group_315" data-name="Group 315">
                    <g id="Group_314" data-name="Group 314">
                      <g id="Group_313" data-name="Group 313">
                        <g id="Group_312" data-name="Group 312">
                          <g id="Group_311" data-name="Group 311">
                            <g id="Group_310" data-name="Group 310">
                              <path id="Path_141" data-name="Path 141" d="M250.184,179.771l-22.467,3.352L226.665,163.9s-1.623-.07-3.059-8.271-4.087-22.1-4.087-22.1h0a30.852,30.852,0,0,1,30.311-1.205l1.413.733Z" fill="#ffbe9d"/>
                            </g>
                          </g>
                        </g>
                      </g>
                    </g>
                  </g>
                </g>
              </g>
            </g>
          </g>
          <g id="Group_327" data-name="Group 327">
            <g id="Group_326" data-name="Group 326">
              <g id="Group_325" data-name="Group 325">
                <g id="Group_324" data-name="Group 324">
                  <g id="Group_323" data-name="Group 323">
                    <g id="Group_322" data-name="Group 322">
                      <g id="Group_321" data-name="Group 321">
                        <g id="Group_320" data-name="Group 320">
                          <path id="Path_142" data-name="Path 142" d="M250.212,143.594c.135-.084,5.579-2.617,6.3,3.032s-5.3,5.25-5.329,5.089S250.212,143.594,250.212,143.594Z" fill="#ffbe9d"/>
                        </g>
                      </g>
                    </g>
                  </g>
                </g>
              </g>
            </g>
          </g>
          <g id="Group_335" data-name="Group 335">
            <g id="Group_334" data-name="Group 334">
              <g id="Group_333" data-name="Group 333">
                <g id="Group_332" data-name="Group 332">
                  <g id="Group_331" data-name="Group 331">
                    <g id="Group_330" data-name="Group 330">
                      <g id="Group_329" data-name="Group 329">
                        <g id="Group_328" data-name="Group 328">
                          <path id="Path_143" data-name="Path 143" d="M222.689,146.846c-.154-.037-5.561-.547-4.465,5.041s6.683,3.31,6.662,3.148S222.689,146.846,222.689,146.846Z" fill="#ffbe9d"/>
                        </g>
                      </g>
                    </g>
                  </g>
                </g>
              </g>
            </g>
          </g>
          <g id="Group_339" data-name="Group 339">
            <g id="Group_338" data-name="Group 338">
              <g id="Group_337" data-name="Group 337">
                <g id="Group_336" data-name="Group 336">
                  <path id="Path_144" data-name="Path 144" d="M252,142.662c-.107,4.848.465,7.295.17,10.569-.468,5.183-2.409,9.413-6.65,12.65s-10.529,4.209-15.066,1.472c-3.147-1.9-5.539-4.235-6.522-7.7s-2.407-9.661-3.01-13.214c-1.085-6.408-2.523-12.469-2.523-12.469l18.445-6.39,11.807,4.453Z" fill="#263238"/>
                </g>
              </g>
            </g>
          </g>
          <g id="Group_344" data-name="Group 344">
            <g id="Group_343" data-name="Group 343">
              <g id="Group_342" data-name="Group 342">
                <g id="Group_341" data-name="Group 341">
                  <g id="Group_340" data-name="Group 340">
                    <path id="Path_145" data-name="Path 145" d="M236.374,170.274a8.878,8.878,0,0,0,6.4-1.747c-.078-.132-1.413.52-3.166.991S236.372,170.121,236.374,170.274Z" fill="#263238"/>
                  </g>
                </g>
              </g>
            </g>
          </g>
          <g id="Group_380" data-name="Group 380">
            <g id="Group_347" data-name="Group 347">
              <g id="Group_346" data-name="Group 346">
                <g id="Group_345" data-name="Group 345">
                  <path id="Path_146" data-name="Path 146" d="M252.377,150.814c-.226-4.915-.758-10.492-.8-15.7-.016-1.956.243-4.822-.245-6.716a15.657,15.657,0,0,0-2.163-5.449,8.426,8.426,0,0,0-6.465-3.366,8.68,8.68,0,0,0-6.747,2.954,6.519,6.519,0,0,0-6.92-1.439,6.275,6.275,0,0,0-3.91,5.767,4.588,4.588,0,0,0-5.259.3,4.242,4.242,0,0,0-1.132,4.986,4.291,4.291,0,0,0-2.759,2.863,4.04,4.04,0,0,0,.939,3.775c1.091,1.165,2.794,1.628,3.965,2.718a4.614,4.614,0,0,1,1.113,5.025" fill="#263238"/>
                </g>
              </g>
            </g>
            <g id="Group_351" data-name="Group 351">
              <g id="Group_350" data-name="Group 350">
                <g id="Group_349" data-name="Group 349">
                  <g id="Group_348" data-name="Group 348">
                    <path id="Path_147" data-name="Path 147" d="M223.193,137.648c-.017.01.061.2.3.494a3.825,3.825,0,0,0,1.3,1.019,4.121,4.121,0,0,0,2.592.355,4.352,4.352,0,0,0,2.819-1.87l-.418-.04a3.91,3.91,0,0,0,2.994,2.4,4.728,4.728,0,0,0,4.2-1.213,6.314,6.314,0,0,0,1.915-3.437l-.452.125a5.469,5.469,0,0,0,4.667,1.58,5.1,5.1,0,0,0,3.385-2.012,4.877,4.877,0,0,0,.961-2.361,2.058,2.058,0,0,0-.033-.909c-.041,0-.031.321-.145.884a5.127,5.127,0,0,1-1.048,2.193,4.823,4.823,0,0,1-3.175,1.772,5.042,5.042,0,0,1-4.221-1.486l-.349-.375-.1.5a5.893,5.893,0,0,1-1.767,3.148,4.217,4.217,0,0,1-3.719,1.1,3.473,3.473,0,0,1-2.665-2.059l-.162-.452-.256.411a3.99,3.99,0,0,1-2.5,1.741,3.936,3.936,0,0,1-2.4-.233A5.37,5.37,0,0,1,223.193,137.648Z" fill="#455a64"/>
                  </g>
                </g>
              </g>
            </g>
            <g id="Group_355" data-name="Group 355">
              <g id="Group_354" data-name="Group 354">
                <g id="Group_353" data-name="Group 353">
                  <g id="Group_352" data-name="Group 352">
                    <path id="Path_148" data-name="Path 148" d="M222.866,135.415a5.039,5.039,0,0,1,.48-2.177,3.51,3.51,0,0,1,1.786-1.619,3.763,3.763,0,0,1,2.981.065l.513.245-.137-.541a4.137,4.137,0,0,1-.067-1.646,4.514,4.514,0,0,1,1.91-3,4.666,4.666,0,0,1,2.918-.73,6.343,6.343,0,0,1,2.685.944c.021-.019-.151-.249-.573-.549a4.722,4.722,0,0,0-2.069-.761,4.789,4.789,0,0,0-5.4,4.023,4.533,4.533,0,0,0,.086,1.854l.376-.3a4.178,4.178,0,0,0-3.4-.017,3.757,3.757,0,0,0-1.916,1.889,3.485,3.485,0,0,0-.319,1.711C222.749,135.214,222.84,135.421,222.866,135.415Z" fill="#455a64"/>
                  </g>
                </g>
              </g>
            </g>
            <g id="Group_359" data-name="Group 359">
              <g id="Group_358" data-name="Group 358">
                <g id="Group_357" data-name="Group 357">
                  <g id="Group_356" data-name="Group 356">
                    <path id="Path_149" data-name="Path 149" d="M235,133.619c.069-.043-.067-.318-.109-.775a3.631,3.631,0,0,1,.325-1.756,17.959,17.959,0,0,1,.856-1.667c.245-.336.551-.179.587-.213.028-.015.011-.13-.161-.206a.68.68,0,0,0-.705.172,4.227,4.227,0,0,0-.552.747,6.571,6.571,0,0,0-.523.976,3.035,3.035,0,0,0-.2,2.02C234.671,133.435,234.946,133.659,235,133.619Z" fill="#455a64"/>
                  </g>
                </g>
              </g>
            </g>
            <g id="Group_363" data-name="Group 363">
              <g id="Group_362" data-name="Group 362">
                <g id="Group_361" data-name="Group 361">
                  <g id="Group_360" data-name="Group 360">
                    <path id="Path_150" data-name="Path 150" d="M245.114,124.731c.057-.03-.068-.437-.521-.967a2.791,2.791,0,0,0-1.008-.74,2.358,2.358,0,0,0-1.6-.077,3.761,3.761,0,0,0-2.078,1.768c-.341.588-.476.976-.417,1.01s.326-.294.732-.807a4.072,4.072,0,0,1,1.915-1.473,2.279,2.279,0,0,1,2.179.578C244.8,124.44,245.044,124.774,245.114,124.731Z" fill="#455a64"/>
                  </g>
                </g>
              </g>
            </g>
            <g id="Group_367" data-name="Group 367">
              <g id="Group_366" data-name="Group 366">
                <g id="Group_365" data-name="Group 365">
                  <g id="Group_364" data-name="Group 364">
                    <path id="Path_151" data-name="Path 151" d="M246.016,149.038a9.2,9.2,0,0,0,1.425-3.909,8.967,8.967,0,0,0,.053-4.131c-.159.007-.169,1.838-.582,4.045S245.869,148.981,246.016,149.038Z" fill="#455a64"/>
                  </g>
                </g>
              </g>
            </g>
            <g id="Group_371" data-name="Group 371">
              <g id="Group_370" data-name="Group 370">
                <g id="Group_369" data-name="Group 369">
                  <g id="Group_368" data-name="Group 368">
                    <path id="Path_152" data-name="Path 152" d="M243.688,150.8a6.855,6.855,0,0,0,.994-2.782,6.674,6.674,0,0,0,.236-2.926,10.477,10.477,0,0,0-.762,2.826A10.349,10.349,0,0,0,243.688,150.8Z" fill="#455a64"/>
                  </g>
                </g>
              </g>
            </g>
            <g id="Group_375" data-name="Group 375">
              <g id="Group_374" data-name="Group 374">
                <g id="Group_373" data-name="Group 373">
                  <g id="Group_372" data-name="Group 372">
                    <path id="Path_153" data-name="Path 153" d="M227.757,153.77a8.711,8.711,0,0,0,1.455,4.832,9.031,9.031,0,0,0,3.56,3.654,31.386,31.386,0,0,1-3.092-3.916A30.607,30.607,0,0,1,227.757,153.77Z" fill="#455a64"/>
                  </g>
                </g>
              </g>
            </g>
            <g id="Group_379" data-name="Group 379">
              <g id="Group_378" data-name="Group 378">
                <g id="Group_377" data-name="Group 377">
                  <g id="Group_376" data-name="Group 376">
                    <path id="Path_154" data-name="Path 154" d="M224.543,150.084a7.032,7.032,0,0,0,.349,4.509,7.183,7.183,0,0,0,2.625,3.718,24.714,24.714,0,0,1-2.116-3.9A24.352,24.352,0,0,1,224.543,150.084Z" fill="#455a64"/>
                  </g>
                </g>
              </g>
            </g>
          </g>
        </g>
        <g id="Group_382" data-name="Group 382">
          <path id="Path_155" data-name="Path 155" d="M226.737,179.23l.2-4.82,23.483-4.96.83,3.969Z" fill="#fff"/>
        </g>
        <g id="Group_407" data-name="Group 407">
          <g id="Group_383" data-name="Group 383">
            <path id="Path_156" data-name="Path 156" d="M153.226,237.543s-1.16.6-.351,1.445,11.489,10.333,12.931,11.263a30.488,30.488,0,0,0,5.764,2.052l2.822-.525,1.652-6.8,1.992-3.272-.508-.752,1.876-7.272s-1.629-.661-2.373.511c-1.05,1.654-2.5,4.325-2.5,4.325s-2.937.447-4.005-.827-7.294-11.78-8.048-11.963-1.9.047-1.287,1.718,4.591,7.628,4.439,7.954-.756.774-1.048.485-6.644-8.677-7.65-8.82c-1.072-.153-1.842.713-.856,2.33s6.153,7.514,5.917,7.892-.924-.079-.924-.079-5.91-6.171-6.74-6.061c-.921.122-1.065,1.049-.6,1.815s6.456,6.556,6.562,7.016c.069.3-.185,1.493-.667,1.086S153.7,237.151,153.226,237.543Z" fill="#ffbe9d"/>
          </g>
          <g id="Group_384" data-name="Group 384">
            <path id="Path_157" data-name="Path 157" d="M213.6,298.963l-1.243,80.676-2.74,83.749,22.733,1.643,7.67-85.392,8.729-60.59,1.922-.118,17.173,63.081,10.7,80.951c1.33-.332,21.46-1.921,21.46-1.921L286.041,297.129,283.714,283.5l-59.846,1.33Z" fill="#263238"/>
          </g>
          <g id="Group_385" data-name="Group 385">
            <path id="Path_158" data-name="Path 158" d="M280.881,255.513l-1.731-46.662-2.878-32.223H256.65l-5.01-4.886-25.167,4.886-2.33,7.029s-20.212,6.435-21.333,8.4c0,0,7.089,27.979,10.428,43.658,2.29,10.758,4.7,21.784,4.7,21.784l-6.385,51.618c-.253,0,38.88-1.722,38.88-1.722l37.806-4.09Z" fill="#455a64"/>
          </g>
          <g id="Group_386" data-name="Group 386">
            <path id="Path_159" data-name="Path 159" d="M301.318,161.956s-5.76.452-6.1.452-6.27.545-6.27.545a3.039,3.039,0,0,1,1.636-2.045c1.363-.613,3.962-1.562,4.235-2.039s.876-1.164.331-1.913-10.478-10.832-10.819-11.378-.886-1.567,0-1.772,1.977.75,2.726,1.363,4.618,3.881,5.026,3.677.069-.546.069-.546-6.569-6.76-6.637-6.964-.842-2.2,1.028-1.871c.9.157,7.721,7.132,7.994,6.859s-5.725-7.974-5.18-8.587,1.159-1.227,2.249,0,5.787,7.5,6.131,7.565a.57.57,0,0,0,.616-.75c-.136-.477-2.926-5.336-2.926-5.881s.548-.68,1.093-.748,6.4,8.4,6.4,8.4,4.519,7.27,4.975,8.11a27.534,27.534,0,0,1,1.295,3.68Z" fill="#ffbe9d"/>
          </g>
          <g id="Group_387" data-name="Group 387">
            <path id="Path_160" data-name="Path 160" d="M299.88,162.331l3.925,15.137-8.971,3.364-19.342-4.2V205.22l2.736,7.434S318.7,193.12,321.393,190.97c5.026-4.02-2.952-17.863-2.952-17.863l-7.348-15.821Z" fill="#455a64"/>
          </g>
          <g id="Group_388" data-name="Group 388">
            <path id="Path_161" data-name="Path 161" d="M202.81,192.054l-4.528,9.064-11.439,37.87-12.784,3.41-2.4,11.685s19.991,4.687,23.7,3.076c6.3-2.733,16.806-28.807,16.806-28.807l-1.422-22.291Z" fill="#455a64"/>
          </g>
          <g id="Group_390" data-name="Group 390">
            <g id="Group_389" data-name="Group 389">
              <path id="Path_162" data-name="Path 162" d="M316.5,183.657a26.9,26.9,0,0,0-12.809-6.491,6.511,6.511,0,0,1,2.15.2,19.347,19.347,0,0,1,9.225,4.673A6.475,6.475,0,0,1,316.5,183.657Z" fill="#263238"/>
            </g>
          </g>
          <g id="Group_392" data-name="Group 392">
            <g id="Group_391" data-name="Group 391">
              <path id="Path_163" data-name="Path 163" d="M312.685,177.386a17.468,17.468,0,0,0-9.674.613,10.335,10.335,0,0,1,9.674-.613Z" fill="#263238"/>
            </g>
          </g>
          <g id="Group_394" data-name="Group 394">
            <g id="Group_393" data-name="Group 393">
              <path id="Path_164" data-name="Path 164" d="M256.65,176.628a6.554,6.554,0,0,1-1.1.762c-.359.239-.812.509-1.353.8s-1.144.638-1.845.959a46.51,46.51,0,0,1-5,2.075,62.474,62.474,0,0,1-6.378,1.8,67.924,67.924,0,0,1-11.925,1.525c-1.537.058-2.783.062-3.643.028a6.557,6.557,0,0,1-1.333-.1,6.629,6.629,0,0,1,1.332-.105c.857-.028,2.1-.088,3.625-.193a80.858,80.858,0,0,0,11.831-1.665c2.276-.514,4.415-1.121,6.336-1.748,1.908-.664,3.614-1.306,5-1.955.7-.3,1.32-.614,1.866-.883s1.014-.5,1.387-.713A6.527,6.527,0,0,1,256.65,176.628Z" fill="#263238"/>
            </g>
          </g>
          <g id="Group_396" data-name="Group 396">
            <g id="Group_395" data-name="Group 395">
              <path id="Path_165" data-name="Path 165" d="M262.582,257.541a8.109,8.109,0,0,1-1.443.368c-.935.212-2.3.449-4,.677a65.366,65.366,0,0,1-26.557-2.016c-1.645-.481-2.962-.922-3.854-1.273a8.1,8.1,0,0,1-1.371-.581,8.148,8.148,0,0,1,1.436.389c.91.291,2.238.677,3.887,1.11a72.991,72.991,0,0,0,26.415,2.005c1.7-.18,3.067-.36,4.01-.51A8.224,8.224,0,0,1,262.582,257.541Z" fill="#263238"/>
            </g>
          </g>
          <g id="Group_398" data-name="Group 398">
            <g id="Group_397" data-name="Group 397">
              <path id="Path_166" data-name="Path 166" d="M186.132,242.458c-.138-.041,1.265-5.27,3.134-11.678s3.5-11.573,3.635-11.533-1.265,5.268-3.135,11.679S186.27,242.5,186.132,242.458Z" fill="#263238"/>
            </g>
          </g>
          <g id="Group_400" data-name="Group 400">
            <g id="Group_399" data-name="Group 399">
              <path id="Path_167" data-name="Path 167" d="M247.5,272.664c.144,0,.406,5.815.585,13s.208,13.006.064,13.01-.4-5.815-.584-13S247.358,272.667,247.5,272.664Z" fill="#263238"/>
            </g>
          </g>
          <g id="Group_402" data-name="Group 402">
            <g id="Group_401" data-name="Group 401">
              <path id="Path_168" data-name="Path 168" d="M261.839,316.9c.026.142-5.059,1.192-11.355,2.346s-11.425,1.975-11.451,1.833,5.058-1.191,11.357-2.345S261.813,316.759,261.839,316.9Z" fill="#455a64"/>
            </g>
          </g>
          <g id="Group_404" data-name="Group 404">
            <g id="Group_403" data-name="Group 403">
              <path id="Path_169" data-name="Path 169" d="M284.915,378.105a47.43,47.43,0,0,0-6.541.847,47.068,47.068,0,0,0-6.2,2.263,5.719,5.719,0,0,1,1.635-1.09,19.46,19.46,0,0,1,9.15-2.234A5.717,5.717,0,0,1,284.915,378.105Z" fill="#455a64"/>
            </g>
          </g>
          <g id="Group_406" data-name="Group 406">
            <g id="Group_405" data-name="Group 405">
              <path id="Path_170" data-name="Path 170" d="M230.174,382.027c-.034.153-1.886-.229-4.182-.119-2.3.09-4.109.631-4.157.482a11.015,11.015,0,0,1,8.339-.363Z" fill="#455a64"/>
            </g>
          </g>
        </g>
        <g id="Group_409" data-name="Group 409">
          <g id="Group_408" data-name="Group 408">
            <path id="Path_171" data-name="Path 171" d="M217.941,257.5a2.031,2.031,0,0,1-.164-.511c-.1-.4-.222-.889-.372-1.487-.318-1.371-.75-3.228-1.276-5.49-1.058-4.71-2.49-11.09-4.072-18.14s-3-13.436-4.051-18.147l-1.23-5.5-.319-1.5a2.045,2.045,0,0,1-.076-.531,2.129,2.129,0,0,1,.178.506c.111.394.248.882.414,1.476.35,1.285.824,3.152,1.391,5.463,1.134,4.623,2.621,11.028,4.2,18.118s2.956,13.515,3.924,18.175c.459,2.276.836,4.146,1.115,5.525.111.607.2,1.1.276,1.508A2.124,2.124,0,0,1,217.941,257.5Z" fill="#263238"/>
          </g>
        </g>
        <g id="Group_411" data-name="Group 411">
          <g id="Group_410" data-name="Group 410">
            <path id="Path_172" data-name="Path 172" d="M278.181,192.794a1.171,1.171,0,0,1,.045.284l.078.839c.064.738.151,1.827.24,3.23.191,2.806.413,6.869.666,11.891.5,10.044,1.089,23.923,1.664,39.255.091,2.47.18,4.9.265,7.211l0-.03c2.043,13.488,3.851,25.425,5.156,34.034.622,4.262,1.125,7.7,1.477,10.111q.238,1.739.375,2.73c.035.289.063.522.085.71a.971.971,0,0,1,.013.243.9.9,0,0,1-.061-.236c-.035-.185-.079-.416-.133-.7l-.464-2.717c-.39-2.406-.945-5.834-1.633-10.086-1.347-8.6-3.215-20.531-5.325-34.008l0-.015v-.015c-.086-2.309-.177-4.741-.269-7.211C279.169,218.044,278.292,195.63,278.181,192.794Z" fill="#263238"/>
          </g>
        </g>
        <g id="Group_413" data-name="Group 413" opacity="0.3">
          <g id="Group_412" data-name="Group 412">
            <path id="Path_173" data-name="Path 173" d="M254.051,178.394c-9.459,3.812-18.806,6.165-28.954,6.172a8.2,8.2,0,0,0,5.294,2.331,21.238,21.238,0,0,0,5.938-.507,89.737,89.737,0,0,0,14.445-4.058C252.385,181.729,254.272,179.991,254.051,178.394Z"/>
          </g>
        </g>
        <g id="Group_415" data-name="Group 415" opacity="0.3">
          <g id="Group_414" data-name="Group 414">
            <path id="Path_174" data-name="Path 174" d="M206.942,207.821c.155,3.644-.248,8.022.514,11.586a21.724,21.724,0,0,0,4.553,9.8C210.246,222.339,208.756,214.819,206.942,207.821Z"/>
          </g>
        </g>
        <g id="Group_417" data-name="Group 417" opacity="0.3">
          <g id="Group_416" data-name="Group 416">
            <path id="Path_175" data-name="Path 175" d="M236.283,262.73l-.31-.047c3.061,3.478,8.142,3.84,12.775,3.872s9.667-.267,12.775-3.7A62.7,62.7,0,0,1,236.283,262.73Z"/>
          </g>
        </g>
      </g>
    </g>
    <g id="Floor">
      <g id="Group_444" data-name="Group 444">
        <g id="Group_443" data-name="Group 443">
          <path id="Path_194" data-name="Path 194" d="M454.23,479.3c0,.144-91.446.26-204.225.26-112.817,0-204.244-.116-204.244-.26s91.427-.26,204.244-.26C362.784,479.035,454.23,479.151,454.23,479.3Z" fill="#263238"/>
        </g>
      </g>
    </g>
    <g id="Speech_Bubble" data-name="Speech Bubble">
      <g id="Group_462" data-name="Group 462">
        <g id="Group_453" data-name="Group 453">
          <g id="Group_452" data-name="Group 452">
            <g id="Group_447" data-name="Group 447">
              <g id="Group_446" data-name="Group 446">
                <g id="Group_445" data-name="Group 445">
                  <path id="Path_195" data-name="Path 195" d="M209.234,164.892l-11.018-2.466a26.3,26.3,0,1,1,4.868-8.071l.008-.013Z" fill="#fff"/>
                </g>
              </g>
            </g>
            <g id="Group_451" data-name="Group 451">
              <g id="Group_450" data-name="Group 450">
                <g id="Group_449" data-name="Group 449">
                  <g id="Group_448" data-name="Group 448">
                    <path id="Path_196" data-name="Path 196" d="M209.233,164.892l-6.055-10.6a.1.1,0,0,0-.135-.037.1.1,0,0,0-.031.029L203,154.3l.173.093a26.249,26.249,0,0,0,1.416-13.62,23.764,23.764,0,0,0-1.011-4.045c-.247-.673-.477-1.366-.75-2.051l-.968-2.028A26.54,26.54,0,0,0,186.978,120a26.227,26.227,0,0,0-11.018-1.291,26.829,26.829,0,0,0-11.105,3.709,25.966,25.966,0,0,0-8.706,8.549,26.43,26.43,0,0,0-3.966,11.808,26.828,26.828,0,0,0,1.707,11.809,25.957,25.957,0,0,0,6.217,9.42,26.687,26.687,0,0,0,18.34,7.458,28.4,28.4,0,0,0,8.515-1.4,26.168,26.168,0,0,0,11.326-7.564l-.092.03,11.037,2.373-11-2.559a.1.1,0,0,0-.092.03,26.121,26.121,0,0,1-11.271,7.429,28.245,28.245,0,0,1-8.427,1.355,26.4,26.4,0,0,1-18.085-7.41,25.619,25.619,0,0,1-6.115-9.295,26.482,26.482,0,0,1-1.671-11.637,26.065,26.065,0,0,1,3.911-11.63,25.6,25.6,0,0,1,8.572-8.423A26.473,26.473,0,0,1,176,119.087a25.9,25.9,0,0,1,10.863,1.256,26.25,26.25,0,0,1,14.724,12.45l.964,2c.273.676.5,1.36.749,2.025a23.5,23.5,0,0,1,1.018,4,26.177,26.177,0,0,1-1.325,13.5.1.1,0,0,0,.173.093l.009-.012-.166-.008C206.944,161.032,208.874,164.285,209.233,164.892Z" fill="#263238"/>
                  </g>
                </g>
              </g>
            </g>
          </g>
        </g>
        <g id="Group_461" data-name="Group 461">
          <g id="Group_460" data-name="Group 460">
            <g id="Group_459" data-name="Group 459">
              <g id="Group_458" data-name="Group 458">
                <g id="Group_457" data-name="Group 457">
                  <g id="Group_456" data-name="Group 456">
                    <g id="Group_455" data-name="Group 455">
                      <g id="Group_454" data-name="Group 454">
                        <path id="Path_197" data-name="Path 197" d="M164.02,145.57l3.774-3.774,7.278,6.469,14.287-13.747,3.5,3.774-18.33,17.252Z" fill="#ff725e"/>
                      </g>
                    </g>
                  </g>
                </g>
              </g>
            </g>
          </g>
        </g>
      </g>
    </g>
  </g>
</svg>
