<svg xmlns="http://www.w3.org/2000/svg" width="436.475" height="333.891" viewBox="0 0 436.475 333.891">
  <g id="mobile-development-product" transform="translate(-72.676 -143.076)">
    <g id="Group_127" data-name="Group 127" transform="translate(72.676 143.076)">
      <g id="Group_84" data-name="Group 84" transform="translate(318.785)">
        <g id="Group_83" data-name="Group 83" transform="translate(8.542)">
          <g id="Group_76" data-name="Group 76">
            <path id="Path_241" data-name="Path 241" d="M448.212,425.19,370.65,380.546a21.771,21.771,0,0,1-10.91-18.876V151.653a8.579,8.579,0,0,1,12.857-7.434l78.883,45.407a19.58,19.58,0,0,1,9.812,16.969V417.626a8.728,8.728,0,0,1-13.08,7.564Z" transform="translate(-352.143 -143.076)" fill="#bf4252"/>
            <path id="Path_242" data-name="Path 242" d="M430.781,343.608l-1.305-3.792-5.227.507-1.791,2.611v4.717l7.112-3.006Z" transform="translate(-326.254 -61.863)" fill="#bf4252"/>
            <path id="Path_243" data-name="Path 243" d="M357.711,147.061,366,143.5l1.82.952v2.478l-2.246,3.956h-4.415Z" transform="translate(-352.981 -142.9)" fill="#bf4252"/>
            <path id="Path_244" data-name="Path 244" d="M443.084,427.256l-77.562-44.644a21.771,21.771,0,0,1-10.911-18.869V153.72a8.578,8.578,0,0,1,12.856-7.436l78.883,45.409a19.577,19.577,0,0,1,9.812,16.969V419.693a8.725,8.725,0,0,1-13.078,7.563Z" transform="translate(-354.261 -142.223)" fill="#9b1122"/>
            <path id="Path_245" data-name="Path 245" d="M442.836,427.452l-77.562-44.644a21.771,21.771,0,0,1-10.911-18.869V153.916a8.578,8.578,0,0,1,12.856-7.434L446.1,191.889a19.58,19.58,0,0,1,9.812,16.969V419.889a8.727,8.727,0,0,1-13.078,7.563Z" transform="translate(-354.363 -142.142)" fill="#a72d3c"/>
            <path id="Path_246" data-name="Path 246" d="M394.753,323.074c0,5.92-3,8.922-6.69,6.707s-6.691-8.81-6.691-14.728,3-8.922,6.691-6.707S394.753,317.155,394.753,323.074Z" transform="translate(-343.214 -75.155)" fill="#981122"/>
            <path id="Path_247" data-name="Path 247" d="M394.4,323.074c0,5.92-3,8.922-6.69,6.707s-6.691-8.81-6.691-14.728,3-8.922,6.691-6.707S394.4,317.155,394.4,323.074Z" transform="translate(-343.359 -75.155)" fill="#bf4252"/>
            <path id="Path_248" data-name="Path 248" d="M446.455,201.841l-19.488-11.218v3.634a1.756,1.756,0,0,1-2.625,1.526l-46.378-26.433a2.752,2.752,0,0,1-1.39-2.39v-5.343l-15.156-8.724a1.527,1.527,0,0,0-2.29,1.324V343.469a1.527,1.527,0,0,0,.766,1.325l85.038,48.949a1.527,1.527,0,0,0,2.29-1.324V203.166a1.53,1.53,0,0,0-.766-1.325Z" transform="translate(-352.396 -139.109)" fill="#bf4252"/>
            <path id="Path_249" data-name="Path 249" d="M447.223,222.921a172.5,172.5,0,0,0-16.954-32.192l-3.307-1.9v3.634a1.756,1.756,0,0,1-2.625,1.526l-46.378-26.433a2.752,2.752,0,0,1-1.39-2.39v-5.343l-4.828-2.779a31.376,31.376,0,0,0-12.619,8.146V299.342c10.846,24.2,25.942,44.235,42.644,54.251,18.2,10.911,34.486,7.629,45.45-6.349Z" transform="translate(-352.398 -137.312)" fill="#e98f9b"/>
          </g>
          <path id="Path_250" data-name="Path 250" d="M419.244,194.539l-46.378-26.433a2.752,2.752,0,0,1-1.39-2.39V155.7l50.393,28.722v8.6a1.756,1.756,0,0,1-2.625,1.52Z" transform="translate(-347.299 -137.865)" fill="#bf4252"/>
          <g id="Group_80" data-name="Group 80" transform="translate(33.839 26.483)">
            <g id="Group_77" data-name="Group 77" transform="translate(0.209)">
              <path id="Path_251" data-name="Path 251" d="M400.039,176.241a1.79,1.79,0,0,1-.838-.247l-19.214-10.682a2.978,2.978,0,0,1-1.524-2.551c.078-.9.892-1.2,1.815-.691l19.214,10.682a2.978,2.978,0,0,1,1.526,2.552.935.935,0,0,1-.979.938Z" transform="translate(-378.463 -161.821)" fill="#9b1122"/>
            </g>
            <g id="Group_78" data-name="Group 78" transform="translate(0 0.121)">
              <path id="Path_252" data-name="Path 252" d="M399.893,176.327a1.79,1.79,0,0,1-.838-.247L379.841,165.4a2.982,2.982,0,0,1-1.526-2.551c.079-.9.892-1.2,1.817-.691l19.214,10.682a2.977,2.977,0,0,1,1.526,2.552.937.937,0,0,1-.979.938Z" transform="translate(-378.315 -161.907)" fill="#a72d3c"/>
            </g>
            <g id="Group_79" data-name="Group 79" transform="translate(24.7 12.456)">
              <path id="Path_253" data-name="Path 253" d="M400.074,175.451c0,1.837-.932,2.779-2.082,2.088a5.792,5.792,0,0,1-2.084-4.586c0-1.837.932-2.779,2.084-2.09a5.8,5.8,0,0,1,2.082,4.587Z" transform="translate(-395.753 -170.638)" fill="#8a0919"/>
              <path id="Path_254" data-name="Path 254" d="M399.966,175.451c0,1.837-.932,2.779-2.084,2.088a5.792,5.792,0,0,1-2.082-4.586c0-1.837.932-2.779,2.082-2.09A5.793,5.793,0,0,1,399.966,175.451Z" transform="translate(-395.798 -170.638)" fill="#9b1122"/>
              <path id="Path_255" data-name="Path 255" d="M399.246,174.84c0,1.351-.684,2.036-1.527,1.53a4.253,4.253,0,0,1-1.526-3.361c0-1.351.684-2.036,1.526-1.53a4.248,4.248,0,0,1,1.527,3.361Z" transform="translate(-395.635 -170.36)" fill="#bf4252"/>
              <path id="Path_256" data-name="Path 256" d="M397.442,172.988c0,.657-.333.989-.743.745a2.068,2.068,0,0,1-.745-1.637c0-.657.333-.989.745-.745A2.071,2.071,0,0,1,397.442,172.988Z" transform="translate(-395.734 -170.377)" fill="#fff" opacity="0.08"/>
              <path id="Path_257" data-name="Path 257" d="M398.082,173.465c0,.373-.189.565-.424.424a1.174,1.174,0,0,1-.424-.928c0-.374.189-.565.424-.424A1.177,1.177,0,0,1,398.082,173.465Z" transform="translate(-395.205 -169.874)" fill="#fff" opacity="0.08"/>
            </g>
          </g>
          <g id="Group_81" data-name="Group 81" transform="translate(104.249 73.691)">
            <rect id="Rectangle_15" data-name="Rectangle 15" width="2.28" height="14.132" rx="0.396" transform="translate(0 16.247)" fill="#9b1122"/>
            <rect id="Rectangle_16" data-name="Rectangle 16" width="2.28" height="14.132" rx="0.396" fill="#9b1122"/>
          </g>
          <g id="Group_82" data-name="Group 82" transform="translate(6.731 13.579)" opacity="0.44">
            <path id="Path_258" data-name="Path 258" d="M361.417,153.21l15.156,8.725v-.319l-15.156-8.724a1.527,1.527,0,0,0-2.29,1.324v.319a1.529,1.529,0,0,1,2.29-1.325Z" transform="translate(-359.127 -152.687)" fill="#bcffff"/>
            <path id="Path_259" data-name="Path 259" d="M371.476,163.107a2.751,2.751,0,0,0,1.39,2.39l46.378,26.434a1.755,1.755,0,0,0,2.625-1.524v-.319a1.756,1.756,0,0,1-2.625,1.526l-46.378-26.433a2.752,2.752,0,0,1-1.39-2.39Z" transform="translate(-354.029 -148.518)" fill="#bcffff"/>
            <path id="Path_260" data-name="Path 260" d="M426.633,190.757l-19.488-11.218v.319l19.488,11.218a1.529,1.529,0,0,1,.766,1.324v-.318a1.53,1.53,0,0,0-.766-1.325Z" transform="translate(-339.305 -141.603)" fill="#bcffff"/>
          </g>
        </g>
        <path id="Path_261" data-name="Path 261" d="M446.333,283.733c0,42.43-21.474,63.954-47.959,48.075s-47.959-63.152-47.959-105.584,21.475-63.956,47.959-48.076S446.333,241.3,446.333,283.733Z" transform="translate(-347.451 -130.756)" fill="#fc6679"/>
        <path id="Path_262" data-name="Path 262" d="M389.308,178.143a32.755,32.755,0,0,0-16.928-5.21,33.243,33.243,0,0,1,16.247,5.21c26.487,15.883,47.96,63.152,47.96,105.585,0,32.881-12.9,53.192-31.032,53.285,18.491.424,31.714-19.991,31.714-53.285C437.267,241.3,415.794,194.026,389.308,178.143Z" transform="translate(-338.384 -130.751)" fill="#fff" opacity="0.5"/>
        <path id="Path_263" data-name="Path 263" d="M373.7,187.182Z" transform="translate(-337.839 -124.87)" fill="#006cff"/>
        <path id="Path_264" data-name="Path 264" d="M377.869,188.453A27.275,27.275,0,0,0,363.6,184.1a27.816,27.816,0,0,1,13.5,4.35c22.131,13.27,40.074,52.768,40.074,88.225,0,27.4-10.72,44.35-25.8,44.52,15.487.405,26.57-16.657,26.57-44.52C417.95,241.221,400.008,201.723,377.869,188.453Z" transform="translate(-342.008 -126.141)" fill="#fff" opacity="0.37"/>
        <path id="Path_266" data-name="Path 266" d="M365.954,200.887a20.627,20.627,0,0,0-10.746-3.285,21,21,0,0,1,10.216,3.285c16.713,10.022,30.263,39.851,30.263,66.627,0,20.71-8.111,33.516-19.518,33.625,11.687.292,20.048-12.591,20.048-33.625C396.217,240.737,382.667,210.909,365.954,200.887Z" transform="translate(-345.472 -120.568)" fill="#fff" opacity="0.31"/>
        <path id="Path_268" data-name="Path 268" d="M355.074,216.379a11.352,11.352,0,0,0-6.757-1.848,11.62,11.62,0,0,1,6.216,1.848c9.532,5.716,17.26,22.728,17.26,38,0,11.428-4.329,18.639-10.5,19.15,6.455-.131,11.042-7.4,11.042-19.15C372.336,239.106,364.608,222.095,355.074,216.379Z" transform="translate(-348.317 -113.585)" fill="#fff" opacity="0.25"/>
      </g>
      <g id="Group_118" data-name="Group 118" transform="translate(0 129.522)">
        <g id="Group_90" data-name="Group 90" transform="translate(97.351 0)">
          <rect id="Rectangle_18" data-name="Rectangle 18" width="127.034" height="127.034" rx="12" fill="#fc6679"/>
        </g>
        <g id="Group_117" data-name="Group 117" transform="translate(0 10.671)">
          <path id="Path_286" data-name="Path 286" d="M202.215,257.146l-60.552,6.167c-.023.5-.076-.509-.076,0V319.4a33.24,33.24,0,0,0,33.141,33.143h53.545l6.278-63.07a32.426,32.426,0,0,0-32.336-32.328Z" transform="translate(-44.23 -236.182)" fill="#bf4252"/>
          <g id="Group_92" data-name="Group 92" transform="translate(137.332)">
            <path id="Path_287" data-name="Path 287" d="M236.891,271.224h-2.852a28.987,28.987,0,0,0-3.464-8.357l2.019-2.019a4.546,4.546,0,0,0,0-6.43l-3.271-3.269a4.544,4.544,0,0,0-6.428,0l-2.019,2.025a29.031,29.031,0,0,0-8.357-3.466v-2.851a4.545,4.545,0,0,0-4.545-4.546h-4.626a4.545,4.545,0,0,0-4.545,4.546v2.851a29.027,29.027,0,0,0-8.357,3.466l-2.02-2.019a4.544,4.544,0,0,0-6.428,0l-3.271,3.269a4.548,4.548,0,0,0,0,6.43l2.02,2.019a29.027,29.027,0,0,0-3.466,8.357h-2.854a4.545,4.545,0,0,0-4.546,4.549V280.4a4.545,4.545,0,0,0,4.546,4.545h2.851a29.027,29.027,0,0,0,3.466,8.357l-2.02,2.019a4.546,4.546,0,0,0,0,6.428L182,305.024a4.544,4.544,0,0,0,6.428,0l2.02-2.019a28.985,28.985,0,0,0,8.357,3.464v2.852a4.545,4.545,0,0,0,4.545,4.546h4.625a4.545,4.545,0,0,0,4.545-4.546v-2.857A28.986,28.986,0,0,0,220.873,303l2.015,2.023a4.544,4.544,0,0,0,6.428,0l3.271-3.271a4.543,4.543,0,0,0,0-6.428l-2.019-2.019a28.984,28.984,0,0,0,3.464-8.357h2.852a4.545,4.545,0,0,0,4.546-4.545v-4.626a4.545,4.545,0,0,0-4.544-4.551Zm-31.223,24.159h-.01Z" transform="translate(-169.882 -242.305)" fill="#dff1ff"/>
            <path id="Path_288" data-name="Path 288" d="M205.661,288.3A17.3,17.3,0,0,1,192.24,260.07a30.655,30.655,0,0,0-4.285-.584l-9.3.4a29.155,29.155,0,0,0-1.382,4.248h-2.848a4.545,4.545,0,0,0-4.546,4.545V273.3a4.545,4.545,0,0,0,4.546,4.545h2.851a29.029,29.029,0,0,0,3.466,8.357l-2.02,2.019a4.547,4.547,0,0,0,0,6.428L182,297.924a4.544,4.544,0,0,0,6.428,0l2.02-2.019a28.987,28.987,0,0,0,8.357,3.464v2.852a4.545,4.545,0,0,0,4.545,4.546h4.624a4.546,4.546,0,0,0,4.546-4.546v-2.852a28.963,28.963,0,0,0,6.358-2.349l.233-6.455a31.383,31.383,0,0,0-1.344-7.221A17.236,17.236,0,0,1,205.661,288.3Z" transform="translate(-169.882 -235.216)" fill="#ff9fac"/>
            <g id="Group_91" data-name="Group 91" transform="translate(0)">
              <path id="Path_289" data-name="Path 289" d="M217.567,267.876c0-.048-.007-.1-.007-.141a17.3,17.3,0,1,1-34.594,0c0,.048-.007.1-.007.141a17.307,17.307,0,1,0,34.613,0Z" transform="translate(-164.484 -231.81)" fill="#fff"/>
              <path id="Path_290" data-name="Path 290" d="M200.061,247.832a29.028,29.028,0,0,1,8.357,3.466l2.019-2.02a4.546,4.546,0,0,1,6.428,0l3.271,3.271a4.521,4.521,0,0,1,1.318,3.069,4.521,4.521,0,0,0-1.318-3.36l-3.271-3.269a4.544,4.544,0,0,0-6.428,0l-2.019,2.025a29.031,29.031,0,0,0-8.357-3.466Z" transform="translate(-157.424 -240.144)" fill="#fff"/>
              <path id="Path_291" data-name="Path 291" d="M178.549,278.654c-.037-.059-.068-.124-.1-.185l-1.916,1.914a4.521,4.521,0,0,0-1.317,3.36,4.521,4.521,0,0,1,1.317-3.069Z" transform="translate(-167.683 -227.38)" fill="#fff"/>
              <path id="Path_292" data-name="Path 292" d="M194.9,242.6h4.624a4.545,4.545,0,0,1,4.546,4.545v-.291a4.545,4.545,0,0,0-4.546-4.545H194.9a4.545,4.545,0,0,0-4.545,4.545v.291A4.545,4.545,0,0,1,194.9,242.6Z" transform="translate(-161.432 -242.307)" fill="#fff"/>
              <path id="Path_293" data-name="Path 293" d="M212.946,278.473c-.037.061-.068.126-.1.185l2.019,2.02a4.521,4.521,0,0,1,1.318,3.069,4.521,4.521,0,0,0-1.318-3.36Z" transform="translate(-152.149 -227.378)" fill="#fff"/>
              <path id="Path_294" data-name="Path 294" d="M219.158,265.163h-2.852a28.962,28.962,0,0,0-3.36-8.17l-.1.1a28.961,28.961,0,0,1,3.464,8.355h2.852A4.546,4.546,0,0,1,223.7,270v-.291a4.545,4.545,0,0,0-4.546-4.545Z" transform="translate(-152.149 -236.245)" fill="#fff"/>
              <path id="Path_295" data-name="Path 295" d="M176.529,252.55l3.271-3.271a4.546,4.546,0,0,1,6.428,0l2.02,2.02a29.028,29.028,0,0,1,8.357-3.466v-.291a29.027,29.027,0,0,0-8.357,3.471L186.227,249a4.544,4.544,0,0,0-6.428,0l-3.271,3.269a4.521,4.521,0,0,0-1.317,3.36A4.521,4.521,0,0,1,176.529,252.55Z" transform="translate(-167.683 -240.146)" fill="#fff"/>
              <path id="Path_296" data-name="Path 296" d="M174.428,265.453h2.851a29,29,0,0,1,3.466-8.355l-.1-.1a29.012,29.012,0,0,0-3.361,8.17h-2.851a4.545,4.545,0,0,0-4.546,4.545V270a4.546,4.546,0,0,1,4.546-4.546Z" transform="translate(-169.882 -236.245)" fill="#fff"/>
            </g>
          </g>
          <g id="Group_95" data-name="Group 95" transform="translate(18.896 97.993)">
            <path id="Path_297" data-name="Path 297" d="M175.689,350.354h-3.815a38.784,38.784,0,0,0-4.635-11.179l2.7-2.7a6.075,6.075,0,0,0,0-8.6l-4.38-4.38a6.083,6.083,0,0,0-8.6,0l-2.7,2.7a38.8,38.8,0,0,0-11.179-4.635v-3.815A6.075,6.075,0,0,0,137,311.67h-6.188a6.075,6.075,0,0,0-6.075,6.075v3.815a38.8,38.8,0,0,0-11.179,4.635l-2.7-2.7a6.084,6.084,0,0,0-8.6,0l-4.38,4.38a6.075,6.075,0,0,0,0,8.6l2.7,2.7a38.783,38.783,0,0,0-4.635,11.179H92.133a6.075,6.075,0,0,0-6.075,6.075v6.187a6.075,6.075,0,0,0,6.075,6.075h3.815a38.791,38.791,0,0,0,4.635,11.178l-2.7,2.7a6.075,6.075,0,0,0,0,8.6l4.38,4.38a6.075,6.075,0,0,0,8.6,0l2.7-2.7a38.759,38.759,0,0,0,11.179,4.635V401.3a6.075,6.075,0,0,0,6.075,6.075H137a6.075,6.075,0,0,0,6.075-6.075v-3.815a38.76,38.76,0,0,0,11.179-4.635l2.7,2.7a6.075,6.075,0,0,0,8.6,0l4.38-4.38a6.075,6.075,0,0,0,0-8.6l-2.7-2.7a38.792,38.792,0,0,0,4.635-11.178h3.815a6.075,6.075,0,0,0,6.075-6.075v-6.187A6.075,6.075,0,0,0,175.689,350.354Zm-41.781,32.325a23.15,23.15,0,1,1,23.15-23.15A23.15,23.15,0,0,1,133.908,382.679Z" transform="translate(-86.048 -311.667)" fill="#fc6679"/>
            <g id="Group_94" data-name="Group 94">
              <g id="Group_93" data-name="Group 93">
                <path id="Path_298" data-name="Path 298" d="M149.839,345.877c0-.066-.01-.13-.01-.195a23.141,23.141,0,0,1-46.282,0c0,.065-.008.129-.008.195a23.15,23.15,0,1,0,46.3,0Z" transform="translate(-78.832 -297.627)" fill="#bf4252"/>
                <path id="Path_299" data-name="Path 299" d="M126.419,319.061A38.8,38.8,0,0,1,137.6,323.7l2.7-2.7a6.075,6.075,0,0,1,8.6,0l4.38,4.38a6.045,6.045,0,0,1,1.763,4.106,6.05,6.05,0,0,0-1.763-4.494l-4.38-4.38a6.075,6.075,0,0,0-8.6,0l-2.7,2.7a38.8,38.8,0,0,0-11.179-4.635Z" transform="translate(-69.387 -308.776)" fill="#bf4252"/>
                <path id="Path_300" data-name="Path 300" d="M97.64,360.3c-.049-.082-.09-.168-.141-.25l-2.561,2.563a6.048,6.048,0,0,0-1.763,4.494A6.048,6.048,0,0,1,94.937,363Z" transform="translate(-83.112 -291.696)" fill="#bf4252"/>
                <path id="Path_301" data-name="Path 301" d="M119.51,312.057H125.7a6.075,6.075,0,0,1,6.075,6.075v-.389a6.075,6.075,0,0,0-6.075-6.075H119.51a6.075,6.075,0,0,0-6.075,6.075v.389A6.075,6.075,0,0,1,119.51,312.057Z" transform="translate(-74.747 -311.668)" fill="#bf4252"/>
                <path id="Path_302" data-name="Path 302" d="M143.656,360.05c-.049.082-.09.168-.141.25l2.7,2.7a6.043,6.043,0,0,1,1.763,4.106,6.048,6.048,0,0,0-1.763-4.494Z" transform="translate(-62.33 -291.696)" fill="#bf4252"/>
                <path id="Path_303" data-name="Path 303" d="M151.969,342.245h-3.815a38.773,38.773,0,0,0-4.5-10.931l-.141.141a38.8,38.8,0,0,1,4.635,11.179h3.815a6.075,6.075,0,0,1,6.075,6.075v-.388a6.075,6.075,0,0,0-6.075-6.075Z" transform="translate(-62.329 -303.558)" fill="#bf4252"/>
                <path id="Path_304" data-name="Path 304" d="M94.938,325.371l4.38-4.38a6.075,6.075,0,0,1,8.6,0l2.7,2.7a38.8,38.8,0,0,1,11.179-4.635v-.389a38.8,38.8,0,0,0-11.179,4.635l-2.7-2.7a6.075,6.075,0,0,0-8.6,0l-4.38,4.38a6.049,6.049,0,0,0-1.763,4.494A6.051,6.051,0,0,1,94.938,325.371Z" transform="translate(-83.112 -308.778)" fill="#bf4252"/>
                <path id="Path_305" data-name="Path 305" d="M92.127,342.634h3.815a38.8,38.8,0,0,1,4.635-11.18l-.141-.141a38.774,38.774,0,0,0-4.5,10.931H92.126a6.075,6.075,0,0,0-6.075,6.075v.389a6.075,6.075,0,0,1,6.075-6.075Z" transform="translate(-86.051 -303.559)" fill="#bf4252"/>
              </g>
            </g>
          </g>
          <g id="Group_98" data-name="Group 98" transform="translate(0 52.032)">
            <path id="Path_306" data-name="Path 306" d="M117.5,298.479h-1.907a19.4,19.4,0,0,0-2.317-5.589l1.351-1.351a3.042,3.042,0,0,0,0-4.3l-2.188-2.187a3.04,3.04,0,0,0-4.3,0l-1.351,1.351a19.4,19.4,0,0,0-5.59-2.317v-1.909a3.039,3.039,0,0,0-3.04-3.04H95.06a3.04,3.04,0,0,0-3.042,3.04v1.909A19.4,19.4,0,0,0,86.43,286.4l-1.351-1.351a3.042,3.042,0,0,0-4.3,0l-2.187,2.187a3.04,3.04,0,0,0,0,4.3l1.351,1.351a19.4,19.4,0,0,0-2.318,5.589H75.716a3.04,3.04,0,0,0-3.04,3.042v3.093a3.039,3.039,0,0,0,3.04,3.04h1.907a19.4,19.4,0,0,0,2.318,5.59l-1.351,1.351a3.04,3.04,0,0,0,0,4.3l2.187,2.187a3.042,3.042,0,0,0,4.3,0l1.351-1.351a19.442,19.442,0,0,0,5.589,2.318v1.907A3.04,3.04,0,0,0,95.06,327h3.093a3.039,3.039,0,0,0,3.04-3.04V322.05a19.437,19.437,0,0,0,5.59-2.318l1.351,1.351a3.04,3.04,0,0,0,4.3,0l2.188-2.187a3.042,3.042,0,0,0,0-4.3l-1.351-1.351a19.394,19.394,0,0,0,2.317-5.59H117.5a3.04,3.04,0,0,0,3.04-3.04V301.52a3.042,3.042,0,0,0-3.04-3.042ZM96.6,314.641a11.575,11.575,0,1,1,11.575-11.575A11.575,11.575,0,0,1,96.6,314.641Z" transform="translate(-72.676 -279.136)" fill="#fc6679"/>
            <g id="Group_97" data-name="Group 97">
              <g id="Group_96" data-name="Group 96">
                <path id="Path_307" data-name="Path 307" d="M104.569,296.241v-.1a11.571,11.571,0,1,1-23.142,0v.1a11.575,11.575,0,0,0,23.15,0Z" transform="translate(-69.064 -272.116)" fill="#bf4252"/>
                <path id="Path_308" data-name="Path 308" d="M92.861,282.833a19.433,19.433,0,0,1,5.59,2.317L99.8,283.8a3.04,3.04,0,0,1,4.3,0l2.188,2.188a3.021,3.021,0,0,1,.882,2.053,3.025,3.025,0,0,0-.882-2.248l-2.188-2.187a3.04,3.04,0,0,0-4.3,0l-1.351,1.351a19.4,19.4,0,0,0-5.59-2.317Z" transform="translate(-64.344 -277.69)" fill="#bf4252"/>
                <path id="Path_309" data-name="Path 309" d="M78.472,303.451c-.025-.04-.045-.083-.069-.124l-1.281,1.281a3.025,3.025,0,0,0-.882,2.248,3.025,3.025,0,0,1,.882-2.054Z" transform="translate(-71.206 -269.15)" fill="#bf4252"/>
                <path id="Path_310" data-name="Path 310" d="M89.409,279.33H92.5a3.04,3.04,0,0,1,3.04,3.042v-.195a3.039,3.039,0,0,0-3.04-3.04H89.409a3.04,3.04,0,0,0-3.042,3.04v.195A3.042,3.042,0,0,1,89.409,279.33Z" transform="translate(-67.024 -279.136)" fill="#bf4252"/>
                <path id="Path_311" data-name="Path 311" d="M101.479,303.327c-.024.041-.045.085-.069.124l1.351,1.351a3.025,3.025,0,0,1,.882,2.054,3.025,3.025,0,0,0-.882-2.248Z" transform="translate(-60.815 -269.15)" fill="#bf4252"/>
                <path id="Path_312" data-name="Path 312" d="M105.634,294.424h-1.907a19.367,19.367,0,0,0-2.248-5.465l-.069.071a19.386,19.386,0,0,1,2.317,5.589h1.907a3.042,3.042,0,0,1,3.04,3.04v-.194a3.042,3.042,0,0,0-3.04-3.042Z" transform="translate(-60.815 -275.081)" fill="#bf4252"/>
                <path id="Path_313" data-name="Path 313" d="M77.121,285.987l2.187-2.188a3.042,3.042,0,0,1,4.3,0l1.351,1.351a19.442,19.442,0,0,1,5.589-2.317v-.194a19.4,19.4,0,0,0-5.589,2.317l-1.351-1.351a3.042,3.042,0,0,0-4.3,0l-2.187,2.187a3.025,3.025,0,0,0-.882,2.248,3.021,3.021,0,0,1,.882-2.053Z" transform="translate(-71.206 -277.69)" fill="#bf4252"/>
                <path id="Path_314" data-name="Path 314" d="M75.716,294.619h1.907a19.389,19.389,0,0,1,2.318-5.589l-.069-.071a19.412,19.412,0,0,0-2.249,5.465H75.716a3.04,3.04,0,0,0-3.04,3.042v.194a3.04,3.04,0,0,1,3.04-3.04Z" transform="translate(-72.676 -275.081)" fill="#bf4252"/>
              </g>
            </g>
          </g>
          <g id="Group_101" data-name="Group 101" transform="translate(174.626 152.463)">
            <path id="Path_315" data-name="Path 315" d="M230.035,364.793H228.6a14.678,14.678,0,0,0-1.746-4.21l1.017-1.017a2.292,2.292,0,0,0,0-3.24l-1.647-1.647a2.291,2.291,0,0,0-3.24,0l-1.017,1.017a14.618,14.618,0,0,0-4.21-1.745v-1.438a2.29,2.29,0,0,0-2.29-2.29h-2.331a2.29,2.29,0,0,0-2.29,2.29v1.438a14.653,14.653,0,0,0-4.21,1.745l-1.017-1.017a2.29,2.29,0,0,0-3.238,0l-1.649,1.647a2.292,2.292,0,0,0,0,3.24l1.017,1.017a14.639,14.639,0,0,0-1.745,4.21h-1.433a2.29,2.29,0,0,0-2.29,2.29v2.331a2.29,2.29,0,0,0,2.29,2.29h1.437a14.654,14.654,0,0,0,1.745,4.21l-1.017,1.017a2.292,2.292,0,0,0,0,3.24l1.649,1.647a2.29,2.29,0,0,0,3.238,0l1.017-1.017a14.649,14.649,0,0,0,4.21,1.745v1.438a2.29,2.29,0,0,0,2.29,2.29h2.331a2.29,2.29,0,0,0,2.29-2.29v-1.441a14.618,14.618,0,0,0,4.21-1.745l1.017,1.017a2.292,2.292,0,0,0,3.24,0l1.647-1.647a2.291,2.291,0,0,0,0-3.24l-1.017-1.017a14.693,14.693,0,0,0,1.746-4.21h1.437a2.29,2.29,0,0,0,2.3-2.3v-2.331a2.29,2.29,0,0,0-2.294-2.287ZM214.3,376.967a8.718,8.718,0,1,1,8.718-8.718A8.718,8.718,0,0,1,214.3,376.967Z" transform="translate(-196.279 -350.223)" fill="#fc6679"/>
            <g id="Group_100" data-name="Group 100" transform="translate(0 0.006)">
              <g id="Group_99" data-name="Group 99">
                <path id="Path_316" data-name="Path 316" d="M220.3,363.107v-.073a8.716,8.716,0,0,1-17.431,0c0,.024,0,.048,0,.073a8.718,8.718,0,1,0,17.437,0Z" transform="translate(-193.559 -344.94)" fill="#bf4252"/>
                <path id="Path_317" data-name="Path 317" d="M211.48,353.006a14.582,14.582,0,0,1,4.21,1.746l1.017-1.017a2.292,2.292,0,0,1,3.24,0l1.647,1.647a2.28,2.28,0,0,1,.664,1.554,2.276,2.276,0,0,0-.664-1.7l-1.647-1.647a2.292,2.292,0,0,0-3.24,0l-1.017,1.017a14.62,14.62,0,0,0-4.21-1.745Z" transform="translate(-190.004 -349.138)" fill="#bf4252"/>
                <path id="Path_318" data-name="Path 318" d="M200.641,368.538c-.018-.03-.034-.062-.052-.093l-.965.965a2.287,2.287,0,0,0-.664,1.7,2.279,2.279,0,0,1,.664-1.546Z" transform="translate(-195.173 -342.707)" fill="#bf4252"/>
                <path id="Path_319" data-name="Path 319" d="M208.878,350.368h2.331a2.29,2.29,0,0,1,2.29,2.29v-.141a2.29,2.29,0,0,0-2.29-2.29h-2.331a2.29,2.29,0,0,0-2.29,2.29v.141A2.29,2.29,0,0,1,208.878,350.368Z" transform="translate(-192.023 -350.227)" fill="#bf4252"/>
                <path id="Path_320" data-name="Path 320" d="M217.971,368.445c-.018.031-.034.064-.052.093l1.017,1.019a2.279,2.279,0,0,1,.664,1.546,2.276,2.276,0,0,0-.664-1.7Z" transform="translate(-187.346 -342.707)" fill="#bf4252"/>
                <path id="Path_321" data-name="Path 321" d="M221.1,361.739h-1.437a14.659,14.659,0,0,0-1.7-4.117l-.052.054a14.662,14.662,0,0,1,1.746,4.21H221.1a2.29,2.29,0,0,1,2.29,2.29v-.141a2.29,2.29,0,0,0-2.289-2.3Z" transform="translate(-187.347 -347.174)" fill="#bf4252"/>
                <path id="Path_322" data-name="Path 322" d="M199.623,355.383l1.649-1.647a2.29,2.29,0,0,1,3.238,0l1.017,1.017a14.616,14.616,0,0,1,4.21-1.746v-.141a14.655,14.655,0,0,0-4.21,1.745l-1.017-1.017a2.29,2.29,0,0,0-3.238,0l-1.649,1.647a2.287,2.287,0,0,0-.664,1.7,2.281,2.281,0,0,1,.664-1.554Z" transform="translate(-195.173 -349.138)" fill="#bf4252"/>
                <path id="Path_323" data-name="Path 323" d="M198.569,361.886h1.437a14.619,14.619,0,0,1,1.745-4.21l-.052-.054a14.613,14.613,0,0,0-1.7,4.117h-1.434a2.29,2.29,0,0,0-2.29,2.29v.141A2.29,2.29,0,0,1,198.569,361.886Z" transform="translate(-196.279 -347.174)" fill="#bf4252"/>
              </g>
            </g>
          </g>
          <g id="Group_103" data-name="Group 103" transform="translate(194.401 71.24)">
            <path id="Path_324" data-name="Path 324" d="M235.374,303.551H234.3a10.877,10.877,0,0,0-1.3-3.129l.756-.757a1.7,1.7,0,0,0,0-2.4l-1.225-1.225a1.7,1.7,0,0,0-2.4,0l-.757.756a10.879,10.879,0,0,0-3.131-1.3v-1.068a1.7,1.7,0,0,0-1.7-1.7h-1.732a1.7,1.7,0,0,0-1.7,1.7V295.5a10.879,10.879,0,0,0-3.131,1.3l-.757-.756a1.7,1.7,0,0,0-2.4,0l-1.225,1.225a1.7,1.7,0,0,0,0,2.4l.756.757a10.878,10.878,0,0,0-1.3,3.129h-1.068a1.7,1.7,0,0,0-1.7,1.7v1.732a1.7,1.7,0,0,0,1.7,1.7h1.068a10.878,10.878,0,0,0,1.3,3.131l-.756.757a1.7,1.7,0,0,0,0,2.4l1.225,1.225a1.7,1.7,0,0,0,2.4,0l.757-.756a10.872,10.872,0,0,0,3.131,1.3v1.069a1.7,1.7,0,0,0,1.7,1.7h1.732a1.7,1.7,0,0,0,1.7-1.7v-1.069a10.87,10.87,0,0,0,3.131-1.3l.757.756a1.7,1.7,0,0,0,2.4,0l1.225-1.225a1.7,1.7,0,0,0,0-2.4l-.756-.757a10.868,10.868,0,0,0,1.3-3.131h1.069a1.7,1.7,0,0,0,1.7-1.7v-1.726a1.7,1.7,0,0,0-1.7-1.709Zm-11.7,9.052a6.482,6.482,0,1,1,6.482-6.482,6.482,6.482,0,0,1-6.482,6.482Z" transform="translate(-210.273 -292.732)" fill="#ff9fac"/>
            <path id="Path_325" data-name="Path 325" d="M234.134,303.488h-1.016a10.339,10.339,0,0,0-1.233-2.974l.719-.721a1.619,1.619,0,0,0,0-2.289l-1.164-1.164a1.619,1.619,0,0,0-2.289,0l-.719.719a10.348,10.348,0,0,0-2.975-1.233v-1.016a1.619,1.619,0,0,0-1.619-1.619H222.19a1.619,1.619,0,0,0-1.618,1.619v1.016a10.331,10.331,0,0,0-2.975,1.233l-.719-.719a1.619,1.619,0,0,0-2.289,0l-1.164,1.164a1.616,1.616,0,0,0,0,2.289l.719.721a10.3,10.3,0,0,0-1.235,2.967h-1.016a1.619,1.619,0,0,0-1.618,1.619v1.647a1.618,1.618,0,0,0,1.618,1.618h1.016a10.3,10.3,0,0,0,1.235,2.975l-.719.719a1.616,1.616,0,0,0,0,2.289l1.164,1.166a1.619,1.619,0,0,0,2.289,0l.719-.721a10.3,10.3,0,0,0,2.975,1.235v1.016a1.618,1.618,0,0,0,1.618,1.618h1.647a1.619,1.619,0,0,0,1.619-1.618v-1.016a10.314,10.314,0,0,0,2.975-1.235l.719.721a1.619,1.619,0,0,0,2.289,0l1.164-1.166a1.619,1.619,0,0,0,0-2.289l-.719-.719a10.334,10.334,0,0,0,1.233-2.975h1.016a1.619,1.619,0,0,0,1.619-1.618V305.1a1.619,1.619,0,0,0-1.619-1.612Zm-11.12,8.6a6.161,6.161,0,1,1,6.161-6.161,6.161,6.161,0,0,1-6.161,6.161Z" transform="translate(-210.276 -292.542)" fill="#dff1ff"/>
            <g id="Group_102" data-name="Group 102" transform="translate(0 0.65)">
              <path id="Path_326" data-name="Path 326" d="M227.252,302.3v-.052a6.158,6.158,0,1,1-12.317,0v.052a6.161,6.161,0,1,0,12.322,0Z" transform="translate(-208.353 -289.455)" fill="#fff"/>
              <path id="Path_327" data-name="Path 327" d="M221.021,295.16A10.348,10.348,0,0,1,224,296.393l.719-.719a1.619,1.619,0,0,1,2.289,0l1.164,1.166a1.608,1.608,0,0,1,.469,1.092,1.611,1.611,0,0,0-.469-1.2L227,295.571a1.619,1.619,0,0,0-2.289,0l-.719.719a10.35,10.35,0,0,0-2.975-1.233Z" transform="translate(-205.84 -292.422)" fill="#fff"/>
              <path id="Path_328" data-name="Path 328" d="M213.361,306.135c-.014-.021-.024-.044-.038-.065l-.681.681a1.609,1.609,0,0,0-.469,1.2,1.6,1.6,0,0,1,.469-1.092Z" transform="translate(-209.493 -287.876)" fill="#fff"/>
              <path id="Path_329" data-name="Path 329" d="M219.182,293.3h1.647a1.619,1.619,0,0,1,1.619,1.618v-.1a1.619,1.619,0,0,0-1.619-1.619h-1.647a1.619,1.619,0,0,0-1.618,1.619v.1a1.618,1.618,0,0,1,1.618-1.618Z" transform="translate(-207.268 -293.192)" fill="#fff"/>
              <path id="Path_330" data-name="Path 330" d="M225.611,306.07l-.037.065.719.721a1.608,1.608,0,0,1,.469,1.092,1.611,1.611,0,0,0-.469-1.2Z" transform="translate(-203.961 -287.876)" fill="#fff"/>
              <path id="Path_331" data-name="Path 331" d="M227.82,301.33H226.8a10.288,10.288,0,0,0-1.2-2.909l-.037.038a10.334,10.334,0,0,1,1.233,2.975h1.016a1.619,1.619,0,0,1,1.619,1.618v-.1A1.619,1.619,0,0,0,227.82,301.33Z" transform="translate(-203.962 -291.033)" fill="#fff"/>
              <path id="Path_332" data-name="Path 332" d="M212.642,296.84l1.164-1.166a1.619,1.619,0,0,1,2.289,0l.719.719a10.329,10.329,0,0,1,2.975-1.233v-.1a10.332,10.332,0,0,0-2.975,1.233l-.719-.719a1.619,1.619,0,0,0-2.289,0l-1.164,1.164a1.61,1.61,0,0,0-.469,1.2,1.6,1.6,0,0,1,.469-1.092Z" transform="translate(-209.493 -292.422)" fill="#fff"/>
              <path id="Path_333" data-name="Path 333" d="M211.894,301.434h1.016a10.3,10.3,0,0,1,1.235-2.975l-.038-.038a10.371,10.371,0,0,0-1.2,2.909h-1.016a1.619,1.619,0,0,0-1.618,1.619v.1A1.618,1.618,0,0,1,211.894,301.434Z" transform="translate(-210.276 -291.033)" fill="#fff"/>
            </g>
          </g>
          <path id="Path_334" data-name="Path 334" d="M235.615,291.282a4.568,4.568,0,0,1-.407-.325,9.607,9.607,0,0,1-.887-1.041c-.107-.141-.237-.254-.336-.4a9.427,9.427,0,0,1-.694-1.243c-.072-.141-.17-.274-.235-.424a9.812,9.812,0,0,1-.439-1.37c-.044-.165-.116-.318-.151-.486a9.9,9.9,0,0,1-.155-1.413c-.014-.219-.065-.424-.065-.651a10.275,10.275,0,0,1,3.37-7.547v-8.1a17.394,17.394,0,0,0-2.157,1.163l-1.171-1.139a2.542,2.542,0,0,0-.873-.555,2.684,2.684,0,0,0-2.857.66l-1.9,1.951a2.728,2.728,0,0,0-.585.918c-.023.058-.017.122-.035.181a2.651,2.651,0,0,0-.141.848h0a2.554,2.554,0,0,0,.76,1.78l1.171,1.139c-.021.035-.035.076-.057.113h0c-.182.307-.314.64-.476.956-.227.444-.478.874-.665,1.338a16.935,16.935,0,0,0-.808,2.5l-1.654.047a2.73,2.73,0,0,0-2.638,2.711v2.684a2.543,2.543,0,0,0,2.638,2.563l1.654-.048a16.323,16.323,0,0,0,2.009,4.791l-.059.062-1.112,1.143a2.728,2.728,0,0,0-.585.918c-.023.058-.017.12-.035.181a2.651,2.651,0,0,0-.141.848c0,.009,0,.016,0,.023v-.02a2.543,2.543,0,0,0,.76,1.779l1.9,1.837a2.639,2.639,0,0,0,3.73-.1l1.171-1.205a16.3,16.3,0,0,0,2.157,1.04Z" transform="translate(-11.229 -231.871)" fill="#bf4252"/>
          <g id="Group_105" data-name="Group 105" transform="translate(210.303 33.739)">
            <path id="Path_335" data-name="Path 335" d="M256.268,281.181h-1.478a15.047,15.047,0,0,0-1.8-4.333l1.047-1.047a2.355,2.355,0,0,0,0-3.333l-1.7-1.7a2.355,2.355,0,0,0-3.333,0l-1.047,1.047a15.059,15.059,0,0,0-4.332-1.8v-1.478a2.357,2.357,0,0,0-2.358-2.357h-2.4a2.357,2.357,0,0,0-2.357,2.357v1.475a15.043,15.043,0,0,0-4.332,1.8l-1.047-1.047a2.355,2.355,0,0,0-3.333,0l-1.7,1.7a2.358,2.358,0,0,0,0,3.333l1.047,1.047a15.084,15.084,0,0,0-1.8,4.333h-1.474a2.357,2.357,0,0,0-2.357,2.357v2.4a2.356,2.356,0,0,0,2.357,2.357h1.479a15.085,15.085,0,0,0,1.8,4.333l-1.047,1.047a2.358,2.358,0,0,0,0,3.333l1.7,1.7a2.358,2.358,0,0,0,3.333,0l1.047-1.047a15,15,0,0,0,4.332,1.8v1.479a2.356,2.356,0,0,0,2.357,2.357h2.4a2.357,2.357,0,0,0,2.358-2.357v-1.479a15.012,15.012,0,0,0,4.332-1.8l1.047,1.047a2.358,2.358,0,0,0,3.333,0l1.7-1.7a2.355,2.355,0,0,0,0-3.333L253,292.626a15.049,15.049,0,0,0,1.8-4.333h1.478a2.357,2.357,0,0,0,2.358-2.357v-2.4a2.357,2.357,0,0,0-2.364-2.357Zm-16.191,12.527a8.951,8.951,0,1,1,0,.005Z" transform="translate(-221.532 -266.188)" fill="#ff9fac"/>
            <g id="Group_104" data-name="Group 104" transform="translate(0 0.008)">
              <path id="Path_336" data-name="Path 336" d="M246.252,279.45v-.075a8.971,8.971,0,1,1-17.942,0c0,.024,0,.049,0,.075a8.971,8.971,0,1,0,17.943,0Z" transform="translate(-218.734 -260.753)" fill="#bf4252"/>
              <path id="Path_337" data-name="Path 337" d="M237.176,269.058a15.056,15.056,0,0,1,4.332,1.8l1.047-1.047a2.355,2.355,0,0,1,3.333,0l1.7,1.7a2.343,2.343,0,0,1,.684,1.591,2.341,2.341,0,0,0-.684-1.742l-1.7-1.7a2.355,2.355,0,0,0-3.333,0l-1.047,1.047a15.058,15.058,0,0,0-4.332-1.8Z" transform="translate(-215.074 -265.074)" fill="#bf4252"/>
              <path id="Path_338" data-name="Path 338" d="M226.021,285.039c-.018-.031-.034-.065-.054-.1l-.989.989a2.344,2.344,0,0,0-.682,1.741,2.344,2.344,0,0,1,.682-1.591Z" transform="translate(-220.392 -258.454)" fill="#bf4252"/>
              <path id="Path_339" data-name="Path 339" d="M234.5,266.344h2.4a2.357,2.357,0,0,1,2.358,2.357v-.15a2.357,2.357,0,0,0-2.358-2.357h-2.4a2.357,2.357,0,0,0-2.357,2.357v.15A2.357,2.357,0,0,1,234.5,266.344Z" transform="translate(-217.152 -266.194)" fill="#bf4252"/>
              <path id="Path_340" data-name="Path 340" d="M243.855,284.943c-.018.031-.034.065-.054.1l1.047,1.047a2.345,2.345,0,0,1,.684,1.591,2.34,2.34,0,0,0-.684-1.741Z" transform="translate(-212.339 -258.454)" fill="#bf4252"/>
              <path id="Path_341" data-name="Path 341" d="M247.076,278.038H245.6a15.048,15.048,0,0,0-1.743-4.238l-.054.055a15.039,15.039,0,0,1,1.8,4.332h1.478a2.357,2.357,0,0,1,2.358,2.357v-.15A2.357,2.357,0,0,0,247.076,278.038Z" transform="translate(-212.339 -263.054)" fill="#bf4252"/>
              <path id="Path_342" data-name="Path 342" d="M224.975,271.5l1.7-1.7a2.355,2.355,0,0,1,3.333,0l1.047,1.047a15.04,15.04,0,0,1,4.332-1.8v-.151a15.044,15.044,0,0,0-4.332,1.8L230,269.657a2.355,2.355,0,0,0-3.333,0l-1.7,1.7a2.345,2.345,0,0,0-.682,1.742A2.341,2.341,0,0,1,224.975,271.5Z" transform="translate(-220.393 -265.074)" fill="#bf4252"/>
              <path id="Path_343" data-name="Path 343" d="M223.889,278.193h1.479a15.076,15.076,0,0,1,1.8-4.332l-.054-.055a15.006,15.006,0,0,0-1.742,4.238h-1.479a2.357,2.357,0,0,0-2.357,2.357v.15a2.357,2.357,0,0,1,2.357-2.358Z" transform="translate(-221.532 -263.052)" fill="#bf4252"/>
            </g>
          </g>
          <path id="Rectangle_19" data-name="Rectangle 19" d="M16.954,0h93.127a16.954,16.954,0,0,1,16.954,16.954v93.127a16.954,16.954,0,0,1-16.954,16.954H16.954A16.954,16.954,0,0,1,0,110.081V16.954A16.954,16.954,0,0,1,16.954,0Z" transform="translate(56.998 27.243)" fill="#fc6679"/>
          <path id="Path_344" data-name="Path 344" d="M223.1,261.59H129.974a17,17,0,0,0-16.954,16.954v.332a17,17,0,0,1,16.954-16.954H223.1a17,17,0,0,1,16.954,16.954v-.332A17,17,0,0,0,223.1,261.59Z" transform="translate(-56.022 -234.347)" fill="#bf4252"/>
          <g id="Group_106" data-name="Group 106" transform="translate(88.165 46.058)">
            <path id="Path_345" data-name="Path 345" d="M176.747,332.6a28.348,28.348,0,0,1-29.7-2.282,1.978,1.978,0,0,0-2.325,3.186,32.288,32.288,0,0,0,33.845,2.6,1.978,1.978,0,1,0-1.815-3.5Z" transform="translate(-131.389 -252.156)" fill="#ff9fac"/>
            <path id="Path_346" data-name="Path 346" d="M138.2,291.8a1.978,1.978,0,0,0-2.351,1.5,32.5,32.5,0,0,0-.76,6.99v8.761a1.978,1.978,0,0,0,3.945,0V300.3a28.6,28.6,0,0,1,.668-6.147,1.978,1.978,0,0,0-1.5-2.345Z" transform="translate(-135.078 -267.953)" fill="#ff9fac"/>
            <path id="Path_347" data-name="Path 347" d="M137.065,306.7a1.978,1.978,0,0,0-1.978,1.971v8.335a1.978,1.978,0,1,0,3.945,0v-8.335A1.978,1.978,0,0,0,137.065,306.7Z" transform="translate(-135.081 -261.784)" fill="#ff9fac"/>
            <path id="Path_348" data-name="Path 348" d="M183.486,312.593a1.978,1.978,0,0,0-1.978,1.978,28.247,28.247,0,0,1-11,22.43,1.978,1.978,0,0,0,1.211,3.532,1.957,1.957,0,0,0,1.211-.414,32.159,32.159,0,0,0,12.526-25.545,1.978,1.978,0,0,0-1.967-1.978Z" transform="translate(-120.769 -259.352)" fill="#ff9fac"/>
            <path id="Path_349" data-name="Path 349" d="M166.095,274.908a32.212,32.212,0,0,0-27.38,15.147,1.978,1.978,0,1,0,3.337,2.1,28.389,28.389,0,0,1,52.434,15.094V320.8a1.978,1.978,0,0,0,3.945,0V307.25a32.374,32.374,0,0,0-32.336-32.342Z" transform="translate(-133.743 -274.908)" fill="#ff9fac"/>
            <path id="Path_350" data-name="Path 350" d="M186.786,312.072a5.438,5.438,0,0,0,5.429-5.434,26.5,26.5,0,1,0-52.99,0V325.4a26.5,26.5,0,1,0,52.99,0,5.431,5.431,0,1,0-10.861,0,1.978,1.978,0,0,0,3.945,0,1.485,1.485,0,1,1,2.967,0,22.551,22.551,0,0,1-45.1,0V306.643a22.551,22.551,0,1,1,45.1,0,1.486,1.486,0,1,1-2.968,0,19.58,19.58,0,1,0-39.159,0V325.4a19.6,19.6,0,0,0,19.579,19.578,1.978,1.978,0,1,0,0-3.944A15.652,15.652,0,0,1,150.083,325.4V306.643a15.635,15.635,0,1,1,31.271,0,5.439,5.439,0,0,0,5.431,5.429Z" transform="translate(-133.371 -272.747)" fill="#ff9fac"/>
            <path id="Path_351" data-name="Path 351" d="M156.208,301.061a1.978,1.978,0,0,0-1.978,1.971v8.822c0,2.648,0,8.159,5.145,8.566h.141a1.978,1.978,0,0,0,.153-3.937c-.706-.057-1.5-.119-1.5-4.631v-8.826a1.978,1.978,0,0,0-1.96-1.964Z" transform="translate(-127.176 -264.112)" fill="#ff9fac"/>
            <path id="Path_352" data-name="Path 352" d="M163.035,316.859a1.978,1.978,0,0,0,1.978-1.978v-8.823c0-3.937-.357-7.3-4.774-8.5a1.978,1.978,0,0,0-1.037,3.8c1.243.34,1.866.511,1.866,4.7v8.823a1.978,1.978,0,0,0,1.967,1.978Z" transform="translate(-125.664 -265.573)" fill="#ff9fac"/>
            <path id="Path_353" data-name="Path 353" d="M165.751,336.127a1.978,1.978,0,0,0,.811,3.768,2.015,2.015,0,0,0,.808-.171c.377-.171,9.21-4.271,9.21-16.162V303.944c-.008-.133-.886-13.139-14.169-13.139-8.562,0-13.47,5.855-13.47,16.061,0,.972-.013,1.9-.028,3.019-.032,2.239-.069,4.778.03,8.627.141,5.815,2.043,9.4,6.338,11.982a10.931,10.931,0,0,0,10.928.424,6.9,6.9,0,0,0,3.977-5.394,1.978,1.978,0,0,0-1.88-2.049,1.935,1.935,0,0,0-1.413.49,2,2,0,0,0-.651,1.4c-.017.414-.548,1.344-1.91,2.081a7.037,7.037,0,0,1-7.019-.335c-3.115-1.873-4.316-4.238-4.431-8.7-.1-3.742-.059-6.246-.028-8.477.016-1.045.03-2.039.03-3.076,0-4.521,1.238-12.118,9.525-12.118a9.775,9.775,0,0,1,10.227,9.306v19.508C172.635,332.857,166.028,336.007,165.751,336.127Z" transform="translate(-129.385 -268.346)" fill="#ff9fac"/>
          </g>
          <g id="Group_107" data-name="Group 107" transform="translate(88.165 46.308)">
            <path id="Path_354" data-name="Path 354" d="M176.749,332.782a28.345,28.345,0,0,1-29.7-2.283,1.978,1.978,0,0,0-2.325,3.187,32.284,32.284,0,0,0,33.845,2.6,1.978,1.978,0,1,0-1.815-3.5Z" transform="translate(-131.391 -252.334)" fill="#ff9fac"/>
            <path id="Path_355" data-name="Path 355" d="M138.2,291.978a1.978,1.978,0,0,0-2.351,1.5,32.48,32.48,0,0,0-.76,6.989v8.759a1.978,1.978,0,1,0,3.945,0v-8.759a28.585,28.585,0,0,1,.667-6.142,1.978,1.978,0,0,0-1.5-2.349Z" transform="translate(-135.079 -268.13)" fill="#ff9fac"/>
            <path id="Path_356" data-name="Path 356" d="M137.065,306.874a1.978,1.978,0,0,0-1.978,1.978v8.327a1.978,1.978,0,1,0,3.945,0v-8.335A1.978,1.978,0,0,0,137.065,306.874Z" transform="translate(-135.081 -261.963)" fill="#ff9fac"/>
            <path id="Path_357" data-name="Path 357" d="M183.45,312.769a1.978,1.978,0,0,0-1.978,1.971,28.256,28.256,0,0,1-11,22.431,1.978,1.978,0,0,0,2.423,3.108,32.164,32.164,0,0,0,12.526-25.546A1.978,1.978,0,0,0,183.45,312.769Z" transform="translate(-120.733 -259.529)" fill="#ff9fac"/>
            <path id="Path_358" data-name="Path 358" d="M166.095,275.085a32.212,32.212,0,0,0-27.38,15.138,1.978,1.978,0,1,0,3.337,2.1,28.389,28.389,0,0,1,52.437,15.093v13.554a1.978,1.978,0,0,0,3.945,0V307.417a32.374,32.374,0,0,0-32.339-32.332Z" transform="translate(-133.743 -275.085)" fill="#ff9fac"/>
            <path id="Path_359" data-name="Path 359" d="M186.786,312.248a5.436,5.436,0,0,0,5.429-5.432,26.5,26.5,0,1,0-52.99,0V325.58a26.5,26.5,0,1,0,52.99,0,5.431,5.431,0,1,0-10.861,0,1.978,1.978,0,1,0,3.945,0,1.485,1.485,0,1,1,2.967,0,22.551,22.551,0,0,1-45.1,0V306.816a22.551,22.551,0,1,1,45.1,0,1.485,1.485,0,1,1-2.968,0,19.58,19.58,0,1,0-39.159,0V325.58a19.6,19.6,0,0,0,19.579,19.579,1.978,1.978,0,1,0,0-3.945,15.652,15.652,0,0,1-15.635-15.634V306.816a15.635,15.635,0,0,1,31.271,0,5.438,5.438,0,0,0,5.431,5.432Z" transform="translate(-133.371 -272.924)" fill="#ff9fac"/>
            <path id="Path_360" data-name="Path 360" d="M156.208,301.238a1.978,1.978,0,0,0-1.978,1.971v8.826c0,2.648,0,8.159,5.145,8.566h.141a1.978,1.978,0,0,0,.153-3.937c-.706-.055-1.5-.119-1.5-4.63v-8.826a1.978,1.978,0,0,0-1.96-1.969Z" transform="translate(-127.176 -264.289)" fill="#ff9fac"/>
            <path id="Path_361" data-name="Path 361" d="M163.035,317.036a1.978,1.978,0,0,0,1.978-1.978v-8.823c0-3.939-.357-7.3-4.774-8.5a1.978,1.978,0,0,0-1.037,3.8c1.243.339,1.866.511,1.866,4.7v8.823a1.978,1.978,0,0,0,1.967,1.978Z" transform="translate(-125.664 -265.75)" fill="#ff9fac"/>
            <path id="Path_362" data-name="Path 362" d="M165.751,336.3a1.978,1.978,0,0,0,1.619,3.6c.377-.17,9.21-4.27,9.21-16.161V304.121c-.008-.133-.886-13.139-14.169-13.139-8.562,0-13.47,5.856-13.47,16.062,0,.972-.013,1.9-.028,3.019-.032,2.238-.069,4.777.03,8.626.141,5.815,2.043,9.4,6.338,11.982a10.935,10.935,0,0,0,10.928.424,6.9,6.9,0,0,0,3.977-5.4,1.978,1.978,0,0,0-1.88-2.047,1.927,1.927,0,0,0-1.413.49,2,2,0,0,0-.651,1.4c-.017.414-.548,1.344-1.91,2.08a7.032,7.032,0,0,1-7.019-.335c-3.115-1.873-4.316-4.238-4.431-8.7-.1-3.741-.059-6.245-.028-8.477.016-1.045.03-2.037.03-3.074,0-4.521,1.238-12.117,9.525-12.117a9.775,9.775,0,0,1,10.227,9.3v19.509C172.635,333.034,166.028,336.176,165.751,336.3Z" transform="translate(-129.385 -268.523)" fill="#ff9fac"/>
          </g>
          <g id="Group_116" data-name="Group 116" transform="translate(88.772 46.905)">
            <g id="Group_115" data-name="Group 115">
              <g id="Group_109" data-name="Group 109">
                <g id="Group_108" data-name="Group 108">
                  <path id="Path_363" data-name="Path 363" d="M167.254,361.865a31.48,31.48,0,0,1-18.672-6.085,1.377,1.377,0,1,1,1.623-2.225,28.939,28.939,0,0,0,30.33,2.33,1.379,1.379,0,1,1,1.272,2.446,31.775,31.775,0,0,1-14.552,3.532Zm18.6-6.379a1.376,1.376,0,0,1-.848-2.464,28.837,28.837,0,0,0,11.233-22.9,1.377,1.377,0,1,1,2.754,0A31.569,31.569,0,0,1,186.7,355.2a1.372,1.372,0,0,1-.848.29ZM136.887,331.5a1.379,1.379,0,0,1-1.377-1.377v-8.335a1.377,1.377,0,1,1,2.755,0v8.336a1.379,1.379,0,0,1-1.377,1.377Zm60.733-9.324a1.376,1.376,0,0,1-1.377-1.378V307.245a28.983,28.983,0,0,0-53.545-15.4,1.377,1.377,0,0,1-2.33-1.468,31.737,31.737,0,0,1,58.62,16.876v13.553a1.376,1.376,0,0,1-1.37,1.377Zm-60.733-4.8a1.378,1.378,0,0,1-1.378-1.378v-8.759a31.874,31.874,0,0,1,.748-6.866,1.376,1.376,0,1,1,2.684.6,29.148,29.148,0,0,0-.681,6.269v8.759a1.377,1.377,0,0,1-1.373,1.386Z" transform="translate(-135.51 -275.507)" fill="#ce4b5c"/>
                </g>
              </g>
              <g id="Group_111" data-name="Group 111" transform="translate(5.843 7.396)">
                <g id="Group_110" data-name="Group 110">
                  <path id="Path_364" data-name="Path 364" d="M165.547,351.3a25.929,25.929,0,0,1-25.9-25.9V306.643a25.9,25.9,0,1,1,51.8,0,4.835,4.835,0,0,1-9.67,0,16.231,16.231,0,1,0-32.462,0V325.4a16.247,16.247,0,0,0,16.232,16.232,1.377,1.377,0,0,1,0,2.754A19.006,19.006,0,0,1,146.562,325.4V306.643a18.985,18.985,0,0,1,37.97,0,2.08,2.08,0,0,0,4.159,0,23.145,23.145,0,1,0-46.291,0V325.4a23.145,23.145,0,0,0,46.29,0,2.08,2.08,0,0,0-4.159,0,1.377,1.377,0,0,1-2.755,0,4.835,4.835,0,1,1,9.669,0,25.929,25.929,0,0,1-25.9,25.9Z" transform="translate(-139.646 -280.742)" fill="#ce4b5c"/>
                </g>
              </g>
              <g id="Group_112" data-name="Group 112" transform="translate(27.044 36.904)">
                <path id="Path_365" data-name="Path 365" d="M159.354,319.846h-.113c-4.587-.362-4.587-5.311-4.587-7.97V303.05a1.377,1.377,0,1,1,2.754,0v8.826c0,4.689.889,5.131,2.05,5.227a1.377,1.377,0,0,1-.106,2.749Z" transform="translate(-154.652 -301.629)" fill="#ce4b5c"/>
              </g>
              <g id="Group_113" data-name="Group 113" transform="translate(32.071 31.916)">
                <path id="Path_366" data-name="Path 366" d="M162.906,316.275a1.379,1.379,0,0,1-1.377-1.377v-8.824c0-4.238-.632-4.812-2.3-5.268a1.377,1.377,0,1,1,.725-2.658c4.014,1.1,4.332,4.106,4.332,7.926V314.9a1.377,1.377,0,0,1-1.376,1.377Z" transform="translate(-158.21 -298.098)" fill="#ce4b5c"/>
              </g>
              <g id="Group_114" data-name="Group 114" transform="translate(19.489 22.459)">
                <path id="Path_367" data-name="Path 367" d="M166.393,339.3a1.377,1.377,0,0,1-.565-2.632c.314-.141,7.236-3.451,7.236-13.107V304.056c-.023-.328-.725-9.9-10.822-9.9-8.806,0-10.121,7.964-10.121,12.715,0,1.036-.013,2.023-.028,3.067-.031,2.217-.068,4.731.028,8.5.119,4.647,1.441,7.225,4.719,9.2a7.629,7.629,0,0,0,7.609.349,3.772,3.772,0,0,0,2.221-2.581,1.348,1.348,0,0,1,1.43-1.321,1.376,1.376,0,0,1,1.322,1.43,6.314,6.314,0,0,1-3.665,4.9,10.356,10.356,0,0,1-10.339-.411c-4.1-2.467-5.908-5.9-6.05-11.487-.1-3.815-.062-6.358-.03-8.6.014-1.03.028-2.006.028-3.028,0-9.829,4.693-15.467,12.875-15.467,12.726,0,13.563,12.452,13.574,12.574v19.586c0,11.5-8.5,15.453-8.857,15.617a1.383,1.383,0,0,1-.565.123Z" transform="translate(-149.305 -291.404)" fill="#ce4b5c"/>
              </g>
            </g>
          </g>
        </g>
        <path id="Path_368" data-name="Path 368" d="M251.664,234.754H158.537a17,17,0,0,0-16.954,16.953v.369a17,17,0,0,1,16.954-16.954h93.127a17,17,0,0,1,16.954,16.954v-.369a17,17,0,0,0-16.954-16.954Z" transform="translate(-44.232 -234.754)" fill="#bf4252"/>
      </g>
      <g id="Group_121" data-name="Group 121" transform="translate(157.319 31.701)">
        <path id="Path_369" data-name="Path 369" d="M234.443,187.272H232.3a21.784,21.784,0,0,0-2.607-6.287l1.52-1.52a3.42,3.42,0,0,0,0-4.836l-2.461-2.461a3.422,3.422,0,0,0-4.837,0l-1.519,1.52a21.819,21.819,0,0,0-6.287-2.608v-2.146a3.419,3.419,0,0,0-3.42-3.419h-3.48a3.419,3.419,0,0,0-3.42,3.419v2.146a21.818,21.818,0,0,0-6.287,2.608l-1.519-1.52a3.422,3.422,0,0,0-4.837,0l-2.46,2.461a3.418,3.418,0,0,0,0,4.836l1.519,1.52a21.786,21.786,0,0,0-2.607,6.287h-2.146a3.42,3.42,0,0,0-3.42,3.42v3.481a3.42,3.42,0,0,0,3.42,3.419H189.6a21.786,21.786,0,0,0,2.607,6.287l-1.519,1.52a3.418,3.418,0,0,0,0,4.836l2.46,2.461a3.422,3.422,0,0,0,4.837,0l1.519-1.52a21.82,21.82,0,0,0,6.287,2.608v2.146a3.419,3.419,0,0,0,3.42,3.419h3.48a3.419,3.419,0,0,0,3.42-3.419v-2.147a21.821,21.821,0,0,0,6.287-2.608l1.519,1.52a3.422,3.422,0,0,0,4.837,0l2.461-2.461a3.42,3.42,0,0,0,0-4.836l-1.52-1.52a21.782,21.782,0,0,0,2.607-6.287h2.146a3.42,3.42,0,0,0,3.42-3.419v-3.48A3.42,3.42,0,0,0,234.443,187.272Zm-23.5,18.18a13.019,13.019,0,1,1,13.019-13.019,13.019,13.019,0,0,1-13.019,13.019Z" transform="translate(-184.029 -165.515)" fill="#fc6679"/>
        <path id="Path_370" data-name="Path 370" d="M218.274,200.354a13.013,13.013,0,0,1-18.084-18.084l-9.89-9.89a3.369,3.369,0,0,0,.387,4.254l1.519,1.52a21.783,21.783,0,0,0-2.607,6.287h-2.15a3.42,3.42,0,0,0-3.42,3.42v3.477a3.42,3.42,0,0,0,3.42,3.419H189.6a21.786,21.786,0,0,0,2.607,6.287l-1.519,1.52a3.418,3.418,0,0,0,0,4.836l2.46,2.461a3.422,3.422,0,0,0,4.837,0l1.519-1.52a21.82,21.82,0,0,0,6.287,2.608V213.1a3.419,3.419,0,0,0,3.42,3.419h3.48a3.419,3.419,0,0,0,3.42-3.419v-2.147a21.821,21.821,0,0,0,6.287-2.608l1.519,1.52a3.372,3.372,0,0,0,4.255.387Z" transform="translate(-184.029 -162.681)" fill="#fc6679"/>
        <g id="Group_120" data-name="Group 120" transform="translate(0 0)">
          <g id="Group_119" data-name="Group 119">
            <path id="Path_371" data-name="Path 371" d="M219.905,184.754v-.11a13.015,13.015,0,1,1-26.029,0v.11a13.02,13.02,0,0,0,26.039,0Z" transform="translate(-179.964 -157.619)" fill="#a72d3c"/>
            <path id="Path_372" data-name="Path 372" d="M206.734,169.673a21.817,21.817,0,0,1,6.287,2.607l1.519-1.519a3.419,3.419,0,0,1,4.837,0l2.461,2.46a3.4,3.4,0,0,1,.989,2.31,3.391,3.391,0,0,0-.989-2.528l-2.461-2.461a3.422,3.422,0,0,0-4.837,0l-1.519,1.52a21.819,21.819,0,0,0-6.287-2.608Z" transform="translate(-174.656 -163.889)" fill="#a72d3c"/>
            <path id="Path_373" data-name="Path 373" d="M190.547,192.865c-.028-.045-.051-.095-.078-.141l-1.441,1.441a3.391,3.391,0,0,0-.989,2.527,3.391,3.391,0,0,1,.989-2.308Z" transform="translate(-182.374 -154.283)" fill="#00e7ff"/>
            <path id="Path_374" data-name="Path 374" d="M202.849,165.733h3.48a3.42,3.42,0,0,1,3.42,3.42v-.219a3.419,3.419,0,0,0-3.42-3.419h-3.48a3.419,3.419,0,0,0-3.42,3.419v.219A3.42,3.42,0,0,1,202.849,165.733Z" transform="translate(-177.672 -165.515)" fill="#a72d3c"/>
            <path id="Path_375" data-name="Path 375" d="M216.423,192.725c-.028.045-.051.095-.079.141l1.52,1.52a3.391,3.391,0,0,1,.989,2.309,3.4,3.4,0,0,0-.989-2.527Z" transform="translate(-170.69 -154.283)" fill="#a72d3c"/>
            <path id="Path_376" data-name="Path 376" d="M221.1,182.711h-2.146a21.813,21.813,0,0,0-2.527-6.147l-.079.078a21.816,21.816,0,0,1,2.607,6.287H221.1a3.42,3.42,0,0,1,3.42,3.42v-.218a3.419,3.419,0,0,0-3.42-3.42Z" transform="translate(-170.687 -160.954)" fill="#a72d3c"/>
            <path id="Path_377" data-name="Path 377" d="M189.029,173.221l2.46-2.46a3.419,3.419,0,0,1,4.837,0l1.519,1.519a21.817,21.817,0,0,1,6.287-2.607v-.219a21.819,21.819,0,0,0-6.287,2.608l-1.519-1.52a3.422,3.422,0,0,0-4.837,0L189.029,173a3.391,3.391,0,0,0-.989,2.527A3.4,3.4,0,0,1,189.029,173.221Z" transform="translate(-182.374 -163.889)" fill="#a72d3c"/>
            <path id="Path_378" data-name="Path 378" d="M187.449,182.929H189.6a21.817,21.817,0,0,1,2.607-6.287l-.078-.078a21.773,21.773,0,0,0-2.529,6.147h-2.146a3.419,3.419,0,0,0-3.42,3.42v.218a3.42,3.42,0,0,1,3.42-3.42Z" transform="translate(-184.029 -160.954)" fill="#00e7ff"/>
          </g>
        </g>
      </g>
      <g id="Group_122" data-name="Group 122" transform="translate(114.398 21.03)">
        <circle id="Ellipse_3" data-name="Ellipse 3" cx="17.715" cy="17.715" r="17.715" transform="translate(0 0.001)" fill="#fc6679"/>
        <path id="Path_379" data-name="Path 379" d="M159.269,163.582a17.7,17.7,0,0,1,24.814-.195c-.072-.075-.119-.164-.194-.237A17.715,17.715,0,1,0,158.838,188.2c.074.073.163.121.238.193A17.7,17.7,0,0,1,159.269,163.582Z" transform="translate(-153.649 -157.962)" fill="#a72d3c"/>
        <rect id="Rectangle_20" data-name="Rectangle 20" width="35.429" height="81.92" transform="translate(11.003 36.055) rotate(-45)" fill="#fc6679"/>
        <path id="Path_380" data-name="Path 380" d="M194.172,177.021a1.852,1.852,0,0,0-.632,1.207l-.1,1.062a12.219,12.219,0,0,0-3.288,1.29l-.694-.753a1.745,1.745,0,0,0-2.436,0l-1.353,1.218a1.911,1.911,0,0,0-.437.579c-.018.038-.018.078-.034.116a1.735,1.735,0,0,0-.141.541h0a1.524,1.524,0,0,0,.387,1.156l.694.752c-.017.023-.028.048-.044.072h0c-.141.189-.237.4-.362.595-.177.283-.367.565-.52.858a11.6,11.6,0,0,0-.678,1.589h-1.081a1.917,1.917,0,0,0-1.882,1.7l-.01.109h0l-.153,1.615a1.527,1.527,0,0,0,1.563,1.7h1.081a9.749,9.749,0,0,0,1.019,3.108l-.042.038-.793.713a1.938,1.938,0,0,0-.438.579c-.017.035-.017.075-.032.112a1.8,1.8,0,0,0-.141.547h0a1.519,1.519,0,0,0,.387,1.154l1.123,1.218a1.742,1.742,0,0,0,2.436,0l.836-.752a10.047,10.047,0,0,0,3.043,1.29l-.1,1.062a1.527,1.527,0,0,0,1.563,1.7h1.752a1.916,1.916,0,0,0,1.882-1.7l.1-1.062a12.22,12.22,0,0,0,3.288-1.29l.694.752a1.742,1.742,0,0,0,2.436,0l1.353-1.218a1.849,1.849,0,0,0,.606-1.154h0a1.593,1.593,0,0,0-.041-.55c-.008-.035,0-.073-.011-.109a1.468,1.468,0,0,0-.328-.579l-.694-.752a11.9,11.9,0,0,0,1.606-3.108h1.081a1.91,1.91,0,0,0,1.732-1.2Zm7.347,13.242a6.76,6.76,0,0,1-.189.925c-.033.1-.086.2-.123.3a7.2,7.2,0,0,1-.376.9c-.054.1-.126.185-.182.283a7.361,7.361,0,0,1-.527.805c-.078.1-.174.181-.257.275a7.425,7.425,0,0,1-.63.67c-.116.1-.251.185-.373.283a7.4,7.4,0,0,1-.668.5c-.172.107-.362.182-.541.283-.208.106-.407.229-.624.315a7.17,7.17,0,0,1-.756.225,4.551,4.551,0,0,1-.506.141,6.819,6.819,0,0,1-1.329.131,6.443,6.443,0,0,1-1.305-.131c-.17-.034-.321-.1-.483-.15a6.364,6.364,0,0,1-.706-.223,5.878,5.878,0,0,1-.578-.322c-.158-.09-.329-.164-.476-.268a5.755,5.755,0,0,1-.6-.524c-.093-.089-.2-.161-.29-.256a5.656,5.656,0,0,1-.521-.692,2.885,2.885,0,0,1-.189-.254,5.706,5.706,0,0,1-.389-.836c-.034-.086-.085-.162-.114-.25a5.879,5.879,0,0,1-.209-.914c-.017-.1-.052-.188-.064-.283a6.23,6.23,0,0,1-.016-.935,3.4,3.4,0,0,1,0-.4,7.3,7.3,0,0,1,7.163-6.442,5.814,5.814,0,0,1,5.948,6.442c-.02.134-.065.276-.088.408Z" transform="translate(-142.193 -150.094)" fill="#bf4252" opacity="0.65"/>
        <path id="Rectangle_21" data-name="Rectangle 21" d="M1.711,0H4.772A1.709,1.709,0,0,1,6.482,1.709V12.526a1.711,1.711,0,0,1-1.711,1.711H1.711A1.711,1.711,0,0,1,0,12.526V1.711A1.711,1.711,0,0,1,1.711,0Z" transform="translate(86.374 90.959) rotate(-45)" fill="#a72d3c"/>
        <path id="Path_381" data-name="Path 381" d="M221.779,233.91,202.438,231.8,227.49,206.75l2.242,19.143a7.218,7.218,0,0,1-7.953,8.016Z" transform="translate(-133.509 -137.822)" fill="#bf4252"/>
        <rect id="Rectangle_22" data-name="Rectangle 22" width="35.429" height="8.528" transform="translate(4.973 30.024) rotate(-45)" fill="#bf4252"/>
        <rect id="Rectangle_23" data-name="Rectangle 23" width="35.429" height="0.61" transform="translate(4.973 30.024) rotate(-45)" fill="#a72d3c"/>
        <rect id="Rectangle_24" data-name="Rectangle 24" width="35.429" height="0.61" transform="translate(11.003 36.055) rotate(-45)" fill="#a72d3c"/>
        <rect id="Rectangle_25" data-name="Rectangle 25" width="35.429" height="0.61" transform="translate(68.497 93.549) rotate(-45)" fill="#a72d3c"/>
      </g>
      <g id="Group_124" data-name="Group 124" transform="translate(152.436 47.002)">
        <path id="Path_382" data-name="Path 382" d="M205.958,187.3h-1.081a11.021,11.021,0,0,0-1.312-3.166l.764-.766a1.721,1.721,0,0,0,0-2.434L203.09,179.7a1.722,1.722,0,0,0-2.436,0l-.764.764a11.02,11.02,0,0,0-3.166-1.313v-1.081A1.722,1.722,0,0,0,195,176.345H193.25a1.722,1.722,0,0,0-1.722,1.722v1.081a11.027,11.027,0,0,0-3.165,1.313l-.766-.764a1.722,1.722,0,0,0-2.436,0l-1.239,1.239a1.721,1.721,0,0,0,0,2.434l.766.766a10.981,10.981,0,0,0-1.312,3.166H182.3a1.722,1.722,0,0,0-1.722,1.722v1.752A1.722,1.722,0,0,0,182.3,192.5h1.081a10.988,10.988,0,0,0,1.312,3.165l-.766.766a1.722,1.722,0,0,0,0,2.436l1.239,1.239a1.722,1.722,0,0,0,2.436,0l.766-.766a10.989,10.989,0,0,0,3.165,1.313v1.081a1.722,1.722,0,0,0,1.722,1.722H195a1.722,1.722,0,0,0,1.722-1.722v-1.081a10.98,10.98,0,0,0,3.166-1.312l.764.766a1.722,1.722,0,0,0,2.436,0l1.239-1.239a1.722,1.722,0,0,0,0-2.436l-.764-.766a11.028,11.028,0,0,0,1.313-3.165h1.081a1.721,1.721,0,0,0,1.721-1.722v-1.752a1.721,1.721,0,0,0-1.721-1.722Zm-11.832,9.154a6.555,6.555,0,1,1,6.555-6.555A6.555,6.555,0,0,1,194.126,196.455Z" transform="translate(-180.573 -176.345)" fill="#dff1ff"/>
        <g id="Group_123" data-name="Group 123" transform="translate(0.001 0.003)">
          <path id="Path_383" data-name="Path 383" d="M198.635,186.035v-.055a6.553,6.553,0,0,1-13.105,0v.055a6.555,6.555,0,1,0,13.111,0Z" transform="translate(-178.528 -172.371)" fill="#fff"/>
          <path id="Path_384" data-name="Path 384" d="M192,178.441a11.02,11.02,0,0,1,3.166,1.312l.764-.764a1.722,1.722,0,0,1,2.436,0l1.239,1.239a1.708,1.708,0,0,1,.5,1.163,1.708,1.708,0,0,0-.5-1.272l-1.239-1.239a1.722,1.722,0,0,0-2.436,0l-.764.764A11.02,11.02,0,0,0,192,178.332Z" transform="translate(-175.855 -175.528)" fill="#fff"/>
          <path id="Path_385" data-name="Path 385" d="M183.856,190.121c-.014-.023-.025-.047-.04-.071l-.726.726a1.714,1.714,0,0,0-.5,1.272,1.714,1.714,0,0,1,.5-1.163Z" transform="translate(-179.742 -170.69)" fill="#fff"/>
          <path id="Path_386" data-name="Path 386" d="M190.051,176.459H191.8a1.721,1.721,0,0,1,1.715,1.721v-.11a1.722,1.722,0,0,0-1.722-1.722h-1.752a1.722,1.722,0,0,0-1.722,1.722v.11a1.721,1.721,0,0,1,1.722-1.721Z" transform="translate(-177.376 -176.347)" fill="#fff"/>
          <path id="Path_387" data-name="Path 387" d="M196.885,190.048l-.038.071.764.766a1.708,1.708,0,0,1,.5,1.163,1.708,1.708,0,0,0-.5-1.272Z" transform="translate(-173.857 -170.691)" fill="#fff"/>
          <path id="Path_388" data-name="Path 388" d="M199.239,185h-1.081a10.97,10.97,0,0,0-1.272-3.1l-.038.04a11.021,11.021,0,0,1,1.312,3.166h1.081a1.721,1.721,0,0,1,1.721,1.722v-.11A1.721,1.721,0,0,0,199.239,185Z" transform="translate(-173.856 -174.051)" fill="#fff"/>
          <path id="Path_389" data-name="Path 389" d="M183.09,180.228l1.239-1.239a1.722,1.722,0,0,1,2.436,0l.766.764a11.027,11.027,0,0,1,3.165-1.312v-.11a11.027,11.027,0,0,0-3.165,1.313l-.766-.764a1.722,1.722,0,0,0-2.436,0l-1.239,1.239a1.714,1.714,0,0,0-.5,1.271,1.714,1.714,0,0,1,.5-1.161Z" transform="translate(-179.742 -175.528)" fill="#fff"/>
          <path id="Path_390" data-name="Path 390" d="M182.295,185.117h1.081a10.981,10.981,0,0,1,1.312-3.166l-.04-.04a10.969,10.969,0,0,0-1.272,3.1H182.3a1.722,1.722,0,0,0-1.722,1.722v.11A1.722,1.722,0,0,1,182.295,185.117Z" transform="translate(-180.574 -174.05)" fill="#fff"/>
        </g>
      </g>
    </g>
    <g id="Group_129" data-name="Group 129" transform="translate(304.161 347.837)">
      <path id="Path_392" data-name="Path 392" d="M288.413,310.4H286.2a22.437,22.437,0,0,0-2.684-6.471l1.564-1.564a3.519,3.519,0,0,0,0-4.977l-2.533-2.532a3.516,3.516,0,0,0-4.977,0l-1.564,1.563a22.484,22.484,0,0,0-6.469-2.684v-2.207a3.521,3.521,0,0,0-3.521-3.519h-3.581a3.519,3.519,0,0,0-3.519,3.519v2.208a22.5,22.5,0,0,0-6.471,2.684l-1.564-1.562a3.517,3.517,0,0,0-4.977,0l-2.532,2.532a3.519,3.519,0,0,0,0,4.977l1.563,1.564a22.434,22.434,0,0,0-2.684,6.471h-2.21a3.519,3.519,0,0,0-3.519,3.519V317.5a3.519,3.519,0,0,0,3.519,3.519h2.21a22.436,22.436,0,0,0,2.684,6.471l-1.563,1.564a3.519,3.519,0,0,0,0,4.977l2.532,2.533a3.519,3.519,0,0,0,4.977,0L252.449,335a22.465,22.465,0,0,0,6.471,2.684v2.21a3.521,3.521,0,0,0,3.519,3.519h3.579a3.521,3.521,0,0,0,3.521-3.519v-2.212A22.446,22.446,0,0,0,276.007,335l1.564,1.564a3.519,3.519,0,0,0,4.977,0l2.533-2.533a3.519,3.519,0,0,0,0-4.977l-1.564-1.564a22.44,22.44,0,0,0,2.684-6.471h2.208a3.519,3.519,0,0,0,3.521-3.519v-3.581a3.519,3.519,0,0,0-3.518-3.518Zm-24.181,18.708a13.4,13.4,0,1,1,13.4-13.4,13.4,13.4,0,0,1-13.4,13.4Z" transform="translate(-236.525 -288.009)" fill="#ff9fac"/>
      <g id="Group_128" data-name="Group 128" transform="translate(0.007)">
        <path id="Path_393" data-name="Path 393" d="M273.447,307.809V307.7a13.393,13.393,0,1,1-26.787,0c0,.038,0,.075,0,.113a13.4,13.4,0,1,0,26.8,0Z" transform="translate(-232.348 -279.882)" fill="#bf4252"/>
        <path id="Path_394" data-name="Path 394" d="M259.895,292.288a22.451,22.451,0,0,1,6.469,2.684l1.564-1.564a3.519,3.519,0,0,1,4.977,0l2.533,2.532a3.494,3.494,0,0,1,1.02,2.376,3.5,3.5,0,0,0-1.02-2.6l-2.533-2.532a3.516,3.516,0,0,0-4.977,0l-1.564,1.563a22.486,22.486,0,0,0-6.469-2.684Z" transform="translate(-226.885 -286.336)" fill="#bf4252"/>
        <path id="Path_395" data-name="Path 395" d="M243.236,316.155c-.028-.047-.052-.1-.081-.141l-1.482,1.482a3.494,3.494,0,0,0-1.02,2.6,3.494,3.494,0,0,1,1.02-2.376Z" transform="translate(-234.829 -276.449)" fill="#bf4252"/>
        <path id="Path_396" data-name="Path 396" d="M255.9,288.234h3.577A3.521,3.521,0,0,1,263,291.753v-.225a3.521,3.521,0,0,0-3.521-3.519h-3.581a3.519,3.519,0,0,0-3.519,3.519v.225a3.519,3.519,0,0,1,3.523-3.519Z" transform="translate(-229.99 -288.009)" fill="#bf4252"/>
        <path id="Path_397" data-name="Path 397" d="M269.871,316.013c-.028.047-.052.1-.081.141l1.564,1.564a3.5,3.5,0,0,1,1.02,2.376,3.5,3.5,0,0,0-1.02-2.6Z" transform="translate(-222.8 -276.449)" fill="#bf4252"/>
        <path id="Path_398" data-name="Path 398" d="M274.681,305.706h-2.208a22.452,22.452,0,0,0-2.6-6.326l-.081.081a22.454,22.454,0,0,1,2.684,6.471h2.208a3.521,3.521,0,0,1,3.521,3.519v-.225a3.519,3.519,0,0,0-3.522-3.519Z" transform="translate(-222.8 -283.315)" fill="#bf4252"/>
        <path id="Path_399" data-name="Path 399" d="M241.674,295.94l2.532-2.532a3.519,3.519,0,0,1,4.977,0l1.564,1.564a22.462,22.462,0,0,1,6.471-2.684v-.225a22.5,22.5,0,0,0-6.471,2.684l-1.564-1.563a3.516,3.516,0,0,0-4.977,0l-2.532,2.532a3.494,3.494,0,0,0-1.02,2.6A3.488,3.488,0,0,1,241.674,295.94Z" transform="translate(-234.829 -286.335)" fill="#bf4252"/>
        <path id="Path_400" data-name="Path 400" d="M240.046,305.931h2.21a22.452,22.452,0,0,1,2.684-6.471l-.081-.081a22.412,22.412,0,0,0-2.6,6.326h-2.21a3.519,3.519,0,0,0-3.519,3.519v.225A3.519,3.519,0,0,1,240.046,305.931Z" transform="translate(-236.53 -283.315)" fill="#bf4252"/>
      </g>
    </g>
    <g id="Group_132" data-name="Group 132" transform="translate(292.018 366.53)">
      <path id="Path_401" data-name="Path 401" d="M299.921,333.368a20.265,20.265,0,0,1,1.647,8.987.068.068,0,0,0,.1.066L359.923,318.1a8.96,8.96,0,0,0,5.393-10.47,8.717,8.717,0,0,0-11.736-5.726l-58.326,24.349a.068.068,0,0,0-.021.113,20.547,20.547,0,0,1,4.689,7Z" transform="translate(-200.157 -301.24)" fill="#bf4252"/>
      <path id="Path_402" data-name="Path 402" d="M300.221,333.666a20.544,20.544,0,0,0-4.691-7,.071.071,0,0,1,.023-.114L353.877,302.2a8.72,8.72,0,0,1,9.265,1.663,8.72,8.72,0,0,0-9.563-1.962l-58.326,24.35a.068.068,0,0,0-.021.113,20.548,20.548,0,0,1,4.689,7,20.265,20.265,0,0,1,1.647,8.987.068.068,0,0,0,.1.066l.2-.085a20.321,20.321,0,0,0-1.646-8.67Z" transform="translate(-200.157 -301.24)" fill="#9a0f21"/>
      <path id="Path_403" data-name="Path 403" d="M296.917,337.9a14.105,14.105,0,0,1,1.177,5.7l8.053-3.361a12.857,12.857,0,0,0,7.739-15.024A12.507,12.507,0,0,0,297.046,317L285.3,321.913A42.683,42.683,0,0,1,296.917,337.9Z" transform="translate(-204.248 -295.127)" fill="#fc6679"/>
      <g id="Group_131" data-name="Group 131" transform="translate(0 2.343)">
        <path id="Path_404" data-name="Path 404" d="M235.706,368.9a44.492,44.492,0,1,0,23.917-58.19,44.492,44.492,0,0,0-23.917,58.19Zm74.454-31.081a36.19,36.19,0,1,1-47.339-19.456,36.19,36.19,0,0,1,47.339,19.456Z" transform="translate(-226.141 -301.098)" fill="#bf4252"/>
        <g id="Group_130" data-name="Group 130" transform="translate(6.119 9.552)">
          <path id="Path_405" data-name="Path 405" d="M235.957,367.8a44.489,44.489,0,0,1,23.794-58.142c-.042.017-.085.031-.127.049a44.492,44.492,0,1,0,34.28,82.115c.042-.017.082-.037.124-.055A44.489,44.489,0,0,1,235.963,367.8Z" transform="translate(-232.261 -309.66)" fill="#9b1122"/>
          <path id="Path_406" data-name="Path 406" d="M301.445,335.317a36.19,36.19,0,0,0-47.339-19.456c-.042.017-.082.038-.124.055a36.187,36.187,0,0,1,27.882,66.789c.042-.017.085-.031.127-.049A36.189,36.189,0,0,0,301.445,335.317Z" transform="translate(-223.294 -308.257)" fill="#9b1122"/>
        </g>
        <circle id="Ellipse_4" data-name="Ellipse 4" cx="37.302" cy="37.302" r="37.302" transform="translate(0 35.819) rotate(-28.693)" fill="#9b1122" opacity="0.26"/>
        <circle id="Ellipse_5" data-name="Ellipse 5" cx="17.269" cy="17.269" r="17.269" transform="matrix(0.918, -0.396, 0.396, 0.918, 26.716, 55.009)" fill="#fff" opacity="0.16"/>
        <path id="Path_407" data-name="Path 407" d="M256.16,348.589a8.094,8.094,0,1,0-6.2.021,8.094,8.094,0,0,0,6.2-.021Z" transform="translate(-220.908 -290.461)" fill="#fff" opacity="0.16"/>
        <path id="Path_408" data-name="Path 408" d="M265.108,323.88a5.588,5.588,0,1,0,3-7.308,5.588,5.588,0,0,0-3,7.308Z" transform="translate(-212.761 -297.433)" fill="#fff" opacity="0.16"/>
      </g>
    </g>
  </g>
</svg>
