<svg xmlns="http://www.w3.org/2000/svg" width="266.547" height="352.437" viewBox="0 0 266.547 352.437">
  <g id="rd-lab-product" transform="translate(-212.455 -36.77)">
    <g id="Group_27" data-name="Group 27" transform="translate(212.455 213.877)">
      <g id="Group_1" data-name="Group 1" transform="translate(165.137 130.425)">
        <path id="Path_1" data-name="Path 1" d="M363.045,224.738a26.077,26.077,0,0,0,12.7-3.29l-1.486-2.666a23.168,23.168,0,0,1-22.833-.221L285,179.833l-1.536,2.64,66.43,38.727a26.13,26.13,0,0,0,13.151,3.538Z" transform="translate(-283.462 -179.833)" fill="#9b2a39"/>
      </g>
      <g id="Group_2" data-name="Group 2" transform="translate(260.291 154.238)">
        <path id="Path_2" data-name="Path 2" d="M332.715,206.727c2.676-2.318,6.627-8.447,2.4-15.069l-2.573,1.643c3.878,6.075-1.587,10.91-1.822,11.116Z" transform="translate(-330.715 -191.658)" fill="#9b2a39"/>
      </g>
      <g id="Group_21" data-name="Group 21">
        <g id="Group_3" data-name="Group 3" transform="translate(0 3.228)">
          <path id="Path_3" data-name="Path 3" d="M366.561,175.663h.008V162.419l-3.286.628c-3.743-7.4-10.66-14.374-20.767-20.207-16.553-9.559-36.418-25.713-58.113-25.409-20.365.282-42.576,16.436-58.115,25.409-10.111,5.84-17.032,12.821-20.771,20.226l-3.276-.646-.024,13.971v.008h0c0,12.143,8.025,24.283,24.07,33.55,32.1,18.53,84.134,18.53,116.231,0C358.889,200.5,366.887,188.05,366.561,175.663Zm-39.03,25.63c-11.909,6.875-28.484-1.977-44.092-1.977s-30.258,8.854-42.167,1.977c-23.818-13.754-23.818-36.051,0-49.8s62.435-13.752,86.257,0,23.823,36.047,0,49.8Z" transform="translate(-200.685 -115.897)" fill="#9b2a39"/>
          <path id="Path_4" data-name="Path 4" d="M226.292,212.04c-16.013-9.249-24.833-21.631-24.837-34.881l.03-15.832,3.979.789c4.088-7.469,11.265-14.3,20.828-19.827,2.694-1.555,5.586-3.327,8.637-5.191,14.694-8.993,32.98-20.185,50.226-20.425.207-.006.415-.006.624-.006,17.489,0,33.6,10.191,47.821,19.195,3.657,2.312,7.108,4.5,10.451,6.428,9.563,5.518,16.74,12.35,20.826,19.813l3.991-.761v15.407c.2,13.409-8.6,25.93-24.813,35.292-16.23,9.374-37.553,14.058-58.879,14.058S242.524,221.414,226.292,212.04Zm139.519-47-2.6.5-.52-1.029c-3.709-7.328-10.681-14.1-20.163-19.571-3.4-1.961-6.877-4.16-10.558-6.492-13.876-8.778-29.581-18.717-46.2-18.717h-.578c-16.4.228-34.293,11.178-48.667,19.974-3.075,1.883-5.991,3.665-8.705,5.232-9.489,5.479-16.464,12.255-20.171,19.591l-.522,1.033-2.594-.51-.022,12.12c.006,12.1,8.28,23.546,23.309,32.227,31.625,18.256,83.079,18.254,114.7,0h0c15.336-8.86,23.6-20.55,23.278-32.922l-.026-1.226.034-.01Zm-64.5,38.931c-5.65-1.156-11.492-2.352-17.1-2.352-5.683,0-11.293,1.218-16.716,2.4-9.392,2.042-18.252,3.971-26.216-.63-12.014-6.931-18.629-16.247-18.629-26.22s6.615-19.289,18.629-26.224c24.207-13.973,63.589-13.973,87.789,0,12.014,6.935,18.627,16.249,18.627,26.224s-6.613,19.289-18.627,26.22a22.792,22.792,0,0,1-11.708,2.833c-5.067,0-10.474-1.111-16.046-2.253Zm.612-2.992c9.567,1.959,18.6,3.808,25.608-.236,11.029-6.365,17.1-14.742,17.1-23.576s-6.073-17.209-17.1-23.58c-23.353-13.484-61.367-13.484-84.728,0-11.029,6.371-17.1,14.744-17.1,23.58s6.069,17.211,17.1,23.576c6.937,4,14.861,2.286,24.039.29,5.58-1.216,11.351-2.473,17.364-2.473,5.924,0,11.921,1.226,17.721,2.417Z" transform="translate(-201.455 -116.667)" fill="#9b2a39"/>
        </g>
        <g id="Group_4" data-name="Group 4" transform="translate(0.004)">
          <path id="Path_5" data-name="Path 5" d="M342.516,129.7c-32.092-18.53-84.132-18.53-116.229,0s-32.1,48.574,0,67.1,84.134,18.53,116.231,0S374.614,148.229,342.516,129.7Zm-14.984,58.456c-23.822,13.75-62.439,13.75-86.257,0s-23.82-36.049,0-49.8,62.435-13.75,86.257,0,23.82,36.044,0,49.8Z" transform="translate(-200.689 -114.316)" fill="#ff919f"/>
          <path id="Path_6" data-name="Path 6" d="M226.29,198.874c-16.015-9.243-24.833-21.631-24.833-34.875s8.818-25.628,24.833-34.875c32.471-18.746,85.294-18.748,117.759,0,16.015,9.247,24.837,21.633,24.837,34.875s-8.822,25.632-24.837,34.875h0c-16.234,9.374-37.551,14.06-58.879,14.06S242.522,208.246,226.29,198.874Zm1.528-67.107C212.79,140.447,204.51,151.9,204.51,164s8.28,23.554,23.309,32.233c31.625,18.256,83.081,18.258,114.7,0h0c15.03-8.681,23.309-20.127,23.309-32.233s-8.278-23.55-23.309-32.231c-15.814-9.124-36.581-13.689-57.352-13.689s-41.535,4.564-57.349,13.688Zm13.458,58.456c-12.014-6.935-18.629-16.249-18.629-26.224s6.615-19.287,18.629-26.222c24.207-13.977,63.585-13.975,87.789,0h0c12.014,6.935,18.627,16.251,18.627,26.222s-6.613,19.289-18.627,26.224c-12.1,6.988-28,10.481-43.9,10.481s-31.785-3.493-43.889-10.481Zm86.257-49.8c-23.353-13.484-61.366-13.484-84.728,0-11.029,6.367-17.1,14.742-17.1,23.576s6.069,17.211,17.1,23.582c23.361,13.484,61.369,13.482,84.728,0,11.029-6.371,17.1-14.744,17.1-23.582S338.56,146.79,327.533,140.423Z" transform="translate(-201.457 -115.064)" fill="#9b2a39"/>
        </g>
        <g id="Group_5" data-name="Group 5" transform="translate(116.027 92.399)">
          <rect id="Rectangle_1" data-name="Rectangle 1" width="2.35" height="14.559" fill="#fc6679"/>
        </g>
        <g id="Group_6" data-name="Group 6" transform="translate(15.162 76.685)">
          <rect id="Rectangle_2" data-name="Rectangle 2" width="2.349" height="14.559" fill="#fc6679"/>
        </g>
        <g id="Group_7" data-name="Group 7" transform="translate(35.171 87.618)">
          <rect id="Rectangle_3" data-name="Rectangle 3" width="2.349" height="14.557" fill="#fc6679"/>
        </g>
        <g id="Group_8" data-name="Group 8" transform="translate(116.027 19.546)">
          <rect id="Rectangle_4" data-name="Rectangle 4" width="2.35" height="14.562" fill="#fc6679"/>
        </g>
        <g id="Group_9" data-name="Group 9" transform="translate(51.878 18.309)">
          <rect id="Rectangle_5" data-name="Rectangle 5" width="2.35" height="14.561" fill="#fc6679"/>
        </g>
        <g id="Group_10" data-name="Group 10" transform="translate(33.486 24.385)">
          <path id="Path_7" data-name="Path 7" d="M281.9,133.494c-14.6-8.427-38.264-8.427-52.864,0s-14.6,22.09,0,30.522,38.264,8.425,52.866,0S296.493,141.921,281.9,133.494Z" transform="translate(-218.084 -127.173)" fill="#fff"/>
        </g>
        <g id="Group_14" data-name="Group 14" transform="translate(132.495 79.027)">
          <g id="Group_11" data-name="Group 11">
            <path id="Path_8" data-name="Path 8" d="M388.159,218.09a.946.946,0,0,0-.348-1.3L280.006,155.107a1.641,1.641,0,0,0-.991.087l-9.4,5.425a3.844,3.844,0,0,0-1.6,3.065v10.28a1.553,1.553,0,0,0,.381,1.114l107.8,61.666a.95.95,0,0,0,1.291-.346Z" transform="translate(-266.482 -153.54)" fill="#fff"/>
            <path id="Path_9" data-name="Path 9" d="M376.2,238.838,268.4,177.175l-.35-.274a3.044,3.044,0,0,1-.8-2.169v-10.28a5.377,5.377,0,0,1,2.368-4.388l9.4-5.427a3.126,3.126,0,0,1,2.082-.256l.232.05,108.007,61.8a2.477,2.477,0,0,1,.912,3.4l-10.681,18.313a2.486,2.486,0,0,1-2.145,1.222,2.446,2.446,0,0,1-1.225-.328Zm-95.85-81.44-9.2,5.31a2.4,2.4,0,0,0-.842,1.744l-.038,10.266L377.222,235.9l10.1-17.306Z" transform="translate(-267.252 -154.309)" fill="#9b2a39"/>
          </g>
          <g id="Group_12" data-name="Group 12" transform="translate(108.635 62.085)">
            <path id="Path_10" data-name="Path 10" d="M332.961,200.652l-9.394,5.425c-.89.511-1.607-.032-1.607-1.216V194.585a3.835,3.835,0,0,1,1.607-3.067l9.394-5.425c.888-.514,1.6.03,1.6,1.212v10.28a3.848,3.848,0,0,1-1.6,3.067Z" transform="translate(-320.43 -184.37)" fill="#bf4252"/>
            <path id="Path_11" data-name="Path 11" d="M322.519,208.251a2.891,2.891,0,0,1-1.319-2.62V195.355a5.367,5.367,0,0,1,2.372-4.388l9.394-5.427a2.525,2.525,0,0,1,2.58-.087,2.892,2.892,0,0,1,1.321,2.622v10.28a5.374,5.374,0,0,1-2.368,4.388l-9.4,5.427a2.816,2.816,0,0,1-1.4.395A2.334,2.334,0,0,1,322.519,208.251Zm10.447-8.153a2.392,2.392,0,0,0,.84-1.742l-.018-9.76-8.691,5.02a2.391,2.391,0,0,0-.84,1.74l.02,9.76,8.689-5.018Z" transform="translate(-321.2 -185.14)" fill="#9b2a39"/>
          </g>
          <g id="Group_13" data-name="Group 13" transform="translate(1.531 13.457)">
            <path id="Path_12" data-name="Path 12" d="M268.012,160.991v6.966l108.635,62.154v-6.828Z" transform="translate(-268.012 -160.991)" fill="#9b2a39"/>
          </g>
        </g>
        <g id="Group_15" data-name="Group 15" transform="translate(142.955 89.92)">
          <rect id="Rectangle_6" data-name="Rectangle 6" width="2.349" height="64.559" transform="matrix(0.496, -0.868, 0.868, 0.496, 0, 2.039)" fill="#fc6679"/>
        </g>
        <g id="Group_16" data-name="Group 16" transform="translate(209.651 128.37)">
          <rect id="Rectangle_7" data-name="Rectangle 7" width="2.347" height="21.393" transform="matrix(0.497, -0.868, 0.868, 0.497, 0, 2.037)" fill="#fc6679"/>
        </g>
        <g id="Group_17" data-name="Group 17" transform="translate(70.683 58.683)">
          <path id="Path_13" data-name="Path 13" d="M250.813,162.156c30.06,0,44.553-16.218,44.716-16.408l-1.772-1.543c-.179.205-18.44,20.534-56.835,14.472L236.556,161a91.613,91.613,0,0,0,14.257,1.156Z" transform="translate(-236.556 -144.206)" fill="#fff"/>
        </g>
        <g id="Group_18" data-name="Group 18" transform="translate(107.803 48.589)">
          <path id="Path_14" data-name="Path 14" d="M255.876,157.785c15.491-6.311,19.058-17.431,19.2-17.9l-2.247-.693c-.03.107-3.441,10.55-17.841,16.416Z" transform="translate(-254.99 -139.193)" fill="#fff"/>
        </g>
        <g id="Group_19" data-name="Group 19" transform="translate(29.255 43.444)">
          <path id="Path_15" data-name="Path 15" d="M218.055,150.724a32.125,32.125,0,0,1,11.847-12.08l-1.232-2.006a34.427,34.427,0,0,0-12.686,12.974Z" transform="translate(-215.983 -136.638)" fill="#fc6679"/>
        </g>
        <g id="Group_20" data-name="Group 20" transform="translate(132.849 96.389)">
          <rect id="Rectangle_8" data-name="Rectangle 8" width="2.351" height="4.386" fill="#fc6679"/>
        </g>
      </g>
      <g id="Group_26" data-name="Group 26" transform="translate(53.052 35.662)">
        <g id="Group_22" data-name="Group 22" transform="translate(12.119 14.021)">
          <path id="Path_16" data-name="Path 16" d="M242.355,139.78c-2.237,1.82-.381,4.388-.03,4.835.016.022-.022.046-.062.034-.773-.2-5.213-1.275-8.369.016-.042.014-.093-.012-.06-.036,2.233-1.824.346-4.4-.01-4.851-.018-.022.022-.048.062-.038.777.205,5.252,1.293,8.4,0C242.339,139.724,242.388,139.754,242.355,139.78Z" transform="translate(-233.819 -139.736)" fill="#fc6679"/>
        </g>
        <g id="Group_23" data-name="Group 23" transform="translate(0 7.024)">
          <path id="Path_17" data-name="Path 17" d="M236.34,136.3c-2.237,1.82-.383,4.39-.032,4.837.018.02-.022.044-.062.034-.771-.2-5.215-1.277-8.369.014-.042.018-.091-.01-.06-.038,2.233-1.82.346-4.4-.01-4.849-.02-.024.022-.046.062-.034.777.205,5.252,1.291,8.407,0C236.322,136.248,236.37,136.278,236.34,136.3Z" transform="translate(-227.8 -136.262)" fill="#fc6679"/>
        </g>
        <g id="Group_24" data-name="Group 24" transform="translate(24.288 6.996)">
          <path id="Path_18" data-name="Path 18" d="M248.4,136.291c-2.237,1.82-.385,4.388-.032,4.833.016.024-.024.048-.064.04-.771-.207-5.213-1.279-8.365.01-.044.02-.1-.008-.064-.036,2.235-1.82.348-4.4-.008-4.849-.018-.024.022-.048.064-.036.775.205,5.252,1.293,8.4,0C248.38,136.236,248.433,136.263,248.4,136.291Z" transform="translate(-239.862 -136.248)" fill="#fc6679"/>
        </g>
        <g id="Group_25" data-name="Group 25" transform="translate(12.169)">
          <path id="Path_19" data-name="Path 19" d="M242.382,132.813c-2.235,1.822-.383,4.392-.034,4.837.018.026-.02.046-.06.036-.773-.2-5.213-1.277-8.367.014-.046.018-.1-.012-.062-.038,2.233-1.82.346-4.4-.01-4.849-.018-.024.02-.044.06-.034.779.205,5.256,1.289,8.411,0C242.362,132.762,242.415,132.789,242.382,132.813Z" transform="translate(-233.844 -132.774)" fill="#fc6679"/>
        </g>
      </g>
    </g>
    <g id="Group_259" data-name="Group 259" transform="translate(242.652 36.769)">
      <g id="Group_241" data-name="Group 241" transform="translate(0.693 3.288)">
        <g id="Group_218" data-name="Group 218" transform="translate(41.394 165.08)">
          <path id="Path_408" data-name="Path 408" d="M244.152,114.294a.427.427,0,0,1-.189.264c-1.327.842-10.711,7.269-3.79,16.589,4.627,6.234,3.766,9.293,2.459,10.711a.449.449,0,0,0,.437.745c3.21-.864,8.506-3.7,5.576-12.974-3.751-11.863,5.236-7.541,4.9-2.286a.45.45,0,0,0,.777.346c1.967-2.131,5.395-7.324-.767-13.226C246.2,107.421,244.414,113.2,244.152,114.294Z" transform="translate(-237.045 -110.418)" fill="#fff"/>
          <path id="Path_409" data-name="Path 409" d="M243.255,143.532a1.043,1.043,0,0,1-.9-.507,1.057,1.057,0,0,1,.131-1.271c1.744-1.891.856-5.421-2.5-9.942-2.185-2.942-3.019-5.908-2.479-8.814.894-4.827,5.338-7.942,6.375-8.611.191-.759.91-2.932,2.908-3.52,1.963-.578,4.487.588,7.487,3.464,6.609,6.329,2.757,11.951.791,14.076a1.042,1.042,0,0,1-1.184.254,1.055,1.055,0,0,1-.64-1.051,4.912,4.912,0,0,0-2.529-4.408,1.417,1.417,0,0,0-1.5-.038c-.328.28-1.273,1.581.31,6.589,1.224,3.876,1.174,7.074-.157,9.507a9.179,9.179,0,0,1-5.84,4.235,1.084,1.084,0,0,1-.273.037Zm4.569-31.6a2.463,2.463,0,0,0-.689.1c-1.438.423-1.961,2.181-2.088,2.708h0a1.033,1.033,0,0,1-.455.636c-.838.532-5.066,3.411-5.89,7.841-.475,2.563.286,5.211,2.263,7.872,4.44,5.985,4.054,9.3,2.743,11.089a7.765,7.765,0,0,0,4.6-3.5c1.162-2.128,1.184-5.008.064-8.558-1.611-5.093-.858-7.094.056-7.876a2.5,2.5,0,0,1,2.833-.125,6.181,6.181,0,0,1,3.208,5.147c2.074-2.406,4.346-6.911-1.029-12.056C251.191,113.052,249.27,111.937,247.824,111.937Z" transform="translate(-237.351 -110.724)" fill="#9b2a39"/>
        </g>
        <g id="Group_219" data-name="Group 219" transform="translate(47.131 165.081)">
          <path id="Path_410" data-name="Path 410" d="M250.783,120.151c-1-2.173-.741-3.373-.264-4.023a1.15,1.15,0,0,0-.254-1.635c-1.981-1.381-5.034-3.474-5.765-3.468,1.353,6.218-3.182,6.81-3.925,10.717-.8,4.184,5.214,8.917,5.385,9-.1-.368-.183-.731-.308-1.122-3.023-9.565,2.233-8.607,4.207-5.123C250.382,123.349,251.774,122.284,250.783,120.151Z" transform="translate(-239.893 -110.419)" fill="#9b2a39"/>
          <path id="Path_411" data-name="Path 411" d="M247.2,132.208l-1.2-.616c-.066-.034-6.6-4.938-5.707-9.658a8.188,8.188,0,0,1,2.108-3.8c1.333-1.607,2.594-3.121,1.82-6.671l-.157-.729.745-.006h.008c.62,0,1.828.592,6.11,3.578a1.71,1.71,0,0,1,.723,1.138,1.775,1.775,0,0,1-.326,1.353c-.5.685-.391,1.863.326,3.407h0a3.838,3.838,0,0,1-.5,4.134,6.782,6.782,0,0,0-.421.725l-.491,1.083-.586-1.035c-.906-1.6-2.439-2.414-3.2-2.078-.82.356-1.285,2.33.1,6.718.1.322.181.628.26.928Zm-1.611-19.934c.425,3.4-.995,5.107-2.259,6.631a7.107,7.107,0,0,0-1.847,3.256c-.481,2.521,1.945,5.455,3.653,7.112-1.534-5.395-.169-6.927.82-7.356,1.236-.544,2.97.23,4.174,1.748a2.64,2.64,0,0,0,.417-2.956c-.928-2-1-3.558-.205-4.636a.575.575,0,0,0,.109-.433.51.51,0,0,0-.22-.344c-2.488-1.731-3.879-2.607-4.646-3.021Z" transform="translate(-240.2 -110.724)" fill="#9b2a39"/>
        </g>
        <g id="Group_220" data-name="Group 220" transform="translate(0 40.542)">
          <path id="Path_412" data-name="Path 412" d="M237.566,50.592l.006-.008s-13.7-5.312-19.084,4.609,6.55,18.507,6.55,18.507v-.008c1.756,1.486,4.414,1.506,7.358-.3,5.093-3.123,9.09-10.5,8.929-16.466C241.237,53.47,239.771,51.255,237.566,50.592Z" transform="translate(-216.494 -48.588)" fill="#ff919f"/>
          <path id="Path_413" data-name="Path 413" d="M228.406,75.682a5.25,5.25,0,0,1-3.351-1.148l-.07-.052c-.123-.089-12.306-9.015-6.73-19.287s19.694-4.94,19.837-4.887l.1.04a5.211,5.211,0,0,1,.493.191l.07.026v.006c2.139.993,3.4,3.361,3.484,6.625.165,6.154-3.971,13.782-9.217,17A8.97,8.97,0,0,1,228.406,75.682Zm-3.226-2.62.554.459c1.625,1.371,4.048,1.24,6.651-.358,4.917-3.017,8.794-10.165,8.639-15.934-.083-3.053-1.3-5.155-3.331-5.765l-.737-.222.018-.03c-2.769-.878-13.254-3.544-17.654,4.561-4.428,8.16,3.649,15.522,5.846,17.312Z" transform="translate(-216.795 -48.878)" fill="#9b2a39"/>
        </g>
        <g id="Group_221" data-name="Group 221" transform="translate(39.101 147.969)">
          <path id="Path_414" data-name="Path 414" d="M261.543,116.363h.01s-1.764-13.83-12.479-13.836S236.6,116.363,236.6,116.363h.006c-.443,2.135.743,4.364,3.582,6,4.909,2.835,12.866,2.835,17.777,0C260.8,120.727,261.99,118.5,261.543,116.363Z" transform="translate(-235.906 -101.921)" fill="#ff919f"/>
          <path id="Path_415" data-name="Path 415" d="M249.381,125.39a18.781,18.781,0,0,1-9.191-2.195c-2.932-1.692-4.344-4.062-3.9-6.522l.01-.081c.018-.143,1.957-14.366,13.071-14.366h.006c11.12.006,13.059,14.223,13.081,14.366l.012.113a4.292,4.292,0,0,1,.06.477l.014.1h0c.131,2.241-1.281,4.366-3.971,5.918a18.783,18.783,0,0,1-9.192,2.195Zm-11.756-9.327h.028l-.147.729c-.407,1.961.791,3.911,3.29,5.354,4.732,2.731,12.435,2.733,17.169,0,2.5-1.444,3.7-3.393,3.292-5.354l-.153-.729h.036c-.528-2.721-3.047-12.62-11.76-12.624h-.006c-8.72,0-11.227,9.9-11.749,12.623Z" transform="translate(-236.213 -102.226)" fill="#9b2a39"/>
        </g>
        <g id="Group_222" data-name="Group 222" transform="translate(45.912 127.262)">
          <path id="Path_416" data-name="Path 416" d="M239.9,92.305v21.247a2.827,2.827,0,0,0,1.681,2.4,8.992,8.992,0,0,0,8.135,0A2.855,2.855,0,0,0,251.4,113.6h0V92.247Z" transform="translate(-239.289 -91.635)" fill="#9b2a39"/>
          <path id="Path_417" data-name="Path 417" d="M245.953,117.843a8.88,8.88,0,0,1-4.37-1.061,3.4,3.4,0,0,1-1.988-2.936V92.011l12.719-.068v21.965a3.427,3.427,0,0,1-1.99,2.874A8.893,8.893,0,0,1,245.953,117.843ZM240.81,93.216v20.646a2.266,2.266,0,0,0,1.379,1.871,8.337,8.337,0,0,0,7.527,0,2.3,2.3,0,0,0,1.383-1.824V93.163Z" transform="translate(-239.595 -91.943)" fill="#9b2a39"/>
        </g>
        <g id="Group_225" data-name="Group 225" transform="translate(21.821 94.249)">
          <g id="Group_223" data-name="Group 223" transform="translate(0.02)">
            <path id="Path_418" data-name="Path 418" d="M228.163,95.185h-.016s4.241,32.823,29.672,32.791,29.559-32.9,29.559-32.9h-.02C288.4,90,285.58,84.724,278.836,80.845c-11.665-6.706-30.558-6.673-42.2.077C229.907,84.827,227.1,90.119,228.163,95.185Z" transform="translate(-227.334 -75.252)" fill="#fff"/>
            <path id="Path_419" data-name="Path 419" d="M258.092,128.882c-25.64,0-30.2-32.986-30.242-33.319l-.032-.264c-.991-5.461,2.207-10.767,8.822-14.6,11.794-6.832,30.993-6.867,42.8-.075,6.663,3.832,9.881,9.168,8.858,14.664l-.018.171c-.04.332-4.489,33.393-30.157,33.425ZM229.153,96.046c.771,4.541,6.319,31.621,28.939,31.621h.034c22.6-.028,28.075-27.012,28.85-31.682h-.036l.133-.731c1.035-5.026-1.963-9.978-8.234-13.582-11.476-6.6-30.133-6.567-41.589.075-6.257,3.627-9.241,8.588-8.184,13.611l.141.687Z" transform="translate(-227.641 -75.549)" fill="#9b2a39"/>
          </g>
          <g id="Group_224" data-name="Group 224">
            <path id="Path_420" data-name="Path 420" d="M278.867,80.887c11.651,6.728,11.651,17.636,0,24.362s-30.544,6.73-42.2,0-11.649-17.636,0-24.364S267.214,74.159,278.867,80.887Z" transform="translate(-227.324 -75.253)" fill="#9b2a39"/>
            <path id="Path_421" data-name="Path 421" d="M258.074,111.181c-7.751,0-15.5-1.7-21.4-5.109-5.832-3.367-9.044-7.88-9.044-12.708s3.212-9.34,9.044-12.7c11.8-6.814,31-6.814,42.8,0h0c5.832,3.365,9.043,7.878,9.043,12.7s-3.212,9.342-9.043,12.708C273.576,109.478,265.827,111.181,258.074,111.181Zm0-34.436c-7.529,0-15.058,1.655-20.793,4.964-5.439,3.141-8.435,7.28-8.435,11.655s3,8.516,8.435,11.657c11.466,6.621,30.121,6.621,41.591,0,5.439-3.141,8.435-7.28,8.435-11.657s-3-8.514-8.435-11.655c-5.735-3.309-13.265-4.964-20.8-4.964Z" transform="translate(-227.631 -75.549)" fill="#9b2a39"/>
          </g>
        </g>
        <g id="Group_228" data-name="Group 228" transform="translate(2.966 22.35)">
          <g id="Group_226" data-name="Group 226" transform="translate(0 13.78)">
            <path id="Path_422" data-name="Path 422" d="M315.95,105.33a16.67,16.67,0,0,0-.419-3.637c-1.19-8.748-5.447-31.969-19.025-54.69l-29.251,2.463L238.006,47c-13.576,22.721-17.833,45.943-19.025,54.69-1.875,8.355,2.731,17.1,13.844,23.516,19.017,10.979,49.847,10.979,68.864,0,9.507-5.489,14.261-12.684,14.261-19.879Z" transform="translate(-217.957 -46.367)" fill="#fff"/>
            <path id="Path_423" data-name="Path 423" d="M267.566,134.347c-12.58,0-25.159-2.763-34.732-8.292-11.007-6.353-16.156-15.163-14.134-24.174,1.208-8.882,5.5-32.118,19.1-54.869l.193-.324,29.626,2.495,29.527-2.495.2.324c13.6,22.755,17.89,45.989,19.106,54.92a17.047,17.047,0,0,1,.423,3.719c0,7.735-5.171,14.982-14.565,20.4C292.725,131.585,280.149,134.347,267.566,134.347ZM238.645,47.96c-13.327,22.453-17.553,45.318-18.752,54.136-1.911,8.508,3.033,16.839,13.544,22.91,18.818,10.862,49.438,10.862,68.258,0,9-5.2,13.959-12.074,13.959-19.356a15.966,15.966,0,0,0-.4-3.5c-1.208-8.866-5.431-31.73-18.762-54.187L267.616,50.39Z" transform="translate(-218.268 -46.687)" fill="#9b2a39"/>
          </g>
          <g id="Group_227" data-name="Group 227" transform="translate(18.855)">
            <path id="Path_424" data-name="Path 424" d="M278.867,45.183c11.651,6.726,11.651,17.632,0,24.362s-30.544,6.728-42.2,0-11.649-17.636,0-24.362S267.214,38.455,278.867,45.183Z" transform="translate(-227.324 -39.546)" fill="#ff919f"/>
            <path id="Path_425" data-name="Path 425" d="M258.074,75.477c-7.751,0-15.5-1.7-21.4-5.109-5.832-3.367-9.044-7.88-9.044-12.708s3.212-9.34,9.044-12.706c11.8-6.812,31-6.812,42.8,0h0c5.832,3.367,9.043,7.88,9.043,12.706s-3.208,9.34-9.039,12.708C273.576,73.773,265.827,75.477,258.074,75.477Zm0-34.436c-7.529,0-15.058,1.653-20.793,4.966-5.439,3.139-8.435,7.28-8.435,11.653s3,8.516,8.435,11.657c11.466,6.621,30.121,6.621,41.591,0,5.439-3.141,8.435-7.282,8.435-11.657s-3-8.514-8.435-11.653c-5.735-3.313-13.265-4.967-20.8-4.967Z" transform="translate(-227.631 -39.844)" fill="#9b2a39"/>
          </g>
        </g>
        <g id="Group_229" data-name="Group 229" transform="translate(21.841)">
          <path id="Path_426" data-name="Path 426" d="M287.355,61.889h.018s-4.184-32.829-29.618-32.843-29.613,32.843-29.613,32.843h.018c-1.055,5.07,1.76,10.356,8.5,14.247,11.653,6.728,30.544,6.728,42.2,0C285.593,72.246,288.41,66.96,287.355,61.889Z" transform="translate(-227.333 -28.44)" fill="#fff"/>
          <path id="Path_427" data-name="Path 427" d="M258.064,82.076c-7.749,0-15.5-1.7-21.4-5.109-6.657-3.842-9.863-9.18-8.834-14.676l.018-.173c.042-.334,4.549-33.373,30.2-33.373h.016c25.671.014,30.175,33.039,30.22,33.373l.032.248c.987,5.469-2.221,10.775-8.848,14.6C273.565,80.372,265.817,82.076,258.064,82.076ZM229.157,61.588h.04l-.135.731c-1.047,5.024,1.947,9.98,8.208,13.6,11.466,6.621,30.121,6.621,41.591,0,6.263-3.617,9.253-8.57,8.208-13.6l-.151-.731h.054c-.787-4.67-6.327-31.619-28.909-31.629h-.016C235.478,29.959,229.945,56.919,229.157,61.588Z" transform="translate(-227.641 -28.745)" fill="#9b2a39"/>
        </g>
        <g id="Group_230" data-name="Group 230" transform="translate(46.188 2.42)">
          <ellipse id="Ellipse_1" data-name="Ellipse 1" cx="5.475" cy="3.161" rx="5.475" ry="3.161" transform="translate(0.607 0.613)" fill="#ff919f"/>
          <path id="Path_428" data-name="Path 428" d="M245.813,37.495a8.476,8.476,0,0,1-4.172-1.013,3.3,3.3,0,0,1-1.909-2.761,3.3,3.3,0,0,1,1.909-2.761,9.1,9.1,0,0,1,8.349,0h0a3.3,3.3,0,0,1,1.907,2.761,3.3,3.3,0,0,1-1.907,2.761A8.525,8.525,0,0,1,245.813,37.495Zm0-6.321a7.317,7.317,0,0,0-3.568.838,2.158,2.158,0,0,0-1.3,1.71,2.161,2.161,0,0,0,1.3,1.71,8.025,8.025,0,0,0,7.139,0,2.161,2.161,0,0,0,1.3-1.71,2.158,2.158,0,0,0-1.3-1.71h0A7.325,7.325,0,0,0,245.813,31.174Z" transform="translate(-239.732 -29.947)" fill="#9b2a39"/>
        </g>
        <g id="Group_231" data-name="Group 231" transform="translate(80.62 48.632)">
          <path id="Path_429" data-name="Path 429" d="M267.855,81.976v.01s15.763-3.435,14.686-15.783-17.215-12.978-17.215-12.978v.008c-2.505-.3-4.952,1.3-6.553,4.734-2.771,5.946-1.963,15.121,1.8,20.491C262.748,81.563,265.437,82.705,267.855,81.976Z" transform="translate(-256.531 -52.589)" fill="#ff919f"/>
          <path id="Path_430" data-name="Path 430" d="M266.7,83.106c-2.261,0-4.5-1.393-6.323-3.993-3.872-5.522-4.7-14.984-1.855-21.1,1.635-3.512,4.2-5.371,7.032-5.1h.1c.167.006,16.681.8,17.793,13.53s-15,16.394-15.159,16.43l-.111.022a5.247,5.247,0,0,1-.57.125l-.054.012h0a5.744,5.744,0,0,1-.848.069Zm-1.665-29c-2.141,0-4.092,1.583-5.415,4.42-2.682,5.761-1.9,14.682,1.75,19.885,1.939,2.769,4.348,3.965,6.609,3.286l.781-.238v.04c3.037-.862,14.36-4.779,13.472-14.944-.9-10.308-13.069-12.1-16-12.376v.028l-.679-.072a4.5,4.5,0,0,0-.518-.024Z" transform="translate(-256.831 -52.896)" fill="#9b2a39"/>
        </g>
        <g id="Group_232" data-name="Group 232" transform="translate(23.515 11.172)">
          <path id="Path_431" data-name="Path 431" d="M241.95,45.871c-5.115-2.952-7.1-7.143-5.908-11.039a.178.178,0,0,0-.312-.163,47.758,47.758,0,0,0-6.722,14.076c-1.093,4.8,1.659,9.919,8.045,13.6,5.326,3.077,12.268,4.638,19.245,4.7a7.471,7.471,0,0,0,6.6-3.844l.064-.117a10.342,10.342,0,0,0-.346-10.65h0a6.457,6.457,0,0,0-5.427-3A30.667,30.667,0,0,1,241.95,45.871Z" transform="translate(-228.167 -33.988)" fill="#ff919f"/>
          <path id="Path_432" data-name="Path 432" d="M256.673,67.962H256.6c-7.382-.07-14.323-1.766-19.543-4.781-6.412-3.7-9.527-9.035-8.333-14.267a48.768,48.768,0,0,1,6.818-14.3.786.786,0,0,1,1.385.7c-1.152,3.774.955,7.638,5.632,10.34h0A29.744,29.744,0,0,0,257.2,49.14h.34a7.023,7.023,0,0,1,5.89,3.272,10.942,10.942,0,0,1,.367,11.275l-.068.117a8.065,8.065,0,0,1-7.056,4.158Zm-21.263-31a49.156,49.156,0,0,0-5.51,12.263c-1.059,4.644,1.841,9.483,7.767,12.906,5.042,2.91,11.77,4.551,18.947,4.619a6.81,6.81,0,0,0,6.061-3.534l.064-.119a9.72,9.72,0,0,0-.326-10.024,5.884,5.884,0,0,0-4.871-2.721H257.2A30.956,30.956,0,0,1,241.955,46.7h0c-4.406-2.54-6.737-6.076-6.544-9.737Z" transform="translate(-228.472 -34.293)" fill="#9b2a39"/>
        </g>
        <g id="Group_233" data-name="Group 233" transform="translate(23.515 11.172)">
          <path id="Path_433" data-name="Path 433" d="M256.68,64.242c-6.977-.064-11.17-.656-16.9-3.711-6.5-3.47-9.821-7.586-8.045-13.607a51.974,51.974,0,0,1,3.979-9.67,7.561,7.561,0,0,1,.324-2.422.178.178,0,0,0-.312-.163A47.81,47.81,0,0,0,229,48.745c-1.093,4.8,1.659,9.919,8.045,13.6a39.287,39.287,0,0,0,19.245,4.7c2.755,0,4.813-1.977,6.22-3.447a.127.127,0,0,0-.143-.2,18.112,18.112,0,0,1-5.691.844Z" transform="translate(-228.167 -33.988)" fill="#9b2a39"/>
          <path id="Path_434" data-name="Path 434" d="M256.6,67.962a39.681,39.681,0,0,1-19.547-4.781c-6.412-3.7-9.527-9.035-8.333-14.267a48.818,48.818,0,0,1,6.818-14.3.786.786,0,0,1,1.385.7,6.981,6.981,0,0,0-.3,2.229l.006.161-.079.145a51.59,51.59,0,0,0-3.931,9.557c-1.545,5.236.846,9.213,7.749,12.9,5.652,3.017,9.863,3.578,16.617,3.641h0a17.236,17.236,0,0,0,5.491-.81.732.732,0,0,1,.777,1.194C261.452,66.214,259.392,67.962,256.6,67.962ZM235.42,36.943a49.2,49.2,0,0,0-5.52,12.282c-1.057,4.644,1.841,9.483,7.767,12.906A38.452,38.452,0,0,0,256.6,66.75a6.805,6.805,0,0,0,4.454-1.979,20.377,20.377,0,0,1-4.078.385c-6.953-.066-11.3-.648-17.175-3.786-7.408-3.949-10.056-8.5-8.341-14.311a52.682,52.682,0,0,1,3.951-9.648c0-.158,0-.311.012-.468Z" transform="translate(-228.472 -34.293)" fill="#9b2a39"/>
        </g>
        <g id="Group_234" data-name="Group 234" transform="translate(28.803 22.046)">
          <path id="Path_435" data-name="Path 435" d="M235.108,43.966c-.167,2.112-1.128,3.758-2.145,3.677s-1.706-1.857-1.538-3.967,1.126-3.76,2.143-3.679S235.275,41.856,235.108,43.966Z" transform="translate(-230.793 -39.387)" fill="#fff"/>
          <path id="Path_436" data-name="Path 436" d="M233.343,48.559h-.123c-1.4-.111-2.294-2.1-2.094-4.623s1.412-4.338,2.8-4.235,2.294,2.1,2.094,4.623a6.985,6.985,0,0,1-.834,2.918,2.241,2.241,0,0,1-1.843,1.317ZM233.8,40.9c-.5,0-1.317,1.218-1.468,3.123-.153,1.935.489,3.278.981,3.317.226.012.552-.256.82-.717a5.84,5.84,0,0,0,.671-2.4c.157-1.935-.487-3.278-.981-3.317Z" transform="translate(-231.098 -39.693)" fill="#9b2a39"/>
        </g>
        <g id="Group_235" data-name="Group 235" transform="translate(42.59 28.917)">
          <path id="Path_437" data-name="Path 437" d="M246.927,47.814a4.341,4.341,0,1,1-4.309-4.408A4.341,4.341,0,0,1,246.927,47.814Z" transform="translate(-237.64 -42.8)" fill="#fff"/>
          <path id="Path_438" data-name="Path 438" d="M242.893,53.073h-.036a4.991,4.991,0,0,1-3.439-8.53,4.871,4.871,0,0,1,3.508-1.438,4.99,4.99,0,0,1,3.441,8.53,4.9,4.9,0,0,1-3.474,1.438Zm0-8.756a3.7,3.7,0,0,0-2.62,1.085,3.779,3.779,0,0,0,2.6,6.456,3.584,3.584,0,0,0,2.646-1.083,3.776,3.776,0,0,0,1.114-2.662l.606.006-.606-.006a3.757,3.757,0,0,0-3.707-3.8Z" transform="translate(-237.945 -43.105)" fill="#9b2a39"/>
        </g>
        <g id="Group_236" data-name="Group 236" transform="translate(8.054 66.852)">
          <path id="Path_439" data-name="Path 439" d="M271.759,81.7l-2.968-9.168a2.639,2.639,0,0,0-2.576-1.808,57.426,57.426,0,0,1-30.733-8.075,2.65,2.65,0,0,0-3.409.513l-3.625,4.2a23.336,23.336,0,0,0-4.946,9.321c-5.054,19.372-.59,27.509-.518,27.64a37.955,37.955,0,0,0,7.211,5.3c11.2,6.464,26.488,9.118,41.053,7.97,3.506-9.738,2.932-21.528,2.237-27.916a39.9,39.9,0,0,0-1.726-7.977Z" transform="translate(-220.489 -61.636)" fill="#ff919f"/>
          <path id="Path_440" data-name="Path 440" d="M264.813,118.777c-12.942,0-25.28-2.926-34.615-8.317a38.681,38.681,0,0,1-7.326-5.389l-.113-.145c-.187-.344-4.609-8.643.461-28.085a24.029,24.029,0,0,1,5.075-9.567l3.625-4.2a3.243,3.243,0,0,1,4.189-.632,56.888,56.888,0,0,0,30.4,7.982,3.279,3.279,0,0,1,3.16,2.229l2.97,9.166a40.846,40.846,0,0,1,1.752,8.1c.683,6.277,1.3,18.282-2.267,28.188l-.133.368-.393.03C269.33,118.69,267.062,118.777,264.813,118.777Zm-41.031-14.515a37.459,37.459,0,0,0,7.024,5.149c10.656,6.15,25.326,9.029,40.31,7.92,3.335-9.605,2.737-21.182,2.074-27.276a39.847,39.847,0,0,0-1.7-7.861l-2.97-9.166a2.03,2.03,0,0,0-1.953-1.391h-.036a58.191,58.191,0,0,1-31.061-8.164,2.041,2.041,0,0,0-2.63.393l-3.625,4.2a22.859,22.859,0,0,0-4.819,9.08c-4.7,18.014-1.037,26.254-.614,27.116Z" transform="translate(-220.794 -61.944)" fill="#9b2a39"/>
        </g>
        <g id="Group_237" data-name="Group 237" transform="translate(11.865 103.401)">
          <path id="Path_441" data-name="Path 441" d="M225.693,82.332c0,1.069-.606,1.935-1.351,1.935s-1.355-.866-1.355-1.935.608-1.937,1.355-1.937S225.693,81.263,225.693,82.332Z" transform="translate(-222.383 -79.789)" fill="#fff"/>
          <path id="Path_442" data-name="Path 442" d="M224.646,85.183c-1.1,0-1.959-1.12-1.959-2.545s.86-2.543,1.959-2.543,1.957,1.116,1.957,2.543S225.744,85.183,224.646,85.183Zm0-3.876c-.352,0-.747.57-.747,1.331s.4,1.331.747,1.331.745-.57.745-1.331-.391-1.332-.745-1.332Z" transform="translate(-222.687 -80.094)" fill="#9b2a39"/>
        </g>
        <g id="Group_238" data-name="Group 238" transform="translate(19.221 71.07)">
          <path id="Path_443" data-name="Path 443" d="M229.3,66.784c-.5.944-1.432,1.432-2.082,1.087s-.767-1.389-.264-2.336,1.434-1.43,2.082-1.085S229.8,65.837,229.3,66.784Z" transform="translate(-226.035 -63.733)" fill="#fff"/>
          <path id="Path_444" data-name="Path 444" d="M227.981,68.891a1.548,1.548,0,0,1-.743-.181,1.76,1.76,0,0,1-.882-1.408,3.213,3.213,0,0,1,1.607-3.027,1.779,1.779,0,0,1,1.661-.058c.959.509,1.186,1.895.518,3.153h0a3.036,3.036,0,0,1-1.242,1.283A2,2,0,0,1,227.981,68.891Zm.9-3.641a.847.847,0,0,0-.36.1,2.008,2.008,0,0,0-.963,1.812.47.47,0,0,0,.777.413,1.849,1.849,0,0,0,.731-.771c.356-.675.286-1.355-.014-1.516a.366.366,0,0,0-.167-.038Z" transform="translate(-226.34 -64.038)" fill="#9b2a39"/>
        </g>
        <g id="Group_239" data-name="Group 239" transform="translate(51.426 114.863)">
          <path id="Path_445" data-name="Path 445" d="M246.509,88.023a1.938,1.938,0,1,1-1.937-1.937,1.938,1.938,0,0,1,1.937,1.937Z" transform="translate(-242.029 -85.482)" fill="#fff"/>
          <path id="Path_446" data-name="Path 446" d="M244.876,90.871a2.542,2.542,0,1,1,2.545-2.543,2.542,2.542,0,0,1-2.545,2.543Zm0-3.872a1.329,1.329,0,1,0,1.329,1.329A1.329,1.329,0,0,0,244.876,87Z" transform="translate(-242.333 -85.786)" fill="#9b2a39"/>
        </g>
        <g id="Group_240" data-name="Group 240" transform="translate(49.034 79.783)">
          <path id="Path_447" data-name="Path 447" d="M245.321,70.6a1.937,1.937,0,1,1-1.937-1.937,1.937,1.937,0,0,1,1.937,1.937Z" transform="translate(-240.839 -68.06)" fill="#fff"/>
          <path id="Path_448" data-name="Path 448" d="M243.69,73.452a2.543,2.543,0,1,1,2.541-2.543,2.543,2.543,0,0,1-2.541,2.543Zm0-3.874a1.331,1.331,0,1,0,1.331,1.331,1.331,1.331,0,0,0-1.331-1.331Z" transform="translate(-241.145 -68.365)" fill="#9b2a39"/>
        </g>
      </g>
      <g id="Group_242" data-name="Group 242" transform="translate(85.834 65.435)">
        <path id="Path_449" data-name="Path 449" d="M267.091,75.622c-8.039-3.969-8.018-15.524-8.015-16.015l1.212.01c0,.113-.012,11.287,7.342,14.917Z" transform="translate(-259.076 -59.607)" fill="#9b2a39"/>
      </g>
      <g id="Group_243" data-name="Group 243" transform="translate(85.836 55.669)">
        <path id="Path_450" data-name="Path 450" d="M260.287,61.946l-1.21-.091a15.46,15.46,0,0,1,2.443-7.1l.975.725A14.387,14.387,0,0,0,260.287,61.946Z" transform="translate(-259.077 -54.757)" fill="#9b2a39"/>
      </g>
      <g id="Group_244" data-name="Group 244" transform="translate(3.598 47.016)">
        <path id="Path_451" data-name="Path 451" d="M218.319,60.766c-.046-.248-1.031-6.112,5.342-10.306l.665,1.015c-5.707,3.758-4.825,9.021-4.815,9.076Z" transform="translate(-218.238 -50.46)" fill="#9b2a39"/>
      </g>
      <g id="Group_245" data-name="Group 245" transform="translate(43.808 10.638)">
        <path id="Path_452" data-name="Path 452" d="M247.666,37.941c-7.559,0-9.38-4.915-9.46-5.139l1.144-.407c.075.205,1.9,5.006,9.988,4.251l.113,1.208Q248.508,37.942,247.666,37.941Z" transform="translate(-238.206 -32.395)" fill="#9b2a39"/>
      </g>
      <g id="Group_246" data-name="Group 246" transform="translate(64.831 113.554)">
        <path id="Path_453" data-name="Path 453" d="M248.8,92l-.149-1.2c.121-.014,12.191-1.571,21.635-7.3l.626,1.039C261.238,90.4,248.918,91.991,248.8,92Z" transform="translate(-248.646 -83.503)" fill="#9b2a39"/>
      </g>
      <g id="Group_247" data-name="Group 247" transform="translate(95.78 99.173)">
        <path id="Path_454" data-name="Path 454" d="M264.746,82.422l-.731-.969a9.354,9.354,0,0,0,2.811-5.093l1.18.278a10.334,10.334,0,0,1-3.26,5.784Z" transform="translate(-264.015 -76.361)" fill="#9b2a39"/>
      </g>
      <g id="Group_248" data-name="Group 248" transform="translate(35.28 138.953)">
        <path id="Path_455" data-name="Path 455" d="M250.308,104.805c-11.851-.28-16.16-7.779-16.337-8.1l1.059-.592c.04.072,4.182,7.213,15.306,7.477Z" transform="translate(-233.971 -96.116)" fill="#9b2a39"/>
      </g>
      <g id="Group_249" data-name="Group 249" transform="translate(42.431 166.617)">
        <path id="Path_456" data-name="Path 456" d="M247.375,114.878a12.956,12.956,0,0,1-9.853-4.267l.948-.757a11.923,11.923,0,0,0,10.512,3.719l.135,1.206a15.872,15.872,0,0,1-1.742.1Z" transform="translate(-237.522 -109.854)" fill="#9b2a39"/>
      </g>
      <g id="Group_250" data-name="Group 250" transform="translate(32.074 0.004)">
        <path id="Path_457" data-name="Path 457" d="M233.239,36.387l-.86-.854a32.948,32.948,0,0,1,18.766-8.419l.129,1.2a32.286,32.286,0,0,0-18.035,8.073Z" transform="translate(-232.379 -27.114)" fill="#9b2a39"/>
      </g>
      <g id="Group_251" data-name="Group 251" transform="translate(67.477 136.625)">
        <path id="Path_458" data-name="Path 458" d="M250.578,108.987l-.618-1.043c.079-.048,8.143-4.925,11.659-12.984l1.112.487C259.056,103.869,250.925,108.782,250.578,108.987Z" transform="translate(-249.96 -94.96)" fill="#9b2a39"/>
      </g>
      <g id="Group_252" data-name="Group 252" transform="translate(47.185 195.665)">
        <path id="Path_459" data-name="Path 459" d="M243.449,140.431a3.031,3.031,0,0,1-.944-.155A3.9,3.9,0,0,1,239.9,137c-.1-1,.159-2.916,2.952-4.456a17.19,17.19,0,0,0,7.507-8.268l1.142.411a18.192,18.192,0,0,1-8.061,8.921c-1.623.892-2.449,2.058-2.334,3.278a2.7,2.7,0,0,0,1.774,2.233,1.565,1.565,0,0,0,1.762-.479l.91.8A2.767,2.767,0,0,1,243.449,140.431Z" transform="translate(-239.883 -124.279)" fill="#9b2a39"/>
      </g>
      <g id="Group_253" data-name="Group 253" transform="translate(51.045 207.536)">
        <path id="Path_460" data-name="Path 460" d="M245.682,133.611a3.182,3.182,0,0,0-1.526-1.992,2.782,2.782,0,0,0-1.937-.1l-.419-1.138a3.99,3.99,0,0,1,2.882.147,4.337,4.337,0,0,1,2.151,2.7Z" transform="translate(-241.8 -130.174)" fill="#9b2a39"/>
      </g>
      <g id="Group_254" data-name="Group 254" transform="translate(0 76.384)">
        <path id="Path_461" data-name="Path 461" d="M217.651,85.844l-1.2-.187c.02-.131,2.06-13.153,4.575-20.612l1.15.387C219.7,72.791,217.671,85.713,217.651,85.844Z" transform="translate(-216.451 -65.044)" fill="#9b2a39"/>
      </g>
      <g id="Group_255" data-name="Group 255" transform="translate(54.195)">
        <path id="Path_462" data-name="Path 462" d="M251.226,29.325c-2.36-.866-7.807-1-7.862-1l.028-1.212c.23.006,5.7.139,8.252,1.073Z" transform="translate(-243.364 -27.112)" fill="#9b2a39"/>
      </g>
      <g id="Group_256" data-name="Group 256" transform="translate(61.261 150.101)">
        <path id="Path_463" data-name="Path 463" d="M247.187,104.608l-.314-1.172a32.9,32.9,0,0,0,4.75-1.784l.518,1.1a33.136,33.136,0,0,1-4.954,1.856Z" transform="translate(-246.873 -101.652)" fill="#9b2a39"/>
      </g>
      <g id="Group_258" data-name="Group 258" transform="translate(21.788 87.489)">
        <g id="Group_257" data-name="Group 257">
          <path id="Path_464" data-name="Path 464" d="M242.328,93.04l-.177-1.51a2.026,2.026,0,0,0-1.627-1.712l-4.525-.9a1.744,1.744,0,0,0-1.967.967l-.6,1.351a1.7,1.7,0,0,1-1.937.944l-2.654-.55a1.914,1.914,0,0,1-1.391-2.644l8.631-17.4a1.865,1.865,0,0,1,1.979-1l5.654.9a1.988,1.988,0,0,1,1.653,1.6l3.592,20.242a1.784,1.784,0,0,1-2.223,2.01l-2.777-.574a2.043,2.043,0,0,1-1.631-1.724Zm-3.353-8.564a1.793,1.793,0,0,0,2.169-1.955l-.169-1.442q-.166-1.293-.377-3.341c-.143-1.369-.735-1.585-1.19-.427q-.52,1.32-1.917,4.541a1.942,1.942,0,0,0,1.484,2.624Z" transform="translate(-227.271 -70.559)" fill="#9b2a39"/>
        </g>
      </g>
    </g>
  </g>
</svg>
