<svg xmlns="http://www.w3.org/2000/svg" width="172.727" height="162.818" viewBox="0 0 172.727 162.818">
  <g id="Group_714" data-name="Group 714" transform="translate(-13.273 -31.816)">
    <g id="Background_Complete" data-name="Background Complete" transform="translate(14.5 31.816)">
      <g id="Group_2" data-name="Group 2" transform="translate(18.299 45.169)">
        <g id="Group_1" data-name="Group 1">
          <path id="Path_1" data-name="Path 1" d="M191.733,175.015c-4.822-7.014-16.065-8.371-22.417-2.706A14.668,14.668,0,0,0,144.3,162.246c.91-3.188-2.436-6.3-5.747-6.469s-6.371,1.609-9.211,3.318-5.922,3.468-9.229,3.245c-3.581-.242-6.559-2.74-9.906-4.034-8.19-3.167-18.558,2.454-20.373,11.046-9.066-3.66-20.7,2.333-22.981,11.84l132.751,1.55A10.591,10.591,0,0,0,191.733,175.015Z" transform="translate(-66.855 -155.766)" fill="#f5f5f5"/>
        </g>
      </g>
      <g id="Group_5" data-name="Group 5" transform="translate(107.802 14.513)">
        <g id="Group_4" data-name="Group 4">
          <g id="Group_3" data-name="Group 3">
            <path id="Path_2" data-name="Path 2" d="M342.5,78.826c.23-1.668-2.124-3.04-3.893-3.182a10.027,10.027,0,0,1-2.519-.218c-1.732-.6-2.423-2.841-4.113-3.553a4.833,4.833,0,0,0-3.941.558,10.284,10.284,0,0,1-3.8,1.479c-1.19.076-2.482-.365-3.523.216-.776.433-1.182,1.327-1.9,1.854a4.527,4.527,0,0,1-2.48.673,6.983,6.983,0,0,0-2.557.418,2.021,2.021,0,0,0-1.28,2.051Z" transform="translate(-312.465 -71.642)" fill="#fafafa"/>
          </g>
        </g>
      </g>
      <g id="Group_8" data-name="Group 8" transform="translate(5.519 3.966)">
        <g id="Group_7" data-name="Group 7">
          <g id="Group_6" data-name="Group 6">
            <path id="Path_3" data-name="Path 3" d="M48.542,46.707c.128-.931-1.185-1.7-2.172-1.776a5.6,5.6,0,0,1-1.406-.121c-.966-.337-1.352-1.585-2.295-1.982a2.7,2.7,0,0,0-2.2.311,5.744,5.744,0,0,1-2.122.825c-.664.043-1.385-.2-1.966.121-.433.242-.66.74-1.059,1.035a2.524,2.524,0,0,1-1.384.375,3.9,3.9,0,0,0-1.427.233,1.128,1.128,0,0,0-.714,1.145Z" transform="translate(-31.785 -42.698)" fill="#fafafa"/>
          </g>
        </g>
      </g>
      <g id="Group_11" data-name="Group 11" transform="translate(124.585 30.454)">
        <g id="Group_10" data-name="Group 10">
          <g id="Group_9" data-name="Group 9">
            <path id="Path_4" data-name="Path 4" d="M393.044,123.645c.264-1.918-2.442-3.5-4.475-3.659a11.533,11.533,0,0,1-2.9-.25c-1.99-.694-2.785-3.265-4.727-4.084-1.452-.613-3.123-.067-4.531.641a11.824,11.824,0,0,1-4.371,1.7c-1.368.087-2.853-.42-4.05.249-.892.5-1.359,1.525-2.181,2.132a5.2,5.2,0,0,1-2.851.773,8.037,8.037,0,0,0-2.939.48,2.323,2.323,0,0,0-1.471,2.358Z" transform="translate(-358.522 -115.386)" fill="#ebebeb"/>
          </g>
        </g>
      </g>
      <g id="Group_14" data-name="Group 14" transform="translate(131.095)">
        <g id="Group_13" data-name="Group 13">
          <g id="Group_12" data-name="Group 12">
            <path id="Path_5" data-name="Path 5" d="M400.685,37.629c.186-1.349-1.719-2.46-3.15-2.575a8.112,8.112,0,0,1-2.038-.176c-1.4-.488-1.961-2.3-3.327-2.875a3.91,3.91,0,0,0-3.189.452,8.325,8.325,0,0,1-3.077,1.2c-.963.062-2.008-.3-2.851.175-.628.351-.957,1.074-1.535,1.5a3.665,3.665,0,0,1-2.007.544,5.65,5.65,0,0,0-2.069.338,1.635,1.635,0,0,0-1.036,1.66Z" transform="translate(-376.386 -31.816)" fill="#ebebeb"/>
          </g>
        </g>
      </g>
      <g id="Group_17" data-name="Group 17" transform="translate(9.68 33.714)">
        <g id="Group_16" data-name="Group 16">
          <g id="Group_15" data-name="Group 15">
            <path id="Path_6" data-name="Path 6" d="M61.283,128.656c.138-1-1.279-1.83-2.344-1.916a6.029,6.029,0,0,1-1.517-.131c-1.042-.363-1.459-1.71-2.476-2.139a2.909,2.909,0,0,0-2.373.336,6.2,6.2,0,0,1-2.289.891c-.716.046-1.494-.22-2.121.13-.467.261-.712.8-1.142,1.116a2.723,2.723,0,0,1-1.493.4,4.2,4.2,0,0,0-1.539.252,1.216,1.216,0,0,0-.771,1.235Z" transform="translate(-43.203 -124.331)" fill="#ebebeb"/>
          </g>
        </g>
      </g>
      <g id="Group_20" data-name="Group 20" transform="translate(27.017 13.495)">
        <g id="Group_19" data-name="Group 19">
          <g id="Group_18" data-name="Group 18">
            <path id="Path_7" data-name="Path 7" d="M128.983,77.988c.292-2.122-2.7-3.867-4.953-4.049a12.739,12.739,0,0,1-3.2-.277c-2.2-.767-3.083-3.613-5.232-4.519-1.607-.678-3.456-.075-5.014.71s-3.1,1.77-4.837,1.882c-1.514.1-3.158-.465-4.482.275-.987.551-1.5,1.688-2.413,2.359a5.756,5.756,0,0,1-3.155.856,8.891,8.891,0,0,0-3.253.531,2.571,2.571,0,0,0-1.628,2.61Z" transform="translate(-90.779 -68.849)" fill="#f5f5f5"/>
          </g>
        </g>
      </g>
      <g id="Group_52" data-name="Group 52" transform="translate(0 98.715)">
        <g id="Group_23" data-name="Group 23" transform="translate(0 0)">
          <g id="Group_22" data-name="Group 22">
            <g id="Group_21" data-name="Group 21">
              <path id="Path_8" data-name="Path 8" d="M20.727,302.779s-3.106.441-1.341,7.24a81.328,81.328,0,0,0,3.255,10.3s.239,1.541-1,1.5-3.779-1.045-4.634.3c-.887,1.393-.1,3.066,1.851,4.814s6.094,5.734,6.467,6.1.645,1.109-.206,1.215-6.9-.586-7.057,2.3,6.087,6.865,6.761,7.312.781.8.632,1.191-2.161-.033-3.89-.159-3.755.03-3.706,1.705,3.334,5.9,12.889,9.017l4.522,1.155,3.33-3.3c6.7-7.5,7.417-12.8,6.618-14.27s-2.63-.591-4.061.386-2.958,2.354-3.284,2.091-.41-.621-.051-1.346,3.762-7.3,2.175-9.719-6.471,1.215-7.26,1.551-.926-.456-.788-.947,1.72-6.027,2.532-8.519.65-4.333-.816-5.092c-1.414-.732-3.1,1.407-4.157,2.069s-1.619-.79-1.619-.79a81.273,81.273,0,0,0-2.358-10.543c-1.888-6.766-4.862-5.544-4.862-5.544" transform="translate(-16.64 -302.706)" fill="#ebebeb"/>
            </g>
          </g>
        </g>
        <g id="Group_27" data-name="Group 27" transform="translate(5.657 6.164)">
          <g id="Group_26" data-name="Group 26">
            <g id="Group_25" data-name="Group 25">
              <g id="Group_24" data-name="Group 24">
                <path id="Path_9" data-name="Path 9" d="M45.132,368.642c-1.367-4.975-3.648-13.857-5.646-21.472s-3.812-14.5-5.153-19.485l-1.6-5.9-.433-1.6-.109-.418c-.024-.094-.032-.144-.032-.144s.018.047.047.14l.123.414.459,1.6c.4,1.387.957,3.4,1.639,5.885,1.367,4.975,3.2,11.862,5.2,19.475s4.263,16.5,5.6,21.482" transform="translate(-32.163 -319.622)" fill="#e0e0e0"/>
              </g>
            </g>
          </g>
        </g>
        <g id="Group_31" data-name="Group 31" transform="translate(3.854 20.952)">
          <g id="Group_30" data-name="Group 30">
            <g id="Group_29" data-name="Group 29">
              <g id="Group_28" data-name="Group 28">
                <path id="Path_10" data-name="Path 10" d="M27.217,360.2a1.518,1.518,0,0,1,.3.159c.187.11.454.276.781.484.653.418,1.541,1.019,2.508,1.7l2.47,1.751.751.525a1.525,1.525,0,0,1,.269.2,1.5,1.5,0,0,1-.3-.156c-.187-.11-.454-.277-.778-.488-.649-.425-1.529-1.037-2.5-1.717l-2.482-1.732-.754-.522A1.517,1.517,0,0,1,27.217,360.2Z" transform="translate(-27.216 -360.202)" fill="#e0e0e0"/>
              </g>
            </g>
          </g>
        </g>
        <g id="Group_35" data-name="Group 35" transform="translate(11.306 17.215)">
          <g id="Group_34" data-name="Group 34">
            <g id="Group_33" data-name="Group 33">
              <g id="Group_32" data-name="Group 32">
                <path id="Path_11" data-name="Path 11" d="M47.667,358.284c-.034-.021,1.123-1.906,2.585-4.207s2.674-4.152,2.708-4.131-1.123,1.905-2.585,4.208S47.7,358.305,47.667,358.284Z" transform="translate(-47.666 -349.945)" fill="#e0e0e0"/>
              </g>
            </g>
          </g>
        </g>
        <g id="Group_39" data-name="Group 39" transform="translate(13.847 31.348)">
          <g id="Group_38" data-name="Group 38">
            <g id="Group_37" data-name="Group 37">
              <g id="Group_36" data-name="Group 36">
                <path id="Path_12" data-name="Path 12" d="M54.638,394.765a1.581,1.581,0,0,1,.247-.24l.7-.619c.593-.523,1.408-1.249,2.279-2.083s1.636-1.613,2.184-2.183l.65-.675a1.538,1.538,0,0,1,.251-.236,1.594,1.594,0,0,1-.209.274c-.142.17-.351.413-.617.706-.53.589-1.284,1.383-2.159,2.218s-1.7,1.552-2.313,2.056c-.306.251-.556.451-.734.585A1.59,1.59,0,0,1,54.638,394.765Z" transform="translate(-54.638 -388.729)" fill="#e0e0e0"/>
              </g>
            </g>
          </g>
        </g>
        <g id="Group_43" data-name="Group 43" transform="translate(6.191 34.705)">
          <g id="Group_42" data-name="Group 42">
            <g id="Group_41" data-name="Group 41">
              <g id="Group_40" data-name="Group 40">
                <path id="Path_13" data-name="Path 13" d="M33.628,397.944a1.352,1.352,0,0,1,.31.074l.828.253c.7.22,1.657.534,2.715.888s2.013.684,2.7.929l.814.3a1.352,1.352,0,0,1,.292.128,1.356,1.356,0,0,1-.31-.074l-.828-.253c-.7-.22-1.657-.534-2.715-.888s-2.012-.684-2.7-.929l-.813-.3A1.35,1.35,0,0,1,33.628,397.944Z" transform="translate(-33.628 -397.942)" fill="#e0e0e0"/>
              </g>
            </g>
          </g>
        </g>
        <g id="Group_47" data-name="Group 47" transform="translate(7.106 45.435)">
          <g id="Group_46" data-name="Group 46">
            <g id="Group_45" data-name="Group 45">
              <g id="Group_44" data-name="Group 44">
                <path id="Path_14" data-name="Path 14" d="M36.141,427.388a2.2,2.2,0,0,1,.4.1l1.063.321c.9.277,2.129.669,3.489,1.111s2.589.849,3.476,1.151l1.048.365a2.238,2.238,0,0,1,.378.152,2.167,2.167,0,0,1-.4-.1l-1.063-.321c-.895-.277-2.129-.669-3.489-1.111s-2.588-.849-3.475-1.151l-1.048-.365A2.179,2.179,0,0,1,36.141,427.388Z" transform="translate(-36.141 -427.387)" fill="#e0e0e0"/>
              </g>
            </g>
          </g>
        </g>
        <g id="Group_51" data-name="Group 51" transform="translate(16.742 40.617)">
          <g id="Group_50" data-name="Group 50">
            <g id="Group_49" data-name="Group 49">
              <g id="Group_48" data-name="Group 48">
                <path id="Path_15" data-name="Path 15" d="M62.581,422.041a2.465,2.465,0,0,1,.305-.312l.863-.817c.728-.69,1.729-1.648,2.806-2.736s2.027-2.1,2.71-2.831l.809-.871a2.505,2.505,0,0,1,.309-.308,2.548,2.548,0,0,1-.267.346c-.179.216-.443.525-.775.9-.664.754-1.6,1.776-2.683,2.865s-2.092,2.037-2.839,2.709c-.374.335-.68.6-.895.783A2.564,2.564,0,0,1,62.581,422.041Z" transform="translate(-62.581 -414.165)" fill="#e0e0e0"/>
              </g>
            </g>
          </g>
        </g>
      </g>
      <g id="Group_94" data-name="Group 94" transform="translate(136.237 100.236)">
        <g id="Group_58" data-name="Group 58">
          <g id="Group_57" data-name="Group 57">
            <g id="Group_56" data-name="Group 56">
              <g id="Group_55" data-name="Group 55">
                <g id="Group_54" data-name="Group 54">
                  <g id="Group_53" data-name="Group 53">
                    <path id="Path_16" data-name="Path 16" d="M402.031,360.911c-7.553-4.181-10.391-13.483-11.271-22.075-.147-1.434-.5-2.919-.03-4.26s1.834-2.4,3.111-1.964c1.059.363,1.657,1.536,2.349,2.48a8.107,8.107,0,0,0,3.562,2.767,2.836,2.836,0,0,0,2.778-.113c1.06-.839.967-2.559.768-3.978q-.558-3.967-1.115-7.934a14.241,14.241,0,0,1-.167-4.273,4.358,4.358,0,0,1,2.188-3.336,2.494,2.494,0,0,1,3.334,1.365,14.116,14.116,0,0,1,.276,1.763c.116.585.461,1.2,1.007,1.293s1.03-.382,1.371-.853a19.294,19.294,0,0,0,2.482-5.555,26.96,26.96,0,0,1,2.246-5.69,7.179,7.179,0,0,1,4.474-3.59,4.337,4.337,0,0,1,4.832,2.529c.751,1.936-.068,4.118-1.038,5.9a31.052,31.052,0,0,1-5.326,7.143,2.585,2.585,0,0,0-.873,1.329c-.161.987.8,1.811,1.721,2a14.542,14.542,0,0,0,3.15-.054,2.988,2.988,0,0,1,2.773,1.314c.739,1.377-.191,3.055-1.174,4.205a25.412,25.412,0,0,1-6.892,5.676,8.457,8.457,0,0,0-2.6,1.837,2.774,2.774,0,0,0-.382,3.119,2.447,2.447,0,0,0,2.872.743,17.221,17.221,0,0,0,2.754-1.592c1.726-.988,4.1-1.179,5.5.347a4.8,4.8,0,0,1,.982,3.913,10.641,10.641,0,0,1-1.541,3.788,25.976,25.976,0,0,1-9.8,9.7c-4.023,2.154-7.889,3.119-12.318,2.054" transform="translate(-390.496 -306.879)" fill="#f5f5f5"/>
                  </g>
                </g>
              </g>
            </g>
          </g>
        </g>
        <g id="Group_65" data-name="Group 65" transform="translate(12.878 0.926)">
          <g id="Group_64" data-name="Group 64">
            <g id="Group_63" data-name="Group 63">
              <g id="Group_62" data-name="Group 62">
                <g id="Group_61" data-name="Group 61">
                  <g id="Group_60" data-name="Group 60">
                    <g id="Group_59" data-name="Group 59">
                      <path id="Path_17" data-name="Path 17" d="M425.836,356.878a134.432,134.432,0,0,1,2.88-14.352q.474-1.883.937-3.718c.31-1.219.617-2.429.987-3.591a65.641,65.641,0,0,1,2.483-6.542c.885-2.039,1.795-3.937,2.657-5.706s1.7-3.4,2.527-4.848a49.81,49.81,0,0,1,4.361-6.522c.57-.724,1.029-1.269,1.346-1.634l.362-.413a.973.973,0,0,1,.13-.134,1.026,1.026,0,0,1-.111.153l-.344.43c-.3.377-.751.933-1.309,1.665a52.794,52.794,0,0,0-4.285,6.554c-.811,1.453-1.638,3.084-2.495,4.854s-1.756,3.671-2.633,5.708a66.306,66.306,0,0,0-2.46,6.521c-.366,1.156-.669,2.355-.979,3.578l-.935,3.716a137.934,137.934,0,0,0-2.894,14.32" transform="translate(-425.836 -309.419)" fill="#e0e0e0"/>
                    </g>
                  </g>
                </g>
              </g>
            </g>
          </g>
        </g>
        <g id="Group_72" data-name="Group 72" transform="translate(13.706 11.346)">
          <g id="Group_71" data-name="Group 71">
            <g id="Group_70" data-name="Group 70">
              <g id="Group_69" data-name="Group 69">
                <g id="Group_68" data-name="Group 68">
                  <g id="Group_67" data-name="Group 67">
                    <g id="Group_66" data-name="Group 66">
                      <path id="Path_18" data-name="Path 18" d="M432.151,353.372a3.094,3.094,0,0,1-.211-.588c-.122-.383-.283-.942-.471-1.637-.378-1.388-.839-3.323-1.34-5.458s-.986-4.06-1.383-5.438c-.2-.69-.361-1.247-.479-1.63a3.035,3.035,0,0,1-.157-.606,2.97,2.97,0,0,1,.247.573c.146.374.336.923.555,1.608.441,1.369.955,3.293,1.457,5.432.489,2.108.931,4.016,1.27,5.473.156.657.289,1.211.4,1.656A3.023,3.023,0,0,1,432.151,353.372Z" transform="translate(-428.107 -338.015)" fill="#e0e0e0"/>
                    </g>
                  </g>
                </g>
              </g>
            </g>
          </g>
        </g>
        <g id="Group_79" data-name="Group 79" transform="translate(17.75 20.932)">
          <g id="Group_78" data-name="Group 78">
            <g id="Group_77" data-name="Group 77">
              <g id="Group_76" data-name="Group 76">
                <g id="Group_75" data-name="Group 75">
                  <g id="Group_74" data-name="Group 74">
                    <g id="Group_73" data-name="Group 73">
                      <path id="Path_19" data-name="Path 19" d="M455.823,364.325a3.466,3.466,0,0,1-.669.181c-.433.1-1.059.246-1.828.451-1.54.4-3.648,1.023-5.943,1.824s-4.342,1.629-5.805,2.271c-.735.316-1.322.588-1.729.773a3.478,3.478,0,0,1-.643.267,3.6,3.6,0,0,1,.6-.361c.4-.215.973-.514,1.7-.853a61.819,61.819,0,0,1,5.8-2.35,57.241,57.241,0,0,1,5.981-1.754c.776-.181,1.411-.3,1.85-.369A3.454,3.454,0,0,1,455.823,364.325Z" transform="translate(-439.205 -364.32)" fill="#e0e0e0"/>
                    </g>
                  </g>
                </g>
              </g>
            </g>
          </g>
        </g>
        <g id="Group_86" data-name="Group 86" transform="translate(1.306 25.885)">
          <g id="Group_85" data-name="Group 85">
            <g id="Group_84" data-name="Group 84">
              <g id="Group_83" data-name="Group 83">
                <g id="Group_82" data-name="Group 82">
                  <g id="Group_81" data-name="Group 81">
                    <g id="Group_80" data-name="Group 80">
                      <path id="Path_20" data-name="Path 20" d="M405.817,400.046a.959.959,0,0,1-.147-.207l-.381-.62c-.329-.54-.785-1.335-1.337-2.324-1.106-1.978-2.552-4.761-4.111-7.854s-2.98-5.887-4.046-7.886l-1.268-2.364-.342-.646a.128.128,0,1,1,.042-.027l.381.62c.329.54.785,1.335,1.337,2.324,1.106,1.978,2.552,4.761,4.111,7.855s2.979,5.886,4.045,7.885l1.269,2.364.342.645A1.009,1.009,0,0,1,405.817,400.046Z" transform="translate(-394.079 -377.911)" fill="#e0e0e0"/>
                    </g>
                  </g>
                </g>
              </g>
            </g>
          </g>
        </g>
        <g id="Group_93" data-name="Group 93" transform="translate(13.043 37.07)">
          <g id="Group_92" data-name="Group 92">
            <g id="Group_91" data-name="Group 91">
              <g id="Group_90" data-name="Group 90">
                <g id="Group_89" data-name="Group 89">
                  <g id="Group_88" data-name="Group 88">
                    <g id="Group_87" data-name="Group 87">
                      <path id="Path_21" data-name="Path 21" d="M447.927,408.606a.89.89,0,0,1-.212.13l-.627.327-2.317,1.177c-1.956.994-4.642,2.4-7.608,3.96s-5.668,2.941-7.645,3.892c-.988.476-1.791.852-2.352,1.1l-.646.281a.861.861,0,0,1-.233.081.91.91,0,0,1,.212-.131l.627-.327,2.316-1.177c1.956-.994,4.643-2.4,7.61-3.96s5.667-2.94,7.643-3.892c.988-.476,1.791-.852,2.352-1.1l.646-.282A.857.857,0,0,1,447.927,408.606Z" transform="translate(-426.288 -408.605)" fill="#e0e0e0"/>
                    </g>
                  </g>
                </g>
              </g>
            </g>
          </g>
        </g>
      </g>
    </g>
    <g id="Floor" transform="translate(13.273 194.444)">
      <g id="Group_97" data-name="Group 97" transform="translate(0)">
        <g id="Group_96" data-name="Group 96">
          <g id="Group_95" data-name="Group 95">
            <path id="Path_25" data-name="Path 25" d="M185.076,478.189c0,.052-38.462.095-85.9.095-47.451,0-85.905-.043-85.905-.095s38.454-.1,85.905-.1C146.613,478.094,185.076,478.137,185.076,478.189Z" transform="translate(-13.273 -478.094)" fill="#263238"/>
          </g>
        </g>
      </g>
    </g>
    <g id="Device" transform="translate(23.482 100.535)">
      <g id="Group_170" data-name="Group 170">
        <g id="Group_169" data-name="Group 169">
          <g id="Group_168" data-name="Group 168">
            <g id="Group_167" data-name="Group 167">
              <g id="Group_122" data-name="Group 122">
                <g id="Group_103" data-name="Group 103" transform="translate(5.436)">
                  <g id="Group_102" data-name="Group 102">
                    <g id="Group_101" data-name="Group 101">
                      <g id="Group_100" data-name="Group 100">
                        <g id="Group_99" data-name="Group 99">
                          <g id="Group_98" data-name="Group 98">
                            <rect id="Rectangle_1" data-name="Rectangle 1" width="139.1" height="91.986" rx="14.567" fill="#455a64"/>
                          </g>
                        </g>
                      </g>
                    </g>
                  </g>
                </g>
                <g id="Group_109" data-name="Group 109" transform="translate(0 86.045)">
                  <g id="Group_108" data-name="Group 108">
                    <g id="Group_107" data-name="Group 107">
                      <g id="Group_106" data-name="Group 106">
                        <g id="Group_105" data-name="Group 105">
                          <g id="Group_104" data-name="Group 104">
                            <path id="Rectangle_2" data-name="Rectangle 2" d="M0,0H150.7a0,0,0,0,1,0,0V0a8.049,8.049,0,0,1-8.049,8.049H8.049A8.049,8.049,0,0,1,0,0V0A0,0,0,0,1,0,0Z" fill="#455a64"/>
                          </g>
                        </g>
                      </g>
                    </g>
                  </g>
                </g>
                <g id="Group_115" data-name="Group 115" transform="translate(9.17 3.655)">
                  <g id="Group_114" data-name="Group 114">
                    <g id="Group_113" data-name="Group 113">
                      <g id="Group_112" data-name="Group 112">
                        <g id="Group_111" data-name="Group 111">
                          <g id="Group_110" data-name="Group 110">
                            <rect id="Rectangle_3" data-name="Rectangle 3" width="131.244" height="77.681" fill="#263238"/>
                          </g>
                        </g>
                      </g>
                    </g>
                  </g>
                </g>
                <g id="Group_121" data-name="Group 121" transform="translate(61.274 85.182)">
                  <g id="Group_120" data-name="Group 120">
                    <g id="Group_119" data-name="Group 119">
                      <g id="Group_118" data-name="Group 118">
                        <g id="Group_117" data-name="Group 117">
                          <g id="Group_116" data-name="Group 116">
                            <path id="Path_26" data-name="Path 26" d="M209.434,454.147l1.87,2.975h26.315l1.737-2.975Z" transform="translate(-209.434 -454.147)" fill="#263238"/>
                          </g>
                        </g>
                      </g>
                    </g>
                  </g>
                </g>
              </g>
              <g id="Group_160" data-name="Group 160" transform="translate(11.738 6.284)">
                <g id="Group_159" data-name="Group 159">
                  <g id="Group_158" data-name="Group 158">
                    <g id="Group_129" data-name="Group 129" transform="translate(0.135)">
                      <g id="Group_128" data-name="Group 128">
                        <g id="Group_127" data-name="Group 127">
                          <g id="Group_126" data-name="Group 126">
                            <g id="Group_125" data-name="Group 125">
                              <g id="Group_124" data-name="Group 124">
                                <g id="Group_123" data-name="Group 123">
                                  <rect id="Rectangle_4" data-name="Rectangle 4" width="126.107" height="74.802" rx="3.273" fill="#ebebeb"/>
                                </g>
                              </g>
                            </g>
                          </g>
                        </g>
                      </g>
                    </g>
                    <g id="Group_136" data-name="Group 136" transform="translate(0 5.59)">
                      <g id="Group_135" data-name="Group 135">
                        <g id="Group_134" data-name="Group 134">
                          <g id="Group_133" data-name="Group 133">
                            <g id="Group_132" data-name="Group 132">
                              <g id="Group_131" data-name="Group 131">
                                <g id="Group_130" data-name="Group 130">
                                  <path id="Path_27" data-name="Path 27" d="M199.608,322.3H73.5l.135-69.322H199.608Z" transform="translate(-73.5 -252.979)" fill="#fafafa"/>
                                </g>
                              </g>
                            </g>
                          </g>
                        </g>
                      </g>
                    </g>
                    <g id="Group_143" data-name="Group 143" transform="translate(8.464 1.882)">
                      <g id="Group_142" data-name="Group 142">
                        <g id="Group_141" data-name="Group 141">
                          <g id="Group_140" data-name="Group 140">
                            <g id="Group_139" data-name="Group 139">
                              <g id="Group_138" data-name="Group 138">
                                <g id="Group_137" data-name="Group 137">
                                  <path id="Path_28" data-name="Path 28" d="M98.74,243.809a1.007,1.007,0,1,1-1.007-1.007A1.007,1.007,0,0,1,98.74,243.809Z" transform="translate(-96.726 -242.802)" fill="#263238"/>
                                </g>
                              </g>
                            </g>
                          </g>
                        </g>
                      </g>
                    </g>
                    <g id="Group_150" data-name="Group 150" transform="translate(2.359 1.882)">
                      <g id="Group_149" data-name="Group 149">
                        <g id="Group_148" data-name="Group 148">
                          <g id="Group_147" data-name="Group 147">
                            <g id="Group_146" data-name="Group 146">
                              <g id="Group_145" data-name="Group 145">
                                <g id="Group_144" data-name="Group 144">
                                  <path id="Path_29" data-name="Path 29" d="M81.989,243.809a1.007,1.007,0,1,1-1.007-1.007A1.007,1.007,0,0,1,81.989,243.809Z" transform="translate(-79.975 -242.802)" fill="#263238"/>
                                </g>
                              </g>
                            </g>
                          </g>
                        </g>
                      </g>
                    </g>
                    <g id="Group_157" data-name="Group 157" transform="translate(5.289 1.882)">
                      <g id="Group_156" data-name="Group 156">
                        <g id="Group_155" data-name="Group 155">
                          <g id="Group_154" data-name="Group 154">
                            <g id="Group_153" data-name="Group 153">
                              <g id="Group_152" data-name="Group 152">
                                <g id="Group_151" data-name="Group 151">
                                  <path id="Path_30" data-name="Path 30" d="M90.029,243.809a1.007,1.007,0,1,1-1.007-1.007A1.007,1.007,0,0,1,90.029,243.809Z" transform="translate(-88.015 -242.802)" fill="#263238"/>
                                </g>
                              </g>
                            </g>
                          </g>
                        </g>
                      </g>
                    </g>
                  </g>
                </g>
              </g>
              <g id="Group_166" data-name="Group 166" transform="translate(5.436 85.092)">
                <g id="Group_165" data-name="Group 165">
                  <g id="Group_164" data-name="Group 164">
                    <g id="Group_163" data-name="Group 163">
                      <g id="Group_162" data-name="Group 162">
                        <g id="Group_161" data-name="Group 161">
                          <path id="Path_31" data-name="Path 31" d="M194.111,453.99c0,.05-30.874.09-68.949.09s-68.956-.04-68.956-.09,30.867-.09,68.956-.09S194.111,453.94,194.111,453.99Z" transform="translate(-56.206 -453.9)" fill="#263238"/>
                        </g>
                      </g>
                    </g>
                  </g>
                </g>
              </g>
            </g>
          </g>
        </g>
      </g>
      <g id="Group_181" data-name="Group 181" transform="translate(11.63 11.557)">
        <g id="Group_176" data-name="Group 176" transform="translate(0.139)">
          <g id="Group_172" data-name="Group 172">
            <g id="Group_171" data-name="Group 171">
              <path id="Path_32" data-name="Path 32" d="M186.376,282.271a12.584,12.584,0,0,0-4.021,12.521,10.227,10.227,0,0,0-12.04,11.963,8.872,8.872,0,0,0-11.729,1.979c-.055-2.333-.146-4.791-1.373-6.777s-4.01-3.211-5.973-1.95a5.263,5.263,0,0,0-5.3-8.563c-.055-2.8-1.83-22.616-3.293-39.336H130.237c-1.439,16.428-3.124,35.3-3.178,38.026a5.263,5.263,0,0,0-5.3,8.563c-1.963-1.261-4.747-.036-5.973,1.95s-1.317,4.444-1.373,6.777a8.871,8.871,0,0,0-11.729-1.979,10.227,10.227,0,0,0-12.04-11.963A12.3,12.3,0,0,0,73.583,279.23v42.481h125.83v-41.17A12.585,12.585,0,0,0,186.376,282.271Z" transform="translate(-73.583 -252.108)" fill="#e8505b"/>
            </g>
          </g>
          <g id="Group_175" data-name="Group 175" opacity="0.8">
            <g id="Group_174" data-name="Group 174">
              <g id="Group_173" data-name="Group 173">
                <path id="Path_33" data-name="Path 33" d="M186.376,282.271a12.584,12.584,0,0,0-4.021,12.521,10.227,10.227,0,0,0-12.04,11.963,8.872,8.872,0,0,0-11.729,1.979c-.055-2.333-.146-4.791-1.373-6.777s-4.01-3.211-5.973-1.95a5.263,5.263,0,0,0-5.3-8.563c-.055-2.8-1.83-22.616-3.293-39.336H130.237c-1.439,16.428-3.124,35.3-3.178,38.026a5.263,5.263,0,0,0-5.3,8.563c-1.963-1.261-4.747-.036-5.973,1.95s-1.317,4.444-1.373,6.777a8.871,8.871,0,0,0-11.729-1.979,10.227,10.227,0,0,0-12.04-11.963A12.3,12.3,0,0,0,73.583,279.23v42.481h125.83v-41.17A12.585,12.585,0,0,0,186.376,282.271Z" transform="translate(-73.583 -252.108)" fill="#fff"/>
              </g>
            </g>
          </g>
        </g>
        <g id="Group_178" data-name="Group 178">
          <g id="Group_177" data-name="Group 177">
            <path id="Path_34" data-name="Path 34" d="M185.378,313.231a19.885,19.885,0,0,0-28.282,6.516,11.791,11.791,0,0,0-4.218-3.536,7.91,7.91,0,0,0,.292-.962,8.412,8.412,0,0,0-10.153-10.08l-3.724-53.06H134.4V300.88a5.41,5.41,0,0,0-4.068,6.915,6.577,6.577,0,0,0-4.917,3.654,6.892,6.892,0,0,0-.085,3.454,12.125,12.125,0,0,0-9.488,4.844,19.885,19.885,0,0,0-28.282-6.516A12.322,12.322,0,0,0,73.2,304.107v17.686l56.77-.074a4.437,4.437,0,0,0,1.2.166l13.88-.164,54.687.071V304.107A12.322,12.322,0,0,0,185.378,313.231Z" transform="translate(-73.202 -252.108)" fill="#e8505b"/>
          </g>
        </g>
        <g id="Group_180" data-name="Group 180" opacity="0.6">
          <g id="Group_179" data-name="Group 179">
            <path id="Path_35" data-name="Path 35" d="M185.378,313.231a19.885,19.885,0,0,0-28.282,6.516,11.791,11.791,0,0,0-4.218-3.536,7.91,7.91,0,0,0,.292-.962,8.412,8.412,0,0,0-10.153-10.08l-3.724-53.06H134.4V300.88a5.41,5.41,0,0,0-4.068,6.915,6.577,6.577,0,0,0-4.917,3.654,6.892,6.892,0,0,0-.085,3.454,12.125,12.125,0,0,0-9.488,4.844,19.885,19.885,0,0,0-28.282-6.516A12.322,12.322,0,0,0,73.2,304.107v17.686l56.77-.074a4.437,4.437,0,0,0,1.2.166l13.88-.164,54.687.071V304.107A12.322,12.322,0,0,0,185.378,313.231Z" transform="translate(-73.202 -252.108)" fill="#fff"/>
          </g>
        </g>
      </g>
    </g>
    <g id="Rocket" transform="translate(70 37.445)">
      <g id="Group_282" data-name="Group 282" transform="translate(6.573 0)">
        <g id="Group_196" data-name="Group 196" transform="translate(13.616 58.037)">
          <g id="Group_191" data-name="Group 191">
            <g id="Group_185" data-name="Group 185">
              <g id="Group_184" data-name="Group 184">
                <g id="Group_183" data-name="Group 183">
                  <g id="Group_182" data-name="Group 182">
                    <path id="Path_36" data-name="Path 36" d="M227.59,206.526a5.987,5.987,0,0,0-2.609,7.9c.575,1.079,1.513,2.029,1.637,3.246.191,1.865-1.574,3.325-2.119,5.119a4.263,4.263,0,0,0,2.885,5.155c.958.25,2.106.207,2.748.961.819.963.228,2.562.929,3.614a2.269,2.269,0,0,0,3.06.365,5.32,5.32,0,0,0,1.85-2.807,12.776,12.776,0,0,1,1.3-3.152,23.916,23.916,0,0,1,2.67-2.647,10.05,10.05,0,0,0,2.254-8.457,21.89,21.89,0,0,0-3.552-8.271" transform="translate(-224.343 -206.526)" fill="#e8505b"/>
                  </g>
                </g>
              </g>
            </g>
            <g id="Group_190" data-name="Group 190" opacity="0.3">
              <g id="Group_189" data-name="Group 189">
                <g id="Group_188" data-name="Group 188">
                  <g id="Group_187" data-name="Group 187">
                    <g id="Group_186" data-name="Group 186">
                      <path id="Path_37" data-name="Path 37" d="M227.59,206.526a5.987,5.987,0,0,0-2.609,7.9c.575,1.079,1.513,2.029,1.637,3.246.191,1.865-1.574,3.325-2.119,5.119a4.263,4.263,0,0,0,2.885,5.155c.958.25,2.106.207,2.748.961.819.963.228,2.562.929,3.614a2.269,2.269,0,0,0,3.06.365,5.32,5.32,0,0,0,1.85-2.807,12.776,12.776,0,0,1,1.3-3.152,23.916,23.916,0,0,1,2.67-2.647,10.05,10.05,0,0,0,2.254-8.457,21.89,21.89,0,0,0-3.552-8.271" transform="translate(-224.343 -206.526)" fill="#fff"/>
                    </g>
                  </g>
                </g>
              </g>
            </g>
          </g>
          <g id="Group_195" data-name="Group 195" transform="translate(3.043 1.576)">
            <g id="Group_194" data-name="Group 194">
              <g id="Group_193" data-name="Group 193">
                <g id="Group_192" data-name="Group 192">
                  <path id="Path_38" data-name="Path 38" d="M235.355,210.852a4.772,4.772,0,0,0-2.071,6.552c.819,1.355,2.409,2.578,2.024,4.113-.261,1.041-1.378,1.68-1.7,2.7-.427,1.364.865,2.81,2.283,2.983a5.172,5.172,0,0,0,3.867-1.531c3.722-3.27,4.628-9.694,2.309-14.073" transform="translate(-232.692 -210.852)" fill="#e8505b"/>
                </g>
              </g>
            </g>
          </g>
        </g>
        <g id="Group_200" data-name="Group 200" transform="translate(31.204 38.754)">
          <g id="Group_199" data-name="Group 199" transform="translate(0 0)">
            <g id="Group_198" data-name="Group 198">
              <g id="Group_197" data-name="Group 197">
                <path id="Path_39" data-name="Path 39" d="M272.955,153.609s12.185,8.061,10.854,22l-11.2-5.028Z" transform="translate(-272.606 -153.609)" fill="#e8505b"/>
              </g>
            </g>
          </g>
        </g>
        <g id="Group_202" data-name="Group 202" transform="translate(11.305 55.45)">
          <g id="Group_201" data-name="Group 201">
            <path id="Path_40" data-name="Path 40" d="M218,199.428l2.767,4.588h14.364l2.767-4.325Z" transform="translate(-218.002 -199.428)" fill="#263238"/>
          </g>
        </g>
        <g id="Group_204" data-name="Group 204" transform="translate(10.573 9.136)">
          <g id="Group_203" data-name="Group 203">
            <path id="Path_41" data-name="Path 41" d="M225.93,72.359A10.648,10.648,0,0,0,215.995,83.2l.73,35.709h19.9l.665-35.73A10.648,10.648,0,0,0,225.93,72.359Z" transform="translate(-215.993 -72.334)" fill="#e8505b"/>
          </g>
        </g>
        <g id="Group_206" data-name="Group 206" transform="translate(10.573 9.136)" opacity="0.8">
          <g id="Group_205" data-name="Group 205">
            <path id="Path_42" data-name="Path 42" d="M225.93,72.359A10.648,10.648,0,0,0,215.995,83.2l.73,35.709h19.9l.665-35.73A10.648,10.648,0,0,0,225.93,72.359Z" transform="translate(-215.993 -72.334)" fill="#fff"/>
          </g>
        </g>
        <g id="Group_210" data-name="Group 210" transform="translate(0 38.754)">
          <g id="Group_209" data-name="Group 209" transform="translate(0 0)">
            <g id="Group_208" data-name="Group 208">
              <g id="Group_207" data-name="Group 207">
                <path id="Path_43" data-name="Path 43" d="M197.934,153.609s-12.185,8.061-10.854,22l11.2-5.028Z" transform="translate(-186.978 -153.609)" fill="#e8505b"/>
              </g>
            </g>
          </g>
        </g>
        <g id="Group_214" data-name="Group 214" transform="translate(10.684)">
          <g id="Group_213" data-name="Group 213">
            <g id="Group_212" data-name="Group 212">
              <g id="Group_211" data-name="Group 211">
                <path id="Path_44" data-name="Path 44" d="M216.3,66.083c4.206-3.684,17.416-3.6,20.963-.606-.912-13.257-11.035-18.215-11.035-18.215A23.391,23.391,0,0,0,216.3,66.083Z" transform="translate(-216.298 -47.263)" fill="#e8505b"/>
              </g>
            </g>
          </g>
        </g>
        <g id="Group_219" data-name="Group 219" transform="translate(20.615)">
          <g id="Group_218" data-name="Group 218">
            <g id="Group_217" data-name="Group 217">
              <g id="Group_216" data-name="Group 216">
                <g id="Group_215" data-name="Group 215">
                  <path id="Path_45" data-name="Path 45" d="M243.55,47.263s.042.035.119.107l.341.321.552.526.352.336.376.407c.264.289.562.607.879.962l.971,1.209c.165.224.327.463.5.705s.356.488.517.76c.326.54.687,1.1,1,1.732a19.989,19.989,0,0,1,1.643,4.27,19.254,19.254,0,0,1,.478,2.509c.059.434.095.88.155,1.323a12.632,12.632,0,0,1,.048,1.375c.007,3.7-.047,7.768-.094,12.037-.1,8.541-.222,16.272-.314,21.868-.049,2.8-.089,5.059-.117,6.627l-.038,1.8q-.008.306-.012.469c0,.106-.008.16-.008.16s0-.054,0-.16,0-.265,0-.469c0-.415.01-1.021.017-1.8.02-1.568.048-3.831.082-6.627.073-5.6.172-13.329.283-21.869.048-4.269.1-8.337.1-12.035a12.617,12.617,0,0,0-.045-1.361c-.061-.451-.094-.892-.153-1.326a19.213,19.213,0,0,0-.471-2.5,20,20,0,0,0-1.624-4.257c-.306-.629-.664-1.191-.986-1.731-.159-.272-.348-.513-.512-.76s-.33-.481-.493-.706l-.962-1.212c-.314-.357-.609-.676-.87-.968l-.372-.409-.348-.339-.545-.533-.333-.329C243.586,47.3,243.55,47.263,243.55,47.263Z" transform="translate(-243.55 -47.263)" fill="#263238"/>
                </g>
              </g>
            </g>
          </g>
        </g>
        <g id="Group_229" data-name="Group 229" transform="translate(14.598 20.614)">
          <g id="Group_223" data-name="Group 223">
            <g id="Group_222" data-name="Group 222">
              <g id="Group_221" data-name="Group 221">
                <g id="Group_220" data-name="Group 220">
                  <ellipse id="Ellipse_2" data-name="Ellipse 2" cx="5.253" cy="4.883" rx="5.253" ry="4.883" transform="translate(0 10.259) rotate(-77.55)" fill="#fafafa"/>
                </g>
              </g>
            </g>
          </g>
          <g id="Group_228" data-name="Group 228" transform="translate(0.953 0.928)">
            <g id="Group_227" data-name="Group 227">
              <g id="Group_226" data-name="Group 226">
                <g id="Group_225" data-name="Group 225">
                  <g id="Group_224" data-name="Group 224">
                    <path id="Path_46" data-name="Path 46" d="M235.734,106.5a.445.445,0,0,1-.082-.008l-.239-.034-.175-.026-.214-.009-.249-.011c-.089,0-.184.01-.284.015a4.7,4.7,0,0,0-.661.086,5,5,0,0,0-2.373,1.264,5.3,5.3,0,0,0-1.3,1.92,4.9,4.9,0,0,0-.2.607c-.027.105-.06.21-.082.318l-.056.328-.028.166-.013.169q-.013.169-.026.342c0,.115,0,.231.006.347l0,.175.02.176a5.178,5.178,0,0,0,1.077,2.712,4.54,4.54,0,0,0,5.706,1.26,5.177,5.177,0,0,0,2.119-2.006l.092-.151.077-.158.152-.312.121-.321.06-.159.044-.162.088-.322c.025-.107.039-.216.059-.323a4.792,4.792,0,0,0,.073-.636,5.307,5.307,0,0,0-.372-2.289,5.062,5.062,0,0,0-1.031-1.617,4.986,4.986,0,0,0-.589-.529,4.692,4.692,0,0,0-.563-.356c-.089-.047-.17-.1-.251-.133l-.231-.095-.2-.082-.17-.05-.231-.07a.454.454,0,0,1-.078-.027.478.478,0,0,1,.081.017l.234.06.172.046.2.077.234.091c.082.036.165.084.255.129a4.6,4.6,0,0,1,.574.352,5.008,5.008,0,0,1,.6.528,5.083,5.083,0,0,1,1.059,1.63,5.36,5.36,0,0,1,.39,2.322,4.883,4.883,0,0,1-.071.647c-.02.108-.034.219-.059.328l-.088.327-.045.165-.06.161-.122.327-.153.318-.078.16-.093.154a5.266,5.266,0,0,1-2.157,2.05,4.638,4.638,0,0,1-5.836-1.289,5.268,5.268,0,0,1-1.093-2.767l-.02-.179,0-.179c0-.118,0-.236,0-.353s.018-.233.027-.348l.013-.172.029-.169c.019-.112.039-.223.058-.334s.057-.216.085-.323a4.921,4.921,0,0,1,.208-.617,5.361,5.361,0,0,1,1.332-1.942,5.087,5.087,0,0,1,1.646-1.033,4.987,4.987,0,0,1,.769-.226,4.632,4.632,0,0,1,.669-.078c.1,0,.2-.011.286-.01l.251.016.215.015.176.031.238.044A.468.468,0,0,1,235.734,106.5Z" transform="translate(-229.654 -106.378)" fill="#263238"/>
                  </g>
                </g>
              </g>
            </g>
          </g>
        </g>
        <g id="Group_231" data-name="Group 231" transform="translate(11.305 55.451)">
          <g id="Group_230" data-name="Group 230">
            <path id="Path_47" data-name="Path 47" d="M218,199.428" transform="translate(-218.002 -199.428)" fill="#e0e0e0"/>
          </g>
        </g>
        <g id="Group_234" data-name="Group 234" transform="translate(10.575 25.936)">
          <g id="Group_233" data-name="Group 233">
            <g id="Group_232" data-name="Group 232">
              <path id="Path_48" data-name="Path 48" d="M220.889,118.511c0,.062-1.123.031-2.474.276s-2.395.651-2.417.593a2.235,2.235,0,0,1,.664-.323,9.758,9.758,0,0,1,3.492-.621A2.237,2.237,0,0,1,220.889,118.511Z" transform="translate(-215.997 -118.437)" fill="#263238"/>
            </g>
          </g>
        </g>
        <g id="Group_237" data-name="Group 237" transform="translate(25.466 25.456)">
          <g id="Group_236" data-name="Group 236">
            <g id="Group_235" data-name="Group 235">
              <path id="Path_49" data-name="Path 49" d="M262.948,117.666a4.614,4.614,0,0,1-.894-.083c-.548-.069-1.3-.155-2.144-.214s-1.6-.079-2.153-.088a4.6,4.6,0,0,1-.9-.043,3.483,3.483,0,0,1,.894-.1,19.148,19.148,0,0,1,4.322.3A3.472,3.472,0,0,1,262.948,117.666Z" transform="translate(-256.861 -117.118)" fill="#263238"/>
            </g>
          </g>
        </g>
        <g id="Group_240" data-name="Group 240" transform="translate(11.009 45.764)">
          <g id="Group_239" data-name="Group 239" transform="translate(0 0)">
            <g id="Group_238" data-name="Group 238">
              <path id="Path_50" data-name="Path 50" d="M237.844,173.523a.838.838,0,0,1-.211,0l-.6-.044-2.21-.169c-1.867-.132-4.449-.258-7.3-.257s-5.438.136-7.3.272L218,173.5l-.6.046a.844.844,0,0,1-.211,0,.827.827,0,0,1,.207-.043l.6-.083c.519-.07,1.273-.153,2.207-.239,1.866-.172,4.454-.327,7.316-.332s5.449.148,7.316.317c.933.084,1.688.165,2.207.234l.6.082A.846.846,0,0,1,237.844,173.523Z" transform="translate(-217.19 -172.848)" fill="#263238"/>
            </g>
          </g>
        </g>
        <g id="Group_243" data-name="Group 243" transform="translate(15.556 31.102)">
          <g id="Group_242" data-name="Group 242">
            <g id="Group_241" data-name="Group 241">
              <path id="Path_51" data-name="Path 51" d="M230.105,132.64c0,.03-.124.042-.209.184a.313.313,0,0,0-.039.249.275.275,0,0,0,.476.037.311.311,0,0,0,0-.252c-.062-.154-.184-.184-.178-.214-.009-.025.168-.052.3.145a.436.436,0,0,1,.045.4.448.448,0,0,1-.827-.064.435.435,0,0,1,.106-.386C229.947,132.562,230.118,132.617,230.105,132.64Z" transform="translate(-229.666 -132.613)" fill="#263238"/>
            </g>
          </g>
        </g>
        <g id="Group_246" data-name="Group 246" transform="translate(19.893 33.441)">
          <g id="Group_245" data-name="Group 245" transform="translate(0 0)">
            <g id="Group_244" data-name="Group 244">
              <path id="Path_52" data-name="Path 52" d="M242.006,139.058c0,.03-.123.042-.209.184a.313.313,0,0,0-.039.249.275.275,0,0,0,.476.037.314.314,0,0,0,0-.253c-.063-.153-.184-.184-.178-.214-.009-.025.168-.052.3.145a.435.435,0,0,1,.045.4.448.448,0,0,1-.827-.064.437.437,0,0,1,.106-.386C241.848,138.98,242.019,139.035,242.006,139.058Z" transform="translate(-241.567 -139.031)" fill="#263238"/>
            </g>
          </g>
        </g>
        <g id="Group_249" data-name="Group 249" transform="translate(24.679 31.447)">
          <g id="Group_248" data-name="Group 248">
            <g id="Group_247" data-name="Group 247">
              <path id="Path_53" data-name="Path 53" d="M255.139,133.586c0,.031-.123.042-.209.184a.312.312,0,0,0-.039.249.275.275,0,0,0,.476.037.313.313,0,0,0,0-.252c-.063-.154-.184-.184-.178-.214-.009-.025.168-.053.3.145a.436.436,0,0,1,.045.4.448.448,0,0,1-.827-.064.436.436,0,0,1,.106-.386C254.981,133.508,255.152,133.564,255.139,133.586Z" transform="translate(-254.7 -133.56)" fill="#263238"/>
            </g>
          </g>
        </g>
        <g id="Group_252" data-name="Group 252" transform="translate(26.232 27.871)">
          <g id="Group_251" data-name="Group 251">
            <g id="Group_250" data-name="Group 250">
              <path id="Path_54" data-name="Path 54" d="M259.4,123.773c0,.03-.124.042-.209.184a.313.313,0,0,0-.039.249.275.275,0,0,0,.476.037.311.311,0,0,0,0-.252c-.063-.154-.184-.184-.178-.214s.168-.052.3.145a.435.435,0,0,1,.045.4.448.448,0,0,1-.827-.065.434.434,0,0,1,.106-.386C259.244,123.695,259.415,123.75,259.4,123.773Z" transform="translate(-258.963 -123.746)" fill="#263238"/>
            </g>
          </g>
        </g>
        <g id="Group_255" data-name="Group 255" transform="translate(13.975 27.525)">
          <g id="Group_254" data-name="Group 254">
            <g id="Group_253" data-name="Group 253">
              <path id="Path_55" data-name="Path 55" d="M225.766,122.823c0,.031-.124.042-.209.184a.312.312,0,0,0-.039.249.275.275,0,0,0,.476.037.311.311,0,0,0,0-.252c-.063-.153-.184-.184-.178-.214-.009-.025.168-.053.3.145a.435.435,0,0,1,.045.4.448.448,0,0,1-.826-.065.434.434,0,0,1,.106-.386C225.608,122.745,225.778,122.8,225.766,122.823Z" transform="translate(-225.327 -122.797)" fill="#263238"/>
            </g>
          </g>
        </g>
        <g id="Group_258" data-name="Group 258" transform="translate(24.681 21.853)">
          <g id="Group_257" data-name="Group 257">
            <g id="Group_256" data-name="Group 256">
              <path id="Path_56" data-name="Path 56" d="M255.134,108.026c0-.031.123-.042.209-.184a.312.312,0,0,0,.039-.249.275.275,0,0,0-.476-.037.312.312,0,0,0,0,.252c.062.154.184.184.178.214.009.025-.168.053-.3-.145a.436.436,0,0,1-.045-.4.448.448,0,0,1,.827.064.436.436,0,0,1-.106.386C255.292,108.1,255.121,108.049,255.134,108.026Z" transform="translate(-254.707 -107.232)" fill="#263238"/>
            </g>
          </g>
        </g>
        <g id="Group_261" data-name="Group 261" transform="translate(19.895 19.733)">
          <g id="Group_260" data-name="Group 260">
            <g id="Group_259" data-name="Group 259">
              <path id="Path_57" data-name="Path 57" d="M242,102.208c0-.031.123-.042.209-.184a.312.312,0,0,0,.039-.249.275.275,0,0,0-.476-.037.311.311,0,0,0,0,.252c.062.153.184.184.178.214.009.025-.168.053-.3-.145a.435.435,0,0,1-.045-.4.448.448,0,0,1,.827.064.435.435,0,0,1-.106.386C242.159,102.286,241.988,102.231,242,102.208Z" transform="translate(-241.573 -101.414)" fill="#263238"/>
            </g>
          </g>
        </g>
        <g id="Group_264" data-name="Group 264" transform="translate(15.165 21.853)">
          <g id="Group_263" data-name="Group 263">
            <g id="Group_262" data-name="Group 262">
              <path id="Path_58" data-name="Path 58" d="M229.021,108.026c0-.031.123-.042.209-.184a.312.312,0,0,0,.039-.249.275.275,0,0,0-.476-.037.313.313,0,0,0,0,.252c.063.154.184.184.178.214.009.025-.168.053-.3-.145a.436.436,0,0,1-.045-.4.448.448,0,0,1,.827.064.436.436,0,0,1-.106.386C229.179,108.1,229.008,108.049,229.021,108.026Z" transform="translate(-228.594 -107.232)" fill="#263238"/>
            </g>
          </g>
        </g>
        <g id="Group_275" data-name="Group 275" transform="translate(19.72 38.754)">
          <g id="Group_269" data-name="Group 269">
            <g id="Group_268" data-name="Group 268">
              <g id="Group_267" data-name="Group 267">
                <g id="Group_266" data-name="Group 266">
                  <g id="Group_265" data-name="Group 265">
                    <path id="Path_59" data-name="Path 59" d="M241.092,155.075l.425,21.321a1.122,1.122,0,0,0,1.14,1.1h0a1.119,1.119,0,0,0,1.1-1.106c.042-3.841.183-16.779.207-21.343a1.432,1.432,0,0,0-1.649-1.422h0A1.437,1.437,0,0,0,241.092,155.075Z" transform="translate(-241.092 -153.609)" fill="#e8505b"/>
                  </g>
                </g>
              </g>
            </g>
          </g>
          <g id="Group_274" data-name="Group 274" opacity="0.3">
            <g id="Group_273" data-name="Group 273">
              <g id="Group_272" data-name="Group 272">
                <g id="Group_271" data-name="Group 271">
                  <g id="Group_270" data-name="Group 270">
                    <path id="Path_60" data-name="Path 60" d="M241.092,155.075l.425,21.321a1.122,1.122,0,0,0,1.14,1.1h0a1.119,1.119,0,0,0,1.1-1.106c.042-3.841.183-16.779.207-21.343a1.432,1.432,0,0,0-1.649-1.422h0A1.437,1.437,0,0,0,241.092,155.075Z" transform="translate(-241.092 -153.609)"/>
                  </g>
                </g>
              </g>
            </g>
          </g>
        </g>
        <g id="Group_278" data-name="Group 278" transform="translate(12.166 1.212)">
          <g id="Group_277" data-name="Group 277">
            <g id="Group_276" data-name="Group 276">
              <path id="Path_61" data-name="Path 61" d="M228.575,50.593a18,18,0,0,1-1.674,1.961c-.518.6-1.1,1.34-1.7,2.189a27.862,27.862,0,0,0-3.2,5.96c-.374.973-.673,1.866-.887,2.628a17.9,17.9,0,0,1-.713,2.478,7.961,7.961,0,0,1,.3-2.584,21.707,21.707,0,0,1,.779-2.72,23.229,23.229,0,0,1,3.276-6.092,21.721,21.721,0,0,1,1.839-2.149A7.949,7.949,0,0,1,228.575,50.593Z" transform="translate(-220.362 -50.589)" fill="#fff"/>
            </g>
          </g>
        </g>
        <g id="Group_281" data-name="Group 281" transform="translate(0.778 40.869)">
          <g id="Group_280" data-name="Group 280" transform="translate(0 0)">
            <g id="Group_279" data-name="Group 279">
              <path id="Path_62" data-name="Path 62" d="M198.825,159.419c.059.09-.949.746-2.355,2.049l-.545.518c-.188.181-.365.388-.56.591-.4.4-.769.872-1.173,1.356a22.174,22.174,0,0,0-3.815,7.223c-.172.607-.352,1.181-.459,1.734-.058.275-.129.538-.172.8l-.121.742c-.284,1.9-.257,3.1-.364,3.1a2.308,2.308,0,0,1-.12-.842q-.012-.209-.027-.454c0-.166,0-.346.008-.54a12.666,12.666,0,0,1,.075-1.317l.084-.764c.032-.266.093-.537.141-.821.088-.571.254-1.164.416-1.793a20.3,20.3,0,0,1,3.917-7.415c.428-.488.825-.959,1.246-1.354.207-.2.4-.4.6-.58l.584-.5a12.717,12.717,0,0,1,1.046-.8c.159-.112.3-.221.442-.312l.391-.234C198.534,159.518,198.8,159.384,198.825,159.419Z" transform="translate(-189.113 -159.414)" fill="#fff"/>
            </g>
          </g>
        </g>
      </g>
      <g id="Group_288" data-name="Group 288" transform="translate(0 100.03)">
        <g id="Group_284" data-name="Group 284">
          <g id="Group_283" data-name="Group 283">
            <path id="Path_63" data-name="Path 63" d="M170.321,332.129a2.755,2.755,0,0,1,.839-5.093c1-.2,2.246.086,2.876-.714.572-.727.14-1.691.391-2.86a2.227,2.227,0,0,1,2.358-1.7,3.273,3.273,0,0,1,2.681,1.692,6.4,6.4,0,0,1,.771,3.532,6.284,6.284,0,0,1-3.312,4.878,7.282,7.282,0,0,1-6.6.265" transform="translate(-168.94 -321.762)" fill="#e8505b"/>
          </g>
        </g>
        <g id="Group_287" data-name="Group 287" opacity="0.8">
          <g id="Group_286" data-name="Group 286">
            <g id="Group_285" data-name="Group 285">
              <path id="Path_64" data-name="Path 64" d="M170.321,332.129a2.755,2.755,0,0,1,.839-5.093c1-.2,2.246.086,2.876-.714.572-.727.14-1.691.391-2.86a2.227,2.227,0,0,1,2.358-1.7,3.273,3.273,0,0,1,2.681,1.692,6.4,6.4,0,0,1,.771,3.532,6.284,6.284,0,0,1-3.312,4.878,7.282,7.282,0,0,1-6.6.265" transform="translate(-168.94 -321.762)" fill="#fff"/>
            </g>
          </g>
        </g>
      </g>
      <g id="Group_294" data-name="Group 294" transform="translate(41.382 87.909)">
        <g id="Group_290" data-name="Group 290">
          <g id="Group_289" data-name="Group 289">
            <path id="Path_65" data-name="Path 65" d="M283.381,290.8a4.3,4.3,0,0,1,8,1c.367,1.547,0,3.51,1.286,4.444,1.168.849,2.647.118,4.486.439a3.478,3.478,0,0,1,2.793,3.577,5.112,5.112,0,0,1-2.478,4.285A9.992,9.992,0,0,1,292,305.966c-3.949-.311-6.044-2.333-7.81-4.876s-2.335-7.475-.81-10.288" transform="translate(-282.498 -288.499)" fill="#e8505b"/>
          </g>
        </g>
        <g id="Group_293" data-name="Group 293" opacity="0.8">
          <g id="Group_292" data-name="Group 292">
            <g id="Group_291" data-name="Group 291">
              <path id="Path_66" data-name="Path 66" d="M283.381,290.8a4.3,4.3,0,0,1,8,1c.367,1.547,0,3.51,1.286,4.444,1.168.849,2.647.118,4.486.439a3.478,3.478,0,0,1,2.793,3.577,5.112,5.112,0,0,1-2.478,4.285A9.992,9.992,0,0,1,292,305.966c-3.949-.311-6.044-2.333-7.81-4.876s-2.335-7.475-.81-10.288" transform="translate(-282.498 -288.499)" fill="#fff"/>
            </g>
          </g>
        </g>
      </g>
      <g id="Group_300" data-name="Group 300" transform="translate(11.374 84.819)">
        <g id="Group_296" data-name="Group 296" transform="translate(0 0)">
          <g id="Group_295" data-name="Group 295">
            <path id="Path_67" data-name="Path 67" d="M201.593,280.245a2.7,2.7,0,0,0-1.44,2.392,2.552,2.552,0,1,0,1.44-2.392" transform="translate(-200.152 -280.02)" fill="#e8505b"/>
          </g>
        </g>
        <g id="Group_299" data-name="Group 299" transform="translate(0 0)" opacity="0.8">
          <g id="Group_298" data-name="Group 298">
            <g id="Group_297" data-name="Group 297">
              <path id="Path_68" data-name="Path 68" d="M201.593,280.245a2.7,2.7,0,0,0-1.44,2.392,2.552,2.552,0,1,0,1.44-2.392" transform="translate(-200.152 -280.02)" fill="#fff"/>
            </g>
          </g>
        </g>
      </g>
      <g id="Group_306" data-name="Group 306" transform="translate(50.84 115.492)">
        <g id="Group_302" data-name="Group 302">
          <g id="Group_301" data-name="Group 301">
            <path id="Path_69" data-name="Path 69" d="M309.173,364.3a1.349,1.349,0,0,0-.72,1.2,1.276,1.276,0,1,0,.72-1.2" transform="translate(-308.453 -364.192)" fill="#e8505b"/>
          </g>
        </g>
        <g id="Group_305" data-name="Group 305" opacity="0.8">
          <g id="Group_304" data-name="Group 304">
            <g id="Group_303" data-name="Group 303">
              <path id="Path_70" data-name="Path 70" d="M309.173,364.3a1.349,1.349,0,0,0-.72,1.2,1.276,1.276,0,1,0,.72-1.2" transform="translate(-308.453 -364.192)" fill="#fff"/>
            </g>
          </g>
        </g>
      </g>
    </g>
  </g>
</svg>
