<svg xmlns="http://www.w3.org/2000/svg" width="410.977" height="353.614" viewBox="0 0 410.977 353.614">
  <g id="Group_16" data-name="Group 16" transform="translate(-35.833 -78.579)">
    <g id="Floor">
      <g id="Floor-2" data-name="Floor">
        <path id="Path_1" data-name="Path 1" d="M128.223,403.868c70.751,37.765,185.461,37.766,256.211,0s70.752-98.995,0-136.76-185.461-37.765-256.212,0S57.471,366.1,128.223,403.868Z" fill="#ebebeb"/>
      </g>
    </g>
    <g id="Plants">
      <g id="Plants-2" data-name="Plants">
        <g id="Group_2" data-name="Group 2">
          <path id="Path_2" data-name="Path 2" d="M405.243,310.18l-10.324-5.96s-2.529-22.11-.846-39.234c2.364-24.061,17.9-53.013,36.441-46.214s-8.5,31.3-14.518,51.712S405.243,310.18,405.243,310.18Z" fill="#ca4758"/>
          <path id="Path_3" data-name="Path 3" d="M405.243,310.18l-10.324-5.96s-2.529-22.11-.846-39.234c2.364-24.061,17.9-53.013,36.441-46.214s-8.5,31.3-14.518,51.712S405.243,310.18,405.243,310.18Z" opacity="0.1"/>
          <g id="Group_1" data-name="Group 1">
            <path id="Path_4" data-name="Path 4" d="M399.866,307.475a.4.4,0,0,1-.394-.347c-3.511-26.966,6.1-67.8,25.493-83.287a.4.4,0,1,1,.5.623c-19.19,15.318-28.682,55.805-25.2,82.561a.4.4,0,0,1-.343.446A.3.3,0,0,1,399.866,307.475Z" fill="#fff"/>
          </g>
        </g>
        <g id="Group_4" data-name="Group 4">
          <path id="Path_5" data-name="Path 5" d="M410.753,314.446l-7.346-4.242s-1.25-15.172,6.189-33.6c6.475-16.046,22.543-29.358,30.625-26.56s7.88,8.528,3.94,14.539S416.25,284.92,410.753,314.446Z" fill="#c94758"/>
          <g id="Group_3" data-name="Group 3">
            <path id="Path_6" data-name="Path 6" d="M406.2,314.844h-.026a.4.4,0,0,1-.372-.423c2.421-37.757,21.523-56.327,32.993-59.163a.4.4,0,1,1,.192.774c-12.085,2.988-30.123,23.094-32.39,58.44A.4.4,0,0,1,406.2,314.844Z" fill="#fff"/>
          </g>
        </g>
        <g id="Group_6" data-name="Group 6">
          <path id="Path_7" data-name="Path 7" d="M107.958,313.12s1.369-22.172-11.511-37.365S66.8,260.61,61.246,263.443s-9.272,10.921.279,16.712,29.859,17.371,33.233,27.711Z" fill="#c94758"/>
          <path id="Path_8" data-name="Path 8" d="M107.958,313.12s1.369-22.172-11.511-37.365S66.8,260.61,61.246,263.443s-9.272,10.921.279,16.712,29.859,17.371,33.233,27.711Z" fill="#c94758" opacity="0.1"/>
          <g id="Group_5" data-name="Group 5">
            <path id="Path_9" data-name="Path 9" d="M101.94,307.571a.5.5,0,0,1-.5-.447c-2.657-24.532-27.17-38.13-36.946-39.667a.5.5,0,0,1-.415-.572.507.507,0,0,1,.572-.416c10,1.572,35.067,15.473,37.783,40.548a.5.5,0,0,1-.443.551Z" fill="#fff"/>
          </g>
        </g>
        <g id="Group_9" data-name="Group 9">
          <path id="Path_10" data-name="Path 10" d="M97.171,301.944c-3.229-7.36-6.881-10.662-17.383-8.9s-8.951,1.487-21.852-1.8c-5.415-1.38-11.508-1.6-16.7.74-4.389,1.975-7.673,6-3.421,10.26,4.778,4.783,11.911,6.389,17.217,10.578a8.33,8.33,0,0,1,2.762,3.328c1.386,3.539-1.39,7.528-.582,11.243.781,3.588,4.71,5.685,8.374,5.927s7.27-.861,10.919-1.278,7.751.029,10.263,2.707c2.7,2.878,2.772,7.464,5.281,10.511,3.768,4.578,13.024,5.843,17.992,2.979l13.088-7.545c8.654-11.663-4.952-20.9-12.146-29.95C107.493,306.354,99.11,306.365,97.171,301.944Z" fill="#bf4252"/>
          <g id="Group_7" data-name="Group 7">
            <path id="Path_11" data-name="Path 11" d="M115,333.669a.5.5,0,0,1-.426-.237c-14.931-24.193-55.538-36.427-69.955-37.452a.5.5,0,0,1-.464-.534.513.513,0,0,1,.534-.464c14.568,1.036,55.613,13.421,70.736,37.925a.5.5,0,0,1-.425.762Z" fill="#fff"/>
          </g>
          <g id="Group_8" data-name="Group 8">
            <path id="Path_12" data-name="Path 12" d="M67.707,322.268a.5.5,0,0,1-.3-.9c.521-.388,12.918-9.488,24.968-9.671h.007a.5.5,0,0,1,.008,1c-11.73.178-24.263,9.381-24.388,9.473A.493.493,0,0,1,67.707,322.268Z" fill="#fff"/>
          </g>
        </g>
      </g>
    </g>
    <g id="Device">
      <g id="Laptop">
        <path id="Path_13" data-name="Path 13" d="M114.071,342.171a9.287,9.287,0,0,0,4.33,7.191l121.326,70.047a9.569,9.569,0,0,0,8.66,0l166.007-95.844a8.135,8.135,0,0,0,0-14.381L293.069,239.137a9.569,9.569,0,0,0-8.66,0L118.4,334.981A9.284,9.284,0,0,0,114.071,342.171Z" fill="#a72e3e"/>
        <path id="Path_14" data-name="Path 14" d="M164.127,308.581l-45.727,26.4a8.136,8.136,0,0,0,0,14.381l121.326,70.047a8.856,8.856,0,0,0,4.33,1.036V308.581Z" fill="#a72e3e"/>
        <path id="Path_15" data-name="Path 15" d="M110.009,335.136a9.288,9.288,0,0,1-4.062-7.346V183.006a9.57,9.57,0,0,1,4.33-7.5L276.284,79.661a8.137,8.137,0,0,1,12.455,7.191V231.637a9.573,9.573,0,0,1-4.33,7.5L118.4,334.981A9.286,9.286,0,0,1,110.009,335.136Z" fill="#bf4252"/>
        <path id="Path_16" data-name="Path 16" d="M126.258,189.732l-19.043-10.994a8.847,8.847,0,0,0-1.269,4.268V327.79a9.285,9.285,0,0,0,4.062,7.346,9.286,9.286,0,0,0,8.391-.155l18.936-10.932Z" fill="#a72e3e"/>
        <path id="Path_17" data-name="Path 17" d="M114.07,187.7V332.481c0,2.761,1.939,3.88,4.33,2.5l166.009-95.844a9.573,9.573,0,0,0,4.33-7.5V86.852c0-2.762-1.939-3.881-4.33-2.5L118.4,180.2A9.573,9.573,0,0,0,114.07,187.7Z" fill="#c94758"/>
        <path id="Path_18" data-name="Path 18" d="M118.4,339.981l121.327,70.047a9.569,9.569,0,0,0,8.66,0l166.008-95.844c2.391-1.381,2.391-3.62,0-5L293.069,239.137a9.569,9.569,0,0,0-8.66,0L118.4,334.981C116.009,336.361,116.009,338.6,118.4,339.981Z" fill="#bf4252"/>
        <path id="Path_19" data-name="Path 19" d="M120.73,188.231,282.079,95.077c1.435-.828,2.6-.157,2.6,1.5V221.911a5.743,5.743,0,0,1-2.6,4.5L120.73,319.563c-1.435.829-2.6.157-2.6-1.5V192.731A5.743,5.743,0,0,1,120.73,188.231Z" fill="#fff"/>
        <path id="Path_20" data-name="Path 20" d="M132.484,336.231l154.091-88.963a4.787,4.787,0,0,1,4.33,0l7.881,4.55a1.319,1.319,0,0,1,0,2.5L144.672,343.267a4.781,4.781,0,0,1-4.33,0l-7.858-4.536A1.319,1.319,0,0,1,132.484,336.231Z" fill="#a72e3e"/>
        <path id="Path_21" data-name="Path 21" d="M152.8,347.958l154.089-88.965a4.787,4.787,0,0,1,4.33,0l48.477,27.989a1.32,1.32,0,0,1,0,2.5L205.778,378.323a4.8,4.8,0,0,1-4.334.007L152.8,350.451A1.314,1.314,0,0,1,152.8,347.958Z" fill="#a72e3e"/>
        <path id="Path_22" data-name="Path 22" d="M290.923,299.019l4.824-2.785c.2-.119.193-.318-.027-.445l-5.579-3.221a.854.854,0,0,0-.77-.016l-4.824,2.786c-.2.118-.193.317.028.444L290.153,299A.854.854,0,0,0,290.923,299.019ZM281.4,287.951l-4.825,2.785c-.2.119-.192.318.028.445l5.578,3.221a.854.854,0,0,0,.77.016l4.825-2.786c.2-.118.193-.317-.027-.444l-5.58-3.221A.852.852,0,0,0,281.4,287.951Zm-15.587,9-8.165,4.714c-.2.118-.192.318.027.444l5.579,3.221a.854.854,0,0,0,.77.016l8.165-4.714c.2-.118.192-.317-.028-.444l-5.578-3.221A.854.854,0,0,0,265.815,296.95Zm8.536-4.928-4.825,2.786c-.2.118-.193.317.028.444l5.578,3.221a.854.854,0,0,0,.77.016l4.824-2.786c.2-.119.193-.317-.027-.444l-5.579-3.221A.849.849,0,0,0,274.351,292.022ZM255.424,302.95l-4.825,2.785c-.205.119-.193.317.027.444L256.2,309.4a.851.851,0,0,0,.77.016l4.824-2.785c.2-.119.193-.317-.027-.444l-5.579-3.221A.846.846,0,0,0,255.424,302.95Zm-7.052,4.071-4.824,2.785c-.205.118-.193.317.027.445l5.579,3.22a.846.846,0,0,0,.769.016l4.825-2.785c.205-.119.193-.318-.028-.445l-5.578-3.22A.851.851,0,0,0,248.372,307.021Zm21.944,13.1,4.825-2.786c.2-.118.193-.317-.028-.444l-5.578-3.221a.854.854,0,0,0-.77-.016l-4.824,2.785c-.205.119-.194.318.027.445l5.579,3.221A.852.852,0,0,0,270.316,320.119Zm-7.051,4.071,4.825-2.786c.205-.118.192-.317-.028-.444l-5.578-3.221a.854.854,0,0,0-.77-.016l-4.825,2.786c-.205.118-.192.317.027.444l5.579,3.221A.854.854,0,0,0,263.265,324.19Zm-7.052,4.071,4.825-2.786c.205-.118.193-.317-.027-.444l-5.579-3.221a.854.854,0,0,0-.77-.016l-4.824,2.786c-.205.118-.193.317.027.444l5.579,3.221A.852.852,0,0,0,256.213,328.261Zm-7.051,4.071,4.825-2.786c.205-.118.192-.317-.028-.444l-5.578-3.221a.854.854,0,0,0-.77-.016l-4.824,2.786c-.205.118-.193.317.027.444l5.578,3.221A.854.854,0,0,0,249.162,332.332Zm34.71-29.242L288.7,300.3c.2-.118.193-.317-.027-.444l-5.579-3.221a.852.852,0,0,0-.769-.016l-4.825,2.786c-.205.118-.193.317.027.444l5.579,3.221A.854.854,0,0,0,283.872,303.09Zm-6.5,12.957,10.762-6.213c.2-.119.193-.318-.028-.445l-13.548-7.822a.849.849,0,0,0-.769-.015l-5.567,3.213c-.2.119-.193.318.027.445l7.173,4.141c.22.127.232.326.027.444l-4.453,2.572c-.205.118-.193.317.027.444l5.579,3.221A.851.851,0,0,0,277.368,316.047Zm-36.047-4.955-4.825,2.785c-.205.119-.192.318.028.444l5.578,3.222a.854.854,0,0,0,.77.015l4.825-2.785c.2-.119.192-.317-.028-.445l-5.578-3.22A.851.851,0,0,0,241.321,311.092Zm-7.051,4.071-4.825,2.785c-.205.119-.193.318.027.445l5.579,3.221a.854.854,0,0,0,.77.016l4.824-2.786c.205-.118.193-.318-.027-.444l-5.579-3.221A.852.852,0,0,0,234.27,315.163Zm-35.236,45.651a.848.848,0,0,0,.769.015l4.825-2.785c.2-.118.192-.318-.028-.445l-5.578-3.22a.854.854,0,0,0-.77-.016l-4.825,2.785c-.205.119-.192.317.027.445Zm-21.175-13.083-4.824,2.786c-.205.118-.193.317.027.444l5.579,3.221a.852.852,0,0,0,.769.016l4.825-2.786c.205-.118.193-.317-.028-.444l-5.578-3.22A.851.851,0,0,0,177.859,347.731Zm11.349,9.553a.854.854,0,0,0,.77.016l4.824-2.786c.205-.118.193-.318-.027-.444l-5.579-3.221a.849.849,0,0,0-.769-.016l-4.825,2.785c-.205.119-.193.318.028.445Zm22.276,6,4.824-2.785c.205-.119.193-.318-.027-.445l-5.579-3.221a.851.851,0,0,0-.77-.015l-4.824,2.785c-.2.118-.192.317.028.444l5.578,3.221A.851.851,0,0,0,211.484,363.288Zm-7.821,4.055a.852.852,0,0,0,.769.016l4.825-2.786c.205-.118.193-.317-.027-.444l-5.579-3.221a.854.854,0,0,0-.77-.016l-4.824,2.786c-.205.118-.193.317.027.444ZM184.91,343.66l-4.824,2.786c-.205.118-.193.317.028.444l5.578,3.221a.854.854,0,0,0,.77.016l4.824-2.786c.205-.118.193-.317-.027-.444l-5.579-3.221A.854.854,0,0,0,184.91,343.66ZM220.167,323.3l-4.825,2.785c-.2.119-.192.318.028.445l5.578,3.221a.854.854,0,0,0,.77.016l4.825-2.786c.205-.118.192-.317-.028-.444l-5.579-3.221A.852.852,0,0,0,220.167,323.3ZM191.962,339.59l-4.825,2.785c-.2.118-.192.317.028.444l5.578,3.221a.851.851,0,0,0,.77.016l4.825-2.786c.205-.118.192-.317-.028-.444l-5.579-3.221A.848.848,0,0,0,191.962,339.59Zm35.256-20.356-4.824,2.786c-.205.118-.193.317.027.444L228,325.685a.848.848,0,0,0,.769.015l4.825-2.785c.205-.118.193-.317-.027-.444l-5.579-3.222A.854.854,0,0,0,227.218,319.234Zm-14.1,8.142-4.825,2.786c-.205.118-.193.317.027.444l5.579,3.221a.851.851,0,0,0,.77.015l4.824-2.785c.205-.118.194-.317-.027-.444l-5.579-3.221A.849.849,0,0,0,213.116,327.376Zm-7.051,4.071-4.825,2.786c-.205.118-.193.317.027.444l5.579,3.221a.854.854,0,0,0,.77.016l4.825-2.786c.2-.118.192-.317-.028-.444l-5.579-3.221A.852.852,0,0,0,206.065,331.447Zm-7.052,4.071-4.824,2.786c-.205.118-.193.317.027.444l5.579,3.221a.852.852,0,0,0,.769.016l4.825-2.786c.2-.118.193-.317-.028-.444l-5.578-3.221A.854.854,0,0,0,199.013,335.518Zm36.047,4.956,4.824-2.785c.205-.119.193-.318-.027-.445l-5.579-3.221a.851.851,0,0,0-.77-.015l-4.824,2.785c-.205.118-.193.317.027.444l5.579,3.221A.854.854,0,0,0,235.06,340.474Zm61.929-61.522-4.824,2.785c-.205.119-.193.318.027.445l5.579,3.221a.849.849,0,0,0,.769.015l4.825-2.785c.205-.118.192-.317-.028-.444l-5.578-3.222A.854.854,0,0,0,296.989,278.952Zm-8.536,4.928-4.824,2.786c-.2.118-.193.316.027.444l5.579,3.221a.849.849,0,0,0,.769.015l4.825-2.785c.2-.118.193-.317-.027-.444l-5.579-3.221A.854.854,0,0,0,288.453,283.88Zm15.587-9-4.824,2.785c-.205.118-.193.318.027.445l5.579,3.22a.849.849,0,0,0,.769.016l4.825-2.785c.205-.119.193-.318-.027-.445L304.81,274.9A.854.854,0,0,0,304.04,274.881Zm-36.5,37.636,4.825-2.785c.2-.118.192-.317-.028-.444l-5.578-3.221a.854.854,0,0,0-.77-.016l-4.825,2.786c-.2.118-.192.317.027.444l5.579,3.221A.851.851,0,0,0,267.542,312.517Zm44.319-41.692a.854.854,0,0,0-.77-.015l-4.824,2.785c-.2.119-.193.317.028.444l5.578,3.221a.846.846,0,0,0,.769.016l4.825-2.786c.2-.118.193-.316-.027-.443ZM242.111,336.4l4.824-2.785c.205-.119.193-.318-.027-.445l-5.579-3.221a.852.852,0,0,0-.769-.016l-4.825,2.786c-.205.118-.193.317.028.444l5.578,3.221A.854.854,0,0,0,242.111,336.4Zm86.471-49.925,4.825-2.785c.2-.118.192-.317-.028-.444l-5.579-3.221a.852.852,0,0,0-.769-.016l-4.825,2.786c-.2.118-.193.317.028.444l5.578,3.221A.851.851,0,0,0,328.582,286.478Zm-15.021-.529,4.825-2.786c.205-.118.192-.317-.028-.444l-5.579-3.221a.852.852,0,0,0-.769-.016l-4.824,2.785c-.206.119-.194.318.027.445l5.579,3.221A.852.852,0,0,0,313.561,285.949Zm6.27-10.522a.851.851,0,0,0-.77-.016l-4.825,2.786c-.2.118-.192.317.028.444l5.579,3.221a.855.855,0,0,0,.769.016l4.825-2.786c.2-.118.193-.317-.027-.444Zm1.485-.857,13.548,7.822a.852.852,0,0,0,.769.016l4.825-2.785c.2-.119.192-.318-.027-.445l-13.549-7.822a.854.854,0,0,0-.77-.016l-4.824,2.785C321.083,274.243,321.1,274.443,321.316,274.57Zm-16.357,8.983-4.825,2.786c-.205.118-.193.317.027.444L305.74,290a.848.848,0,0,0,.77.016l4.825-2.785c.2-.119.192-.317-.028-.444l-5.578-3.221A.854.854,0,0,0,304.959,283.553Zm-53.07,30.64-4.825,2.786c-.205.118-.193.317.027.444l5.579,3.221a.852.852,0,0,0,.769.016l4.825-2.786c.2-.118.193-.317-.028-.444l-5.578-3.221A.852.852,0,0,0,251.889,314.193Zm68.872-23.659a.854.854,0,0,0,.77.016l4.825-2.785c.2-.119.192-.318-.028-.445l-5.579-3.221a.852.852,0,0,0-.769-.016l-4.825,2.786c-.2.118-.193.317.027.444ZM258.94,310.122l-4.825,2.786c-.205.118-.192.317.028.444l5.578,3.221a.854.854,0,0,0,.77.016l4.824-2.786c.206-.118.193-.317-.027-.444l-5.579-3.221A.852.852,0,0,0,258.94,310.122Zm-52.855,46.62a.852.852,0,0,0,.769.016l4.825-2.785c.205-.119.193-.318-.028-.445l-5.578-3.221a.851.851,0,0,0-.77-.015l-4.824,2.785c-.205.118-.193.318.027.444Zm-10.607-9.98-4.825,2.785c-.2.119-.192.318.028.445l5.579,3.22a.849.849,0,0,0,.769.016l4.825-2.785c.205-.119.192-.317-.028-.445l-5.578-3.221A.854.854,0,0,0,195.478,346.762Zm18.427,5.925,4.825-2.785c.205-.119.193-.318-.027-.445l-5.579-3.22a.851.851,0,0,0-.77-.016l-4.824,2.785c-.205.118-.193.318.027.444l5.579,3.221A.849.849,0,0,0,213.9,352.687Zm7.052-4.071,4.824-2.785c.2-.119.193-.317-.027-.445l-5.579-3.221a.852.852,0,0,0-.769-.016l-4.825,2.786c-.2.119-.193.317.028.444l5.579,3.221A.852.852,0,0,0,220.957,348.616Zm7.051-4.071,4.825-2.785c.205-.119.192-.318-.027-.445l-5.579-3.221a.851.851,0,0,0-.77-.015l-4.825,2.785c-.205.118-.192.317.028.444l5.579,3.221A.852.852,0,0,0,228.008,344.545Zm-25.479-1.854-4.824,2.785c-.205.118-.193.317.027.445l5.579,3.22a.851.851,0,0,0,.77.016l4.824-2.785c.205-.118.193-.318-.027-.445l-5.579-3.22A.851.851,0,0,0,202.529,342.691Zm7.052-4.072-4.825,2.786c-.205.119-.193.317.027.444l5.579,3.221a.851.851,0,0,0,.77.016l4.825-2.786c.2-.118.192-.316-.028-.444l-5.579-3.221A.855.855,0,0,0,209.581,338.619Zm28.205-16.283-4.825,2.785c-.205.118-.192.317.028.444l5.578,3.221a.854.854,0,0,0,.77.016l4.824-2.786c.205-.118.193-.317-.027-.444l-5.579-3.221A.848.848,0,0,0,237.786,322.336Zm-7.052,4.07-4.824,2.786c-.205.118-.193.318.027.444l5.579,3.221a.852.852,0,0,0,.769.016l4.825-2.785c.205-.119.193-.318-.027-.445l-5.579-3.221A.854.854,0,0,0,230.734,326.406Zm14.1-8.142-4.825,2.786c-.2.118-.192.317.028.444l5.578,3.221a.854.854,0,0,0,.77.016l4.825-2.786c.205-.118.192-.317-.028-.444l-5.578-3.221A.854.854,0,0,0,244.837,318.264Zm-28.205,16.284-4.824,2.786c-.205.118-.194.317.027.444L217.414,341a.849.849,0,0,0,.769.016l4.825-2.785c.2-.119.192-.318-.028-.445l-5.579-3.22A.852.852,0,0,0,216.632,334.548Zm7.051-4.071-4.825,2.786c-.2.119-.192.317.028.444l5.579,3.221a.852.852,0,0,0,.769.016l4.825-2.786c.205-.118.193-.317-.027-.444l-5.579-3.22A.851.851,0,0,0,223.683,330.477Zm-5.148,28.74,4.825-2.786c.205-.118.192-.317-.027-.444l-5.579-3.221a.854.854,0,0,0-.77-.016l-4.825,2.786c-.205.118-.192.317.028.444l5.578,3.221A.854.854,0,0,0,218.535,359.217Zm-41.378-4.178-5.58-3.221a.852.852,0,0,0-.769-.016l-4.825,2.786c-.205.118-.192.317.028.444l5.578,3.221a.854.854,0,0,0,.77.016l4.825-2.785C177.389,355.365,177.376,355.166,177.157,355.039Zm10.567,3.1-5.579-3.221a.851.851,0,0,0-.77-.016l-7.422,4.285c-.205.118-.193.318.027.445l5.579,3.22a.851.851,0,0,0,.77.016l7.422-4.285C187.956,358.466,187.944,358.268,187.724,358.141ZM168.6,348.812l-5.578-3.221a.854.854,0,0,0-.77-.016L156.311,349c-.205.118-.193.317.027.444l5.579,3.221a.852.852,0,0,0,.769.016l5.939-3.429C168.83,349.138,168.817,348.939,168.6,348.812Zm4.553-2.628a.852.852,0,0,0,.769.016l4.825-2.786c.205-.118.193-.317-.027-.444l-5.58-3.221a.852.852,0,0,0-.769-.016l-4.824,2.785c-.206.119-.193.318.027.445Zm24.4,15.486-5.579-3.221a.852.852,0,0,0-.769-.015l-9.278,5.356c-.205.119-.193.318.027.445l5.579,3.221a.852.852,0,0,0,.769.016l9.278-5.357C197.781,362,197.769,361.8,197.549,361.67Zm4.63,6.53-5.579-3.22a.851.851,0,0,0-.77-.017l-5.938,3.429c-.205.118-.192.317.028.444l5.578,3.221a.854.854,0,0,0,.77.016l5.938-3.429C202.411,368.526,202.4,368.327,202.179,368.2Zm23.4-52.285a.852.852,0,0,0,.769.016l4.824-2.786c.206-.118.194-.317-.027-.444l-5.578-3.221a.854.854,0,0,0-.77-.016l-4.824,2.786c-.206.118-.193.317.027.444Zm-14.1,8.142a.854.854,0,0,0,.77.016l4.824-2.786c.205-.118.193-.317-.027-.444l-5.579-3.221a.852.852,0,0,0-.769-.016l-4.825,2.786c-.205.118-.193.317.027.444ZM180.2,342.112a.849.849,0,0,0,.769.016l4.825-2.785c.205-.118.193-.317-.027-.444l-5.579-3.221a.851.851,0,0,0-.77-.016l-4.824,2.786c-.205.118-.193.317.027.444Zm38.324-22.126a.854.854,0,0,0,.77.016l4.825-2.786c.205-.118.192-.317-.028-.444l-5.578-3.221a.854.854,0,0,0-.77-.016l-4.825,2.786c-.205.118-.192.317.027.444Zm-14.1,8.142a.852.852,0,0,0,.769.016l4.825-2.785c.205-.119.193-.318-.028-.445l-5.578-3.221a.851.851,0,0,0-.77-.015l-4.825,2.785c-.205.118-.192.317.028.444Zm1.631,40.6a.851.851,0,0,0-.77-.016l-7.422,4.285c-.205.118-.193.317.027.444l5.579,3.221a.854.854,0,0,0,.77.016l7.422-4.285c.205-.118.193-.318-.028-.445ZM194.3,333.971a.857.857,0,0,0,.77.015L199.9,331.2c.205-.119.192-.317-.028-.445l-5.578-3.221a.851.851,0,0,0-.77-.015L188.7,330.3c-.205.118-.192.317.028.444Zm-7.051,4.071a.854.854,0,0,0,.77.016l4.824-2.786c.205-.118.193-.318-.027-.444l-5.579-3.221a.852.852,0,0,0-.769-.016l-4.825,2.785c-.205.119-.193.318.027.445ZM336.688,293.3a.848.848,0,0,0-.769-.016l-11.876,6.856c-.2.119-.193.318.027.445l5.579,3.22a.848.848,0,0,0,.77.016l11.876-6.856c.2-.119.192-.317-.028-.444Zm-15.587,9a.852.852,0,0,0-.769-.016l-4.825,2.785c-.2.119-.192.318.028.445l5.578,3.221a.851.851,0,0,0,.77.015l4.825-2.785c.2-.118.192-.317-.028-.445Zm-95.514,52.845,4.824-2.786c.205-.118.193-.317-.028-.444L224.8,348.7a.854.854,0,0,0-.77-.016l-4.824,2.786c-.205.118-.193.317.027.444l5.579,3.221A.854.854,0,0,0,225.587,355.146ZM307,310.443a.854.854,0,0,0-.77-.016l-4.825,2.785c-.2.119-.192.318.028.445l5.579,3.221a.852.852,0,0,0,.769.016l4.825-2.786c.2-.118.193-.317-.027-.444ZM343.74,289.23a.851.851,0,0,0-.77-.015L338.145,292c-.2.119-.192.318.028.444l5.579,3.221a.852.852,0,0,0,.769.016l4.825-2.785c.2-.119.192-.318-.027-.445Zm12.63-.849-13.549-7.823a.852.852,0,0,0-.769-.016l-4.825,2.786c-.2.118-.193.317.028.444L350.8,291.6a.854.854,0,0,0,.77.015l4.824-2.785C356.6,288.707,356.59,288.507,356.37,288.381Zm-75.721,37.275a.852.852,0,0,0-.769-.016l-5.938,3.428c-.2.118-.193.318.027.445l5.579,3.22a.849.849,0,0,0,.769.016l5.938-3.428c.2-.118.193-.318-.027-.444Zm17.814-10.285a.852.852,0,0,0-.769-.016l-7.423,4.286c-.2.118-.193.317.027.444l5.579,3.221a.854.854,0,0,0,.77.016l7.422-4.286c.2-.118.193-.317-.027-.444ZM264.32,335.083a.851.851,0,0,0-.77-.015l-39.709,22.926c-.205.119-.193.318.027.444l5.579,3.221a.845.845,0,0,0,.769.016l39.71-22.926c.205-.119.193-.318-.027-.445ZM222.383,359.3a.852.852,0,0,0-.769-.016l-5.938,3.428c-.206.118-.193.317.027.445l5.579,3.221a.852.852,0,0,0,.769.015l5.939-3.428c.2-.119.192-.317-.028-.444Zm50.1-28.926a.852.852,0,0,0-.769-.016l-5.938,3.428c-.205.119-.193.318.027.445l5.579,3.22a.848.848,0,0,0,.77.016l5.938-3.428c.2-.118.192-.317-.028-.444Zm-58.266,33.639a.852.852,0,0,0-.769-.015l-5.938,3.428c-.205.119-.193.317.028.444l5.578,3.221a.851.851,0,0,0,.77.016l5.938-3.428c.2-.119.192-.317-.028-.445Zm74.6-43.067a.854.854,0,0,0-.77-.016l-5.938,3.429c-.2.118-.192.317.028.444l5.579,3.221a.848.848,0,0,0,.769.015l5.938-3.428c.2-.118.193-.317-.028-.444Zm25.236-14.57a.854.854,0,0,0-.77-.016l-4.824,2.786c-.2.118-.193.316.028.444l5.578,3.221a.854.854,0,0,0,.77.016l4.824-2.786c.2-.118.193-.317-.027-.444Zm15.45-11.221,4.825-2.785c.2-.119.193-.318-.027-.445l-5.579-3.221a.851.851,0,0,0-.77-.015l-4.825,2.785c-.2.118-.192.317.028.444l5.579,3.221A.852.852,0,0,0,329.5,295.151Zm-31.526-.2,4.825-2.786c.2-.118.192-.317-.027-.444l-5.58-3.221a.852.852,0,0,0-.769-.016l-4.825,2.786c-.2.118-.192.317.028.444l5.578,3.221A.854.854,0,0,0,297.974,294.948ZM282,322.577l14.1-8.142c.2-.118.192-.317-.028-.444l-5.579-3.221a.852.852,0,0,0-.769-.016l-14.1,8.142c-.205.118-.193.318.028.445l5.578,3.22A.851.851,0,0,0,282,322.577Zm39.683-23.371a.852.852,0,0,0,.769.016l4.824-2.785c.206-.119.193-.318-.027-.445l-5.579-3.221a.848.848,0,0,0-.769-.015l-4.825,2.785c-.2.118-.192.318.028.444Zm-7.2-4.585,4.825-2.786c.205-.118.193-.317-.027-.444L313.7,288.17a.852.852,0,0,0-.769-.016L308.1,290.94c-.205.118-.193.317.027.444l5.579,3.221A.852.852,0,0,0,314.479,294.621Zm-39.534,32.027,4.825-2.785c.205-.119.193-.317-.027-.444l-5.579-3.221a.851.851,0,0,0-.77-.016l-4.824,2.785c-.205.119-.193.317.027.445l5.579,3.22A.846.846,0,0,0,274.945,326.648Zm31.147-18.442a.851.851,0,0,0,.77.015l4.824-2.785c.206-.118.193-.318-.027-.444l-5.579-3.221a.852.852,0,0,0-.769-.016l-4.825,2.785c-.2.119-.193.318.028.445Zm-66.4,38.8,4.825-2.786c.2-.118.192-.317-.028-.444l-5.578-3.221a.854.854,0,0,0-.77-.016l-4.824,2.786c-.206.118-.193.317.027.444l5.578,3.221A.854.854,0,0,0,239.689,347Zm7.051-4.072,4.825-2.785c.205-.118.193-.317-.027-.444l-5.579-3.222a.855.855,0,0,0-.769-.015l-4.825,2.786c-.205.118-.193.317.027.444l5.579,3.221A.849.849,0,0,0,246.74,342.932Zm-14.1,8.142,4.824-2.785c.205-.118.193-.317-.027-.444l-5.579-3.221a.852.852,0,0,0-.769-.016l-4.825,2.786c-.2.118-.193.317.027.444l5.579,3.221A.851.851,0,0,0,232.638,351.074Zm28.2-16.284,4.824-2.785c.205-.118.193-.317-.027-.444l-5.579-3.221a.849.849,0,0,0-.769-.016l-4.825,2.786c-.2.118-.193.316.028.443l5.578,3.222A.854.854,0,0,0,260.843,334.79Zm-7.052,4.071,4.825-2.785c.205-.118.193-.317-.027-.444l-5.579-3.221a.851.851,0,0,0-.77-.016l-4.824,2.785c-.205.119-.193.318.027.445l5.579,3.221A.852.852,0,0,0,253.791,338.861Zm14.1-8.142,4.825-2.785c.205-.118.192-.318-.027-.445l-5.579-3.22a.851.851,0,0,0-.77-.016l-4.825,2.785c-.2.118-.192.318.028.445l5.578,3.221A.851.851,0,0,0,267.894,330.719Zm32.26-60.225a.854.854,0,0,0,.77.016l4.824-2.786c.205-.118.193-.316-.027-.444l-1.485-.857a.854.854,0,0,0-.77-.016l-4.825,2.786c-.2.118-.192.317.028.444ZM265.46,292.888a.849.849,0,0,0,.769.016l4.825-2.785c.205-.118.193-.318-.027-.445l-5.579-3.22a.851.851,0,0,0-.77-.017l-4.824,2.786c-.205.118-.193.318.027.445Zm14.1-8.142a.852.852,0,0,0,.769.016l4.824-2.785c.2-.119.193-.318-.027-.445l-5.579-3.221a.852.852,0,0,0-.769-.016l-4.825,2.786c-.2.118-.193.318.028.444ZM256.85,297.859a.849.849,0,0,0,.769.016l4.825-2.785c.2-.118.193-.318-.028-.445l-5.578-3.221a.854.854,0,0,0-.77-.015l-4.824,2.785c-.205.118-.193.318.027.445Zm15.661-9.042a.851.851,0,0,0,.77.016l4.824-2.786c.2-.118.193-.317-.027-.443l-5.579-3.221a.846.846,0,0,0-.769-.016l-4.825,2.785c-.2.119-.193.317.027.444ZM242.747,306a.854.854,0,0,0,.77.015l4.824-2.785c.205-.118.193-.318-.027-.445l-5.579-3.22a.851.851,0,0,0-.77-.016l-4.824,2.785c-.205.119-.193.318.027.445Zm7.051-4.071a.851.851,0,0,0,.77.015l4.825-2.785c.205-.119.192-.317-.028-.444l-5.579-3.221a.849.849,0,0,0-.769-.016l-4.825,2.785c-.205.119-.192.317.028.445Zm36.253-23.3a.851.851,0,0,0,.77.016l4.825-2.786c.2-.118.192-.316-.028-.444l-1.485-.857a.852.852,0,0,0-.769-.016l-4.825,2.786c-.2.118-.193.317.027.444ZM307.2,266.423a.851.851,0,0,0,.77.016l4.825-2.785c.2-.119.192-.318-.028-.445l-1.485-.858a.857.857,0,0,0-.77-.015l-4.824,2.785c-.2.119-.193.318.027.445Zm11.719,6.766a.854.854,0,0,0,.77.016l4.825-2.785c.2-.119.192-.318-.027-.445l-5.58-3.221a.852.852,0,0,0-.769-.016l-4.825,2.786c-.2.118-.193.318.028.444Zm17.627,17.891,4.825-2.786c.2-.118.193-.317-.027-.444l-5.579-3.221a.854.854,0,0,0-.77-.016l-4.824,2.786c-.2.118-.193.317.027.444l5.579,3.221A.852.852,0,0,0,336.551,291.08ZM293.1,274.565a.849.849,0,0,0,.769.016L298.7,271.8c.205-.119.192-.318-.028-.445l-1.485-.857a.852.852,0,0,0-.769-.016l-4.825,2.786c-.2.118-.193.317.028.444ZM235.7,310.073a.849.849,0,0,0,.769.015l4.825-2.785c.205-.118.193-.317-.027-.444l-5.579-3.221a.851.851,0,0,0-.77-.016l-4.825,2.786c-.2.118-.192.317.028.443Z" fill="#c94758"/>
        <path id="Path_23" data-name="Path 23" d="M264.368,353.9l52.806-30.488,32.5,18.762-52.807,30.488Z" fill="#a72e3e"/>
      </g>
    </g>
    <g id="Window">
      <g id="Tab">
        <path id="Path_24" data-name="Path 24" d="M147.035,200.256l157.351-90.845c3.077-1.777,5.6-.323,5.6,3.23V234.514a5.766,5.766,0,0,1-2.6,4.5l-161.35,93.153c-1.429.825-2.6.15-2.6-1.5V206.492A7.987,7.987,0,0,1,147.035,200.256Z" fill="#f5f5f5"/>
        <path id="Path_25" data-name="Path 25" d="M309.98,115.56v-2.919c0-3.553-2.517-5.007-5.594-3.23L147.035,200.256a7.987,7.987,0,0,0-3.6,6.236v5.223Z" fill="#c94758"/>
        <path id="Path_26" data-name="Path 26" d="M286.517,122.214a4.258,4.258,0,0,0-1.927,3.337c0,1.229.863,1.727,1.927,1.112a4.258,4.258,0,0,0,1.927-3.337C288.444,122.1,287.581,121.6,286.517,122.214Z" fill="#fff"/>
        <path id="Path_27" data-name="Path 27" d="M294.164,117.8a4.26,4.26,0,0,0-1.927,3.337c0,1.229.863,1.728,1.927,1.113a4.26,4.26,0,0,0,1.927-3.338C296.091,117.682,295.228,117.185,294.164,117.8Z" fill="#fff"/>
        <path id="Path_28" data-name="Path 28" d="M301.811,113.384a4.259,4.259,0,0,0-1.927,3.338c0,1.229.862,1.727,1.927,1.112a4.257,4.257,0,0,0,1.926-3.337C303.737,113.268,302.875,112.77,301.811,113.384Z" fill="#fff"/>
      </g>
    </g>
    <g id="Magnifying_Glass" data-name="Magnifying Glass">
      <g id="Lens">
        <g id="Group_13" data-name="Group 13">
          <g id="Group_10" data-name="Group 10">
            <rect id="Rectangle_1" data-name="Rectangle 1" width="7.069" height="29.992" transform="translate(176.141 267.85) rotate(30)" fill="#bf4252"/>
            <rect id="Rectangle_2" data-name="Rectangle 2" width="3.535" height="29.992" transform="translate(179.202 269.617) rotate(30)" fill="#a72e3e"/>
          </g>
          <g id="Group_12" data-name="Group 12">
            <g id="Group_11" data-name="Group 11">
              <path id="Path_29" data-name="Path 29" d="M144.7,344.544c-2.793,4.843-15.985-2.854-13.227-7.637l34.452-53.727a.67.67,0,0,1,.9-.219l6.918,3.995a.671.671,0,0,1,.261.888Z" fill="#bf4252"/>
              <path id="Path_30" data-name="Path 30" d="M144.7,344.544l29.3-56.7a.671.671,0,0,0-.261-.888l-3.15-1.819-33.613,59.715C140.061,346.357,143.443,346.732,144.7,344.544Z" fill="#fff" opacity="0.1"/>
            </g>
          </g>
        </g>
        <g id="Group_14" data-name="Group 14">
          <path id="Path_31" data-name="Path 31" d="M245.966,218.046c-.01-.41-.03-.81-.06-1.21s-.05-.79-.09-1.18c-.02-.26-.05-.52-.08-.78-.07-.68-.17-1.35-.28-1.99-.05-.29-.1-.59-.16-.88s-.11-.55-.17-.82c-.17-.74-.35-1.46-.56-2.15-.11-.33-.21-.66-.32-.98a.88.88,0,0,1-.05-.15c-.12-.32-.23-.63-.35-.93-.14-.35-.28-.7-.44-1.03-.11-.25-.22-.49-.35-.73a3.606,3.606,0,0,0-.26-.52c-.1-.21-.209-.42-.33-.62-.03-.05-.05-.1-.08-.14-.1-.18-.21-.36-.32-.54-.07-.12-.15-.23-.22-.34a18.248,18.248,0,0,0-1.72-2.29c-.11-.12-.22-.24-.32-.36-.09-.1-.18-.19-.27-.28-.11-.12-.23-.23-.35-.35a11.189,11.189,0,0,0-1.04-.93c-.17-.15-.35-.29-.53-.42s-.36-.27-.55-.4a9.656,9.656,0,0,0-.89-.58l-.24-.15-.05-.04h-.01l-14.17-8.18h-.02l-.08-.05a17.777,17.777,0,0,0-8.9-2.25c-4.64,0-9.88,1.52-15.43,4.72-19.06,11.01-34.52,37.78-34.52,59.8,0,10.98,3.84,18.7,10.05,22.32l.06.03v.01l14.18,8.17c0,.01,0,.01.01.01l.06.04v-.01c.06.03.11.06.17.09a9.154,9.154,0,0,0,.82.43c.34.17.69.32,1.04.46.31.13.63.25.95.35a4.917,4.917,0,0,0,.51.15,3.47,3.47,0,0,0,.55.16,5.73,5.73,0,0,0,.56.14,3.007,3.007,0,0,0,.41.09c.24.05.5.1.75.13a.508.508,0,0,0,.17.03q.45.075.9.12c5.141.54,11.12-.91,17.52-4.6,19.07-11.01,34.53-37.79,34.53-59.8C246,219.086,245.986,218.566,245.966,218.046Zm-23.129-15.57a30.792,30.792,0,0,1,1.089,8.4c0,19.42-14.21,44.03-31.03,53.74a29.99,29.99,0,0,1-7.87,3.27,31.175,31.175,0,0,1-1.09-8.41c0-19.42,14.21-44.03,31.03-53.74A29.932,29.932,0,0,1,222.837,202.476Z" fill="#c94758"/>
          <path id="Path_32" data-name="Path 32" d="M186.567,281.554,172.8,273.611c-6.21-3.63-10.05-11.35-10.05-22.31,0-9.82,3.08-20.58,8.17-30.46l14.179,8.176c-5.1,9.88-8.17,20.64-8.17,30.46C176.933,270.217,180.587,277.834,186.567,281.554Z" opacity="0.1"/>
          <path id="Path_33" data-name="Path 33" d="M245.966,218.046c-.01-.41-.03-.81-.06-1.21s-.05-.79-.09-1.18c-.02-.26-.05-.52-.08-.78-.07-.68-.17-1.35-.28-1.99-.05-.29-.1-.59-.16-.88s-.11-.55-.17-.82c-.17-.74-.35-1.46-.56-2.15-.11-.33-.21-.66-.32-.98a.88.88,0,0,1-.05-.15c-.12-.32-.23-.63-.35-.93-.14-.35-.28-.7-.44-1.03-.11-.25-.22-.49-.35-.73a3.606,3.606,0,0,0-.26-.52c-.1-.21-.209-.42-.33-.62-.03-.05-.05-.1-.08-.14-.1-.18-.21-.36-.32-.54-.07-.12-.15-.23-.22-.34a18.248,18.248,0,0,0-1.72-2.29c-.11-.12-.22-.24-.32-.36-.09-.1-.18-.19-.27-.28-.11-.12-.23-.23-.35-.35a11.189,11.189,0,0,0-1.04-.93c-.17-.15-.35-.29-.53-.42s-.36-.27-.55-.4a9.656,9.656,0,0,0-.89-.58c-6.27-3.81-15.03-3.36-24.71,2.23-19.07,11.01-34.53,37.78-34.53,59.8,0,11.15,3.96,18.94,10.35,22.48a9.154,9.154,0,0,0,.82.43c.34.17.69.32,1.04.46.31.13.63.25.95.35a4.917,4.917,0,0,0,.51.15,3.47,3.47,0,0,0,.55.16,5.73,5.73,0,0,0,.56.14,3.007,3.007,0,0,0,.41.09c.24.05.5.1.75.13a.508.508,0,0,0,.17.03q.45.075.9.12c5.141.54,11.12-.91,17.52-4.6,19.07-11.01,34.53-37.79,34.53-59.8C246,219.086,245.986,218.566,245.966,218.046Zm-38,55.31c-4.28,2.47-8.4,3.77-11.92,3.77-6.61,0-9.65-4.51-11.02-9.24a31.175,31.175,0,0,1-1.09-8.41c0-19.42,14.21-44.03,31.03-53.74a29.932,29.932,0,0,1,7.871-3.26,17.392,17.392,0,0,1,4.049-.51c10.93,0,12.1,12.34,12.1,17.65C238.986,239.036,224.786,263.646,207.966,273.356Z" fill="#fff" opacity="0.4"/>
          <path id="Path_34" data-name="Path 34" d="M238.986,219.616c0,19.42-14.2,44.03-31.02,53.74-4.28,2.47-8.4,3.77-11.92,3.77-6.61,0-9.65-4.51-11.02-9.24a29.99,29.99,0,0,0,7.87-3.27c16.82-9.71,31.03-34.32,31.03-53.74a30.792,30.792,0,0,0-1.089-8.4,17.392,17.392,0,0,1,4.049-.51C237.816,201.966,238.986,214.306,238.986,219.616Z" opacity="0.1"/>
          <path id="Path_35" data-name="Path 35" d="M232.946,216.226c0,19.42-14.2,44.03-31.02,53.74-4.28,2.47-8.4,3.77-11.92,3.77a12.547,12.547,0,0,1-2.09-.17,15.3,15.3,0,0,1-2.89-5.68,31.175,31.175,0,0,1-1.09-8.41c0-19.42,14.21-44.03,31.03-53.74a29.932,29.932,0,0,1,7.871-3.26,17.392,17.392,0,0,1,4.049-.51,12.668,12.668,0,0,1,2.1.17C232.436,206.206,232.946,212.736,232.946,216.226Z" fill="#fff" opacity="0.7"/>
        </g>
      </g>
    </g>
    <g id="Search_Tab" data-name="Search Tab">
      <g id="Search_Taba" data-name="Search Taba">
        <path id="Path_36" data-name="Path 36" d="M257.173,195.975v22.14c0,1.657,1.163,2.328,2.6,1.5l145.1-83.773a5.743,5.743,0,0,0,2.6-4.5V109.2c0-1.657-1.163-2.328-2.6-1.5l-145.1,83.774A5.741,5.741,0,0,0,257.173,195.975Z" fill="#e6e6e6"/>
        <g id="Group_15" data-name="Group 15">
          <path id="Path_37" data-name="Path 37" d="M259.771,191.475l25.84-14.92,0,28.143-25.837,14.917c-1.435.828-2.6.157-2.6-1.5v-22.14A5.741,5.741,0,0,1,259.771,191.475Z" fill="#c94758"/>
          <path id="Path_38" data-name="Path 38" d="M277.063,188.842c-1.635-.943-3.7-.792-5.808.427a14.924,14.924,0,0,0-6.843,11.853,6.418,6.418,0,0,0,1.368,4.265l-2.749,4.761a1.5,1.5,0,1,0,2.6,1.5l2.75-4.763a4.882,4.882,0,0,0,.9.093,7.011,7.011,0,0,0,3.474-1.039,14.923,14.923,0,0,0,6.843-11.853C279.6,191.649,278.7,189.786,277.063,188.842Zm-5.808,14.5a2.275,2.275,0,0,1-3.843-2.219,12.011,12.011,0,0,1,5.343-9.255,4.1,4.1,0,0,1,1.969-.63,1.663,1.663,0,0,1,.839.2,2.948,2.948,0,0,1,1.035,2.646A12.006,12.006,0,0,1,271.255,203.341Z" fill="#fff"/>
        </g>
      </g>
    </g>
  </g>
</svg>
