<svg xmlns="http://www.w3.org/2000/svg" width="633.681" height="347.119" viewBox="0 0 633.681 347.119">
  <g id="Group_205" data-name="Group 205" transform="translate(-58.638 -70.854)">
    <g id="Background_Complete" data-name="Background Complete">
      <g id="Group_1" data-name="Group 1">
        <rect id="Rectangle_1" data-name="Rectangle 1" width="56.698" height="77.587" transform="translate(234.846 113.999) rotate(-12.187)" fill="#f5f5f5"/>
      </g>
      <g id="Group_10" data-name="Group 10">
        <g id="Group_2" data-name="Group 2">
          <rect id="Rectangle_2" data-name="Rectangle 2" width="188.888" height="122.832" transform="translate(365.235 70.854)" fill="#f5f5f5"/>
        </g>
        <g id="Group_5" data-name="Group 5">
          <g id="Group_3" data-name="Group 3">
            <circle id="Ellipse_1" data-name="Ellipse 1" cx="25.703" cy="25.703" r="25.703" transform="matrix(0.232, -0.973, 0.973, 0.232, 428.709, 146.106)" fill="#e0e0e0"/>
          </g>
          <g id="Group_4" data-name="Group 4">
            <path id="Path_1" data-name="Path 1" d="M468.318,127.077l-6.712,3.875-6.712,3.875v-15.5l6.712,3.875Z" fill="#f5f5f5"/>
          </g>
        </g>
        <g id="Group_6" data-name="Group 6">
          <rect id="Rectangle_3" data-name="Rectangle 3" width="188.888" height="22.065" transform="translate(365.235 171.622)" fill="#e0e0e0"/>
        </g>
        <g id="Group_7" data-name="Group 7">
          <path id="Path_2" data-name="Path 2" d="M383.592,182.654l-2.724,1.573-2.724,1.573v-6.291l2.724,1.573Z" fill="#f5f5f5"/>
        </g>
        <g id="Group_8" data-name="Group 8">
          <rect id="Rectangle_4" data-name="Rectangle 4" width="139.33" height="1" transform="translate(399.248 182.154)" fill="#f5f5f5"/>
        </g>
        <g id="Group_9" data-name="Group 9">
          <path id="Path_3" data-name="Path 3" d="M402.069,182.654a2.077,2.077,0,1,1-2.077-2.076A2.077,2.077,0,0,1,402.069,182.654Z" fill="#f5f5f5"/>
        </g>
      </g>
      <g id="Group_36" data-name="Group 36">
        <g id="Group_27" data-name="Group 27">
          <g id="Group_16" data-name="Group 16">
            <g id="Group_11" data-name="Group 11">
              <rect id="Rectangle_5" data-name="Rectangle 5" width="193.381" height="174.277" rx="5.487" transform="translate(498.938 159.322)" fill="#f5f5f5"/>
            </g>
            <g id="Group_12" data-name="Group 12">
              <path id="Rectangle_6" data-name="Rectangle 6" d="M6.409,0H186.972a6.409,6.409,0,0,1,6.409,6.409v13.05a0,0,0,0,1,0,0H0a0,0,0,0,1,0,0V6.409A6.409,6.409,0,0,1,6.409,0Z" transform="translate(498.938 159.322)" fill="#ebebeb"/>
            </g>
            <g id="Group_13" data-name="Group 13">
              <circle id="Ellipse_2" data-name="Ellipse 2" cx="1.525" cy="1.525" r="1.525" transform="translate(509.212 167.559)" fill="#fafafa"/>
            </g>
            <g id="Group_14" data-name="Group 14">
              <path id="Path_4" data-name="Path 4" d="M521.416,169.084a1.526,1.526,0,1,1-1.526-1.525A1.526,1.526,0,0,1,521.416,169.084Z" fill="#fafafa"/>
            </g>
            <g id="Group_15" data-name="Group 15">
              <circle id="Ellipse_3" data-name="Ellipse 3" cx="1.525" cy="1.525" r="1.525" transform="translate(527.517 167.559)" fill="#fafafa"/>
            </g>
          </g>
          <g id="Group_17" data-name="Group 17">
            <rect id="Rectangle_7" data-name="Rectangle 7" width="73.022" height="2.643" transform="translate(596.044 194.469)" fill="#fafafa"/>
          </g>
          <g id="Group_18" data-name="Group 18">
            <rect id="Rectangle_8" data-name="Rectangle 8" width="73.022" height="2.643" transform="translate(596.044 205.345)" fill="#fafafa"/>
          </g>
          <g id="Group_19" data-name="Group 19">
            <rect id="Rectangle_9" data-name="Rectangle 9" width="73.022" height="2.643" transform="translate(596.044 216.22)" fill="#fafafa"/>
          </g>
          <g id="Group_20" data-name="Group 20">
            <rect id="Rectangle_10" data-name="Rectangle 10" width="73.022" height="2.643" transform="translate(596.044 227.096)" fill="#fafafa"/>
          </g>
          <g id="Group_21" data-name="Group 21">
            <rect id="Rectangle_11" data-name="Rectangle 11" width="36.511" height="2.643" transform="translate(596.044 237.971)" fill="#fafafa"/>
          </g>
          <g id="Group_22" data-name="Group 22">
            <rect id="Rectangle_12" data-name="Rectangle 12" width="73.021" height="2.643" transform="translate(591.507 262.006) rotate(180)" fill="#fafafa"/>
          </g>
          <g id="Group_23" data-name="Group 23">
            <rect id="Rectangle_13" data-name="Rectangle 13" width="73.021" height="2.643" transform="translate(591.507 272.881) rotate(180)" fill="#fafafa"/>
          </g>
          <g id="Group_24" data-name="Group 24">
            <rect id="Rectangle_14" data-name="Rectangle 14" width="73.021" height="2.643" transform="translate(591.507 283.757) rotate(180)" fill="#fafafa"/>
          </g>
          <g id="Group_25" data-name="Group 25">
            <rect id="Rectangle_15" data-name="Rectangle 15" width="73.021" height="2.643" transform="translate(591.507 294.632) rotate(180)" fill="#fafafa"/>
          </g>
          <g id="Group_26" data-name="Group 26">
            <rect id="Rectangle_16" data-name="Rectangle 16" width="36.511" height="2.643" transform="translate(591.507 305.508) rotate(180)" fill="#fafafa"/>
          </g>
        </g>
        <g id="Group_31" data-name="Group 31">
          <g id="Group_28" data-name="Group 28">
            <rect id="Rectangle_17" data-name="Rectangle 17" width="62.486" height="51.991" transform="translate(604.122 256.44)" fill="#fafafa"/>
          </g>
          <g id="Group_29" data-name="Group 29">
            <path id="Path_5" data-name="Path 5" d="M604.016,292.731l18.465-12.938,12.885,8.914,20.264-17.146,10.979,10.875v26H604.122Z" fill="#ebebeb"/>
          </g>
          <g id="Group_30" data-name="Group 30">
            <circle id="Ellipse_4" data-name="Ellipse 4" cx="5.234" cy="5.234" r="5.234" transform="translate(631.212 266.326)" fill="#ebebeb"/>
          </g>
        </g>
        <g id="Group_35" data-name="Group 35">
          <g id="Group_32" data-name="Group 32">
            <rect id="Rectangle_18" data-name="Rectangle 18" width="62.486" height="51.991" transform="translate(518.486 192.868)" fill="#fafafa"/>
          </g>
          <g id="Group_33" data-name="Group 33">
            <path id="Path_6" data-name="Path 6" d="M518.379,229.159l18.465-12.938,12.885,8.914,20.264-17.146,10.979,10.875v26H518.486Z" fill="#ebebeb"/>
          </g>
          <g id="Group_34" data-name="Group 34">
            <circle id="Ellipse_5" data-name="Ellipse 5" cx="5.234" cy="5.234" r="5.234" transform="translate(545.575 202.754)" fill="#ebebeb"/>
          </g>
        </g>
      </g>
      <g id="Group_53" data-name="Group 53">
        <g id="Group_48" data-name="Group 48">
          <g id="Group_42" data-name="Group 42">
            <g id="Group_37" data-name="Group 37">
              <path id="Rectangle_19" data-name="Rectangle 19" d="M0,0H232.644a0,0,0,0,1,0,0V121.359a4.651,4.651,0,0,1-4.651,4.651H4.651A4.651,4.651,0,0,1,0,121.359V0A0,0,0,0,1,0,0Z" transform="translate(58.638 240.543)" fill="#f5f5f5"/>
            </g>
            <g id="Group_38" data-name="Group 38">
              <rect id="Rectangle_20" data-name="Rectangle 20" width="232.644" height="23.41" transform="translate(58.638 240.543)" fill="#ebebeb"/>
            </g>
            <g id="Group_39" data-name="Group 39">
              <circle id="Ellipse_6" data-name="Ellipse 6" cx="1.835" cy="1.835" r="1.835" transform="translate(70.999 250.452)" fill="#fafafa"/>
            </g>
            <g id="Group_40" data-name="Group 40">
              <circle id="Ellipse_7" data-name="Ellipse 7" cx="1.835" cy="1.835" r="1.835" transform="translate(82.009 250.452)" fill="#fafafa"/>
            </g>
            <g id="Group_41" data-name="Group 41">
              <circle id="Ellipse_8" data-name="Ellipse 8" cx="1.835" cy="1.835" r="1.835" transform="translate(93.02 250.452)" fill="#fafafa"/>
            </g>
          </g>
          <g id="Group_43" data-name="Group 43">
            <rect id="Rectangle_21" data-name="Rectangle 21" width="87.847" height="3.18" transform="translate(175.46 282.826)" fill="#ebebeb"/>
          </g>
          <g id="Group_44" data-name="Group 44">
            <rect id="Rectangle_22" data-name="Rectangle 22" width="87.847" height="3.18" transform="translate(175.46 295.909)" fill="#ebebeb"/>
          </g>
          <g id="Group_45" data-name="Group 45">
            <rect id="Rectangle_23" data-name="Rectangle 23" width="87.847" height="3.18" transform="translate(175.46 308.993)" fill="#ebebeb"/>
          </g>
          <g id="Group_46" data-name="Group 46">
            <rect id="Rectangle_24" data-name="Rectangle 24" width="87.847" height="3.18" transform="translate(175.46 322.077)" fill="#ebebeb"/>
          </g>
          <g id="Group_47" data-name="Group 47">
            <rect id="Rectangle_25" data-name="Rectangle 25" width="43.924" height="3.18" transform="translate(175.46 335.16)" fill="#ebebeb"/>
          </g>
        </g>
        <g id="Group_52" data-name="Group 52">
          <g id="Group_49" data-name="Group 49">
            <rect id="Rectangle_26" data-name="Rectangle 26" width="75.173" height="62.547" transform="translate(77.989 280.598)" fill="#fafafa"/>
          </g>
          <g id="Group_50" data-name="Group 50">
            <path id="Path_7" data-name="Path 7" d="M77.861,324.257l22.214-15.565,15.5,10.724,24.378-20.628,13.209,13.084v31.274H77.989Z" fill="#ebebeb"/>
          </g>
          <g id="Group_51" data-name="Group 51">
            <path id="Path_8" data-name="Path 8" d="M123.172,298.788a6.3,6.3,0,1,1-6.3-6.3A6.3,6.3,0,0,1,123.172,298.788Z" fill="#ebebeb"/>
          </g>
        </g>
      </g>
    </g>
    <g id="Document">
      <g id="Group_74" data-name="Group 74">
        <g id="Group_57" data-name="Group 57">
          <g id="Group_54" data-name="Group 54">
            <rect id="Rectangle_27" data-name="Rectangle 27" width="56.698" height="77.587" transform="translate(227.855 127.692) rotate(-12.187)" fill="#fff"/>
          </g>
          <g id="Group_56" data-name="Group 56">
            <g id="Group_55" data-name="Group 55">
              <path id="Path_10" data-name="Path 10" d="M299.655,191.561s-.037-.127-.094-.369-.14-.609-.245-1.069c-.213-.955-.522-2.34-.922-4.137-.8-3.623-1.958-8.894-3.426-15.562-2.91-13.34-7.038-32.26-11.923-54.651l.28.181-55.408,11.992h-.007l.2-.309c6.1,28.331,11.748,54.561,16.332,75.848l-.252-.163,40.272-8.584,11.208-2.365,2.955-.614c.671-.137,1.03-.2,1.03-.2s-.323.086-.976.235l-2.906.652-11.138,2.461-40.356,8.829-.207.046-.045-.209c-4.61-21.281-10.291-47.5-16.426-75.828l-.055-.254.255-.055h.006l55.419-11.944.231-.05.049.23c4.8,22.473,8.864,41.462,11.727,54.851,1.41,6.658,2.525,11.919,3.291,15.537.372,1.782.659,3.156.857,4.1.092.451.162.8.213,1.049C299.64,191.448,299.655,191.561,299.655,191.561Z" fill="#263238"/>
            </g>
          </g>
        </g>
        <g id="Group_59" data-name="Group 59">
          <g id="Group_58" data-name="Group 58">
            <path id="Path_11" data-name="Path 11" d="M265.041,135.615c.03.141-5.975,1.557-13.411,3.163s-13.491,2.794-13.521,2.654,5.973-1.557,13.411-3.163S265.01,135.474,265.041,135.615Z" fill="#263238"/>
          </g>
        </g>
        <g id="Group_61" data-name="Group 61">
          <g id="Group_60" data-name="Group 60">
            <path id="Path_12" data-name="Path 12" d="M281.03,139.059c.03.141-9.236,2.261-20.693,4.735s-20.775,4.368-20.805,4.227,9.233-2.26,20.695-4.736S281,138.918,281.03,139.059Z" fill="#263238"/>
          </g>
        </g>
        <g id="Group_63" data-name="Group 63">
          <g id="Group_62" data-name="Group 62">
            <path id="Path_13" data-name="Path 13" d="M282.515,145.934c.03.14-9.236,2.261-20.693,4.735s-20.775,4.368-20.8,4.227,9.233-2.26,20.7-4.736S282.484,145.793,282.515,145.934Z" fill="#263238"/>
          </g>
        </g>
        <g id="Group_65" data-name="Group 65">
          <g id="Group_64" data-name="Group 64">
            <path id="Path_14" data-name="Path 14" d="M284,152.809c.031.14-9.235,2.261-20.693,4.735s-20.774,4.368-20.8,4.227,9.234-2.26,20.7-4.736S283.969,152.668,284,152.809Z" fill="#263238"/>
          </g>
        </g>
        <g id="Group_67" data-name="Group 67">
          <g id="Group_66" data-name="Group 66">
            <path id="Path_15" data-name="Path 15" d="M285.484,159.684c.031.14-9.235,2.261-20.693,4.735s-20.774,4.368-20.8,4.227,9.234-2.26,20.7-4.736S285.454,159.543,285.484,159.684Z" fill="#263238"/>
          </g>
        </g>
        <g id="Group_69" data-name="Group 69">
          <g id="Group_68" data-name="Group 68">
            <path id="Path_16" data-name="Path 16" d="M286.969,166.558c.03.141-9.235,2.262-20.693,4.736s-20.775,4.368-20.805,4.227,9.233-2.261,20.695-4.736S286.939,166.418,286.969,166.558Z" fill="#263238"/>
          </g>
        </g>
        <g id="Group_71" data-name="Group 71">
          <g id="Group_70" data-name="Group 70">
            <path id="Path_17" data-name="Path 17" d="M288.454,173.433c.03.141-9.236,2.261-20.693,4.736s-20.775,4.367-20.8,4.227,9.233-2.261,20.7-4.736S288.423,173.293,288.454,173.433Z" fill="#263238"/>
          </g>
        </g>
        <g id="Group_73" data-name="Group 73">
          <g id="Group_72" data-name="Group 72">
            <path id="Path_18" data-name="Path 18" d="M270.746,184.453c.03.141-4.939,1.333-11.1,2.663s-11.178,2.295-11.208,2.155,4.937-1.333,11.1-2.664S270.716,184.313,270.746,184.453Z" fill="#263238"/>
          </g>
        </g>
      </g>
    </g>
    <g id="Pointer">
      <g id="Group_84" data-name="Group 84">
        <g id="Group_75" data-name="Group 75">
          <path id="Path_19" data-name="Path 19" d="M542.569,309.846l14.183,36.417,5.914-9.553,8.193,10.758,9.772-9.293-9.312-8.971,8.593-5.812Z" fill="#e8505b"/>
        </g>
        <g id="Group_77" data-name="Group 77">
          <g id="Group_76" data-name="Group 76">
            <path id="Path_20" data-name="Path 20" d="M537.23,315.229a75.979,75.979,0,0,1-10.617,6.734,75.979,75.979,0,0,1,10.617-6.734Z" fill="#263238"/>
          </g>
        </g>
        <g id="Group_79" data-name="Group 79">
          <g id="Group_78" data-name="Group 78">
            <path id="Path_21" data-name="Path 21" d="M538.332,307.894a9.982,9.982,0,0,1-2.28-.6c-1.384-.443-3.278-1.117-5.333-1.951s-3.888-1.653-5.2-2.271a10.484,10.484,0,0,1-2.081-1.105,10.747,10.747,0,0,1,2.227.767l5.252,2.126,5.261,2.087A11.317,11.317,0,0,1,538.332,307.894Z" fill="#263238"/>
          </g>
        </g>
        <g id="Group_81" data-name="Group 81">
          <g id="Group_80" data-name="Group 80">
            <path id="Path_22" data-name="Path 22" d="M542.611,291.359a7.93,7.93,0,0,1,.516,2.009c.246,1.254.532,3,.775,4.932s.394,3.7.465,4.972a7.9,7.9,0,0,1-.005,2.074,67.968,67.968,0,0,1-.977-6.981A68.251,68.251,0,0,1,542.611,291.359Z" fill="#263238"/>
          </g>
        </g>
        <g id="Group_83" data-name="Group 83">
          <g id="Group_82" data-name="Group 82">
            <path id="Path_23" data-name="Path 23" d="M562.244,299.507c.06.146-2.566,1.276-5.524,3.171s-5.3,3.552-5.394,3.419a6.664,6.664,0,0,1,1.41-1.248c.915-.71,2.2-1.666,3.707-2.612A19.372,19.372,0,0,1,562.244,299.507Z" fill="#263238"/>
          </g>
        </g>
      </g>
    </g>
    <g id="Plus">
      <g id="Group_91" data-name="Group 91">
        <g id="Group_86" data-name="Group 86">
          <g id="Group_85" data-name="Group 85">
            <path id="Path_24" data-name="Path 24" d="M212.6,316.047a28.183,28.183,0,0,0-.665-4.4,17.367,17.367,0,0,0-2.024-4.784,17.944,17.944,0,0,0-21.549-7.623,16.79,16.79,0,0,0-4.525,2.44,16.34,16.34,0,0,0-3.78,3.8,17.81,17.81,0,0,0,0,21.142,16.349,16.349,0,0,0,3.78,3.8,16.823,16.823,0,0,0,4.526,2.44,18,18,0,0,0,21.55-7.624,17.361,17.361,0,0,0,2.023-4.784,28.164,28.164,0,0,0,.665-4.4,1.219,1.219,0,0,1,.012.294l-.018.865a8.341,8.341,0,0,1-.117,1.4,12.706,12.706,0,0,1-.346,1.891,17.136,17.136,0,0,1-1.969,4.884,18.29,18.29,0,0,1-12.314,8.694,18.369,18.369,0,0,1-9.649-.768,17.244,17.244,0,0,1-4.659-2.491,16.818,16.818,0,0,1-3.9-3.9,18.275,18.275,0,0,1,0-21.746,20.683,20.683,0,0,1,1.806-2.129,20.45,20.45,0,0,1,2.089-1.769,17.238,17.238,0,0,1,4.658-2.491,18.375,18.375,0,0,1,9.648-.768,18.285,18.285,0,0,1,12.314,8.693,17.141,17.141,0,0,1,1.97,4.884,12.741,12.741,0,0,1,.346,1.892,8.334,8.334,0,0,1,.117,1.4l.018.865A1.226,1.226,0,0,1,212.6,316.047Z" fill="#263238"/>
          </g>
        </g>
        <g id="Group_88" data-name="Group 88">
          <g id="Group_87" data-name="Group 87">
            <path id="Path_25" data-name="Path 25" d="M194.465,325.156a79.757,79.757,0,0,1-.261-9.109,79.743,79.743,0,0,1,.261-9.109,79.893,79.893,0,0,1,.26,9.109A79.908,79.908,0,0,1,194.465,325.156Z" fill="#263238"/>
          </g>
        </g>
        <g id="Group_90" data-name="Group 90">
          <g id="Group_89" data-name="Group 89">
            <path id="Path_26" data-name="Path 26" d="M203.573,316.047a79.878,79.878,0,0,1-9.108.26,79.889,79.889,0,0,1-9.109-.26,79.9,79.9,0,0,1,9.109-.26A79.886,79.886,0,0,1,203.573,316.047Z" fill="#263238"/>
          </g>
        </g>
      </g>
    </g>
    <g id="Search_Engine" data-name="Search Engine">
      <g id="Group_153" data-name="Group 153">
        <g id="Group_103" data-name="Group 103">
          <g id="Group_93" data-name="Group 93">
            <g id="Group_92" data-name="Group 92">
              <path id="Path_27" data-name="Path 27" d="M490.951,374.686c-.121.077-12.683-19.35-28.054-43.387s-27.738-43.6-27.617-43.672,12.68,19.346,28.056,43.391S491.072,374.608,490.951,374.686Z" fill="#263238"/>
            </g>
          </g>
          <g id="Group_102" data-name="Group 102">
            <g id="Group_97" data-name="Group 97">
              <g id="Group_94" data-name="Group 94">
                <circle id="Ellipse_9" data-name="Ellipse 9" cx="29.149" cy="29.149" r="29.149" transform="translate(467.257 358.809)" fill="#fff"/>
              </g>
              <g id="Group_96" data-name="Group 96">
                <g id="Group_95" data-name="Group 95">
                  <path id="Path_28" data-name="Path 28" d="M467.257,387.958s-.01-.16,0-.473c.011-.335.025-.8.044-1.389.012-.307.025-.649.039-1.024.033-.375.1-.782.164-1.225a20.877,20.877,0,0,1,.569-3.031A27.616,27.616,0,0,1,471.252,373a29.317,29.317,0,0,1,19.734-13.885,27.182,27.182,0,0,1,3.712-.441c.633-.024,1.271-.087,1.914-.079l1.944.1a12.8,12.8,0,0,1,1.962.209c.654.107,1.319.182,1.977.317a31.083,31.083,0,0,1,3.922,1.141,30.579,30.579,0,0,1,3.836,1.678c.621.335,1.217.726,1.832,1.09a14.95,14.95,0,0,1,1.776,1.219,26.9,26.9,0,0,1,6.224,6.235,28.458,28.458,0,0,1,4.21,8.1,29.106,29.106,0,0,1,0,18.56,28.449,28.449,0,0,1-4.21,8.1,26.909,26.909,0,0,1-6.225,6.236,14.941,14.941,0,0,1-1.776,1.219c-.615.365-1.211.755-1.832,1.091a30.588,30.588,0,0,1-3.837,1.678,31.132,31.132,0,0,1-3.922,1.141c-.658.135-1.324.21-1.978.317a12.8,12.8,0,0,1-1.962.209l-1.944.1c-.643.008-1.281-.055-1.914-.079a27.3,27.3,0,0,1-3.712-.441,29.324,29.324,0,0,1-19.734-13.886,27.621,27.621,0,0,1-3.181-7.818,20.716,20.716,0,0,1-.569-3.031c-.059-.443-.132-.85-.164-1.225q-.021-.562-.039-1.024c-.019-.592-.033-1.053-.044-1.388-.007-.313,0-.472,0-.472s.026.159.05.471c.023.334.055.793.1,1.383l.064,1.017c.04.373.121.777.188,1.216a21.164,21.164,0,0,0,.611,3,27.847,27.847,0,0,0,3.235,7.718,29.1,29.1,0,0,0,19.563,13.61,27.026,27.026,0,0,0,3.658.422c.624.021,1.253.081,1.886.071l1.914-.1a12.408,12.408,0,0,0,1.931-.211c.643-.107,1.3-.183,1.945-.317a30.583,30.583,0,0,0,3.855-1.133,30.188,30.188,0,0,0,3.77-1.659c.61-.331,1.195-.717,1.8-1.075a14.774,14.774,0,0,0,1.744-1.2,26.47,26.47,0,0,0,6.11-6.139,27.984,27.984,0,0,0,4.129-7.962,28.634,28.634,0,0,0,0-18.233,27.991,27.991,0,0,0-4.129-7.959,26.43,26.43,0,0,0-6.109-6.137,14.715,14.715,0,0,0-1.743-1.2c-.6-.359-1.19-.745-1.8-1.076a30.246,30.246,0,0,0-3.769-1.658,30.738,30.738,0,0,0-3.854-1.133c-.648-.134-1.3-.209-1.946-.316a12.391,12.391,0,0,0-1.93-.212l-1.914-.1c-.633-.01-1.262.05-1.885.072a26.7,26.7,0,0,0-3.658.421A29.1,29.1,0,0,0,471.5,373.147a27.8,27.8,0,0,0-3.235,7.718,21.065,21.065,0,0,0-.612,3c-.067.439-.148.843-.188,1.216q-.036.56-.064,1.018c-.041.59-.073,1.049-.1,1.383C467.283,387.8,467.257,387.958,467.257,387.958Z" fill="#263238"/>
                </g>
              </g>
            </g>
            <g id="Group_101" data-name="Group 101">
              <g id="Group_98" data-name="Group 98">
                <path id="Path_29" data-name="Path 29" d="M488.457,377.247l-3.991,22.806,11.94-1.643,11.94,1.643-4.8-22.806Z" fill="#263238"/>
              </g>
              <g id="Group_100" data-name="Group 100">
                <g id="Group_99" data-name="Group 99">
                  <path id="Path_30" data-name="Path 30" d="M501.45,377.546c-.086.028-.326-.811-.958-2.022a6.354,6.354,0,0,0-1.434-1.85,4.412,4.412,0,0,0-1.166-.679,4.7,4.7,0,0,0-1.43-.249,4.947,4.947,0,0,0-2.722.658,4.34,4.34,0,0,0-1.492,1.744c-.6,1.22-.8,2.077-.887,2.049a5.519,5.519,0,0,1,.554-2.207,4.481,4.481,0,0,1,1.56-1.987,5.208,5.208,0,0,1,2.993-.778,5,5,0,0,1,1.6.292,4.756,4.756,0,0,1,1.3.793,6.177,6.177,0,0,1,1.451,2.051A5.7,5.7,0,0,1,501.45,377.546Z" fill="#263238"/>
                </g>
              </g>
            </g>
          </g>
        </g>
        <g id="Group_112" data-name="Group 112">
          <g id="Group_105" data-name="Group 105">
            <g id="Group_104" data-name="Group 104">
              <path id="Path_31" data-name="Path 31" d="M380.088,376.639c-.144,0-.261-20.074-.261-44.83s.117-44.833.261-44.833.26,20.069.26,44.833S380.231,376.639,380.088,376.639Z" fill="#263238"/>
            </g>
          </g>
          <g id="Group_111" data-name="Group 111">
            <g id="Group_109" data-name="Group 109">
              <g id="Group_106" data-name="Group 106">
                <circle id="Ellipse_10" data-name="Ellipse 10" cx="29.149" cy="29.149" r="29.149" transform="translate(350.343 359.46)" fill="#fff"/>
              </g>
              <g id="Group_108" data-name="Group 108">
                <g id="Group_107" data-name="Group 107">
                  <path id="Path_32" data-name="Path 32" d="M350.343,388.608s-.01-.159,0-.472c.011-.335.025-.8.044-1.389.012-.307.025-.649.039-1.024.033-.375.106-.782.165-1.225a20.727,20.727,0,0,1,.568-3.031,27.646,27.646,0,0,1,3.182-7.818,29.316,29.316,0,0,1,19.735-13.885,27.149,27.149,0,0,1,3.711-.441c.633-.024,1.272-.087,1.915-.079l1.944.1a12.8,12.8,0,0,1,1.961.209c.654.107,1.32.182,1.978.317a31.069,31.069,0,0,1,3.921,1.141,30.515,30.515,0,0,1,3.836,1.678c.621.335,1.218.726,1.833,1.09a15.014,15.014,0,0,1,1.775,1.219,26.848,26.848,0,0,1,6.224,6.235,28.445,28.445,0,0,1,4.21,8.1,29.1,29.1,0,0,1,0,18.559,28.456,28.456,0,0,1-4.21,8.1,26.932,26.932,0,0,1-6.224,6.236,15.165,15.165,0,0,1-1.777,1.22c-.615.363-1.211.754-1.832,1.09a30.592,30.592,0,0,1-3.837,1.678,31.083,31.083,0,0,1-3.922,1.141c-.658.135-1.323.21-1.978.317a12.784,12.784,0,0,1-1.962.209l-1.944.1c-.643.008-1.281-.055-1.914-.079a27.3,27.3,0,0,1-3.712-.441,29.324,29.324,0,0,1-19.734-13.886,27.621,27.621,0,0,1-3.181-7.818,20.876,20.876,0,0,1-.569-3.031c-.058-.443-.131-.85-.164-1.225q-.021-.562-.039-1.024c-.019-.592-.033-1.053-.044-1.388-.007-.313,0-.473,0-.473s.026.16.05.472c.023.334.055.793.1,1.382.019.306.041.646.064,1.018.04.373.121.777.188,1.216a21.179,21.179,0,0,0,.612,3,27.793,27.793,0,0,0,3.234,7.717,29.107,29.107,0,0,0,19.563,13.611,26.9,26.9,0,0,0,3.659.421c.623.021,1.252.082,1.885.072l1.914-.1a12.4,12.4,0,0,0,1.931-.212c.643-.107,1.3-.182,1.945-.316a30.752,30.752,0,0,0,3.855-1.133,30.188,30.188,0,0,0,3.77-1.659c.61-.331,1.195-.717,1.8-1.076a14.729,14.729,0,0,0,1.744-1.2,26.44,26.44,0,0,0,6.109-6.139,28,28,0,0,0,4.129-7.962,28.634,28.634,0,0,0,0-18.233,27.954,27.954,0,0,0-4.129-7.959,26.431,26.431,0,0,0-6.109-6.137,14.633,14.633,0,0,0-1.743-1.2c-.6-.359-1.189-.745-1.8-1.076a30.1,30.1,0,0,0-3.769-1.658,30.52,30.52,0,0,0-3.854-1.133c-.647-.134-1.3-.21-1.945-.317a12.521,12.521,0,0,0-1.931-.211l-1.914-.1c-.633-.01-1.261.05-1.885.071a27.02,27.02,0,0,0-3.658.421,29.1,29.1,0,0,0-19.564,13.61,27.834,27.834,0,0,0-3.235,7.718,21.178,21.178,0,0,0-.612,3c-.067.439-.148.843-.188,1.216-.023.373-.045.712-.064,1.018-.041.59-.073,1.049-.1,1.383C350.369,388.449,350.343,388.608,350.343,388.608Z" fill="#263238"/>
                </g>
              </g>
            </g>
            <g id="Group_110" data-name="Group 110">
              <path id="Path_33" data-name="Path 33" d="M379.492,375.553l-12.646,11.488v14.568h9.848v-8.729h6.267v8.729h9.177V387.041Z" fill="#263238"/>
            </g>
          </g>
        </g>
        <g id="Group_139" data-name="Group 139">
          <g id="Group_114" data-name="Group 114">
            <g id="Group_113" data-name="Group 113">
              <path id="Path_34" data-name="Path 34" d="M267.251,375.7c-.122-.078,12.429-19.922,28.029-44.317s28.35-44.118,28.471-44.04-12.427,19.917-28.032,44.321S267.372,375.78,267.251,375.7Z" fill="#263238"/>
            </g>
          </g>
          <g id="Group_138" data-name="Group 138">
            <g id="Group_118" data-name="Group 118">
              <g id="Group_115" data-name="Group 115">
                <circle id="Ellipse_11" data-name="Ellipse 11" cx="29.149" cy="29.149" r="29.149" transform="translate(233.381 359.09)" fill="#fff"/>
              </g>
              <g id="Group_117" data-name="Group 117">
                <g id="Group_116" data-name="Group 116">
                  <path id="Path_35" data-name="Path 35" d="M291.679,388.239s-.026-.16-.051-.472c-.023-.334-.054-.793-.1-1.383-.019-.306-.041-.645-.064-1.018-.041-.373-.121-.776-.188-1.216a21.373,21.373,0,0,0-.612-3,27.834,27.834,0,0,0-3.235-7.718,29.11,29.11,0,0,0-19.564-13.609,26.855,26.855,0,0,0-3.658-.421c-.624-.021-1.252-.082-1.886-.072l-1.914.1a12.4,12.4,0,0,0-1.93.212c-.643.107-1.3.182-1.945.316a30.689,30.689,0,0,0-3.854,1.133,30.326,30.326,0,0,0-3.77,1.658c-.61.332-1.195.717-1.8,1.076a14.766,14.766,0,0,0-1.744,1.2,26.453,26.453,0,0,0-6.108,6.137,27.987,27.987,0,0,0-4.13,7.96,28.649,28.649,0,0,0,0,18.232,27.991,27.991,0,0,0,4.13,7.963,26.411,26.411,0,0,0,6.109,6.138,14.657,14.657,0,0,0,1.744,1.2c.6.359,1.19.744,1.8,1.076a30.112,30.112,0,0,0,3.77,1.658,30.5,30.5,0,0,0,3.855,1.133c.647.134,1.3.21,1.945.317a12.4,12.4,0,0,0,1.93.211l1.915.1c.633.01,1.261-.05,1.885-.071a26.889,26.889,0,0,0,3.659-.422,29.1,29.1,0,0,0,19.563-13.61,27.8,27.8,0,0,0,3.234-7.718,21.2,21.2,0,0,0,.612-3c.067-.44.147-.844.188-1.216l.064-1.018c.041-.59.072-1.049.1-1.383.025-.311.051-.471.051-.471s.01.16,0,.472c-.011.335-.026.8-.045,1.388q-.016.462-.039,1.024c-.032.376-.1.782-.164,1.225a20.739,20.739,0,0,1-.568,3.032,27.617,27.617,0,0,1-3.181,7.817,29.316,29.316,0,0,1-19.734,13.886,27.14,27.14,0,0,1-3.712.441c-.633.024-1.271.087-1.915.079l-1.944-.1a12.69,12.69,0,0,1-1.962-.209c-.654-.106-1.319-.182-1.977-.317a30.917,30.917,0,0,1-3.922-1.141,30.591,30.591,0,0,1-3.837-1.678c-.621-.336-1.218-.726-1.833-1.09a15.242,15.242,0,0,1-1.776-1.22,26.879,26.879,0,0,1-6.224-6.236,28.45,28.45,0,0,1-4.21-8.1,29.106,29.106,0,0,1,0-18.56,28.433,28.433,0,0,1,4.21-8.1,26.923,26.923,0,0,1,6.223-6.235,15.356,15.356,0,0,1,1.776-1.219c.615-.364,1.211-.754,1.833-1.09a30.52,30.52,0,0,1,3.836-1.678,31.07,31.07,0,0,1,3.921-1.141c.658-.134,1.323-.21,1.978-.316a12.67,12.67,0,0,1,1.961-.21l1.944-.1c.643-.008,1.281.055,1.914.079a27.454,27.454,0,0,1,3.712.441,29.324,29.324,0,0,1,19.735,13.885,27.621,27.621,0,0,1,3.181,7.818,20.6,20.6,0,0,1,.569,3.032c.059.442.132.849.164,1.225q.023.563.039,1.024c.019.592.034,1.053.045,1.388C291.689,388.079,291.679,388.239,291.679,388.239Z" fill="#263238"/>
                </g>
              </g>
            </g>
            <g id="Group_137" data-name="Group 137">
              <g id="Group_119" data-name="Group 119">
                <rect id="Rectangle_28" data-name="Rectangle 28" width="22.886" height="30.349" transform="translate(250.916 373.064)" fill="#263238"/>
              </g>
              <g id="Group_136" data-name="Group 136">
                <g id="Group_121" data-name="Group 121">
                  <g id="Group_120" data-name="Group 120">
                    <path id="Path_36" data-name="Path 36" d="M263.474,377.912a27.288,27.288,0,0,1-7.516,0,27.187,27.187,0,0,1,7.516,0Z" fill="#455a64"/>
                  </g>
                </g>
                <g id="Group_123" data-name="Group 123">
                  <g id="Group_122" data-name="Group 122">
                    <path id="Path_37" data-name="Path 37" d="M270.1,382.18a54.351,54.351,0,0,1-7.515.261,54.349,54.349,0,0,1-7.516-.261,54.647,54.647,0,0,1,7.516-.26A54.649,54.649,0,0,1,270.1,382.18Z" fill="#455a64"/>
                  </g>
                </g>
                <g id="Group_125" data-name="Group 125">
                  <g id="Group_124" data-name="Group 124">
                    <path id="Path_38" data-name="Path 38" d="M270.1,384.775a54.351,54.351,0,0,1-7.515.261,54.349,54.349,0,0,1-7.516-.261,54.462,54.462,0,0,1,7.516-.26A54.464,54.464,0,0,1,270.1,384.775Z" fill="#455a64"/>
                  </g>
                </g>
                <g id="Group_127" data-name="Group 127">
                  <g id="Group_126" data-name="Group 126">
                    <path id="Path_39" data-name="Path 39" d="M270.1,387.37a54.351,54.351,0,0,1-7.515.261,54.349,54.349,0,0,1-7.516-.261,54.459,54.459,0,0,1,7.516-.26A54.461,54.461,0,0,1,270.1,387.37Z" fill="#455a64"/>
                  </g>
                </g>
                <g id="Group_129" data-name="Group 129">
                  <g id="Group_128" data-name="Group 128">
                    <path id="Path_40" data-name="Path 40" d="M270.1,389.965a54.455,54.455,0,0,1-7.515.26,54.453,54.453,0,0,1-7.516-.26,54.459,54.459,0,0,1,7.516-.26A54.461,54.461,0,0,1,270.1,389.965Z" fill="#455a64"/>
                  </g>
                </g>
                <g id="Group_131" data-name="Group 131">
                  <g id="Group_130" data-name="Group 130">
                    <path id="Path_41" data-name="Path 41" d="M270.1,392.56a54.455,54.455,0,0,1-7.515.26,54.453,54.453,0,0,1-7.516-.26,54.453,54.453,0,0,1,7.516-.26A54.455,54.455,0,0,1,270.1,392.56Z" fill="#455a64"/>
                  </g>
                </g>
                <g id="Group_133" data-name="Group 133">
                  <g id="Group_132" data-name="Group 132">
                    <path id="Path_42" data-name="Path 42" d="M270.1,395.155a54.455,54.455,0,0,1-7.515.26,54.453,54.453,0,0,1-7.516-.26,54.352,54.352,0,0,1,7.516-.261A54.355,54.355,0,0,1,270.1,395.155Z" fill="#455a64"/>
                  </g>
                </g>
                <g id="Group_135" data-name="Group 135">
                  <g id="Group_134" data-name="Group 134">
                    <path id="Path_43" data-name="Path 43" d="M270.1,397.75a54.455,54.455,0,0,1-7.515.26,54.453,54.453,0,0,1-7.516-.26,54.352,54.352,0,0,1,7.516-.261A54.355,54.355,0,0,1,270.1,397.75Z" fill="#455a64"/>
                  </g>
                </g>
              </g>
            </g>
          </g>
        </g>
        <g id="Group_152" data-name="Group 152">
          <g id="Group_149" data-name="Group 149">
            <g id="Group_147" data-name="Group 147">
              <g id="Group_140" data-name="Group 140">
                <rect id="Rectangle_29" data-name="Rectangle 29" width="305.653" height="50.189" rx="23.79" transform="translate(232.317 237.901)" fill="#fff"/>
              </g>
              <g id="Group_141" data-name="Group 141">
                <path id="Path_44" data-name="Path 44" d="M470.251,237.445V288.09h42.7a25.322,25.322,0,0,0,25.322-25.322h0a25.322,25.322,0,0,0-25.322-25.323Z" fill="#e8505b"/>
              </g>
              <g id="Group_146" data-name="Group 146">
                <g id="Group_143" data-name="Group 143">
                  <g id="Group_142" data-name="Group 142">
                    <path id="Path_45" data-name="Path 45" d="M509.99,261.361a22.588,22.588,0,0,0-.432-2.585,10.662,10.662,0,0,0-3.9-5.767,10.482,10.482,0,0,0-9.917-1.464,10.492,10.492,0,0,0-4.844,3.648,10.4,10.4,0,0,0,0,12.336,10.487,10.487,0,0,0,4.845,3.648,10.476,10.476,0,0,0,9.918-1.464,10.661,10.661,0,0,0,3.9-5.766,22.58,22.58,0,0,0,.432-2.586,8.276,8.276,0,0,1-.236,2.635,10.643,10.643,0,0,1-3.874,6.01,10.753,10.753,0,0,1-4.568,2.069,10.907,10.907,0,0,1-5.737-.447,10.916,10.916,0,0,1-5.092-3.8,10.865,10.865,0,0,1,0-12.94,10.92,10.92,0,0,1,5.091-3.8,10.916,10.916,0,0,1,5.737-.447,10.749,10.749,0,0,1,4.567,2.07,10.64,10.64,0,0,1,3.875,6.009A8.276,8.276,0,0,1,509.99,261.361Z" fill="#fff"/>
                  </g>
                </g>
                <g id="Group_145" data-name="Group 145">
                  <g id="Group_144" data-name="Group 144">
                    <path id="Path_46" data-name="Path 46" d="M519.919,276.318a104.8,104.8,0,0,1-12.019-8.607,105.141,105.141,0,0,1,12.019,8.607Z" fill="#fff"/>
                  </g>
                </g>
              </g>
            </g>
            <g id="Group_148" data-name="Group 148">
              <rect id="Rectangle_30" data-name="Rectangle 30" width="186.849" height="10.742" transform="translate(261.382 258.295)" fill="#ebebeb"/>
            </g>
          </g>
          <g id="Group_151" data-name="Group 151">
            <g id="Group_150" data-name="Group 150">
              <path id="Path_47" data-name="Path 47" d="M514.18,288.09s.585-.048,1.727-.114a15.7,15.7,0,0,0,2.112-.264,21.865,21.865,0,0,0,2.867-.651,24.221,24.221,0,0,0,7.326-3.677l.994-.748c.321-.274.633-.572.958-.865a19.691,19.691,0,0,0,1.9-1.946c.648-.678,1.163-1.506,1.776-2.291l.786-1.3.4-.665.34-.709a22.966,22.966,0,0,0,2.1-6.321q.132-.87.266-1.76.047-.9.095-1.819c.054-1.225.041-2.5,0-3.781A23.637,23.637,0,0,0,514.911,238.1c-6.824-.067-14.057-.007-21.642-.018l-237.145.076a23.675,23.675,0,0,0-15.6,5.938,23.284,23.284,0,0,0-7.725,14.558,16.1,16.1,0,0,0-.169,2.081c-.049.692-.057,1.393-.049,2.1a40.547,40.547,0,0,0,.167,4.169,22.765,22.765,0,0,0,2.366,7.877,23.362,23.362,0,0,0,19.431,12.876c1.33.1,2.682.083,4.029.08H262.6l15.918,0,30.818.009,106.615.056,71.876.083,19.541.049,5.082.025c1.145.009,1.732.027,1.732.027s-.587.018-1.732.027l-5.082.025-19.541.049-71.876.083-106.615.056-30.818.009-15.918,0h-4.029c-1.346,0-2.693.017-4.063-.08a23.867,23.867,0,0,1-19.856-13.15,23.286,23.286,0,0,1-2.421-8.05,41.311,41.311,0,0,1-.17-4.228c-.008-.7,0-1.4.048-2.118a16.621,16.621,0,0,1,.173-2.126,23.807,23.807,0,0,1,7.893-14.881,24.2,24.2,0,0,1,15.951-6.07l237.145.077c7.589.022,14.808-.026,21.652.055a23.914,23.914,0,0,1,23.147,23.4c.035,1.3.045,2.552-.013,3.793q-.051.929-.1,1.836-.138.9-.274,1.776a23.182,23.182,0,0,1-2.136,6.372c-.116.239-.232.477-.346.714l-.405.669-.8,1.306c-.621.789-1.143,1.621-1.8,2.3a19.81,19.81,0,0,1-1.918,1.951c-.329.294-.645.592-.968.867l-1.005.748a24.2,24.2,0,0,1-7.388,3.653,21.738,21.738,0,0,1-2.885.629,15.085,15.085,0,0,1-2.12.238C514.765,288.078,514.18,288.09,514.18,288.09Z" fill="#263238"/>
            </g>
          </g>
        </g>
      </g>
    </g>
    <g id="Character">
      <g id="Group_204" data-name="Group 204">
        <g id="Group_160" data-name="Group 160">
          <g id="Group_155" data-name="Group 155">
            <g id="Group_154" data-name="Group 154">
              <path id="Path_48" data-name="Path 48" d="M381.753,256.887c-.91-1.06-1-1.957,1.045-2.141,4.512-.406,7.836-2.376,8.36-3.516s-.906-2.255-2.129-1.57a16.9,16.9,0,0,1-4.394,1.244,11.029,11.029,0,0,1-3.661.05c-1.051-.165-1.974-.342-2.8-.517,0,0-4.775-1.029-6.837-2.638l-10.1,10.793,4.736,5.352a7.192,7.192,0,0,0,6.325,2.981c4.064-.4,9.528-3.318,9.528-3.318.739-1.135,7.282,2.9,9.389,4.413,2.081,1.5,3.664,1.132,3.585-.323-.055-.991-6.393-5.775-8.512-7.224a26.57,26.57,0,0,1-4.537-3.586" fill="#ffbe9d"/>
            </g>
          </g>
          <g id="Group_157" data-name="Group 157">
            <g id="Group_156" data-name="Group 156">
              <path id="Path_49" data-name="Path 49" d="M375.817,266.264c.011.061-.291.191-.813.177a3.48,3.48,0,0,1-3.064-2.318c-.156-.5-.114-.824-.052-.83.144-.033.391,1.188,1.549,2.035A6.853,6.853,0,0,0,375.817,266.264Z" fill="#eb996e"/>
            </g>
          </g>
          <g id="Group_159" data-name="Group 159">
            <g id="Group_158" data-name="Group 158">
              <path id="Path_50" data-name="Path 50" d="M379.818,264.688c.007.063-.287.172-.785.14a3.448,3.448,0,0,1-2.912-2.265c-.153-.475-.12-.787-.057-.795.145-.035.413,1.116,1.5,1.939A7.737,7.737,0,0,0,379.818,264.688Z" fill="#eb996e"/>
            </g>
          </g>
        </g>
        <g id="Group_161" data-name="Group 161">
          <path id="Path_51" data-name="Path 51" d="M390.706,152.429c.422,8.862,11.23,21,19.269,22.965,4.226,1.032,9.089.546,12.437,3.385,5.743,4.87,2.384,14.964,6.258,21.5,2.382,4.016,7.111,5.986,9.79,9.8,4.451,6.337,1.463,15.916-4.611,20.635s-14.166,5.622-21.779,5.425c-16.746-.433-33.9-5.755-46-17.626-5.687-5.575-27.936-22.793-20.177-63.6" fill="#263238"/>
        </g>
        <g id="Group_178" data-name="Group 178">
          <path id="Path_52" data-name="Path 52" d="M451.15,215.835l-63.671-18.9a40.381,40.381,0,0,0-9.273-2.791l-21.5.144a20.9,20.9,0,0,0-8.246,1.725l-57.955,19.25c-4.289,1.356-7.252,5.755-7.252,10.766h0c0,6.176,4.453,11.183,9.945,11.183h26.762c-.076.252-.117.393-.117.393l93.085.349v-.036l35.527.08c5.492,0,9.944-5.055,9.944-11.291C458.4,221.646,455.439,217.2,451.15,215.835Z" fill="#e8505b"/>
          <g id="Group_163" data-name="Group 163">
            <g id="Group_162" data-name="Group 162">
              <path id="Path_53" data-name="Path 53" d="M438.39,222.717a2.362,2.362,0,0,1-.578-.029l-1.64-.186c-1.421-.18-3.481-.41-6.029-.655a181.552,181.552,0,0,0-39.917.523c-2.54.312-4.594.6-6.009.812l-1.635.229a2.444,2.444,0,0,1-.576.045,2.4,2.4,0,0,1,.558-.148l1.619-.326c1.407-.279,3.456-.618,6-.977a160.023,160.023,0,0,1,40-.524c2.549.293,4.606.578,6.02.82l1.627.283A2.461,2.461,0,0,1,438.39,222.717Z" fill="#263238"/>
            </g>
          </g>
          <g id="Group_165" data-name="Group 165" opacity="0.6">
            <g id="Group_164" data-name="Group 164">
              <path id="Path_54" data-name="Path 54" d="M423.449,207.247a1.046,1.046,0,0,1-.178.214l-.561.592c-.5.511-1.244,1.265-2.251,2.183a36.216,36.216,0,0,1-3.869,3.116,19.153,19.153,0,0,1-5.945,2.833,15.172,15.172,0,0,1-7.956-.158,39.441,39.441,0,0,1-8.376-3.7,50.9,50.9,0,0,0-9.07-4.252,13.992,13.992,0,0,0-10.371.534c-3.35,1.51-6.2,3.813-9.316,5.473-.771.43-1.587.761-2.377,1.118a25,25,0,0,1-2.444.815,23.729,23.729,0,0,1-4.9.846,25.267,25.267,0,0,1-16.289-4.48,44.461,44.461,0,0,1-4.92-4.369,23.977,23.977,0,0,0-3.809-3.114,10.572,10.572,0,0,0-3.9-1.463,5.983,5.983,0,0,1,1.087.129,9.179,9.179,0,0,1,2.92,1.16,23.37,23.37,0,0,1,3.9,3.076,45.663,45.663,0,0,0,4.932,4.28,25.035,25.035,0,0,0,16.043,4.3,23.278,23.278,0,0,0,4.8-.846,24.936,24.936,0,0,0,2.39-.8c.772-.353,1.567-.676,2.324-1.1,3.061-1.635,5.909-3.947,9.346-5.5a14.487,14.487,0,0,1,10.732-.546,50.821,50.821,0,0,1,9.15,4.318,39.434,39.434,0,0,0,8.262,3.706,14.871,14.871,0,0,0,7.749.218,19.088,19.088,0,0,0,5.874-2.718,38.422,38.422,0,0,0,3.9-3.026c1.024-.892,1.787-1.621,2.313-2.107l.6-.554A1.181,1.181,0,0,1,423.449,207.247Z" fill="#fff"/>
            </g>
          </g>
          <g id="Group_166" data-name="Group 166" opacity="0.2">
            <path id="Path_55" data-name="Path 55" d="M324.51,222.589l40.246,7.587-4.649,7.572-1.224.019Z"/>
          </g>
          <g id="Group_168" data-name="Group 168" opacity="0.6">
            <g id="Group_167" data-name="Group 167">
              <path id="Path_56" data-name="Path 56" d="M446.338,214.637a2.76,2.76,0,0,1,.02.617,13.459,13.459,0,0,1-.177,1.761,15.258,15.258,0,0,1-10.024,11.853,15.487,15.487,0,0,1-5.664.885,25.791,25.791,0,0,1-6.038-1.1c-2.016-.568-3.952-1.2-5.864-1.581a17.026,17.026,0,0,0-5.562-.289,17.765,17.765,0,0,0-8.678,3.554,17.438,17.438,0,0,0-4.311,4.711l-.521.868c-.124.249-.234.468-.332.663a2.829,2.829,0,0,1-.3.536,2.677,2.677,0,0,1,.208-.579c.086-.2.182-.432.291-.691.145-.27.306-.569.483-.9a16.769,16.769,0,0,1,4.261-4.9,17.867,17.867,0,0,1,8.846-3.739,17.31,17.31,0,0,1,5.72.265c1.951.387,3.9,1.016,5.9,1.58a25.713,25.713,0,0,0,5.916,1.1,15.248,15.248,0,0,0,12.942-6.415,15.833,15.833,0,0,0,2.529-5.851C446.286,215.486,446.285,214.633,446.338,214.637Z" fill="#fff"/>
            </g>
          </g>
          <g id="Group_176" data-name="Group 176">
            <g id="Group_169" data-name="Group 169">
              <path id="Path_57" data-name="Path 57" d="M290.563,235.918s72.758,32.105,72.383,31.376S374.5,245.509,374.5,245.509l-58.949-29.134Z" fill="#e8505b"/>
            </g>
            <g id="Group_171" data-name="Group 171">
              <g id="Group_170" data-name="Group 170">
                <path id="Path_58" data-name="Path 58" d="M323.961,220.532a9.716,9.716,0,0,1,1.5.628l4,1.887c3.371,1.613,8.012,3.874,13.124,6.4s9.73,4.841,13.06,6.539l3.932,2.036a9.785,9.785,0,0,1,1.412.811,9.567,9.567,0,0,1-1.5-.627l-4-1.887c-3.371-1.613-8.013-3.875-13.128-6.4s-9.728-4.841-13.059-6.54l-3.932-2.035A9.608,9.608,0,0,1,323.961,220.532Z" fill="#263238"/>
              </g>
            </g>
            <g id="Group_173" data-name="Group 173" opacity="0.6">
              <g id="Group_172" data-name="Group 172">
                <path id="Path_59" data-name="Path 59" d="M339.939,230.271a6.255,6.255,0,0,1-.677,2.158,10.187,10.187,0,0,1-4.339,4.337,13.328,13.328,0,0,1-4.041,1.439,15.931,15.931,0,0,1-4.92.058,37.178,37.178,0,0,1-10.611-3.56,55.44,55.44,0,0,0-10.319-4.07,18.557,18.557,0,0,0-4.766-.552,14.869,14.869,0,0,0-4.115.7,11.239,11.239,0,0,0-5.077,3.18,20.745,20.745,0,0,0-1.318,1.809,6.738,6.738,0,0,1,1.163-1.94,11.075,11.075,0,0,1,5.117-3.4,14.989,14.989,0,0,1,4.215-.777,18.68,18.68,0,0,1,4.89.517,53.71,53.71,0,0,1,10.429,4.065,37.689,37.689,0,0,0,10.456,3.557,15.743,15.743,0,0,0,4.781-.008,13.16,13.16,0,0,0,3.941-1.338,10.281,10.281,0,0,0,4.334-4.106A17.148,17.148,0,0,0,339.939,230.271Z" fill="#fff"/>
              </g>
            </g>
            <g id="Group_175" data-name="Group 175" opacity="0.6">
              <g id="Group_174" data-name="Group 174">
                <path id="Path_60" data-name="Path 60" d="M370.83,252.277c-.015.1-1.614-.17-4.213-.212a35.317,35.317,0,0,0-4.55.231,34.79,34.79,0,0,0-10.688,3.027,35.492,35.492,0,0,0-4,2.19c-2.191,1.4-3.412,2.465-3.475,2.389a4.751,4.751,0,0,1,.813-.8,23.635,23.635,0,0,1,2.459-1.9,31.1,31.1,0,0,1,3.993-2.315,32.376,32.376,0,0,1,10.842-3.071,30.915,30.915,0,0,1,4.613-.122,23.413,23.413,0,0,1,3.09.327A4.711,4.711,0,0,1,370.83,252.277Z" fill="#fff"/>
              </g>
            </g>
          </g>
          <g id="Group_177" data-name="Group 177" opacity="0.2">
            <path id="Path_61" data-name="Path 61" d="M379.8,194.006c-1.2,3.366.6,6.992,2.355,10.107a27.454,27.454,0,0,0,4.22,6.123,9.238,9.238,0,0,0,6.616,2.973c3.266-.107,6.191-2.519,9.454-2.331,2.219.128,4.169,1.439,6.011,2.683a47.557,47.557,0,0,0,10.085,5.587,18.111,18.111,0,0,0,11.338.712,11.3,11.3,0,0,0,7.846-7.767"/>
          </g>
        </g>
        <g id="Group_201" data-name="Group 201">
          <g id="Group_194" data-name="Group 194">
            <g id="Group_193" data-name="Group 193">
              <g id="Group_179" data-name="Group 179">
                <path id="Path_62" data-name="Path 62" d="M380.075,193.078c.167-3.917.378-7.462.378-7.462s8.754-1.1,9.132-10.039-.512-29.511-.512-29.511l-16.113-7.738-17.335,13.966,2.719,41.037A10.882,10.882,0,0,0,369.7,203.483h0A10.884,10.884,0,0,0,380.075,193.078Z" fill="#ffbe9d"/>
              </g>
              <g id="Group_183" data-name="Group 183">
                <g id="Group_180" data-name="Group 180">
                  <path id="Path_63" data-name="Path 63" d="M387.563,162.223a1.114,1.114,0,1,1-1.133-1.124A1.128,1.128,0,0,1,387.563,162.223Z" fill="#263238"/>
                </g>
                <g id="Group_182" data-name="Group 182">
                  <g id="Group_181" data-name="Group 181">
                    <path id="Path_64" data-name="Path 64" d="M388.644,159.837c-.141.15-.975-.554-2.175-.6-1.2-.063-2.09.563-2.217.4-.063-.072.082-.347.47-.631a2.895,2.895,0,0,1,3.506.158C388.592,159.483,388.713,159.77,388.644,159.837Z" fill="#263238"/>
                  </g>
                </g>
              </g>
              <g id="Group_187" data-name="Group 187">
                <g id="Group_184" data-name="Group 184">
                  <path id="Path_65" data-name="Path 65" d="M374.278,162.223a1.114,1.114,0,1,1-1.134-1.124A1.128,1.128,0,0,1,374.278,162.223Z" fill="#263238"/>
                </g>
                <g id="Group_186" data-name="Group 186">
                  <g id="Group_185" data-name="Group 185">
                    <path id="Path_66" data-name="Path 66" d="M375.359,160.067c-.141.15-.976-.553-2.175-.6-1.2-.064-2.09.562-2.217.4-.063-.072.081-.347.47-.631a2.9,2.9,0,0,1,3.506.158C375.306,159.713,375.428,160,375.359,160.067Z" fill="#263238"/>
                  </g>
                </g>
              </g>
              <g id="Group_189" data-name="Group 189">
                <g id="Group_188" data-name="Group 188">
                  <path id="Path_67" data-name="Path 67" d="M379.863,170.381a7.294,7.294,0,0,1,1.954-.3c.307-.022.6-.075.654-.3a1.8,1.8,0,0,0-.19-.981q-.412-1.207-.867-2.534a46.1,46.1,0,0,1-1.932-6.616A45.811,45.811,0,0,1,381.9,166.1c.289.889.565,1.736.828,2.548a2.034,2.034,0,0,1,.139,1.293.763.763,0,0,1-.511.46,1.921,1.921,0,0,1-.522.056A7.35,7.35,0,0,1,379.863,170.381Z" fill="#263238"/>
                </g>
              </g>
              <g id="Group_190" data-name="Group 190">
                <path id="Path_68" data-name="Path 68" d="M375.924,171.613c-1.227-.805,3.385,1.989,5.83,1.947a3.277,3.277,0,0,1-3.953,1.225C375.224,173.721,375.924,171.613,375.924,171.613Z" fill="#fff"/>
              </g>
              <g id="Group_191" data-name="Group 191">
                <path id="Path_69" data-name="Path 69" d="M380.453,185.616a21.32,21.32,0,0,1-11.592-3.795s2.725,6.509,11.44,5.988Z" fill="#eb996e"/>
              </g>
              <g id="Group_192" data-name="Group 192">
                <path id="Path_70" data-name="Path 70" d="M346.223,161.1h0c-.031,7.734-2.056,28.184,12.04,31.02l-.512-28.164s13.65-6.436,15.955-19.842l.083.077c.875,2.023,2.432,6.369,1.486,9.908l12.782,3.15,1.47,1.346s4.552-9.974-4.23-19.022-16.285-2.491-20.993-3.056c-3.131-.376-13.989-.3-18.411,18.395Z" fill="#263238"/>
              </g>
            </g>
          </g>
          <g id="Group_200" data-name="Group 200">
            <g id="Group_198" data-name="Group 198">
              <g id="Group_195" data-name="Group 195">
                <path id="Path_71" data-name="Path 71" d="M358.1,164.27c-1.192-.736-2.819-.131-3.765.9a5.136,5.136,0,0,0,5.111,8.431" fill="#ffbe9d"/>
              </g>
              <g id="Group_197" data-name="Group 197">
                <g id="Group_196" data-name="Group 196">
                  <path id="Path_72" data-name="Path 72" d="M357.827,170.925c0,.063-.4.132-1.024-.036a2.7,2.7,0,0,1-1.87-1.658,1.992,1.992,0,0,1,.053-1.458,2.108,2.108,0,0,1,.762-.888c.562-.363.99-.337,1-.279.022.08-.35.19-.771.57a1.741,1.741,0,0,0-.546,1.889,2.659,2.659,0,0,0,1.5,1.478C357.459,170.78,357.835,170.846,357.827,170.925Z" fill="#eb996e"/>
                </g>
              </g>
            </g>
            <g id="Group_199" data-name="Group 199">
              <path id="Path_73" data-name="Path 73" d="M356.66,172.686a1.015,1.015,0,1,0,.386-.016" fill="#e8505b"/>
            </g>
          </g>
        </g>
        <g id="Group_202" data-name="Group 202">
          <path id="Path_74" data-name="Path 74" d="M382.564,237.995V223.308s-21.811,4.525-22.21,14.512Z" fill="#ffbe9d"/>
        </g>
        <g id="Group_203" data-name="Group 203">
          <path id="Path_75" data-name="Path 75" d="M380.294,191.532a18.275,18.275,0,0,0,17.9,16.815c3.22.057,6.615-.709,9.554.607,2.556,1.143,4.2,3.621,6.215,5.568a18.441,18.441,0,0,0,18.285,4.134c2.641-.886,6.838-2.784,7.33-5.526.374-2.089-2.179-4.165-3.684-5.661a18.618,18.618,0,0,0-5.371-3.358c-15.536-7.3-32.214-12.6-49.354-13.512" fill="#263238"/>
        </g>
      </g>
    </g>
  </g>
</svg>
