<svg xmlns="http://www.w3.org/2000/svg" xmlns:xlink="http://www.w3.org/1999/xlink" width="401" height="401" viewBox="0 0 401 401">
  <defs>
    <clipPath id="clip-path">
      <rect id="Rectangle_24" data-name="Rectangle 24" width="401" height="401"/>
    </clipPath>
  </defs>
  <g id="ui-ux-component-product" clip-path="url(#clip-path)">
    <rect id="Rectangle_23" data-name="Rectangle 23" width="401" height="401" fill="#fff"/>
    <g id="BACKGROUND">
      <rect id="Rectangle_1" data-name="Rectangle 1" width="500" height="500" fill="#ffd3d9"/>
    </g>
    <g id="OBJECTS" transform="translate(18.392 -21)">
      <path id="Path_68" data-name="Path 68" d="M364.215,156.94Z" transform="translate(0 238.06)" fill="#428a83"/>
      <path id="Path_1" data-name="Path 1" d="M378.179,390.619H218.573a4.981,4.981,0,0,1-4.981-4.98h0a4.981,4.981,0,0,1,4.981-4.981H378.179a4.98,4.98,0,0,1,4.98,4.981h0A4.98,4.98,0,0,1,378.179,390.619Z" transform="translate(-58.005 -72.59)" fill="#132625" opacity="0.1"/>
      <path id="Path_2" data-name="Path 2" d="M167.5,390.619H84.132a4.98,4.98,0,0,1-4.981-4.981h0a4.981,4.981,0,0,1,4.981-4.981H167.5a4.981,4.981,0,0,1,4.981,4.981h0a4.981,4.981,0,0,1-4.98,4.98Z" transform="translate(-21.495 -72.59)" fill="#132625" opacity="0.1"/>
      <rect id="Rectangle_3" data-name="Rectangle 3" width="247.784" height="167.322" rx="12.506" transform="translate(53.638 113.358)" fill="#d1d1d1"/>
      <g id="Group_6" data-name="Group 6" transform="translate(39.06 127.936)">
        <rect id="Rectangle_4" data-name="Rectangle 4" width="247.784" height="167.322" rx="12.506" fill="#fff"/>
        <rect id="Rectangle_5" data-name="Rectangle 5" width="238.084" height="121.932" transform="translate(4.85 33.977)" fill="#353535"/>
        <rect id="Rectangle_6" data-name="Rectangle 6" width="88.749" height="94.982" transform="translate(143.943 47.638)" fill="#302f2d"/>
        <g id="Group_1" data-name="Group 1" transform="translate(186.226 56.087)">
          <path id="Path_3" data-name="Path 3" d="M339.276,213a2.592,2.592,0,1,0-.763,1.833,2.592,2.592,0,0,0,.763-1.833Z" transform="translate(-316.015 -210.377)" fill="#fce07c"/>
          <path id="Path_4" data-name="Path 4" d="M314.494,212.963a2.592,2.592,0,1,0-.763,1.834,2.592,2.592,0,0,0,.763-1.834Z" transform="translate(-309.285 -210.368)" fill="#fce07c"/>
          <path id="Path_5" data-name="Path 5" d="M314.46,237.745a2.593,2.593,0,1,0-.763,1.833,2.592,2.592,0,0,0,.763-1.833Z" transform="translate(-309.276 -217.098)" fill="#fce07c"/>
          <path id="Path_6" data-name="Path 6" d="M364.059,213.032a2.592,2.592,0,1,0-2.6,2.588,2.592,2.592,0,0,0,2.6-2.588Z" transform="translate(-322.745 -210.386)" fill="#fce07c"/>
          <path id="Path_7" data-name="Path 7" d="M364.024,237.814a2.592,2.592,0,1,0-.763,1.834,2.592,2.592,0,0,0,.763-1.834Z" transform="translate(-322.736 -217.117)" fill="#fce07c"/>
          <path id="Path_8" data-name="Path 8" d="M348.939,232.038a18.051,18.051,0,1,0-36.1-.05" transform="translate(-310.242 -211.344)" fill="none" stroke="#73a9b5" stroke-linecap="round" stroke-linejoin="round" stroke-width="2"/>
          <line id="Line_1" data-name="Line 1" x2="36.104" y2="0.05" transform="translate(2.617 2.592)" fill="none" stroke="#73a9b5" stroke-linecap="round" stroke-linejoin="round" stroke-width="2"/>
        </g>
        <g id="Group_3" data-name="Group 3" transform="translate(45.801 52.053)">
          <text id="Aa" transform="translate(0 21)" fill="#e55d61" font-size="24" font-family="TimesNewRomanPS-BoldMT, Times New Roman" font-weight="700" letter-spacing="0.4em"><tspan x="0" y="0">Aa</tspan></text>
          <g id="Group_2" data-name="Group 2" transform="translate(20.27 2.801)">
            <rect id="Rectangle_7" data-name="Rectangle 7" width="3.603" height="3.603" fill="#171616"/>
            <rect id="Rectangle_8" data-name="Rectangle 8" width="3.603" height="3.603" transform="translate(22.151)" fill="#171616"/>
            <rect id="Rectangle_9" data-name="Rectangle 9" width="3.603" height="3.603" transform="translate(0 22.151)" fill="#171616"/>
            <rect id="Rectangle_10" data-name="Rectangle 10" width="3.603" height="3.603" transform="translate(22.151 22.151)" fill="#171616"/>
            <rect id="Rectangle_11" data-name="Rectangle 11" width="22.151" height="22.151" transform="translate(1.801 1.801)" fill="none" stroke="#171616" stroke-miterlimit="10" stroke-width="1" stroke-dasharray="3"/>
          </g>
        </g>
        <rect id="Rectangle_12" data-name="Rectangle 12" width="95.177" height="44.747" transform="translate(23.693 98.654)" fill="#3d3d3d"/>
        <g id="Group_4" data-name="Group 4" transform="translate(13.593 7.53)">
          <circle id="Ellipse_1" data-name="Ellipse 1" cx="2.732" cy="2.732" r="2.732" transform="translate(0 0)" fill="#fce07c"/>
          <circle id="Ellipse_2" data-name="Ellipse 2" cx="2.732" cy="2.732" r="2.732" transform="translate(11.475 0)" fill="#6d8b41"/>
          <circle id="Ellipse_3" data-name="Ellipse 3" cx="2.732" cy="2.732" r="2.732" transform="translate(22.95 0)" fill="#e55d61"/>
        </g>
        <path id="Path_9" data-name="Path 9" d="M120.184,163H72.674A12.394,12.394,0,0,0,60.28,175.394h72.3A12.393,12.393,0,0,0,120.183,163Z" transform="translate(-55.431 -141.417)" fill="#353535"/>
        <path id="Path_10" data-name="Path 10" d="M218.869,163H171.36a12.394,12.394,0,0,0-12.394,12.394h72.3A12.393,12.393,0,0,0,218.868,163Z" transform="translate(-82.231 -141.417)" fill="#545454"/>
        <g id="Group_5" data-name="Group 5" transform="translate(21.387 46.485)">
          <rect id="Rectangle_13" data-name="Rectangle 13" width="95.177" height="37.878" transform="translate(1.153 1.153)" fill="none" stroke="#171616" stroke-miterlimit="10" stroke-width="1" stroke-dasharray="3"/>
          <rect id="Rectangle_14" data-name="Rectangle 14" width="2.307" height="2.307" fill="#171616"/>
          <rect id="Rectangle_15" data-name="Rectangle 15" width="2.307" height="2.307" transform="translate(0 37.878)" fill="#171616"/>
          <rect id="Rectangle_16" data-name="Rectangle 16" width="2.307" height="2.307" transform="translate(47.589)" fill="#171616"/>
          <rect id="Rectangle_17" data-name="Rectangle 17" width="2.307" height="2.307" transform="translate(47.589 37.878)" fill="#171616"/>
          <rect id="Rectangle_18" data-name="Rectangle 18" width="2.307" height="2.307" transform="translate(95.177)" fill="#171616"/>
          <rect id="Rectangle_19" data-name="Rectangle 19" width="2.307" height="2.307" transform="translate(0 20.093)" fill="#171616"/>
          <rect id="Rectangle_20" data-name="Rectangle 20" width="2.307" height="2.307" transform="translate(95.177 20.093)" fill="#171616"/>
          <rect id="Rectangle_21" data-name="Rectangle 21" width="2.307" height="2.307" transform="translate(95.177 37.878)" fill="#171616"/>
        </g>
      </g>
      <path id="Path_11" data-name="Path 11" d="M424.213,234.441v-9.263l-5.62-.953a17.854,17.854,0,0,0-1.072-2.588l3.3-4.648-6.55-6.55-4.648,3.3a17.9,17.9,0,0,0-2.588-1.072l-.953-5.621h-4.631v10.382a12.381,12.381,0,0,1,0,24.761v10.382h4.631l.953-5.621a17.9,17.9,0,0,0,2.588-1.072l4.648,3.3,6.55-6.549-3.3-4.648a17.919,17.919,0,0,0,1.072-2.588Z" transform="translate(-109.022 -25.443)" fill="#3d3d3d"/>
      <path id="Path_12" data-name="Path 12" d="M434.015,276.333v-3.447l-2.091-.355a6.727,6.727,0,0,0-.4-.963l1.227-1.729-2.437-2.437-1.73,1.228a6.689,6.689,0,0,0-.963-.4l-.355-2.091H423.82l-.355,2.091a6.691,6.691,0,0,0-.963.4l-1.73-1.228-2.437,2.437,1.227,1.729a6.726,6.726,0,0,0-.4.963l-2.091.355v3.447l2.091.355a6.724,6.724,0,0,0,.4.963l-1.227,1.729,2.437,2.437,1.73-1.228a6.616,6.616,0,0,0,.963.4l.355,2.091h3.446l.355-2.091a6.622,6.622,0,0,0,.963-.4l1.73,1.228,2.437-2.437-1.227-1.729a6.731,6.731,0,0,0,.4-.963Zm-8.469,1.5a3.221,3.221,0,1,1,2.284-.943,3.228,3.228,0,0,1-2.284.943Z" transform="translate(-113.265 -41.491)" fill="#fff"/>
      <g id="Group_8" data-name="Group 8" transform="translate(163.331 205.108)">
        <rect id="Rectangle_22" data-name="Rectangle 22" width="77.542" height="91.671" rx="7.824" transform="translate(0 11.289)" fill="#171616" opacity="0.5"/>
        <g id="Group_7" data-name="Group 7" transform="translate(8.891 74.793)">
          <rect id="Rectangle_23-2" data-name="Rectangle 23" width="19.778" height="2.61" fill="#fff"/>
          <rect id="Rectangle_24-2" data-name="Rectangle 24" width="27.671" height="2.61" transform="translate(0 9.238)" fill="#fff"/>
          <rect id="Rectangle_25" data-name="Rectangle 25" width="13.162" height="2.61" transform="translate(29.307 9.238)" fill="#fff"/>
          <rect id="Rectangle_26" data-name="Rectangle 26" width="9.617" height="2.61" transform="translate(38.549)" fill="#fff"/>
          <rect id="Rectangle_27" data-name="Rectangle 27" width="14.871" height="2.61" transform="translate(21.958)" fill="#fff"/>
        </g>
        <rect id="Rectangle_28" data-name="Rectangle 28" width="59.141" height="37.587" rx="2.566" transform="translate(8.891 25.79)" fill="#428a83"/>
        <path id="Path_13" data-name="Path 13" d="M291.533,239.313l4.314,5.644,4.314,5.644H282.906l4.314-5.644Z" transform="translate(-240.16 -239.313)" fill="#171616" opacity="0.5"/>
      </g>
      <g id="Group_18" data-name="Group 18" transform="translate(202.174 220.657)">
        <path id="Path_14" data-name="Path 14" d="M303.481,370.159l-18.229,1.973.717,6.435H347.64l1.578-6.005-18.01-2.4Z" transform="translate(-279.64 -290.396)" fill="#93c7df"/>
        <g id="Group_9" data-name="Group 9" transform="translate(23.984)">
          <path id="Path_15" data-name="Path 15" d="M310.664,265.87a4.8,4.8,0,0,1,2.123-3.687,3.5,3.5,0,0,1,4.111.009,29.189,29.189,0,0,1,7.549-1.512,7.454,7.454,0,0,1,3.911.621,5.594,5.594,0,0,1,2.584,3.63,15.128,15.128,0,0,1,.23,4.538c-.239,4.321-.347,6.27-11.138,6.787C311.921,276.645,310.522,272.1,310.664,265.87Z" transform="translate(-310.522 -260.659)" fill="#5f322d"/>
          <path id="Path_16" data-name="Path 16" d="M314.817,280.364l-1.665-.173a4.241,4.241,0,0,1-1.657-.4,1.992,1.992,0,0,1-1.022-1.658,1.742,1.742,0,0,1,1.035-1.616,2.558,2.558,0,0,1,1.063-.142,6.432,6.432,0,0,1,1.564.253,33.65,33.65,0,0,0,.682,3.736Z" transform="translate(-310.473 -264.926)" fill="#fc8f7b"/>
          <path id="Path_17" data-name="Path 17" d="M334.773,280.513l1.648-.3a4.247,4.247,0,0,0,1.622-.527,1.994,1.994,0,0,0,.894-1.73,1.742,1.742,0,0,0-1.154-1.533,2.562,2.562,0,0,0-1.071-.062,6.415,6.415,0,0,0-1.541.37,33.487,33.487,0,0,1-.4,3.782Z" transform="translate(-317.072 -264.917)" fill="#fc8f7b"/>
          <path id="Path_18" data-name="Path 18" d="M320.926,300.4v-7.207H328.6l.537,7.257S326.652,302.1,320.926,300.4Z" transform="translate(-313.311 -269.494)" fill="#fc8f7b"/>
          <path id="Path_19" data-name="Path 19" d="M313.848,267.929s1.68,20.293,9.051,22.353c0,0,8.036-2.49,6.823-22.2Z" transform="translate(-311.389 -262.634)" fill="#ffa17f"/>
          <path id="Path_20" data-name="Path 20" d="M315.085,275.851c.1.084-.652-4.614.557-6.406,0,0,7.839,3.69,12.5,1.434,0,0,1.1,3.61.926,5.114,0,0,2.254-5.383,1-9.684s-15.723-3.135-17.246-.224S314.189,275.134,315.085,275.851Z" transform="translate(-310.992 -261.426)" fill="#5f322d"/>
          <path id="Path_21" data-name="Path 21" d="M329.355,272.582c-.271.529-.976.917-2.23,1.132a4.7,4.7,0,0,0,1.688,1.228c-1.682,1.07-3.5,1.318-6.148.973-2.668-.347-5.539-3.534-5.808-4.767,1.815-1.34,6.8-1.809,10.126-.988C327.9,270.386,329.355,271.636,329.355,272.582Z" transform="translate(-312.206 -263.129)" fill="#5f322d"/>
        </g>
        <g id="Group_10" data-name="Group 10" transform="translate(12.256 29.147)">
          <path id="Path_22" data-name="Path 22" d="M301.993,309.138l-7.62,22.676,6.009,19.078,4.417-1.907-3.974-15.638,2.61-8.053Z" transform="translate(-294.373 -302.972)" fill="#fcd25c"/>
          <path id="Path_23" data-name="Path 23" d="M349.806,308.1l9.443,22.665-5.6,19.845-4.417-1.907,3.56-16.4-3.422-8.23Z" transform="translate(-309.273 -302.69)" fill="#fcd25c"/>
          <path id="Path_24" data-name="Path 24" d="M337.747,307.341l-1.221,45.2H308.8l-3.965-44.45S317.211,302.351,337.747,307.341Z" transform="translate(-297.214 -301.931)" fill="#fcd25c"/>
          <path id="Path_25" data-name="Path 25" d="M304.87,316.395l.97,10.869-2.61-.943" transform="translate(-296.778 -304.943)" fill="none" stroke="#f2ba4b" stroke-miterlimit="10" stroke-width="0.5"/>
          <path id="Path_26" data-name="Path 26" d="M349.734,314.4l-.307,11.377,2.128-2.409" transform="translate(-309.324 -304.402)" fill="none" stroke="#f2ba4b" stroke-miterlimit="10" stroke-width="0.5"/>
          <path id="Path_27" data-name="Path 27" d="M330.458,304.276l-.751-3.6H318.933l-.581,3.773s.563,2.5,6.053,2.55C329.069,307.04,330.458,304.276,330.458,304.276Z" transform="translate(-300.885 -300.673)" fill="#fcdd88"/>
        </g>
        <g id="Group_13" data-name="Group 13" transform="translate(0 79.762)">
          <g id="Group_12" data-name="Group 12" transform="translate(35.408 8.408)">
            <g id="Group_11" data-name="Group 11" transform="translate(3.954 0.157)">
              <path id="Path_28" data-name="Path 28" d="M339.669,382.541c1.863.491,2.088,1.318,1.906,2.735-.17,1.323-.38,1.721-2.207,1.764a23.824,23.824,0,0,1-4.223-.352l-2.986-.8a.778.778,0,0,1-.567-.845l.313-2.432a.778.778,0,0,1,.763-.675l3.091-.019A23.8,23.8,0,0,1,339.669,382.541Z" transform="translate(-331.585 -381.917)" fill="#002445"/>
            </g>
            <path id="Path_29" data-name="Path 29" d="M326.157,381.7l8.7,1.587-.324,2.464-8.292-.344Z" transform="translate(-326.157 -381.701)" fill="#fead72"/>
            <path id="Path_30" data-name="Path 30" d="M340.784,382.541c1.863.491,2.088,1.318,1.906,2.735-.17,1.323-.38,1.721-2.207,1.764a23.823,23.823,0,0,1-4.223-.352s-1.622-3.107.613-4.771a23.8,23.8,0,0,1,3.911.624Z" transform="translate(-328.746 -381.76)" fill="#003360"/>
            <path id="Path_31" data-name="Path 31" d="M342.449,382.774c1.863.491,2.088,1.318,1.906,2.735-.17,1.323-.38,1.721-2.207,1.764a5.693,5.693,0,0,1,.3-4.5Z" transform="translate(-330.411 -381.993)" fill="#fff"/>
          </g>
          <path id="Path_32" data-name="Path 32" d="M277.625,373.68h0a4.33,4.33,0,0,0,3.7,5.1l35.413,4.575v-4.733l-33.821-8.341a4.331,4.331,0,0,0-5.292,3.4Z" transform="translate(-277.548 -370.158)" fill="#b1dbf1"/>
        </g>
        <g id="Group_16" data-name="Group 16" transform="translate(24.702 80.336)">
          <g id="Group_15" data-name="Group 15" transform="translate(0 8.408)">
            <g id="Group_14" data-name="Group 14" transform="translate(0 0.157)">
              <path id="Path_33" data-name="Path 33" d="M313.417,383.329c-1.863.492-2.088,1.318-1.906,2.736.17,1.323.38,1.721,2.207,1.764a23.87,23.87,0,0,0,4.223-.353l2.986-.8a.778.778,0,0,0,.567-.845l-.312-2.433a.778.778,0,0,0-.763-.674l-3.091-.019a23.756,23.756,0,0,0-3.911.624Z" transform="translate(-311.459 -382.705)" fill="#002445"/>
            </g>
            <path id="Path_34" data-name="Path 34" d="M327.432,382.489l-8.7,1.587.324,2.463,8.292-.344Z" transform="translate(-313.436 -382.489)" fill="#fead72"/>
            <path id="Path_35" data-name="Path 35" d="M313.417,383.329c-1.863.492-2.088,1.318-1.906,2.736.17,1.323.38,1.721,2.207,1.764a23.87,23.87,0,0,0,4.223-.353s1.622-3.106-.613-4.771a23.754,23.754,0,0,0-3.911.624Z" transform="translate(-311.459 -382.548)" fill="#003360"/>
            <path id="Path_36" data-name="Path 36" d="M313.417,383.561c-1.863.492-2.088,1.318-1.906,2.736.17,1.323.38,1.721,2.207,1.764a5.7,5.7,0,0,0-.3-4.5Z" transform="translate(-311.459 -382.78)" fill="#fff"/>
          </g>
          <path id="Path_37" data-name="Path 37" d="M364.6,374.467h0a4.331,4.331,0,0,1-3.7,5.106l-35.413,4.574v-4.733l33.821-8.341a4.33,4.33,0,0,1,5.292,3.394Z" transform="translate(-315.268 -370.946)" fill="#b1dbf1"/>
        </g>
        <g id="Group_17" data-name="Group 17" transform="translate(17.686 61.106)">
          <path id="Path_38" data-name="Path 38" d="M338.187,376.81H304.2a2.375,2.375,0,0,1-2.375-2.375H340.56A2.375,2.375,0,0,1,338.187,376.81Z" transform="translate(-301.827 -352.663)" fill="#e3e3e3"/>
          <path id="Path_39" data-name="Path 39" d="M301.827,366.318h38.735V345.911a1.365,1.365,0,0,0-1.365-1.365h-36a1.365,1.365,0,0,0-1.365,1.365Z" transform="translate(-301.827 -344.546)" fill="#fff"/>
          <path id="Path_40" data-name="Path 40" d="M330.3,358.369a3.008,3.008,0,1,1-3.008-3.009,3.008,3.008,0,0,1,3.008,3.009Z" transform="translate(-307.926 -347.483)" fill="#d9d9d9"/>
        </g>
        <path id="Path_41" data-name="Path 41" d="M321.348,321.422l-.017.023a5.445,5.445,0,0,0,5.309,8.759,5.008,5.008,0,0,0,3.256-1.8,6.8,6.8,0,0,0,.846-3.992,6.08,6.08,0,0,0-.2-1.957C329.341,318.866,323.441,318.583,321.348,321.422Z" transform="translate(-289.122 -276.639)" fill="#1f100e" opacity="0.05"/>
      </g>
      <g id="Group_19" data-name="Group 19" transform="translate(254.793 242.369)">
        <path id="Path_42" data-name="Path 42" d="M386.477,293.192h6.67a19.709,19.709,0,0,1,19.71,19.709v25.211a19.709,19.709,0,0,1-19.709,19.709h-39.1a4.262,4.262,0,0,1-4.262-4.262h0" transform="translate(-349.784 -291.206)" fill="none" stroke="#302f2d" stroke-linecap="round" stroke-miterlimit="10" stroke-width="2"/>
        <rect id="Rectangle_29" data-name="Rectangle 29" width="7.838" height="4.717" transform="translate(32.051)" fill="#302f2d"/>
        <path id="Path_43" data-name="Path 43" d="M402.133,294.614h0a.682.682,0,0,1-.682-.683v-1.536a.682.682,0,0,1,.682-.682h0a.682.682,0,0,1,.683.682v1.536a.683.683,0,0,1-.683.683Z" transform="translate(-363.815 -290.805)" fill="#4d4b47"/>
      </g>
      <g id="Group_22" data-name="Group 22" transform="translate(64.945 237.129)">
        <g id="Group_20" data-name="Group 20">
          <rect id="Rectangle_30" data-name="Rectangle 30" width="78.903" height="63.16" rx="5.391" transform="translate(0 7.778)" fill="#171616" opacity="0.5"/>
          <path id="Path_44" data-name="Path 44" d="M162.717,283.273l2.972,3.889,2.972,3.889H156.773l2.972-3.889Z" transform="translate(-107.52 -283.273)" fill="#171616" opacity="0.5"/>
        </g>
        <rect id="Rectangle_31" data-name="Rectangle 31" width="14.624" height="14.624" rx="1.547" transform="translate(10.68 49.084)" fill="#fce07c"/>
        <rect id="Rectangle_32" data-name="Rectangle 32" width="14.624" height="14.624" rx="1.547" transform="translate(32.14 49.084)" fill="#6d8b41"/>
        <rect id="Rectangle_33" data-name="Rectangle 33" width="14.624" height="14.624" rx="1.547" transform="translate(53.6 49.084)" fill="#73a9b5"/>
        <g id="Group_21" data-name="Group 21" transform="translate(10.68 17.769)">
          <rect id="Rectangle_34" data-name="Rectangle 34" width="57.544" height="23.682" rx="1.547" fill="#e55d61"/>
          <path id="Path_45" data-name="Path 45" d="M135.271,321.363v-5.846a1.015,1.015,0,0,1,1.523-.879l5.063,2.922,5.063,2.923a1.016,1.016,0,0,1,0,1.76l-5.063,2.922-5.063,2.923a1.015,1.015,0,0,1-1.523-.879Z" transform="translate(-112.36 -309.522)" fill="#fff"/>
        </g>
      </g>
    </g>
  </g>
</svg>
