<svg xmlns="http://www.w3.org/2000/svg" xmlns:xlink="http://www.w3.org/1999/xlink" width="400" height="400" viewBox="0 0 400 400">
  <defs>
    <clipPath id="clip-path">
      <rect id="Rectangle_2" data-name="Rectangle 2" width="400" height="400"/>
    </clipPath>
  </defs>
  <g id="ui-ux-animation-product" clip-path="url(#clip-path)">
    <path id="Path_1" data-name="Path 1" d="M0,0H400V400H0Z" fill="#f5f5f5"/>
    <g id="OBJECTS">
      <g id="Group_4" data-name="Group 4" transform="translate(33.907 71.191)">
        <g id="Group_2" data-name="Group 2" transform="translate(315.693 203.905)">
          <path id="Path_1-2" data-name="Path 1" d="M446.54,405.65a5.69,5.69,0,1,1,5.69,5.689,5.69,5.69,0,0,1-5.69-5.689Z" transform="translate(-444.801 -359.847)" fill="#2c2c2c"/>
          <circle id="Ellipse_1" data-name="Ellipse 1" cx="5.69" cy="5.69" r="5.69" transform="translate(1.739 26.742)" fill="#fed740"/>
          <circle id="Ellipse_2" data-name="Ellipse 2" cx="5.69" cy="5.69" r="5.69" transform="translate(0 15.968) rotate(-22.394)" fill="#fc6679"/>
          <path id="Path_2" data-name="Path 2" d="M446.54,353.936a5.69,5.69,0,1,1,5.69,5.691,5.69,5.69,0,0,1-5.69-5.691Z" transform="translate(-444.801 -348.246)" fill="#40c4fe"/>
        </g>
        <g id="Group_3" data-name="Group 3">
          <path id="Path_3" data-name="Path 3" d="M38.788,142.773a5.69,5.69,0,1,1,5.69,5.69,5.69,5.69,0,0,1-5.69-5.69Z" transform="translate(-37.636 -96.97)" fill="#2c2c2c"/>
          <circle id="Ellipse_3" data-name="Ellipse 3" cx="5.69" cy="5.69" r="5.69" transform="matrix(0.229, -0.973, 0.973, 0.229, 0, 36.668)" fill="#fed740"/>
          <path id="Path_4" data-name="Path 4" d="M38.788,108.3a5.69,5.69,0,1,1,5.69,5.691,5.69,5.69,0,0,1-5.69-5.691Z" transform="translate(-37.636 -89.236)" fill="#fc6679"/>
          <path id="Path_5" data-name="Path 5" d="M38.788,91.059a5.69,5.69,0,1,1,5.69,5.691,5.69,5.69,0,0,1-5.69-5.691Z" transform="translate(-37.636 -85.369)" fill="#40c4fe"/>
        </g>
      </g>
      <g id="Group_15" data-name="Group 15" transform="translate(22.987 22.167)">
        <g id="Group_9" data-name="Group 9" transform="translate(316.282 317.922)">
          <g id="Group_5" data-name="Group 5" transform="translate(9.294 9.294)">
            <path id="Path_6" data-name="Path 6" d="M459.9,452.484a8.468,8.468,0,1,1-8.468-8.467,8.468,8.468,0,0,1,8.468,8.467Z" transform="translate(-442.96 -444.017)" fill="#fed740"/>
          </g>
          <g id="Group_8" data-name="Group 8">
            <g id="Group_6" data-name="Group 6" transform="translate(17.374)">
              <rect id="Rectangle_3" data-name="Rectangle 3" width="0.776" height="35.525"/>
            </g>
            <g id="Group_7" data-name="Group 7" transform="translate(0 17.374)">
              <rect id="Rectangle_4" data-name="Rectangle 4" width="35.525" height="0.776"/>
            </g>
          </g>
        </g>
        <g id="Group_14" data-name="Group 14">
          <g id="Group_10" data-name="Group 10" transform="translate(9.294 9.294)">
            <path id="Path_7" data-name="Path 7" d="M35.206,42.617a8.468,8.468,0,1,1,8.468,8.468,8.468,8.468,0,0,1-8.468-8.468Z" transform="translate(-35.206 -34.149)" fill="#f0c52c"/>
          </g>
          <g id="Group_13" data-name="Group 13">
            <g id="Group_11" data-name="Group 11" transform="translate(17.375)">
              <rect id="Rectangle_5" data-name="Rectangle 5" width="0.776" height="35.525"/>
            </g>
            <g id="Group_12" data-name="Group 12" transform="translate(0 17.374)">
              <rect id="Rectangle_6" data-name="Rectangle 6" width="35.525" height="0.776"/>
            </g>
          </g>
        </g>
      </g>
      <g id="Group_41" data-name="Group 41" transform="translate(240.345 113.566)">
        <g id="Group_40" data-name="Group 40">
          <g id="Group_38" data-name="Group 38">
            <g id="Group_23" data-name="Group 23" transform="translate(16.724 145.485)">
              <rect id="Rectangle_7" data-name="Rectangle 7" width="46.534" height="12.008" fill="#494949"/>
            </g>
            <g id="Group_24" data-name="Group 24" transform="translate(4.249 44.161)">
              <path id="Path_9" data-name="Path 9" d="M275.048,184.041s-27.5-44.635-30.135-48.206-3.786,0-3.786,0v42.079a5.708,5.708,0,1,1-2.924,0V135.835s-1.145-3.57-3.786,0-30.137,48.206-30.137,48.206-1.427,2.143,1.429,9.285,15.354,39.279,15.354,39.279h37.2s12.5-32.137,15.354-39.279S275.048,184.041,275.048,184.041Z" transform="translate(-203.922 -134.248)" fill="#494949"/>
            </g>
            <g id="Group_37" data-name="Group 37">
              <g id="Group_27" data-name="Group 27" transform="translate(5.53)">
                <g id="Group_25" data-name="Group 25">
                  <path id="Path_10" data-name="Path 10" d="M212.339,90.845a6.765,6.765,0,1,1,6.761-6.764,6.765,6.765,0,0,1-6.761,6.764Zm0-11.417a4.652,4.652,0,1,0,4.651,4.652,4.652,4.652,0,0,0-4.651-4.652Z" transform="translate(-205.573 -77.315)" fill="#40c4fe"/>
                </g>
                <g id="Group_26" data-name="Group 26" transform="translate(55.39)">
                  <path id="Path_11" data-name="Path 11" d="M283.749,90.845a6.765,6.765,0,1,1,6.766-6.765A6.765,6.765,0,0,1,283.749,90.845Zm0-11.417A4.652,4.652,0,1,0,288.4,84.08a4.652,4.652,0,0,0-4.651-4.652Z" transform="translate(-276.983 -77.315)" fill="#40c4fe"/>
                </g>
              </g>
              <g id="Group_30" data-name="Group 30" transform="translate(0 27.751)">
                <g id="Group_28" data-name="Group 28" transform="translate(66.45)">
                  <path id="Path_12" data-name="Path 12" d="M290.878,126.623a6.765,6.765,0,1,1,6.766-6.765,6.765,6.765,0,0,1-6.766,6.765Zm0-11.417a4.652,4.652,0,1,0,4.651,4.652A4.652,4.652,0,0,0,290.878,115.206Z" transform="translate(-284.112 -113.092)" fill="#fed740"/>
                </g>
                <g id="Group_29" data-name="Group 29">
                  <path id="Path_13" data-name="Path 13" d="M205.21,126.623a6.765,6.765,0,1,1,6.765-6.765,6.765,6.765,0,0,1-6.765,6.765Zm0-11.417a4.652,4.652,0,1,0,4.651,4.652,4.652,4.652,0,0,0-4.651-4.652Z" transform="translate(-198.444 -113.092)" fill="#fed740"/>
                </g>
              </g>
              <g id="Group_33" data-name="Group 33" transform="translate(14.173 11.572)">
                <g id="Group_31" data-name="Group 31">
                  <path id="Path_14" data-name="Path 14" d="M236.736,115.583A25.759,25.759,0,0,1,216.716,92.4l2.107-.167a23.654,23.654,0,0,0,18.384,21.289Z" transform="translate(-216.716 -92.234)" fill="#40c4fe"/>
                </g>
                <g id="Group_32" data-name="Group 32" transform="translate(31.152)">
                  <path id="Path_15" data-name="Path 15" d="M257.35,115.581l-.472-2.059a23.654,23.654,0,0,0,18.375-21.287l2.107.167a25.758,25.758,0,0,1-20.01,23.179Z" transform="translate(-256.878 -92.234)" fill="#40c4fe"/>
                </g>
              </g>
              <g id="Group_36" data-name="Group 36" transform="translate(11.925 33.46)">
                <g id="Group_34" data-name="Group 34">
                  <rect id="Rectangle_8" data-name="Rectangle 8" width="22.906" height="2.113" fill="#fed740"/>
                </g>
                <g id="Group_35" data-name="Group 35" transform="translate(33.226)">
                  <rect id="Rectangle_9" data-name="Rectangle 9" width="22.905" height="2.113" fill="#fed740"/>
                </g>
              </g>
            </g>
          </g>
          <g id="Group_39" data-name="Group 39" transform="translate(39.991 44.161)">
            <path id="Path_16" data-name="Path 16" d="M285.385,184.041s-27.5-44.635-30.135-48.206-3.786,0-3.786,0v42.079A5.7,5.7,0,0,1,250,189.135V232.6h18.6s12.5-32.137,15.354-39.279S285.385,184.041,285.385,184.041Z" transform="translate(-250.001 -134.248)" fill="#2c2c2c"/>
            <rect id="Rectangle_10" data-name="Rectangle 10" width="23.267" height="12.008" transform="translate(0 101.324)" fill="#2c2c2c"/>
          </g>
        </g>
        <path id="Path_17" data-name="Path 17" d="M248.044,126.623a6.765,6.765,0,1,1,6.766-6.765,6.765,6.765,0,0,1-6.766,6.765Zm0-11.417a4.652,4.652,0,1,0,4.651,4.652,4.652,4.652,0,0,0-4.651-4.652Z" transform="translate(-208.053 -85.341)" fill="#494949"/>
        <path id="Path_18" data-name="Path 18" d="M269.071,282.838a2.482,2.482,0,0,1-2.481,2.482h-48.7a2.482,2.482,0,0,1-2.481-2.482h0a2.482,2.482,0,0,1,2.481-2.481h48.7a2.482,2.482,0,0,1,2.481,2.481Z" transform="translate(-202.25 -122.864)" fill="#404040"/>
      </g>
      <g id="Group_44" data-name="Group 44" transform="translate(22.167 22.981)">
        <g id="Group_42" data-name="Group 42" transform="translate(0 316.287)">
          <path id="Path_19" data-name="Path 19" d="M34.175,454.377a8.455,8.455,0,0,0,8.061,8.061v-8.061Z" transform="translate(-24.861 -436.227)" fill="#2c2c2c"/>
          <path id="Path_20" data-name="Path 20" d="M45.567,462.438a8.454,8.454,0,0,0,8.06-8.061h-8.06Z" transform="translate(-27.416 -436.227)" fill="#fed740"/>
          <path id="Path_21" data-name="Path 21" d="M42.236,442.986a8.453,8.453,0,0,0-8.061,8.06h8.061Z" transform="translate(-24.861 -433.672)" fill="#40c4fe"/>
          <path id="Path_22" data-name="Path 22" d="M53.627,451.046a8.453,8.453,0,0,0-8.06-8.06v8.06Z" transform="translate(-27.416 -433.672)" fill="#fc6679"/>
          <path id="Path_23" data-name="Path 23" d="M31.481,453.377H22.167v.776h9.314c-.006-.13-.02-.258-.02-.388S31.475,453.506,31.481,453.377Z" transform="translate(-22.167 -436.003)"/>
          <path id="Path_24" data-name="Path 24" d="M65.272,453.377H55.958c.006.129.019.257.019.388s-.013.258-.019.388h9.314Z" transform="translate(-29.747 -436.003)"/>
          <path id="Path_25" data-name="Path 25" d="M53.627,453.377h-8.06v.776h8.06c.006-.13.019-.258.019-.388S53.633,453.506,53.627,453.377Z" transform="translate(-27.416 -436.003)" fill="#fefaef"/>
          <path id="Path_26" data-name="Path 26" d="M42.23,453.377H34.169c-.006.129-.02.257-.02.388s.014.258.02.388H42.23Z" transform="translate(-24.855 -436.003)" fill="#fefaef"/>
          <path id="Path_27" data-name="Path 27" d="M45.343,440.292v-9.314h-.776v9.314c.13-.006.257-.02.388-.02S45.213,440.286,45.343,440.292Z" transform="translate(-27.192 -430.978)"/>
          <path id="Path_28" data-name="Path 28" d="M44.567,464.769v9.314h.776v-9.314c-.13.006-.257.019-.388.019S44.7,464.775,44.567,464.769Z" transform="translate(-27.192 -438.558)"/>
          <path id="Path_29" data-name="Path 29" d="M44.567,454.377v8.061c.13.006.257.019.388.019s.258-.013.388-.019v-8.061Z" transform="translate(-27.192 -436.227)" fill="#fefaef"/>
          <path id="Path_30" data-name="Path 30" d="M45.343,451.04v-8.06c-.13-.006-.257-.02-.388-.02s-.258.014-.388.02v8.06Z" transform="translate(-27.192 -433.666)" fill="#fefaef"/>
          <rect id="Rectangle_11" data-name="Rectangle 11" width="0.776" height="0.776" transform="translate(17.375 17.374)" fill="#fefaef"/>
        </g>
        <g id="Group_43" data-name="Group 43" transform="translate(317.909)">
          <path id="Path_31" data-name="Path 31" d="M444.026,46.615a8.456,8.456,0,0,0,8.062,8.062V46.615Z" transform="translate(-434.713 -28.466)" fill="#2c2c2c"/>
          <path id="Path_32" data-name="Path 32" d="M455.419,54.677a8.455,8.455,0,0,0,8.06-8.062h-8.06Z" transform="translate(-437.268 -28.466)" fill="#fed740"/>
          <path id="Path_33" data-name="Path 33" d="M452.088,35.225a8.453,8.453,0,0,0-8.062,8.059h8.062Z" transform="translate(-434.713 -25.911)" fill="#40c4fe"/>
          <path id="Path_34" data-name="Path 34" d="M463.479,43.284a8.452,8.452,0,0,0-8.06-8.059v8.059Z" transform="translate(-437.268 -25.911)" fill="#fc6679"/>
          <path id="Path_35" data-name="Path 35" d="M441.332,45.615h-9.313v.776h9.313c-.005-.13-.019-.257-.019-.388S441.327,45.745,441.332,45.615Z" transform="translate(-432.019 -28.242)"/>
          <path id="Path_36" data-name="Path 36" d="M475.123,45.615H465.81c.005.13.019.257.019.388s-.014.258-.019.388h9.313Z" transform="translate(-439.599 -28.242)"/>
          <path id="Path_37" data-name="Path 37" d="M463.479,45.615h-8.06v.776h8.06c.005-.13.019-.257.019-.388S463.484,45.745,463.479,45.615Z" transform="translate(-437.268 -28.242)" fill="#fefaef"/>
          <path id="Path_38" data-name="Path 38" d="M452.082,45.615H444.02c-.005.13-.019.257-.019.388s.014.258.019.388h8.062Z" transform="translate(-434.707 -28.242)" fill="#fefaef"/>
          <path id="Path_39" data-name="Path 39" d="M455.2,32.531V23.217h-.776v9.314c.13-.006.257-.02.388-.02S455.065,32.525,455.2,32.531Z" transform="translate(-437.044 -23.217)"/>
          <path id="Path_40" data-name="Path 40" d="M454.419,57.008v9.314h.776V57.008c-.13.006-.257.019-.388.019S454.549,57.014,454.419,57.008Z" transform="translate(-437.044 -30.797)"/>
          <path id="Path_41" data-name="Path 41" d="M454.419,46.615v8.062c.13.006.257.019.388.019s.258-.013.388-.019V46.615Z" transform="translate(-437.044 -28.466)" fill="#fefaef"/>
          <path id="Path_42" data-name="Path 42" d="M455.2,43.278V35.219c-.13-.006-.257-.02-.388-.02s-.258.014-.388.02v8.059Z" transform="translate(-437.044 -25.905)" fill="#fefaef"/>
          <rect id="Rectangle_12" data-name="Rectangle 12" width="0.776" height="0.776" transform="translate(17.375 17.374)" fill="#fefaef"/>
        </g>
      </g>
    </g>
    <g id="Group_45" data-name="Group 45" transform="translate(-183 -140.045)">
      <g id="Group_3-2" data-name="Group 3" transform="translate(278.13 294.045)">
        <path id="Path_12-2" data-name="Path 12" d="M301.6,311.925l-3.988,2.308v.454l32.134,18.593,8.525,4.932h7.185l25.471-14.77,15.466-8.969v-.033l-4.34-2.516L345.8,332.943v2.637h-7.871v-2.632Z" transform="translate(-289.397 -272.827)" fill="#fff"/>
        <path id="Path_13-2" data-name="Path 13" d="M386.4,296.265v-.032l-41.644-24.146h-5.769l-41.368,23.938v.454l40.321,23.33V319.1h7.871v.7Z" transform="translate(-289.397 -264.216)" fill="#fc6679"/>
        <path id="Path_14-2" data-name="Path 14" d="M392,297.24v-7.87h-7.87v.161L346.89,267.94h20.982v1.975h7.87v-7.87h-7.87v1.976H343.541v-1.976H335.67v1.976H311.087v-1.976h-7.87v7.87h7.87V267.94h21.219l-37.034,21.43h-7.794v4.509l-.347.2.347.2v2.959h5.114l2.832,1.638-1.862,1.078h-6.084v7.87h1.594l-.136,48.064h-1.458v7.871h6.391l41.8,24.108v3.942h7.871v-3.958l41.412-24.093H392V355.89h-2.123l.136-48.064H392v-7.87h-6.443l-1.862-1.079,2.822-1.637Zm-54.355,86.7H336.7l-41.355-23.85v-4.2h-2.494l.136-48.064h1.31l41.369,23.936V335.3h1.975Zm48.448-76.114-.136,48.064h-1.828v3.816l-41.657,24.235h-.908V335.3h1.977v-3.542l41.269-23.932Zm-1.964-4.169v.034l-15.466,8.969-25.471,14.77h-7.185l-8.524-4.932-32.135-18.6v-.454l3.988-2.308,36.333,21.022v2.64h7.871v-2.637l36.249-21.019Zm0-9.563L343.54,317.631v-.7h-7.871v.71l-40.321-23.33v-.454l41.368-23.938h5.769l41.644,24.147Z" transform="translate(-287.13 -262.045)" fill="#102945"/>
        <path id="Path_15-2" data-name="Path 15" d="M358.553,347.927h-1.976v48.64h.908l41.656-24.235v-3.815h1.828l.136-48.064h-1.283l-41.269,23.931Z" transform="translate(-302.142 -274.671)" fill="#fed740"/>
        <path id="Path_16-2" data-name="Path 16" d="M338.282,396.567h.942v-48.64h-1.975v-3.538L295.88,320.453h-1.31l-.136,48.064h2.494v4.2Z" transform="translate(-288.709 -274.671)" fill="#40c4fe"/>
      </g>
    </g>
  </g>
</svg>
