<svg xmlns="http://www.w3.org/2000/svg" width="489.232" height="389.054" viewBox="0 0 489.232 389.054">
  <g id="ui-ux-design-product" transform="translate(-49.787 -141.975)">
    <g id="Background_Complete" data-name="Background Complete" transform="translate(84.315 217.442)">
      <g id="Group_1" data-name="Group 1">
        <rect id="Rectangle_1" data-name="Rectangle 1" width="454.704" height="0.227" transform="translate(0 297.782)" fill="#bf4252"/>
        <rect id="Rectangle_2" data-name="Rectangle 2" width="30.122" height="0.227" transform="translate(47.707 306.443)" fill="#bf4252"/>
        <rect id="Rectangle_3" data-name="Rectangle 3" width="38.674" height="0.227" transform="translate(155.636 303.975)" fill="#bf4252"/>
        <rect id="Rectangle_4" data-name="Rectangle 4" width="17.454" height="0.227" transform="translate(85.006 309.634)" fill="#bf4252"/>
        <rect id="Rectangle_5" data-name="Rectangle 5" width="13.854" height="0.227" transform="translate(395.29 313.36)" fill="#bf4252"/>
        <rect id="Rectangle_6" data-name="Rectangle 6" width="31.185" height="0.227" transform="translate(356.008 313.36)" fill="#bf4252"/>
        <rect id="Rectangle_7" data-name="Rectangle 7" width="21.674" height="0.227" transform="translate(280.098 306.817)" fill="#bf4252"/>
        <path id="Path_1" data-name="Path 1" d="M219,312.176H43.4a5.2,5.2,0,0,1-5.191-5.191V60.143A5.2,5.2,0,0,1,43.4,54.952H219a5.2,5.2,0,0,1,5.19,5.191V306.985A5.2,5.2,0,0,1,219,312.176Zm-175.6-257a4.969,4.969,0,0,0-4.964,4.964V306.985a4.969,4.969,0,0,0,4.964,4.964H219a4.968,4.968,0,0,0,4.963-4.964V60.143A4.968,4.968,0,0,0,219,55.179Z" transform="translate(-3.461 -54.952)" fill="#bf4252"/>
        <path id="Path_2" data-name="Path 2" d="M435.3,312.176H259.7a5.2,5.2,0,0,1-5.19-5.191V60.143a5.2,5.2,0,0,1,5.19-5.191H435.3a5.2,5.2,0,0,1,5.192,5.191V306.985a5.2,5.2,0,0,1-5.192,5.191Zm-175.6-257a4.968,4.968,0,0,0-4.963,4.964V306.985a4.968,4.968,0,0,0,4.963,4.964H435.3a4.969,4.969,0,0,0,4.964-4.964V60.143a4.969,4.969,0,0,0-4.964-4.964Z" transform="translate(-23.056 -54.952)" fill="#bf4252"/>
      </g>
      <g id="Group_3" data-name="Group 3" transform="translate(60.832 20.657)">
        <rect id="Rectangle_8" data-name="Rectangle 8" width="289.591" height="255.127" transform="translate(43.45)" fill="#e0e0e0"/>
        <rect id="Rectangle_9" data-name="Rectangle 9" width="289.591" height="233.301" transform="translate(38.195 21.826)" fill="#f5f5f5"/>
        <rect id="Rectangle_10" data-name="Rectangle 10" width="208.158" height="154.89" transform="translate(76.79 61.031)" fill="#fff"/>
        <rect id="Rectangle_11" data-name="Rectangle 11" width="38.195" height="233.301" transform="translate(38.195 255.127) rotate(180)" fill="#f0f0f0"/>
        <rect id="Rectangle_12" data-name="Rectangle 12" width="38.195" height="14.854" transform="translate(38.195 36.679) rotate(180)" fill="#ebebeb"/>
        <rect id="Rectangle_13" data-name="Rectangle 13" width="327.787" height="21.826" transform="translate(327.787 21.826) rotate(180)" fill="#e6e6e6"/>
        <rect id="Rectangle_14" data-name="Rectangle 14" width="88.213" height="9.094" transform="translate(126.408 30.92) rotate(180)" fill="#fafafa"/>
        <rect id="Rectangle_15" data-name="Rectangle 15" width="88.213" height="9.094" transform="translate(126.408 21.826)" fill="#ebebeb"/>
        <rect id="Rectangle_16" data-name="Rectangle 16" width="13.368" height="13.368" transform="translate(2.865 39.711)" fill="#e6e6e6"/>
        <rect id="Rectangle_17" data-name="Rectangle 17" width="13.368" height="13.368" transform="translate(21.962 39.711)" fill="#e6e6e6"/>
        <rect id="Rectangle_18" data-name="Rectangle 18" width="13.368" height="13.368" transform="translate(35.331 72.177) rotate(180)" fill="#e6e6e6"/>
        <rect id="Rectangle_19" data-name="Rectangle 19" width="13.368" height="13.368" transform="translate(16.233 72.177) rotate(180)" fill="#e6e6e6"/>
        <rect id="Rectangle_20" data-name="Rectangle 20" width="13.368" height="13.368" transform="translate(2.865 77.906)" fill="#e6e6e6"/>
        <rect id="Rectangle_21" data-name="Rectangle 21" width="13.368" height="13.368" transform="translate(21.962 77.906)" fill="#e6e6e6"/>
        <rect id="Rectangle_22" data-name="Rectangle 22" width="13.368" height="13.368" transform="translate(35.331 110.372) rotate(180)" fill="#e6e6e6"/>
        <rect id="Rectangle_23" data-name="Rectangle 23" width="13.368" height="13.368" transform="translate(16.233 110.372) rotate(180)" fill="#e6e6e6"/>
        <rect id="Rectangle_24" data-name="Rectangle 24" width="13.368" height="13.368" transform="translate(2.865 116.101)" fill="#e6e6e6"/>
        <rect id="Rectangle_25" data-name="Rectangle 25" width="13.368" height="13.368" transform="translate(21.962 116.101)" fill="#e6e6e6"/>
        <rect id="Rectangle_26" data-name="Rectangle 26" width="13.368" height="13.368" transform="translate(35.331 148.567) rotate(180)" fill="#e6e6e6"/>
        <rect id="Rectangle_27" data-name="Rectangle 27" width="13.368" height="13.368" transform="translate(16.233 148.567) rotate(180)" fill="#e6e6e6"/>
        <rect id="Rectangle_28" data-name="Rectangle 28" width="8.192" height="8.192" transform="translate(11.057 200.684) rotate(180)" fill="#e6e6e6"/>
        <rect id="Rectangle_29" data-name="Rectangle 29" width="8.192" height="8.192" transform="translate(35.331 200.684) rotate(180)" fill="#e6e6e6"/>
        <rect id="Rectangle_30" data-name="Rectangle 30" width="8.192" height="8.192" transform="translate(23.194 200.684) rotate(180)" fill="#e6e6e6"/>
        <rect id="Rectangle_31" data-name="Rectangle 31" width="19.871" height="19.871" transform="translate(35.247 186.679) rotate(180)" fill="#e6e6e6"/>
        <rect id="Rectangle_32" data-name="Rectangle 32" width="19.871" height="19.871" transform="translate(22.735 174.167) rotate(180)" fill="#fff"/>
        <g id="Group_2" data-name="Group 2" transform="translate(187.711 74.734)">
          <circle id="Ellipse_1" data-name="Ellipse 1" cx="33.345" cy="33.345" r="33.345" transform="translate(0 65.829) rotate(-80.783)" fill="#f5f5f5"/>
          <rect id="Rectangle_33" data-name="Rectangle 33" width="57.293" height="21.888" transform="translate(49.2 60.465) rotate(90)" fill="#f5f5f5"/>
        </g>
      </g>
    </g>
    <g id="Pen_Tool" data-name="Pen Tool" transform="translate(49.792 141.974)">
      <g id="Group_16" data-name="Group 16">
        <g id="Group_9" data-name="Group 9" transform="translate(119.112 119.556)">
          <g id="Group_5" data-name="Group 5">
            <path id="Path_5" data-name="Path 5" d="M291.064,248.236l-30.769,30.77s-18.967-21.264-44.072-18.861c-9.286-20.383-19.9-63.816-22.819-76.211l41.9,41.9a6.485,6.485,0,1,0,2.578-2.576l-41.9-41.9c12.4,2.924,55.829,13.533,76.211,22.819C269.8,229.27,291.064,248.236,291.064,248.236Z" transform="translate(-193.404 -181.357)" fill="#bf4252"/>
            <path id="Path_6" data-name="Path 6" d="M271.989,204.179c-20.378-9.288-63.821-19.9-76.22-22.821l41.9,41.9a6.466,6.466,0,0,1,7.679,10.248l30.118,30.118,15.393-15.393S269.6,229.27,271.989,204.179Z" transform="translate(-193.199 -181.357)" opacity="0.2"/>
          </g>
          <g id="Group_6" data-name="Group 6" transform="translate(72.692 72.691)">
            <path id="Path_7" data-name="Path 7" d="M370.168,358.12h0a13.922,13.922,0,0,1-19.631,0L260.3,267.881l19.631-19.631,90.239,90.239A13.922,13.922,0,0,1,370.168,358.12Z" transform="translate(-260.298 -248.25)" fill="#ffa5a5"/>
            <path id="Path_8" data-name="Path 8" d="M370.168,358.12h0a13.922,13.922,0,0,1-19.631,0L260.3,267.881l19.631-19.631,90.239,90.239A13.922,13.922,0,0,1,370.168,358.12Z" transform="translate(-260.298 -248.25)" fill="#fff" opacity="0.7"/>
          </g>
          <rect id="Rectangle_34" data-name="Rectangle 34" width="36.789" height="14.059" rx="2.926" transform="translate(69.499 95.513) rotate(-45)" fill="#bf4252"/>
          <g id="Group_8" data-name="Group 8" transform="translate(59.134 59.134)">
            <g id="Group_7" data-name="Group 7">
              <rect id="Rectangle_35" data-name="Rectangle 35" width="50.711" height="14.728" rx="3.516" transform="translate(0 35.858) rotate(-45)" fill="#e84f63"/>
              <path id="Rectangle_36" data-name="Rectangle 36" d="M3.516,0H47.195a3.516,3.516,0,0,1,3.516,3.516v7.7a3.516,3.516,0,0,1-3.516,3.516H3.516A3.516,3.516,0,0,1,0,11.212v-7.7A3.516,3.516,0,0,1,3.516,0Z" transform="translate(0 35.858) rotate(-45)" opacity="0.4"/>
            </g>
            <rect id="Rectangle_37" data-name="Rectangle 37" width="6.199" height="14.728" transform="translate(7 28.857) rotate(-45)" fill="#fff"/>
            <rect id="Rectangle_38" data-name="Rectangle 38" width="2.544" height="14.728" transform="translate(26.552 30.134) rotate(135)" fill="#fff"/>
          </g>
        </g>
        <g id="Group_15" data-name="Group 15">
          <path id="Path_9" data-name="Path 9" d="M190.236,381.869c-56.155-56.155-56.155-147.525,0-203.68s147.525-56.155,203.68,0l-1.668,1.668c-55.234-55.235-145.109-55.235-200.345,0s-55.234,145.108,0,200.344Z" transform="translate(-78.217 -65.725)" fill="#bf4252"/>
          <rect id="Rectangle_39" data-name="Rectangle 39" width="285.688" height="2.358" transform="translate(11.013 213.47) rotate(-45)" fill="#bf4252"/>
          <g id="Group_10" data-name="Group 10" transform="translate(96.091 96.535)">
            <rect id="Rectangle_40" data-name="Rectangle 40" width="21.347" height="21.347" transform="translate(1.668 16.762) rotate(-45)" fill="#fff"/>
            <path id="Path_10" data-name="Path 10" d="M188.981,193.7l-16.762-16.762,16.762-16.762,16.762,16.762Zm-13.427-16.762,13.427,13.427,13.427-13.427-13.427-13.427Z" transform="translate(-172.219 -160.172)" fill="#bf4252"/>
          </g>
          <g id="Group_11" data-name="Group 11" transform="translate(96.091 298.547)">
            <rect id="Rectangle_41" data-name="Rectangle 41" width="21.347" height="21.347" transform="translate(1.668 16.763) rotate(-45)" fill="#fff"/>
            <path id="Path_11" data-name="Path 11" d="M188.981,379.6l-16.762-16.763,16.762-16.762,16.762,16.762Zm-13.427-16.763,13.427,13.427,13.427-13.427-13.427-13.426Z" transform="translate(-172.219 -346.072)" fill="#be4252"/>
          </g>
          <g id="Group_12" data-name="Group 12" transform="translate(298.542 96.096)">
            <rect id="Rectangle_42" data-name="Rectangle 42" width="21.347" height="21.347" transform="translate(1.668 16.762) rotate(-45)" fill="#fff"/>
            <path id="Path_12" data-name="Path 12" d="M375.285,193.293,358.523,176.53l16.762-16.762,16.762,16.762ZM361.858,176.53l13.427,13.427,13.427-13.427L375.285,163.1Z" transform="translate(-358.523 -159.768)" fill="#bf4252"/>
          </g>
          <g id="Group_13" data-name="Group 13" transform="translate(202.451)">
            <circle id="Ellipse_2" data-name="Ellipse 2" cx="10.673" cy="10.673" r="10.673" transform="translate(1.174 1.179)" fill="#fff"/>
            <path id="Path_13" data-name="Path 13" d="M281.943,95.041a11.852,11.852,0,1,1,8.38-20.233h0a11.852,11.852,0,0,1-8.38,20.233Zm0-21.347a9.494,9.494,0,1,0,6.713,2.781h0A9.432,9.432,0,0,0,281.943,73.694Z" transform="translate(-270.096 -71.336)" fill="#bf4252"/>
          </g>
          <g id="Group_14" data-name="Group 14" transform="translate(0 202.456)">
            <circle id="Ellipse_3" data-name="Ellipse 3" cx="10.673" cy="10.673" r="10.673" transform="translate(1.173 1.174)" fill="#fff"/>
            <path id="Path_14" data-name="Path 14" d="M95.639,281.339a11.85,11.85,0,1,1,8.381-20.227h0a11.846,11.846,0,0,1-8.381,20.227Zm0-21.336a9.489,9.489,0,1,0,6.713,2.775A9.489,9.489,0,0,0,95.639,260Z" transform="translate(-83.792 -257.645)" fill="#bf4252"/>
          </g>
        </g>
      </g>
    </g>
  </g>
</svg>
