<svg xmlns="http://www.w3.org/2000/svg" width="250.498" height="218.096" viewBox="0 0 250.498 218.096">
  <g id="_x34_36_x2C__design_x2C__draft_x2C__sketch_x2C__sketching_x2C__visual" transform="translate(-26.001 -55.752)">
    <g id="Group_934" data-name="Group 934" transform="translate(26.001 55.752)">
      <path id="Path_242" data-name="Path 242" d="M127.7,199.188c-.818-.112-1.651-.224-2.47-.369l-.608-.1H124.6l-.608-.1-.128-.032-1.716-.3-.48-.1-.128-.032-.61-.112h-.015l-.61-.128-.1-.032-.5-.1-.61-.129-.352-.08-.256-.064-.465-.1-.145-.033-.577-.144h-.015l-.609-.144-.1-.032-.5-.113-.224-.064-.386-.1-.337-.079-.256-.081-.465-.112-.128-.032-.577-.161H113.7l-.594-.176-.111-.033-.481-.128-.592-.176-.337-.1-.256-.08-.449-.128-.145-.047-.56-.177h-.015l-.594-.192-.1-.016-.48-.16-.208-.08-.386-.112-.319-.112-.258-.08-.432-.144-.143-.048-.562-.193-.015-.016-.577-.209-.1-.016-.481-.176-.208-.079-.369-.129-.321-.128-.239-.1-.434-.16-.143-.048-.545-.209-.033-.016-.562-.208-.078-.032-.482-.193-.208-.08-.369-.16-.3-.113-.256-.112-.417-.176-.145-.048-.528-.224-.033-.016-.562-.24-1.1-.481-.306-.145-.239-.112-.417-.176-.145-.08-.512-.224-.033-.032-.56-.257-.1-.048-.447-.209L95.2,189.4l-.321-.144-.367-.176-.178-.1-.5-.241-.03-.016-.545-.272-.1-.048-.447-.24-.529-.272-.353-.176-.191-.1-.481-.257-.048-.032-.529-.289-.08-.033-.48-.272-.577-.32-.256-.145-.3-.16-.353-.209-.208-.112-.449-.257-.111-.064-.529-.32-.033-.016-.545-.32-1.666-1.01-.321-.209-.224-.128-.417-.272-.128-.08-1.074-.689-.063-.032-.481-.321-.143-.1-.386-.257-.224-.16-.321-.208-.529-.369-.4-.257-.128-.1-.481-.336-.048-.033-.529-.384-.03-.016-.481-.353-.128-.08-.4-.3-.208-.144-.3-.224-.289-.224-.223-.161-.369-.288-.145-.1-.447-.352L76,177.587l-.512-.385-.017-.016-.48-.384-.113-.08-.4-.32-.193-.144-.3-.256-.273-.209-.224-.193-.353-.272-.144-.128-.433-.352-.063-.064-.5-.417h-.015l-.482-.417-.08-.064-.4-.336-.159-.161-.321-.272-.241-.209-.241-.209-.319-.288-.16-.145-.4-.352-.08-.08-.465-.417-.015-.015-.465-.432-.08-.064-.386-.369-.158-.145L67.2,170.1,67,169.878l-.241-.224-.465-.449-.369-.352-.1-.1-.449-.432v-.016l-.465-.449-.065-.065-.384-.4-.128-.128-.321-.321-.208-.209-.241-.256-.272-.288-.16-.176-.352-.369-.1-.1-.417-.448-.015-.016-.432-.481-.05-.048-.384-.417-.128-.128-.3-.352-.193-.209-.241-.272-.256-.289-.16-.193-.417-.48-.4-.448-.033-.033-.417-.5-.015-.032h-.017l-.015-.032h-.017l-.015-.032v-.016l-.033-.032h0l-.015-.033h-.017l-.015-.032v-.015L58.663,161l-.017-.016-.015-.032v-.016l-.015-.016-.017-.016-.015-.016v-.016l-.017-.033v-.015l-.015-.016-.015-.016v-.032l-.017-.016v-.016l-.015-.016v-.032l-.017-.016-.015-.016V160.6l-.015-.016v-.016l-.017-.032v-.016l-.015-.016v-.048l-.015-.016v-.048l-.017-.016v-.064l-.015-.016v-.064l-.017-.032v-.1l-.015-.033V159.8l.015-.032v-.1l.017-.032v-.064l.015-.015V159.5l.017-.016v-.048l.015-.016v-.048l.015-.016v-.016l.017-.032v-.016l.015-.016v-.048l.015-.016.017-.016v-.032l.015-.016v-.016l.017-.016v-.032l.015-.016.015-.016v-.016l.017-.032v-.016l.015-.016.017-.016.015-.032h0l.015-.032.017-.016.015-.016v-.016l.015-.032h.017l.015-.032v-.016l.033-.016v-.016l.015-.032h.017l.015-.032h.017l.015-.033.384-.448.113-.129.3-.368.176-.193.5-.561.178-.208.3-.353.128-.127.384-.417.047-.064.434-.465.015-.016.417-.465.08-.1.353-.368.158-.161.289-.3.225-.24.208-.224.3-.321.143-.144.386-.385.063-.064.449-.465H64.9l.449-.449.065-.079.384-.368.143-.145.321-.3.225-.224.239-.224.289-.288.176-.161.369-.352.1-.08.447-.432.017-.016.48-.432.047-.049.417-.384.145-.112.337-.321.768-.673.193-.176.369-.321.128-.1.432-.385.05-.032.5-.417.03-.032.449-.384.128-.1.369-.32.5-.4.289-.224.224-.176.353-.289.143-.112.434-.352.063-.048.512-.4.017-.015.5-.369.1-.08.417-.321.176-.129.337-.256.514-.384.352-.256.161-.129.432-.3.1-.064,1.042-.754.08-.047.447-.321.178-.112.352-.256.256-.176.289-.176.337-.24.193-.128.417-.289.113-.064,1.634-1.057.143-.1.4-.241.224-.16.321-.193.321-.193.224-.144.417-.256.145-.081.5-.3.05-.032.143-.08.979-.561.128-.08.432-.256.208-.113.353-.193.56-.32.4-.224.176-.1.48-.272.08-.032.529-.289.048-.033.481-.256.191-.1.353-.176.321-.16.208-.112.447-.24.1-.032.545-.272.03-.033.5-.239.178-.1.367-.175.321-.145.225-.113.447-.209.1-.048.56-.256.033-.016.512-.24.145-.064.417-.193.239-.112.306-.129,1.1-.5.562-.24.033-.016.528-.209.145-.064.417-.176.256-.112.3-.113.369-.161.208-.08.482-.193.078-.032.562-.208.033-.016.545-.209.143-.048.434-.16.256-.1.3-.128.369-.128.208-.08.481-.176.1-.016.577-.209.015-.016.562-.175.143-.065.432-.144.258-.081.319-.112.386-.113.208-.08.48-.161.1-.015.594-.193h.015l.56-.176.145-.048.449-.129.256-.079.337-.1.592-.176.481-.127.111-.032.594-.161.015-.016.577-.144.128-.048.465-.112.256-.08.337-.08.386-.1.224-.049.5-.127.1-.032.609-.145h.015l.577-.127.145-.032.465-.113.256-.064.352-.08.61-.128.5-.1.1-.033.61-.127h.015l.61-.112.128-.033.48-.1,1.716-.3.128-.016.608-.112h.017l.608-.1c.818-.129,1.651-.256,2.47-.369V86.22H66.768v9.711A1.966,1.966,0,0,1,64.813,97.9H55.1V220.427h9.711a1.966,1.966,0,0,1,1.955,1.971v11.266h60.927V199.188Zm40.877-65.044a36.327,36.327,0,0,0-22.177-10.5h-.225v-.016h-.56l-.048-.016h-.578l-.033-.016h-.914l-.176-.015h-2.115l-.161.015h-.674c-.577.016-1.169.016-1.762.049a36.468,36.468,0,0,0,.015,72.575h.113l.176.016h.384l.113.015h.624l.033.016h.928l.176.016h2.15l.113-.016h.977l.033-.016h.609l.447-.015h.065l.224-.016h.047a36.316,36.316,0,0,0,22.1-10.4l.1-.1a36.5,36.5,0,0,0,0-51.584Zm-47.4,59.933a40.39,40.39,0,0,1-6.955-62.7,40.948,40.948,0,0,1,6.955-5.577l-.176.032-.465.1-.241.048-.384.1-.306.064-.289.064-.417.1-.191.047-.5.112-.113.032-.592.128-.017.016-.592.144-.08.016-.527.144-.161.032-.434.113-.256.08-.337.08-.352.1-.256.064-.433.128-.161.048-.528.144-.065.016-.592.176-.017.016-.575.161-.113.032-.465.145-.5.16-.1.033-.286.1-.306.1-.369.112-.209.064-.465.16-.111.033-1.154.4h-.017l-.063.016-.512.192-.577.208-.241.081-.337.127-.577.209-.4.144-.176.064-.48.192-.08.033-1.139.448-.1.033-.48.192-.178.08-.384.16-.56.224-.353.144-.208.1-.432.192-.128.048-.514.224-.047.033-.545.239-.047.016-.512.241-1.107.5-.289.144-.256.129-1.009.481-.1.048-1.072.529-.08.048-1.011.512-.239.113-.289.161-.321.176-.223.112-.529.289-.482.256-.047.032-.512.289-.047.015-.481.273-.128.064-.384.224-.224.128-.306.176-.3.176-.209.128-.384.224-.128.08-.466.273-.048.032-.512.3-.048.032-.449.272-.143.08-.369.241-.225.127-.272.193-.306.176-.208.144-.384.24-.111.081-.466.3-.03.016-.5.321-.048.032-.449.305-.128.1-.369.24-.209.145-.289.192-.289.209-.193.128-.384.257-.1.079-.465.337-.033.016-.481.336-.048.048-.432.3-.128.1-.353.256-.208.16-.272.192-.289.224-.176.145-.369.272-.113.08L78,145.7l-.015.016-.465.353-.065.048-.4.32-.145.113-.321.256-.224.176-.241.209-.465.369-.369.3-.1.08-.433.369h-.015l-.449.384-.063.048-.4.337-.128.128-.321.272-.209.176-.239.209-.273.24-.161.145-.369.32-.08.081-.432.384v.016l-.449.4-.063.048-.369.352-.128.128-.306.272-.209.193-.224.209-.271.272-.161.144-.337.337-.08.079-.417.4-.017.016-.417.417-.063.047-.353.369-.143.128-.289.288-.193.209-.224.224-.256.272L66.51,156l-.337.352-.08.081-.4.417v.015l-.417.433-.065.064-.337.369-.128.144-.273.289-.191.224-.208.209-.256.3-.128.144-.338.369-.063.08-.384.432.384.449.063.079.338.369.128.144.256.3.208.208.191.225.273.289.128.144.337.368.065.065.417.432v.016l.4.417.08.08.337.352.145.144.271.288.209.209.193.209.289.288.143.128.353.369.063.048.417.417.017.016.417.4.08.08.337.337.161.144.271.257.224.224.209.193.306.272.128.128.369.352.063.048.449.4v.016l.432.384.08.08.369.32.161.145.273.24.239.208.225.193.3.256.145.129.384.337.063.048.449.384h.015l.433.369.1.08.369.3.176.144.289.225.241.208.224.176.321.257.145.112.4.321.065.048.465.352.015.016.449.353.113.08.369.272.176.144.3.224.256.193.208.161.353.257.128.1.432.305.048.048.481.336.033.016.465.337.1.08.384.256.193.129.289.208.5.337.369.24.128.1.449.289.048.048.5.32.03.016.466.3.111.079.384.257.514.3.272.193.225.128.369.24.143.08.449.289.048.016,1.026.625.128.064.384.224.209.127.3.176.306.176.224.127.384.224.128.064.481.272L91.4,183l.512.288.047.032.482.256.529.288.223.113.321.175.289.161.239.112.386.209.16.08.545.272.545.273h0l.545.272.08.032.465.24.56.257.241.112.3.144.339.161.208.1,1.12.512.546.241.03.016.529.224.113.048.447.208.193.08.369.144.289.129.289.113.352.144.208.1.449.177.128.048.529.208.033.016.575.224.05.016.512.208.143.049.434.16.577.209.3.112.272.1.4.144.176.064.482.176.1.032.577.193h.015l.577.209.08.015.514.176.159.048.417.145.258.064.337.113.337.112.256.08.417.128.176.048.512.161.08.016.594.175h0l.592.161.1.032.5.145.193.048.4.112.289.08.321.08.369.1.224.064.465.112.145.032.545.144h.063l.594.161h.048l.56.127.128.033.481.112.224.048.386.079.3.08.3.064.4.079Zm43.2-68.282a39,39,0,0,1,6.97,5.577,40.39,40.39,0,0,1,.015,57.128l-.128.112a39.7,39.7,0,0,1-6.857,5.465l.191-.033.482-.1.223-.048.384-.1.321-.064.289-.064.4-.1.209-.049.5-.112.1-.016.592-.144.015-.015.609-.144.065-.016.527-.128.178-.048.417-.113.271-.064.337-.1.336-.1.256-.064.434-.129.161-.048.527-.145.065-.015.592-.176h.033l.56-.176.113-.032.481-.145.192-.064.4-.128.272-.1.306-.079.384-.129.193-.064.465-.161.128-.032.545-.192.033-.016.578-.192.063-.016.53-.192.143-.048.434-.144.224-.1.352-.128h0l.561-.209.417-.144.161-.064.5-.193.08-.033.56-.224h.017l.56-.224.08-.032.48-.193.178-.079.384-.161.272-.1.305-.129.337-.144.208-.1.432-.193.129-.048.514-.224.048-.016.56-.258.033-.015.512-.224.562-.257.209-.1.336-.161.288-.144.272-.128.545-.256.449-.225.1-.032,1.09-.545.063-.032,1.01-.53.24-.112.306-.161.32-.175.208-.113.529-.288.482-.256.048-.032.528-.288.05-.016.464-.272.144-.064.384-.224.209-.127.306-.176.512-.3.384-.224.129-.064,1.027-.625.047-.016.465-.289.128-.079.369-.24,1.009-.625.386-.257.111-.079,1.011-.641.048-.048.449-.289.128-.1.352-.24.225-.144.271-.193.289-.208.193-.129.384-.257.113-.08.448-.32.032-.033.482-.336.063-.048.417-.305.146-.1.336-.257.223-.161.256-.193.288-.224.193-.144.369-.272.1-.079.449-.353.015-.016.482-.352.048-.048.417-.321.128-.112.336-.257.209-.176.257-.208.288-.225.161-.144.369-.3.1-.079.432-.353.017-.016.465-.384.048-.048.4-.337.127-.112.321-.272.209-.193.239-.208.289-.24.161-.145.353-.32.081-.08.432-.384.015-.016.434-.4.063-.048.369-.352.146-.128.286-.272.209-.193.225-.224.289-.256.143-.144.353-.337.08-.08.417-.4v-.016l.432-.417.065-.048.352-.369.128-.128.288-.288.209-.209.209-.209.273-.288.144-.144.336-.352.065-.08.4-.417.017-.016.4-.432.065-.065.337-.368.127-.144.482-.514.191-.208.273-.3.128-.144.319-.369.08-.079.386-.449-.386-.432-.08-.08-.319-.369-.128-.144-.273-.3-.191-.209-.209-.224-.258-.289-.143-.144-.337-.369-.065-.079-.4-.432h-.017l-.4-.417-.065-.081-.336-.352-.144-.145-.273-.288-.209-.209-.209-.209-.288-.288-.128-.128-.352-.369-.065-.047-.432-.417v-.016l-.417-.4-.08-.079-.353-.337-.143-.144-.289-.272-.225-.209-.209-.193-.286-.272-.146-.128-.369-.352-.063-.048-.434-.4-.015-.016-.432-.384-.081-.081-.353-.32-.161-.145-.289-.24-.239-.209-.209-.192-.321-.257-.127-.128-.4-.337-.048-.048-.465-.384H210.8l-.432-.369-.1-.08-.369-.3-.161-.144-.288-.224-.257-.209-.209-.176-.336-.256-.128-.113-.417-.32-.048-.048-.482-.353-.015-.016-.449-.352-.1-.08-.369-.272-.193-.145-.288-.224-.257-.192-.223-.16-.336-.257-.146-.1-.417-.3-.063-.048-.482-.336-.032-.016-.448-.337-.113-.08-.384-.257-.193-.128-.289-.209-.271-.192-.225-.145-.352-.24-.128-.1-.5-.337-.5-.321-.033-.016-.482-.3-.111-.081-.386-.256-.191-.128-.3-.176-.289-.193-.225-.127-.369-.241-.128-.08-.465-.272-.047-.032-.512-.3-.033-.032-.481-.288-.129-.065-.384-.24-.209-.112-.3-.176-.306-.176-.209-.128-.384-.224-.144-.064-.464-.273-.05-.015-.528-.289-.048-.032-.482-.256-.127-.08-.4-.209-.208-.112-.337-.176-.289-.161-.24-.129-.384-.193-.161-.08-.465-.224-.08-.048-.545-.272-.545-.272-.079-.032-.465-.224-.161-.08-.384-.192-.257-.113-.288-.144-.336-.16-.225-.1-.417-.192-.144-.064-.5-.224-.048-.033-.561-.24-.031-.016-.529-.224-.113-.048-.449-.192-.191-.1-.369-.144-.273-.128-.287-.112-.369-.144-.208-.08-.449-.192-.113-.048-.528-.209-.05-.015-.56-.224-.048-.016-.529-.192-.128-.064-.449-.16-.224-.081-.353-.127-.3-.112-.273-.1-.384-.145-.191-.064-.482-.175-.1-.033-.578-.192h0l-.592-.209-.08-.016-.5-.176-.161-.048-.432-.128-.258-.08-.337-.112-.336-.112-.241-.079-.432-.129-.161-.048-.512-.145-.08-.032-.592-.176h-.017l-.575-.16-.113-.033-.5-.144-.193-.048-.4-.112-.273-.064-.321-.1-.367-.1-.241-.064-.465-.112-.146-.033-.545-.144h-.048l-.609-.144-.031-.016-.577-.129-.128-.031-.481-.113-.209-.048-.4-.081-.3-.08-.3-.064-.4-.08Zm-10.93,23.476a15.106,15.106,0,1,0,4.407,10.656A15.016,15.016,0,0,0,153.446,149.272Zm-10.657-8.349a19.039,19.039,0,1,1-13.445,5.576A18.935,18.935,0,0,1,142.789,140.923Zm11.139-20.72V93.185H131.636V120.2l.273-.016.063-.016h.017l.271-.016.048-.016h.017l.208-.016h.063l.178-.016.03-.016.193-.016h.015c1.955-.176,3.927-.289,5.913-.352.625-.064,1.25-.112,1.892-.145V105.589a1.971,1.971,0,0,1,3.943,0v13.989q.937.05,1.875.145c1.985.064,3.958.193,5.913.352h.03l.178.016.048.016.161.016h.063l.208.016h.015l.065.016.273.016h0l.063.016Zm0-36.007V82.336H131.636v6.907h22.292V84.2Zm0-5.8V58.54a2.785,2.785,0,0,0-.8-1.971,2.852,2.852,0,0,0-1.97-.817H132.742a1.121,1.121,0,0,0-1.107,1.106V78.395Zm-9.166,143.068h9.166V199.669l-.273.016-.063.016h0l-.273.016-.065.016h-.015l-.208.016h-.063l-.161.016-.048.016q-3.03.264-6.106.384c-.625.048-1.265.1-1.89.128v21.17Zm-13.126,0h9.183V200.294c-.642-.032-1.267-.079-1.892-.128-2.051-.08-4.1-.208-6.121-.384l-.031-.016-.178-.016h-.063l-.208-.016h-.017l-.048-.016-.271-.016h-.017l-.063-.016-.273-.016v21.792Zm22.292,3.927H131.636v12.643l11.153,23.476,11.139-23.476V225.39ZM242.142,74.549H222.736V93.955h19.406Zm-179.3,0H43.422V93.955H62.843V74.549ZM53.084,224.363H43.422v19.406H62.842V224.363H53.084Zm187.552,0H221.231v19.406h19.406ZM26,83.763a1.972,1.972,0,0,1,3.943,0v23.557h10.4a1.969,1.969,0,0,1,1.97,1.971v45.846a1.971,1.971,0,0,1-3.943,0V111.261h-10.4A1.971,1.971,0,0,1,26,109.29Zm9.841,190.085a1.971,1.971,0,1,1,0-3.942H202.176a1.971,1.971,0,1,1,0,3.942ZM156.874,263.72a1.971,1.971,0,0,1,0-3.942h91.487a1.971,1.971,0,0,1,0,3.942Zm103.263,0a1.971,1.971,0,0,1,0-3.942h14.391a1.971,1.971,0,0,1,0,3.942Zm-230.851.3a1.963,1.963,0,1,1,0-3.926h74.227a1.963,1.963,0,1,1,0,3.926ZM157.868,91.311v29.373c.833.113,1.651.24,2.485.369l.609.1h0l.625.112.111.016c1.6.272,3.189.592,4.776.929l.352.08.258.064.465.113.128.032.592.127h.015l.594.145.111.032.5.127.225.049.369.1.352.08.241.08.465.112.144.048.577.144.017.016.592.161.1.032.5.127.209.065.384.112.321.1.257.08.449.129.144.048.561.176h.033l.578.193.1.015.5.161.209.079.369.113.319.112.258.081.447.144.128.065.562.175.033.016.576.193.079.033.482.176.578.208.319.128.258.1.432.16.128.048.545.209.033.016.56.208.1.032.48.193.193.08.369.161.3.113.256.112.417.176.146.064.528.209.032.016.562.24.08.032.48.209.193.08.352.176.306.129.256.112.4.193.145.064.528.24.033.016.545.256.1.048.447.209.241.113.3.145.369.175.178.1.5.239.047.016.545.273.08.048.447.24.226.112.321.16.352.176.175.1.482.256.048.033.53.289.1.048.48.256.178.1.384.224.271.145.288.16.369.208.193.113.449.256.111.064.545.321.017.015.56.321.065.048.48.288.161.1.4.24.241.144.3.193.337.208.209.129.417.272.128.08.512.32.033.016.545.353.047.032.482.32.143.1.4.257.224.16.306.209.3.209.223.161.4.272.128.08.482.337.048.032.529.384.03.017.5.352.113.08.4.3.208.145.3.224.289.224.241.16.367.289.145.1.449.353.063.048.5.384.033.015.48.385.113.079.384.321.193.144.321.256.256.209.241.193.337.288.161.113.417.352.08.065.48.417h.015l.482.4.08.079.4.353.175.144.319.272.241.209.24.208.482.433.384.352.08.079.48.417v.016l.482.433.063.064.4.369.144.144.321.289.225.224.239.225.289.288.175.16.369.352.079.1.449.433.015.016.449.448.065.064.384.4.143.129.307.32.208.209.239.256.273.288.176.176.336.368.1.1.417.448.031.015c.433.466.866.946,1.3,1.427l.176.208.24.272.256.289.176.192.417.481.384.449.033.031.417.5.033.033h0l.033.032h0l.015.032.015.016.017.016.015.016.015.032h0l.017.032.015.016.017.016v.016l.015.032h.015l.017.032v.016l.015.016L227,159v.032l.015.016.015.016v.016l.017.032v.016l.015.016v.016l.015.032v.016l.017.016v.032l.015.016v.016l.017.016v.032l.015.016v.031l.016.033v.016l.017.016v.064l.015.033v.064l.017.016v.1l.015.016v.4l-.015.016v.1l-.017.015v.065l-.015.032v.064l-.017.016v.016l-.016.032v.032l-.015.016v.032l-.017.016v.016l-.015.016v.032l-.017.016v.016l-.015.032v.016l-.015.016v.016l-.017.032v.016l-.015.016-.015.015v.033l-.017.016-.015.016v.016l-.017.016-.015.016-.015.032V161l-.017.016-.015.015-.017.032h0l-.015.033h-.015l-.017.032-.015.016-.015.032h0l-.033.032h0l-.033.032-.384.449-.1.128-.319.369-.161.193-.5.56-.193.209-.3.353-.113.127-.384.417-.048.064-.432.465-.017.015-.417.465-.1.1-.785.834-.241.24-.208.224-.3.32-.145.145-.367.384-.08.08-.449.449h0l-.449.448-.08.08-.384.369-.144.144-1.074,1.042-.161.16-.384.352-.1.1-.447.417-.017.016-.465.433-.065.047-.417.384-.127.113-.352.32-.208.176-.273.24-.289.257-.191.176-.369.321-.113.1-.448.385-.05.032-.48.417-.048.033-.449.384-.113.1-.384.32-.193.161-1.17.93-.128.112-.449.353-.063.048-.512.4-.017.016-.48.369-.113.081-.4.32-.192.127-.321.257-.273.193-.257.193-.336.256-.176.128-.432.3-.08.064-.529.385h0l-.53.368-.08.064-.447.3-.161.112-.369.257-.257.176-.273.193-.337.224-.209.128-.417.288-.113.065-.512.336-.032.016-.528.352-.065.048-.482.3-.158.1-.386.239-.239.161-.321.193-.321.193-.224.144-.417.257-.128.079-.514.3-.048.032-.56.32-.032.033-.512.288-.145.079-.417.257-.223.112-.337.192-.577.321-.4.224-.161.1-.5.272-.079.033-.53.289-.048.032-.482.257-.191.1-.337.176-.321.16-.226.113-.447.24-.08.048-.545.272-.047.016-.5.241-.178.1-.369.176-.3.144-.241.112-.447.209-.1.048-.545.257-.033.032-.528.224-.145.08-.4.176-.257.112-.306.145-1.1.481-.562.24-.032.016-.528.224-.146.048-.417.176-.256.112-.3.113-.369.16-.193.08-.48.193-.1.032-.56.208-.033.016-.545.209-.128.048-.432.16-.258.1-.319.128-.578.209-.482.176-.08.016-.576.209-.033.016-.562.193-.128.048-.447.144-.258.08-.319.112-.369.112-.209.08-.5.16-.1.016-.578.192h-.033l-.561.177-.144.047-.449.128-.256.08-.914.272-.5.128-.1.033-.592.176h-.017l-.577.161-.144.032-.465.112-.241.081-.352.08-.369.1-.225.064-.5.113-.111.032-.594.144h-.015l-.592.144-.128.033-.465.1-.258.064-.352.079c-1.586.337-3.172.658-4.776.93l-.111.032-.625.1h0l-.609.1c-.833.145-1.651.257-2.485.369v34.47h59.419v-11.26a1.97,1.97,0,0,1,1.972-1.971h11.217V97.9h-9.711a1.97,1.97,0,0,1-1.97-1.971V86.215H157.868v5.1Z" transform="translate(-26.001 -55.752)" fill-rule="evenodd"/>
    </g>
  </g>
</svg>
