<svg xmlns="http://www.w3.org/2000/svg" width="799.827" height="184.532" viewBox="0 0 799.827 184.532">
  <g id="BrainerHub_Logo" data-name="BrainerHub Logo" transform="translate(-205.925 -503.084)">
    <g id="Group_6" data-name="Group 6" transform="translate(-202.636 155.579)">
      <path id="Path_24" data-name="Path 24" d="M444.193,379.432c-28.98-1-46.629,35.505-27.911,60.344-18.578,24.659-1.293,61.348,27.911,60.343,2.488,17.882,15.308,31.919,30.839,31.919,17.269,0,31.317-17.2,31.317-38.347V385.86c0-16.34-8.4-30.288-20.186-35.8C467.291,341.265,447.42,356.181,444.193,379.432Zm52.943,6.428V436.9h-37.3c-3.191-8.235-15.442-5.933-15.442,2.88s12.258,11.1,15.442,2.879h37.3v42.64H483.554a7.987,7.987,0,0,0-15.441,2.88c0,8.826,12.263,11.1,15.441,2.879h13.582v2.637c0,16.065-9.916,29.133-22.1,29.133-10,0-18.424-8.813-21.143-20.838v-36.6h16.433a8,8,0,1,0,0-5.758H448.129v30.807c-16.226,3.284-30.322-10.412-30.322-27.429a28.879,28.879,0,0,1,11.4-23.232A28.379,28.379,0,0,1,418.5,422.922h11.684v40.142c-8.238,3.189-5.933,15.442,2.879,15.442s11.1-12.26,2.88-15.442V422.922h39.894c3.2,8.236,15.446,5.934,15.446-2.878a7.987,7.987,0,0,0-5.12-7.444V360.731C492.714,365.791,497.136,375.149,497.136,385.86ZM480.4,388.443V412.6a8,8,0,0,0-4.567,4.564h-13.38V409.9c8.253-3.2,5.918-15.442-2.88-15.442S448.464,406.7,456.7,409.9v7.268H417.832c-.441-20.481,18.7-34.062,35.434-26.4-2.618-20.42,11.429-38.316,27.138-33.128Z" transform="translate(0)"/>
      <path id="Path_25" data-name="Path 25" d="M670.973,500.159c30.233.688,45.987-36.358,27.91-60.345a38.532,38.532,0,0,0,7.687-23.231c0-20.573-15.853-37.618-35.6-37.112a43.887,43.887,0,0,0-3.937-13.073c-16.285-33.644-58.22-19.1-58.22,19.5V493.729c0,22.219,15.039,38.347,31.316,38.347C655.606,532.076,668.462,518.245,670.973,500.159Zm-52.944-6.43V442.693h37.3c3.2,8.233,15.445,5.935,15.445-2.88s-12.242-11.127-15.445-2.879h-37.3V394.294h13.583c3.19,8.236,15.442,5.933,15.442-2.879s-12.259-11.1-15.442-2.879H618.029V385.9c0-16.066,9.916-29.134,22.1-29.134,10,0,18.425,8.811,21.144,20.838v36.6H644.845c-3.2-8.237-15.443-5.93-15.443,2.879s12.242,11.131,15.443,2.88h22.191V389.152c16.287-3.3,30.323,10.479,30.323,27.43a28.866,28.866,0,0,1-11.4,23.231,28.361,28.361,0,0,1,10.71,16.853h-11.68V416.526a8,8,0,1,0-5.76,0v40.141h-39.9c-3.192-8.24-15.443-5.929-15.443,2.879A7.985,7.985,0,0,0,629,466.989v51.868C622.452,513.8,618.029,504.442,618.029,493.729Zm16.736-26.739a7.99,7.99,0,0,0,4.563-4.564h13.381v7.269c-8.254,3.2-5.917,15.441,2.879,15.441,8.813,0,11.113-12.252,2.878-15.441v-7.269h38.866c.442,20.493-18.691,34.049-35.434,26.4,2.651,20.65-11.619,38.273-27.134,33.125Z" transform="translate(-95.176 -0.04)" fill="#bf4252"/>
    </g>
    <g id="Group_7" data-name="Group 7" transform="translate(-110)">
      <path id="Path_27" data-name="Path 27" d="M50.3-34.848a16.2,16.2,0,0,1,9.552,5.9,16.538,16.538,0,0,1,3.408,10.32q0,8.928-5.9,13.776T40.416,0H4.8V-67.968H39.456q10.368,0,16.32,4.512T61.728-50.3a16.028,16.028,0,0,1-3.12,10.032A14.811,14.811,0,0,1,50.3-34.848ZM26.112-41.472h8.256a6.613,6.613,0,0,0,4.272-1.152,4.347,4.347,0,0,0,1.392-3.552,4.619,4.619,0,0,0-1.392-3.7,6.422,6.422,0,0,0-4.272-1.2H26.112Zm9.7,24.384a6.823,6.823,0,0,0,4.272-1.1,4.323,4.323,0,0,0,1.392-3.6q0-4.9-5.664-4.9h-9.7v9.6ZM91.776-44.16A25.887,25.887,0,0,1,99.744-51.7a18.722,18.722,0,0,1,9.792-2.832v22.752h-6.048q-6.048,0-8.88,2.112t-2.832,7.488V0H70.464V-54.144H91.776Zm20.64,17.088A34.845,34.845,0,0,1,115.344-41.9a22.354,22.354,0,0,1,8.016-9.6,20.486,20.486,0,0,1,11.424-3.312,18.31,18.31,0,0,1,9.12,2.16,14.644,14.644,0,0,1,5.856,5.9v-7.392h21.216V0H149.76V-7.392a14.644,14.644,0,0,1-5.856,5.9,18.31,18.31,0,0,1-9.12,2.16A20.486,20.486,0,0,1,123.36-2.64a22.354,22.354,0,0,1-8.016-9.6A34.845,34.845,0,0,1,112.416-27.072Zm37.344,0a9.557,9.557,0,0,0-2.208-6.72,7.351,7.351,0,0,0-5.664-2.4,7.351,7.351,0,0,0-5.664,2.4,9.557,9.557,0,0,0-2.208,6.72,9.557,9.557,0,0,0,2.208,6.72,7.351,7.351,0,0,0,5.664,2.4,7.351,7.351,0,0,0,5.664-2.4A9.557,9.557,0,0,0,149.76-27.072Zm41.568-31.392A12.971,12.971,0,0,1,182.4-61.44a9.578,9.578,0,0,1-3.36-7.488,9.827,9.827,0,0,1,3.36-7.632,12.841,12.841,0,0,1,8.928-3.024,12.7,12.7,0,0,1,8.832,3.024,9.827,9.827,0,0,1,3.36,7.632,9.578,9.578,0,0,1-3.36,7.488A12.828,12.828,0,0,1,191.328-58.464Zm10.56,4.32V0H180.576V-54.144Zm47.52-.384q9.312,0,14.544,6.24t5.232,16.9V0H247.968V-28.7a8.684,8.684,0,0,0-2.064-6.1,7.118,7.118,0,0,0-5.52-2.256,7.084,7.084,0,0,0-5.568,2.256,8.813,8.813,0,0,0-2.016,6.1V0H211.488V-54.144H232.8v8.256a19.245,19.245,0,0,1,6.672-6.24A19.61,19.61,0,0,1,249.408-54.528Zm81.408,26.976a29.863,29.863,0,0,1-.288,4.224H296.256q.48,7.008,5.856,7.008a5.182,5.182,0,0,0,4.992-3.168h22.56a23.461,23.461,0,0,1-4.848,10.32,26.053,26.053,0,0,1-9.312,7.2A28.631,28.631,0,0,1,303.168.672a29.978,29.978,0,0,1-14.352-3.36,23.894,23.894,0,0,1-9.792-9.648,29.786,29.786,0,0,1-3.5-14.736,29.786,29.786,0,0,1,3.5-14.736,23.894,23.894,0,0,1,9.792-9.648,29.978,29.978,0,0,1,14.352-3.36A30.332,30.332,0,0,1,317.52-51.5a23.828,23.828,0,0,1,9.792,9.456A28.772,28.772,0,0,1,330.816-27.552Zm-21.6-5.088a4.93,4.93,0,0,0-1.728-4.08,6.666,6.666,0,0,0-4.32-1.392q-5.664,0-6.624,5.472Zm49.632-11.52a25.887,25.887,0,0,1,7.968-7.536,18.722,18.722,0,0,1,9.792-2.832v22.752H370.56q-6.048,0-8.88,2.112t-2.832,7.488V0H337.536V-54.144h21.312Z" transform="translate(536 608)"/>
      <path id="Path_28" data-name="Path 28" d="M1.591-11.868A13.425,13.425,0,0,1,3.075-18.3a10.552,10.552,0,0,1,4.107-4.278,11.879,11.879,0,0,1,6.02-1.5,11.812,11.812,0,0,1,7.117,2.042,10.055,10.055,0,0,1,3.806,5.827H18.834a5.593,5.593,0,0,0-2.064-2.752,6.1,6.1,0,0,0-3.569-.989,5.935,5.935,0,0,0-4.794,2.128,9.005,9.005,0,0,0-1.785,5.956A9.094,9.094,0,0,0,8.407-5.891,5.91,5.91,0,0,0,13.2-3.741a5.44,5.44,0,0,0,5.633-3.741h5.289a10.588,10.588,0,0,1-3.87,5.741A11.421,11.421,0,0,1,13.2.387,11.747,11.747,0,0,1,7.181-1.14a10.7,10.7,0,0,1-4.107-4.3A13.425,13.425,0,0,1,1.591-11.868ZM39.3.387A12.134,12.134,0,0,1,33.239-1.14a10.966,10.966,0,0,1-4.257-4.3,12.971,12.971,0,0,1-1.548-6.429,12.722,12.722,0,0,1,1.591-6.407,10.989,10.989,0,0,1,4.343-4.3,12.6,12.6,0,0,1,6.149-1.5,12.6,12.6,0,0,1,6.149,1.5,10.989,10.989,0,0,1,4.343,4.3A12.722,12.722,0,0,1,51.6-11.868a12.458,12.458,0,0,1-1.634,6.407A11.314,11.314,0,0,1,45.516-1.14,12.828,12.828,0,0,1,39.3.387Zm0-4.257a7.3,7.3,0,0,0,3.548-.9,6.88,6.88,0,0,0,2.688-2.709,8.71,8.71,0,0,0,1.032-4.386,8.891,8.891,0,0,0-.989-4.365,6.677,6.677,0,0,0-2.623-2.687,7.173,7.173,0,0,0-3.526-.9,7.053,7.053,0,0,0-3.5.9,6.446,6.446,0,0,0-2.558,2.688,9.223,9.223,0,0,0-.946,4.365,8.314,8.314,0,0,0,1.957,5.913A6.465,6.465,0,0,0,39.3-3.87ZM68.413-24.08a10.625,10.625,0,0,1,5.009,1.161,8.257,8.257,0,0,1,3.462,3.44,11.316,11.316,0,0,1,1.247,5.5V0H73.272V-13.244a6.877,6.877,0,0,0-1.591-4.88,5.662,5.662,0,0,0-4.343-1.7,5.732,5.732,0,0,0-4.364,1.7,6.819,6.819,0,0,0-1.613,4.88V0h-4.9V-23.693h4.9v2.709a8.114,8.114,0,0,1,3.075-2.279A9.829,9.829,0,0,1,68.413-24.08ZM93.525-4.386l6.708-19.307h5.2L96.406,0H90.558L81.571-23.693h5.246Zm37.324-8.041a15.325,15.325,0,0,1-.172,2.408h-18.1a6.574,6.574,0,0,0,2.107,4.558,6.651,6.651,0,0,0,4.644,1.72,5.736,5.736,0,0,0,5.59-3.311H130.2A10.673,10.673,0,0,1,126.313-1.7,11.418,11.418,0,0,1,119.325.387a12.1,12.1,0,0,1-6.085-1.527,10.861,10.861,0,0,1-4.214-4.3,13.118,13.118,0,0,1-1.526-6.429,13.425,13.425,0,0,1,1.483-6.429,10.433,10.433,0,0,1,4.171-4.278,12.413,12.413,0,0,1,6.171-1.5,12.067,12.067,0,0,1,5.977,1.462,10.331,10.331,0,0,1,4.085,4.106A12.368,12.368,0,0,1,130.849-12.427Zm-5.117-1.548a5.578,5.578,0,0,0-1.935-4.343,6.918,6.918,0,0,0-4.687-1.634,6.3,6.3,0,0,0-4.343,1.613,6.739,6.739,0,0,0-2.15,4.365Zm14.835-6.278a7.7,7.7,0,0,1,2.859-2.817,8.458,8.458,0,0,1,4.236-1.01v5.074h-1.247a5.97,5.97,0,0,0-4.365,1.462q-1.483,1.462-1.484,5.074V0h-4.9V-23.693h4.9Zm17.329.559V-6.579a2.517,2.517,0,0,0,.624,1.914,3.1,3.1,0,0,0,2.128.581h3.01V0h-3.87a7.459,7.459,0,0,1-5.074-1.548q-1.763-1.548-1.763-5.031V-19.694h-2.795v-4h2.795v-5.891H157.9v5.891h5.762v4Zm23.951-7.138a3.037,3.037,0,0,1-2.236-.9,3.037,3.037,0,0,1-.9-2.236,3.037,3.037,0,0,1,.9-2.236,3.037,3.037,0,0,1,2.236-.9,2.986,2.986,0,0,1,2.193.9,3.037,3.037,0,0,1,.9,2.236,3.037,3.037,0,0,1-.9,2.236A2.986,2.986,0,0,1,181.847-26.832Zm2.408,3.139V0h-4.9V-23.693Zm4.816,11.739a13.112,13.112,0,0,1,1.483-6.321,10.874,10.874,0,0,1,4.042-4.279,10.908,10.908,0,0,1,5.7-1.526,11.111,11.111,0,0,1,4.58,1.01,9.37,9.37,0,0,1,3.59,2.688V-31.82h4.945V0h-4.945V-3.569a9.178,9.178,0,0,1-3.332,2.838A10.34,10.34,0,0,1,200.251.387a10.6,10.6,0,0,1-5.654-1.57,11.077,11.077,0,0,1-4.042-4.386A13.493,13.493,0,0,1,189.071-11.954Zm19.393.086a8.579,8.579,0,0,0-1.01-4.257,7.093,7.093,0,0,0-2.645-2.752,6.919,6.919,0,0,0-3.526-.946,7.043,7.043,0,0,0-3.526.924,6.972,6.972,0,0,0-2.644,2.709,8.458,8.458,0,0,0-1.011,4.235,8.826,8.826,0,0,0,1.011,4.3,7.129,7.129,0,0,0,2.666,2.817,6.838,6.838,0,0,0,3.5.967,6.919,6.919,0,0,0,3.526-.946,7.058,7.058,0,0,0,2.645-2.774A8.7,8.7,0,0,0,208.464-11.868Zm33.11-.559a15.325,15.325,0,0,1-.172,2.408H223.3a6.574,6.574,0,0,0,2.107,4.558,6.651,6.651,0,0,0,4.644,1.72,5.736,5.736,0,0,0,5.59-3.311h5.289A10.673,10.673,0,0,1,237.038-1.7,11.418,11.418,0,0,1,230.05.387a12.1,12.1,0,0,1-6.085-1.527,10.861,10.861,0,0,1-4.214-4.3,13.118,13.118,0,0,1-1.526-6.429,13.425,13.425,0,0,1,1.483-6.429,10.433,10.433,0,0,1,4.171-4.278,12.413,12.413,0,0,1,6.171-1.5,12.067,12.067,0,0,1,5.977,1.462,10.331,10.331,0,0,1,4.085,4.106A12.368,12.368,0,0,1,241.574-12.427Zm-5.117-1.548a5.578,5.578,0,0,0-1.935-4.343,6.918,6.918,0,0,0-4.687-1.634,6.3,6.3,0,0,0-4.343,1.613,6.739,6.739,0,0,0-2.15,4.365Zm8.3,2.021a13.112,13.112,0,0,1,1.483-6.321,10.874,10.874,0,0,1,4.042-4.279,10.829,10.829,0,0,1,5.654-1.526,10.343,10.343,0,0,1,4.88,1.1,9.9,9.9,0,0,1,3.333,2.73v-3.44h4.945V0h-4.945V-3.526a9.735,9.735,0,0,1-3.4,2.795,10.469,10.469,0,0,1-4.9,1.118,10.418,10.418,0,0,1-5.59-1.57,11.131,11.131,0,0,1-4.021-4.386A13.493,13.493,0,0,1,244.756-11.954Zm19.393.086a8.579,8.579,0,0,0-1.01-4.257,7.094,7.094,0,0,0-2.645-2.752,6.919,6.919,0,0,0-3.526-.946,7.043,7.043,0,0,0-3.526.924A6.972,6.972,0,0,0,250.8-16.19a8.458,8.458,0,0,0-1.011,4.235,8.826,8.826,0,0,0,1.011,4.3,7.129,7.129,0,0,0,2.666,2.817,6.838,6.838,0,0,0,3.5.967,6.919,6.919,0,0,0,3.526-.946,7.058,7.058,0,0,0,2.645-2.774A8.7,8.7,0,0,0,264.149-11.868Zm25.069-14.964a3.037,3.037,0,0,1-2.236-.9,3.037,3.037,0,0,1-.9-2.236,3.037,3.037,0,0,1,.9-2.236,3.037,3.037,0,0,1,2.236-.9,2.986,2.986,0,0,1,2.193.9,3.037,3.037,0,0,1,.9,2.236,3.037,3.037,0,0,1-.9,2.236A2.986,2.986,0,0,1,289.218-26.832Zm2.408,3.139V0h-4.9V-23.693Zm18.4-.387a10.625,10.625,0,0,1,5.009,1.161,8.256,8.256,0,0,1,3.461,3.44,11.316,11.316,0,0,1,1.247,5.5V0h-4.859V-13.244a6.877,6.877,0,0,0-1.591-4.88,5.662,5.662,0,0,0-4.343-1.7,5.732,5.732,0,0,0-4.365,1.7,6.819,6.819,0,0,0-1.612,4.88V0h-4.9V-23.693h4.9v2.709a8.114,8.114,0,0,1,3.074-2.279A9.828,9.828,0,0,1,310.03-24.08ZM331.7-19.694V-6.579a2.517,2.517,0,0,0,.624,1.914,3.1,3.1,0,0,0,2.129.581h3.01V0h-3.87a7.459,7.459,0,0,1-5.074-1.548q-1.763-1.548-1.763-5.031V-19.694h-2.795v-4h2.795v-5.891H331.7v5.891h5.762v4ZM352.256.387a12.134,12.134,0,0,1-6.063-1.527,10.966,10.966,0,0,1-4.257-4.3,12.971,12.971,0,0,1-1.548-6.429,12.722,12.722,0,0,1,1.591-6.407,10.989,10.989,0,0,1,4.343-4.3,12.6,12.6,0,0,1,6.149-1.5,12.6,12.6,0,0,1,6.149,1.5,10.989,10.989,0,0,1,4.343,4.3,12.722,12.722,0,0,1,1.591,6.407,12.458,12.458,0,0,1-1.634,6.407A11.314,11.314,0,0,1,358.47-1.14,12.828,12.828,0,0,1,352.256.387Zm0-4.257a7.3,7.3,0,0,0,3.547-.9,6.88,6.88,0,0,0,2.688-2.709,8.709,8.709,0,0,0,1.032-4.386,8.891,8.891,0,0,0-.989-4.365,6.677,6.677,0,0,0-2.623-2.687,7.173,7.173,0,0,0-3.526-.9,7.054,7.054,0,0,0-3.5.9,6.446,6.446,0,0,0-2.559,2.688,9.223,9.223,0,0,0-.946,4.365,8.314,8.314,0,0,0,1.956,5.913A6.465,6.465,0,0,0,352.256-3.87Zm33.239-16.3a9.3,9.3,0,0,1,3.418-2.816,10.578,10.578,0,0,1,4.837-1.1,10.913,10.913,0,0,1,5.676,1.5,10.587,10.587,0,0,1,4,4.278,13.4,13.4,0,0,1,1.462,6.342,13.655,13.655,0,0,1-1.462,6.386,10.926,10.926,0,0,1-4.021,4.386,10.6,10.6,0,0,1-5.655,1.57,10.681,10.681,0,0,1-4.88-1.075A9.382,9.382,0,0,1,385.5-3.44V0h-4.9V-31.82h4.9Zm14.4,8.213a8.458,8.458,0,0,0-1.01-4.235,6.925,6.925,0,0,0-2.666-2.709,7.161,7.161,0,0,0-3.547-.924,6.956,6.956,0,0,0-3.5.946,7.044,7.044,0,0,0-2.666,2.752,8.579,8.579,0,0,0-1.01,4.257,8.7,8.7,0,0,0,1.01,4.279,7.009,7.009,0,0,0,2.666,2.774,6.956,6.956,0,0,0,3.5.946,6.914,6.914,0,0,0,3.547-.967,7.129,7.129,0,0,0,2.666-2.817A8.826,8.826,0,0,0,399.9-11.954Zm31.3-11.739V0h-4.9V-2.8a7.935,7.935,0,0,1-3.031,2.3,9.613,9.613,0,0,1-3.978.839,10.625,10.625,0,0,1-5.009-1.161,8.387,8.387,0,0,1-3.483-3.44,11.159,11.159,0,0,1-1.268-5.5V-23.693h4.859v13.2a6.877,6.877,0,0,0,1.591,4.881,5.662,5.662,0,0,0,4.343,1.7,5.732,5.732,0,0,0,4.365-1.7,6.819,6.819,0,0,0,1.612-4.881v-13.2ZM446.254.387a11.937,11.937,0,0,1-5.01-1.011,8.8,8.8,0,0,1-3.5-2.752,6.859,6.859,0,0,1-1.376-3.892h5.074a3.46,3.46,0,0,0,1.44,2.516,5.23,5.23,0,0,0,3.29,1.01,5.54,5.54,0,0,0,3.2-.8,2.4,2.4,0,0,0,1.139-2.043,2.1,2.1,0,0,0-1.268-1.978,23.777,23.777,0,0,0-4.021-1.419,38.806,38.806,0,0,1-4.343-1.419,7.614,7.614,0,0,1-2.9-2.107,5.522,5.522,0,0,1-1.225-3.741,5.834,5.834,0,0,1,1.118-3.462,7.445,7.445,0,0,1,3.2-2.472,11.969,11.969,0,0,1,4.794-.9,9.9,9.9,0,0,1,6.515,2.042,7.334,7.334,0,0,1,2.645,5.569h-4.9a3.491,3.491,0,0,0-1.29-2.537,4.824,4.824,0,0,0-3.139-.946,5.1,5.1,0,0,0-2.967.731,2.263,2.263,0,0,0-1.032,1.935,2.094,2.094,0,0,0,.688,1.591,4.9,4.9,0,0,0,1.677,1.01q.989.366,2.924.924a31.809,31.809,0,0,1,4.236,1.4,7.885,7.885,0,0,1,2.859,2.086,5.518,5.518,0,0,1,1.247,3.655,6.13,6.13,0,0,1-1.118,3.612,7.412,7.412,0,0,1-3.16,2.494A11.776,11.776,0,0,1,446.254.387ZM463.11-26.832a3.037,3.037,0,0,1-2.236-.9,3.037,3.037,0,0,1-.9-2.236,3.037,3.037,0,0,1,.9-2.236,3.037,3.037,0,0,1,2.236-.9,2.986,2.986,0,0,1,2.193.9,3.037,3.037,0,0,1,.9,2.236,3.037,3.037,0,0,1-.9,2.236A2.986,2.986,0,0,1,463.11-26.832Zm2.408,3.139V0h-4.9V-23.693Zm18.4-.387a10.625,10.625,0,0,1,5.01,1.161,8.256,8.256,0,0,1,3.461,3.44,11.316,11.316,0,0,1,1.247,5.5V0h-4.859V-13.244a6.877,6.877,0,0,0-1.591-4.88,5.662,5.662,0,0,0-4.343-1.7,5.732,5.732,0,0,0-4.365,1.7,6.819,6.819,0,0,0-1.612,4.88V0h-4.9V-23.693h4.9v2.709a8.114,8.114,0,0,1,3.074-2.279A9.828,9.828,0,0,1,483.922-24.08ZM521.59-12.427a15.324,15.324,0,0,1-.172,2.408h-18.1a6.574,6.574,0,0,0,2.107,4.558,6.651,6.651,0,0,0,4.644,1.72,5.736,5.736,0,0,0,5.59-3.311h5.289A10.673,10.673,0,0,1,517.054-1.7,11.418,11.418,0,0,1,510.066.387a12.1,12.1,0,0,1-6.085-1.527,10.861,10.861,0,0,1-4.214-4.3,13.117,13.117,0,0,1-1.526-6.429,13.425,13.425,0,0,1,1.483-6.429,10.433,10.433,0,0,1,4.171-4.278,12.413,12.413,0,0,1,6.171-1.5,12.067,12.067,0,0,1,5.977,1.462,10.331,10.331,0,0,1,4.085,4.106A12.368,12.368,0,0,1,521.59-12.427Zm-5.117-1.548a5.578,5.578,0,0,0-1.935-4.343,6.918,6.918,0,0,0-4.687-1.634,6.3,6.3,0,0,0-4.343,1.613,6.739,6.739,0,0,0-2.15,4.365ZM535.006.387A11.937,11.937,0,0,1,530-.624a8.8,8.8,0,0,1-3.5-2.752,6.859,6.859,0,0,1-1.376-3.892h5.074a3.46,3.46,0,0,0,1.441,2.516,5.23,5.23,0,0,0,3.289,1.01,5.54,5.54,0,0,0,3.2-.8,2.4,2.4,0,0,0,1.14-2.043,2.1,2.1,0,0,0-1.269-1.978,23.776,23.776,0,0,0-4.02-1.419,38.8,38.8,0,0,1-4.343-1.419,7.614,7.614,0,0,1-2.9-2.107,5.522,5.522,0,0,1-1.225-3.741,5.834,5.834,0,0,1,1.118-3.462,7.445,7.445,0,0,1,3.2-2.472,11.969,11.969,0,0,1,4.794-.9,9.9,9.9,0,0,1,6.515,2.042,7.334,7.334,0,0,1,2.644,5.569h-4.9a3.492,3.492,0,0,0-1.29-2.537,4.824,4.824,0,0,0-3.139-.946,5.1,5.1,0,0,0-2.967.731,2.263,2.263,0,0,0-1.032,1.935,2.094,2.094,0,0,0,.688,1.591,4.9,4.9,0,0,0,1.677,1.01q.989.366,2.924.924a31.811,31.811,0,0,1,4.235,1.4,7.885,7.885,0,0,1,2.859,2.086,5.518,5.518,0,0,1,1.247,3.655,6.13,6.13,0,0,1-1.118,3.612A7.413,7.413,0,0,1,539.8-.516,11.776,11.776,0,0,1,535.006.387Zm22.962,0a11.937,11.937,0,0,1-5.01-1.011,8.8,8.8,0,0,1-3.5-2.752,6.859,6.859,0,0,1-1.376-3.892h5.074a3.46,3.46,0,0,0,1.441,2.516,5.23,5.23,0,0,0,3.289,1.01,5.54,5.54,0,0,0,3.2-.8,2.4,2.4,0,0,0,1.139-2.043,2.1,2.1,0,0,0-1.268-1.978,23.776,23.776,0,0,0-4.02-1.419,38.8,38.8,0,0,1-4.343-1.419,7.614,7.614,0,0,1-2.9-2.107,5.522,5.522,0,0,1-1.225-3.741,5.834,5.834,0,0,1,1.118-3.462,7.445,7.445,0,0,1,3.2-2.472,11.969,11.969,0,0,1,4.794-.9,9.9,9.9,0,0,1,6.515,2.042,7.334,7.334,0,0,1,2.644,5.569h-4.9a3.492,3.492,0,0,0-1.29-2.537,4.824,4.824,0,0,0-3.139-.946,5.1,5.1,0,0,0-2.967.731,2.263,2.263,0,0,0-1.032,1.935A2.094,2.094,0,0,0,554.1-15.7a4.9,4.9,0,0,0,1.677,1.01q.989.366,2.924.924a31.811,31.811,0,0,1,4.235,1.4,7.885,7.885,0,0,1,2.859,2.086,5.518,5.518,0,0,1,1.247,3.655,6.13,6.13,0,0,1-1.118,3.612,7.413,7.413,0,0,1-3.161,2.494A11.776,11.776,0,0,1,557.968.387Z" transform="translate(540 660)"/>
      <path id="Path_26" data-name="Path 26" d="M67.68-67.968V0H46.368V-26.5H26.112V0H4.8V-67.968H26.112v24.48H46.368v-24.48Zm66.912,13.824V0H113.28V-8.256a19.245,19.245,0,0,1-6.672,6.24,19.61,19.61,0,0,1-9.936,2.4q-9.312,0-14.544-6.24T76.9-22.752V-54.144H98.112v28.7a8.684,8.684,0,0,0,2.064,6.1,7.118,7.118,0,0,0,5.52,2.256,7.084,7.084,0,0,0,5.568-2.256,8.813,8.813,0,0,0,2.016-6.1v-28.7ZM165.5-46.752a14.725,14.725,0,0,1,5.808-5.9,18.039,18.039,0,0,1,9.072-2.16A20.486,20.486,0,0,1,191.808-51.5a22.354,22.354,0,0,1,8.016,9.6,34.845,34.845,0,0,1,2.928,14.832,34.845,34.845,0,0,1-2.928,14.832,22.354,22.354,0,0,1-8.016,9.6A20.486,20.486,0,0,1,180.384.672a18.039,18.039,0,0,1-9.072-2.16,14.725,14.725,0,0,1-5.808-5.9V0H144.192V-71.04H165.5Zm15.648,19.68a9.557,9.557,0,0,0-2.208-6.72,7.351,7.351,0,0,0-5.664-2.4,7.351,7.351,0,0,0-5.664,2.4,9.557,9.557,0,0,0-2.208,6.72,9.557,9.557,0,0,0,2.208,6.72,7.351,7.351,0,0,0,5.664,2.4,7.351,7.351,0,0,0,5.664-2.4A9.557,9.557,0,0,0,181.152-27.072Z" transform="translate(913 608)" fill="#bf4252"/>
    </g>
  </g>
</svg>
