<svg xmlns="http://www.w3.org/2000/svg" width="420.278" height="483.249" viewBox="0 0 420.278 483.249">
  <g id="OBJECTS" transform="translate(-213.487 -97.473)">
    <g id="Group_14" data-name="Group 14" transform="translate(213.487 97.473)">
      <path id="Path_1" data-name="Path 1" d="M215.835,580.722h417.93V97.473H440.531c-46.241,8.35-109.041,9.668-118.876,40.179-21.255,65.953,39.436,102.486,0,141.895S179.18,372.631,230.068,438.241s12.754,64.151,0,83.305C219.863,536.871,208.473,559.12,215.835,580.722Z" transform="translate(-213.487 -97.473)" fill="#f1f1f1"/>
      <path id="Path_2" data-name="Path 2" d="M425.209,399.108a7.249,7.249,0,0,1-.466-14.482,73.446,73.446,0,0,0,20.271-5.351,87.448,87.448,0,0,0,37.945-29.852,7.249,7.249,0,0,1,11.7,8.561c-27.9,38.133-67.329,41.007-68.994,41.112C425.513,399.1,425.359,399.108,425.209,399.108Z" transform="translate(-94.041 47.967)" fill="#74818e"/>
      <path id="Path_3" data-name="Path 3" d="M244.988,299.879a7.249,7.249,0,0,1,14.482-.466,73.466,73.466,0,0,0,5.351,20.272,87.453,87.453,0,0,0,29.852,37.943,7.249,7.249,0,1,1-8.561,11.7C247.979,341.428,245.105,302,245,300.335,244.993,300.183,244.988,300.029,244.988,299.879Z" transform="translate(-195.085 16.53)" fill="#74818e"/>
      <path id="Path_4" data-name="Path 4" d="M412.555,123.464a7.249,7.249,0,0,1-9.346,11.073,73.479,73.479,0,0,0-18.645-9.59,87.463,87.463,0,0,0-48.172-3.214,7.248,7.248,0,0,1-2.964-14.191c46.252-9.662,77.471,14.59,78.778,15.626C412.325,123.264,412.442,123.363,412.555,123.464Z" transform="translate(-146.793 -92.917)" fill="#74818e"/>
      <path id="Path_5" data-name="Path 5" d="M268.352,301.463l41.756-21.9,15.726,41.378-41.374,14.6Z" transform="translate(-181.437 8.893)" fill="#fda080"/>
      <path id="Path_6" data-name="Path 6" d="M276.836,301.662s13.139-2.709,18.726,0,10.363,19.32,10.363,19.32l27.542,1.963L308.549,276.13l-25.823,12.233Z" transform="translate(-176.481 6.888)" fill="#f4907c"/>
      <path id="Path_7" data-name="Path 7" d="M291.826,244.735a41.86,41.86,0,0,0-21.5,55.158L341.212,461.3a41.858,41.858,0,0,0,55.157,21.5L602.63,392.222V108.249Z" transform="translate(-182.351 -91.178)" fill="#d4d2d1"/>
      <circle id="Ellipse_1" data-name="Ellipse 1" cx="14.085" cy="14.085" r="14.085" transform="translate(370.606 291.493) rotate(-76.769)" fill="gray" opacity="0.4"/>
      <circle id="Ellipse_2" data-name="Ellipse 2" cx="14.085" cy="14.085" r="14.085" transform="matrix(0.229, -0.973, 0.973, 0.229, 315.049, 105.935)" fill="gray" opacity="0.4"/>
      <circle id="Ellipse_3" data-name="Ellipse 3" cx="14.085" cy="14.085" r="14.085" transform="translate(115.21 211.712) rotate(-76.666)" fill="gray" opacity="0.4"/>
      <g id="Group_1" data-name="Group 1" transform="translate(108.169 250.073)" opacity="0.4">
        <path id="Path_8" data-name="Path 8" d="M387.244,281.087,373.8,294.829l-56.383,48.929-8.814-2.036,8.176,18.618a42.03,42.03,0,0,0,2.588,4.947c6.685-1.806,15.027-4.477,18.642-7.335,6.493-5.136,36.093-46.664,36.093-46.664s8.759-5.437,9.929-8.374,3.36-15.789,4.266-17.9S387.244,281.087,387.244,281.087Z" transform="translate(-266.092 -240.289)" fill="gray"/>
        <path id="Path_9" data-name="Path 9" d="M351.878,288.583c3.021-.3,5.272-4.532,5.272-4.532l4.7-2.115.6-4.681-7.853-3.317L310.543,261.3l-27.377-5.964-1.4,4.621,8,18.222,45.948,9.069S348.859,288.882,351.878,288.583Z" transform="translate(-281.769 -255.333)" fill="gray"/>
      </g>
      <path id="Path_10" data-name="Path 10" d="M443.315,260.255l3.068,28.492,16.223,26.263,24.746,25.144L384.985,384.917l-6.04-49.332-5.839-26.279-16.252-27.835,84.975-36.977a4.622,4.622,0,0,1,.643,1.841C442.505,247.189,443.315,260.255,443.315,260.255Z" transform="translate(-129.74 -11.592)" fill="gray" opacity="0.4"/>
      <g id="Group_2" data-name="Group 2" transform="translate(227.114 232.247)">
        <rect id="Rectangle_4" data-name="Rectangle 4" width="85.02" height="58.055" rx="1.822" transform="translate(9.845 50.635) rotate(-23.364)" fill="#e5e5e5"/>
        <rect id="Rectangle_5" data-name="Rectangle 5" width="67.446" height="36.099" rx="1.477" transform="translate(18.781 49.162) rotate(-23.364)" fill="#666"/>
        <rect id="Rectangle_6" data-name="Rectangle 6" width="15.482" height="13.645" rx="1.532" transform="matrix(0.918, -0.397, 0.397, 0.918, 57.937, 74.286)" fill="#cbcbcb"/>
        <path id="Path_11" data-name="Path 11" d="M439.447,244.257l-40.652,17.562-40.652,17.56a2.134,2.134,0,0,0-.71,3.42l9.882,10.528a1.56,1.56,0,0,0,1.754.364l36.656-15.835,36.654-15.835a1.557,1.557,0,0,0,.938-1.526l-.892-14.412A2.134,2.134,0,0,0,439.447,244.257Z" transform="translate(-356.854 -244.08)" fill="#fff"/>
        <path id="Path_12" data-name="Path 12" d="M443.085,259.925l-.889-14.344a2.136,2.136,0,0,0-2.3-.329L399.24,262.813l-40.652,17.562a2.138,2.138,0,0,0-1.34,1.9l9.836,10.479a1.56,1.56,0,0,0,1.754.364l36.656-15.835,36.654-15.835A1.557,1.557,0,0,0,443.085,259.925Z" transform="translate(-356.623 -243.509)" fill="gray"/>
        <path id="Path_13" data-name="Path 13" d="M437.8,259.523l-.274-11.83a1.975,1.975,0,0,0-2.051-.188l-37.044,16-37.044,16a1.979,1.979,0,0,0-1.267,1.622l8.426,8.309a1.419,1.419,0,0,0,1.557.238l33.4-14.428,33.4-14.43A1.417,1.417,0,0,0,437.8,259.523Z" transform="translate(-354.946 -242.195)" fill="#a5b4c2"/>
      </g>
      <path id="Path_14" data-name="Path 14" d="M395.857,328.9l-3.3-15.843s3.108-10.058,2.872-11.975-3.637-13.931-3.637-13.931-2.289-.244-2.779.977,0,7.1,0,7.1a16,16,0,0,1-2.2-2.947c-.371-.833-1.16-9.088-1.522-13.05a2.313,2.313,0,0,0-2.3-2.1h0a2.314,2.314,0,0,0-2.3,2.02l-.6,4.651-3.91.783-1.833,4.277-4.112,8.8,2.589,9.929,5.8,7.667,1.221,13.643Z" transform="translate(-121.921 7.473)" fill="#eac9b8"/>
      <path id="Path_15" data-name="Path 15" d="M434.25,310.319l-10.907-11.954s-9.974-3.374-11.388-4.687-9.159-11.108-9.159-11.108,1.142-2,2.419-1.679,5.757,4.16,5.757,4.16a16.044,16.044,0,0,0-1.1-3.509c-.458-.787-6.685-6.264-9.685-8.879a2.31,2.31,0,0,1-.353-3.1h0a2.313,2.313,0,0,1,2.983-.678l4.119,2.242,2.924-2.712,4.54,1.02,9.541,1.82,6.531,7.914,2.815,9.193,10.341,8.982Z" transform="translate(-104.892 2.381)" fill="#eac9b8"/>
      <rect id="Rectangle_7" data-name="Rectangle 7" width="71.078" height="50.942" transform="translate(145.038 274.81) rotate(-19.604)" fill="#fff"/>
      <rect id="Rectangle_8" data-name="Rectangle 8" width="69.266" height="47.167" transform="translate(145.038 274.81) rotate(-19.604)" fill="#c4ccd7"/>
      <rect id="Rectangle_9" data-name="Rectangle 9" width="71.078" height="50.942" transform="translate(141.526 271.252) rotate(-19.604)" fill="#fff"/>
      <path id="Path_16" data-name="Path 16" d="M311.955,259.1l8.371,3.522s9.565-2.012,12.725-.8,12.613,7.23,13.609,7.943,2.533,4.033,2.533,4.738-2.025,3.724-4.215,3.926-12.268.5-12.268.5a37.949,37.949,0,0,1,2.989,2.818,3.187,3.187,0,0,1,.171,2.617c-.342.3-8.114-3.019-10.335-3.724s-5.552-3.623-6.15-4.228-2.649-2.918-2.649-2.918l-9.223-3.732Z" transform="translate(-158.561 -3.061)" fill="#fad1b1"/>
      <path id="Path_17" data-name="Path 17" d="M346.889,315.723l5.826-6.967s9.426-2.593,11.681-5.114,1.537-6.511,2.1-7.6-.263-8.138.219-8.651c1.739-1.852,4.188-3.659,5.627-5.242,2.536-2.794.722-4.054-.559-3.536-2.039.824-15.525,9.979-15.525,9.979a37.714,37.714,0,0,0,1.366-3.875c.1-.732-.605-2.292-1.047-2.4s-5.83,6.4-7.48,8.046-3.274,5.763-3.529,6.574-1.017,3.808-1.017,3.808l-6.489,7.544Z" transform="translate(-140.72 8.271)" fill="#fad1b1"/>
      <g id="Group_3" data-name="Group 3" transform="translate(196.668 150.394)">
        <path id="Rectangle_10" data-name="Rectangle 10" d="M3.811,0H64.137a3.812,3.812,0,0,1,3.812,3.812V41.759a3.811,3.811,0,0,1-3.811,3.811H3.811A3.811,3.811,0,0,1,0,41.759V3.811A3.811,3.811,0,0,1,3.811,0Z" transform="translate(0 21.462) rotate(-18.413)" fill="#647889"/>
        <path id="Path_18" data-name="Path 18" d="M411.237,239l-53.012,17.647a7.59,7.59,0,0,1-9.589-4.8l-10.579-31.781a7.59,7.59,0,0,1,4.8-9.589l53.012-17.647a7.589,7.589,0,0,1,9.589,4.8l10.581,31.781A7.59,7.59,0,0,1,411.237,239Zm-65.045-26.376a4.5,4.5,0,0,0-2.844,5.684l10.579,31.779a4.5,4.5,0,0,0,5.684,2.844l50.651-16.862a4.5,4.5,0,0,0,2.844-5.682l-10.581-31.781a4.5,4.5,0,0,0-5.682-2.844Z" transform="translate(-337.615 -192.391)" fill="#f8fbfc"/>
        <path id="Path_19" data-name="Path 19" d="M345.631,219.381a1.882,1.882,0,1,1-2.379-1.191A1.883,1.883,0,0,1,345.631,219.381Z" transform="translate(-335.107 -177.408)" fill="#d4d2d1"/>
      </g>
      <path id="Path_20" data-name="Path 20" d="M313.5,198.2l50,71.829,22.548-5.691-6.357-15.1-13.021-3.67-15.306-27.55,78.479-28.627,1.208-12.453-10.33-25.818Z" transform="translate(-155.065 -66.14)" fill="gray" opacity="0.4"/>
      <path id="Path_21" data-name="Path 21" d="M362.031,219.307l-10.359-4.756a1.222,1.222,0,0,0-1.484.375l-.1.138a1.221,1.221,0,0,0,.483,1.852l10.462,4.618a1.221,1.221,0,0,0,1-2.227Z" transform="translate(-133.838 -29.148)" fill="#fdf5ea"/>
      <path id="Path_22" data-name="Path 22" d="M353.42,175.271a26.634,26.634,0,0,1-5.9,1.648c-2.856.366-6.481-1.209-8.9-.824s-8.456,4.613-8.456,4.613l-2.316,5.638-1.41,9.262,10.37,4.228s2.668,1.194,7-1.12,12.135-9.049,12.135-9.049l5.231-2.717Z" transform="translate(-147.506 -52.028)" fill="#eac9b8"/>
      <path id="Path_23" data-name="Path 23" d="M355.071,210.523l7.065,2.46s3.707,3.965,4.39,5.06,0,4.375,0,4.375,2.462,2.46,2.326,4.784-3.834,5.47-8.48,5.606-9.57.684-10.663,0-6.289-11.143-6.289-11.143l-7.384-10.186,14.355-6.973Z" transform="translate(-141.9 -34.951)" fill="#eac9b8"/>
      <path id="Path_25" data-name="Path 25" d="M253.742,335.593s-2.3-24.188,3.189-31.738,35.179-59.733,37.69-61.813,55.13,26.924,55.13,26.924-5.907,13.849-6.522,14.12S303.6,269.17,303.6,269.17l-6.8,21.8,10.1-3.891,9.057,20.622s-10.736,6.753-28.972,15.74A156.964,156.964,0,0,1,253.742,335.593Z" transform="translate(-190.252 -13.087)" fill="#80c1d8"/>
      <path id="Path_26" data-name="Path 26" d="M266.377,344.945c-.244.627,26.183,20.065,36.388,16.562s49.918-13.357,55.326-17.2,35.192-39.2,35.192-39.2L383.825,293.6l-31.39,28.415-21.658,6.71-10.235-23.309S276.615,318.673,266.377,344.945Z" transform="translate(-182.592 17.092)" fill="#80c1d8"/>
      <path id="Path_27" data-name="Path 27" d="M373.427,319.618l23.426-3.111,8.835,32,59.892-26.3-20.774-20.562,14.24-17.345L505.077,322.1s13.491,39.806,13.137,44.2-16.333,37.836-40.57,49.131-57.075-3.316-61.438-4.336S385.953,377.2,385.473,376.11,373.427,319.618,373.427,319.618Z" transform="translate(-120.059 11.662)" fill="#f39475"/>
      <g id="Group_6" data-name="Group 6" transform="translate(149.783 28.229)">
        <path id="Path_28" data-name="Path 28" d="M435.641,194.841c-2.975-15.879-4.336-51.5-7.3-56.554-3.884-6.614-12.849-15.887-27.018-21.41,0,0-60.525-5.228-74.393,3.309s-18.918,83.5-18.888,86.909,46.623,62.711,46.623,62.711l14.785-11.59-29.9-49.131L406,179.9l1.191,8.285-46.4,21.41,9.2,16.456,59.418-20.578A9.4,9.4,0,0,0,435.641,194.841Z" transform="translate(-308.038 -115.293)" fill="#e74a5f"/>
        <path id="Path_29" data-name="Path 29" d="M361.631,230.029l-5.6,1.191-47.76-57.366L354.525,235.6Z" transform="translate(-307.902 -81.085)" fill="#c9364f"/>
        <path id="Path_30" data-name="Path 30" d="M414.078,167.41a17.652,17.652,0,0,1-7.2,5.659c-4.38,1.66-55.733,17.365-55.733,17.365l-6.08-.727,3.3,5.9,59.418-20.578A9.4,9.4,0,0,0,414.078,167.41Z" transform="translate(-286.411 -84.849)" fill="#c9364f"/>
        <path id="Path_31" data-name="Path 31" d="M327.925,200.906l9.525-70.36s27.385-2.818,35.036,0,19.086,7.932,19.086,7.932l2.807,33.245Z" transform="translate(-296.421 -107.114)" fill="#c9364f"/>
        <path id="Path_32" data-name="Path 32" d="M322.753,121.569s14.474,17.727,14.788,35.141,5.952,10.164,5.952,10.164l-3.021-31.814S333.023,124.791,322.753,121.569Z" transform="translate(-299.442 -111.627)" fill="#c9364f"/>
        <path id="Path_33" data-name="Path 33" d="M372.044,149.959s-3.194-18.693,5.866-27.754a28.8,28.8,0,0,0-14.9,18.121C359.588,153.414,372.044,149.959,372.044,149.959Z" transform="translate(-276.273 -111.255)" fill="#c9364f"/>
      </g>
      <g id="Group_7" data-name="Group 7" transform="translate(188.029 9.234)">
        <path id="Path_34" data-name="Path 34" d="M376.134,135.16c.477-.174-.368,12.752-.368,12.752l-4.239,6.6s-9.861,7.043-11.71,7.9-12.6,1.02-12.6,1.02-3.219,1.541-4.74.838-3.126-6.063-3.126-6.063-5.963-3.221-5.754-15.555,15.894-17.727,15.894-17.727Z" transform="translate(-331.358 -90.669)" fill="#eac9b8"/>
        <path id="Path_35" data-name="Path 35" d="M338.582,117.07s-3.658-1.5-5.742,1.3,1.443,7.987,1.443,7.987Z" transform="translate(-332.181 -95.494)" fill="#eac9b8"/>
        <path id="Path_36" data-name="Path 36" d="M369.5,131.769s2.714.762,2.741,3.049-5.239,7.872-8.9,7.455S369.5,131.769,369.5,131.769Z" transform="translate(-314.455 -86.674)" fill="#eac9b8"/>
        <path id="Path_37" data-name="Path 37" d="M332.6,151.42s-2.059-22.316,5.224-32.92,15.26-12.448,15.26-12.448a20.6,20.6,0,0,1,17.085-1.581c9.522,3.355,17.817,12.209,20.881,21.538s-1.351,22.848-6.508,29.425a69.646,69.646,0,0,1-12.277,11.715s2.946-8.651-.5-9.191c0,0-13.82,10.478-23.046,9.9s-10.994-2.455-10.994-2.455S349,162.707,353.7,158.82c0,0-13.159,3.927-19.159,3.785l4.437-5.592-3.062,1.483A11.032,11.032,0,0,1,332.6,151.42Z" transform="translate(-332.094 -103.302)" fill="#393f4b"/>
      </g>
      <path id="Path_38" data-name="Path 38" d="M311.528,323.878s1.231,4.981-.984,8.48-6.444,4.206-9.262,8.133-8.337,11.642-16.1,11.811-13.6-7.986-18.13-9.7-16.109,1.511-19.734-5.738,4.933-19.431-.7-25.673S241.8,297.463,245,293.878c5.21-5.83,12.081-6.394,20.035-1.863s12.483,1.158,16.108-.051,9.766-1.657,12.082-.627,3.884,5.1,3.884,5.1Z" transform="translate(-196.547 14.411)" fill="#11114e"/>
      <path id="Path_39" data-name="Path 39" d="M293.126,270.433l-10.1,3.891-6.192,15.705s9.817-1.359,12.082,0c1.055.634,3,3.319,4.77,6.005,5.5-3.1,8.494-4.979,8.494-4.979Z" transform="translate(-176.481 3.56)" fill="#63adc1"/>
      <path id="Path_40" data-name="Path 40" d="M305.085,301.057s-2.7.817-6.924,2.444c1.831,4.215,4.521,11.341,3.913,15.6-.906,6.343-9.237,11.176-9.237,11.176l22.484-5.915Z" transform="translate(-167.135 21.449)" fill="#63adc1"/>
      <path id="Path_41" data-name="Path 41" d="M412.477,351.91s-4.009-10.889.081-17.289c4.767-7.458,17.807-12.334,26.078-9.15,12.122,4.665,11.273,8.589,11.273,8.589Z" transform="translate(-98.275 35.131)" fill="#fad1b1"/>
      <path id="Path_42" data-name="Path 42" d="M456.638,333.992s-8.76-9.453-21.787-7.371-15.924,4.819-15.924,4.819l3.387-.094-6.05,4.626s-7.162,11.713-6.972,20.035a25.6,25.6,0,0,0,4.133,13.649s1.535,8.149,5.386,11.639,13.121,7.2,20.119,6.479a35.564,35.564,0,0,0,13.093-4.428,16.188,16.188,0,0,0,10.379-5.7,17.111,17.111,0,0,0,4.112-11.022s4.234-5.24,4.461-8.336-2.14-10.913-2.14-10.913S465.857,334.461,456.638,333.992Z" transform="translate(-99.11 36.207)" fill="#6f251e"/>
      <path id="Path_43" data-name="Path 43" d="M393.792,334.534l3.645,14.964,9.967,11.9s2.718-16.679,15.705-27.431,35.64-8.032,38.962-7.88,16.008,14.986,16.008,14.986l-6.946-18.5-17.449-14.34Z" transform="translate(-108.163 25.64)" fill="#e28166"/>
      <path id="Path_44" data-name="Path 44" d="M497.96,342.257s-24.532,31.556-47.168,37.8c-19.837,5.475-43.927-.811-49.584-2.451,7.439,2.47,37.574,14.514,60.207,3.965C478.669,373.536,491.735,354.277,497.96,342.257Z" transform="translate(-103.83 45.516)" fill="#e28166"/>
      <path id="Path_45" data-name="Path 45" d="M358.971,217.82l-11.52-5.288a1.357,1.357,0,0,0-1.651.417l-.116.154a1.358,1.358,0,0,0,.537,2.059l11.634,5.134a1.358,1.358,0,0,0,1.115-2.476Z" transform="translate(-136.424 -30.335)" fill="#fdf5ea"/>
      <rect id="Rectangle_11" data-name="Rectangle 11" width="71.078" height="50.942" transform="translate(302.363 172.877)" fill="#fff"/>
      <rect id="Rectangle_12" data-name="Rectangle 12" width="69.266" height="47.167" transform="translate(302.363 172.877)" fill="#c4ccd7"/>
      <rect id="Rectangle_13" data-name="Rectangle 13" width="71.078" height="50.943" transform="translate(300.249 168.347)" fill="#fff"/>
      <rect id="Rectangle_14" data-name="Rectangle 14" width="71.078" height="50.942" transform="translate(307.937 126.751) rotate(-8.769)" fill="#fff"/>
      <rect id="Rectangle_15" data-name="Rectangle 15" width="69.266" height="47.167" transform="translate(307.937 126.752) rotate(-8.769)" fill="#c4ccd7"/>
      <rect id="Rectangle_16" data-name="Rectangle 16" width="71.078" height="50.943" transform="translate(305.156 122.596) rotate(-8.769)" fill="#fff"/>
      <g id="Group_9" data-name="Group 9" transform="translate(114.433 178.043)">
        <path id="Path_46" data-name="Path 46" d="M286.738,231.02a2.13,2.13,0,0,0,2.932.686l7.362-4.572-2.246-3.618-7.362,4.572A2.128,2.128,0,0,0,286.738,231.02Z" transform="translate(-285.317 -201.889)" fill="#f16a44"/>
        <circle id="Ellipse_4" data-name="Ellipse 4" cx="13.101" cy="13.101" r="13.101" transform="translate(0 18.527) rotate(-45)" fill="#f16a44"/>
        <path id="Path_47" data-name="Path 47" d="M289.793,224.038a11.947,11.947,0,0,1,1.055-3.568,12.087,12.087,0,0,1,2.132-3.1,12.4,12.4,0,0,1,6.582-3.564c.314-.049.629-.086.944-.128s.634-.036.949-.059c.158,0,.317-.017.475-.014l.475.017c.318,0,.634.046.949.079a12.1,12.1,0,0,1,6.739,3.173,12.137,12.137,0,0,1,2.267,2.953,12.961,12.961,0,0,0-5.59-4.588,12.354,12.354,0,0,0-13.418,2.5A13.075,13.075,0,0,0,289.793,224.038Z" transform="translate(-283.345 -207.677)" fill="#f8fbfc"/>
        <circle id="Ellipse_5" data-name="Ellipse 5" cx="10.587" cy="10.587" r="10.587" transform="translate(7.941 7.94)" fill="#93603d"/>
        <path id="Path_48" data-name="Path 48" d="M291.01,226.833a10.586,10.586,0,0,0,20.64-1.576,10.586,10.586,0,0,0-20.64,1.576Z" transform="translate(-282.634 -205.301)" fill="#a4704c"/>
        <g id="Group_8" data-name="Group 8" transform="translate(9.793 11.414)" opacity="0.5">
          <path id="Path_49" data-name="Path 49" d="M305.362,218.638a.168.168,0,0,0-.233-.052.17.17,0,0,0-.052.233,8.4,8.4,0,0,1-7.1,12.89,8.489,8.489,0,0,1-1.332-.1.168.168,0,0,0-.193.139.17.17,0,0,0,.139.193,9,9,0,0,0,1.386.109,8.736,8.736,0,0,0,7.38-13.408Z" transform="translate(-289.248 -216.198)" fill="#f8fbfc"/>
          <path id="Path_50" data-name="Path 50" d="M295.721,217.373a.168.168,0,0,0-.2-.272,8.735,8.735,0,0,0-1.375,12.927.162.162,0,0,0,.125.055.172.172,0,0,0,.112-.043.169.169,0,0,0,.013-.238,8.4,8.4,0,0,1,1.321-12.429Z" transform="translate(-291.905 -217.069)" fill="#f8fbfc"/>
          <path id="Path_51" data-name="Path 51" d="M299.541,218.26a5.458,5.458,0,0,1,.806.06.169.169,0,1,0,.049-.334,5.91,5.91,0,0,0-.855-.063,5.765,5.765,0,0,0-5.758,5.76,5.844,5.844,0,0,0,.059.833.168.168,0,0,0,.166.144l.025,0a.168.168,0,0,0,.143-.19,5.424,5.424,0,0,1,5.365-6.208Z" transform="translate(-290.808 -216.57)" fill="#f8fbfc"/>
          <path id="Path_52" data-name="Path 52" d="M303.213,224.154a.169.169,0,0,0-.247-.23,5.422,5.422,0,0,1-7.962-.032.168.168,0,0,0-.247.228,5.758,5.758,0,0,0,8.456.033Z" transform="translate(-290.265 -213.114)" fill="#f8fbfc"/>
          <path id="Path_53" data-name="Path 53" d="M299,218.623a5.4,5.4,0,0,1,2.967,4.836c0,.139,0,.279-.016.415a.169.169,0,0,0,.155.181h.014a.166.166,0,0,0,.166-.155c.011-.146.017-.292.017-.44a5.736,5.736,0,0,0-3.151-5.136.168.168,0,0,0-.154.3Z" transform="translate(-287.813 -216.347)" fill="#f8fbfc"/>
          <path id="Path_54" data-name="Path 54" d="M297.48,225.272a4.437,4.437,0,0,0,3.829-2.162.168.168,0,0,0-.288-.174,4.105,4.105,0,0,1-3.541,2,.168.168,0,0,0,0,.336Z" transform="translate(-288.747 -213.69)" fill="#f8fbfc"/>
          <path id="Path_55" data-name="Path 55" d="M301.773,220.286a.169.169,0,1,0,.238-.239,4.47,4.47,0,0,0-7.021.909.168.168,0,0,0,.06.231.179.179,0,0,0,.084.022.168.168,0,0,0,.146-.084,4.152,4.152,0,0,1,3.571-2.05A4.105,4.105,0,0,1,301.773,220.286Z" transform="translate(-290.117 -216.094)" fill="#f8fbfc"/>
        </g>
      </g>
      <g id="Group_11" data-name="Group 11" transform="translate(315.216 76.068)">
        <path id="Path_56" data-name="Path 56" d="M435.008,146.4a2.127,2.127,0,0,0-3.01,0l-6.128,6.127,3.01,3.011,6.127-6.127A2.129,2.129,0,0,0,435.008,146.4Z" transform="translate(-404.64 -145.328)" fill="#f16a44"/>
        <circle id="Ellipse_6" data-name="Ellipse 6" cx="13.101" cy="13.101" r="13.101" transform="translate(0 25.495) rotate(-76.669)" fill="#f16a44"/>
        <path id="Path_57" data-name="Path 57" d="M414.8,157.926a11.944,11.944,0,0,1,1.055-3.569,12.143,12.143,0,0,1,2.132-3.1,12.4,12.4,0,0,1,6.582-3.564c.314-.049.629-.086.944-.128s.634-.036.949-.059c.158,0,.317-.017.475-.014l.477.017c.317,0,.632.046.947.081a12.075,12.075,0,0,1,6.739,3.171,12.1,12.1,0,0,1,2.267,2.953,12.947,12.947,0,0,0-5.59-4.586,12.349,12.349,0,0,0-13.418,2.5A13.073,13.073,0,0,0,414.8,157.926Z" transform="translate(-411.108 -144.322)" fill="#f8fbfc"/>
        <circle id="Ellipse_7" data-name="Ellipse 7" cx="10.587" cy="10.587" r="10.587" transform="translate(5.182 5.182)" fill="#93603d"/>
        <path id="Path_58" data-name="Path 58" d="M416.014,160.718a10.586,10.586,0,0,0,20.64-1.576,10.586,10.586,0,0,0-20.64,1.576Z" transform="translate(-410.398 -141.945)" fill="#a4704c"/>
        <g id="Group_10" data-name="Group 10" transform="translate(7.034 8.655)" opacity="0.5">
          <path id="Path_59" data-name="Path 59" d="M430.366,152.524a.169.169,0,0,0-.285.181,8.4,8.4,0,0,1-7.1,12.89,8.489,8.489,0,0,1-1.332-.1.169.169,0,0,0-.054.333A8.743,8.743,0,0,0,431.72,157.2,8.708,8.708,0,0,0,430.366,152.524Z" transform="translate(-414.252 -150.085)" fill="#f8fbfc"/>
          <path id="Path_60" data-name="Path 60" d="M420.725,151.261a.169.169,0,0,0-.2-.274,8.737,8.737,0,0,0-1.375,12.928.17.17,0,0,0,.125.055.163.163,0,0,0,.112-.044.169.169,0,0,0,.013-.238,8.4,8.4,0,0,1,1.321-12.428Z" transform="translate(-416.909 -150.955)" fill="#f8fbfc"/>
          <path id="Path_61" data-name="Path 61" d="M424.545,152.146a5.462,5.462,0,0,1,.806.06.168.168,0,0,0,.192-.143.166.166,0,0,0-.143-.19,5.694,5.694,0,0,0-.855-.063,5.766,5.766,0,0,0-5.758,5.758,5.622,5.622,0,0,0,.06.833.169.169,0,0,0,.166.146l.024,0a.168.168,0,0,0,.143-.19,5.424,5.424,0,0,1,5.365-6.208Z" transform="translate(-415.812 -150.456)" fill="#f8fbfc"/>
          <path id="Path_62" data-name="Path 62" d="M428.217,158.04a.169.169,0,0,0-.247-.23,5.424,5.424,0,0,1-7.962-.03.168.168,0,1,0-.247.228,5.759,5.759,0,0,0,8.456.032Z" transform="translate(-415.269 -147)" fill="#f8fbfc"/>
          <path id="Path_63" data-name="Path 63" d="M424.006,152.509a5.4,5.4,0,0,1,2.967,4.836c0,.139,0,.279-.014.415a.166.166,0,0,0,.155.181l.013,0a.17.17,0,0,0,.168-.157c.009-.144.016-.291.016-.44a5.736,5.736,0,0,0-3.151-5.136.168.168,0,1,0-.154.3Z" transform="translate(-412.817 -150.233)" fill="#f8fbfc"/>
          <path id="Path_64" data-name="Path 64" d="M422.484,159.158A4.435,4.435,0,0,0,426.313,157a.168.168,0,1,0-.288-.174,4.1,4.1,0,0,1-3.541,2,.168.168,0,0,0,0,.336Z" transform="translate(-413.751 -147.577)" fill="#f8fbfc"/>
          <path id="Path_65" data-name="Path 65" d="M426.777,154.172a.169.169,0,0,0,.238-.239,4.47,4.47,0,0,0-7.021.909.168.168,0,0,0,.06.231.163.163,0,0,0,.084.022.168.168,0,0,0,.146-.082,4.15,4.15,0,0,1,3.571-2.051A4.105,4.105,0,0,1,426.777,154.172Z" transform="translate(-415.121 -149.98)" fill="#f8fbfc"/>
        </g>
      </g>
      <g id="Group_13" data-name="Group 13" transform="translate(370.773 259.337)">
        <path id="Path_66" data-name="Path 66" d="M467.1,286.317a2.128,2.128,0,0,0,.656-2.939l-4.643-7.316-3.6,2.283,4.645,7.316A2.129,2.129,0,0,0,467.1,286.317Z" transform="translate(-440.542 -252.488)" fill="#f16a44"/>
        <circle id="Ellipse_8" data-name="Ellipse 8" cx="13.101" cy="13.101" r="13.101" transform="translate(0 25.495) rotate(-76.669)" fill="#f16a44"/>
        <path id="Path_67" data-name="Path 67" d="M449.868,273.615a11.943,11.943,0,0,1,1.055-3.569,12.142,12.142,0,0,1,2.132-3.1,12.4,12.4,0,0,1,6.582-3.563c.314-.049.629-.086.944-.128a9.506,9.506,0,0,1,.949-.059c.158,0,.317-.017.475-.016l.477.019a9.489,9.489,0,0,1,.947.079,12.063,12.063,0,0,1,6.739,3.173,12.067,12.067,0,0,1,2.267,2.953,12.961,12.961,0,0,0-5.59-4.588,12.35,12.35,0,0,0-13.418,2.5A13.08,13.08,0,0,0,449.868,273.615Z" transform="translate(-446.179 -260.011)" fill="#f8fbfc"/>
        <circle id="Ellipse_9" data-name="Ellipse 9" cx="10.587" cy="10.587" r="10.587" transform="translate(5.182 5.182)" fill="#93603d"/>
        <path id="Path_68" data-name="Path 68" d="M451.085,276.409a10.586,10.586,0,0,0,20.64-1.576,10.586,10.586,0,0,0-20.64,1.576Z" transform="translate(-445.469 -257.635)" fill="#a4704c"/>
        <g id="Group_12" data-name="Group 12" transform="translate(7.034 8.655)" opacity="0.5">
          <path id="Path_69" data-name="Path 69" d="M465.437,268.213a.169.169,0,0,0-.285.181,8.4,8.4,0,0,1-7.1,12.892,8.49,8.49,0,0,1-1.332-.106.17.17,0,0,0-.193.141.168.168,0,0,0,.139.192,8.743,8.743,0,0,0,10.121-8.624A8.717,8.717,0,0,0,465.437,268.213Z" transform="translate(-449.323 -265.774)" fill="#f8fbfc"/>
          <path id="Path_70" data-name="Path 70" d="M455.8,266.949a.168.168,0,0,0-.2-.272,8.735,8.735,0,0,0-1.375,12.927.168.168,0,1,0,.25-.225,8.4,8.4,0,0,1,1.321-12.429Z" transform="translate(-451.98 -266.645)" fill="#f8fbfc"/>
          <path id="Path_71" data-name="Path 71" d="M459.616,267.836a5.463,5.463,0,0,1,.806.059.168.168,0,1,0,.049-.333,5.693,5.693,0,0,0-.855-.063,5.766,5.766,0,0,0-5.758,5.76,5.623,5.623,0,0,0,.06.833.167.167,0,0,0,.166.144l.024,0a.17.17,0,0,0,.143-.192,5.422,5.422,0,0,1,5.366-6.207Z" transform="translate(-450.883 -266.145)" fill="#f8fbfc"/>
          <path id="Path_72" data-name="Path 72" d="M463.288,273.73a.169.169,0,1,0-.247-.23,5.422,5.422,0,0,1-7.962-.032.168.168,0,1,0-.247.228,5.761,5.761,0,0,0,8.456.033Z" transform="translate(-450.34 -262.69)" fill="#f8fbfc"/>
          <path id="Path_73" data-name="Path 73" d="M459.077,268.2a5.4,5.4,0,0,1,2.967,4.836c0,.139,0,.277-.014.415a.168.168,0,0,0,.155.181h.013a.167.167,0,0,0,.166-.155c.011-.146.017-.293.017-.44a5.738,5.738,0,0,0-3.151-5.137.169.169,0,0,0-.154.3Z" transform="translate(-447.888 -265.922)" fill="#f8fbfc"/>
          <path id="Path_74" data-name="Path 74" d="M457.555,274.848a4.436,4.436,0,0,0,3.829-2.164.167.167,0,0,0-.057-.231.17.17,0,0,0-.231.057,4.1,4.1,0,0,1-3.541,2,.169.169,0,0,0,0,.337Z" transform="translate(-448.822 -263.266)" fill="#f8fbfc"/>
          <path id="Path_75" data-name="Path 75" d="M461.848,269.86a.168.168,0,1,0,.238-.238,4.438,4.438,0,0,0-3.16-1.309,4.485,4.485,0,0,0-3.861,2.218.167.167,0,0,0,.06.23.166.166,0,0,0,.23-.06,4.134,4.134,0,0,1,6.493-.841Z" transform="translate(-450.192 -265.669)" fill="#f8fbfc"/>
        </g>
      </g>
      <path id="Path_76" data-name="Path 76" d="M300.182,306.07c-.3-.707-2.055-.99-3.764-1.1-6.512-12.073-23-12.5-23-12.5s-1.318,5.172,5.709,13.746,6.981,25.554,6.981,25.554a31.082,31.082,0,0,0,7.438-6.093c3.122-3.438,6.2-8.489,4.892-15.152C299.479,308.815,300.5,306.825,300.182,306.07Z" transform="translate(-178.533 16.436)" fill="#fad1b1"/>
      <path id="Path_77" data-name="Path 77" d="M401,311.159l-1.648-5.934a3.134,3.134,0,0,0-3.419-2.272l-20.57,2.625a3.136,3.136,0,0,0-2.652,3.842l1.535,6.4a3.134,3.134,0,0,0,3.514,2.37l20.683-3.091A3.135,3.135,0,0,0,401,311.159Z" transform="translate(-120.527 22.542)" fill="#f9e1df"/>
      <path id="Path_78" data-name="Path 78" d="M414.547,300.678l4.809,3.848a3.135,3.135,0,0,0,4.1-.158L438.6,290.2a3.136,3.136,0,0,0-.1-4.667l-4.992-4.293a3.134,3.134,0,0,0-4.234.135l-14.962,14.611A3.135,3.135,0,0,0,414.547,300.678Z" transform="translate(-96.727 9.43)" fill="#f9e1df"/>
    </g>
  </g>
</svg>
