<svg xmlns="http://www.w3.org/2000/svg" xmlns:xlink="http://www.w3.org/1999/xlink" width="678.575" height="428.047" viewBox="0 0 678.575 428.047">
  <defs>
    <clipPath id="clip-path">
      <rect id="Rectangle_10" data-name="Rectangle 10" width="320.028" height="35.328" fill="#f5d100"/>
    </clipPath>
    <clipPath id="clip-path-2">
      <path id="Path_45" data-name="Path 45" d="M407.357,213.008a10.535,10.535,0,1,0,14.007-5.081A10.534,10.534,0,0,0,407.357,213.008Z" transform="translate(-406.363 -206.933)" fill="#eb8175"/>
    </clipPath>
    <clipPath id="clip-path-3">
      <path id="Path_73" data-name="Path 73" d="M510.4,292.719a10.656,10.656,0,1,0,14.995-1.494A10.655,10.655,0,0,0,510.4,292.719Z" transform="translate(-507.99 -288.814)" fill="#eb8175"/>
    </clipPath>
    <clipPath id="clip-path-4">
      <path id="Path_81" data-name="Path 81" d="M419.827,388.223,439.1,338.4a2.788,2.788,0,0,1,5.2,0l19.279,49.823Z" transform="translate(-419.827 -336.617)" fill="#f5d100"/>
    </clipPath>
    <clipPath id="clip-path-5">
      <path id="Path_83" data-name="Path 83" d="M563.184,388.3l19.279-49.825a2.787,2.787,0,0,1,5.2,0L606.94,388.3Z" transform="translate(-563.184 -336.696)" fill="#f5d100"/>
    </clipPath>
  </defs>
  <g id="OBJECTS" transform="translate(-304.194 -146.783)">
    <g id="Group_88" data-name="Group 88" transform="translate(304.194 148.107)">
      <g id="Group_87" data-name="Group 87">
        <g id="Group_86" data-name="Group 86">
          <g id="Group_13" data-name="Group 13" transform="translate(0 9.475)">
            <g id="Group_11" data-name="Group 11">
              <path id="Path_5" data-name="Path 5" d="M975.985,447.251c7.274-23.575,8.973-48.661,3.757-72.776-8.158-37.726-34.442-83.4-110.287-103.1C725.863,234.06,676.007,124.951,541.69,159.7c0,0-72.08,13.1-106.2,132.372s-167.786,121.3-121.761,225.155c7.522,16.975,27.777,35.491,56.859,52.983L915.3,568.376C952.942,523.118,964.658,483.966,975.985,447.251Z" transform="translate(-304.194 -152.959)" fill="#ffebeb"/>
            </g>
            <g id="Group_12" data-name="Group 12" transform="translate(96.107 135.857)">
              <path id="Path_6" data-name="Path 6" d="M696.758,295.672H676.32V273.315a23.664,23.664,0,0,0-18.3-23.036V222.533H650.5v27.219a23.666,23.666,0,0,0-21.523,23.563V296.33h-20.33v25.643h-1.369v47.66l-36.951-.266v-56.96H527.985v41.743H498.278V394.7h-35.9V502.047H581.657v-.016h25.621v.016H756.852V366.682H696.7Z" transform="translate(-249.602 -222.533)" fill="#fcc4c4"/>
              <path id="Path_7" data-name="Path 7" d="M378.86,330.162V276.8h20V248.258h7.521V276.8h18.429v53.363h20.679v31.97h32.953V253.225h68.8V477.538H353.411V330.162Z" transform="translate(-353.411 -198.025)" fill="#fcc4c4"/>
            </g>
          </g>
          <g id="Group_20" data-name="Group 20" transform="translate(162.332 189.683)">
            <g id="Group_17" data-name="Group 17">
              <g id="Group_14" data-name="Group 14" transform="translate(0 213.099)">
                <path id="Path_8" data-name="Path 8" d="M722.418,375.9l-313.57.244a21.5,21.5,0,0,1-21.523-21.486h0l356.578-.279h0A21.5,21.5,0,0,1,722.418,375.9Z" transform="translate(-387.326 -354.376)" fill="#ae3746"/>
                <path id="Path_9" data-name="Path 9" d="M722.413,368.492l-313.57.246a21.49,21.49,0,0,1-20.179-14.085l-1.338,0a21.5,21.5,0,0,0,21.523,21.486l313.57-.244A21.5,21.5,0,0,0,743.9,354.376h-1.336A21.489,21.489,0,0,1,722.413,368.492Z" transform="translate(-387.326 -354.376)" fill="#bf4252"/>
                <path id="Path_10" data-name="Path 10" d="M512.286,361.641l-40.513.031a7.2,7.2,0,0,1-7.2-7.194h0l54.91-.043h0A7.2,7.2,0,0,1,512.286,361.641Z" transform="translate(-313.735 -354.319)" fill="#8f1222"/>
              </g>
              <g id="Group_16" data-name="Group 16" transform="translate(18.201)">
                <path id="Path_11" data-name="Path 11" d="M716.674,458.359l-319.877.25-.15-193.074a20.056,20.056,0,0,1,20.039-20.072l279.766-.217a20.056,20.056,0,0,1,20.072,20.039Z" transform="translate(-396.647 -245.246)" fill="#ff5858"/>
                <rect id="Rectangle_6" data-name="Rectangle 6" width="286.561" height="179.77" transform="translate(16.725 16.788)" fill="#bf4252"/>
                <rect id="Rectangle_7" data-name="Rectangle 7" width="286.561" height="17.185" transform="translate(16.789 179.373)" fill="#ff5858"/>
                <rect id="Rectangle_8" data-name="Rectangle 8" width="286.561" height="8.531" transform="translate(16.658 16.788)" fill="#ff5858"/>
                <g id="Group_15" data-name="Group 15" transform="translate(16.73 16.698)">
                  <path id="Path_12" data-name="Path 12" d="M500.709,253.895l-95.495,95.644.066,84.2h.207l179.629-179.91Z" transform="translate(-405.214 -253.767)" fill="#57000b" opacity="0.16"/>
                  <path id="Path_13" data-name="Path 13" d="M424.2,433.748l42.317-.041L646.142,253.8l-42.317.041Z" transform="translate(-387.13 -253.797)" fill="#57000b" opacity="0.16"/>
                  <path id="Path_14" data-name="Path 14" d="M567.655,393.459l33.68-33.733-.05-63.825-101.1,97.6Z" transform="translate(-314.735 -213.685)" fill="#57000b" opacity="0.16"/>
                </g>
              </g>
            </g>
            <g id="Group_19" data-name="Group 19" transform="translate(18.2 93.572)">
              <rect id="Rectangle_9" data-name="Rectangle 9" width="320.028" height="35.328" fill="#f5d100"/>
              <g id="Group_18" data-name="Group 18" clip-path="url(#clip-path)">
                <path id="Path_15" data-name="Path 15" d="M430.527,344.058H402.991l23.7-54.22h27.536Z" transform="translate(-390.602 -296.335)" fill="#fff"/>
                <path id="Path_16" data-name="Path 16" d="M460.6,344.058H433.063l23.7-54.22H484.3Z" transform="translate(-361.953 -296.335)" fill="#fff"/>
                <path id="Path_17" data-name="Path 17" d="M490.671,344.058H463.135l23.7-54.22h27.536Z" transform="translate(-333.303 -296.335)" fill="#fff"/>
                <path id="Path_18" data-name="Path 18" d="M520.743,344.058H493.207l23.7-54.22h27.536Z" transform="translate(-304.653 -296.335)" fill="#fff"/>
                <path id="Path_19" data-name="Path 19" d="M550.815,344.058H523.279l23.7-54.22h27.536Z" transform="translate(-276.003 -296.335)" fill="#fff"/>
              </g>
            </g>
          </g>
          <g id="Group_41" data-name="Group 41" transform="translate(139.817 107.211)">
            <g id="Group_27" data-name="Group 27" transform="translate(0 67.341)">
              <g id="Group_23" data-name="Group 23">
                <g id="Group_22" data-name="Group 22" transform="translate(0 34.565)">
                  <g id="Group_21" data-name="Group 21" transform="translate(0 12.034)">
                    <path id="Path_20" data-name="Path 20" d="M390.748,262.469l-6.257.24-3.661-1.162a3.978,3.978,0,0,0-4.5,1.57l-.463.685,18.289,10.1,3.536-7.586Z" transform="translate(-375.729 -261.361)" fill="#ae3746"/>
                    <path id="Path_21" data-name="Path 21" d="M394.228,273.521,375.8,263.34l.644-1.166a.473.473,0,0,1,.646-.185L395.1,271.94l-.875,1.582" transform="translate(-375.796 -260.82)" fill="#ae3746"/>
                  </g>
                  <path id="Path_22" data-name="Path 22" d="M390.432,272.189l4.831-8.362-4.831-8.63-6.944,13.142Z" transform="translate(-368.469 -255.198)" fill="#eb8175"/>
                </g>
                <path id="Path_23" data-name="Path 23" d="M429.014,240.955s-26.065-7.479-28.574-.441-17.715,38.171-17.715,38.171l11.349,5.921L411.1,255.042,434,253.049Z" transform="translate(-369.195 -237.497)" fill="#ae3746"/>
              </g>
              <g id="Group_26" data-name="Group 26" transform="translate(26.43 2.262)">
                <g id="Group_25" data-name="Group 25" transform="translate(0 39.995)">
                  <g id="Group_24" data-name="Group 24" transform="translate(0 14.939)">
                    <path id="Path_24" data-name="Path 24" d="M401.491,266.787l-5.1,3.251-3.765.76a3.976,3.976,0,0,0-3.177,3.556l-.072.822,20.894-.031-.586-8.35Z" transform="translate(-389.29 -266.787)" fill="#ae3746"/>
                    <path id="Path_25" data-name="Path 25" d="M410.391,272.02l-21.058.031,0-1.332a.476.476,0,0,1,.477-.477l20.581-.033,0,1.81" transform="translate(-389.331 -263.526)" fill="#ae3746"/>
                  </g>
                  <path id="Path_26" data-name="Path 26" d="M403.771,274.083l.667-14.008-8.322-.938-.537,14.94Z" transform="translate(-383.378 -259.137)" fill="#eb8175"/>
                </g>
                <path id="Path_27" data-name="Path 27" d="M421.831,238.655l-24.565,1.119s-3.532.2-3.3,8.465.215,41.55.215,41.55l11.8.408,2.259-34.86,24.589-.3a13.23,13.23,0,0,0,12.056-7.8,9.629,9.629,0,0,0,.678-6.008Z" transform="translate(-384.923 -238.655)" fill="#bf4252"/>
              </g>
            </g>
            <g id="Group_34" data-name="Group 34" transform="translate(21.929 29.064)">
              <g id="Group_29" data-name="Group 29" transform="translate(9.656 0.318)">
                <g id="Group_28" data-name="Group 28" transform="translate(0 31.054)">
                  <path id="Path_28" data-name="Path 28" d="M400.413,238.173c0,2.332-1.576,2.685-3.907,2.689s-4.53-.34-4.534-2.671a4.221,4.221,0,1,1,8.442-.018Z" transform="translate(-391.971 -233.961)" fill="#e1ad9d"/>
                  <path id="Path_29" data-name="Path 29" d="M401.325,239.6l-4.878.01a2.321,2.321,0,0,1-2.322-2.312h0a2.323,2.323,0,0,1,2.312-2.322l4.878-.01a2.324,2.324,0,0,1,2.322,2.312h0A2.323,2.323,0,0,1,401.325,239.6Z" transform="translate(-389.919 -233.004)" fill="#e1ad9d"/>
                </g>
                <path id="Path_30" data-name="Path 30" d="M398.511,256.2l-1.629-7.985,20.056-2.185,4.013-23.432c.4-2.13,3.487-4.772,5.618-4.368l-.613-.174c2.128.4,4.085,2.878,3.681,5.009l-3.9,28.031a3.927,3.927,0,0,1-2.927,3.083Z" transform="translate(-387.292 -218.058)" fill="#c8c6f2"/>
              </g>
              <path id="Path_31" data-name="Path 31" d="M427.763,218.9a4.273,4.273,0,0,1,1.2.277l.2.078a9.9,9.9,0,0,1,5.93,8.5l-3.134,33.247c-20.781-.18-23.733-2.574-23.733-2.574l1.652-34.01c.252-3.206,1.724-6.225,5.378-6.528h0Z" transform="translate(-366.823 -217.895)" fill="#d8d7fd"/>
              <g id="Group_32" data-name="Group 32" transform="translate(29.622 4.86)">
                <g id="Group_31" data-name="Group 31">
                  <g id="Group_30" data-name="Group 30" transform="translate(0 29.406)">
                    <path id="Path_32" data-name="Path 32" d="M410.628,239.376c.16,2.326-1.394,2.783-3.72,2.941s-4.542-.037-4.7-2.363a4.221,4.221,0,1,1,8.422-.578Z" transform="translate(-402.196 -235.443)" fill="#eb8175"/>
                    <path id="Path_33" data-name="Path 33" d="M411.693,240.831l-4.866.334a2.324,2.324,0,0,1-2.472-2.152h0a2.326,2.326,0,0,1,2.154-2.47l4.866-.334a2.322,2.322,0,0,1,2.47,2.152h0A2.322,2.322,0,0,1,411.693,240.831Z" transform="translate(-400.144 -234.719)" fill="#eb8175"/>
                  </g>
                  <path id="Path_34" data-name="Path 34" d="M409.081,256.409l-2.154-7.86,21.857-3.513-1.242-20.324c.262-2.152,2.62-4.571,4.772-4.31h0c2.152.262,4.269,2.6,4.007,4.753l1.574,24.35a3.925,3.925,0,0,1-2.716,3.271Z" transform="translate(-397.688 -220.384)" fill="#d8d7fd"/>
                </g>
              </g>
              <g id="Group_33" data-name="Group 33" transform="translate(0 13.747)">
                <path id="Path_35" data-name="Path 35" d="M389.554,225.009l23.848,2.248a1.671,1.671,0,0,1,1.5,1.468l2.5,21.49a1.669,1.669,0,0,1-1.814,1.855l-24.243-2.287a1.668,1.668,0,0,1-1.505-1.5l-2.105-21.452A1.666,1.666,0,0,1,389.554,225.009Z" transform="translate(-386.355 -224.872)" fill="#091218"/>
                <path id="Path_36" data-name="Path 36" d="M388.852,224.943,412.7,227.19a1.667,1.667,0,0,1,1.5,1.468l2.5,21.49A1.669,1.669,0,0,1,414.889,252l-24.245-2.287a1.67,1.67,0,0,1-1.5-1.5l-2.107-21.452A1.669,1.669,0,0,1,388.852,224.943Z" transform="translate(-387.026 -224.935)" fill="#1b2934"/>
                <path id="Path_37" data-name="Path 37" d="M403.15,237.989l16.3,1.537a.9.9,0,0,1,.814.984h0a.9.9,0,0,1-.984.814L402,239.758Z" transform="translate(-372.762 -212.498)" fill="#091218"/>
                <path id="Path_38" data-name="Path 38" d="M397.5,233.009a2.611,2.611,0,1,1-2.355-2.845A2.613,2.613,0,0,1,397.5,233.009Z" transform="translate(-382.008 -219.965)" fill="#fff"/>
              </g>
              <path id="Path_39" data-name="Path 39" d="M426.781,225l.538,15.279-20.392,3.871,17.97-5.613Z" transform="translate(-368.065 -211.125)" fill="#c8c6f2"/>
            </g>
            <g id="Group_40" data-name="Group 40" transform="translate(56.68)">
              <g id="Group_38" data-name="Group 38" transform="translate(3.009 7.658)">
                <path id="Path_40" data-name="Path 40" d="M411.556,219.624l1.363,3.659a3.587,3.587,0,0,0,3.117,2.324h0a3.584,3.584,0,0,0,3.538-4.979l-2.39-5.618Z" transform="translate(-401.415 -199.238)" fill="#eb8175"/>
                <path id="Path_41" data-name="Path 41" d="M412.946,223.986s6.715-1.269,5.729-7.141-7.3-1.291-7.3-1.291l.615,5.862Z" transform="translate(-401.591 -200.34)" fill="#e16c5f"/>
                <g id="Group_37" data-name="Group 37">
                  <g id="Group_36" data-name="Group 36">
                    <path id="Path_42" data-name="Path 42" d="M407.357,213.008a10.535,10.535,0,1,0,14.007-5.081A10.534,10.534,0,0,0,407.357,213.008Z" transform="translate(-406.363 -206.933)" fill="#eb8175"/>
                    <g id="Group_35" data-name="Group 35" clip-path="url(#clip-path-2)">
                      <path id="Path_43" data-name="Path 43" d="M422.282,221.728s-1.658,8.442,4.546,8.625,2.826-15.831,2.826-15.831l-9.816-9.881-15.022,3.7,1.49,9.713s2.388,1.267,15.3-.861Z" transform="translate(-407.838 -209.115)" fill="#bf4252"/>
                      <path id="Path_44" data-name="Path 44" d="M410.621,210.011l4.935,7.218,4.254-4.7Z" transform="translate(-402.306 -204.001)" fill="#bf4252"/>
                    </g>
                  </g>
                  <path id="Path_46" data-name="Path 46" d="M413.048,213.228a2.978,2.978,0,1,0,3.96-1.437A2.979,2.979,0,0,0,413.048,213.228Z" transform="translate(-400.261 -202.572)" fill="#eb8175"/>
                </g>
              </g>
              <g id="Group_39" data-name="Group 39">
                <path id="Path_47" data-name="Path 47" d="M406.056,219.449s-2.277-8.3,3.107-13.444a10.8,10.8,0,0,1,15.639.742c1.851,2.21,3.339,5.538,3.476,10.541Z" transform="translate(-404.102 -203.011)" fill="#f5d100"/>
                <path id="Path_48" data-name="Path 48" d="M406.44,215.093l-.064-5.184a2.442,2.442,0,0,1,2.326-2.468h0a2.439,2.439,0,0,1,2.542,2.195l.519,5.173" transform="translate(-403.342 -198.794)" fill="none" stroke="#f1ab00" stroke-miterlimit="10" stroke-width="0.28"/>
                <line id="Line_1" data-name="Line 1" x1="24.176" y2="2.32" transform="translate(0 14.276)" fill="none" stroke="#fff" stroke-linecap="round" stroke-linejoin="round" stroke-width="1.121"/>
              </g>
            </g>
          </g>
          <g id="Group_64" data-name="Group 64" transform="translate(348.356 256.946)">
            <g id="Group_46" data-name="Group 46" transform="translate(17.636 87.569)">
              <g id="Group_43" data-name="Group 43" transform="translate(36.641 6.782)">
                <path id="Path_49" data-name="Path 49" d="M532.874,353.776l5.419,5.251-6.178,3.323-5.293-5.185Z" transform="translate(-494.728 -303.462)" fill="#eb8175"/>
                <path id="Path_50" data-name="Path 50" d="M510.387,339.105l3.622,16.028a25.465,25.465,0,0,0,4.122,9.117l23.839,21.417,9.43-7.68-20.355-21.554-7.457-28.424Z" transform="translate(-510.387 -328.01)" fill="#7e1220"/>
                <g id="Group_42" data-name="Group 42" transform="translate(32.28 53.598)">
                  <path id="Path_51" data-name="Path 51" d="M531.845,360.6l-1.953,6.229-2.23,3.1a3.958,3.958,0,0,0,.092,4.743l.506.648,15.21-14.173-6.081-5.69Z" transform="translate(-526.918 -355.458)" fill="#7e1220"/>
                  <path id="Path_52" data-name="Path 52" d="M543.55,359.037l-15.33,14.284L526.993,372l15.33-14.284,1.227,1.317" transform="translate(-526.846 -353.303)" fill="#7e1220"/>
                </g>
              </g>
              <g id="Group_45" data-name="Group 45">
                <path id="Path_53" data-name="Path 53" d="M507.626,359.622l-2.033,6.788-6.981-1.872,2.042-6.665Z" transform="translate(-484.964 -292.777)" fill="#eb8175"/>
                <path id="Path_54" data-name="Path 54" d="M517.561,324.537l-19.554,66.1,12.339,3.081,11.007-33.135L534.874,338.9a29.8,29.8,0,0,0,1.933-3.029,12.81,12.81,0,0,0,1.547-6.315l-.047-4.3Z" transform="translate(-485.54 -324.537)" fill="#8d1e2c"/>
                <g id="Group_44" data-name="Group 44" transform="translate(0 71.108)">
                  <path id="Path_55" data-name="Path 55" d="M505.624,360.952l-6.169,2.279-3.849.133a3.986,3.986,0,0,0-3.726,2.993l-.205.8,20.666,3.4.793-8.352Z" transform="translate(-491.572 -360.952)" fill="#8d1f2d"/>
                  <path id="Path_56" data-name="Path 56" d="M512.452,368.492l-20.829-3.426.294-1.789,20.829,3.426-.294,1.789" transform="translate(-491.623 -358.737)" fill="#8d1f2d"/>
                </g>
              </g>
            </g>
            <g id="Group_57" data-name="Group 57">
              <g id="Group_51" data-name="Group 51">
                <g id="Group_47" data-name="Group 47">
                  <path id="Path_57" data-name="Path 57" d="M497.9,290.156l-7.9,12.33,3.787,2.719,8.18-13.046Z" transform="translate(-475.534 -269.723)" fill="#9d2e3c"/>
                  <path id="Path_58" data-name="Path 58" d="M494.694,279.692s3.652,15.282,22.155,21.3a1.455,1.455,0,0,1,1.016,1.177c.236,1.769.238,5.6-3.855,6.729a1.476,1.476,0,0,1-1.158-.184c-2.828-1.771-16.75-9.91-30.261-7.563Z" transform="translate(-482.591 -279.692)" fill="#e86878"/>
                  <path id="Path_59" data-name="Path 59" d="M494.694,279.692s-3.392,15.245-12.1,21.46C482.591,301.152,483.819,287.784,494.694,279.692Z" transform="translate(-482.591 -279.692)" fill="#9d2e3c"/>
                </g>
                <g id="Group_50" data-name="Group 50" transform="translate(11.8 27.816)">
                  <g id="Group_49" data-name="Group 49">
                    <g id="Group_48" data-name="Group 48">
                      <path id="Path_60" data-name="Path 60" d="M488.722,298.085a6.265,6.265,0,0,0,4.542,6.8,5.185,5.185,0,0,0,6.118-4.042,6.269,6.269,0,0,0-4.542-6.8A5.184,5.184,0,0,0,488.722,298.085Z" transform="translate(-488.634 -293.937)" fill="#eb8175"/>
                    </g>
                    <path id="Path_61" data-name="Path 61" d="M500.7,303.071l-5.479-5.724-3.579,4.4,9.058,6.639" transform="translate(-485.766 -290.688)" fill="#eb8175"/>
                  </g>
                  <path id="Path_62" data-name="Path 62" d="M498.663,297.568l-5.792,8.609,15.835,14.495a8.368,8.368,0,0,0,2.976.287l20.91-2.71A5.973,5.973,0,0,0,538.273,312h0c-.156-3.294.476-8.063-2.82-7.906l-24.292,4.989Z" transform="translate(-484.597 -290.477)" fill="#c8c6f2"/>
                </g>
              </g>
              <g id="Group_53" data-name="Group 53" transform="translate(48.353 41.397)">
                <g id="Group_52" data-name="Group 52">
                  <path id="Path_63" data-name="Path 63" d="M531.758,314.157a12.007,12.007,0,0,0-5.39-11.572c-1.74-1.115-3.466-1.869-4.712-1.658-4.169.7-8.457,2.593-10.291,8.223-3.12,9.574-4.013,37.869-4.013,37.869l22.413.766Z" transform="translate(-507.353 -300.892)" fill="#d8d7fd"/>
                </g>
                <path id="Path_64" data-name="Path 64" d="M515.615,308.05l6.738,24.764,1.362-21.01Z" transform="translate(-499.482 -294.072)" fill="#c8c6f2"/>
              </g>
              <g id="Group_56" data-name="Group 56" transform="translate(60.01 43.928)">
                <g id="Group_55" data-name="Group 55" transform="translate(21.775 40.61)">
                  <g id="Group_54" data-name="Group 54" transform="translate(1.495 9.836)">
                    <path id="Path_65" data-name="Path 65" d="M533.912,337.891a6.266,6.266,0,0,0,.348-8.172,5.182,5.182,0,0,0-7.323-.348,6.268,6.268,0,0,0-.349,8.172A5.186,5.186,0,0,0,533.912,337.891Z" transform="translate(-525.24 -328.022)" fill="#eb8175"/>
                  </g>
                  <path id="Path_66" data-name="Path 66" d="M524.474,325.05l4.087,10.083,5.488-1.443-3.394-10.706" transform="translate(-524.474 -322.985)" fill="#eb8175"/>
                </g>
                <path id="Path_67" data-name="Path 67" d="M535.359,352.642l11.222-2.466-7.612-26.032a8.339,8.339,0,0,0-1.344-2.673l-13.972-17.393c-1.888-2.706-5.073-2.222-7.778-.336h0a5.975,5.975,0,0,0-1.48,8.317l13.458,16.18Z" transform="translate(-513.323 -302.188)" fill="#d8d7fd"/>
              </g>
            </g>
            <g id="Group_63" data-name="Group 63" transform="translate(47.295 10.482)">
              <g id="Group_61" data-name="Group 61" transform="translate(2.302 7.332)">
                <path id="Path_68" data-name="Path 68" d="M511.991,300.69l.426,3.925a3.622,3.622,0,0,0,2.476,3.052h0a3.625,3.625,0,0,0,4.71-4l-.945-6.1Z" transform="translate(-504.178 -280.477)" fill="#eb8175"/>
                <path id="Path_69" data-name="Path 69" d="M512.331,305.694s6.922-.227,7.418-6.227-6.862-2.429-6.862-2.429l-.855,5.9Z" transform="translate(-504.139 -281.985)" fill="#e16c5f"/>
                <g id="Group_60" data-name="Group 60">
                  <g id="Group_59" data-name="Group 59">
                    <path id="Path_70" data-name="Path 70" d="M510.4,292.719a10.656,10.656,0,1,0,14.995-1.494A10.655,10.655,0,0,0,510.4,292.719Z" transform="translate(-507.99 -288.814)" fill="#eb8175"/>
                    <g id="Group_58" data-name="Group 58" clip-path="url(#clip-path-3)">
                      <path id="Path_71" data-name="Path 71" d="M522.338,304.338s-3.728,7.86,2.308,9.586,6.713-14.815,6.713-14.815l-7.165-12.13-15.647-.115-.957,9.892s2.027,1.838,15.216,2.968Z" transform="translate(-508.37 -290.674)" fill="#ae3746"/>
                      <path id="Path_72" data-name="Path 72" d="M512.908,291.715l3.04,8.3,5.341-3.549Z" transform="translate(-503.305 -286.051)" fill="#ae3746"/>
                    </g>
                  </g>
                  <path id="Path_74" data-name="Path 74" d="M514.894,295.155a3.012,3.012,0,1,0,4.239-.422A3.012,3.012,0,0,0,514.894,295.155Z" transform="translate(-502.063 -283.824)" fill="#eb8175"/>
                </g>
              </g>
              <g id="Group_62" data-name="Group 62">
                <path id="Path_75" data-name="Path 75" d="M507.824,299.35s-.523-8.691,5.878-12.655a10.926,10.926,0,0,1,15.325,4c1.371,2.574,2.148,6.176,1.24,11.156Z" transform="translate(-505.856 -285.06)" fill="#f5d100"/>
                <path id="Path_76" data-name="Path 76" d="M508.413,295.91l1.017-5.143a2.47,2.47,0,0,1,2.818-1.957h0a2.467,2.467,0,0,1,2.058,2.7l-.564,5.229" transform="translate(-505.285 -281.518)" fill="none" stroke="#f1ab00" stroke-miterlimit="10" stroke-width="0.283"/>
                <line id="Line_2" data-name="Line 2" x1="24.411" y1="2.746" transform="translate(0 14.041)" fill="none" stroke="#fff" stroke-linecap="round" stroke-linejoin="round" stroke-width="1.133"/>
              </g>
            </g>
          </g>
          <g id="Group_75" data-name="Group 75" transform="translate(292.312)">
            <g id="Group_65" data-name="Group 65" transform="translate(238.465 81.316)">
              <line id="Line_3" data-name="Line 3" x1="25.257" y2="24.899" transform="translate(13.02 266.075)" fill="none" stroke="#ae3746" stroke-miterlimit="10" stroke-width="2.649"/>
              <line id="Line_4" data-name="Line 4" x1="25.257" y2="24.899" transform="translate(13.02 239.467)" fill="none" stroke="#ae3746" stroke-miterlimit="10" stroke-width="2.649"/>
              <line id="Line_5" data-name="Line 5" x1="25.257" y2="24.899" transform="translate(13.02 212.859)" fill="none" stroke="#ae3746" stroke-miterlimit="10" stroke-width="2.649"/>
              <line id="Line_6" data-name="Line 6" x1="25.257" y2="24.899" transform="translate(13.02 186.252)" fill="none" stroke="#ae3746" stroke-miterlimit="10" stroke-width="2.649"/>
              <line id="Line_7" data-name="Line 7" x1="25.257" y2="24.899" transform="translate(13.02 159.645)" fill="none" stroke="#ae3746" stroke-miterlimit="10" stroke-width="2.649"/>
              <line id="Line_8" data-name="Line 8" x1="25.257" y2="24.899" transform="translate(13.02 133.037)" fill="none" stroke="#ae3746" stroke-miterlimit="10" stroke-width="2.649"/>
              <line id="Line_9" data-name="Line 9" x1="25.257" y2="24.899" transform="translate(13.02 106.43)" fill="none" stroke="#ae3746" stroke-miterlimit="10" stroke-width="2.649"/>
              <line id="Line_10" data-name="Line 10" x1="25.257" y2="24.899" transform="translate(13.02 79.822)" fill="none" stroke="#bf4252" stroke-miterlimit="10" stroke-width="2.649"/>
              <line id="Line_11" data-name="Line 11" x1="25.257" y2="24.899" transform="translate(13.02 53.215)" fill="none" stroke="#bf4252" stroke-miterlimit="10" stroke-width="2.649"/>
              <line id="Line_12" data-name="Line 12" x1="25.257" y2="24.899" transform="translate(13.02 26.608)" fill="none" stroke="#bf4252" stroke-miterlimit="10" stroke-width="2.649"/>
              <line id="Line_13" data-name="Line 13" x1="25.257" y2="24.899" transform="translate(13.02)" fill="none" stroke="#bf4252" stroke-miterlimit="10" stroke-width="2.649"/>
              <line id="Line_14" data-name="Line 14" x2="25.257" transform="translate(13.02 264.366)" fill="none" stroke="#bf4252" stroke-miterlimit="10" stroke-width="2.649"/>
              <line id="Line_15" data-name="Line 15" x2="25.257" transform="translate(13.02 237.759)" fill="none" stroke="#bf4252" stroke-miterlimit="10" stroke-width="2.649"/>
              <line id="Line_16" data-name="Line 16" x2="25.257" transform="translate(13.02 211.151)" fill="none" stroke="#bf4252" stroke-miterlimit="10" stroke-width="2.649"/>
              <line id="Line_17" data-name="Line 17" x2="25.257" transform="translate(13.02 184.543)" fill="none" stroke="#bf4252" stroke-miterlimit="10" stroke-width="2.649"/>
              <line id="Line_18" data-name="Line 18" x2="25.257" transform="translate(13.02 157.936)" fill="none" stroke="#bf4252" stroke-miterlimit="10" stroke-width="2.649"/>
              <line id="Line_19" data-name="Line 19" x2="25.257" transform="translate(13.02 131.329)" fill="none" stroke="#bf4252" stroke-miterlimit="10" stroke-width="2.649"/>
              <line id="Line_20" data-name="Line 20" x2="25.257" transform="translate(13.02 104.721)" fill="none" stroke="#bf4252" stroke-miterlimit="10" stroke-width="2.649"/>
              <line id="Line_21" data-name="Line 21" x2="25.257" transform="translate(13.02 78.114)" fill="none" stroke="#bf4252" stroke-miterlimit="10" stroke-width="2.649"/>
              <line id="Line_22" data-name="Line 22" x2="25.257" transform="translate(13.02 51.506)" fill="none" stroke="#bf4252" stroke-miterlimit="10" stroke-width="2.649"/>
              <line id="Line_23" data-name="Line 23" x2="25.257" transform="translate(13.02 24.899)" fill="none" stroke="#ae3746" stroke-miterlimit="10" stroke-width="2.649"/>
              <line id="Line_24" data-name="Line 24" y1="293.929" transform="translate(13.02 4.255)" fill="none" stroke="#ae3746" stroke-miterlimit="10" stroke-width="2.649"/>
              <line id="Line_25" data-name="Line 25" y1="293.929" transform="translate(38.277 4.255)" fill="none" stroke="#ae3746" stroke-miterlimit="10" stroke-width="2.649"/>
              <rect id="Rectangle_11" data-name="Rectangle 11" width="50.297" height="52.259" transform="translate(0 290.973)" fill="#bf4252"/>
            </g>
            <g id="Group_74" data-name="Group 74">
              <g id="Group_66" data-name="Group 66" transform="translate(242.123 35.803)">
                <path id="Rectangle_12" data-name="Rectangle 12" d="M4.3,0H38.785a4.3,4.3,0,0,1,4.3,4.3V45.468a4.3,4.3,0,0,1-4.3,4.3H4.3a4.3,4.3,0,0,1-4.3-4.3V4.3A4.3,4.3,0,0,1,4.3,0Z" fill="#bf4252"/>
                <path id="Rectangle_13" data-name="Rectangle 13" d="M0,0H20.027a3.259,3.259,0,0,1,3.259,3.259V20.026a3.259,3.259,0,0,1-3.259,3.259H0a0,0,0,0,1,0,0V0A0,0,0,0,1,0,0Z" transform="translate(3.926 12.001)" fill="#e57a7a"/>
              </g>
              <g id="Group_73" data-name="Group 73">
                <g id="Group_69" data-name="Group 69" transform="translate(0 81.316)">
                  <line id="Line_26" data-name="Line 26" x2="20.204" y2="58.693" transform="translate(84.852 6.972)" fill="none" stroke="#ae3746" stroke-miterlimit="10" stroke-width="2.162"/>
                  <line id="Line_27" data-name="Line 27" x1="39.4" y2="53.215" transform="translate(31.398)" fill="none" stroke="#ae3746" stroke-miterlimit="10" stroke-width="2.162"/>
                  <g id="Group_68" data-name="Group 68" transform="translate(0 15.504)">
                    <rect id="Rectangle_14" data-name="Rectangle 14" width="93.727" height="93.727" rx="6.838" transform="matrix(-0.607, -0.794, 0.794, -0.607, 56.934, 131.387)" fill="#f5d100"/>
                    <rect id="Rectangle_15" data-name="Rectangle 15" width="76.686" height="76.686" rx="5.595" transform="matrix(-0.607, -0.794, 0.794, -0.607, 58.527, 119.443)" fill="none" stroke="#bf4252" stroke-miterlimit="10" stroke-width="1.114"/>
                    <g id="Group_67" data-name="Group 67" transform="translate(57.088 39.994)">
                      <path id="Path_77" data-name="Path 77" d="M495.186,263.737c-1.054,7.9-13.048,6.305-12-1.6C484.255,254.163,496.249,255.763,495.186,263.737Zm5.159-44.159L495.639,252.8l-10.088-1.345c1.49-11.175,2.732-22.038,4.232-33.284Z" transform="translate(-483.126 -218.171)" fill="#ae3746"/>
                    </g>
                  </g>
                </g>
                <g id="Group_72" data-name="Group 72" transform="translate(62.197)">
                  <g id="Group_70" data-name="Group 70" transform="translate(0 59.454)">
                    <circle id="Ellipse_2" data-name="Ellipse 2" cx="16.89" cy="16.89" r="16.89" fill="#ae3746"/>
                    <path id="Path_78" data-name="Path 78" d="M512.162,193.031a11.944,11.944,0,1,1-11.943-11.943A11.942,11.942,0,0,1,512.162,193.031Z" transform="translate(-483.329 -176.14)" fill="#bf4252"/>
                  </g>
                  <g id="Group_71" data-name="Group 71" transform="translate(16.891)">
                    <line id="Line_28" data-name="Line 28" y2="35.803" transform="translate(66.235)" fill="none" stroke="#bf4252" stroke-miterlimit="10" stroke-width="2.649"/>
                    <line id="Line_29" data-name="Line 29" y2="35.803" transform="translate(34.129)" fill="none" stroke="#bf4252" stroke-miterlimit="10" stroke-width="2.649"/>
                    <line id="Line_30" data-name="Line 30" y2="35.803" transform="translate(98.236)" fill="none" stroke="#bf4252" stroke-miterlimit="10" stroke-width="2.649"/>
                    <line id="Line_31" data-name="Line 31" y2="35.803" transform="translate(133.792)" fill="none" stroke="#bf4252" stroke-miterlimit="10" stroke-width="2.649"/>
                    <line id="Line_32" data-name="Line 32" y2="35.803" transform="translate(166.961)" fill="none" stroke="#bf4252" stroke-miterlimit="10" stroke-width="2.649"/>
                    <line id="Line_33" data-name="Line 33" y2="35.803" transform="translate(201.35)" fill="none" stroke="#ae3746" stroke-miterlimit="10" stroke-width="2.649"/>
                    <line id="Line_34" data-name="Line 34" y2="35.803" transform="translate(235.128)" fill="none" stroke="#ae3746" stroke-miterlimit="10" stroke-width="2.649"/>
                    <line id="Line_35" data-name="Line 35" y1="35.803" x2="33.779" transform="translate(32.456)" fill="none" stroke="#ae3746" stroke-miterlimit="10" stroke-width="2.649"/>
                    <line id="Line_36" data-name="Line 36" y1="35.803" x2="33.779" transform="translate(66.235)" fill="none" stroke="#ae3746" stroke-miterlimit="10" stroke-width="2.649"/>
                    <line id="Line_37" data-name="Line 37" y1="35.803" x2="33.779" transform="translate(100.014)" fill="none" stroke="#ae3746" stroke-miterlimit="10" stroke-width="2.649"/>
                    <line id="Line_38" data-name="Line 38" y1="35.803" x2="33.779" transform="translate(133.792)" fill="none" stroke="#ae3746" stroke-miterlimit="10" stroke-width="2.649"/>
                    <line id="Line_39" data-name="Line 39" y1="35.803" x2="33.779" transform="translate(167.571)" fill="none" stroke="#ae3746" stroke-miterlimit="10" stroke-width="2.649"/>
                    <line id="Line_40" data-name="Line 40" y1="35.803" x2="33.779" transform="translate(201.35)" fill="none" stroke="#bf4252" stroke-miterlimit="10" stroke-width="2.649"/>
                    <path id="Path_79" data-name="Path 79" d="M494.392,183.91H769.8l-37.082-35.8H522.882Z" transform="translate(-494.392 -148.107)" fill="none" stroke="#ae3746" stroke-linecap="round" stroke-linejoin="round" stroke-width="2.649"/>
                    <line id="Line_41" data-name="Line 41" y2="40.542" transform="translate(0 35.803)" fill="none" stroke="#ae3746" stroke-linecap="round" stroke-linejoin="round" stroke-width="2.649"/>
                  </g>
                </g>
              </g>
            </g>
          </g>
          <g id="Group_82" data-name="Group 82" transform="translate(222.274 368.105)">
            <g id="Group_78" data-name="Group 78">
              <g id="Group_77" data-name="Group 77" transform="translate(3.523)">
                <path id="Path_80" data-name="Path 80" d="M419.827,388.223,439.1,338.4a2.788,2.788,0,0,1,5.2,0l19.279,49.823Z" transform="translate(-419.827 -336.617)" fill="#f5d100"/>
                <g id="Group_76" data-name="Group 76" clip-path="url(#clip-path-4)">
                  <rect id="Rectangle_16" data-name="Rectangle 16" width="34.229" height="10.575" transform="translate(4.465 12.494)" fill="#fafafa"/>
                  <rect id="Rectangle_17" data-name="Rectangle 17" width="38.714" height="10.575" transform="translate(2.596 32.479)" fill="#fafafa"/>
                </g>
              </g>
              <rect id="Rectangle_18" data-name="Rectangle 18" width="51.022" height="4.199" transform="translate(0 51.606)" fill="#e8c400"/>
            </g>
            <g id="Group_81" data-name="Group 81" transform="translate(279.935 0.154)">
              <g id="Group_80" data-name="Group 80" transform="translate(3.523)">
                <path id="Path_82" data-name="Path 82" d="M563.184,388.3l19.279-49.825a2.787,2.787,0,0,1,5.2,0L606.94,388.3Z" transform="translate(-563.184 -336.696)" fill="#f5d100"/>
                <g id="Group_79" data-name="Group 79" clip-path="url(#clip-path-5)">
                  <rect id="Rectangle_19" data-name="Rectangle 19" width="34.229" height="10.575" transform="translate(4.466 12.494)" fill="#fafafa"/>
                  <rect id="Rectangle_20" data-name="Rectangle 20" width="38.714" height="10.575" transform="translate(2.596 32.479)" fill="#fafafa"/>
                </g>
              </g>
              <rect id="Rectangle_21" data-name="Rectangle 21" width="51.022" height="4.199" transform="translate(0 51.606)" fill="#e8c400"/>
            </g>
          </g>
          <g id="Group_85" data-name="Group 85" transform="translate(0.585 290.937)">
            <g id="Group_84" data-name="Group 84" transform="translate(75.008)">
              <circle id="Ellipse_3" data-name="Ellipse 3" cx="40.035" cy="40.035" r="40.035" transform="translate(0 79.196) rotate(-81.529)" fill="#ffacac"/>
              <g id="Group_83" data-name="Group 83" transform="translate(29.928 31.226)">
                <line id="Line_42" data-name="Line 42" y2="101.746" transform="translate(15.568)" fill="none" stroke="#bf4252" stroke-linecap="round" stroke-linejoin="round" stroke-width="1.137"/>
                <line id="Line_43" data-name="Line 43" x2="15.568" y2="17.458" transform="translate(0 2.073)" fill="none" stroke="#bf4252" stroke-linecap="round" stroke-linejoin="round" stroke-width="1.137"/>
                <path id="Path_84" data-name="Path 84" d="M380.015,322.6c-1.115,1.115-13.81,14.335-13.81,14.335" transform="translate(-350.637 -304.03)" fill="none" stroke="#bf4252" stroke-linecap="round" stroke-linejoin="round" stroke-width="1.137"/>
              </g>
            </g>
            <path id="Path_107" data-name="Path 107" d="M0,0H671.539" transform="translate(0 133.952)" fill="none" stroke="#ae3746" stroke-linecap="round" stroke-width="1.137"/>
          </g>
        </g>
      </g>
    </g>
  </g>
</svg>
